<?xml version="1.0" standalone="no"?>
<!DOCTYPE svg PUBLIC "-//W3C//DTD SVG 20010904//EN"
 "http://www.w3.org/TR/2001/REC-SVG-20010904/DTD/svg10.dtd">
<svg version="1.0" xmlns="http://www.w3.org/2000/svg"
 width="544.000000pt" height="544.000000pt" viewBox="0 0 544.000000 544.000000"
 preserveAspectRatio="xMidYMid meet">
<metadata>
Created by potrace 1.16, written by Peter Selinger 2001-2019
</metadata>
<g transform="translate(0.000000,544.000000) scale(0.100000,-0.100000)"
fill="#000000" stroke="none">
<path d="M0 3935 c0 -1333 2 -1504 15 -1499 8 4 15 1 15 -5 0 -6 -7 -11 -15
-11 -13 0 -15 -68 -15 -557 l1 -558 22 30 c12 16 29 37 37 45 8 8 26 38 40 65
14 27 31 56 38 63 17 19 164 92 185 92 9 0 17 5 17 10 0 6 7 10 15 10 8 0 23
4 33 9 9 5 35 14 57 20 22 7 50 17 63 22 12 5 32 13 45 18 12 4 33 13 47 19
14 6 43 16 65 22 71 20 112 42 123 63 34 73 74 154 81 167 22 41 27 56 24 68
-3 6 -9 9 -15 6 -5 -3 -3 8 6 24 9 17 16 47 16 67 0 22 8 44 20 57 11 12 20
30 20 41 0 13 5 17 16 13 23 -9 61 38 74 93 10 43 9 52 -10 82 -11 19 -23 43
-27 54 -4 11 -21 47 -38 80 -18 33 -38 78 -45 100 -25 77 -70 145 -106 160
-40 16 -45 46 -13 68 18 13 19 18 8 39 -8 13 -12 46 -10 79 1 32 -5 110 -14
175 -14 92 -16 160 -12 304 6 229 31 381 94 563 71 209 98 262 230 469 69 109
119 172 186 241 104 105 184 179 239 220 23 17 35 33 32 42 -9 23 4 36 24 24
15 -9 31 -3 84 29 37 23 88 53 115 67 26 14 55 30 63 35 8 5 57 29 108 52 75
35 92 47 88 61 -2 10 1 20 8 23 7 3 19 20 26 39 7 19 17 32 21 29 4 -2 7 14 6
36 l-1 40 -297 0 c-229 0 -298 -3 -302 -12 -3 -10 -9 -10 -26 0 -16 9 -170 12
-677 12 -596 0 -654 -1 -640 -16 25 -25 19 -30 -7 -6 -18 17 -36 22 -80 22
l-57 0 0 -1505z"/>
<path d="M2305 5411 c8 -17 21 -33 27 -38 7 -4 148 -8 313 -8 165 0 321 -4
348 -9 44 -8 47 -8 47 13 0 13 4 19 10 16 6 -4 8 -15 5 -24 -5 -15 4 -20 56
-30 93 -19 205 -48 242 -64 17 -8 55 -22 82 -32 57 -20 227 -95 235 -104 3 -3
23 -15 45 -26 78 -38 247 -164 379 -282 32 -29 63 -50 67 -47 5 3 9 -2 9 -10
0 -8 18 -34 40 -57 22 -24 52 -59 67 -78 15 -20 28 -38 29 -40 2 -2 10 4 19
13 27 26 37 18 19 -14 -17 -29 -17 -30 3 -52 11 -13 39 -52 62 -87 23 -35 50
-71 62 -79 11 -8 18 -20 15 -28 -3 -8 1 -14 10 -14 8 0 17 7 21 16 4 11 13 14
30 9 15 -3 47 3 80 15 32 12 88 22 132 24 42 3 83 5 93 5 11 1 15 7 11 21 -3
11 0 20 6 20 10 0 15 -13 12 -32 -2 -14 116 -33 199 -32 72 0 93 5 137 27 29
15 56 33 60 41 4 8 22 29 38 48 17 18 34 41 38 51 3 9 11 17 16 17 5 0 13 9
16 20 4 11 17 32 31 45 l24 24 0 396 0 395 -208 0 c-148 0 -211 -3 -220 -12
-9 -9 -12 -9 -12 0 0 17 -301 17 -319 0 -11 -10 -14 -10 -18 0 -4 9 -251 12
-1189 12 l-1185 0 16 -29z"/>
<path d="M2520 5279 c-30 -4 -68 -12 -83 -18 -27 -10 -27 -12 -27 -98 0 -49 4
-94 9 -102 7 -10 25 -12 72 -8 50 4 66 10 81 28 15 20 19 22 28 9 5 -8 10 -18
10 -22 0 -5 54 -8 120 -8 197 0 446 -46 580 -107 30 -14 75 -33 100 -43 25
-10 70 -32 100 -49 30 -18 71 -39 90 -49 35 -17 45 -24 104 -72 17 -14 43 -34
59 -43 25 -16 29 -16 52 -1 28 18 31 14 13 -17 -12 -18 -5 -28 77 -108 110
-107 152 -153 187 -208 15 -23 36 -44 48 -48 11 -3 20 -11 20 -17 0 -6 25 -35
55 -65 54 -51 58 -53 111 -53 49 0 55 2 64 26 14 36 13 56 -7 100 -9 22 -16
42 -15 47 1 4 -2 7 -7 7 -5 0 -12 9 -16 20 -3 11 -24 39 -45 62 -22 24 -40 49
-40 56 0 14 -77 118 -120 163 -14 14 -41 43 -60 65 -51 56 -175 164 -188 164
-7 0 -12 5 -12 11 0 5 -4 8 -9 4 -5 -3 -16 3 -23 13 -30 43 -217 154 -378 226
-79 35 -210 79 -290 97 -188 43 -493 60 -660 38z"/>
<path d="M2010 5141 c0 -6 -13 -11 -29 -11 -17 0 -49 -10 -73 -23 -24 -13 -61
-31 -83 -40 -46 -20 -48 -21 -172 -102 -59 -38 -94 -68 -98 -82 -3 -15 -13
-23 -26 -23 -12 0 -31 -9 -43 -19 -86 -77 -116 -107 -116 -116 0 -6 -27 -34
-60 -63 -33 -30 -67 -67 -76 -84 -9 -17 -20 -36 -25 -42 -5 -6 -19 -24 -33
-41 -31 -40 -139 -222 -165 -279 -12 -25 -21 -54 -21 -65 0 -12 -6 -21 -12
-21 -14 0 -55 -122 -88 -260 -54 -230 -68 -557 -29 -722 24 -103 33 -122 77
-173 30 -34 35 -36 63 -26 16 5 36 8 43 5 7 -3 16 2 20 11 3 9 10 14 15 11 16
-10 18 18 5 124 -28 235 -15 525 32 720 30 122 35 136 149 373 26 54 45 99 44
101 -2 1 -16 7 -31 14 -16 6 -28 16 -28 22 0 17 26 11 45 -10 24 -27 29 -25
42 11 7 17 17 28 22 24 6 -3 11 -1 11 5 0 25 148 190 260 289 45 40 75 74 75
86 0 15 7 19 23 18 19 -3 64 18 82 37 3 3 25 15 50 28 25 13 63 34 85 47 22
13 59 34 81 45 51 25 66 43 87 100 25 67 23 116 -5 125 -42 14 -98 17 -98 6z"/>
<path d="M2800 4963 c-25 -2 -69 -5 -98 -9 l-53 -6 5 -46 6 -47 -22 48 c-21
48 -22 48 -57 42 -19 -4 -48 -13 -63 -21 -15 -8 -34 -14 -43 -14 -18 0 -36
-41 -32 -71 2 -11 19 -29 37 -41 39 -23 100 -82 100 -95 0 -5 12 -21 28 -35
27 -26 74 -84 80 -99 2 -5 13 -9 25 -9 18 0 19 -2 7 -10 -13 -8 -13 -10 2 -10
9 0 18 -4 20 -10 2 -5 29 -16 60 -25 62 -16 157 -81 196 -134 12 -17 29 -31
38 -31 8 0 19 -11 25 -24 l11 -24 29 32 c28 30 28 30 29 8 0 -14 5 -22 13 -19
6 2 17 -3 23 -11 9 -13 14 -12 31 8 20 21 22 21 47 4 18 -11 46 -17 86 -16
l60 1 20 -44 c11 -24 20 -53 20 -64 0 -29 50 -36 108 -15 26 9 53 24 61 33 12
14 13 14 8 -1 -6 -18 7 -25 17 -10 2 4 19 9 37 10 18 1 38 7 46 13 20 17 81
30 178 37 58 5 90 11 90 19 0 6 3 14 7 18 8 8 -11 46 -29 58 -7 4 -13 17 -13
27 0 11 -3 20 -8 20 -4 0 -15 12 -23 26 l-16 27 -49 -46 c-61 -58 -71 -52 -15
8 27 29 39 50 34 58 -4 7 -39 42 -78 76 -38 35 -76 71 -82 79 -11 13 -15 12
-32 -9 -10 -13 -28 -35 -40 -49 -20 -23 -20 -20 4 27 30 63 30 59 5 66 -11 3
-20 12 -20 21 0 9 -4 16 -8 16 -4 0 -48 23 -97 51 -49 28 -100 52 -112 53 -13
0 -23 6 -23 11 0 16 -68 45 -74 31 -3 -7 -5 -6 -5 2 -1 13 -39 31 -84 39 -18
3 -29 -1 -33 -11 -9 -24 -24 -19 -24 8 0 19 -7 26 -30 31 -38 8 -60 -8 -60
-44 -1 -14 -7 -39 -15 -56 -14 -29 -14 -28 -8 25 3 30 7 62 7 70 1 8 -10 20
-24 26 -30 14 -166 30 -230 27z"/>
<path d="M2042 4790 c-9 -9 -23 -15 -30 -12 -15 5 -102 -39 -102 -50 0 -5 -7
-8 -15 -8 -9 0 -15 -9 -15 -23 0 -31 -8 -38 -30 -25 -14 9 -23 8 -42 -5 -12
-10 -39 -28 -58 -41 -57 -38 -157 -134 -163 -156 -3 -13 6 -31 30 -55 19 -20
33 -38 31 -40 -2 -3 -20 11 -38 30 -19 19 -39 35 -46 35 -18 0 -94 -92 -94
-112 0 -11 -8 -18 -20 -18 -26 0 -63 -70 -42 -78 9 -3 6 -8 -9 -16 -12 -6 -33
-31 -46 -54 -24 -43 -24 -44 -6 -64 18 -21 18 -21 -9 -16 -20 4 -29 0 -36 -16
-10 -21 -23 -56 -24 -66 0 -3 -7 -14 -14 -25 -8 -11 -14 -29 -14 -40 0 -12 -5
-26 -12 -33 -9 -9 -7 -16 7 -32 18 -19 18 -20 -2 -20 -25 0 -38 -16 -46 -56
-5 -28 -2 -32 36 -52 l42 -21 -46 6 -46 5 -7 -52 c-5 -35 -3 -56 5 -67 10 -11
10 -16 0 -22 -7 -5 -15 -41 -19 -82 -12 -126 -14 -121 43 -135 l50 -12 -45 -1
-46 -1 1 -80 c1 -45 7 -86 13 -92 6 -6 37 -11 69 -11 56 1 57 1 18 -7 -22 -5
-52 -7 -66 -4 -24 5 -25 3 -21 -28 3 -18 8 -35 11 -38 4 -3 15 -24 25 -48 17
-36 25 -44 65 -55 25 -8 66 -12 91 -10 36 3 41 2 28 -7 -21 -13 -24 -40 -4
-40 7 0 19 -7 26 -15 27 -33 110 -59 110 -35 0 6 11 16 25 22 14 6 24 16 21
22 -2 6 -7 18 -10 27 -12 28 61 69 121 69 63 0 80 18 21 22 -44 3 -44 3 -31
50 8 26 -36 34 -53 9 -8 -11 -21 -18 -29 -15 -23 9 -18 30 10 42 14 6 25 18
25 26 0 20 17 24 76 18 l52 -5 17 39 c9 22 21 47 25 56 8 14 5 15 -23 7 -54
-15 -96 -11 -120 14 -13 12 -35 28 -50 34 -27 12 -37 33 -16 33 6 0 8 9 4 20
-6 18 -2 20 34 20 34 0 46 -6 78 -40 67 -69 134 -53 178 43 22 48 75 141 75
131 0 -14 29 30 30 45 0 8 -7 19 -17 26 -11 8 -14 18 -8 31 4 10 7 23 6 28 -6
25 11 55 32 58 23 3 27 23 4 24 -6 0 -28 10 -47 22 -19 12 -36 18 -38 13 -2
-5 -23 -6 -47 -3 -30 3 -45 1 -45 -7 0 -6 11 -11 25 -11 16 0 25 -6 25 -15 0
-17 -2 -18 -53 -6 -20 5 -39 5 -42 1 -3 -4 12 -11 32 -15 49 -9 70 -21 84 -47
10 -19 9 -20 -17 -14 -16 4 -33 13 -39 20 -18 23 -68 43 -123 49 -68 8 -73 12
-57 44 13 24 13 29 -1 36 -8 5 -21 6 -29 4 -7 -3 -16 -3 -19 0 -8 8 25 32 45
33 11 0 15 7 12 23 -5 26 21 92 40 104 8 4 22 20 31 34 18 28 52 39 136 42
l45 2 34 -66 c20 -38 47 -75 66 -88 38 -26 57 -68 23 -50 -21 11 -40 3 -22 -9
6 -4 14 -15 17 -26 7 -18 8 -18 27 -1 11 10 18 21 15 25 -2 3 9 4 25 2 32 -5
55 23 43 55 -3 10 -2 15 2 11 7 -7 19 8 41 50 4 7 -5 22 -20 35 -14 13 -26 26
-26 31 0 4 -9 19 -20 33 -17 22 -20 23 -20 7 0 -15 -8 -10 -35 20 -31 35 -35
37 -35 18 0 -13 6 -22 15 -22 8 0 16 -4 16 -10 1 -5 2 -14 3 -19 0 -5 4 -13 9
-17 12 -13 8 -34 -8 -34 -18 0 -34 28 -28 51 3 11 -1 21 -11 25 -10 4 -16 18
-16 35 0 16 -5 37 -11 47 -10 15 -7 23 15 45 15 15 29 26 32 26 15 -1 64 28
64 38 0 7 8 13 18 13 19 0 41 -28 58 -74 15 -43 36 -47 23 -4 -14 51 -12 78 7
71 10 -4 17 1 21 16 4 14 13 21 30 21 24 0 25 2 21 45 -6 50 5 60 20 18 6 -17
11 -21 11 -11 1 9 14 25 31 34 18 11 32 29 36 48 3 17 10 36 15 42 16 20 -2
71 -32 93 -16 12 -27 27 -23 33 4 7 3 8 -4 4 -7 -4 -12 -2 -12 3 0 6 -6 11
-14 11 -18 0 -146 129 -146 147 0 32 -106 42 -138 13z m-343 -1234 c15 -8 33
-22 41 -31 11 -13 10 -19 -8 -35 -12 -11 -18 -27 -15 -38 4 -16 -3 -20 -49
-27 -65 -9 -91 -9 -145 0 -62 11 -42 25 35 26 37 0 76 4 87 8 14 6 3 8 -33 9
-59 0 -88 17 -72 42 5 9 23 13 47 12 49 -2 103 7 103 17 0 4 -10 13 -22 19
-13 6 -17 11 -10 11 7 1 25 -5 41 -13z"/>
<path d="M5398 4263 c-18 -15 -40 -35 -48 -44 -8 -9 -31 -19 -50 -23 -56 -12
-381 -23 -425 -15 -103 20 -178 6 -232 -44 -19 -17 -23 -31 -23 -86 0 -36 5
-95 11 -131 10 -60 25 -189 33 -285 14 -167 20 -216 28 -221 4 -3 8 -12 8 -21
0 -23 117 -309 161 -392 21 -41 39 -79 39 -84 0 -20 82 -177 92 -177 5 0 8 -7
5 -15 -4 -8 0 -45 8 -82 18 -86 18 -181 0 -258 -11 -49 -21 -66 -54 -95 -45
-38 -142 -90 -208 -110 -92 -28 -119 -65 -128 -172 -2 -18 -4 -33 -5 -33 -1 0
-4 -13 -6 -30 -3 -16 -13 -79 -24 -140 -10 -60 -21 -143 -24 -184 -7 -87 -22
-182 -36 -231 -5 -19 -10 -45 -10 -57 0 -13 -22 -53 -50 -91 -71 -97 -160
-158 -290 -200 -78 -25 -213 -52 -270 -54 -27 -1 -39 -19 -46 -66 -3 -26 -12
-74 -20 -107 -7 -33 -15 -73 -18 -90 -39 -236 -54 -297 -84 -343 -8 -13 -33
-33 -56 -45 -37 -19 -62 -22 -239 -27 -195 -5 -198 -5 -216 -29 l-19 -25 -32
27 c-31 27 -33 27 -186 27 -166 0 -154 3 -171 -50 -3 -12 -7 -11 -16 5 -6 11
-12 25 -12 30 0 6 -214 12 -610 15 l-610 5 -36 24 c-20 14 -46 40 -59 58 -20
30 -22 41 -17 110 6 73 32 244 57 373 47 241 58 328 66 507 5 117 3 180 -6
225 -27 134 -129 292 -287 445 -104 101 -137 117 -189 90 -64 -33 -79 -62
-111 -207 -3 -14 -9 -27 -12 -30 -3 -3 -26 -45 -50 -93 -50 -100 -77 -125
-166 -152 -33 -9 -73 -23 -90 -30 -164 -68 -305 -120 -318 -117 -5 1 -6 -1 -3
-6 3 -5 -10 -14 -28 -22 -18 -7 -38 -21 -44 -31 -11 -16 -9 -19 10 -19 38 0 4
-23 -39 -26 -21 -2 -41 -3 -45 -3 -3 -1 -16 -22 -29 -47 -12 -26 -34 -61 -49
-78 -15 -17 -34 -44 -43 -61 -9 -16 -30 -44 -46 -62 l-31 -32 0 -565 0 -566
2441 0 2441 0 -23 37 c-19 30 -19 35 -5 23 10 -8 22 -24 27 -37 8 -23 12 -23
155 -23 133 0 146 1 140 17 -6 16 -6 16 12 0 15 -14 40 -17 135 -17 l117 0 0
128 c-1 96 -4 132 -15 146 -19 26 -19 42 0 26 13 -11 15 -6 15 32 0 35 -6 50
-25 68 -29 27 -25 42 5 15 20 -18 20 -18 20 116 -1 102 -4 139 -15 153 -19 26
-19 42 0 26 24 -20 22 245 -2 280 -16 22 -16 23 0 17 16 -6 17 102 17 1638 0
905 -2 1645 -4 1645 -3 0 -19 -12 -38 -27z"/>
<path d="M2928 4159 c-4 -13 -76 -20 -84 -8 -6 10 -34 0 -34 -12 0 -5 12 -9
26 -9 20 0 24 -4 19 -19 -4 -14 0 -21 12 -24 12 -2 7 -7 -17 -13 -19 -6 -35
-17 -35 -25 0 -8 -6 -24 -13 -37 -10 -18 -11 -27 -2 -37 8 -9 8 -20 1 -32 -11
-23 -4 -38 24 -47 15 -4 26 1 40 21 11 15 29 35 41 46 31 27 50 91 36 122 -9
19 -9 25 1 25 20 1 46 25 39 37 -11 16 -50 25 -54 12z"/>
<path d="M3128 4103 c-19 -5 -25 -23 -8 -23 6 0 10 -9 10 -20 0 -19 -14 -24
-57 -23 -7 1 -13 -8 -13 -18 0 -10 -4 -19 -10 -19 -5 0 -13 -15 -18 -32 -4
-18 -14 -33 -21 -33 -18 0 -81 -121 -81 -155 0 -22 6 -29 28 -33 15 -3 31 -1
36 4 6 5 15 4 22 -2 9 -7 19 -7 33 1 24 12 29 45 6 36 -10 -4 -15 1 -15 14 0
11 7 20 15 20 8 0 15 5 15 10 0 6 7 10 16 10 8 0 37 7 64 16 l49 16 -5 66 c-5
90 -14 144 -26 160 -11 12 -12 13 -40 5z"/>
<path d="M3812 4020 c-26 -25 -25 -44 9 -120 35 -77 38 -84 44 -125 11 -74 8
-130 -10 -170 -10 -22 -19 -42 -19 -45 -1 -3 -8 -16 -16 -30 -19 -34 -22 -100
-5 -100 26 0 26 -21 1 -66 -14 -26 -26 -59 -26 -75 0 -16 -3 -29 -7 -30 -91
-8 -99 -12 -105 -44 -1 -11 -12 -23 -23 -26 -16 -4 -20 -13 -18 -45 2 -21 7
-40 12 -42 4 -1 17 -9 27 -17 17 -13 14 -14 -38 -15 -60 0 -75 -13 -35 -30 18
-8 16 -9 -11 -4 -20 3 -39 1 -48 -7 -17 -14 -54 -91 -54 -113 0 -8 -9 -18 -20
-21 -11 -3 -20 -12 -20 -20 0 -7 -7 -15 -15 -19 -8 -3 -15 -17 -15 -31 0 -14
-6 -25 -12 -25 -7 0 -2 -7 11 -17 l24 -16 -33 -16 c-17 -9 -39 -28 -48 -43
-14 -23 -14 -31 -3 -52 19 -34 8 -56 -28 -56 -26 0 -31 -5 -40 -37 -8 -30 -7
-42 5 -61 l16 -24 30 31 c17 17 37 31 44 31 8 0 14 7 14 15 0 8 3 14 8 13 4 0
16 2 27 6 11 5 26 10 33 12 10 3 6 13 -13 35 l-26 32 21 19 c18 17 26 18 52 9
43 -15 45 -15 50 20 4 24 -1 35 -25 55 l-30 25 22 15 c11 8 21 24 21 35 0 30
26 23 49 -13 11 -18 40 -49 65 -68 50 -39 54 -47 29 -65 -15 -11 -15 -14 5
-40 12 -15 22 -36 22 -45 0 -10 7 -23 15 -30 17 -14 20 -40 5 -40 -6 0 -8 -11
-4 -25 5 -19 2 -25 -9 -25 -9 0 -18 -9 -22 -20 -9 -28 -63 -70 -90 -70 -12 0
-25 -7 -29 -15 -3 -8 -9 -15 -13 -14 -26 4 -42 -4 -47 -26 -3 -13 -14 -29 -24
-34 -22 -12 -129 -16 -159 -6 -18 6 -21 4 -16 -14 3 -12 1 -21 -6 -21 -6 0
-11 8 -11 18 0 9 -9 23 -19 29 -11 7 -34 34 -52 60 -18 26 -34 50 -35 52 -2 2
-14 -9 -26 -25 -63 -81 -110 -108 -209 -119 -79 -9 -135 -33 -173 -74 -33 -34
-54 -34 -94 2 -14 13 -38 21 -64 23 -26 1 -44 7 -46 15 -2 8 -11 19 -19 26
-13 10 -19 8 -34 -10 -15 -19 -21 -20 -38 -9 -11 6 -47 12 -80 12 -54 0 -61 3
-80 29 -12 16 -21 34 -21 40 0 5 -7 14 -16 19 -10 6 -14 19 -12 38 2 22 12 34
43 50 22 11 49 34 60 52 11 17 26 31 33 32 6 0 12 7 12 16 0 14 3 14 15 4 12
-10 19 -10 27 -2 9 9 9 12 -2 12 -10 0 -10 3 3 13 9 6 15 21 12 32 -2 11 -4
23 -4 27 -1 4 -16 9 -33 11 -23 3 -18 4 18 5 51 2 51 2 58 40 3 21 15 48 26
59 24 26 48 97 48 138 -1 17 3 51 7 78 7 44 6 47 -14 47 -12 0 -33 -7 -46 -16
-20 -13 -25 -25 -25 -58 0 -35 -5 -44 -30 -61 -17 -11 -40 -40 -52 -65 -28
-58 -27 -58 -43 -36 -15 19 -35 14 -35 -10 0 -10 -7 -13 -25 -8 -14 3 -33 3
-42 -2 -10 -4 -20 -8 -23 -8 -3 -1 -16 -9 -30 -18 -14 -9 -50 -22 -80 -29 -32
-7 -66 -23 -81 -39 -15 -14 -51 -34 -80 -44 -38 -13 -74 -38 -121 -82 -77 -74
-115 -87 -45 -16 26 26 47 51 47 54 0 15 -55 -5 -102 -37 -28 -20 -63 -35 -78
-35 -44 0 -78 -17 -86 -42 -13 -41 -12 -81 2 -95 8 -8 14 -23 14 -34 0 -10 5
-19 10 -19 6 0 9 -3 8 -7 -3 -8 39 -66 72 -102 33 -37 69 -89 94 -138 14 -29
31 -53 36 -53 6 0 10 -4 10 -9 0 -5 5 -22 12 -38 6 -15 12 -32 14 -38 17 -54
38 -114 46 -132 l11 -22 30 21 30 22 -23 -41 c-22 -40 -22 -44 -10 -140 14
-113 14 -370 0 -458 -37 -224 -49 -405 -30 -435 19 -31 405 -35 423 -4 11 18
37 18 37 0 0 -16 135 -25 261 -16 l74 5 5 120 4 120 6 -125 5 -125 110 2 c92
1 111 4 113 17 4 21 22 21 22 1 0 -14 22 -15 171 -13 166 3 171 4 190 27 21
26 24 74 9 164 -11 68 -41 115 -78 123 -15 3 -34 8 -42 11 -19 8 -27 10 -40
12 -17 2 -11 31 6 31 36 0 -35 47 -102 68 -148 46 -320 100 -335 107 -12 4
-19 -1 -24 -17 l-7 -23 -6 22 c-7 24 -108 83 -141 83 -10 0 -29 10 -43 23 -14
12 -51 44 -83 71 -31 27 -65 62 -75 79 l-18 29 -17 -32 c-22 -42 -29 -33 -15
20 10 36 9 46 -8 74 -61 104 -82 251 -43 309 43 66 125 91 196 61 32 -13 105
-81 105 -97 0 -22 106 -147 124 -147 5 0 18 -7 28 -17 19 -17 75 -37 203 -73
44 -12 122 -35 173 -51 51 -16 102 -29 112 -29 10 0 22 -4 25 -10 3 -5 19 -10
35 -10 16 0 32 -5 35 -10 3 -5 19 -10 36 -10 16 0 29 -4 29 -10 0 -5 11 -10
24 -10 14 0 27 -4 30 -9 3 -5 18 -11 33 -14 83 -14 189 -40 199 -48 6 -5 55
-12 110 -15 120 -8 238 9 262 37 9 10 22 19 29 19 7 0 17 9 23 21 9 16 6 30
-19 74 -40 70 -39 77 4 35 42 -41 45 -24 8 39 -21 37 -23 43 -7 31 10 -8 23
-21 27 -27 4 -7 12 -13 17 -13 16 0 11 33 -10 68 -27 44 -25 50 5 22 l25 -23
0 64 c0 36 4 69 10 75 5 5 14 37 19 69 5 33 12 69 16 81 5 16 -5 32 -47 73
-54 54 -50 58 10 14 41 -31 60 -26 33 9 -25 31 -26 38 -7 38 7 0 16 12 19 28
3 15 12 54 21 87 22 87 20 114 -11 148 l-28 29 33 -16 32 -17 33 37 c17 20 34
40 37 43 3 4 23 15 45 25 113 51 191 91 197 100 14 20 8 64 -13 113 -12 26
-23 58 -25 71 -3 26 -39 62 -61 62 -7 0 -13 5 -13 10 0 6 7 10 15 10 20 0 19
10 -2 26 -11 8 -13 13 -6 14 9 0 10 6 3 23 -5 12 -32 80 -60 150 -27 71 -59
147 -69 170 -10 23 -27 68 -37 100 -16 53 -20 57 -48 58 -29 1 -30 1 -6 8 21
6 25 14 28 50 2 24 0 51 -4 60 -8 17 -10 34 -13 126 -4 91 -22 156 -46 165
-19 8 -19 8 5 18 14 6 20 11 14 11 -6 1 -14 14 -17 31 -4 16 -15 38 -26 49
-11 11 -16 23 -13 27 4 4 -1 4 -11 1 -11 -4 -16 -3 -12 4 4 5 -3 19 -16 30
-26 23 -21 22 -66 4 -48 -20 -50 -19 -23 9 l23 25 -29 7 c-16 4 -33 10 -39 14
-5 4 -28 10 -50 14 -124 19 -119 19 -143 -4z"/>
<path d="M4415 3963 c-34 -4 -76 -23 -87 -38 -11 -15 -10 -83 2 -90 6 -3 10
-24 10 -45 0 -22 4 -61 10 -87 9 -50 22 -222 20 -282 -1 -48 40 -163 139 -386
10 -22 28 -68 41 -102 22 -61 27 -67 62 -64 27 3 30 -17 5 -35 l-23 -18 26
-50 c48 -93 72 -172 65 -208 -11 -51 -63 -92 -172 -133 -103 -40 -158 -73
-167 -102 -10 -34 -38 -198 -47 -278 -5 -44 -12 -97 -15 -117 -5 -30 -3 -38 9
-38 25 0 29 -17 8 -37 -27 -26 -31 -42 -56 -212 -15 -109 -42 -195 -76 -242
-11 -15 -45 -40 -77 -56 -55 -27 -62 -28 -212 -28 -189 1 -246 12 -535 101
-60 18 -153 45 -205 58 -129 34 -254 72 -279 85 -11 6 -29 11 -41 11 -11 0
-31 7 -44 15 -13 9 -33 18 -45 20 -40 7 -140 106 -183 179 -40 68 -72 96 -112
96 -29 0 -38 -5 -51 -30 -8 -16 -15 -41 -15 -56 0 -29 35 -148 51 -174 5 -8
12 -22 16 -30 4 -8 9 -17 12 -20 4 -3 20 -23 36 -45 34 -46 69 -78 105 -97 14
-7 27 -15 30 -18 20 -21 68 -41 145 -60 49 -12 103 -28 120 -35 16 -7 86 -29
155 -50 172 -51 259 -93 330 -161 78 -74 101 -132 107 -269 6 -115 -7 -178
-40 -199 -18 -12 -156 -15 -786 -19 -672 -5 -769 -4 -803 10 -51 20 -55 41
-32 166 11 56 19 136 19 178 0 42 5 82 11 90 12 16 30 147 40 284 17 257 -62
554 -194 725 -49 64 -167 175 -229 216 -29 19 -55 39 -58 44 -18 29 -115 -14
-115 -50 0 -24 63 -143 99 -187 14 -17 37 -48 51 -68 14 -20 37 -51 51 -68 14
-18 34 -45 43 -62 9 -16 25 -43 34 -60 28 -46 73 -174 83 -235 5 -30 9 -99 10
-153 0 -53 5 -97 10 -97 14 0 11 -28 -3 -32 -7 -3 -15 -33 -19 -74 -14 -150
-40 -337 -54 -377 -7 -23 -17 -71 -21 -107 -3 -36 -17 -99 -31 -140 -30 -95
-29 -170 3 -200 23 -23 103 -32 136 -16 13 6 18 4 18 -7 0 -14 100 -15 948
-14 923 2 948 3 987 22 52 26 56 39 106 335 22 129 48 251 57 270 23 47 59 62
172 71 100 8 201 31 235 53 11 7 32 16 47 19 26 7 75 50 130 114 36 42 67 146
82 270 12 99 11 102 -8 112 -20 9 -19 10 5 10 14 1 26 7 26 14 2 63 35 292 59
410 19 94 38 118 126 152 40 16 79 30 87 31 7 2 18 7 24 13 6 6 17 11 24 11 7
0 27 9 45 21 23 14 26 19 11 14 -27 -8 -32 15 -7 36 12 10 20 10 34 2 15 -10
19 -7 29 14 19 41 25 145 12 204 -7 30 -14 64 -17 77 -4 18 -11 22 -42 22 -20
0 -45 7 -55 15 -17 12 -15 14 27 20 l45 7 -15 37 c-9 20 -22 56 -31 81 -19 58
-42 108 -63 140 -9 14 -27 57 -39 95 -12 39 -40 106 -61 150 -72 149 -110 309
-110 468 l0 77 -42 -6 -43 -7 19 22 c11 12 26 19 33 17 16 -6 11 91 -6 123
-14 25 -51 51 -71 50 -8 -1 -28 -4 -45 -6z"/>
<path d="M3683 3910 c4 -16 1 -28 -11 -36 -16 -12 -15 -13 8 -22 l25 -10 -25
-6 c-23 -6 -26 -12 -25 -54 0 -47 0 -47 36 -50 19 -2 47 2 62 7 22 9 27 17 27
44 0 34 -24 72 -79 126 l-24 24 6 -23z"/>
<path d="M2363 3853 c-27 -4 -32 -9 -35 -36 l-4 -32 -15 30 c-24 50 -65 45
-100 -13 -56 -91 -79 -134 -79 -149 0 -7 -4 -13 -10 -13 -5 0 -10 -11 -10 -25
0 -14 5 -25 10 -25 6 0 10 -4 10 -10 0 -5 -11 -10 -25 -10 -15 0 -29 -8 -36
-22 -6 -12 -20 -31 -30 -41 -10 -11 -26 -36 -35 -56 -10 -20 -32 -58 -51 -85
-18 -26 -30 -53 -26 -59 3 -5 2 -7 -4 -4 -12 8 -33 -35 -33 -69 0 -13 -7 -27
-15 -30 -21 -8 -32 -74 -14 -85 24 -15 67 -10 78 8 9 17 10 17 28 0 13 -11 36
-17 64 -17 40 0 49 5 78 37 19 21 34 42 35 48 1 5 5 16 10 23 6 9 0 11 -23 7
-40 -7 -40 7 2 28 l32 16 -30 1 c-16 0 -37 5 -45 10 -11 7 4 10 48 10 l63 0
39 63 c31 49 50 68 94 90 34 18 53 34 50 42 -3 7 4 20 16 28 l21 14 -22 6
c-25 7 -17 27 11 27 10 0 25 3 34 6 31 12 15 23 -36 26 -33 2 -53 8 -56 17 -3
10 1 12 17 8 14 -3 24 0 28 9 7 19 23 18 23 -1 0 -8 4 -15 9 -15 14 0 41 29
41 44 0 16 -32 46 -48 46 -16 0 -15 12 3 46 8 16 15 37 15 47 0 11 8 17 22 17
28 0 12 17 -22 22 l-25 5 25 11 c24 10 24 11 -10 10 -19 -1 -49 -3 -67 -5z"/>
<path d="M3315 3750 c-3 -6 -23 -19 -43 -30 -22 -11 -30 -19 -19 -20 9 0 17
-4 17 -10 0 -5 1 -13 2 -17 1 -5 -10 -10 -24 -13 l-25 -5 21 -47 c16 -37 26
-48 44 -48 13 0 20 -4 17 -10 -9 -15 36 -12 65 5 27 14 24 17 -33 30 -24 5
-27 8 -17 20 8 10 17 12 29 5 10 -5 23 -5 31 0 8 5 18 6 22 4 4 -3 8 4 8 15 0
12 -4 21 -10 21 -5 0 -10 11 -10 25 0 18 5 25 20 25 11 0 20 5 20 11 0 8 -15
10 -45 7 -45 -6 -71 7 -40 18 13 6 14 8 3 15 -17 11 -26 11 -33 -1z"/>
<path d="M3644 3654 c-9 -14 -31 -32 -48 -41 -50 -26 -61 -53 -22 -53 14 0 28
-4 31 -10 4 -6 -11 -10 -39 -10 -25 0 -48 -4 -51 -10 -4 -6 7 -10 24 -10 17 0
31 -4 31 -10 0 -14 -45 -12 -84 4 -32 13 -33 13 -29 -5 3 -11 0 -19 -6 -19 -7
0 -9 5 -6 10 10 16 -11 12 -25 -5 -6 -8 -9 -22 -6 -32 4 -13 -6 -30 -33 -58
-33 -31 -38 -41 -30 -57 8 -16 13 -17 25 -7 8 6 18 9 22 5 4 -4 -1 -14 -12
-21 -15 -12 -24 -12 -50 -1 -17 7 -31 19 -31 27 0 12 -46 14 -295 14 -289 0
-296 0 -342 -23 -27 -13 -48 -29 -48 -36 0 -7 -8 -21 -17 -32 -24 -26 -27 -50
-8 -58 9 -3 13 -11 9 -17 -5 -8 -13 -4 -26 12 l-19 24 3 -50 c3 -46 6 -50 32
-55 16 -3 65 -3 110 0 l81 5 -3 32 c-4 38 13 51 30 24 12 -20 13 -19 23 6 18
44 11 -256 -11 -439 -6 -54 -6 -56 17 -60 20 -2 23 -8 21 -30 -2 -16 1 -28 7
-28 6 0 11 7 11 15 0 8 5 15 11 15 8 0 8 5 -1 15 -10 12 -10 15 3 15 8 0 17 6
20 14 4 9 -5 16 -26 20 -24 5 -29 9 -17 16 8 5 27 6 42 3 32 -6 48 18 28 42
-10 13 -9 15 11 15 17 0 20 3 12 11 -8 8 -17 7 -32 -3 -12 -9 -33 -13 -46 -10
-52 10 -17 35 53 37 36 1 42 -1 42 -19 0 -13 15 5 40 49 22 39 40 83 40 99 0
19 4 27 13 23 8 -3 27 15 47 44 30 44 60 64 60 40 0 -5 -23 -47 -51 -93 -29
-46 -65 -112 -81 -147 -17 -36 -40 -79 -53 -95 -27 -37 -115 -203 -115 -218 0
-5 6 -8 14 -5 8 3 20 -1 26 -8 7 -8 15 -13 18 -12 8 2 12 -7 12 -24 0 -5 -4
-8 -9 -5 -5 3 -11 -13 -14 -35 -3 -23 -11 -47 -17 -53 -9 -8 -11 5 -8 54 2 53
0 65 -12 65 -12 0 -14 -11 -12 -50 5 -79 17 -102 61 -109 38 -6 81 2 120 23
26 14 54 76 53 116 -1 17 1 25 4 18 7 -15 34 -5 34 13 0 8 5 24 12 37 6 12 14
29 19 37 4 8 12 14 18 13 14 -4 14 14 1 22 -6 4 -8 10 -5 14 2 5 -4 16 -15 26
-15 14 -17 20 -7 36 14 22 27 25 27 5 0 -8 7 -16 15 -20 8 -3 15 0 15 6 0 6 3
9 6 6 3 -4 15 3 26 14 25 25 42 79 28 88 -14 9 -30 68 -23 86 5 13 7 13 14 3
5 -8 3 -17 -4 -21 -8 -5 -6 -8 6 -8 9 0 17 -7 17 -15 0 -36 32 -10 61 50 18
36 35 65 39 65 3 0 24 35 46 77 21 42 45 83 52 91 6 7 12 19 12 26 0 7 9 25
21 40 11 15 18 33 15 41 -3 8 -1 15 3 15 10 0 61 86 61 101 0 5 -20 9 -45 9
-25 0 -45 5 -45 10 0 6 11 10 25 10 33 0 75 20 76 37 1 7 2 18 3 25 0 6 17 16
36 23 l35 12 -28 7 c-15 3 -27 13 -27 23 0 13 8 15 39 10 45 -6 55 3 84 66 32
72 18 97 -55 97 -40 0 -50 -4 -64 -26z"/>
<path d="M2923 3650 c-97 -11 -173 -31 -173 -47 0 -7 -11 -15 -24 -19 -17 -4
-27 -15 -31 -34 -4 -20 -14 -30 -33 -35 -15 -4 -21 -10 -14 -12 6 -3 12 -13
12 -23 0 -11 8 -24 19 -29 30 -17 430 -25 466 -10 17 6 48 15 70 18 33 5 39
10 37 26 -5 31 -53 123 -68 129 -7 3 -23 -6 -36 -19 -13 -14 -26 -25 -30 -25
-14 0 -9 22 7 34 13 9 14 14 2 29 -16 22 -96 29 -204 17z"/>
<path d="M1933 3039 c-19 -19 -24 -20 -38 -9 -14 12 -18 11 -26 -1 -10 -16
-12 -46 -3 -36 3 3 16 -5 28 -18 l22 -23 37 32 c20 17 37 37 37 44 0 7 7 12
15 12 13 0 13 -4 3 -22 -7 -13 -23 -36 -36 -52 -13 -16 -20 -31 -17 -34 3 -4
9 -2 13 4 12 18 42 24 62 12 23 -15 40 -2 43 31 1 11 5 21 9 21 22 0 -15 38
-42 44 -16 3 -42 9 -57 12 -21 4 -34 -1 -50 -17z"/>
<path d="M1016 2827 c-16 -7 -31 -22 -33 -32 -5 -28 18 -135 28 -135 5 0 9 -6
9 -14 0 -31 43 -107 85 -149 60 -61 81 -67 114 -31 48 53 54 74 37 125 -9 24
-16 49 -16 56 0 18 -99 161 -123 178 -26 18 -61 19 -101 2z"/>
<path d="M1377 2783 c-23 -26 -22 -67 5 -122 26 -53 64 -90 94 -91 27 0 82 24
110 47 28 24 40 71 19 79 -8 4 -15 14 -15 24 0 27 -32 57 -70 64 -100 19 -125
19 -143 -1z"/>
</g>
</svg>
