<?xml version="1.0" standalone="no"?>
<!DOCTYPE svg PUBLIC "-//W3C//DTD SVG 20010904//EN"
 "http://www.w3.org/TR/2001/REC-SVG-20010904/DTD/svg10.dtd">
<svg version="1.0" xmlns="http://www.w3.org/2000/svg"
 width="544.000000pt" height="544.000000pt" viewBox="0 0 544.000000 544.000000"
 preserveAspectRatio="xMidYMid meet">
<metadata>
Created by potrace 1.16, written by Peter Selinger 2001-2019
</metadata>
<g transform="translate(0.000000,544.000000) scale(0.100000,-0.100000)"
fill="#000000" stroke="none">
<path d="M0 2720 l0 -2720 2720 0 2720 0 0 2720 0 2720 -2720 0 -2720 0 0
-2720z m3018 2630 c369 -65 705 -213 967 -425 64 -51 271 -260 299 -301 11
-17 41 -60 66 -95 187 -266 290 -558 314 -889 16 -211 15 -208 173 -575 19
-44 45 -107 58 -140 13 -33 35 -87 50 -120 46 -103 66 -177 72 -267 5 -74 2
-98 -17 -158 -32 -100 -79 -137 -256 -204 -39 -15 -79 -32 -88 -39 -22 -16
-40 -93 -66 -277 -76 -544 -88 -588 -192 -693 -88 -89 -226 -145 -423 -171
-100 -14 -110 -22 -125 -111 -5 -27 -11 -59 -14 -70 -5 -22 -25 -130 -51 -270
-29 -153 -60 -202 -145 -225 -26 -7 -369 -10 -1057 -8 -1006 3 -1018 3 -1053
24 -19 11 -46 36 -59 55 -21 32 -23 41 -18 129 3 52 26 201 50 330 70 366 80
453 74 615 -4 107 -10 154 -27 200 -44 127 -113 234 -245 385 -169 192 -269
341 -368 545 -17 33 -33 71 -38 85 -4 14 -17 50 -28 80 -70 181 -110 428 -111
671 -1 147 4 199 31 359 27 158 115 408 196 557 195 359 490 643 846 813 264
126 432 173 737 203 121 12 339 6 448 -13z"/>
<path d="M2555 5283 c-99 -9 -210 -28 -275 -45 -41 -11 -88 -24 -105 -28 -77
-19 -171 -57 -300 -121 -218 -107 -323 -183 -505 -369 -81 -82 -250 -289 -250
-306 0 -3 -15 -28 -33 -57 -115 -181 -202 -443 -231 -697 -24 -218 -17 -498
15 -595 6 -16 12 -48 16 -70 3 -22 16 -71 30 -110 14 -38 36 -102 49 -141 55
-166 195 -396 344 -568 20 -23 49 -57 64 -76 47 -58 90 -111 117 -144 58 -69
118 -191 144 -291 22 -83 26 -122 26 -234 0 -73 -3 -154 -7 -180 -14 -99 -69
-414 -120 -683 -14 -71 -15 -92 -5 -117 27 -65 -26 -62 1088 -59 1121 3 1040
-2 1068 73 8 22 30 130 49 240 20 110 40 225 47 255 16 74 49 106 120 114 175
21 230 31 288 53 78 29 136 68 177 119 69 87 78 122 124 494 31 247 58 389 81
427 25 39 44 50 164 92 167 59 199 96 199 231 0 109 -26 202 -119 415 -29 69
-30 70 -80 190 -21 50 -53 122 -71 162 -54 118 -69 191 -93 458 -13 144 -24
197 -60 302 -65 189 -148 355 -241 482 -108 147 -380 421 -417 421 -6 0 -13 4
-15 8 -5 13 -132 93 -221 140 -182 96 -405 173 -567 196 -153 22 -378 30 -495
19z m533 -261 c79 -18 156 -39 171 -47 16 -8 57 -25 92 -38 139 -53 353 -182
474 -287 144 -124 295 -313 372 -465 11 -22 29 -56 40 -75 21 -38 84 -225 102
-305 6 -27 15 -124 21 -215 10 -163 33 -288 66 -355 8 -16 44 -100 80 -185 36
-85 80 -186 98 -225 57 -118 88 -216 83 -258 -9 -66 -41 -91 -194 -153 -106
-42 -138 -71 -151 -133 -20 -92 -41 -218 -52 -311 -22 -180 -61 -445 -72 -485
-15 -59 -69 -119 -135 -150 -98 -47 -300 -41 -513 16 -41 11 -138 36 -215 55
-77 20 -144 40 -150 44 -5 4 -23 10 -40 14 -16 4 -79 22 -140 41 -60 19 -144
44 -185 56 -122 36 -160 60 -238 150 -40 45 -72 88 -72 94 0 7 -9 24 -21 39
-16 21 -29 26 -64 26 -80 0 -93 -49 -48 -183 57 -174 189 -289 398 -347 17 -5
80 -22 140 -39 300 -81 442 -162 504 -286 30 -59 34 -77 38 -173 6 -123 -6
-184 -41 -207 -21 -14 -121 -16 -809 -18 -745 -2 -786 -1 -805 16 -31 28 -31
56 -1 235 67 392 79 584 49 758 -12 66 -30 143 -40 171 -45 122 -146 293 -222
374 -18 19 -55 61 -83 93 -27 32 -59 69 -70 81 -144 161 -277 407 -324 598
-47 188 -52 226 -58 411 -6 207 2 291 44 461 14 55 27 113 30 128 12 63 163
345 237 444 76 100 193 221 276 287 25 19 59 46 76 60 83 68 338 203 449 238
77 24 188 50 275 64 52 8 97 17 99 20 2 2 90 2 195 1 171 -3 206 -7 334 -35z"/>
<path d="M2706 4962 l-58 -3 6 -47 c5 -47 5 -47 -9 -17 -8 17 -14 36 -15 42 0
17 -44 27 -77 17 -16 -4 -31 -7 -35 -6 -4 1 -42 -3 -83 -9 l-75 -11 0 -37 -1
-36 -15 28 c-8 15 -17 27 -20 27 -3 0 -40 -11 -82 -25 -42 -14 -93 -30 -112
-36 -19 -7 -54 -25 -78 -40 -24 -16 -47 -27 -52 -24 -4 3 -31 -11 -60 -30 -29
-19 -54 -35 -56 -35 -6 0 -114 -79 -130 -94 -6 -6 -33 -29 -60 -51 -58 -48
-114 -103 -114 -114 0 -4 16 -27 36 -52 l37 -44 -43 43 c-41 42 -43 42 -63 25
-11 -10 -38 -43 -60 -73 -23 -30 -44 -56 -49 -58 -4 -2 -8 -7 -8 -12 0 -5 -16
-32 -35 -61 -19 -30 -35 -61 -35 -70 0 -9 -7 -22 -15 -29 -14 -11 -14 -15 2
-32 17 -19 17 -19 -9 -13 -24 6 -28 4 -37 -32 -6 -21 -18 -48 -26 -60 -9 -12
-22 -42 -31 -65 -14 -41 -14 -44 7 -60 l21 -18 -24 0 c-20 0 -27 -7 -36 -39
-16 -51 -16 -51 18 -62 41 -15 38 -27 -7 -25 l-38 1 -7 -70 c-4 -38 -10 -116
-14 -172 l-7 -103 24 0 c35 0 69 -11 64 -20 -3 -5 -23 -6 -45 -3 l-41 6 7 -69
c3 -38 7 -78 8 -89 3 -17 13 -21 72 -26 l69 -5 -62 -2 c-34 -1 -64 -6 -67 -11
-7 -10 22 -171 34 -191 7 -11 19 -11 66 -2 87 18 109 12 29 -7 -79 -20 -89
-35 -59 -93 10 -18 19 -37 20 -43 4 -15 68 -159 74 -165 3 -3 11 -17 17 -32 7
-16 17 -28 23 -28 5 0 10 -7 10 -15 0 -8 9 -19 20 -25 11 -6 20 -17 20 -25 0
-11 6 -12 25 -5 30 11 32 0 5 -25 -11 -10 -17 -21 -12 -24 5 -3 32 -33 60 -66
27 -33 71 -82 96 -108 74 -77 152 -177 191 -247 21 -36 46 -80 56 -98 11 -18
19 -37 19 -42 0 -6 11 -33 25 -62 14 -28 25 -60 25 -70 0 -22 18 -23 42 -1 29
26 32 9 7 -35 -23 -39 -23 -43 -10 -114 24 -127 22 -398 -3 -538 -3 -14 -15
-96 -27 -182 -24 -176 -23 -181 40 -197 30 -8 376 -17 406 -11 6 1 13 2 16 2
4 -1 77 -4 162 -7 118 -4 158 -2 164 8 4 6 11 64 14 127 l5 115 2 -110 c1 -60
6 -116 11 -124 7 -11 51 -13 222 -12 118 0 248 4 290 7 l77 6 15 47 c16 52 9
140 -17 202 -15 35 -50 59 -86 59 -11 0 -20 5 -20 10 0 6 9 10 20 10 34 0 23
15 -27 38 -27 12 -59 28 -73 36 -14 8 -65 27 -115 42 -49 15 -122 38 -161 51
-85 28 -124 30 -124 6 0 -22 -17 -5 -22 22 -2 11 -7 19 -11 17 -4 -1 -52 21
-107 50 -101 52 -230 157 -230 189 -1 8 -11 2 -26 -16 l-25 -30 6 46 c5 36 2
55 -13 86 -93 182 -77 312 44 367 36 16 49 16 96 7 30 -7 64 -20 74 -30 35
-34 64 -71 64 -83 0 -21 136 -158 157 -158 7 0 13 -4 13 -9 0 -4 28 -16 63
-25 71 -19 72 -19 110 -34 15 -7 31 -11 35 -10 4 1 14 -2 22 -5 24 -10 232
-70 300 -87 38 -9 109 -32 180 -57 183 -64 466 -89 539 -47 18 10 42 24 53 29
32 17 34 54 5 106 -36 63 -34 70 9 28 34 -32 36 -32 29 -9 -4 14 -16 37 -26
52 -28 39 -23 46 10 14 46 -44 52 -6 9 56 -26 37 -22 46 7 18 14 -13 27 -22
29 -19 4 3 28 148 39 234 2 17 7 37 11 45 4 10 -8 29 -34 55 -50 50 -51 63 -3
31 43 -30 52 -27 29 8 -21 32 -20 39 2 34 16 -5 20 8 36 115 l17 120 -28 30
-28 29 35 -17 c26 -13 35 -15 38 -5 11 31 86 85 188 135 123 60 132 71 113
141 -6 21 -14 44 -17 49 -4 6 -14 30 -22 55 -11 32 -24 49 -45 60 -29 14 -29
15 -6 18 l23 4 -22 15 c-14 10 -18 19 -12 25 6 6 -17 68 -63 171 -39 89 -75
171 -78 182 -30 98 -47 130 -69 133 -37 6 -42 19 -8 25 l31 7 -6 67 c-9 105
-25 255 -31 291 -4 27 -9 32 -32 33 -25 0 -26 1 -6 9 12 5 24 13 27 17 6 10
-48 172 -62 186 -6 6 -22 5 -41 -2 l-32 -11 31 29 30 28 -27 51 -27 51 -54
-30 c-29 -17 -55 -28 -57 -26 -2 2 18 23 45 45 57 48 58 37 -17 152 -24 36
-50 68 -58 73 -8 4 -14 13 -14 20 0 15 -47 67 -60 67 -5 0 -26 -16 -47 -35
-21 -19 -42 -35 -48 -35 -5 0 9 19 33 41 23 22 42 46 42 53 0 8 -17 29 -39 47
-21 19 -60 53 -87 77 -26 23 -51 42 -55 42 -4 0 -21 -17 -38 -37 -35 -43 -41
-34 -11 15 11 18 20 37 20 42 0 9 -85 70 -99 70 -4 0 -27 14 -49 30 -23 17
-45 30 -49 30 -5 0 -38 16 -75 34 -37 19 -69 32 -72 29 -3 -3 -13 0 -22 8 -9
8 -35 19 -58 24 -36 9 -43 8 -58 -10 -17 -20 -17 -20 -18 8 0 19 -7 31 -24 39
-36 16 -54 4 -62 -39 -12 -69 -23 -71 -24 -5 0 34 -2 62 -4 62 -2 0 -28 5 -57
11 -75 14 -213 25 -283 21z m146 -488 c53 -18 146 -104 181 -166 12 -22 31
-57 42 -77 25 -47 23 -114 -5 -169 -12 -23 -25 -42 -29 -42 -3 0 -14 -21 -24
-48 -10 -26 -23 -55 -28 -64 -13 -24 -11 -37 5 -54 17 -16 92 -19 101 -4 3 6
27 10 51 10 42 0 50 4 97 53 62 63 132 119 170 135 41 17 226 16 270 -3 19 -8
50 -34 68 -57 18 -24 36 -45 39 -48 4 -3 17 -25 30 -50 12 -25 27 -54 32 -64
6 -11 12 -54 15 -97 5 -62 2 -86 -13 -123 -11 -25 -22 -46 -26 -46 -5 0 -8 -4
-8 -10 0 -19 -53 -124 -86 -170 -19 -26 -34 -50 -34 -54 0 -4 -19 -35 -42 -69
-23 -34 -41 -63 -40 -65 3 -2 -28 -58 -78 -142 -5 -8 -20 -35 -32 -60 -13 -25
-25 -47 -28 -50 -3 -3 -16 -25 -29 -50 -13 -25 -29 -52 -36 -60 -7 -8 -28 -44
-47 -80 -19 -36 -50 -91 -69 -123 -19 -31 -41 -70 -49 -85 -9 -15 -27 -45 -41
-67 -13 -22 -31 -53 -39 -69 -24 -48 -86 -104 -127 -115 -56 -16 -187 -13
-249 5 -52 15 -98 51 -153 120 -35 42 -111 179 -111 199 0 25 -41 82 -87 120
-18 14 -35 34 -38 44 -6 19 -75 36 -75 19 0 -4 -3 -7 -7 -6 -5 1 -30 -9 -58
-22 -44 -22 -63 -25 -165 -25 -187 1 -202 8 -276 130 -83 138 -95 219 -48 322
8 17 14 33 14 36 0 4 55 99 117 202 7 11 23 40 36 65 13 25 39 70 59 100 19
30 57 96 83 145 26 50 50 92 54 95 3 3 13 19 21 35 8 17 27 49 42 72 15 23 28
45 28 49 0 3 33 61 73 128 39 66 79 134 88 151 9 16 25 46 36 65 27 50 92 138
106 144 7 2 71 5 143 5 93 1 143 -3 176 -15z"/>
<path d="M2583 4423 c-26 -5 -60 -48 -97 -122 -15 -29 -41 -71 -57 -94 -16
-22 -29 -48 -29 -59 0 -10 -3 -18 -8 -18 -4 0 -14 -15 -22 -32 -14 -32 -16
-38 -19 -65 0 -7 -7 -13 -14 -13 -8 0 -20 -12 -28 -27 -8 -16 -16 -30 -19 -33
-3 -3 -21 -34 -39 -70 -18 -36 -53 -99 -77 -140 -24 -41 -43 -83 -44 -92 0
-10 -4 -18 -9 -18 -5 0 -14 -14 -21 -30 -7 -17 -25 -45 -41 -63 -16 -17 -29
-37 -29 -43 0 -6 -13 -29 -28 -50 -15 -21 -43 -68 -61 -103 -18 -35 -37 -69
-42 -75 -30 -34 -79 -124 -79 -143 0 -18 7 -23 43 -28 23 -3 83 -5 132 -3 l90
3 17 35 c36 77 40 89 34 99 -5 7 2 11 16 11 38 0 -1 20 -42 21 -19 0 -44 4
-55 9 -14 6 -1 9 45 10 59 1 63 2 46 15 -17 13 -17 15 -3 21 33 12 6 54 -35
54 -13 0 -30 5 -38 10 -11 7 -2 10 32 10 l46 0 8 53 c5 28 9 57 9 64 0 6 4 15
8 19 4 4 3 12 -3 19 -5 6 -7 20 -4 31 7 24 75 74 103 74 12 0 20 3 20 8 -5 30
2 44 21 39 11 -3 23 -1 26 4 3 5 26 20 52 33 26 13 55 32 64 43 71 76 71 77 0
78 -144 3 -195 6 -190 10 3 4 60 6 127 6 77 0 120 3 116 9 -3 6 -18 10 -33 11
l-27 1 25 7 c14 4 37 4 51 0 23 -6 29 -1 62 52 41 65 45 79 22 79 -8 0 -15 5
-15 10 0 7 7 7 21 0 24 -14 21 -16 48 37 11 23 25 44 30 48 5 3 21 29 35 58
14 28 42 77 61 107 35 56 45 103 23 116 -14 9 -192 14 -225 7z"/>
<path d="M2873 4363 c-7 -2 -13 -9 -13 -15 0 -5 -9 -22 -20 -38 -11 -15 -52
-83 -91 -151 -39 -68 -82 -142 -95 -164 -40 -69 -47 -85 -42 -90 3 -3 37 0 76
6 61 10 76 9 112 -5 37 -15 43 -15 65 0 14 9 25 21 25 26 0 6 13 27 29 47 45
56 101 165 101 195 0 55 -99 203 -132 195 -1 0 -9 -3 -15 -6z"/>
<path d="M3434 3988 c-19 -9 -21 -15 -14 -39 5 -17 19 -46 31 -65 19 -31 25
-34 50 -29 34 8 38 -6 9 -26 -19 -14 -19 -15 11 -59 24 -36 36 -45 60 -45 17
-1 29 5 29 12 0 7 5 13 10 13 6 0 10 -7 10 -15 0 -12 14 -15 70 -15 73 0 90
11 90 57 0 19 -39 101 -59 124 -6 8 -21 27 -33 43 -12 16 -36 35 -54 42 -39
16 -179 18 -210 2z"/>
<path d="M3316 3896 c-14 -19 -26 -38 -26 -42 0 -4 -14 -36 -31 -71 -32 -67
-32 -91 1 -100 11 -3 20 -12 20 -20 0 -23 41 -72 56 -66 8 3 14 0 14 -6 0 -6
-7 -11 -16 -11 -8 0 -12 -4 -9 -10 3 -5 24 -10 45 -10 21 0 42 5 45 10 3 6 -2
10 -12 10 -10 0 -25 5 -33 11 -11 8 -6 9 22 6 36 -6 38 -4 73 52 31 52 34 62
24 90 -6 17 -14 31 -18 31 -4 0 -13 11 -19 25 -10 22 -18 25 -74 27 l-63 2 58
3 c31 2 57 8 57 14 0 22 -51 89 -69 89 -10 0 -30 -15 -45 -34z"/>
<path d="M2622 3653 c-13 -14 -27 -36 -32 -49 -10 -25 -31 -24 -58 3 -12 12
-19 11 -59 -3 -15 -6 -14 -8 6 -13 38 -10 38 -31 -1 -32 -31 0 -31 -1 -10 -10
13 -5 28 -7 32 -4 5 3 12 -1 17 -8 4 -7 16 -16 26 -20 23 -9 22 -27 -2 -27
-37 0 -31 -27 9 -39 46 -14 333 -13 369 0 14 6 28 6 35 0 6 -5 34 -9 63 -9 46
0 56 4 92 40 23 21 41 43 41 48 0 5 -15 13 -32 18 -25 7 -36 6 -44 -4 -9 -12
-16 -10 -37 10 -17 16 -33 22 -47 19 -11 -3 -20 0 -20 6 0 7 6 11 13 10 6 -1
20 -1 30 0 14 1 15 4 5 20 -8 14 -27 21 -62 24 -28 3 -73 10 -101 16 -186 38
-201 38 -233 4z"/>
<path d="M3526 3657 c-14 -13 -26 -27 -26 -29 0 -3 -20 -39 -45 -80 -48 -80
-59 -116 -40 -134 13 -13 5 -102 -8 -94 -10 6 -31 -28 -32 -50 0 -9 -11 -16
-27 -18 -16 -2 -28 -8 -28 -13 0 -5 -9 0 -20 11 -12 12 -25 18 -31 14 -11 -6
-49 28 -49 44 0 26 -26 33 -210 53 -115 12 -569 18 -576 8 -3 -5 -14 -9 -25
-9 -11 0 -27 -7 -36 -16 -14 -14 -13 -17 6 -38 12 -13 30 -39 40 -57 13 -25
26 -35 47 -37 51 -5 75 -12 69 -22 -4 -6 -18 -7 -32 -4 -17 5 -24 3 -20 -3 4
-6 20 -13 37 -16 21 -5 30 -12 30 -27 0 -18 7 -20 58 -21 107 -1 201 -14 218
-31 14 -14 14 -21 3 -54 -7 -22 -17 -43 -21 -48 -4 -6 -8 -23 -8 -38 0 -21 -5
-28 -20 -28 -22 0 -27 -19 -9 -37 16 -16 1 -71 -22 -83 -10 -6 -19 -15 -19
-20 0 -19 29 -10 55 16 19 19 29 23 39 15 7 -6 15 -8 18 -5 4 3 9 -8 13 -25 7
-35 -26 -101 -51 -101 -8 0 -23 -9 -34 -20 -13 -13 -34 -20 -57 -20 -47 -1
-71 -18 -83 -59 -7 -25 -6 -33 6 -38 7 -3 14 -11 14 -18 0 -24 39 -81 64 -94
31 -17 39 -12 73 52 76 138 76 138 64 150 -15 15 -14 27 3 27 8 0 17 -8 19
-17 4 -14 5 -12 6 5 0 12 0 24 -1 25 -2 2 4 12 12 22 11 14 12 19 3 22 -24 8
-13 22 19 25 27 3 33 8 41 37 5 22 5 37 -2 44 -8 8 -2 15 19 23 17 7 30 18 30
24 0 9 -41 15 -82 11 -13 -2 -18 5 -18 26 0 45 13 56 51 48 19 -4 46 -14 61
-21 21 -11 27 -11 31 -1 3 7 27 42 54 77 27 36 53 74 57 84 6 18 8 18 23 3 15
-14 14 -20 -5 -66 -23 -51 -30 -89 -13 -62 6 10 20 12 45 8 29 -5 38 -2 46 14
9 15 7 19 -5 19 -29 0 -39 43 -20 84 21 44 32 45 43 4 4 -17 14 -33 22 -36 9
-2 11 0 5 5 -18 14 -15 32 5 38 25 8 43 -3 36 -21 -3 -9 6 -16 27 -22 l32 -8
-32 -7 c-20 -4 -33 -13 -33 -22 0 -8 -3 -15 -8 -15 -11 0 -1 -94 12 -102 7 -5
6 -11 -6 -20 -20 -15 -27 -49 -12 -55 6 -2 17 9 25 24 8 16 16 30 19 33 9 8
93 149 119 200 13 25 29 52 36 60 7 8 31 51 54 95 24 44 50 86 59 93 15 11 15
14 2 22 -8 6 -34 9 -57 8 -24 -1 -46 1 -49 5 -4 4 20 7 54 7 50 0 65 4 82 22
11 12 20 28 20 35 0 7 5 13 10 13 6 0 10 5 10 10 0 6 12 29 27 52 34 56 64
140 53 153 -5 6 -58 12 -118 14 -104 2 -111 1 -136 -22z"/>
<path d="M1827 3053 c-13 -12 -7 -42 15 -85 37 -75 36 -74 95 -16 29 29 53 48
53 42 0 -5 -21 -31 -46 -56 -54 -55 -55 -81 -2 -113 28 -17 51 -20 140 -20
132 0 140 5 111 74 -11 27 -40 79 -64 115 l-43 66 -82 0 c-57 0 -84 -4 -87
-12 -4 -10 -6 -10 -6 0 -1 13 -72 18 -84 5z"/>
<path d="M2608 3023 c-10 -2 -18 -10 -18 -17 0 -8 -14 -16 -31 -20 -31 -6 -31
-7 -25 -47 6 -35 3 -46 -16 -66 -19 -20 -20 -25 -8 -33 26 -16 46 -11 60 15 8
14 18 24 24 22 23 -9 48 14 42 38 -6 23 14 55 35 55 13 0 11 34 -3 48 -12 12
-28 13 -60 5z"/>
<path d="M3256 2808 c-14 -8 -15 -12 -6 -18 7 -5 10 -15 6 -25 -4 -12 -13 -15
-31 -11 -14 4 -25 2 -25 -4 0 -5 -13 -10 -29 -10 -17 0 -33 -4 -36 -10 -3 -5
-21 -10 -40 -10 -19 0 -37 -4 -40 -10 -3 -5 1 -10 9 -10 20 0 31 -19 18 -32
-8 -8 -16 -2 -29 20 -25 45 -48 49 -78 15 -13 -15 -25 -32 -25 -36 0 -5 -23
-43 -51 -84 -28 -42 -66 -104 -84 -139 l-34 -63 27 -20 c22 -15 46 -19 123
-20 94 -1 96 -1 127 30 18 17 32 40 32 50 0 11 6 19 13 19 7 0 23 19 35 43 12
23 30 58 41 77 10 19 30 57 43 83 35 73 50 101 58 107 4 3 9 15 12 27 8 29
-11 45 -36 31z"/>
</g>
</svg>
