<?xml version="1.0" standalone="no"?>
<!DOCTYPE svg PUBLIC "-//W3C//DTD SVG 20010904//EN"
 "http://www.w3.org/TR/2001/REC-SVG-20010904/DTD/svg10.dtd">
<svg version="1.0" xmlns="http://www.w3.org/2000/svg"
 width="544.000000pt" height="544.000000pt" viewBox="0 0 544.000000 544.000000"
 preserveAspectRatio="xMidYMid meet">
<metadata>
Created by potrace 1.16, written by Peter Selinger 2001-2019
</metadata>
<g transform="translate(0.000000,544.000000) scale(0.100000,-0.100000)"
fill="#000000" stroke="none">
<path d="M0 5151 c0 -222 3 -291 12 -294 10 -4 10 -6 1 -6 -10 -1 -13 -163
-13 -775 l0 -775 28 -4 27 -4 -27 -2 -28 -1 0 -900 0 -900 35 20 c19 11 35 18
35 16 0 -2 41 9 92 25 51 16 102 29 114 29 12 0 24 5 26 12 2 6 14 13 26 15
44 6 60 33 63 104 1 36 -1 71 -5 77 -4 6 -9 52 -11 102 -3 67 0 94 10 104 8 7
12 16 9 19 -3 3 10 33 30 67 20 33 36 70 36 81 0 10 5 19 10 19 6 0 10 6 10
14 0 7 17 25 38 38 20 14 43 38 51 54 8 16 24 50 37 75 13 25 25 56 27 68 5
32 35 48 99 50 32 1 70 9 85 16 16 8 43 15 61 15 18 0 31 4 28 9 -4 5 -1 11 5
13 6 2 11 17 10 33 -1 83 2 77 -26 59 -23 -15 -25 -15 -31 1 -4 10 1 25 14 37
l20 21 -23 66 c-13 36 -31 92 -41 124 -12 40 -21 56 -31 53 -14 -6 -18 10 -4
18 4 3 3 41 -4 83 -27 169 -38 336 -32 496 3 89 11 178 16 197 5 19 12 53 16
75 8 59 31 142 71 262 59 177 105 269 215 436 22 32 39 60 39 62 0 13 95 138
136 179 72 72 168 158 221 197 34 26 59 49 56 53 -12 11 20 36 47 36 15 0 35
9 45 20 10 11 22 20 28 20 5 0 21 9 36 19 30 21 224 121 235 121 4 0 32 12 62
27 37 18 56 34 61 50 3 16 9 21 15 15 9 -9 79 6 93 20 4 3 11 26 16 50 5 24
12 51 15 61 5 16 -51 17 -1090 17 l-1096 0 0 -289z"/>
<path d="M2214 5405 c-7 -19 -14 -46 -14 -60 0 -21 5 -25 29 -25 16 0 46 6 68
14 53 19 448 40 580 31 91 -7 103 -6 103 9 0 23 21 20 27 -4 6 -21 15 -25 83
-35 25 -4 100 -22 167 -39 l122 -33 10 29 c16 45 41 30 41 -26 0 -18 18 -31
108 -73 149 -71 305 -161 375 -216 37 -28 39 -29 52 -11 11 15 15 16 16 4 1
-8 1 -21 -1 -29 -2 -19 40 -61 62 -61 10 0 18 -6 18 -13 0 -8 33 -46 73 -85
109 -106 127 -127 127 -144 0 -9 8 -15 17 -14 10 0 23 -11 31 -27 8 -16 30
-44 50 -62 44 -41 89 -45 155 -16 76 35 119 43 212 38 108 -6 162 -14 193 -30
17 -8 37 -8 81 1 31 7 73 12 92 12 19 0 43 7 53 15 23 17 56 20 56 5 0 -6 8
-6 23 1 12 7 29 15 37 19 8 3 23 22 32 40 10 19 24 38 33 43 8 4 24 27 35 50
13 27 31 47 50 55 l30 14 0 109 c0 85 -3 109 -12 103 -10 -6 -10 -4 0 7 11 12
18 129 7 129 -3 0 -18 -8 -33 -17 -25 -16 -26 -16 -14 -1 8 10 22 20 33 23 17
6 19 17 19 121 0 89 -3 114 -12 108 -10 -6 -10 -4 0 7 6 7 12 26 12 41 l0 28
-1606 0 -1605 0 -15 -35z"/>
<path d="M2495 5278 c-90 -9 -225 -39 -278 -61 -26 -11 -28 -15 -23 -50 7 -41
42 -116 74 -156 13 -16 24 -21 33 -15 7 4 20 9 29 11 8 1 44 9 80 17 95 21
190 33 196 25 2 -4 17 -2 33 4 20 7 76 7 197 -1 165 -11 183 -13 214 -25 8 -3
49 -13 90 -22 41 -9 94 -25 117 -36 24 -10 45 -19 49 -19 33 0 273 -121 282
-142 2 -5 9 -8 15 -8 7 0 35 -15 63 -34 36 -24 54 -32 62 -24 16 16 36 0 22
-17 -9 -11 -5 -17 17 -29 15 -8 53 -40 83 -71 30 -30 63 -55 73 -55 10 0 17
-5 15 -12 -2 -6 5 -21 16 -34 12 -12 35 -38 51 -58 56 -69 85 -97 94 -91 5 3
7 -3 5 -12 -5 -22 1 -31 46 -64 60 -45 74 -45 121 0 42 39 42 39 36 96 -4 43
-13 67 -35 94 -16 20 -39 58 -51 84 -12 25 -31 52 -43 58 -13 7 -31 23 -42 37
-17 21 -20 22 -28 8 -15 -27 -28 -18 -28 18 0 37 -15 56 -115 143 -181 158
-555 355 -746 393 -30 6 -67 16 -84 21 -101 33 -439 48 -640 27z"/>
<path d="M2100 5164 c0 -8 -4 -12 -10 -9 -6 3 -7 -1 -4 -9 3 -9 1 -16 -5 -16
-6 0 -11 9 -11 19 0 16 -5 18 -32 11 -32 -8 -115 -41 -150 -60 -10 -6 -48 -26
-84 -45 -62 -33 -187 -114 -259 -168 -102 -75 -225 -190 -225 -209 0 -3 -16
-23 -35 -42 -19 -20 -35 -41 -35 -46 0 -22 -2 -25 -19 -35 -45 -25 -126 -150
-220 -341 -84 -170 -139 -360 -161 -559 -11 -101 -10 -421 2 -500 9 -56 33
-145 39 -145 3 0 6 -18 6 -41 0 -22 5 -50 10 -62 5 -12 22 -59 37 -105 15 -45
49 -118 74 -162 48 -82 72 -100 131 -100 29 0 37 5 69 42 22 24 23 29 12 69
-7 24 -16 52 -21 61 -5 10 -9 24 -9 33 0 18 -31 86 -47 103 -7 7 -13 25 -13
40 -1 15 -8 54 -16 87 -44 171 -47 199 -47 410 0 173 3 231 21 330 26 144 76
296 140 425 34 69 47 107 48 143 2 56 8 65 29 47 19 -16 33 -5 75 61 18 27 36
49 41 49 5 0 9 6 9 13 0 16 130 141 218 210 48 38 61 54 57 68 -7 20 5 25 21
9 6 -6 18 -4 33 6 17 12 22 23 18 43 -4 20 -3 23 6 10 8 -13 15 -14 46 -3 33
11 57 44 32 44 -19 0 -12 39 8 50 15 7 23 6 35 -5 19 -19 43 -19 81 1 17 9 55
26 85 38 112 47 140 61 145 74 3 7 -5 32 -16 55 -12 23 -31 61 -42 85 -16 31
-27 42 -44 42 -14 0 -23 -6 -23 -16z"/>
<path d="M2654 4916 l6 -51 -21 47 -21 47 -69 0 c-37 0 -71 -4 -74 -9 -4 -6
-19 -10 -35 -10 -16 0 -41 -5 -56 -10 -25 -10 -26 -13 -20 -53 l6 -42 -21 33
c-11 17 -26 32 -32 32 -21 -1 -174 -48 -219 -68 -38 -16 -44 -23 -46 -52 -3
-43 -8 -47 -32 -32 -25 15 -54 15 -83 0 -30 -18 -38 -30 -25 -45 20 -24 3 -38
-19 -16 -18 18 -23 20 -33 7 -7 -7 -16 -11 -21 -8 -9 5 -13 -9 -9 -35 1 -10
-6 -12 -22 -8 -34 9 -53 -5 -186 -133 -49 -47 -106 -110 -127 -140 -22 -30
-49 -65 -61 -78 -12 -13 -32 -44 -44 -70 -12 -26 -25 -49 -29 -52 -19 -15 -32
-53 -22 -63 15 -15 14 -28 -1 -26 -28 3 -36 -2 -47 -30 -7 -16 -13 -35 -14
-42 -2 -8 -6 -19 -10 -26 -4 -7 -14 -31 -22 -54 -14 -38 -14 -44 1 -61 16 -17
16 -18 -9 -18 -24 0 -27 -4 -27 -35 0 -19 -5 -35 -11 -35 -22 0 12 -29 42 -35
46 -10 34 -25 -15 -19 l-43 6 -12 -89 c-6 -49 -14 -128 -17 -175 l-6 -87 46
-6 c25 -4 46 -11 46 -16 0 -5 -15 -6 -32 -2 -18 3 -37 6 -43 7 -5 0 -8 -26 -7
-64 4 -91 11 -120 29 -120 13 0 13 -3 3 -15 -15 -18 -7 -100 17 -164 16 -42
17 -43 52 -36 20 3 54 8 76 11 33 3 36 2 15 -5 -14 -5 -42 -12 -63 -16 -21 -3
-41 -13 -44 -22 -13 -34 106 -268 142 -277 65 -18 219 3 267 36 14 10 29 18
32 18 14 0 60 48 76 81 14 27 16 39 8 47 -7 7 -8 15 -3 19 4 5 10 2 12 -4 6
-16 30 -17 39 -1 5 7 2 9 -8 5 -12 -4 -16 2 -16 26 0 18 -7 51 -15 73 -27 75
-31 148 -11 206 10 29 26 65 36 80 10 14 18 28 18 31 0 3 28 56 63 119 67 120
90 169 85 184 -1 5 3 19 10 31 7 13 10 34 8 47 -3 14 2 30 10 37 8 6 14 19 14
29 0 12 13 21 43 28 37 10 45 18 72 69 17 32 40 72 53 89 12 17 22 34 22 38 0
3 10 23 23 44 29 45 88 145 115 192 10 19 35 62 55 96 20 33 39 72 42 87 4 14
24 46 44 69 21 24 36 48 34 54 -3 8 15 11 59 8 35 -2 108 -5 164 -8 63 -2 112
-10 130 -19 78 -41 154 -126 203 -230 28 -58 25 -135 -6 -170 -27 -30 -44 -74
-36 -93 4 -12 8 -13 14 -3 11 18 23 4 15 -16 -5 -13 -10 -14 -27 -4 -22 11
-38 0 -39 -27 0 -6 -7 -18 -17 -25 -24 -20 -73 -128 -66 -146 5 -13 22 -15
107 -10 104 6 128 17 121 55 -2 9 -4 20 -4 25 -1 4 -10 7 -22 7 -11 0 -19 3
-17 8 3 4 11 22 18 40 8 17 17 32 20 32 11 0 27 -16 33 -32 10 -29 53 -23 66
10 19 44 130 138 191 160 20 7 77 12 136 12 109 0 154 -15 197 -63 82 -90 156
-87 227 7 14 18 13 19 -2 13 -36 -13 -17 22 25 47 23 14 35 26 27 26 -9 0 -21
-5 -28 -12 -6 -6 -14 -9 -18 -6 -3 4 11 24 30 46 20 22 36 49 36 60 0 35 -19
72 -36 72 -12 0 -15 7 -12 30 2 16 2 31 -2 32 -3 2 -27 31 -53 65 -26 34 -51
65 -56 68 -5 3 -30 -16 -56 -42 l-47 -48 33 48 c19 27 37 51 41 53 13 8 9 24
-6 24 -8 0 -17 9 -21 19 -6 19 -117 133 -136 139 -5 2 -19 -8 -30 -23 -26 -32
-38 -25 -15 10 16 24 14 45 -4 45 -8 0 -134 79 -156 98 -5 5 -20 15 -33 21
-19 11 -25 10 -35 -5 -15 -20 -39 -10 -31 15 3 12 -6 21 -37 34 -23 10 -50 16
-60 14 -10 -3 -18 0 -18 6 0 13 -45 37 -69 37 -8 0 -23 -7 -33 -17 -17 -15
-18 -15 -18 9 0 18 -7 27 -22 32 -47 12 -57 7 -63 -31 -12 -74 -25 -82 -22
-13 l2 64 -35 6 c-20 3 -41 9 -47 13 -6 4 -13 0 -17 -8 -7 -19 -26 -19 -26 0
0 12 -15 15 -67 17 -38 1 -101 2 -142 3 l-73 3 6 -52z"/>
<path d="M5420 4545 c-6 -19 -16 -33 -21 -30 -12 8 2 -28 14 -36 15 -10 -29
-30 -92 -41 -59 -11 -317 -26 -541 -32 -196 -6 -211 -10 -235 -69 -19 -46 -21
-105 -5 -121 5 -5 10 -20 10 -32 0 -13 11 -53 24 -91 36 -103 66 -255 66 -338
0 -63 3 -78 21 -96 13 -13 17 -25 12 -30 -14 -14 -4 -140 14 -168 12 -18 12
-25 3 -31 -9 -6 -9 -12 0 -30 6 -12 14 -33 16 -47 7 -38 53 -126 78 -146 14
-12 17 -20 9 -23 -8 -4 -9 -11 -3 -22 4 -9 18 -39 30 -67 13 -27 33 -72 45
-100 13 -27 35 -84 49 -125 15 -41 31 -79 36 -84 6 -6 10 -18 10 -28 0 -10 4
-26 10 -36 17 -30 49 -136 55 -187 6 -43 11 -52 39 -65 18 -9 47 -40 71 -77
23 -34 53 -71 67 -83 21 -16 222 -110 235 -110 2 0 3 36 3 80 0 72 -2 80 -19
80 -26 0 -51 10 -51 20 0 5 15 4 32 -1 18 -5 34 -9 35 -9 2 0 3 310 3 689 0
542 -3 690 -12 694 -10 4 -10 6 0 6 9 1 12 43 12 175 l0 175 -37 4 -38 4 38 1
37 2 0 230 c-1 127 -3 230 -5 230 -2 0 -9 -16 -15 -35z"/>
<path d="M2611 4421 c-53 -6 -54 -6 -107 -81 -29 -41 -53 -80 -53 -86 -1 -6
-7 -17 -15 -23 -7 -6 -16 -24 -19 -40 -3 -16 -12 -35 -20 -43 -21 -20 -57 -94
-50 -101 3 -3 -7 -17 -21 -30 -36 -34 -79 -119 -64 -128 6 -4 18 -5 27 -4 9 2
25 4 36 4 13 1 16 4 8 9 -9 6 -8 10 5 18 12 7 33 6 67 -2 l50 -12 -45 -2 -45
-2 40 -13 c38 -13 36 -13 -67 -14 -70 -1 -108 -5 -108 -12 0 -6 -11 -25 -24
-42 -51 -68 -91 -168 -73 -186 6 -6 7 -14 3 -18 -4 -4 -11 -1 -15 6 -7 10 -13
8 -30 -11 -33 -35 -91 -128 -91 -146 0 -8 -6 -23 -14 -31 -8 -9 -31 -50 -52
-91 -21 -41 -42 -79 -46 -85 -45 -57 -71 -112 -57 -120 5 -4 7 -10 5 -14 -3
-4 11 -8 31 -9 20 -2 39 1 42 6 4 6 29 3 61 -5 77 -20 117 -7 159 52 18 25 31
51 28 58 -2 6 6 19 17 29 20 17 19 17 -46 18 -39 0 -68 4 -68 10 0 6 31 10 74
10 l73 0 39 61 c21 34 48 65 60 69 29 11 197 14 312 4 66 -5 109 -3 148 6 40
10 66 11 93 4 41 -11 63 1 68 39 4 24 29 44 65 52 34 8 46 24 43 55 -1 14 -3
32 -4 41 -1 15 -51 28 -176 44 -22 2 -60 9 -85 14 -25 6 -105 10 -178 11 -107
0 -134 3 -138 15 -3 8 13 49 37 92 74 136 182 318 195 328 7 6 29 42 50 80 34
64 46 85 81 148 16 27 16 54 2 62 -15 10 -145 13 -208 6z"/>
<path d="M2866 4347 c-13 -17 -60 -90 -104 -162 -43 -71 -101 -166 -129 -210
-64 -105 -134 -241 -126 -249 8 -8 221 -8 259 0 23 4 34 17 54 57 14 29 30 58
37 65 6 6 15 22 19 35 3 12 12 29 20 37 15 18 80 132 97 173 6 15 15 27 19 27
18 0 7 87 -17 125 -13 22 -28 49 -34 60 -5 11 -23 32 -40 47 l-30 28 -25 -33z"/>
<path d="M4319 4141 c-35 -25 -37 -28 -34 -81 1 -30 10 -68 19 -85 9 -16 16
-50 16 -75 0 -25 4 -60 10 -78 5 -19 14 -79 21 -135 8 -71 17 -106 28 -114 15
-12 15 -14 -1 -27 -22 -17 -24 -80 -3 -120 8 -15 13 -31 10 -35 -14 -23 60
-218 99 -261 12 -14 40 -69 61 -123 20 -53 43 -101 50 -105 7 -4 15 -23 18
-42 6 -47 25 -86 67 -140 19 -25 44 -62 54 -82 23 -42 75 -75 140 -87 53 -10
52 -15 30 94 -9 44 -18 89 -20 101 -4 21 -15 25 -71 25 -18 0 -33 5 -33 10 0
9 7 11 50 13 30 1 29 18 -5 91 -12 28 -42 100 -64 160 -57 148 -63 159 -98
159 -33 1 -43 20 -13 24 25 4 23 17 -24 126 -9 21 -19 59 -22 85 -2 25 -10 83
-16 129 -10 73 -13 82 -30 76 -10 -3 -18 -1 -18 4 0 5 8 12 18 14 14 4 16 14
13 64 -3 32 -6 49 -9 37 -3 -18 -6 -20 -17 -10 -7 6 -11 15 -8 20 2 4 -1 7 -6
7 -6 0 -11 7 -11 15 0 18 12 19 29 3 10 -11 12 -4 8 37 -9 89 -26 148 -72 241
l-44 91 -43 0 c-30 0 -54 -8 -79 -26z"/>
<path d="M3495 3993 c-53 -11 -75 -26 -75 -49 0 -13 4 -24 8 -24 5 0 16 -16
26 -36 14 -30 21 -35 42 -31 31 6 42 -10 18 -27 -16 -12 -15 -14 10 -20 17 -4
26 -12 23 -20 -12 -30 8 -37 64 -22 l54 14 -45 9 -45 10 55 9 c46 8 55 13 53
29 -1 11 4 23 11 27 17 9 5 84 -15 103 -31 29 -120 42 -184 28z"/>
<path d="M3316 3887 c-27 -31 -33 -44 -25 -54 10 -11 6 -16 -11 -15 -3 0 -10
-15 -16 -33 -6 -19 -8 -34 -5 -33 20 2 31 -4 31 -17 0 -17 -31 -20 -47 -4 -14
14 -26 -47 -14 -69 10 -18 9 -21 26 35 7 19 21 7 27 -22 2 -12 16 -23 36 -29
28 -8 35 -6 48 12 11 16 22 20 39 16 13 -3 33 -1 44 6 24 12 28 50 6 50 -8 0
-15 -7 -15 -16 0 -12 -9 -14 -47 -10 -27 2 -50 5 -52 5 -2 1 2 8 9 16 7 8 27
15 46 15 39 0 54 18 30 36 -16 11 -16 13 3 19 27 8 17 25 -15 25 -13 0 -24 5
-24 10 0 6 9 10 21 10 20 0 20 0 -3 42 -13 23 -31 42 -40 44 -9 1 -32 -16 -52
-39z"/>
<path d="M4115 3912 c-16 -9 -36 -25 -43 -34 -7 -10 -26 -18 -41 -18 -15 0
-36 -9 -46 -20 -10 -11 -22 -20 -27 -20 -27 0 -62 -56 -72 -115 -4 -22 -14
-60 -23 -85 -26 -72 -116 -253 -135 -272 -10 -10 -18 -29 -18 -42 0 -25 43
-79 55 -68 4 4 5 -3 1 -14 -4 -15 -2 -24 8 -27 18 -7 31 9 16 18 -17 11 -11
35 9 35 24 0 52 -31 33 -37 -6 -3 -10 -9 -6 -14 3 -5 -2 -9 -12 -9 -13 0 -14
-3 -4 -15 10 -12 36 -14 128 -12 85 1 116 -1 119 -10 3 -7 9 -13 14 -13 6 0 7
5 4 10 -11 18 4 11 28 -14 39 -39 91 -50 162 -34 l60 13 3 51 c2 36 -1 54 -13
64 -8 7 -15 18 -15 26 0 7 -8 17 -17 23 -14 7 -15 12 -5 24 18 21 5 44 -31 57
l-32 12 33 10 c33 9 34 10 28 56 -4 26 -10 103 -15 172 -11 143 -14 156 -44
165 -22 6 -22 6 3 16 13 6 20 13 15 17 -6 4 -10 16 -10 27 0 15 -6 19 -21 17
-26 -3 -41 36 -18 45 11 4 12 9 3 19 -15 18 -37 17 -74 -4z"/>
<path d="M2350 3364 c0 -21 73 -173 100 -206 16 -21 30 -28 55 -28 18 0 38 -7
45 -15 10 -11 36 -14 131 -12 142 2 155 -4 138 -68 -6 -22 -17 -47 -24 -55 -7
-8 -32 -51 -55 -95 -23 -44 -45 -82 -49 -85 -7 -5 -38 -69 -64 -132 -12 -28
-14 -45 -6 -72 5 -20 14 -36 18 -36 5 0 14 -13 20 -28 14 -33 61 -90 61 -74 0
18 28 14 32 -4 3 -15 108 135 108 154 0 5 7 15 16 23 8 7 24 29 34 48 l18 36
-27 13 -26 12 33 -5 c25 -3 34 -1 39 13 3 9 14 26 24 37 9 11 33 49 52 85 52
98 132 223 145 228 25 8 10 -30 -57 -144 -38 -66 -82 -141 -99 -169 -16 -27
-48 -81 -72 -120 -24 -38 -68 -116 -98 -173 l-54 -103 23 -20 c16 -14 33 -19
52 -16 15 2 30 0 33 -5 3 -4 31 -8 62 -8 66 0 127 33 138 75 3 14 10 25 15 25
5 0 32 46 59 101 28 56 60 116 73 133 13 17 37 56 53 86 17 30 40 71 51 90
100 173 126 222 138 264 21 71 20 86 -9 86 -13 0 -26 7 -30 15 -3 9 -18 15
-36 15 -16 0 -30 4 -30 9 0 5 -10 11 -22 13 -27 4 -35 25 -11 31 10 2 -5 3
-33 2 -53 -3 -81 6 -71 23 4 5 -28 11 -81 15 -48 3 -110 14 -138 25 -41 15
-90 20 -256 26 -195 7 -206 7 -211 -11 -4 -16 -5 -16 -6 0 -1 14 -10 17 -48
17 -35 0 -44 -3 -33 -10 12 -8 11 -10 -7 -10 -13 0 -23 5 -23 10 0 6 -20 10
-45 10 -34 0 -45 -4 -45 -16z"/>
<path d="M2280 3321 c-8 -9 -26 -34 -39 -56 -72 -122 -84 -152 -69 -178 12
-21 71 -23 92 -2 20 21 29 19 43 -10 10 -22 8 -27 -15 -44 -21 -15 -24 -22
-15 -32 14 -14 6 -39 -12 -39 -7 0 -15 -6 -17 -12 -9 -24 4 -38 34 -38 21 0
31 6 35 20 3 11 10 20 17 20 6 0 4 5 -4 10 -12 8 -11 10 7 10 28 0 63 45 63
80 0 15 6 30 14 33 17 7 3 48 -56 163 -43 84 -57 97 -78 75z"/>
<path d="M3607 3146 c-23 -25 -62 -82 -87 -126 -25 -45 -57 -100 -72 -123 -27
-41 -37 -97 -18 -97 6 0 10 -7 10 -15 0 -10 -10 -15 -32 -15 l-33 0 28 -15
c61 -31 75 -69 32 -85 -14 -5 -25 -16 -25 -24 0 -8 -11 -27 -24 -43 -20 -23
-32 -28 -72 -28 -38 0 -50 -4 -59 -20 -5 -12 -25 -44 -42 -71 -34 -52 -41 -78
-23 -89 11 -7 14 -45 4 -45 -4 0 -13 8 -20 18 -12 16 -16 14 -47 -20 -50 -53
-83 -66 -173 -69 -43 -1 -84 -5 -90 -10 -6 -5 -32 0 -60 10 -27 10 -56 16 -64
12 -21 -9 -23 -31 -2 -31 21 -1 46 -20 50 -40 2 -8 13 -30 25 -47 19 -29 22
-30 25 -13 6 36 22 21 22 -19 0 -41 15 -57 80 -89 14 -7 45 -26 70 -42 25 -17
57 -36 73 -42 15 -7 27 -18 27 -25 0 -7 4 -13 9 -13 18 0 58 -97 65 -162 1 -3
4 -10 9 -14 4 -4 7 -16 7 -26 0 -10 7 -21 16 -25 12 -4 14 -14 9 -42 -13 -80
64 -137 270 -200 39 -11 86 -23 105 -27 19 -3 55 -13 80 -21 59 -19 259 -21
320 -2 96 28 152 80 83 76 -23 -1 -38 3 -41 12 -3 10 3 13 27 9 17 -2 31 -3
31 -1 0 2 -11 26 -25 53 -34 66 -31 73 9 25 19 -22 36 -38 39 -35 6 6 -18 54
-47 94 -10 15 -16 29 -14 32 11 11 36 -9 49 -39 8 -18 19 -31 24 -30 21 4 15
44 -11 78 -25 33 -20 51 6 20 25 -30 33 -16 27 45 -3 41 -1 62 8 70 14 12 23
49 31 126 5 51 5 53 -38 94 -42 41 -38 44 14 8 38 -26 54 -23 34 7 -20 30 -20
35 -1 35 9 0 15 10 16 23 1 30 4 49 24 136 l16 74 -33 35 c-31 33 -31 35 -6
19 30 -19 58 -22 58 -8 0 15 51 72 74 82 12 5 39 20 61 34 22 14 55 32 72 41
49 24 55 84 16 159 -11 22 -23 54 -27 70 -7 29 -39 105 -74 175 -21 42 -63 59
-170 67 -57 5 -72 9 -70 21 2 9 -8 18 -23 22 -15 4 -41 18 -59 31 -22 17 -46
24 -78 25 -89 2 -195 26 -237 54 -22 15 -57 30 -78 34 -35 7 -40 4 -80 -38z"/>
<path d="M1839 3053 c-11 -3 -15 -12 -11 -31 5 -26 37 -80 57 -94 5 -4 31 13
57 38 26 24 50 44 53 44 9 0 -12 -33 -40 -63 -25 -27 -28 -54 -3 -29 8 8 14 7
23 -5 9 -12 18 -14 41 -6 28 10 29 12 27 71 -2 50 0 61 15 64 9 3 -3 5 -28 7
-25 1 -58 3 -74 4 -17 1 -31 -4 -34 -12 -3 -9 1 -11 17 -6 33 10 24 -9 -12
-26 l-32 -15 3 33 c4 29 2 33 -19 32 -13 -1 -31 -3 -40 -6z"/>
<path d="M2487 3016 c-34 -30 -78 -91 -70 -99 3 -4 1 -7 -5 -7 -7 0 -26 -22
-43 -50 -26 -42 -41 -55 -106 -85 -41 -19 -85 -35 -98 -35 -13 0 -26 -4 -29
-9 -3 -4 -36 -11 -74 -14 -69 -6 -112 -19 -232 -70 -19 -8 -62 -23 -95 -32
-114 -33 -216 -77 -231 -100 -28 -43 -1 -97 101 -201 53 -55 104 -112 120
-136 6 -8 23 -35 39 -59 16 -24 31 -38 34 -31 2 6 8 12 13 12 5 0 4 -9 -3 -20
-10 -15 -10 -23 -2 -28 6 -4 14 -17 18 -28 4 -12 16 -32 27 -45 11 -13 23 -36
26 -51 3 -16 9 -28 13 -28 4 0 12 -19 19 -42 7 -24 17 -56 23 -71 l11 -28 23
22 c28 26 32 10 7 -31 -16 -27 -15 -37 1 -163 18 -143 20 -302 4 -404 -15 -92
-9 -96 90 -64 89 28 162 82 162 119 0 10 3 21 6 25 10 10 14 117 14 366 0 242
0 244 42 296 4 5 29 37 54 70 25 33 50 59 55 58 5 -2 9 1 9 5 0 5 18 33 41 63
22 30 46 68 53 84 15 36 9 110 -10 126 -8 6 -14 26 -14 44 0 38 -33 77 -44 50
-5 -14 -8 -14 -36 0 -34 18 -38 43 -12 73 13 16 30 22 77 23 33 1 63 7 67 13
4 6 4 37 1 68 -5 53 -3 62 28 115 19 32 46 81 59 108 14 28 29 52 33 53 4 2 3
10 -3 17 -8 10 -7 15 7 19 20 6 63 81 63 109 0 16 -10 17 -104 16 -90 -2 -108
-5 -129 -23z"/>
<path d="M4734 2515 c-4 -16 -13 -25 -23 -24 -20 3 -40 -5 -117 -42 -34 -16
-68 -29 -77 -29 -44 0 -154 -59 -166 -89 -6 -14 -22 -100 -36 -191 -13 -91
-27 -181 -30 -200 -3 -19 -14 -100 -26 -180 -42 -301 -64 -358 -152 -409 -57
-32 -167 -53 -238 -45 -23 3 -47 0 -55 -7 -11 -9 -15 -8 -20 5 -4 11 -19 16
-53 16 -25 0 -125 18 -221 39 -135 30 -180 36 -197 28 -13 -6 -23 -17 -23 -24
0 -18 91 -123 106 -123 6 0 21 -12 35 -26 27 -29 105 -84 119 -84 5 0 24 -12
42 -28 18 -15 45 -34 60 -41 15 -8 26 -17 24 -20 -1 -3 4 -13 13 -21 27 -25
81 -14 111 23 18 22 76 36 148 37 29 0 74 5 98 11 41 11 45 15 41 36 -6 30 7
38 28 17 13 -14 14 -19 3 -25 -33 -21 37 -7 95 19 59 27 105 64 154 124 35 43
55 87 34 73 -9 -5 -41 31 -41 47 0 14 20 8 39 -11 19 -19 19 -18 29 22 18 72
17 151 -1 178 -23 32 -21 40 8 33 15 -4 25 -2 26 5 1 6 2 14 4 19 4 17 15 80
20 122 42 334 54 390 92 432 25 26 109 69 148 75 26 3 105 45 105 55 0 5 9 8
20 8 24 0 60 53 60 88 0 37 -90 112 -152 126 -24 5 -28 3 -34 -19z"/>
<path d="M1233 2432 c-23 -10 -47 -22 -53 -28 -16 -16 15 -93 50 -127 17 -16
30 -36 30 -43 0 -8 4 -14 8 -14 5 0 24 -21 42 -47 18 -25 46 -58 62 -73 15
-15 28 -31 28 -36 0 -5 9 -15 20 -22 11 -7 20 -17 20 -23 0 -5 24 -40 53 -77
30 -37 63 -84 75 -105 33 -57 71 -179 83 -265 13 -89 5 -448 -11 -502 -28 -95
-61 -300 -48 -300 4 0 8 5 8 10 0 6 5 10 10 10 21 0 9 -30 -20 -52 -28 -20
-30 -27 -30 -82 -1 -34 -7 -72 -15 -86 -22 -38 -19 -113 5 -141 l20 -24 25 29
c30 33 44 28 26 -11 -10 -21 -9 -28 1 -34 16 -11 88 -12 88 -1 0 4 14 8 30 9
21 2 29 -2 25 -10 -4 -7 0 -4 8 6 8 9 18 17 23 17 14 0 64 111 64 142 0 15 -6
31 -13 35 -8 4 -22 21 -32 36 -16 24 -17 43 -12 137 5 91 3 110 -9 110 -20 0
-17 28 7 58 13 17 18 34 14 49 -3 13 -1 23 4 23 14 0 33 77 26 101 -4 12 -1
27 8 37 28 31 44 383 20 452 -3 8 -6 36 -8 63 -6 76 -48 194 -111 312 -59 109
-111 178 -219 289 -27 28 -72 75 -98 104 -26 28 -51 52 -54 52 -4 0 -14 6 -22
14 -27 24 -82 27 -128 8z"/>
<path d="M890 2388 c-14 -5 -43 -19 -66 -29 -23 -10 -45 -19 -51 -19 -8 0 -34
-30 -73 -86 -85 -122 -105 -150 -115 -159 -24 -21 -53 -72 -66 -115 -7 -25
-17 -50 -21 -57 -12 -15 -13 -57 -3 -164 6 -67 4 -93 -7 -120 -9 -19 -23 -53
-33 -76 -10 -24 -22 -43 -27 -43 -4 0 -8 -5 -8 -11 0 -5 4 -7 10 -4 5 3 10 -2
10 -13 0 -10 -11 -24 -24 -30 -19 -8 -26 -7 -39 9 -19 21 -67 25 -98 8 -14 -7
-24 -7 -33 0 -13 11 -56 11 -56 0 0 -4 -15 -7 -32 -7 -18 0 -60 -9 -93 -21
-32 -12 -61 -21 -62 -21 -2 0 -3 -30 -3 -67 l0 -66 22 19 22 19 -22 -32 c-19
-27 -22 -44 -22 -133 0 -65 4 -99 10 -95 6 3 10 2 10 -4 0 -5 -5 -13 -10 -16
-6 -4 -10 -192 -10 -531 l0 -524 307 0 c301 0 307 0 330 22 23 22 33 12 11
-10 -9 -9 1 -12 45 -12 50 0 61 4 83 27 20 23 23 24 15 6 -14 -29 -14 -33 4
-33 8 0 22 11 31 25 20 30 31 26 14 -4 l-11 -21 254 0 c183 0 256 3 265 12 9
9 12 9 12 0 0 -9 49 -12 190 -12 209 1 197 -3 191 63 -1 9 3 17 8 17 14 0 14
54 1 94 -5 17 -12 48 -15 69 -7 41 -23 52 -93 63 -35 5 -38 4 -54 -33 -16 -37
-16 -37 -17 -10 -1 16 -5 26 -10 22 -5 -3 -13 5 -17 17 -3 13 -23 41 -44 64
-30 32 -38 51 -44 95 -12 98 -18 119 -32 119 -21 0 -17 16 11 46 14 15 25 37
25 50 0 12 4 25 9 28 11 7 37 110 50 201 5 39 17 108 25 155 24 133 27 156 33
306 5 139 -8 277 -28 290 -5 3 -9 16 -9 30 0 52 -91 203 -190 314 -17 19 -59
68 -93 108 -34 39 -65 72 -69 72 -4 0 -8 6 -8 13 -1 25 -130 171 -172 193 -31
16 -82 17 -118 2z"/>
<path d="M5014 2365 c-7 -19 -14 -37 -14 -40 0 -9 -40 -45 -50 -45 -5 0 -10
-4 -10 -10 0 -5 -8 -10 -17 -10 -16 -1 -16 -2 2 -16 19 -16 19 -16 -10 -11
-27 5 -79 -15 -123 -47 -7 -5 -27 -11 -43 -13 -40 -4 -105 -38 -114 -60 -20
-47 -55 -265 -55 -344 0 -64 1 -67 26 -73 25 -7 26 -8 8 -27 -10 -11 -27 -18
-38 -17 -18 3 -22 -4 -29 -56 -6 -39 -5 -62 2 -69 15 -15 14 -38 -3 -51 -7 -6
-23 -47 -35 -91 -12 -44 -23 -84 -24 -90 -13 -46 -134 -185 -161 -185 -22 0
-136 -80 -136 -95 0 -8 -4 -15 -10 -15 -5 0 -10 7 -10 15 0 19 -9 19 -101 1
-41 -8 -95 -17 -121 -21 -68 -9 -86 -45 -80 -167 2 -36 3 -37 37 -31 31 5 35
3 35 -16 0 -15 -6 -21 -22 -21 -15 0 -19 -3 -11 -8 7 -4 12 -24 11 -44 -1 -21
9 -53 24 -81 14 -25 31 -69 38 -99 7 -29 19 -73 26 -97 8 -25 14 -54 14 -66 0
-12 13 -39 30 -61 16 -21 30 -43 30 -48 0 -14 107 -114 129 -121 12 -3 21 -11
21 -17 0 -6 2 -9 6 -6 3 3 27 -3 55 -13 27 -11 58 -19 69 -19 11 0 20 -3 20
-8 0 -8 42 -27 82 -36 15 -3 34 -13 42 -22 9 -8 27 -14 41 -12 l25 3 -18 35
c-11 19 -23 46 -27 60 -13 42 18 8 45 -50 l23 -50 219 0 c173 0 218 3 212 12
-6 11 -4 11 7 0 9 -9 66 -12 211 -12 l198 0 0 311 c0 206 -4 317 -11 331 -8
15 -8 19 0 14 8 -5 11 25 11 100 0 98 -2 110 -22 132 l-23 25 23 -12 22 -12 0
626 0 625 -32 20 c-18 11 -77 38 -131 61 -80 34 -105 50 -135 86 -88 107 -104
114 -128 58z"/>
<path d="M2572 2077 c-16 -19 -27 -137 -13 -137 6 0 11 -6 11 -13 0 -19 80
-132 133 -190 21 -22 31 -27 37 -18 12 21 45 9 42 -15 -2 -16 5 -24 30 -33 18
-7 41 -17 50 -22 10 -5 54 -11 98 -13 l80 -5 0 86 c0 79 -2 88 -25 109 -14 13
-42 31 -63 40 -20 10 -62 39 -92 64 -57 48 -123 90 -142 90 -6 0 -18 8 -27 18
-42 46 -98 65 -119 39z"/>
<path d="M2425 1833 c-14 -14 -17 -30 -13 -87 6 -88 47 -181 111 -250 40 -44
45 -46 50 -27 3 11 10 21 16 21 14 0 14 -33 0 -47 -9 -9 4 -19 51 -42 34 -17
67 -28 71 -25 5 3 9 1 9 -5 0 -12 134 -56 230 -76 36 -8 82 -18 104 -24 27 -7
44 -6 57 2 17 11 17 12 1 30 -15 17 -15 20 -2 30 19 14 15 42 -11 79 -11 14
-19 31 -19 37 0 19 -83 59 -206 99 -67 22 -132 46 -145 53 -44 23 -108 82
-161 149 -70 87 -69 86 -100 93 -18 5 -32 2 -43 -10z"/>
<path d="M2375 1419 c-18 -33 -30 -219 -14 -219 5 0 9 -4 9 -10 0 -16 -21 -12
-37 8 -8 9 -12 12 -9 6 3 -7 -6 -19 -20 -29 -37 -24 -84 -70 -84 -82 0 -18
-91 -91 -119 -96 -15 -3 -28 -12 -29 -19 0 -7 -8 -40 -18 -73 -9 -33 -17 -87
-18 -120 l-1 -60 75 -8 c41 -4 156 -6 255 -5 161 3 180 5 177 19 -1 11 8 21
26 27 36 12 65 -2 57 -28 -6 -17 -1 -19 52 -17 l58 2 6 90 5 90 2 -92 c2 -84
4 -93 21 -93 11 0 26 -2 33 -5 9 -4 19 4 26 17 8 18 11 19 11 6 1 -16 16 -18
159 -19 86 -1 162 0 167 1 6 1 42 4 80 6 99 7 110 10 124 40 34 75 -47 272
-112 274 -14 0 -17 5 -12 20 3 11 2 20 -2 20 -5 0 -18 8 -29 18 -28 26 -105
62 -103 48 6 -48 -16 -81 -23 -35 -2 12 -13 28 -25 37 -22 14 -23 13 -23 -13
0 -38 -24 -27 -28 13 -3 34 -20 45 -112 76 -62 21 -100 21 -100 -1 -1 -11 -6
-7 -14 12 l-14 30 -9 -25 -10 -25 -7 30 c-6 26 -17 34 -89 65 -80 33 -123 58
-181 103 -16 12 -42 27 -58 34 -26 11 -29 10 -43 -18z"/>
<path d="M3486 839 c-8 -135 -22 -184 -55 -205 -24 -16 -76 -18 -640 -20 -694
-2 -791 -7 -798 -35 -3 -11 -9 -19 -13 -19 -14 0 -29 -49 -21 -72 18 -56 33
-85 44 -87 7 -2 180 -5 385 -7 331 -4 372 -3 372 11 0 8 7 15 15 15 8 0 15 -7
15 -15 0 -8 9 -15 19 -15 14 0 18 5 14 19 -3 10 0 22 7 26 7 4 14 -1 17 -14 3
-12 11 -21 18 -21 7 0 28 -3 46 -6 27 -4 31 -3 19 6 -12 9 -10 10 10 4 14 -4
103 -10 198 -13 159 -6 172 -5 172 12 0 9 5 17 10 17 6 0 10 -6 10 -14 0 -18
109 -28 209 -20 141 11 155 28 155 188 1 103 -1 115 -28 166 -16 30 -37 67
-47 82 -11 14 -19 33 -19 42 0 9 -7 19 -15 22 -8 4 -15 12 -15 18 0 13 -41 36
-64 36 -9 0 -15 -28 -20 -101z"/>
<path d="M3790 468 c-8 -13 -21 -36 -28 -53 -35 -81 -93 -103 -279 -106 -70
-1 -136 -6 -145 -11 -12 -5 -18 -5 -18 2 0 7 -101 10 -304 10 l-305 0 -3 -22
c-2 -13 -7 -23 -13 -23 -5 0 -11 10 -13 23 -3 22 -4 22 -197 22 -187 0 -193
-1 -198 -21 -3 -12 -11 -19 -19 -16 -7 2 -20 1 -29 -4 -12 -6 -18 -3 -22 11
-5 18 -14 20 -115 20 -63 0 -113 -4 -117 -10 -3 -6 -17 -10 -31 -10 -18 0 -28
-9 -43 -43 -26 -56 -41 -115 -39 -152 1 -17 -1 -42 -5 -57 l-7 -28 435 0 435
0 0 23 c0 17 2 19 9 7 6 -8 7 -18 5 -22 -3 -4 332 -7 743 -7 411 1 730 5 708
8 -44 8 -146 57 -143 69 2 4 -9 20 -24 35 -26 28 -41 57 -131 248 -43 89 -69
129 -85 129 -4 0 -14 -10 -22 -22z"/>
</g>
</svg>
