<?xml version="1.0" standalone="no"?>
<!DOCTYPE svg PUBLIC "-//W3C//DTD SVG 20010904//EN"
 "http://www.w3.org/TR/2001/REC-SVG-20010904/DTD/svg10.dtd">
<svg version="1.0" xmlns="http://www.w3.org/2000/svg"
 width="544.000000pt" height="544.000000pt" viewBox="0 0 544.000000 544.000000"
 preserveAspectRatio="xMidYMid meet">
<metadata>
Created by potrace 1.16, written by Peter Selinger 2001-2019
</metadata>
<g transform="translate(0.000000,544.000000) scale(0.100000,-0.100000)"
fill="#000000" stroke="none">
<path d="M0 3450 l0 -1989 41 14 c23 8 51 15 63 14 11 0 -6 -8 -39 -17 l-60
-17 -3 -728 -2 -727 2720 0 2720 0 0 473 c0 459 -1 473 -20 490 -26 22 -26 41
0 34 19 -5 20 0 20 96 0 79 -3 104 -17 119 -15 17 -15 18 0 18 16 0 17 55 17
696 0 658 -1 695 -17 690 -10 -3 -24 -2 -32 3 -11 7 -9 10 8 16 11 3 25 3 31
0 7 -4 10 311 10 955 l0 962 -37 -6 c-147 -23 -313 -32 -313 -18 0 5 60 12
133 15 72 4 151 10 175 13 l42 7 0 438 0 439 -1730 0 c-1698 0 -1730 0 -1730
-19 0 -11 9 -40 20 -65 28 -66 50 -73 153 -53 45 10 102 20 127 22 25 3 61 10
80 15 75 20 279 32 440 27 181 -6 284 -23 490 -80 214 -59 451 -182 670 -348
84 -63 240 -214 285 -274 16 -22 34 -44 40 -50 18 -16 98 -135 141 -207 21
-37 44 -68 50 -68 11 0 61 57 117 133 16 21 47 55 70 77 38 36 47 40 97 40 31
0 90 -11 135 -25 44 -14 104 -25 133 -25 28 0 52 -4 52 -10 0 -19 -85 -10
-190 20 -118 34 -149 36 -189 15 -28 -14 -98 -96 -160 -188 -39 -57 -51 -111
-27 -120 8 -3 18 -2 21 3 8 12 55 13 55 2 0 -19 -37 -42 -55 -36 -15 6 -17 4
-10 -12 62 -144 111 -327 120 -449 3 -50 10 -109 16 -130 5 -22 11 -74 14
-115 2 -41 9 -88 14 -105 18 -56 58 -160 83 -215 14 -30 32 -73 41 -95 8 -22
31 -74 51 -115 48 -103 123 -299 143 -373 29 -115 3 -267 -55 -327 -37 -36
-90 -66 -186 -101 -67 -24 -107 -46 -119 -62 -19 -25 -32 -86 -66 -317 -47
-322 -46 -311 -28 -325 22 -16 21 -25 -2 -25 -15 0 -21 -10 -26 -43 -12 -78
-46 -156 -94 -217 -20 -24 -37 -48 -37 -52 -1 -5 -2 -13 -3 -19 0 -6 -8 -9
-16 -5 -8 3 -46 -12 -83 -34 -74 -41 -187 -74 -319 -90 -43 -6 -83 -16 -91
-23 -12 -12 -37 -100 -47 -167 -2 -14 -7 -41 -11 -61 -7 -41 2 -64 53 -126 26
-32 40 -64 57 -135 13 -51 38 -140 56 -197 46 -142 82 -182 200 -221 47 -16
80 -29 74 -29 -17 -1 -128 35 -163 53 -33 18 -69 61 -99 121 -22 45 -92 274
-92 303 0 21 -76 132 -90 132 -5 0 -11 -8 -14 -17 -7 -28 -29 -137 -29 -150 0
-7 -12 -36 -26 -65 -46 -94 -82 -106 -338 -110 -79 -1 -143 -4 -143 -7 0 -3
-4 -13 -10 -21 -7 -12 -12 -11 -30 5 -21 19 -42 20 -516 23 -432 2 -495 1
-500 -12 -5 -14 -8 -14 -21 -1 -16 17 -119 19 -237 6 -60 -6 -72 -11 -92 -37
-26 -31 -34 -21 -9 12 8 10 14 21 15 24 0 3 -57 5 -128 6 -145 0 -208 16 -260
64 l-32 29 4 133 c3 88 10 146 20 170 9 20 18 59 21 85 3 26 12 82 20 123 59
299 87 613 58 625 -15 5 -18 35 -4 35 9 0 -8 83 -28 135 -30 77 -120 218 -192
296 -286 313 -473 656 -544 994 -9 44 -22 100 -28 125 -16 63 -15 482 1 595
15 104 20 126 73 295 63 199 88 256 176 400 74 122 151 234 164 238 5 2 9 7 9
12 0 8 35 51 87 105 17 19 33 42 35 52 2 10 12 18 23 18 11 0 35 15 55 33 19
18 64 54 100 79 36 26 67 50 70 53 3 3 26 21 53 40 26 18 47 38 47 43 0 6 3 8
6 4 3 -3 28 8 55 24 28 16 54 29 59 29 6 0 10 5 10 10 0 6 5 10 11 10 27 0 49
43 49 97 0 30 4 62 9 71 4 9 11 38 13 65 l6 47 -78 0 c-53 0 -80 -4 -84 -12
-5 -10 -7 -10 -12 0 -4 9 -186 12 -860 12 l-854 0 0 -1990z"/>
<path d="M2415 5265 c-180 -32 -295 -81 -295 -126 0 -42 22 -64 91 -93 75 -31
93 -31 269 -4 49 7 164 13 270 12 187 0 232 -6 435 -59 87 -23 235 -84 319
-132 45 -25 95 -53 111 -62 35 -19 122 -79 144 -101 9 -8 32 -26 51 -40 65
-46 194 -184 262 -280 17 -25 41 -56 54 -70 71 -81 190 -385 215 -549 4 -30
14 -58 21 -63 10 -6 10 -10 1 -16 -9 -6 -10 -42 -3 -153 10 -161 9 -153 56
-259 18 -41 62 -149 98 -240 36 -91 80 -194 98 -230 19 -36 44 -97 57 -137 42
-131 11 -174 -174 -248 -73 -29 -125 -59 -139 -79 -12 -20 -32 -127 -57 -318
-23 -173 -28 -211 -48 -333 -27 -170 -43 -225 -77 -276 -48 -72 -117 -96 -284
-100 -96 -2 -219 19 -463 81 -131 33 -243 60 -248 60 -28 0 47 -120 135 -215
25 -27 46 -53 46 -56 0 -13 173 -118 231 -141 38 -15 59 -29 59 -39 0 -26 38
-128 54 -144 8 -8 19 -15 25 -15 6 0 11 -5 11 -12 0 -14 13 -2 16 15 21 109
29 137 45 169 25 48 39 55 129 63 211 18 325 60 416 152 67 67 83 106 109 263
8 52 22 136 30 185 33 199 47 345 35 360 -9 10 -7 16 6 23 9 5 19 24 21 42 5
51 41 100 87 120 50 21 79 33 86 34 61 14 99 31 103 47 3 11 14 19 25 19 33 0
68 37 82 85 14 50 8 197 -8 203 -5 1 -18 9 -28 17 -18 14 -18 15 4 21 26 7 27
13 8 40 -8 11 -27 58 -42 105 -15 46 -31 89 -35 94 -4 6 -18 39 -32 75 -14 36
-38 94 -55 130 -71 155 -112 249 -112 257 0 5 -12 44 -26 88 -22 66 -26 96
-25 170 2 118 -24 307 -50 357 -5 10 -9 23 -9 29 0 18 -83 224 -92 227 -4 2
-8 10 -8 17 0 21 -44 9 -105 -30 -30 -19 -58 -35 -62 -35 -11 1 36 37 77 60
74 41 74 40 42 107 -61 130 -149 241 -336 428 -137 136 -255 220 -439 312
-322 162 -491 204 -837 208 -189 3 -231 0 -345 -20z"/>
<path d="M1910 5091 c-8 -5 -35 -15 -60 -22 -25 -7 -47 -16 -50 -19 -3 -3 -30
-18 -61 -34 -189 -94 -468 -363 -613 -589 -53 -82 -166 -304 -166 -325 0 -10
-4 -22 -9 -27 -5 -6 -16 -37 -26 -70 -9 -33 -21 -71 -26 -85 -41 -120 -63
-331 -56 -555 7 -233 4 -213 59 -430 32 -131 32 -130 56 -133 25 -4 28 -14 8
-32 -13 -10 -11 -20 10 -73 28 -69 66 -143 101 -199 21 -34 26 -37 55 -32 84
15 108 25 108 44 0 10 5 22 10 25 19 12 10 22 -15 17 -32 -6 -32 7 1 33 32 26
26 60 -12 69 -21 6 -25 12 -23 44 3 50 -9 100 -27 110 -13 7 -29 66 -81 297
-24 104 -23 454 1 597 30 180 131 460 201 553 12 17 32 48 43 70 12 22 35 55
52 74 16 18 30 37 30 41 0 16 173 179 268 253 56 43 104 88 108 99 4 15 12 18
29 14 15 -4 34 2 56 19 19 13 50 33 69 42 49 25 58 35 64 74 5 27 -1 47 -26
94 -33 60 -50 72 -78 56z"/>
<path d="M2760 4951 c0 -30 -21 -37 -41 -13 -19 24 -69 30 -69 9 0 -6 4 -28
10 -46 15 -55 2 -49 -22 8 l-21 53 -40 -6 c-36 -6 -108 -33 -147 -55 -18 -10
-17 -99 1 -132 25 -48 124 -160 127 -145 2 9 10 16 18 16 15 0 30 -43 19 -60
-12 -20 6 -50 30 -50 13 0 26 -4 29 -9 3 -4 36 -11 73 -13 38 -3 75 -7 83 -9
10 -3 16 5 18 24 2 15 8 27 13 27 16 0 23 -32 11 -51 -10 -16 -7 -19 24 -25
23 -4 38 -13 41 -25 3 -10 15 -25 27 -33 12 -7 49 -54 81 -102 32 -49 60 -91
62 -93 1 -2 10 2 19 10 16 13 17 12 11 -11 -17 -76 -38 -134 -53 -151 -19 -21
-64 -115 -64 -133 0 -7 -9 -21 -20 -31 -22 -20 -70 -115 -70 -138 0 -22 22
-27 119 -27 97 0 137 16 128 52 -3 11 -3 17 0 14 9 -8 34 15 27 25 -3 5 -24
10 -47 10 -40 1 -40 2 13 9 38 6 59 15 70 30 27 37 112 120 124 120 6 0 17 9
24 20 7 11 20 20 29 20 9 0 36 10 61 21 27 14 47 18 53 12 5 -5 32 -6 60 -3
44 6 58 13 95 52 24 25 49 59 56 74 l12 29 3 -26 c3 -18 -4 -35 -24 -56 -44
-46 -62 -71 -56 -77 12 -11 23 -6 23 12 1 10 6 6 14 -13 31 -71 91 -84 121
-26 14 27 50 49 62 38 7 -8 -28 -57 -41 -57 -17 -1 -56 -37 -56 -52 0 -8 9
-24 20 -36 11 -12 20 -24 20 -27 0 -15 26 -32 42 -27 22 5 23 -7 2 -37 -15
-21 -15 -25 -2 -32 11 -6 14 -21 10 -57 -2 -30 0 -52 7 -56 7 -5 7 -13 1 -24
-5 -9 -39 -78 -76 -152 -36 -74 -79 -154 -95 -177 -16 -23 -29 -45 -29 -50 0
-5 -11 -25 -24 -44 -14 -20 -23 -45 -20 -55 3 -13 -2 -22 -18 -29 -22 -10 -36
-32 -114 -180 -20 -38 -55 -99 -78 -134 -53 -84 -61 -97 -87 -149 -21 -42 -21
-43 -3 -58 18 -15 18 -15 -4 -11 -27 6 -42 -13 -131 -165 -102 -174 -139 -196
-325 -186 -77 4 -98 9 -134 32 -51 32 -120 118 -167 207 -43 82 -46 135 -10
199 26 48 79 155 89 180 4 8 19 33 35 55 23 31 26 41 15 43 -8 2 -13 11 -12
20 3 15 -10 17 -96 19 -98 2 -100 2 -125 -27 -39 -43 -48 -54 -65 -86 -36 -67
-136 -151 -206 -173 -43 -13 -268 1 -298 20 -26 16 -96 121 -122 184 -15 34
-22 72 -22 120 -1 80 21 137 111 289 28 47 51 89 51 91 0 3 22 40 48 83 26 42
51 84 55 92 4 8 19 35 33 60 99 176 104 188 86 193 -13 4 -12 5 4 6 21 1 84
83 84 108 0 6 7 16 15 23 9 7 13 15 11 17 -3 3 11 29 30 58 19 30 34 56 34 59
0 3 18 33 40 67 34 53 67 134 60 148 -1 2 3 7 9 11 7 3 14 30 18 59 6 49 5 53
-15 49 -27 -4 -76 33 -96 73 -9 18 -16 50 -16 71 0 21 -9 57 -20 79 -12 22
-18 44 -15 49 3 6 -1 7 -9 4 -9 -3 -16 -2 -16 4 0 6 -20 20 -45 32 -68 33
-116 24 -285 -54 -14 -6 -31 -17 -38 -23 -7 -7 -19 -13 -27 -13 -7 0 -15 -3
-17 -7 -1 -5 -21 -20 -43 -35 -42 -29 -63 -47 -153 -126 -79 -69 -81 -75 -33
-127 56 -61 52 -69 -5 -12 -25 26 -50 47 -55 47 -4 0 -13 -9 -19 -21 -7 -11
-19 -28 -28 -38 -68 -72 -176 -240 -155 -241 4 0 -1 -7 -11 -15 -19 -14 -19
-15 0 -36 18 -20 18 -20 -11 -17 -20 2 -29 -1 -28 -9 2 -7 -2 -13 -8 -13 -5 0
-8 -4 -4 -9 3 -5 -3 -24 -14 -43 -10 -18 -24 -50 -31 -70 -6 -21 -17 -38 -23
-38 -7 -1 -2 -9 11 -19 28 -25 28 -31 -3 -31 -21 0 -25 -5 -25 -28 0 -15 -5
-33 -11 -39 -8 -8 -3 -16 20 -27 39 -21 40 -36 1 -36 -25 0 -30 -5 -39 -37 -6
-21 -11 -51 -11 -66 0 -16 -4 -36 -9 -45 -14 -28 -20 -160 -7 -176 7 -9 39
-17 91 -20 50 -4 85 -12 94 -21 14 -13 12 -15 -16 -15 -18 0 -35 5 -38 10 -9
15 -135 13 -135 -2 2 -54 22 -163 32 -169 9 -6 10 -11 2 -19 -12 -12 3 -106
26 -169 12 -32 14 -33 56 -27 24 3 56 9 70 12 17 5 25 3 21 -3 -4 -6 -26 -16
-49 -22 -60 -15 -71 -24 -63 -50 3 -11 11 -21 16 -21 5 0 9 -9 9 -20 0 -16 7
-20 33 -20 30 -1 31 -2 13 -15 -10 -8 -23 -16 -28 -17 -10 -4 17 -64 33 -74 6
-3 7 -18 4 -33 -7 -33 12 -54 47 -51 40 4 42 1 19 -21 -20 -19 -21 -23 -8 -42
10 -15 23 -21 40 -19 14 2 28 -2 32 -7 3 -6 18 -11 32 -11 l25 0 -26 -34 c-32
-43 -32 -46 -1 -80 25 -27 27 -27 50 -12 13 9 31 16 40 16 22 0 30 -27 14 -47
-11 -13 -11 -17 -1 -21 7 -2 19 -11 28 -19 12 -13 20 -13 41 -4 35 16 38 9 10
-21 -16 -17 -29 -23 -38 -18 -16 10 -32 3 -23 -11 3 -5 10 -7 15 -4 5 4 9 3 9
-2 0 -4 16 -26 36 -48 19 -22 49 -59 65 -82 30 -43 36 -47 77 -45 26 1 30 -23
5 -37 -11 -7 -14 -14 -8 -18 19 -15 142 -291 137 -308 -2 -5 6 0 18 13 33 35
44 26 20 -15 -21 -36 -22 -41 -10 -143 15 -130 9 -364 -14 -570 -9 -85 -14
-172 -10 -194 4 -27 2 -41 -7 -48 -12 -8 -12 -9 0 -6 9 3 20 29 27 64 13 62
49 144 62 144 20 0 190 122 216 155 23 30 31 55 42 128 13 97 12 389 -3 439
-8 27 -9 27 -36 13 -26 -13 -27 -13 -16 7 7 13 7 24 1 30 -14 14 -26 -9 -28
-56 -2 -46 -29 -80 -44 -56 -8 13 -11 12 -24 -5 -12 -16 -17 -18 -27 -8 -7 7
-23 13 -35 13 -25 0 -36 20 -23 41 15 24 11 79 -6 79 -25 0 -17 44 14 83 32
42 49 38 24 -4 -28 -48 -4 -55 44 -14 48 40 53 42 46 15 -3 -11 -9 -20 -13
-20 -17 0 -21 -53 -5 -69 15 -15 17 -14 31 3 8 11 14 37 14 57 0 21 5 41 10
44 6 3 10 2 10 -2 0 -5 6 -18 14 -28 12 -16 15 -17 27 -4 20 20 39 66 39 94 0
14 5 25 10 25 6 0 10 -7 10 -15 0 -23 16 -18 43 12 14 16 54 60 89 98 85 92
128 149 128 168 0 9 5 19 10 22 14 8 13 71 -2 94 -6 10 -8 26 -4 36 13 34 27
-1 33 -81 6 -83 17 -105 63 -129 14 -7 48 -32 75 -54 27 -23 54 -40 60 -39 23
3 66 -16 76 -34 6 -11 53 -40 105 -65 52 -25 101 -55 109 -67 7 -11 25 -93 39
-180 14 -88 29 -163 33 -166 11 -9 119 -47 168 -59 22 -5 72 -19 110 -31 172
-53 262 -71 370 -75 136 -5 202 7 231 40 12 14 29 25 38 25 22 0 20 29 -6 87
-12 26 -24 53 -26 58 -3 6 12 -6 33 -25 l37 -35 -31 62 c-17 34 -31 65 -31 67
0 3 18 -14 40 -37 39 -41 40 -42 40 -16 0 15 -16 50 -35 79 l-35 52 37 -33 38
-33 8 45 c4 24 15 94 24 155 l15 111 -48 47 -49 48 47 -31 c57 -38 76 -40 54
-6 -20 30 -20 35 -2 35 9 0 16 17 20 47 3 27 12 80 20 118 l13 70 -31 34 c-31
34 -31 34 -4 18 38 -24 50 -21 73 15 22 35 91 87 115 88 8 0 47 18 87 40 66
37 72 43 78 79 4 22 2 47 -4 57 -6 11 -24 49 -40 87 -19 41 -36 67 -45 67 -22
0 -20 20 2 20 14 1 14 3 -6 19 -13 12 -20 25 -16 35 3 9 -10 51 -29 93 -19 43
-43 98 -52 123 -10 25 -25 61 -33 80 -9 19 -27 69 -41 110 -25 72 -28 75 -61
80 l-35 6 33 7 c34 7 34 7 28 54 -3 27 -8 95 -11 153 -7 137 -13 161 -38 182
-19 15 -20 18 -4 18 31 0 20 46 -41 169 -9 19 -22 36 -28 38 -6 2 -33 -11 -60
-29 -50 -34 -104 -61 -104 -53 0 2 15 12 33 21 42 22 99 71 114 100 11 18 10
25 -1 36 -7 8 -17 24 -20 36 -9 28 -20 28 -72 -3 -53 -31 -51 -7 2 26 19 11
34 28 34 38 0 21 -33 87 -58 115 -10 12 -35 47 -57 78 -21 32 -47 65 -57 75
-18 16 -21 14 -65 -28 -42 -39 -44 -40 -20 -9 53 68 54 73 8 119 -23 23 -48
41 -56 41 -8 0 -15 5 -15 12 0 12 -58 68 -71 68 -4 0 -14 -12 -24 -26 -23 -35
-30 -24 -10 15 15 30 15 31 -9 41 -13 5 -27 14 -31 20 -3 5 -25 20 -47 33 -53
29 -67 38 -104 64 -17 12 -34 19 -38 15 -4 -3 -10 -2 -14 4 -12 18 -83 46
-103 41 -10 -3 -19 -1 -19 3 0 5 -13 15 -30 23 -29 15 -64 13 -87 -6 -10 -7
-13 -3 -13 16 0 22 -6 27 -36 33 -41 8 -54 -4 -54 -51 0 -16 -5 -37 -11 -45
-8 -11 -9 0 -6 43 2 34 -1 61 -7 66 -12 9 -123 27 -223 36 -58 6 -63 4 -63
-14z m704 -477 c5 -12 17 -15 51 -12 l46 3 -7 -30 c-4 -16 -15 -50 -26 -75
-20 -44 -20 -45 -31 -20 -5 14 -9 28 -9 33 3 12 -15 8 -28 -8 -17 -20 -30 -10
-30 24 0 35 -8 43 -31 30 -16 -8 -19 -6 -19 16 0 14 5 26 10 26 6 1 14 2 20 3
5 0 15 7 22 14 16 16 25 15 32 -4z m589 -2230 c45 -35 58 -54 37 -54 -5 0 -10
-9 -10 -20 0 -10 -8 -23 -17 -29 -17 -9 -17 -10 0 -29 10 -11 19 -28 22 -40 3
-16 -3 -21 -31 -26 -34 -7 -43 -19 -24 -31 18 -11 11 -31 -15 -45 -22 -12 -27
-11 -46 6 -12 10 -28 32 -36 49 -9 16 -24 40 -35 52 -17 18 -24 20 -44 11 -13
-6 -26 -9 -29 -6 -10 10 8 39 20 34 7 -2 23 8 35 24 15 19 29 27 46 25 15 -1
24 3 24 12 0 9 7 12 25 7 30 -7 34 10 8 38 -9 10 -11 18 -5 18 5 0 8 9 5 20
-8 31 18 25 70 -16z"/>
<path d="M2875 4356 c-74 -100 -118 -191 -110 -226 4 -16 2 -20 -3 -12 -16 23
-31 -37 -34 -135 -2 -50 0 -95 5 -99 4 -4 7 -23 7 -41 0 -44 18 -63 48 -52 36
14 52 35 52 67 0 20 7 32 23 39 12 6 44 48 72 94 72 121 85 150 85 182 0 36
-63 150 -97 177 -30 24 -35 24 -48 6z"/>
<path d="M2478 4282 c-15 -16 -37 -49 -48 -76 -12 -26 -32 -63 -45 -82 -18
-26 -22 -41 -16 -57 12 -31 4 -45 -22 -40 -20 4 -29 -6 -64 -71 l-41 -76 131
-2 132 -2 -130 -3 c-108 -3 -132 -7 -146 -21 -18 -20 -121 -193 -152 -257 -10
-22 -29 -53 -41 -70 -12 -16 -33 -52 -46 -80 -13 -27 -37 -68 -52 -91 -15 -22
-39 -65 -54 -95 -15 -30 -30 -56 -34 -59 -4 -3 -13 -22 -20 -44 -10 -32 -10
-40 1 -47 8 -5 67 -9 133 -9 114 0 120 1 142 25 12 13 29 37 37 52 8 16 22 43
31 61 l17 32 -70 0 c-38 0 -73 5 -76 10 -4 6 25 10 79 10 l85 0 16 33 c9 19
28 48 43 67 27 32 30 33 113 35 90 3 139 16 139 38 0 8 9 22 20 32 11 10 20
24 20 32 0 12 12 17 33 14 4 0 7 3 7 9 0 6 7 10 16 10 27 0 41 24 36 60 -7 47
-24 57 -115 65 -42 4 -79 11 -82 15 -6 10 21 77 45 110 17 24 24 49 21 77 0 6
-13 14 -28 16 -20 3 -16 4 14 6 38 1 43 4 50 29 3 15 6 36 5 46 0 11 7 25 16
32 14 10 15 15 5 25 -19 19 -16 29 7 29 11 0 20 5 20 10 0 6 -4 10 -8 10 -5 0
-6 38 -4 84 l4 84 -38 26 c-48 32 -52 32 -86 -2z"/>
<path d="M3453 3981 c-39 -24 -40 -33 -9 -86 18 -32 29 -41 54 -43 32 -3 46
-22 17 -22 -21 0 -19 -27 5 -65 19 -31 22 -32 110 -39 90 -7 170 5 170 24 0 6
-4 10 -9 10 -5 0 -11 18 -15 40 -3 22 -11 40 -16 40 -6 0 -10 7 -10 15 0 9 -7
18 -15 21 -8 4 -15 12 -15 19 0 24 -66 86 -84 79 -10 -4 -18 0 -22 10 -6 15
-8 15 -21 -4 -8 -11 -20 -20 -26 -20 -7 0 -3 7 7 15 20 15 20 15 0 15 -10 0
-35 3 -54 6 -25 3 -44 -1 -67 -15z"/>
<path d="M3316 3896 c-20 -23 -36 -50 -36 -59 0 -8 -10 -28 -23 -44 -58 -72
-59 -112 -5 -211 63 -117 82 -132 112 -87 22 33 21 35 -14 35 -48 0 -34 19 16
22 45 3 47 4 86 68 31 51 38 71 33 95 -3 17 -7 38 -8 47 -6 36 -38 58 -86 59
l-46 1 42 10 43 9 -23 40 c-35 64 -50 66 -91 15z"/>
<path d="M3545 3671 c-11 -5 -26 -17 -32 -27 -7 -11 -23 -35 -36 -55 -39 -57
-97 -165 -97 -177 0 -7 7 -12 15 -12 8 0 15 -4 15 -10 0 -13 -17 -13 -25 1 -5
7 -13 5 -25 -6 -17 -15 -60 -16 -462 -12 -244 2 -432 1 -418 -3 22 -7 20 -8
-12 -9 -21 -1 -38 4 -38 9 0 6 -20 10 -45 10 -25 0 -45 -4 -45 -8 0 -5 14 -36
30 -70 17 -34 30 -65 30 -68 0 -3 15 -27 32 -55 29 -44 37 -49 68 -49 20 0 40
-4 45 -9 6 -5 64 -11 131 -13 120 -3 158 -13 149 -41 -2 -7 -6 -24 -9 -39 -3
-15 -12 -33 -19 -40 -7 -7 -24 -35 -37 -63 -13 -27 -36 -68 -51 -90 -15 -22
-45 -78 -69 -125 l-41 -85 21 -58 c21 -57 92 -157 110 -157 5 0 22 19 37 43
15 23 42 65 60 94 18 28 33 56 33 61 0 5 7 15 16 23 14 11 54 81 54 93 0 3
-10 7 -22 9 -16 3 -13 4 6 3 30 -1 36 6 82 89 49 89 156 265 165 270 5 4 12 0
15 -8 3 -8 -17 -50 -44 -94 -27 -44 -64 -109 -83 -144 -18 -35 -49 -89 -69
-119 -20 -30 -51 -82 -69 -115 -18 -32 -41 -71 -51 -85 -18 -26 -80 -145 -80
-155 0 -11 56 -28 105 -32 83 -7 126 -3 156 12 28 15 79 74 79 92 0 5 11 25
25 43 14 19 28 52 32 73 3 21 8 35 11 33 5 -5 60 76 84 124 7 14 24 43 39 65
14 22 34 58 45 80 10 22 24 46 31 53 7 7 38 59 69 115 31 56 67 119 80 139 13
21 24 42 24 48 0 5 16 34 35 64 49 77 49 80 -15 87 l-55 6 60 1 c48 2 64 6 78
23 10 11 16 27 13 35 -3 8 -2 12 3 9 5 -3 12 4 16 15 3 11 10 20 15 20 5 0 12
9 15 20 3 11 12 26 18 32 26 28 68 135 55 139 -21 6 -238 6 -253 0z"/>
<path d="M2763 3635 c-13 -13 -23 -28 -23 -33 0 -5 -6 -15 -14 -22 -8 -6 -13
-17 -10 -24 5 -13 -16 -27 -46 -31 -22 -2 -70 -46 -70 -62 0 -8 -4 -11 -10 -8
-5 3 -10 0 -10 -8 0 -11 60 -14 350 -14 305 -1 350 1 350 14 0 8 -16 39 -35
68 -29 43 -40 52 -57 47 -15 -3 -19 -2 -14 7 4 6 12 9 17 6 21 -13 7 33 -16
53 -23 20 -36 22 -166 22 -77 0 -148 -4 -158 -10 -13 -6 -24 -5 -37 5 -24 18
-25 18 -51 -10z"/>
<path d="M2276 3325 c-17 -18 -22 -50 -6 -40 6 3 10 -3 10 -15 0 -16 -4 -20
-19 -15 -14 4 -27 -6 -54 -48 -58 -87 -72 -123 -60 -149 6 -13 14 -35 17 -50
3 -15 12 -33 20 -41 8 -8 21 -30 30 -51 8 -20 19 -36 25 -36 5 0 16 -2 23 -5
31 -12 138 121 138 171 0 15 7 32 15 38 13 9 7 27 -39 121 -61 126 -76 144
-100 120z"/>
<path d="M1821 3051 c-11 -7 -8 -20 14 -69 15 -33 34 -63 43 -67 10 -3 29 7
52 30 52 51 62 43 11 -9 -35 -36 -42 -49 -37 -69 11 -45 51 -61 162 -65 107
-4 144 5 144 36 -1 9 -24 62 -53 117 l-52 100 -135 3 c-74 1 -141 -2 -149 -7z"/>
<path d="M1163 2456 c-24 -6 -43 -14 -43 -19 0 -8 88 -146 101 -157 3 -3 25
-32 49 -65 24 -33 49 -65 54 -71 173 -188 254 -306 291 -423 51 -159 57 -410
16 -615 -11 -54 -19 -101 -19 -105 3 -13 -15 -121 -44 -256 -47 -224 -49 -234
-46 -272 2 -25 11 -42 28 -54 30 -22 150 -38 150 -20 0 13 32 15 45 2 6 -5 38
-11 73 -13 62 -3 62 -3 78 30 18 39 21 40 18 3 l-2 -28 77 -6 c99 -8 470 -7
475 2 2 3 109 2 238 -2 361 -12 896 -5 932 13 38 19 63 62 71 125 3 28 13 82
20 120 21 99 20 104 -30 191 -24 43 -47 90 -50 104 -3 14 -12 33 -19 42 -12
16 -180 118 -194 118 -4 0 -46 39 -94 88 -88 89 -198 239 -198 270 0 13 -13
21 -47 29 -83 19 -168 45 -179 54 -9 7 -85 28 -200 56 -12 3 -43 29 -69 59
-37 41 -51 51 -61 43 -10 -8 -15 -4 -19 18 -4 15 -11 37 -17 48 -13 23 -28 53
-38 75 -9 19 -70 49 -87 43 -17 -7 -16 -37 1 -71 8 -15 12 -39 11 -54 -4 -38
2 -35 20 9 23 55 39 30 22 -35 -17 -66 -37 -90 -37 -44 0 18 -4 32 -10 32 -16
0 -12 -88 6 -123 26 -49 70 -102 129 -153 56 -47 167 -94 325 -136 202 -53
299 -85 380 -126 89 -44 170 -121 170 -161 0 -15 8 -38 17 -51 15 -21 18 -47
18 -150 0 -134 -7 -157 -51 -186 -23 -15 -95 -17 -757 -18 l-732 -1 -3 -47
c-4 -57 -22 -65 -22 -9 0 37 -2 39 -50 59 -73 30 -72 24 -27 302 56 348 62
429 48 592 -14 146 -44 277 -69 295 -40 29 -42 32 -30 57 18 40 -61 184 -163
301 -15 17 -38 43 -52 60 l-25 30 -37 -18 c-43 -20 -51 -17 -36 11 17 33 14
82 -6 89 -10 4 -21 11 -25 17 -5 7 -8 7 -8 -1 0 -7 -6 -13 -13 -13 -7 0 -22
-8 -33 -18 -28 -26 -80 -59 -71 -45 10 17 -3 45 -19 39 -8 -3 -14 -1 -14 4 0
14 42 40 66 40 19 0 54 28 54 43 0 16 -36 5 -59 -17 -15 -14 -39 -28 -56 -32
l-30 -7 24 27 24 26 -31 0 c-31 0 -31 1 -19 28 6 15 15 30 20 33 12 9 -63 5
-110 -5z"/>
<path d="M2567 2163 c-14 -21 -53 -67 -86 -103 -34 -36 -61 -70 -61 -77 0 -8
12 -13 29 -13 36 0 97 -34 129 -72 28 -33 42 -36 42 -9 0 11 5 23 10 26 6 4
10 -10 10 -34 0 -58 18 -91 53 -98 17 -4 32 -14 34 -25 7 -23 19 -23 28 0 6
16 7 16 20 -2 16 -21 45 -15 45 9 0 22 50 20 51 -2 7 -111 19 -123 160 -163
41 -12 82 -24 92 -27 15 -5 17 2 17 43 0 60 -24 219 -38 255 -13 34 -46 56
-155 106 -49 23 -99 50 -112 61 -12 11 -33 23 -45 27 -12 4 -36 19 -53 34 -33
29 -134 101 -141 101 -2 0 -15 -17 -29 -37z"/>
<path d="M2317 1530 c-4 -35 -7 -89 -7 -121 0 -91 -20 -211 -41 -245 -21 -35
-144 -136 -199 -164 -40 -20 -61 -59 -75 -135 -4 -22 -11 -45 -15 -50 -15 -18
-24 -95 -12 -95 6 0 14 10 18 23 l8 22 6 -25 c8 -34 55 -42 224 -37 114 4 141
8 148 21 11 20 42 22 35 2 -8 -19 74 -28 216 -24 123 3 115 -4 120 108 3 61 3
60 5 -17 l2 -83 279 0 c161 0 291 4 306 10 62 24 67 162 8 255 -31 49 -39 54
-107 59 -26 2 -50 7 -54 11 -7 6 -8 10 -10 51 -2 14 -16 26 -49 41 -78 33
-262 93 -303 98 -8 1 -25 5 -36 9 -17 5 -23 2 -29 -16 -7 -21 -8 -21 -12 8 -3
27 -11 34 -46 48 -24 9 -53 16 -65 16 -13 0 -25 7 -28 15 -3 8 -15 17 -26 21
-21 6 -62 41 -150 127 l-48 47 -12 -25 c-16 -36 -28 -21 -22 28 4 28 1 48 -9
61 -13 17 -14 13 -20 -44z"/>
</g>
</svg>
