<?xml version="1.0" standalone="no"?>
<!DOCTYPE svg PUBLIC "-//W3C//DTD SVG 20010904//EN"
 "http://www.w3.org/TR/2001/REC-SVG-20010904/DTD/svg10.dtd">
<svg version="1.0" xmlns="http://www.w3.org/2000/svg"
 width="544.000000pt" height="544.000000pt" viewBox="0 0 544.000000 544.000000"
 preserveAspectRatio="xMidYMid meet">
<metadata>
Created by potrace 1.16, written by Peter Selinger 2001-2019
</metadata>
<g transform="translate(0.000000,544.000000) scale(0.100000,-0.100000)"
fill="#000000" stroke="none">
<path d="M0 2720 l0 -2720 2720 0 2720 0 0 736 c0 404 -4 733 -8 730 -4 -2
-14 -1 -22 5 -12 7 -10 9 8 9 l22 0 0 1980 0 1980 -1737 0 c-956 0 -1732 -4
-1725 -9 8 -4 13 -11 12 -15 -5 -20 14 -86 28 -99 26 -23 80 -26 157 -10 39 8
79 16 90 18 11 1 22 4 25 5 3 2 16 4 30 5 14 1 54 7 90 14 36 6 155 14 265 18
186 5 211 4 350 -21 198 -34 373 -84 465 -131 17 -9 30 -13 30 -9 0 4 6 2 13
-4 6 -6 67 -39 134 -74 191 -98 198 -102 239 -140 21 -20 53 -47 69 -59 17
-12 57 -48 90 -78 33 -31 79 -72 102 -92 23 -20 39 -39 36 -43 -4 -3 1 -6 10
-6 8 0 26 -14 38 -31 19 -27 23 -29 31 -15 14 25 31 19 24 -9 -4 -17 1 -37 19
-65 14 -22 25 -44 25 -50 0 -26 142 -218 201 -271 38 -34 46 -37 127 -43 110
-8 183 4 262 44 59 30 79 33 66 11 -11 -17 -123 -100 -148 -110 -14 -5 -42
-10 -64 -12 -21 -2 -48 -9 -59 -16 -11 -7 -28 -13 -38 -13 -10 0 -16 -4 -13
-9 3 -5 -5 -12 -19 -15 -14 -4 -25 -12 -25 -19 0 -7 -8 -17 -18 -24 -17 -10
-18 -16 -6 -80 7 -37 20 -122 29 -188 8 -66 20 -142 26 -170 6 -27 11 -62 11
-77 1 -20 6 -28 18 -28 23 0 42 -24 34 -44 -3 -9 -9 -14 -13 -12 -15 9 -9 -84
10 -144 19 -62 81 -212 137 -330 37 -80 100 -235 125 -310 17 -52 21 -87 21
-176 -1 -102 -3 -114 -30 -165 -36 -66 -93 -107 -201 -143 -113 -38 -138 -56
-151 -107 -11 -41 -10 -45 14 -67 14 -12 21 -22 17 -22 -5 0 -14 5 -21 12 -18
18 -34 -4 -26 -36 3 -15 31 -48 60 -73 30 -26 52 -49 49 -51 -2 -2 -28 13 -57
34 -31 22 -45 29 -34 16 11 -13 35 -32 53 -43 41 -25 44 -44 6 -35 -16 4 -37
8 -48 9 -11 1 -26 6 -32 10 -31 20 -8 -15 44 -67 41 -41 54 -59 46 -67 -6 -6
-9 -18 -6 -25 3 -9 -2 -14 -14 -14 -25 0 -26 -31 -1 -48 34 -24 18 -33 -22
-12 -39 20 -52 16 -28 -8 10 -10 5 -11 -20 -6 -40 8 -40 -1 0 -43 21 -22 27
-33 17 -33 -8 0 -21 6 -29 12 -12 11 -12 10 -1 -4 7 -9 10 -22 6 -28 -3 -5 -1
-10 5 -10 6 0 8 -4 5 -10 -3 -5 -1 -10 4 -10 6 0 11 -7 11 -16 0 -8 -4 -12
-10 -9 -5 3 -20 0 -32 -7 -13 -6 -31 -11 -40 -10 -12 2 -20 -9 -28 -40 -6 -24
-17 -58 -23 -76 -16 -45 -108 -159 -154 -191 -90 -61 -210 -101 -360 -120 -97
-12 -120 -24 -126 -65 -3 -17 -19 -110 -36 -206 -56 -313 -71 -353 -141 -394
-34 -20 -51 -21 -543 -24 l-508 -3 -11 -24 c-14 -32 -26 -32 -38 0 l-10 25
-477 1 c-263 0 -488 2 -501 5 -40 7 -95 38 -114 65 -39 53 -35 134 22 434 17
92 26 144 62 355 8 44 13 155 13 265 -1 206 -4 221 -72 350 -35 66 -140 205
-161 212 -10 4 -38 29 -64 56 -31 33 -52 47 -63 44 -11 -5 -15 0 -15 17 0 18
-7 25 -27 29 -53 10 -97 -22 -107 -78 -10 -52 -28 -85 -91 -170 -58 -78 -112
-132 -121 -122 -10 9 15 75 61 162 36 68 44 93 50 164 7 84 9 87 60 126 18 13
18 14 1 9 -16 -6 -17 -4 -7 14 7 12 16 22 21 22 16 0 11 56 -5 70 -8 7 -15 24
-15 39 0 50 -11 70 -41 76 -33 8 -35 12 -13 36 17 19 23 2 -69 204 -21 45 -37
87 -37 95 -1 8 -8 33 -16 55 -15 41 -44 138 -48 165 -2 9 -18 17 -42 21 -21 3
-31 7 -21 8 32 2 59 21 49 34 -5 7 -12 61 -15 121 -4 65 -11 112 -18 116 -8 6
-8 13 0 29 10 17 9 22 -4 27 -14 6 -13 8 2 19 10 8 15 17 11 20 -4 4 -3 16 3
26 8 15 6 19 -7 19 -10 0 -31 4 -48 10 -17 5 -49 14 -71 20 -38 9 -38 9 18 6
31 -3 57 -3 57 -1 0 3 -21 11 -47 19 -55 17 -30 21 36 5 32 -7 47 -6 58 2 22
19 3 28 -71 33 -70 5 -102 16 -50 17 54 1 104 6 109 11 14 14 -11 39 -49 48
-70 19 -76 21 -76 31 0 10 21 6 98 -17 48 -14 47 -15 55 48 4 23 1 38 -6 41
-9 3 -8 8 2 20 18 22 71 259 71 320 0 44 2 48 20 42 27 -9 17 18 -16 40 -40
26 -31 43 24 42 46 -2 47 -2 50 32 3 25 -2 37 -17 48 -12 8 -21 24 -21 36 0
18 5 22 28 21 15 -1 26 -7 24 -13 -1 -7 2 -10 8 -6 7 4 -5 24 -30 51 -22 24
-40 53 -40 64 0 20 1 20 33 4 17 -10 44 -18 60 -19 26 -2 26 -1 10 17 -9 10
-32 28 -51 40 -31 19 -33 22 -16 28 12 5 30 0 49 -13 29 -20 30 -20 13 -1 -21
24 -24 39 -5 28 8 -5 7 -2 -2 9 -18 23 -6 35 19 19 14 -9 20 -9 20 -1 0 6 9 9
19 6 15 -4 19 0 15 16 -3 16 -1 18 8 9 18 -18 51 -15 44 4 -14 37 -18 64 -8
64 6 0 8 9 5 19 -8 30 33 38 68 12 15 -12 30 -21 32 -21 3 0 7 18 11 41 5 33
12 42 36 51 17 5 30 14 30 19 0 5 5 9 10 9 6 0 21 10 34 23 12 12 53 49 91 82
37 33 73 65 79 70 29 26 127 97 183 131 107 67 178 108 183 107 3 -1 11 3 18
9 8 7 11 38 10 102 -2 50 1 106 6 124 l8 32 -941 0 -941 0 0 -2720z"/>
<path d="M2694 5283 c-26 -3 -33 -10 -38 -36 -5 -25 -9 -29 -16 -17 -5 8 -10
23 -10 33 0 14 -9 17 -55 17 -50 0 -55 -2 -56 -22 l0 -23 -9 22 c-9 23 -9 23
-120 4 -77 -12 -217 -57 -244 -76 -15 -11 -17 -21 -12 -49 6 -33 26 -52 26
-25 0 6 8 3 17 -7 17 -16 18 -16 32 19 8 21 19 37 25 36 25 -3 35 2 42 23 6
20 7 20 17 2 17 -31 26 -97 15 -118 -7 -13 -6 -21 3 -27 28 -17 32 -8 27 61
-6 74 7 97 17 33 11 -72 21 -98 37 -101 21 -4 46 37 29 48 -7 4 -14 40 -16 81
-5 76 5 64 21 -26 6 -37 8 -38 14 -15 7 23 8 22 10 -10 1 -29 3 -32 10 -15 5
11 9 16 10 10 1 -5 5 -1 10 10 8 19 8 19 16 1 4 -11 2 -27 -5 -38 -9 -15 -8
-20 4 -25 9 -3 21 -1 28 6 14 14 84 15 92 1 14 -22 111 4 123 33 7 14 21 7 27
-14 6 -17 14 -20 48 -17 l42 3 3 73 c2 50 -1 72 -8 67 -15 -9 -12 11 4 24 8 6
16 23 19 36 4 25 4 25 -72 23 -42 0 -90 -3 -107 -5z"/>
<path d="M2916 5268 c-11 -37 -26 -137 -26 -175 0 -41 1 -43 30 -43 57 0 283
-52 345 -80 66 -29 87 -33 95 -20 6 9 9 7 14 -6 5 -17 44 -50 51 -42 1 2 17
34 34 72 17 38 34 67 36 64 2 -2 -7 -33 -20 -69 -23 -63 -21 -100 4 -85 15 10
71 121 71 141 0 8 7 15 15 15 8 0 15 -1 15 -3 0 -11 -75 -153 -84 -159 -8 -6
-7 -8 1 -8 6 0 20 14 30 30 24 41 33 38 18 -7 -7 -21 -11 -41 -9 -45 2 -4 28
-18 57 -31 28 -14 63 -35 76 -47 41 -40 111 -90 124 -90 16 0 37 41 37 70 0
13 -7 20 -20 20 -11 0 -29 9 -40 20 -11 11 -23 21 -27 23 -5 1 -8 12 -8 25 1
26 -7 28 -25 7 -7 -9 -15 -14 -17 -11 -6 6 44 103 57 111 16 10 12 42 -6 49
-22 9 -31 1 -38 -36 -9 -48 -37 -118 -47 -118 -5 0 -4 12 1 26 6 14 10 37 10
52 l-1 27 -29 -35 c-35 -40 -37 -33 -10 45 27 80 26 89 -17 109 -21 9 -56 27
-78 41 -53 33 -221 100 -315 126 -70 19 -240 49 -282 49 -10 0 -20 -6 -22 -12z"/>
<path d="M1900 5090 c-90 -34 -97 -39 -104 -62 -5 -14 -9 -18 -13 -10 -8 19
-27 14 -72 -18 l-41 -30 19 -28 c17 -23 37 -102 26 -102 -7 0 -56 48 -56 54 5
37 -21 55 -44 32 -12 -12 -11 -16 9 -29 16 -11 23 -26 24 -52 1 -20 4 -40 7
-45 8 -13 -6 -12 -25 0 -10 6 -11 10 -2 10 19 0 15 15 -14 49 -28 33 -54 41
-54 16 0 -9 11 -38 25 -66 23 -45 24 -49 7 -40 -11 6 -33 27 -50 48 l-30 37
-48 -39 c-27 -22 -56 -49 -65 -60 -9 -11 -26 -31 -37 -43 -22 -25 -20 -36 24
-124 22 -45 2 -31 -34 23 -35 53 -51 53 -65 -1 -4 -14 -19 -32 -34 -41 -19
-11 -32 -29 -40 -60 -23 -81 -25 -97 -14 -103 13 -8 15 -46 3 -46 -5 0 -18 9
-30 20 -26 24 -48 26 -56 4 -3 -9 -6 -17 -6 -19 0 -8 94 -68 106 -68 7 0 10
-6 7 -14 -3 -8 -13 -11 -24 -8 -11 4 -19 2 -19 -4 0 -6 -11 -11 -25 -11 -14 0
-25 -4 -25 -10 0 -5 -4 -10 -8 -10 -5 0 -8 10 -8 21 1 22 -28 49 -39 37 -4 -3
-2 -15 4 -26 9 -17 8 -19 -8 -15 -20 5 -34 -18 -25 -41 3 -7 28 -24 57 -37 29
-13 58 -30 65 -36 22 -21 48 -15 67 14 16 24 16 27 1 38 -27 20 -20 37 9 23
14 -6 27 -9 29 -7 20 24 63 120 56 124 -6 4 -10 15 -10 26 0 15 5 18 23 14 19
-5 29 1 53 37 27 40 104 121 187 196 20 18 39 42 42 53 5 13 12 18 22 15 14
-6 64 25 101 61 7 7 20 13 28 13 8 0 24 11 36 25 12 14 32 25 44 25 28 0 55
26 48 45 -4 8 -10 15 -15 15 -5 0 -9 5 -9 11 0 7 11 9 30 5 50 -10 112 28 118
71 4 27 -51 148 -70 155 -7 3 -33 -3 -58 -12z"/>
<path d="M2595 4963 c4 -8 -5 -15 -22 -18 -44 -9 -58 -20 -61 -46 -6 -38 -19
-45 -41 -21 -16 19 -20 20 -31 7 -6 -8 -10 -29 -7 -49 3 -19 0 -37 -6 -39 -20
-6 18 -60 58 -83 11 -6 25 -22 32 -35 7 -13 20 -29 29 -36 10 -7 14 -13 10
-13 -4 0 -1 -7 6 -15 22 -25 33 -39 46 -65 18 -35 58 -50 155 -59 119 -11 174
-45 244 -149 91 -133 103 -200 53 -289 -16 -29 -30 -62 -30 -73 0 -11 -4 -20
-9 -20 -5 0 -12 -12 -16 -27 -3 -15 -14 -34 -24 -42 -16 -15 -45 -80 -38 -87
8 -8 79 16 103 35 14 11 30 18 35 16 4 -3 13 3 19 14 6 11 16 18 24 15 7 -3
19 2 26 11 7 8 9 15 4 15 -5 0 15 12 45 25 30 14 60 33 67 43 7 9 14 13 14 7
0 -7 3 -7 8 0 9 12 39 31 72 46 14 6 42 20 63 30 24 12 60 19 93 19 31 0 69 7
86 16 20 10 42 14 64 9 19 -3 34 -2 34 3 0 12 146 14 205 3 54 -10 114 6 116
31 3 42 -3 107 -12 130 -10 25 -72 65 -94 60 -5 -1 -1 5 9 13 14 11 16 15 5
15 -11 0 -12 2 0 9 9 6 10 11 2 15 -6 4 -11 15 -11 25 0 10 -6 24 -14 30 -11
9 -24 2 -62 -40 -27 -28 -58 -55 -69 -61 -16 -8 -16 -6 3 9 29 24 82 103 82
124 0 32 -169 177 -184 157 -1 -1 -15 -24 -29 -50 -15 -26 -31 -50 -37 -53 -8
-5 19 76 40 115 4 9 2 20 -6 28 -12 10 -14 10 -15 -5 -1 -10 -1 -22 0 -27 2
-10 -18 -26 -33 -26 -4 0 -5 10 -2 23 15 49 14 57 -5 71 -11 7 -29 11 -40 9
-15 -4 -22 0 -26 16 -3 11 -8 19 -12 16 -4 -2 -24 10 -44 26 -26 21 -43 28
-57 24 -15 -5 -20 -2 -20 14 0 24 -53 39 -75 21 -12 -10 -15 -9 -15 10 0 13
-5 20 -12 17 -7 -2 -30 5 -51 17 -37 19 -40 20 -52 3 -17 -23 -25 -21 -25 7 0
19 -6 25 -32 29 -43 6 -47 3 -54 -44 -7 -40 -18 -57 -28 -40 -3 5 -16 7 -27 4
-16 -4 -20 -2 -17 8 2 8 14 15 25 17 25 4 39 47 23 67 -14 17 -138 31 -152 17
-6 -6 -18 -5 -36 3 -26 13 -54 19 -78 16 -6 -1 -9 -12 -6 -26 2 -15 0 -25 -7
-25 -6 0 -11 8 -11 18 0 15 -6 18 -29 14 -16 -2 -32 1 -35 7 -4 6 -16 11 -28
11 -17 0 -19 -4 -14 -27 3 -16 8 -44 11 -63 l5 -35 -11 36 c-6 20 -24 52 -40
70 -17 19 -28 29 -24 22z"/>
<path d="M2090 4825 c-10 -12 -10 -18 0 -30 6 -8 10 -22 8 -32 -3 -12 -8 -6
-17 20 -13 38 -34 49 -45 22 -3 -9 3 -37 13 -63 32 -80 33 -89 7 -41 -30 55
-56 80 -56 54 0 -14 -6 -16 -31 -13 -22 4 -33 0 -40 -14 -5 -10 -16 -18 -24
-18 -8 0 -15 -7 -15 -16 0 -12 -6 -15 -26 -10 -21 6 -32 0 -58 -29 -18 -19
-38 -35 -44 -35 -7 0 -12 -14 -12 -32 0 -30 -1 -31 -14 -13 -12 17 -16 17 -30
6 -15 -13 -15 -16 0 -38 19 -30 11 -42 -14 -20 -24 22 -39 21 -52 -3 -6 -11
-17 -20 -24 -20 -15 0 -29 -27 -21 -40 3 -4 -3 -6 -13 -3 -12 3 -27 -9 -49
-39 -17 -24 -47 -61 -66 -83 -19 -21 -43 -54 -53 -72 -15 -30 -16 -36 -3 -44
12 -8 12 -9 -1 -7 -23 4 -70 -46 -70 -75 0 -14 5 -29 10 -32 17 -11 11 -25
-11 -25 -14 0 -25 -11 -35 -36 -9 -21 -22 -44 -31 -52 -8 -8 -12 -23 -10 -33
3 -12 0 -19 -9 -19 -12 0 -12 -4 -4 -20 9 -16 8 -20 -5 -20 -18 0 -20 -21 -3
-38 9 -9 7 -12 -10 -12 -12 0 -22 -6 -22 -14 0 -7 -3 -27 -6 -44 -6 -27 -2
-32 32 -51 l39 -22 -42 7 c-48 6 -45 10 -62 -101 -6 -39 -5 -67 2 -82 8 -18 6
-27 -7 -42 -24 -27 -17 -63 14 -72 l25 -7 -22 -7 c-37 -12 -27 -34 17 -41 55
-9 58 -20 4 -15 l-44 3 0 -87 c0 -78 2 -87 20 -92 20 -5 28 -23 10 -23 -14 0
22 -172 41 -194 4 -4 40 -1 79 8 40 9 75 14 78 12 6 -7 -10 -12 -83 -27 -33
-6 -63 -16 -67 -22 -13 -20 59 -181 89 -200 7 -4 13 -14 13 -21 0 -21 25 -26
49 -10 28 20 27 9 -4 -27 -24 -30 -24 -30 -5 -49 11 -11 24 -20 28 -20 5 0 19
-11 32 -25 29 -31 70 -32 140 -5 28 11 62 20 75 20 14 0 25 5 25 10 0 6 7 10
15 10 9 0 34 16 55 36 22 20 50 44 62 52 59 41 60 64 9 165 -47 89 -71 165
-71 220 0 35 6 55 44 137 17 38 89 164 96 170 4 3 26 41 50 85 23 44 50 91 60
105 9 14 45 77 80 140 34 63 88 158 119 210 31 52 63 109 71 125 8 17 22 41
31 55 37 58 120 215 123 235 1 6 12 27 24 47 19 31 22 45 16 84 -7 49 -11 55
-61 84 -17 10 -39 34 -48 54 -9 19 -23 37 -31 40 -8 3 -14 11 -14 18 0 7 -8
29 -18 48 -11 19 -17 42 -15 50 4 13 3 13 -6 1 -8 -12 -12 -10 -21 11 -7 14
-23 31 -37 37 -35 16 -108 14 -123 -4z"/>
<path d="M3918 4826 c-15 -11 -47 -81 -47 -104 0 -4 -8 -21 -18 -39 -16 -31
-16 -33 2 -53 16 -18 20 -19 27 -5 14 23 29 18 23 -8 -4 -16 1 -29 19 -46 l25
-24 20 24 c23 29 39 19 23 -15 -14 -31 -5 -64 20 -72 24 -7 18 -13 61 72 31
61 51 84 73 84 15 0 -3 -32 -41 -75 -39 -42 -45 -55 -45 -92 0 -40 2 -43 19
-33 38 20 77 90 59 108 -11 11 -2 52 13 52 19 0 8 34 -23 74 -40 51 -166 166
-181 166 -7 0 -20 -7 -29 -14z"/>
<path d="M4216 4476 c-46 -57 -76 -64 -45 -11 29 48 11 44 -50 -11 -35 -32
-49 -50 -42 -57 7 -7 18 -5 34 6 l25 16 -11 -29 c-9 -23 -8 -36 4 -61 l15 -32
37 33 c50 44 60 30 14 -18 -77 -78 -27 -100 55 -24 28 26 49 39 45 30 -4 -12
-2 -18 7 -18 11 0 10 -7 -3 -35 -13 -31 -17 -34 -27 -20 -16 21 -26 19 -57
-13 l-27 -28 25 -14 c14 -7 25 -17 25 -22 0 -19 31 -6 47 20 23 35 33 42 63
42 22 -1 23 -2 8 -11 -10 -5 -18 -16 -18 -23 0 -15 -42 -56 -58 -56 -6 0 -14
-4 -17 -10 -7 -11 49 -2 80 13 57 28 77 89 41 128 -12 14 -26 37 -30 53 -5 21
-11 27 -26 23 -18 -5 -19 -3 -5 23 13 25 13 30 0 40 -8 7 -15 19 -15 26 0 25
-22 15 -61 -26 -21 -22 -41 -40 -43 -40 -3 0 -5 11 -4 24 1 14 7 24 13 23 5
-1 9 6 9 15 -1 10 2 16 6 13 4 -2 18 7 30 21 21 22 22 26 9 40 -14 13 -20 10
-53 -30z"/>
<path d="M2852 4318 c-79 -105 -124 -223 -122 -318 1 -85 18 -193 32 -201 21
-13 49 4 68 42 11 21 20 45 20 54 0 8 4 15 10 15 16 0 60 52 85 100 13 25 35
63 50 85 18 25 27 52 27 75 -1 54 -67 166 -114 191 -14 7 -25 -1 -56 -43z"/>
<path d="M2478 4287 c-34 -40 -139 -242 -131 -251 4 -3 -1 -6 -10 -6 -9 0 -17
-6 -17 -14 0 -8 -4 -16 -8 -18 -5 -1 -23 -29 -40 -60 l-31 -58 115 0 c63 0
113 -4 110 -9 -3 -4 -57 -6 -121 -3 -91 4 -115 2 -115 -8 0 -8 -6 -21 -14 -29
-13 -15 -82 -131 -144 -241 -13 -25 -28 -49 -32 -55 -19 -26 -61 -108 -63
-126 -2 -10 -11 -25 -20 -32 -24 -17 -128 -207 -130 -236 -3 -33 21 -39 151
-40 103 -1 104 -1 132 29 23 24 46 65 78 133 2 4 -29 7 -70 8 -89 1 -65 17 28
18 l61 1 28 51 c44 81 55 89 130 89 78 0 109 13 137 57 22 37 18 48 -22 56
-14 3 -4 5 21 4 50 -1 69 7 69 28 0 7 12 15 28 17 21 2 28 9 30 29 5 40 -27
60 -103 67 -40 3 -69 10 -72 17 -5 14 30 89 54 117 8 9 16 30 17 47 2 27 -1
31 -23 32 -17 1 -12 4 14 8 37 5 40 9 43 39 2 18 -1 39 -7 46 -7 8 -5 15 9 23
11 8 16 19 13 31 -2 10 4 35 15 54 18 31 19 45 12 101 -8 70 -20 99 -41 103
-8 2 -23 5 -34 8 -14 4 -28 -4 -47 -27z"/>
<path d="M996 4188 c-9 -12 -16 -37 -16 -55 0 -17 -4 -34 -8 -37 -4 -2 -9 -18
-10 -35 -2 -24 3 -33 25 -45 28 -16 28 -16 -14 -10 -45 7 -58 -6 -25 -25 11
-7 13 -10 3 -11 -23 0 8 -30 33 -30 11 -1 37 -10 56 -21 36 -21 34 -21 -35 0
-96 30 -93 30 -101 12 -3 -9 -8 -26 -9 -38 -2 -12 -10 -44 -18 -70 -18 -57
-30 -183 -20 -199 5 -6 16 -15 27 -21 17 -9 16 -11 -8 -17 -15 -4 -26 -12 -25
-19 1 -7 -2 -20 -6 -31 -5 -11 -4 -26 3 -37 7 -11 8 -20 2 -24 -24 -15 -6
-135 22 -142 21 -6 25 -23 4 -23 -31 0 -37 -25 -25 -95 9 -52 16 -68 33 -75
l21 -9 -22 -7 c-24 -7 -30 -19 -13 -29 6 -3 10 -15 10 -25 0 -10 7 -23 15 -27
18 -11 25 -59 8 -56 -14 3 -15 -3 -4 -32 6 -16 16 -19 57 -17 36 1 44 -1 29
-8 -11 -5 -32 -9 -47 -9 -25 -1 -26 -3 -21 -38 4 -21 19 -67 34 -103 49 -118
51 -120 87 -120 17 0 32 -4 32 -9 0 -12 -29 -23 -41 -15 -20 12 -7 -31 24 -82
17 -29 44 -58 59 -64 14 -7 32 -25 38 -40 7 -16 18 -31 27 -34 8 -3 11 -10 8
-16 -16 -26 18 -5 59 37 47 47 53 58 37 67 -5 3 -7 15 -4 25 3 11 -8 46 -25
78 -16 32 -29 61 -30 66 -1 12 -33 96 -57 152 -12 28 -28 79 -34 115 -15 77
-19 84 -36 70 -8 -7 -20 -7 -36 -1 l-24 10 22 7 c26 7 37 34 29 72 -3 15 -8
69 -10 120 -2 51 -9 98 -15 106 -8 10 -8 21 -1 40 14 37 13 76 -2 76 -9 0 -9
3 0 12 19 19 15 97 -4 105 -14 5 -14 8 5 22 22 17 28 42 47 196 4 28 10 58 15
67 14 27 11 37 -15 44 l-24 6 22 22 c11 12 28 25 37 29 19 6 58 122 51 151 -5
18 -101 86 -122 86 -6 0 -21 7 -34 16 -23 14 -25 14 -40 -8z"/>
<path d="M3828 3983 c-21 -5 -23 -39 -6 -80 6 -15 12 -31 12 -35 1 -5 6 -7 11
-5 6 1 13 -23 17 -53 4 -30 10 -78 13 -106 5 -34 4 -54 -4 -58 -6 -4 -11 -16
-11 -26 0 -10 -3 -20 -7 -22 -5 -1 -28 -43 -53 -92 -25 -50 -55 -104 -67 -122
-12 -18 -34 -60 -49 -93 -16 -34 -34 -61 -41 -61 -7 0 -22 -20 -33 -45 -11
-25 -34 -69 -52 -97 -39 -67 -84 -149 -116 -213 -14 -27 -28 -52 -31 -55 -4
-3 -25 -36 -47 -75 -238 -406 -259 -436 -327 -456 -18 -5 -71 -9 -118 -9 -148
0 -205 34 -303 180 -96 143 -98 166 -21 319 30 60 55 113 55 116 0 4 12 22 26
41 21 27 24 37 14 49 -6 8 -9 18 -6 23 8 13 -49 19 -127 12 -51 -4 -72 -11
-91 -29 -14 -13 -23 -27 -21 -31 3 -4 -3 -14 -11 -21 -9 -8 -27 -30 -39 -49
-32 -51 -84 -99 -135 -125 -48 -24 -160 -55 -201 -55 -13 0 -52 -13 -86 -29
-34 -16 -65 -26 -69 -23 -4 4 -4 1 0 -5 4 -8 -2 -17 -18 -25 -14 -6 -26 -14
-26 -18 0 -4 -16 -11 -35 -14 -19 -4 -38 -12 -42 -19 -10 -16 -63 -50 -63 -40
0 4 -7 -3 -16 -15 -8 -12 -20 -22 -25 -22 -5 0 -28 -18 -50 -40 -35 -34 -40
-45 -34 -68 4 -15 7 -27 8 -27 1 0 11 -5 22 -11 14 -8 19 -20 17 -38 -2 -22 1
-26 24 -26 21 0 25 -4 21 -19 -2 -11 4 -34 14 -51 21 -34 23 -37 67 -90 37
-45 134 -242 158 -320 l18 -60 23 22 c32 30 38 18 13 -25 -14 -24 -17 -37 -10
-42 8 -5 8 -11 1 -19 -17 -20 8 -134 28 -132 12 1 15 -6 13 -27 -2 -16 2 -34
8 -42 7 -9 6 -16 -5 -25 -8 -7 -15 -9 -16 -4 0 5 -4 0 -8 -10 -9 -24 -2 -68
10 -60 5 3 9 -7 9 -21 0 -15 4 -24 10 -20 6 4 8 10 5 15 -3 5 4 14 15 20 17 9
20 8 20 -9 0 -11 -11 -32 -25 -47 -14 -15 -29 -43 -34 -63 -44 -183 -48 -221
-17 -164 12 23 15 24 15 8 0 -11 -7 -38 -15 -60 -52 -138 -64 -182 -64 -239 1
-62 13 -91 40 -95 8 0 185 -3 392 -5 320 -4 377 -2 382 10 3 8 6 134 6 281 1
277 0 282 -41 283 -10 0 -19 -11 -22 -30 -7 -31 -27 -42 -27 -14 0 26 -70 102
-101 108 -21 4 -29 11 -29 26 0 13 -7 20 -19 20 -18 0 -64 45 -107 104 -21 29
-22 29 -28 8 -12 -37 -21 -25 -18 22 3 33 -3 57 -27 104 -17 34 -31 69 -31 79
0 13 -3 14 -8 6 -12 -19 -2 118 11 152 6 17 22 44 35 62 24 32 24 32 109 30
95 -2 84 5 178 -117 78 -102 105 -122 105 -78 0 37 10 14 14 -33 l3 -44 114
-33 c180 -53 340 -101 504 -152 130 -40 183 -48 190 -27 8 19 44 10 66 -17 13
-15 32 -21 84 -24 62 -4 67 -3 61 14 -3 11 -8 37 -11 59 l-5 40 21 -45 c11
-24 28 -52 38 -62 29 -26 121 -21 121 8 0 10 13 14 45 14 55 0 95 17 95 41 0
12 5 16 15 13 33 -13 11 33 -64 138 l-24 33 39 -35 c21 -20 49 -44 62 -55 l23
-19 -10 28 c-16 41 -13 51 9 31 11 -10 23 -15 27 -12 8 9 -25 93 -43 107 -7 7
-14 17 -14 23 0 6 10 1 23 -10 33 -30 51 -38 45 -22 -3 8 1 21 8 30 12 13 12
22 -1 59 -18 52 -19 55 -1 41 12 -10 16 -8 21 10 6 19 -2 31 -51 75 -66 59
-65 73 1 19 37 -30 45 -33 55 -20 7 8 9 15 5 15 -4 0 -2 6 4 14 9 11 4 23 -24
56 -49 59 -46 62 17 16 37 -26 47 -13 20 24 -27 36 -28 43 -2 35 17 -5 20 -2
20 27 0 18 5 51 10 73 32 130 32 135 0 166 -38 37 -38 44 1 23 25 -13 33 -13
40 -3 4 8 1 18 -9 25 -9 7 -14 16 -10 20 4 4 14 1 22 -5 12 -10 20 -9 40 6
l24 18 -32 27 c-36 31 -24 35 48 17 44 -11 63 -6 173 49 51 26 67 83 38 139
-7 15 -23 49 -35 75 -16 36 -28 48 -51 53 -37 8 -38 25 -1 25 24 1 25 2 10 14
-10 7 -18 20 -18 29 0 16 -12 47 -55 142 -17 38 -28 51 -46 52 -13 1 -26 -3
-30 -8 -4 -7 -9 -4 -12 5 -5 13 1 16 26 16 25 1 29 3 15 10 -9 6 -14 18 -11
28 4 18 -16 77 -64 185 -22 49 -28 55 -41 45 -13 -11 -15 -10 -10 4 8 19 -9
28 -60 29 l-37 1 35 8 c19 5 42 4 52 -1 26 -14 28 -12 24 34 -3 37 -7 43 -32
47 l-29 6 33 11 c41 15 45 50 5 55 -38 4 -39 23 -1 34 32 9 32 10 30 64 -2 30
-8 73 -14 95 -11 40 -11 40 -57 37 -34 -2 -42 0 -31 7 8 6 23 11 33 11 25 0
21 22 -13 65 -57 71 -110 88 -185 59 -17 -6 -18 -5 -8 7 7 8 11 25 10 37 -1
20 -7 22 -57 22 -30 0 -64 2 -75 4 -11 2 -28 2 -37 -1z"/>
<path d="M4460 3976 c-8 -8 -30 -17 -48 -19 -19 -3 -35 -7 -36 -9 -43 -59 -52
-108 -20 -108 15 0 19 -22 7 -34 -8 -8 -7 -144 3 -313 6 -102 7 -103 32 -103
23 0 24 -1 9 -12 -16 -12 -16 -18 -3 -66 7 -29 18 -58 24 -64 5 -5 56 -14 112
-18 147 -12 154 -30 11 -30 l-112 0 15 -22 c9 -12 16 -31 16 -42 0 -10 18 -56
40 -102 22 -46 40 -86 40 -89 0 -2 23 -53 51 -112 94 -200 106 -266 59 -326
-24 -30 -177 -107 -212 -107 -8 0 -24 -9 -36 -20 -12 -11 -26 -20 -31 -20 -17
0 -31 -68 -39 -180 -5 -70 -11 -104 -19 -103 -18 4 -22 -23 -8 -51 12 -22 12
-26 -1 -26 -17 0 -19 -37 -2 -42 8 -3 9 -11 3 -24 -11 -24 -13 -74 -3 -68 4 3
12 -5 17 -18 11 -30 105 -118 126 -118 19 0 20 19 0 26 -8 4 -15 10 -15 16 0
5 5 6 10 3 6 -3 10 -4 10 -2 0 3 -20 17 -45 31 -60 36 -57 41 7 11 60 -28 71
-25 39 9 l-22 23 24 -4 c19 -4 27 0 32 16 3 11 3 25 0 31 -3 5 -1 10 5 10 8 0
10 9 6 25 -4 14 -2 25 4 25 5 0 10 9 10 19 0 20 -32 46 -85 71 -24 11 -26 14
-12 18 10 2 24 -1 30 -7 7 -5 31 -13 53 -17 41 -6 41 -6 37 23 -3 16 0 48 6
71 18 64 69 99 205 137 61 17 133 61 160 98 18 25 21 42 20 135 -1 116 -5 132
-91 352 -50 128 -55 139 -112 263 -23 49 -41 92 -41 98 0 5 -4 9 -10 9 -5 0
-10 8 -10 18 0 34 -18 45 -80 53 -69 8 -78 13 -61 32 22 28 -21 87 -64 87 -14
0 -25 5 -25 10 0 6 15 10 34 10 19 0 41 3 50 6 19 7 21 30 4 37 -8 3 -6 6 5 6
13 1 17 10 17 46 0 26 7 59 15 76 13 24 15 48 9 117 -4 48 -12 105 -19 127 -7
22 -16 56 -20 75 -8 37 -31 70 -49 70 -7 0 -18 -6 -26 -14z"/>
<path d="M3568 3917 c-51 -22 -65 -41 -46 -64 10 -12 9 -18 -5 -28 -16 -11
-15 -15 3 -52 l19 -41 80 -7 c71 -6 110 -4 163 11 14 4 16 12 11 37 -3 18 -10
34 -15 35 -4 2 -8 10 -8 18 0 8 -4 14 -10 14 -5 0 -10 6 -10 14 0 8 -7 16 -15
20 -8 3 -15 12 -15 20 0 16 -59 47 -87 45 -10 -1 -39 -10 -65 -22z"/>
<path d="M3305 3811 c-4 -7 7 -11 30 -11 54 0 39 -25 -16 -26 -61 -1 -65 -2
-51 -16 20 -20 14 -35 -18 -48 -37 -16 -43 -24 -32 -47 5 -10 22 -46 37 -80
37 -81 68 -117 94 -108 12 3 21 10 21 15 0 5 2 15 6 23 3 10 -5 17 -28 23 -33
8 -33 8 15 12 26 1 47 7 47 12 0 8 -27 20 -56 24 -16 2 -32 16 -18 16 5 0 26
-4 47 -9 35 -8 39 -7 61 22 13 18 31 46 40 64 15 30 15 35 -1 67 -11 22 -26
36 -38 37 -11 0 -15 3 -8 5 7 3 10 11 7 17 -6 16 -130 22 -139 8z"/>
<path d="M3539 3668 c-25 -21 -83 -108 -125 -188 -62 -118 -40 -111 -318 -110
-280 1 -445 -6 -462 -21 -6 -5 -17 -23 -24 -39 -7 -16 -20 -32 -29 -35 -10 -3
-24 -21 -31 -40 -9 -24 -16 -31 -22 -23 -6 10 -8 9 -8 -2 0 -8 9 -21 21 -28
14 -9 18 -19 14 -32 -8 -26 -2 -28 139 -39 124 -10 141 -17 130 -56 -12 -42
-83 -177 -120 -230 -12 -17 -40 -68 -63 -115 l-42 -85 21 -58 c21 -57 92 -157
110 -157 6 0 24 21 39 48 16 26 38 58 49 72 10 14 29 43 41 65 12 22 33 59 47
83 26 44 25 44 -21 56 -11 2 -2 4 19 3 33 -2 42 2 55 25 9 15 50 86 91 158 90
158 116 192 125 169 4 -10 -13 -47 -43 -96 -27 -44 -64 -109 -83 -144 -18 -35
-50 -89 -70 -119 -20 -31 -53 -86 -72 -124 -20 -38 -43 -76 -52 -86 -8 -9 -29
-45 -46 -80 l-31 -64 23 -17 c17 -13 45 -17 125 -18 l103 -1 33 34 c41 41 58
63 58 73 0 5 11 25 25 45 14 20 25 44 25 52 0 9 4 16 9 16 5 0 11 10 15 23 3
12 23 49 44 82 45 71 103 170 120 205 7 14 26 45 42 70 16 25 41 68 56 95 35
68 55 104 82 146 12 20 22 42 22 48 0 7 18 36 40 65 22 29 40 58 40 64 0 6
-24 13 -57 15 l-58 3 61 2 62 2 33 51 c18 28 32 57 32 65 0 8 3 12 5 9 7 -7
32 31 37 56 3 12 11 29 20 39 23 26 19 67 -7 74 -43 11 -213 7 -229 -6z"/>
<path d="M2866 3643 c-85 -4 -120 -20 -130 -58 -4 -14 -26 -35 -54 -53 -44
-27 -48 -33 -45 -59 l5 -30 105 -6 c63 -4 114 -2 125 4 12 7 25 6 40 -2 14 -7
41 -9 77 -4 69 8 70 8 157 0 82 -9 124 -2 124 21 0 19 -67 142 -94 172 -20 23
-25 24 -106 17 -47 -4 -96 -9 -109 -12 -17 -4 -22 -2 -17 6 4 6 6 10 4 9 -2
-1 -38 -4 -82 -5z"/>
<path d="M2256 3288 c-15 -29 -47 -84 -71 -123 -25 -38 -45 -75 -45 -81 0 -17
28 -69 47 -86 32 -28 85 -12 82 25 -6 63 0 77 29 77 16 0 37 9 47 20 18 20 17
20 -8 20 -36 0 -43 18 -13 31 14 7 23 16 19 22 -3 5 1 13 8 18 11 7 8 20 -16
66 -17 31 -36 58 -42 60 -5 2 -22 -20 -37 -49z"/>
<path d="M1827 3053 c-14 -13 -6 -49 18 -85 14 -20 25 -42 25 -47 0 -18 10
-13 64 34 70 59 83 57 23 -3 -33 -34 -46 -54 -41 -65 8 -21 17 -21 126 -1 72
13 90 20 103 40 15 24 14 28 -15 79 l-31 55 -85 0 c-78 0 -84 -1 -84 -21 0
-12 -4 -17 -11 -14 -6 4 -8 13 -5 21 4 11 -5 14 -38 14 -23 0 -46 -3 -49 -7z"/>
<path d="M1345 2322 c1 -2 -8 -14 -21 -27 -13 -13 -24 -32 -24 -42 1 -62 72
-163 115 -163 12 0 32 11 45 25 23 25 40 25 40 0 0 -7 -13 -16 -30 -20 -16 -4
-33 -11 -36 -17 -4 -7 -2 -8 4 -4 8 5 12 -2 12 -21 0 -31 45 -123 66 -136 24
-14 76 -123 106 -222 24 -81 31 -124 35 -225 2 -69 6 -135 9 -148 l5 -23 45
32 c43 29 45 30 34 8 -7 -13 -22 -34 -33 -46 -26 -29 -8 -30 27 -2 24 19 53
18 41 -2 -4 -5 3 -9 15 -9 l20 0 -20 -40 c-25 -49 -25 -60 -2 -34 20 21 25 31
58 124 25 68 32 154 13 166 -6 3 -8 17 -5 31 6 23 6 23 -18 8 -35 -23 -41 -2
-6 24 31 23 42 55 15 45 -18 -7 -19 9 -3 35 12 19 1 90 -24 166 -24 69 -92
196 -104 191 -7 -3 -10 2 -8 12 2 9 -18 47 -46 85 -36 49 -56 67 -73 67 -17 0
-28 10 -41 40 -10 22 -24 40 -31 40 -8 0 -32 18 -54 39 -32 31 -48 40 -84 42
-25 2 -44 3 -42 1z"/>
<path d="M2405 1872 c-6 -4 -12 -46 -13 -94 -3 -78 0 -93 27 -150 50 -107 188
-238 251 -238 10 0 23 -7 30 -15 7 -9 15 -14 17 -11 3 2 20 -2 38 -10 45 -18
69 -18 62 1 -4 8 -2 17 3 20 6 4 10 -8 10 -26 0 -31 1 -31 38 -25 20 3 52 6
70 6 22 0 32 5 32 16 0 8 5 12 11 8 6 -3 9 -17 6 -31 -5 -30 17 -43 72 -43 31
0 41 -4 46 -20 3 -11 18 -23 33 -26 68 -16 174 -77 234 -135 34 -33 63 -66 63
-72 0 -7 5 -21 11 -32 40 -72 44 -283 6 -334 -27 -37 -76 -52 -149 -46 -44 4
-63 2 -63 -6 0 -8 -4 -8 -15 1 -11 9 -68 11 -230 6 -118 -3 -220 -8 -225 -11
-6 -3 -15 -3 -21 1 -7 4 -86 9 -177 11 -130 4 -167 2 -173 -9 -7 -10 -12 -11
-28 -1 -15 10 -68 11 -208 7 -207 -5 -312 1 -340 21 -16 12 -18 31 -19 142 -3
181 -1 173 -23 147 -16 -21 -18 -21 -29 -4 -6 10 -8 28 -5 41 5 23 5 24 -10 4
-8 -11 -18 -17 -22 -13 -6 6 12 89 34 160 l9 27 -39 -31 c-25 -20 -45 -29 -59
-25 -11 3 -22 1 -25 -3 -11 -18 -45 -193 -49 -255 -2 -22 -10 -65 -19 -95 -46
-165 -57 -253 -36 -292 6 -11 27 -27 47 -36 33 -15 131 -17 987 -18 523 -2
979 1 1014 6 48 7 71 15 89 34 26 25 26 26 72 306 51 312 61 334 155 343 28 3
52 6 55 7 3 1 14 1 24 0 35 -4 200 33 241 53 50 25 110 72 150 116 49 56 72
131 41 131 -14 0 -49 40 -42 47 2 2 19 -6 39 -17 27 -16 35 -18 33 -7 -1 8 -7
21 -14 29 -9 11 -9 19 2 33 23 32 6 64 -72 131 -86 73 -105 79 -101 31 2 -18
-1 -38 -5 -46 -5 -8 0 -24 14 -43 l22 -30 -25 17 c-24 15 -25 15 -31 -8 -4
-19 4 -34 39 -73 25 -27 45 -52 45 -56 0 -5 -12 -8 -27 -8 -14 0 -23 -3 -20
-7 4 -3 2 -12 -3 -18 -7 -9 -6 -16 5 -25 19 -16 19 -30 0 -30 -8 0 -15 5 -15
11 0 6 -6 9 -14 6 -7 -3 -28 10 -47 29 -32 33 -64 49 -39 19 10 -12 10 -18 0
-30 -11 -13 -9 -21 8 -45 12 -16 22 -36 22 -44 0 -21 -21 -31 -31 -15 -13 20
-11 31 4 23 7 -4 9 -3 4 2 -5 5 -13 9 -17 9 -5 0 -16 9 -24 20 -11 14 -15 16
-16 6 0 -10 -10 -6 -29 13 -43 41 -46 12 -5 -70 18 -38 34 -70 34 -72 0 -1 -9
2 -20 8 -11 6 -20 16 -20 23 0 7 -13 34 -30 60 -20 32 -36 47 -51 47 -18 0
-21 -5 -17 -30 4 -24 2 -27 -9 -19 -10 9 -13 8 -13 -2 0 -7 -10 -3 -25 11 -14
14 -36 25 -48 25 -13 1 -29 5 -37 10 -10 6 -12 1 -6 -26 l6 -33 -31 32 c-71
72 -63 10 10 -82 17 -21 31 -46 31 -55 -1 -9 -7 -4 -17 14 -9 17 -33 48 -53
71 -21 23 -41 51 -45 63 -3 11 -12 21 -18 21 -7 0 -24 6 -38 14 -14 7 -50 20
-80 29 -102 31 -234 68 -329 93 -52 13 -108 29 -125 34 -16 5 -84 27 -150 48
-66 22 -141 45 -168 52 -26 7 -50 17 -53 21 -3 5 -16 9 -29 9 -13 0 -27 5 -30
10 -4 6 -16 8 -26 5 -25 -8 -51 12 -44 35 3 10 -8 32 -28 56 -18 21 -44 57
-57 79 -39 66 -70 95 -104 95 -17 0 -36 -4 -41 -8z"/>
<path d="M4279 1808 c-3 -30 5 -46 49 -92 30 -31 36 -41 17 -27 -17 13 -31 18
-33 12 -2 -6 -8 -9 -13 -5 -5 3 -9 -2 -9 -10 0 -8 28 -35 63 -60 53 -38 63
-42 68 -28 4 10 -1 25 -10 36 -16 18 -15 18 21 3 l37 -16 -3 29 c-2 20 -22 46
-66 87 -82 76 -119 98 -121 71z"/>
<path d="M2760 1128 c0 -73 -3 -197 -7 -275 l-6 -143 281 0 c154 0 292 4 306
10 14 5 30 19 37 32 15 28 13 153 -4 182 -6 12 -12 23 -12 26 -8 47 -38 70
-93 70 -25 1 -25 2 -10 14 17 12 17 14 0 29 -15 14 -79 45 -154 75 -24 10 -28
9 -34 -10 -5 -16 -8 -18 -15 -7 -12 19 -11 6 1 -25 6 -17 6 -26 -1 -26 -5 0
-12 7 -15 15 -12 31 -19 13 -16 -40 3 -35 0 -55 -7 -55 -6 0 -11 -13 -11 -30
0 -30 -13 -40 -26 -19 -4 8 -9 7 -16 -2 -7 -11 -11 -11 -15 -1 -2 6 -11 12
-19 12 -8 0 -15 8 -15 18 -1 9 -4 1 -8 -18 -5 -32 -9 -35 -38 -34 -21 1 -33
-4 -33 -13 0 -7 -9 -13 -21 -13 -15 0 -19 4 -15 16 3 9 6 33 6 55 0 40 15 53
23 22 11 -41 6 80 -5 126 -9 39 -9 54 0 63 14 14 32 -28 32 -76 0 -19 9 -43
20 -56 l20 -23 0 45 c0 24 3 48 7 52 11 11 3 80 -10 88 -21 13 -26 -3 -11 -37
19 -46 19 -61 -1 -45 -8 7 -15 24 -15 39 0 14 -4 32 -8 39 -7 10 -78 52 -89
52 -2 0 -3 -60 -3 -132z"/>
</g>
</svg>
