<?xml version="1.0" standalone="no"?>
<!DOCTYPE svg PUBLIC "-//W3C//DTD SVG 20010904//EN"
 "http://www.w3.org/TR/2001/REC-SVG-20010904/DTD/svg10.dtd">
<svg version="1.0" xmlns="http://www.w3.org/2000/svg"
 width="544.000000pt" height="544.000000pt" viewBox="0 0 544.000000 544.000000"
 preserveAspectRatio="xMidYMid meet">
<metadata>
Created by potrace 1.16, written by Peter Selinger 2001-2019
</metadata>
<g transform="translate(0.000000,544.000000) scale(0.100000,-0.100000)"
fill="#000000" stroke="none">
<path d="M48 5408 c28 -18 52 -36 52 -41 0 -8 -39 12 -77 39 -23 16 -23 16
-23 -23 0 -33 4 -42 26 -52 15 -6 24 -15 20 -18 -3 -4 -12 -1 -18 5 -7 7 -16
12 -20 12 -4 0 -8 -885 -8 -1966 l0 -1965 30 21 c17 12 28 26 25 31 -4 5 1 9
9 9 9 0 16 4 16 9 0 5 38 48 85 95 82 82 88 86 130 86 43 0 102 17 155 45 14
7 41 16 60 20 19 4 46 14 60 23 14 9 31 17 39 18 7 2 18 7 24 13 6 6 29 11 52
11 33 0 48 7 76 32 48 45 83 143 82 227 -2 96 5 108 142 251 53 55 51 99 -12
230 -123 258 -182 467 -208 740 -15 157 -1 410 30 545 3 11 7 34 11 50 3 17
26 95 52 175 44 138 150 368 192 415 10 11 25 35 35 54 59 116 273 344 440
469 39 29 75 57 82 62 7 6 15 10 19 10 17 0 49 37 46 53 -3 15 1 18 20 16 21
-3 234 85 248 102 6 6 27 16 89 39 54 19 77 48 96 123 8 32 15 60 15 62 0 3
-211 5 -468 5 l-469 0 5 -32 c5 -30 3 -32 -12 -19 -9 7 -16 22 -16 32 0 18
-20 19 -592 19 l-593 0 53 -32z"/>
<path d="M2280 5431 c0 -5 16 -26 35 -47 l35 -37 90 7 c50 3 132 9 183 12 50
4 95 12 99 17 4 7 11 7 20 0 7 -6 60 -14 118 -18 237 -16 498 -83 716 -186 23
-10 48 -19 57 -19 9 0 20 -6 24 -13 4 -7 60 -44 123 -82 63 -37 126 -78 140
-91 14 -12 61 -54 105 -92 96 -83 167 -152 217 -209 41 -49 51 -51 93 -23 17
11 36 20 43 20 25 0 11 -20 -27 -40 -47 -23 -46 -42 4 -105 17 -22 45 -63 63
-90 17 -28 45 -63 61 -79 30 -29 31 -29 160 -30 121 -1 130 0 133 18 2 11 9
21 17 24 10 3 12 -2 8 -19 -6 -24 -5 -24 76 -27 45 -2 84 -7 85 -13 5 -12 59
-12 67 1 3 6 21 10 38 10 36 0 75 38 130 125 27 43 54 81 102 143 6 7 19 22
30 34 11 11 15 18 9 15 -6 -4 -2 13 9 37 12 28 34 52 58 67 l38 24 1 338 0
337 -84 0 c-47 0 -88 -5 -91 -10 -3 -6 -25 -19 -48 -30 -35 -16 -38 -17 -21
-2 12 9 30 22 40 29 15 9 -314 12 -1468 12 -910 1 -1488 -3 -1488 -8z"/>
<path d="M2518 5275 c-125 -22 -121 -20 -114 -74 15 -116 21 -135 44 -147 17
-8 35 -9 65 -1 23 5 112 9 197 8 215 -3 397 -33 575 -95 25 -9 46 -11 56 -5
19 10 29 3 29 -23 0 -10 6 -18 14 -18 37 0 260 -132 385 -229 133 -102 218
-190 325 -336 17 -22 32 -42 35 -45 4 -3 26 -31 51 -64 65 -86 103 -104 186
-91 27 5 32 10 38 44 4 25 0 54 -12 87 -16 45 -77 150 -112 195 -8 10 -37 49
-65 86 -49 67 -242 267 -300 311 -55 42 -220 149 -275 179 -30 17 -76 42 -102
57 -26 15 -57 28 -70 29 -13 2 -37 10 -54 19 -72 39 -212 77 -383 103 -139 22
-418 27 -513 10z"/>
<path d="M2030 5150 c-8 -5 -23 -10 -34 -10 -27 0 -133 -48 -196 -90 -31 -20
-64 -39 -73 -43 -10 -4 -45 -26 -79 -49 -33 -24 -71 -50 -83 -58 -43 -29 -161
-136 -240 -220 -75 -79 -175 -215 -175 -238 0 -5 -7 -15 -15 -22 -8 -7 -15
-23 -15 -36 0 -13 -6 -24 -12 -24 -7 0 -22 -15 -34 -33 -25 -38 -95 -164 -95
-172 0 -2 -7 -22 -16 -42 -40 -98 -100 -350 -114 -481 -15 -144 -6 -448 16
-547 8 -38 17 -79 18 -90 11 -59 80 -263 107 -313 5 -10 23 -46 40 -82 18 -36
44 -78 58 -93 l26 -28 10 23 9 23 4 -22 c4 -19 11 -23 38 -23 19 0 37 5 40 10
3 6 14 10 25 10 19 0 30 19 30 51 0 21 -13 55 -81 215 -21 49 -48 133 -59 185
-11 52 -27 123 -36 159 -9 36 -18 99 -21 140 -3 41 -10 80 -15 87 -5 7 -7 17
-3 23 4 6 -1 17 -11 24 -18 14 -12 36 10 36 10 0 15 30 20 111 12 184 46 343
107 496 17 40 27 78 24 83 -3 5 4 14 16 20 11 7 30 30 41 53 30 66 83 157 109
190 115 144 245 275 329 332 24 17 52 38 62 47 9 9 34 26 56 37 21 11 43 31
50 45 6 15 17 23 25 20 22 -8 102 33 117 60 10 20 18 24 36 20 17 -4 26 -1 30
10 3 9 12 16 18 16 18 0 66 99 66 136 0 25 -6 33 -35 47 -40 19 -73 21 -95 7z"/>
<path d="M2780 4965 c-8 -2 -41 -7 -74 -10 l-58 -7 6 -41 c8 -46 -3 -43 -20 6
-9 27 -15 31 -39 29 -47 -6 -132 -48 -145 -72 -6 -12 -9 -32 -6 -43 3 -12 68
-86 143 -164 131 -133 141 -142 198 -158 33 -10 75 -27 94 -38 40 -24 121 -99
121 -112 0 -5 9 -18 19 -29 21 -23 55 -77 72 -116 6 -14 14 -32 19 -40 6 -14
77 -41 140 -54 35 -8 59 -26 43 -33 -7 -2 -13 -9 -13 -15 0 -24 128 11 230 64
30 15 64 28 75 28 22 1 152 44 162 54 8 8 111 7 196 -3 47 -5 71 -4 77 4 14
17 -8 72 -57 138 -24 31 -43 60 -43 63 0 3 -7 13 -16 22 -15 15 -19 14 -44
-14 -59 -64 -80 -75 -32 -16 l52 64 -47 42 c-99 89 -111 97 -109 78 0 -9 -6
-17 -14 -17 -10 0 -14 8 -12 28 5 37 -12 34 -44 -8 -33 -44 -42 -39 -15 6 25
40 27 69 6 69 -9 0 -18 7 -21 15 -4 8 -13 15 -21 15 -8 0 -35 14 -60 30 -24
17 -48 30 -52 30 -5 0 -14 7 -21 15 -7 8 -16 12 -21 9 -5 -3 -9 0 -9 6 0 15
-85 50 -121 50 -17 0 -29 5 -29 13 0 7 -19 18 -42 24 -42 11 -68 8 -68 -8 0
-5 -4 -9 -10 -9 -5 0 -10 11 -10 24 0 19 -6 25 -32 29 -36 6 -57 -12 -59 -47
0 -12 -5 -30 -10 -41 -7 -14 -8 -3 -5 37 3 32 0 60 -5 63 -10 7 -104 24 -164
30 -22 3 -51 7 -65 9 -14 2 -32 2 -40 1z"/>
<path d="M2044 4801 c-10 -12 -26 -21 -36 -21 -10 0 -18 -9 -20 -22 -2 -19 -9
-23 -38 -23 -35 0 -105 -35 -127 -65 -6 -8 -15 -15 -20 -15 -30 0 -213 -168
-213 -196 0 -9 -6 -16 -14 -15 -8 0 -37 -26 -65 -59 -28 -33 -59 -69 -69 -81
-22 -26 -42 -61 -42 -73 0 -5 8 -12 18 -14 10 -2 8 -3 -5 -2 -14 1 -26 -7 -34
-24 -7 -14 -22 -39 -33 -55 -18 -27 -18 -30 -3 -41 24 -18 21 -26 -6 -16 -22
9 -26 4 -50 -49 -15 -32 -27 -65 -27 -74 0 -9 -4 -16 -9 -16 -17 0 -20 -54 -4
-72 15 -17 14 -18 -6 -18 -14 0 -25 -9 -31 -26 -18 -45 -12 -63 28 -84 l37
-20 -41 6 c-23 3 -44 2 -47 -3 -13 -20 -36 -255 -30 -298 5 -37 10 -45 27 -46
11 0 30 -5 41 -10 15 -7 10 -8 -22 -6 l-43 3 0 -68 c0 -36 4 -78 10 -92 9 -25
13 -26 87 -27 86 -1 81 -7 -12 -11 l-60 -3 2 -35 c2 -37 32 -149 43 -163 4 -5
42 -2 84 6 42 8 76 11 76 6 0 -5 -1 -9 -2 -9 -2 -1 -21 -3 -43 -6 -22 -4 -56
-11 -75 -18 -40 -13 -42 -32 -11 -101 11 -22 28 -61 40 -87 24 -54 82 -123
122 -144 34 -17 124 -18 146 -1 8 6 27 24 42 38 14 14 34 28 44 32 16 6 12 12
-25 40 -24 18 -59 42 -79 54 -38 24 -78 63 -63 63 60 -2 174 -65 223 -124 14
-16 47 -21 75 -10 18 7 20 33 7 78 -25 81 -28 105 -18 115 7 7 6 16 -6 29 -23
26 -37 139 -26 214 5 35 9 67 9 71 0 5 5 5 12 1 8 -5 9 -2 5 10 -4 11 1 29 14
48 l21 29 -22 24 c-27 28 -44 114 -30 151 12 30 36 31 102 2 l51 -22 28 35
c16 19 29 38 29 43 0 5 -27 6 -60 3 -39 -4 -59 -3 -55 3 4 6 -3 22 -15 37 -13
16 -17 29 -11 31 15 5 14 25 -4 58 -21 42 -19 67 11 93 l25 22 -25 20 c-33 26
-33 45 2 57 15 6 40 22 55 37 25 24 34 26 88 23 l61 -4 -4 55 c-2 45 0 56 12
56 16 0 80 61 80 77 0 6 26 9 63 7 94 -4 108 3 150 79 21 37 48 86 62 109 30
51 44 158 25 192 -9 17 -15 20 -23 12 -13 -13 -47 -14 -67 -1 -11 7 -4 11 28
16 23 4 42 9 42 13 -1 22 -49 86 -67 89 -35 5 -96 67 -128 128 -16 33 -29 60
-30 61 0 0 -26 4 -57 8 -50 6 -58 5 -74 -14z"/>
<path d="M5403 4572 c-13 -15 -23 -31 -23 -36 0 -4 -24 -33 -54 -63 -29 -30
-66 -80 -81 -111 -15 -31 -31 -59 -34 -62 -3 -3 -13 -18 -21 -35 -28 -57 -49
-65 -215 -89 -102 -14 -153 -15 -173 -2 -6 4 -40 9 -75 13 -61 5 -65 4 -90
-22 -38 -42 -41 -67 -18 -215 11 -74 27 -193 36 -265 8 -71 19 -164 24 -205
10 -86 99 -320 120 -318 25 2 34 -3 24 -13 -13 -13 -14 -12 40 -148 22 -56 47
-105 54 -108 7 -3 13 -17 13 -31 0 -29 39 -133 54 -143 5 -4 10 -17 12 -30 2
-13 8 -54 14 -91 14 -84 0 -200 -34 -274 -13 -29 -22 -55 -19 -57 2 -3 -15 -8
-39 -12 -24 -4 -70 -22 -103 -39 -33 -18 -80 -38 -105 -45 -25 -7 -53 -23 -62
-36 -20 -26 -37 -110 -68 -325 -11 -80 -24 -174 -30 -210 -5 -36 -12 -87 -16
-115 -20 -165 -90 -300 -188 -363 -91 -58 -167 -83 -404 -131 -29 -6 -59 -17
-67 -24 -15 -16 -31 -71 -39 -137 -5 -48 -35 -210 -60 -329 -24 -115 -61 -163
-142 -181 -21 -5 -161 -10 -310 -10 -313 0 -364 -4 -364 -31 0 -10 -4 -21 -10
-24 -6 -3 -10 4 -10 18 0 21 -6 25 -46 31 -78 10 -562 7 -569 -4 -4 -6 -13 -7
-24 -1 -19 11 -356 15 -408 5 -22 -4 -38 -15 -48 -33 l-14 -26 -1 26 c0 33
-14 39 -100 39 -65 0 -68 -1 -75 -27 l-6 -26 -25 26 c-14 15 -33 27 -42 27
-10 0 -23 5 -29 11 -6 6 -22 17 -35 23 -12 6 -29 24 -36 39 -7 15 -22 32 -33
37 -15 9 -17 15 -9 30 5 10 10 43 10 72 0 29 20 150 44 269 90 439 107 725 54
890 -29 89 -109 213 -198 309 -34 36 -72 79 -86 96 -13 17 -44 42 -67 54 -54
29 -85 23 -138 -28 -31 -30 -41 -49 -53 -102 -18 -82 -66 -217 -94 -261 -42
-69 -128 -129 -182 -129 -17 0 -30 -4 -30 -8 0 -4 -21 -14 -48 -21 -26 -8 -49
-17 -52 -20 -11 -13 -51 -31 -69 -31 -60 0 -270 -77 -254 -93 3 -4 0 -7 -9 -7
-19 0 -44 -28 -51 -60 -3 -14 -47 -67 -97 -119 -50 -52 -97 -103 -105 -115
-13 -17 -15 -106 -15 -583 l0 -563 789 0 c744 0 790 1 794 18 4 16 5 16 6 0 1
-17 100 -18 1926 -18 l1925 0 0 1589 0 1589 -27 10 -28 10 28 1 27 1 0 700 c0
385 -3 700 -7 700 -5 0 -18 -13 -30 -28z"/>
<path d="M2870 4346 c-6 -8 -15 -40 -19 -71 -4 -30 -10 -57 -12 -58 -5 -4 27
-37 35 -37 3 0 6 7 6 15 0 23 15 18 29 -9 17 -32 71 -43 88 -19 16 21 17 63 1
63 -6 0 -9 3 -5 6 8 9 -18 59 -50 95 -29 32 -54 37 -73 15z"/>
<path d="M3815 4023 c-44 -12 -45 -33 -4 -114 83 -164 79 -232 -22 -426 -39
-76 -79 -151 -87 -168 -18 -35 -64 -99 -74 -103 -5 -2 -8 -10 -8 -17 0 -7 -23
-53 -52 -102 -28 -48 -56 -98 -62 -110 -6 -13 -14 -23 -18 -23 -12 0 -10 -65
3 -97 21 -56 20 -144 -2 -201 -20 -48 -27 -55 -101 -97 -44 -25 -84 -45 -89
-45 -30 0 -101 -66 -129 -120 -24 -46 -76 -94 -119 -108 -19 -7 -78 -12 -131
-12 -126 0 -201 24 -250 79 -19 22 -46 42 -60 45 -44 8 -192 90 -212 117 -19
25 -23 65 -16 139 3 20 -1 25 -19 24 -15 0 -23 5 -23 16 0 14 10 17 56 18 47
0 57 -3 61 -19 7 -25 12 -24 53 11 19 16 38 30 43 30 4 0 7 5 7 11 0 6 10 25
23 42 32 45 47 77 47 97 0 10 11 27 24 37 22 18 23 22 11 50 -7 17 -23 37 -35
43 -43 23 -110 -22 -110 -74 0 -17 -9 -42 -19 -56 -15 -19 -17 -29 -9 -44 9
-16 6 -23 -11 -37 -11 -9 -21 -27 -21 -39 0 -19 -4 -21 -22 -15 -48 15 -78 17
-78 6 0 -6 -11 -11 -25 -11 -13 0 -41 -7 -62 -16 -21 -9 -47 -21 -58 -25 -27
-12 -174 -49 -194 -49 -9 0 -51 -23 -93 -50 -43 -28 -83 -50 -90 -50 -6 0 -22
-10 -34 -21 -13 -12 -34 -28 -46 -35 -31 -18 -118 -58 -150 -68 -22 -7 -24
-50 -4 -97 8 -19 38 -59 67 -89 56 -60 139 -182 195 -287 19 -37 43 -72 52
-79 13 -10 14 -16 6 -24 -9 -9 -9 -22 -2 -48 15 -54 16 -55 51 -30 l32 23 -27
-46 c-15 -26 -25 -49 -22 -52 3 -3 8 -32 10 -64 2 -32 7 -97 12 -144 7 -81 -9
-396 -21 -415 -7 -12 -27 -183 -33 -281 -4 -62 -2 -73 11 -73 9 0 13 -4 10
-10 -4 -7 96 -11 292 -11 164 -1 342 -2 395 -3 73 -1 99 2 103 12 3 8 5 41 5
74 0 77 6 72 13 -11 4 -35 9 -66 11 -69 16 -16 131 1 121 18 -3 5 0 12 6 16 9
5 10 -1 5 -21 l-7 -27 178 6 c98 3 204 9 235 12 52 6 58 9 67 37 16 44 13 137
-5 190 -18 54 -54 87 -95 87 -16 0 -29 5 -29 10 0 6 7 10 15 10 24 0 18 13
-18 37 -32 22 -103 56 -122 58 -5 0 -27 8 -49 18 -21 9 -42 17 -47 17 -5 0
-17 4 -27 9 -23 11 -106 31 -135 31 -12 0 -33 9 -46 19 -31 24 -51 17 -51 -18
0 -20 -2 -23 -10 -11 -5 8 -10 25 -10 38 0 14 -6 22 -17 22 -21 0 -119 47
-159 77 -17 13 -34 23 -38 23 -12 0 -108 93 -126 124 l-18 28 -16 -28 -15 -29
-1 49 c0 35 -10 69 -35 121 -30 61 -36 85 -38 147 -2 68 1 78 26 111 42 55 78
70 155 64 60 -5 67 -8 103 -47 21 -23 41 -50 44 -61 3 -10 19 -31 36 -46 16
-15 29 -33 29 -40 0 -17 75 -73 99 -73 12 0 24 -7 27 -15 4 -8 17 -15 30 -15
14 0 41 -7 62 -16 20 -9 51 -20 67 -24 62 -17 282 -81 325 -95 104 -34 176
-55 238 -70 37 -9 99 -24 137 -35 142 -38 308 -38 318 1 6 22 35 26 43 5 5
-12 10 -12 37 2 64 34 68 52 32 132 l-25 55 30 -32 c16 -18 32 -33 36 -33 11
0 -9 45 -32 73 -30 36 -30 45 0 40 15 -3 26 -13 28 -26 2 -11 9 -22 16 -25 22
-7 13 33 -19 76 -33 45 -29 55 8 20 13 -12 25 -19 28 -16 3 3 8 27 11 54 3 27
8 60 11 74 10 40 10 42 18 106 6 59 5 63 -24 97 -40 45 -39 51 4 25 44 -25 52
-20 24 15 l-20 27 20 0 c16 0 21 6 21 28 0 15 9 68 20 117 l19 90 -32 34 -32
34 32 -18 31 -18 29 33 c15 18 30 37 33 41 3 4 46 27 95 50 149 70 165 83 165
129 0 22 -4 40 -10 40 -5 0 -10 9 -10 19 0 11 -4 22 -9 25 -4 3 -11 23 -15 44
-6 39 -24 62 -61 77 -19 7 -19 8 4 14 22 6 22 7 7 20 -9 8 -15 20 -12 27 3 7
-8 39 -24 71 -15 32 -40 87 -55 123 -15 36 -40 92 -55 125 -15 33 -33 84 -41
113 -12 47 -15 52 -40 52 -37 0 -47 18 -12 22 26 3 28 7 27 43 -1 86 -15 242
-25 292 -9 45 -15 54 -36 59 l-26 7 28 15 c15 8 23 17 18 21 -5 3 -16 24 -25
46 -9 22 -32 53 -52 69 l-35 29 -63 -21 -63 -20 33 28 c19 15 30 30 25 33 -4
3 -35 8 -68 12 -33 4 -62 11 -65 16 -7 11 -79 19 -105 12z"/>
<path d="M4457 3993 c-16 -3 -31 -11 -34 -19 -3 -8 -10 -14 -17 -14 -6 0 -28
-14 -49 -31 -27 -22 -36 -36 -33 -52 3 -12 5 -26 5 -30 1 -5 5 -6 10 -3 12 8
41 -3 41 -15 0 -5 -10 -9 -23 -9 l-23 0 12 -87 c7 -49 13 -124 14 -168 1 -109
15 -207 34 -246 9 -18 16 -36 16 -41 0 -5 12 -34 26 -64 21 -45 30 -54 51 -54
24 0 25 -1 10 -18 -15 -16 -13 -24 14 -102 17 -47 38 -103 49 -125 97 -208
125 -284 125 -339 0 -44 -4 -51 -38 -81 -22 -19 -73 -46 -115 -61 -179 -63
-184 -69 -212 -259 -12 -77 -25 -162 -30 -190 -5 -27 -14 -95 -20 -150 -17
-163 -51 -347 -72 -392 -21 -46 -64 -83 -124 -109 -22 -9 -45 -19 -52 -23 -8
-3 -80 -3 -160 0 -148 7 -232 22 -422 76 -47 13 -132 37 -190 53 -172 47 -208
57 -220 65 -14 8 -117 36 -142 38 -10 1 -18 5 -18 9 0 4 -12 8 -27 8 -45 0
-150 56 -201 107 -27 27 -71 82 -98 123 -51 79 -80 98 -127 86 -33 -8 -52 -68
-42 -130 17 -102 126 -265 213 -317 20 -13 39 -26 42 -30 7 -8 251 -89 410
-134 304 -88 425 -201 437 -408 6 -97 -10 -194 -36 -221 -18 -17 -38 -18 -287
-18 -148 0 -271 -4 -274 -9 -3 -4 -39 -3 -80 2 -42 6 -267 9 -512 7 l-437 -3
-28 27 -27 27 17 123 c9 68 21 148 26 178 67 391 60 655 -21 859 -32 79 -90
194 -111 217 -26 29 -37 43 -37 49 0 14 -144 160 -190 192 -21 15 -62 27 -135
39 -20 4 -26 2 -17 -4 11 -7 9 -10 -7 -15 -16 -4 -21 -13 -21 -41 0 -58 37
-121 130 -224 17 -18 30 -37 30 -43 0 -6 19 -36 43 -67 24 -31 53 -73 64 -92
32 -53 70 -175 84 -265 13 -92 5 -324 -16 -450 -7 -44 -16 -105 -20 -135 -4
-30 -13 -80 -20 -110 -22 -88 -68 -352 -67 -383 1 -39 38 -94 70 -103 29 -8
1050 -13 1345 -6 l177 4 0 24 c0 30 18 32 22 2 3 -22 8 -23 96 -26 77 -2 92 0
92 13 0 8 5 15 10 15 6 0 10 -9 10 -20 0 -20 4 -20 130 -15 143 5 180 17 204
63 7 15 23 90 36 167 12 77 26 156 30 175 5 19 11 55 14 80 11 86 34 158 57
177 18 13 58 22 139 29 140 11 254 48 342 111 77 55 140 171 152 278 3 33 13
101 20 150 8 50 17 119 21 155 3 36 10 90 15 120 6 30 17 98 26 150 25 150 29
155 192 216 168 63 220 128 209 263 -5 60 -34 174 -59 231 -9 19 -21 49 -26
65 -19 55 -140 340 -215 505 -24 54 -39 134 -53 275 -24 263 -32 306 -72 368
-14 20 -25 36 -26 36 0 -1 -14 -4 -29 -6z"/>
<path d="M3533 3945 c-7 -8 -13 -21 -13 -30 0 -8 -4 -15 -8 -15 -14 0 -10 -34
6 -46 16 -12 7 -39 -9 -29 -17 11 -9 -22 14 -56 18 -27 30 -35 60 -37 29 -3
37 0 37 13 0 9 4 14 10 10 5 -3 7 -12 3 -20 -4 -12 6 -15 57 -15 34 0 70 5 81
10 23 13 26 65 4 86 -8 9 -15 23 -15 33 0 10 -22 39 -50 65 -47 44 -52 46
-107 46 -37 -1 -62 -6 -70 -15z"/>
<path d="M3040 3931 c0 -6 -7 -11 -15 -11 -8 0 -15 -4 -15 -10 0 -5 -5 -10
-11 -10 -19 0 -41 -30 -36 -50 3 -11 2 -18 -2 -15 -9 5 -31 -38 -31 -60 0 -16
15 -21 92 -30 35 -4 58 -2 63 4 3 6 15 11 26 11 10 0 19 6 19 14 0 8 3 22 7
32 6 15 1 16 -40 11 -25 -4 -49 -3 -51 2 -8 13 21 34 37 28 8 -3 20 3 28 14 7
10 21 19 31 19 24 0 24 37 1 44 -49 13 -103 17 -103 7z"/>
<path d="M2239 3818 c-19 -23 -36 -45 -38 -51 -2 -5 -12 -18 -22 -28 -20 -20
-26 -59 -8 -59 6 0 9 -12 7 -27 -2 -19 -8 -28 -20 -27 -14 1 -16 -2 -7 -18 16
-29 -3 -45 -30 -26 -12 8 -18 18 -13 23 4 4 0 6 -8 3 -8 -2 -17 -15 -18 -29
-2 -13 -17 -38 -33 -57 -16 -18 -32 -45 -35 -60 -4 -15 -10 -31 -13 -37 -3 -5
-6 -21 -6 -35 0 -18 -6 -26 -21 -28 -22 -3 -54 -49 -54 -79 0 -10 -5 -24 -11
-30 -17 -17 36 -28 67 -14 35 16 30 -3 -12 -45 -45 -43 -36 -59 28 -50 23 3
55 7 69 9 33 3 121 106 92 108 -89 4 -120 29 -36 29 66 0 113 25 113 60 0 10
6 21 13 23 13 6 -5 8 -98 12 -96 3 -109 5 -103 10 2 3 53 8 113 11 59 4 119
13 134 20 14 8 34 14 43 14 17 0 38 28 38 49 0 6 -9 11 -19 11 -24 0 -37 18
-23 32 8 8 15 8 26 -1 12 -10 16 -8 21 8 4 15 15 21 36 21 16 0 29 5 29 10 0
6 -9 10 -19 10 -11 0 -23 5 -26 10 -3 6 -17 10 -31 10 -13 0 -24 5 -24 10 0 6
12 9 28 8 24 -3 27 1 30 30 2 18 -1 32 -7 32 -19 0 -12 22 15 45 21 18 26 29
22 54 -4 28 -2 31 24 31 18 0 28 5 28 15 0 18 -17 20 -22 3 -3 -9 -20 -7 -66
6 -108 30 -115 29 -153 -16z"/>
<path d="M3528 3658 c-21 -21 -38 -60 -38 -88 0 -13 9 -20 28 -23 25 -4 25 -4
-6 -6 -24 -1 -35 -7 -42 -25 -5 -13 -15 -28 -22 -33 -20 -12 -39 -61 -28 -68
16 -10 11 -22 -11 -28 -26 -7 -15 -27 14 -26 12 0 16 3 9 6 -17 7 4 33 27 33
23 1 67 27 61 37 -3 4 12 9 33 11 28 2 37 -1 38 -12 1 -9 3 -20 4 -26 1 -5 3
-14 4 -20 2 -16 34 -11 56 8 12 9 27 31 35 47 8 17 18 32 21 35 13 11 79 144
79 160 0 26 -25 33 -139 35 -90 2 -106 0 -123 -17z"/>
<path d="M3064 3654 c-6 -3 -9 -16 -6 -29 3 -18 0 -25 -12 -25 -9 0 -16 8 -16
20 0 18 -7 19 -117 16 -138 -3 -176 -17 -199 -73 -9 -19 -24 -37 -35 -40 -23
-6 -24 -15 -4 -53 14 -28 20 -30 78 -32 34 -1 78 -1 97 -1 19 1 77 2 129 3 52
1 102 6 113 13 16 9 22 9 25 0 7 -19 117 -17 133 2 17 21 -3 68 -42 99 -17 13
-31 34 -32 50 -4 36 -13 43 -36 28 -28 -17 -40 -15 -40 8 0 19 -12 24 -36 14z"/>
<path d="M2760 3364 c-50 -4 -120 -24 -120 -33 0 -4 -11 -18 -24 -32 -33 -35
-52 -77 -55 -120 -3 -45 7 -52 78 -55 61 -3 166 -19 181 -29 22 -13 3 -135
-20 -135 -12 0 -70 -126 -70 -152 0 -13 -4 -28 -9 -34 -4 -5 -11 -22 -15 -38
-6 -23 -4 -27 8 -23 9 4 16 2 16 -3 0 -6 7 -10 15 -10 16 0 18 -7 17 -52 0
-16 4 -28 9 -28 5 0 9 5 9 10 0 6 6 10 14 10 8 0 16 6 19 13 2 6 19 12 38 12
26 0 34 4 34 18 0 10 6 22 14 26 10 6 6 11 -15 19 -28 10 -28 10 13 11 50 1
64 19 53 67 -9 37 0 49 29 39 16 -5 30 12 79 93 33 55 63 108 66 120 10 31 34
48 49 33 9 -9 8 -17 -3 -36 -8 -13 -42 -70 -74 -127 -33 -57 -69 -116 -81
-133 -12 -16 -28 -43 -37 -60 -40 -78 -78 -146 -102 -181 -14 -21 -26 -42 -26
-46 0 -4 -16 -35 -36 -68 -20 -34 -32 -66 -28 -70 12 -11 126 -30 184 -30 45
0 110 29 110 50 0 6 9 23 20 38 15 21 18 36 14 67 -14 97 -13 183 2 196 8 6
18 9 21 5 4 -4 2 -11 -5 -15 -12 -7 -7 -41 7 -41 4 0 15 18 25 40 9 22 28 48
42 59 l24 19 -22 5 c-32 9 -13 21 28 19 34 -3 35 -2 30 25 -7 31 7 63 18 44
19 -30 52 7 121 137 16 28 32 52 38 52 5 0 7 7 3 15 -3 8 2 18 10 23 31 17 4
40 -58 49 -60 8 -84 25 -53 36 8 4 25 3 38 -1 12 -5 30 -7 40 -4 28 6 20 29
-13 36 -26 5 -30 10 -30 40 0 32 3 35 33 38 29 3 32 6 35 41 3 36 -5 46 -24
28 -5 -5 -28 -12 -51 -16 -34 -5 -43 -4 -43 8 0 8 -7 17 -15 21 -18 7 -493 16
-555 10z"/>
</g>
</svg>
