<?xml version="1.0" standalone="no"?>
<!DOCTYPE svg PUBLIC "-//W3C//DTD SVG 20010904//EN"
 "http://www.w3.org/TR/2001/REC-SVG-20010904/DTD/svg10.dtd">
<svg version="1.0" xmlns="http://www.w3.org/2000/svg"
 width="544.000000pt" height="544.000000pt" viewBox="0 0 544.000000 544.000000"
 preserveAspectRatio="xMidYMid meet">
<metadata>
Created by potrace 1.16, written by Peter Selinger 2001-2019
</metadata>
<g transform="translate(0.000000,544.000000) scale(0.100000,-0.100000)"
fill="#000000" stroke="none">
<path d="M0 2720 l0 -2720 2720 0 2720 0 0 2720 0 2720 -2720 0 -2720 0 0
-2720z m3094 2616 c437 -94 808 -296 1076 -585 158 -170 293 -376 374 -568 59
-140 108 -363 121 -553 12 -164 29 -236 90 -375 32 -71 66 -150 75 -175 9 -25
29 -71 43 -103 15 -32 27 -60 27 -63 0 -3 16 -42 36 -87 79 -180 102 -319 71
-428 -31 -104 -71 -144 -194 -194 -125 -50 -171 -74 -176 -92 -14 -48 -37
-177 -47 -253 -55 -433 -80 -546 -142 -637 -42 -62 -171 -163 -208 -163 -7 0
-26 -6 -43 -14 -35 -16 -153 -42 -236 -52 -72 -9 -99 -34 -111 -104 -5 -30
-11 -64 -14 -75 -5 -22 -25 -130 -51 -270 -29 -153 -60 -202 -145 -225 -26 -7
-369 -10 -1057 -8 -1006 3 -1018 3 -1053 24 -19 11 -46 36 -59 55 -21 31 -23
41 -18 129 3 52 10 118 16 145 21 95 80 430 97 550 22 155 15 373 -14 455 -35
99 -111 224 -188 310 -103 114 -209 248 -272 341 -73 109 -172 294 -193 359
-4 14 -17 50 -29 80 -115 301 -143 728 -71 1075 48 229 176 525 308 709 144
202 351 399 545 520 80 50 278 145 395 190 134 51 313 88 528 110 22 2 121 2
220 1 148 -3 202 -8 299 -29z"/>
<path d="M2560 5284 c-98 -9 -213 -28 -280 -46 -41 -11 -88 -24 -105 -28 -53
-13 -159 -52 -205 -74 -25 -13 -85 -42 -135 -66 -85 -40 -125 -64 -238 -144
-87 -61 -266 -236 -346 -339 -44 -56 -91 -116 -105 -133 -15 -18 -26 -35 -26
-38 0 -4 -12 -25 -27 -49 -84 -132 -150 -294 -198 -487 -63 -247 -72 -614 -21
-825 8 -33 19 -80 24 -105 17 -79 98 -292 144 -380 73 -138 170 -281 268 -394
20 -23 49 -57 64 -76 16 -19 41 -51 57 -70 15 -19 47 -57 69 -85 57 -70 115
-194 140 -299 44 -186 22 -439 -85 -966 -33 -163 -36 -194 -24 -228 23 -66
-28 -63 1068 -62 545 0 998 3 1008 6 68 22 81 47 108 204 9 52 30 168 47 258
36 189 46 205 140 216 179 22 230 31 288 53 81 32 119 57 168 114 71 81 80
110 117 389 47 354 73 499 96 536 24 39 62 61 164 94 91 30 160 75 182 120 28
55 22 194 -12 295 -25 75 -173 434 -251 609 -45 100 -61 177 -74 351 -13 171
-23 232 -61 355 -73 232 -217 496 -338 621 -15 15 -39 43 -54 63 -36 46 -258
246 -273 246 -7 0 -14 4 -16 9 -5 15 -118 85 -223 139 -249 127 -430 183 -664
207 -139 14 -298 17 -391 9z m525 -262 c221 -49 453 -156 645 -296 30 -23 57
-43 60 -46 3 -4 33 -29 68 -58 61 -50 74 -63 137 -133 33 -37 173 -245 197
-294 9 -16 27 -52 42 -78 27 -49 85 -222 105 -312 6 -27 15 -124 21 -215 13
-218 26 -269 129 -495 10 -22 31 -71 46 -110 15 -38 40 -95 55 -125 15 -30 44
-102 65 -159 62 -175 47 -202 -162 -287 -106 -42 -138 -71 -152 -133 -17 -81
-40 -222 -56 -351 -32 -253 -57 -406 -72 -453 -31 -97 -119 -158 -243 -171
-86 -8 -259 10 -378 40 -53 14 -124 31 -157 40 -33 8 -73 19 -90 24 -16 5 -73
21 -125 36 -52 15 -135 39 -185 54 -316 97 -326 101 -368 138 -68 61 -111 112
-131 156 -29 64 -44 76 -92 76 -78 0 -92 -50 -48 -182 43 -129 167 -264 279
-305 124 -46 161 -58 245 -80 179 -45 368 -120 408 -159 7 -8 30 -27 49 -41
23 -18 47 -52 66 -93 27 -57 31 -79 34 -175 5 -133 -7 -183 -52 -205 -26 -13
-136 -15 -806 -15 -736 0 -778 1 -797 18 -11 10 -22 29 -25 43 -4 22 16 157
53 364 5 30 12 78 14 105 3 28 10 98 16 157 15 154 -4 353 -45 475 -28 82
-115 254 -155 306 -32 42 -214 251 -257 296 -18 18 -33 36 -33 40 0 3 -20 33
-44 65 -156 208 -248 481 -277 820 -16 193 3 354 76 626 17 62 113 266 165
352 153 249 387 457 672 600 149 74 204 95 343 127 191 43 236 48 430 46 172
-2 203 -5 330 -33z"/>
<path d="M2701 4962 l-53 -3 5 -52 6 -52 -15 35 c-29 70 -31 71 -124 56 -19
-3 -62 -9 -95 -13 -59 -8 -60 -9 -65 -43 -5 -34 -6 -34 -18 -12 -15 27 -34 27
-90 2 -24 -11 -58 -21 -76 -23 -35 -4 -141 -51 -151 -67 -3 -6 -15 -10 -25
-10 -18 0 -169 -92 -201 -121 -8 -8 -30 -26 -51 -41 -20 -15 -42 -34 -50 -41
-7 -7 -30 -25 -50 -41 -39 -29 -73 -82 -58 -91 5 -3 23 -24 41 -48 l33 -42
-45 43 c-52 49 -64 48 -105 -9 -16 -23 -40 -53 -54 -68 -42 -47 -100 -148
-100 -175 0 -7 -7 -17 -16 -20 -15 -6 -15 -8 2 -27 18 -20 18 -20 -9 -14 -22
6 -27 4 -27 -11 0 -9 -13 -41 -29 -69 -40 -71 -53 -121 -35 -136 16 -13 9 -30
-10 -23 -8 3 -17 -9 -24 -34 -16 -53 -16 -52 18 -63 41 -15 38 -27 -7 -25
l-38 1 -7 -70 c-4 -38 -10 -116 -14 -171 l-7 -101 47 -7 c25 -4 44 -11 41 -16
-3 -4 -23 -6 -45 -3 l-41 6 7 -69 c3 -38 7 -78 8 -89 3 -17 12 -21 77 -25 l74
-6 -70 -4 -70 -5 3 -35 c4 -58 22 -136 35 -155 12 -15 18 -16 87 -1 41 8 76
13 79 11 5 -6 -13 -12 -84 -27 -48 -11 -61 -18 -63 -34 -3 -18 37 -110 120
-281 12 -24 25 -43 30 -43 4 0 8 -4 8 -10 0 -19 53 -62 71 -57 23 6 24 -1 2
-25 -10 -12 -12 -18 -4 -18 7 0 10 -4 7 -8 -3 -5 8 -22 24 -37 17 -16 30 -33
30 -38 0 -5 13 -23 29 -40 178 -195 209 -233 251 -308 59 -105 120 -243 120
-270 0 -23 18 -24 42 -2 28 25 34 6 9 -28 -25 -34 -25 -26 -1 -214 10 -77 6
-366 -5 -385 -1 -3 -6 -27 -9 -55 -15 -108 -27 -182 -36 -220 -5 -22 -10 -61
-10 -87 0 -75 18 -83 215 -85 88 -1 177 -4 197 -8 20 -3 39 -1 43 5 3 5 11 7
18 5 7 -3 83 -6 170 -9 110 -2 160 0 165 8 4 6 10 56 13 111 l5 100 2 -95 c1
-52 6 -101 11 -109 7 -11 49 -14 212 -13 112 1 242 4 288 8 l83 7 19 41 c15
35 17 52 9 107 -16 113 -48 159 -110 159 -22 0 -27 16 -7 23 31 11 -82 72
-208 111 -49 16 -124 39 -165 52 -90 29 -120 30 -120 7 0 -22 -17 -5 -22 21
-1 11 -11 20 -20 22 -24 3 -133 60 -187 97 -55 37 -141 122 -141 140 -1 6 -12
-1 -26 -18 l-25 -30 6 46 c5 36 2 55 -14 86 -79 156 -80 280 -2 345 30 25 92
39 144 32 37 -5 53 -15 91 -55 25 -27 46 -51 46 -55 0 -18 139 -168 148 -159
3 3 10 1 17 -5 14 -12 290 -102 430 -141 22 -6 56 -17 76 -25 20 -7 39 -11 42
-8 2 3 20 -2 38 -10 144 -63 438 -123 544 -111 110 12 118 13 146 34 16 12 33
21 38 21 25 0 24 54 -2 101 -36 63 -34 70 9 28 34 -32 36 -32 29 -9 -4 14 -17
38 -27 53 -24 34 -19 46 7 17 10 -11 24 -20 32 -20 18 0 9 33 -19 73 -21 30
-20 48 2 22 7 -8 16 -15 20 -15 15 0 31 57 45 162 8 61 17 113 20 116 3 3 -16
27 -42 54 -52 53 -51 61 5 23 39 -26 56 -17 28 14 -21 24 -20 34 3 28 17 -4
20 3 27 67 4 39 8 73 9 76 18 76 17 92 -11 122 l-29 30 35 -17 c26 -13 35 -15
38 -5 10 30 85 85 188 136 82 41 114 63 118 78 5 22 -9 92 -24 111 -4 6 -10
24 -14 40 -11 44 -34 75 -56 75 -28 0 -25 20 3 21 l22 0 -22 11 c-24 12 -29
23 -13 33 5 3 -6 39 -26 83 -20 42 -54 120 -76 172 -22 52 -45 103 -50 114 -5
10 -16 41 -24 67 -12 41 -19 49 -39 49 -36 0 -39 17 -4 24 30 6 31 7 25 53 -7
50 -10 83 -21 218 -8 103 -12 115 -36 115 -22 0 -25 15 -4 24 17 6 13 41 -17
131 -26 76 -30 80 -69 66 l-33 -11 29 30 29 30 -24 49 -23 50 -41 -22 c-75
-40 -82 -38 -29 9 59 51 60 44 -9 141 -21 29 -38 56 -38 61 0 6 -11 17 -25 26
-14 9 -25 22 -25 29 0 14 -41 57 -53 57 -4 0 -28 -19 -52 -41 -56 -51 -60 -38
-5 16 22 21 40 44 40 51 0 6 -19 28 -42 49 -24 20 -63 54 -87 76 -24 21 -47
39 -51 39 -4 0 -22 -16 -39 -35 -36 -42 -38 -39 -11 15 11 22 20 41 20 44 0 6
-89 66 -98 66 -4 0 -29 16 -56 35 -27 19 -55 35 -62 35 -6 0 -32 11 -55 25
-24 14 -56 25 -71 25 -14 0 -28 5 -30 12 -2 6 -23 17 -46 24 -35 10 -45 10
-57 -2 -19 -20 -25 -18 -25 11 0 14 -6 26 -12 26 -61 6 -61 6 -79 -51 l-17
-55 -1 63 c-1 34 -3 62 -5 62 -2 0 -28 5 -57 10 -30 6 -92 13 -139 16 -47 3
-87 7 -90 7 -3 1 -29 1 -59 -1z m34 -467 c113 -7 174 -35 244 -110 27 -30 55
-63 60 -73 9 -15 12 -15 21 -2 9 13 12 13 24 -2 14 -20 36 -24 36 -8 0 16 70
12 87 -6 11 -11 26 -14 53 -9 23 4 41 2 45 -4 3 -6 29 -11 56 -11 73 0 89 -12
89 -66 0 -40 3 -47 32 -62 17 -9 42 -27 54 -40 13 -14 41 -26 71 -31 74 -13
94 -24 142 -80 91 -106 142 -251 119 -341 -14 -53 -14 -185 -1 -203 10 -13 10
-26 0 -77 -8 -41 -15 -88 -16 -112 -1 -22 -65 -58 -103 -58 -26 0 -29 -2 -18
-15 7 -8 9 -22 6 -32 -4 -9 -1 -20 6 -25 10 -6 9 -8 -4 -8 -9 0 -18 4 -20 10
-2 6 -8 6 -18 0 -13 -8 -12 -10 3 -10 21 0 22 -23 1 -41 -14 -11 -13 -14 8
-25 13 -8 35 -13 50 -14 21 0 25 -4 21 -20 -4 -14 -14 -20 -32 -20 -20 0 -23
2 -11 10 9 6 10 10 3 10 -6 0 -24 5 -40 12 -25 10 -57 15 -118 18 -23 1 -69
-48 -94 -100 -9 -19 -25 -47 -35 -62 -26 -40 -32 -95 -11 -117 15 -17 15 -19
0 -25 -9 -3 -21 -4 -26 -1 -14 9 -50 -15 -43 -27 5 -7 1 -9 -9 -5 -14 5 -17 0
-17 -23 0 -17 5 -30 10 -30 6 0 10 -8 10 -17 0 -9 -3 -14 -6 -10 -9 8 -81 -29
-87 -45 -2 -7 2 -28 9 -47 l14 -34 -30 6 c-24 5 -30 3 -30 -11 0 -18 39 -74
40 -57 0 6 5 3 11 -5 8 -12 9 -10 4 7 -10 38 15 37 57 -3 23 -22 38 -31 35
-22 -8 23 11 78 27 78 7 0 17 -5 24 -12 9 -9 12 -9 12 0 0 6 -14 25 -32 42
-17 17 -29 32 -27 34 7 7 82 -22 90 -36 14 -21 10 -38 -8 -38 -10 0 -14 -4 -8
-8 6 -4 15 -16 21 -27 6 -11 19 -22 29 -23 11 -3 15 0 11 7 -4 6 -1 11 7 11 8
0 20 13 27 29 6 17 19 32 28 34 18 3 -55 42 -92 48 -11 2 -29 19 -39 38 -17
27 -18 34 -6 42 23 14 98 -21 99 -46 0 -14 87 -48 100 -40 16 10 12 36 -7 51
-10 7 -35 14 -56 14 -39 0 -76 23 -57 35 5 3 14 4 19 0 5 -3 12 -1 15 4 3 5
-1 11 -9 15 -20 7 -19 24 3 29 12 2 7 8 -20 22 -38 19 -54 40 -39 50 5 3 23
-8 40 -24 l32 -30 89 10 c63 7 95 7 110 -1 34 -18 24 -33 -16 -25 -35 6 -36 6
-20 -11 12 -11 16 -26 12 -44 -3 -18 5 -46 25 -86 38 -77 40 -138 4 -166 -14
-11 -39 -40 -56 -65 -29 -41 -34 -44 -63 -39 -24 5 -39 1 -56 -14 -13 -11 -29
-20 -36 -20 -7 0 -26 -16 -42 -36 -28 -33 -33 -36 -68 -30 -29 5 -49 1 -79
-14 -55 -28 -63 -26 -76 25 -6 25 -17 45 -23 45 -6 0 -16 8 -22 18 -14 22 -29
93 -16 73 6 -9 12 -10 16 -3 9 15 -52 30 -93 24 -22 -3 -35 -11 -38 -23 -3
-11 -10 -19 -16 -19 -6 0 -18 -7 -27 -15 -10 -9 -41 -18 -71 -21 -104 -10 -99
-7 -99 -77 0 -70 -5 -81 -40 -92 -14 -4 -39 -23 -56 -41 -45 -48 -94 -47 -157
2 -47 37 -83 42 -81 11 1 -9 -4 -17 -12 -17 -17 0 -31 23 -16 28 20 6 13 32
-8 32 -12 0 -20 -7 -20 -17 0 -13 -3 -14 -12 -5 -22 22 -48 14 -48 -13 0 -23
-3 -25 -52 -25 -70 0 -171 42 -187 77 -7 14 -14 45 -18 69 -5 39 -3 45 28 74
26 23 31 33 21 39 -11 7 -10 9 3 14 9 4 13 3 10 -3 -13 -22 14 -8 49 23 35 33
38 34 89 25 52 -8 97 -4 97 10 0 4 10 18 21 32 l20 25 -5 -30 c-2 -16 -7 -47
-11 -67 -5 -33 -3 -38 13 -38 20 0 32 25 32 67 0 22 16 40 27 29 12 -11 13
-125 2 -132 -6 -3 -14 -3 -18 2 -13 18 -31 13 -31 -8 0 -13 -3 -33 -6 -45 -5
-18 -2 -23 14 -23 11 0 27 6 35 14 19 19 81 13 85 -8 5 -22 27 -15 28 10 1 10
5 37 8 59 6 38 3 43 -42 93 -27 28 -58 52 -68 52 -14 0 -16 2 -5 9 24 16 -40
99 -71 93 -11 -2 -18 3 -18 12 0 9 4 16 9 16 4 0 11 28 14 63 5 62 29 119 91
215 17 27 25 50 21 63 -4 12 -2 19 7 19 7 0 24 20 37 45 35 65 21 77 -81 72
-85 -4 -119 -22 -115 -61 1 -15 -3 -20 -16 -18 -19 3 -41 -17 -90 -82 -23 -30
-28 -44 -23 -70 4 -20 1 -39 -7 -51 -16 -21 -37 -13 -37 16 0 10 -1 19 -3 19
-2 0 -36 -11 -75 -25 -39 -14 -77 -25 -84 -25 -7 0 -50 -12 -95 -26 -56 -18
-84 -32 -88 -45 -3 -10 -15 -21 -26 -24 -10 -4 -19 -11 -19 -16 0 -5 -18 -9
-40 -9 -21 0 -51 -5 -65 -12 -21 -10 -27 -9 -39 7 -7 10 -21 20 -30 21 -35 5
-44 13 -56 51 -6 21 -23 63 -37 93 -51 109 -58 139 -39 166 20 30 26 64 14 90
-13 28 -4 42 32 49 35 7 36 14 2 26 -44 15 -41 43 6 68 13 7 22 21 22 35 0 13
7 29 15 36 26 22 18 40 -18 40 -45 0 -97 51 -77 75 10 12 10 19 2 27 -7 7 -12
22 -12 34 0 12 -5 24 -12 26 -6 2 -9 12 -5 21 5 13 18 17 52 17 31 0 47 5 51
15 4 9 19 15 39 15 20 0 35 -6 39 -15 3 -10 -1 -15 -14 -15 -25 0 -35 -17 -18
-33 32 -31 78 -57 102 -57 20 0 27 6 33 28 4 15 6 33 4 40 -1 8 7 16 19 19 17
5 21 12 18 33 -4 28 11 50 35 50 50 0 26 64 -25 66 -15 1 -35 9 -43 18 -20 19
-46 21 -39 3 2 -7 18 -21 34 -31 38 -22 40 -41 3 -31 -16 4 -37 8 -48 10 -33
4 -135 53 -135 64 0 6 7 11 16 11 12 0 14 3 6 13 -5 6 -13 27 -17 44 -6 29 -3
34 19 44 19 9 23 16 17 28 -10 18 -8 66 4 94 4 11 27 27 51 38 27 11 44 25 44
35 0 12 6 15 28 11 41 -8 99 14 112 42 9 20 13 22 21 10 7 -10 8 -5 3 15 -6
26 -5 29 15 23 11 -3 18 -1 15 4 -3 5 2 12 10 15 9 3 16 13 16 21 0 8 9 27 20
42 18 26 25 28 122 35 78 5 107 11 120 24 21 22 58 89 58 106 0 30 32 76 53
76 15 0 34 17 60 56 l39 55 56 -5 c32 -3 98 -8 147 -11z"/>
<path d="M2900 4322 c0 -5 3 -12 7 -16 12 -12 11 -126 -1 -126 -6 0 -4 -4 4
-10 25 -15 4 -22 -65 -21 -46 0 -65 -3 -63 -11 2 -6 16 -12 31 -12 25 -2 60
-33 51 -47 -2 -4 -18 -9 -36 -13 -24 -5 -29 -9 -20 -18 16 -16 15 -28 -3 -28
-8 0 -15 9 -15 20 0 13 -7 20 -20 20 -17 0 -20 -7 -20 -52 0 -29 -4 -69 -9
-88 -4 -19 -5 -57 -2 -85 5 -45 8 -50 34 -53 24 -3 30 2 52 50 14 29 25 59 25
66 0 7 20 32 45 55 54 50 71 105 36 114 -27 7 -17 23 15 23 33 0 41 25 22 76
-13 36 -13 44 -2 48 19 7 17 23 -6 46 -11 11 -20 23 -20 28 0 21 -13 42 -26
42 -8 0 -14 -4 -14 -8z"/>
<path d="M3117 4064 c-4 -4 -7 -16 -7 -26 0 -14 -5 -18 -19 -13 -10 3 -24 -1
-31 -10 -10 -13 -9 -15 9 -15 24 0 27 -19 9 -53 -6 -12 -14 -29 -18 -37 -5 -9
-18 -14 -35 -12 -38 5 -75 -32 -75 -74 0 -34 13 -44 57 -44 23 0 63 32 63 50
0 5 11 11 25 14 14 4 25 11 25 16 0 5 18 14 40 20 50 13 70 34 70 71 0 38 -15
30 -30 -16 -6 -19 -16 -33 -21 -30 -14 9 -10 58 6 79 21 28 20 76 -2 76 -10 0
-27 3 -38 6 -11 3 -24 2 -28 -2z"/>
<path d="M2304 3862 c-6 -4 -16 -17 -23 -29 -12 -25 -41 -31 -41 -10 -1 18
-30 -24 -30 -43 0 -9 -9 -25 -20 -35 -11 -10 -22 -33 -26 -52 -4 -23 -11 -33
-22 -31 -9 2 -22 -10 -31 -27 -9 -16 -20 -33 -26 -37 -5 -4 0 -17 13 -31 29
-31 28 -40 -6 -32 -25 5 -32 0 -60 -39 -18 -24 -32 -48 -32 -53 0 -5 -8 -18
-18 -29 -9 -10 -26 -38 -36 -62 -11 -24 -26 -47 -34 -51 -12 -7 -12 -12 -2
-32 10 -17 10 -24 1 -27 -6 -2 -11 -12 -11 -23 0 -12 -7 -19 -20 -19 -11 0
-20 -7 -20 -15 0 -18 16 -20 23 -2 4 10 6 10 6 0 1 -7 8 -13 16 -13 8 0 15 -7
15 -15 0 -8 -7 -15 -15 -15 -8 0 -15 -4 -15 -10 0 -5 11 -10 23 -10 13 0 27
-3 30 -7 4 -3 35 -5 70 -4 57 2 65 5 95 37 17 19 32 42 32 50 0 8 4 14 9 14 5
0 11 8 15 18 3 9 9 23 12 30 4 8 -6 12 -34 12 -22 0 -55 3 -73 8 -28 6 -18 8
50 12 68 4 86 9 95 24 8 14 8 20 -1 23 -7 3 -13 11 -13 18 0 7 6 15 13 18 6 2
-26 8 -73 13 l-85 9 80 6 c45 3 88 2 99 -3 12 -7 21 -6 25 0 17 27 79 31 530
34 443 3 472 4 477 21 8 24 -50 134 -92 176 -30 29 -38 32 -69 27 -25 -5 -39
-14 -45 -32 -12 -30 -24 -32 -16 -1 5 22 4 22 -57 17 -34 -3 -68 -9 -74 -13
-13 -8 -91 10 -107 25 -13 11 -39 10 -32 -1 3 -5 0 -14 -8 -20 -8 -6 -23 -34
-35 -61 -22 -51 -37 -62 -47 -35 -5 12 -9 12 -29 -1 -17 -11 -25 -12 -30 -3
-8 12 11 29 33 29 15 0 16 44 0 73 -19 36 -40 46 -100 47 -67 0 -108 13 -108
35 0 8 9 31 19 51 28 51 13 89 -37 98 -50 8 -115 7 -128 -2z"/>
<path d="M3290 3724 c0 -8 -4 -13 -8 -10 -18 11 -36 -15 -39 -58 -7 -80 45
-125 112 -100 12 5 13 9 5 14 -18 11 -1 33 22 27 31 -8 68 32 75 81 5 38 4 42
-15 42 -11 0 -24 -4 -27 -10 -9 -14 -55 -12 -55 3 0 6 -5 4 -11 -5 -13 -24
-29 -23 -29 1 0 10 -7 21 -15 25 -9 3 -15 0 -15 -10z"/>
<path d="M3642 3633 c-21 -23 -62 -32 -62 -12 0 5 -4 7 -10 4 -5 -3 -10 -1
-10 4 0 6 -10 11 -23 11 -16 0 -28 -12 -46 -44 -13 -25 -22 -48 -21 -52 1 -4
-4 -11 -12 -15 -10 -7 -9 -9 5 -9 10 0 15 -5 12 -10 -4 -6 -16 -8 -27 -4 -17
5 -19 2 -16 -23 2 -19 -4 -34 -17 -45 -17 -15 -18 -19 -5 -27 12 -8 13 -14 3
-30 -10 -16 -9 -20 3 -25 8 -3 12 -10 9 -16 -9 -14 -62 -12 -68 3 -3 7 -6 5
-6 -5 -1 -10 5 -18 13 -18 8 0 18 -4 21 -10 4 -6 -5 -10 -19 -10 -14 0 -26 5
-26 10 0 6 -8 20 -18 31 -20 21 -39 22 -526 33 -170 4 -212 2 -230 -9 -18 -12
-38 -13 -106 -5 -47 5 -91 10 -97 10 -21 0 -15 -27 19 -91 27 -50 36 -59 60
-59 15 0 28 -4 28 -10 0 -5 -4 -10 -10 -10 -16 0 -11 -27 6 -34 9 -3 28 -7 42
-7 27 -1 27 -1 -3 -9 l-30 -8 30 -1 c17 0 36 -6 43 -13 7 -7 58 -13 134 -16
68 -2 129 -9 136 -15 9 -7 11 -23 7 -51 -7 -40 -7 -59 -2 -101 1 -15 -3 -19
-20 -18 -16 2 -30 -9 -53 -41 -16 -25 -30 -47 -30 -51 0 -7 -42 -68 -52 -75
-4 -4 -11 -20 -14 -38 l-6 -32 61 0 c34 0 61 -4 61 -10 0 -6 -26 -10 -59 -10
-100 0 -116 -44 -59 -158 32 -64 63 -90 92 -79 14 6 60 72 102 147 10 19 24
38 29 42 6 4 6 8 1 8 -5 0 -2 8 6 18 24 27 32 72 13 72 -8 0 -15 5 -15 10 0 6
14 10 30 10 33 0 56 30 135 175 49 89 102 172 115 180 6 3 13 0 16 -8 4 -11
-74 -161 -106 -202 -4 -5 -26 -44 -49 -87 -22 -42 -61 -109 -85 -150 -83 -137
-146 -248 -146 -257 0 -5 25 -13 55 -16 30 -4 58 -11 61 -16 8 -13 124 -11
124 2 0 5 4 8 9 5 5 -3 25 13 45 37 39 44 39 45 20 135 -4 19 -2 32 4 32 5 0
12 -13 15 -30 5 -22 11 -28 22 -23 23 8 16 65 -10 80 -15 9 -16 12 -4 13 8 0
20 -5 26 -11 6 -6 16 -8 23 -4 12 8 76 118 72 124 -2 2 0 7 6 10 13 9 32 70
23 76 -15 9 -9 55 6 55 10 0 13 -6 9 -16 -4 -11 0 -15 15 -12 16 2 35 28 70
97 27 51 55 101 64 111 8 9 15 20 15 25 0 4 15 29 34 55 36 51 51 116 28 125
-21 8 -8 30 18 30 17 0 27 8 34 26 13 37 2 59 -29 59 -41 0 -21 15 40 30 30 7
55 17 55 21 0 5 -16 11 -35 15 -19 3 -35 9 -35 13 0 11 74 41 102 41 31 0 88
82 95 138 l5 37 -55 1 c-45 0 -58 -4 -75 -23z"/>
<path d="M2269 3308 c-7 -13 -15 -25 -19 -28 -4 -3 -23 -36 -43 -75 -35 -66
-36 -70 -17 -73 11 -2 20 -8 20 -13 0 -6 -5 -7 -10 -4 -15 9 -47 -4 -54 -22
-7 -17 62 -169 89 -196 27 -27 63 -21 83 13 9 16 20 30 25 30 4 0 7 5 7 10 0
6 8 20 18 30 18 19 42 100 42 140 0 16 -12 45 -33 78 -10 14 -28 0 -40 -30
-11 -29 -25 -20 -24 15 2 25 7 33 25 35 29 4 27 18 -6 66 -33 49 -47 54 -63
24z"/>
<path d="M2023 3023 c-18 -21 -33 -45 -33 -55 0 -10 -7 -21 -15 -24 -8 -4 -15
-13 -15 -21 0 -8 -5 -11 -11 -7 -7 4 -7 -2 1 -17 21 -40 42 -59 65 -59 13 0
36 -7 51 -15 47 -24 134 -17 134 12 0 21 -56 141 -87 186 -14 20 -33 37 -42
37 -9 -1 -31 -17 -48 -37z"/>
</g>
</svg>
