<?xml version="1.0" standalone="no"?>
<!DOCTYPE svg PUBLIC "-//W3C//DTD SVG 20010904//EN"
 "http://www.w3.org/TR/2001/REC-SVG-20010904/DTD/svg10.dtd">
<svg version="1.0" xmlns="http://www.w3.org/2000/svg"
 width="544.000000pt" height="544.000000pt" viewBox="0 0 544.000000 544.000000"
 preserveAspectRatio="xMidYMid meet">
<metadata>
Created by potrace 1.16, written by Peter Selinger 2001-2019
</metadata>
<g transform="translate(0.000000,544.000000) scale(0.100000,-0.100000)"
fill="#000000" stroke="none">
<path d="M0 4180 c0 -1001 3 -1260 13 -1261 150 -7 240 -19 264 -35 32 -21
132 -64 151 -64 6 0 12 4 12 9 0 5 19 11 42 14 66 8 148 29 148 37 0 4 -7 10
-15 14 -26 10 -16 26 15 26 17 0 30 -4 30 -10 0 -5 -4 -10 -10 -10 -5 0 -10
-4 -10 -8 0 -9 112 2 129 12 12 8 15 67 3 65 -17 -3 -32 2 -32 10 0 5 10 11
23 13 30 4 28 30 -3 39 l-25 7 23 7 c19 6 22 13 20 48 -3 34 -7 42 -28 47
l-25 6 24 6 c12 4 20 11 17 17 -4 5 -7 84 -9 175 -1 122 -5 167 -14 171 -7 2
-13 12 -13 21 0 10 5 14 14 11 9 -4 16 1 18 11 3 11 -6 21 -27 28 l-30 12 26
10 c46 18 56 86 14 96 -33 8 -32 24 2 28 23 3 28 11 45 73 38 137 39 153 10
175 l-25 20 34 0 c26 0 30 3 21 12 -16 16 -15 28 3 28 31 0 16 44 -23 67 -29
17 -32 22 -16 23 11 0 29 -7 40 -15 10 -8 22 -15 25 -15 10 0 29 49 24 62 -3
7 5 18 17 23 29 13 31 61 4 87 -22 20 -15 24 15 8 20 -11 28 3 9 15 -5 3 -10
20 -10 36 0 24 4 30 18 27 12 -2 16 -11 14 -28 l-3 -25 15 22 c9 12 19 34 22
50 4 25 -5 37 -105 127 -60 54 -129 110 -153 123 -27 15 -44 32 -45 44 -2 17
1 17 33 -7 19 -15 34 -22 34 -16 0 15 -81 78 -122 95 -36 15 -188 151 -188
169 0 20 34 20 75 0 38 -18 44 -19 49 -5 4 9 13 13 22 9 10 -4 13 -2 8 6 -5 8
-1 9 12 5 12 -4 6 4 -13 21 -37 32 -42 52 -13 52 11 0 20 5 20 11 0 7 10 9 25
7 25 -5 34 5 15 17 -5 3 -10 13 -10 21 0 8 5 12 10 9 5 -3 10 1 10 9 0 18 25
22 35 6 16 -25 24 -6 11 25 -27 63 15 43 96 -46 76 -84 135 -135 145 -125 8 8
-128 147 -138 141 -4 -3 -10 -1 -14 5 -3 5 -2 10 4 10 6 0 -1 16 -14 36 -28
41 -30 50 -14 60 11 6 79 -56 79 -72 0 -4 20 -29 45 -55 25 -26 45 -55 45 -62
0 -8 16 -32 35 -53 19 -22 35 -46 35 -55 0 -19 40 -73 47 -65 8 8 56 -20 82
-48 22 -23 27 -38 30 -83 2 -22 46 -14 70 11 20 21 21 27 10 48 -7 12 -13 25
-14 28 0 3 -19 28 -42 55 -115 137 -133 160 -133 170 0 7 -36 51 -80 100 -45
48 -79 90 -76 92 14 15 49 -17 101 -90 109 -154 218 -297 223 -292 3 2 -1 13
-9 22 -7 10 -1 7 13 -6 15 -13 25 -28 22 -32 -2 -4 4 -13 15 -18 31 -17 35 16
6 51 -45 53 -29 66 21 17 37 -36 57 -33 93 13 l25 31 -28 49 c-38 67 -26 72
20 7 36 -50 59 -55 33 -7 -11 21 -11 22 4 9 15 -12 17 -11 17 13 0 16 5 26 15
26 20 0 19 8 -5 48 -11 18 -18 38 -14 43 3 5 2 8 -3 7 -11 -3 -53 25 -53 35 0
4 4 5 10 2 16 -10 11 1 -7 16 -11 10 -14 10 -9 2 4 -7 5 -13 2 -13 -2 0 -19
30 -36 68 -17 37 -42 89 -55 116 -33 67 -20 79 27 25 37 -43 48 -47 28 -8 -8
15 -6 24 10 41 11 12 20 28 20 35 0 7 5 13 10 13 6 0 10 -8 10 -17 0 -31 70
-204 99 -247 15 -23 31 -54 35 -71 l7 -30 -21 25 c-11 14 -20 28 -20 32 0 9
-60 38 -60 29 0 -10 99 -141 106 -141 4 0 3 7 0 16 -9 23 4 38 17 20 10 -13
15 -13 31 -1 17 13 16 17 -29 76 -26 34 -58 81 -70 104 -58 102 -75 139 -75
159 0 12 -3 31 -6 44 l-6 22 -704 0 -704 0 0 -1260z m365 -535 c50 -9 114 -19
144 -22 54 -6 54 -6 27 -20 -18 -9 -32 -11 -39 -5 -7 5 -48 12 -92 16 -75 6
-78 5 -55 -9 24 -15 24 -16 -20 -10 -25 3 -78 9 -118 13 -40 4 -76 12 -80 18
-4 6 -16 14 -27 19 -16 7 -7 11 40 16 70 8 99 6 220 -16z"/>
<path d="M1490 5430 c0 -6 -5 -8 -12 -4 -7 4 -8 3 -4 -5 4 -6 12 -9 17 -6 5 4
9 2 9 -4 0 -5 3 -18 6 -28 6 -16 5 -16 -10 2 -9 11 2 -16 24 -60 22 -44 40
-84 40 -89 0 -5 18 -35 39 -67 43 -65 40 -81 -5 -21 -15 20 -39 48 -52 62
l-25 25 13 -25 c7 -14 31 -53 53 -88 31 -48 43 -59 49 -48 5 8 17 13 28 11 25
-5 25 5 3 31 -22 23 -71 131 -110 239 -19 53 -34 81 -46 83 -9 2 -17 -2 -17
-8z"/>
<path d="M1554 5423 c3 -10 12 -47 21 -83 20 -79 83 -210 104 -218 9 -3 19
-10 23 -16 21 -30 3 49 -37 167 -25 73 -45 141 -45 150 0 13 -9 17 -36 17 -29
0 -34 -3 -30 -17z"/>
<path d="M1640 5430 c0 -6 6 -23 14 -38 7 -15 19 -53 26 -84 6 -32 16 -60 21
-63 5 -4 9 -15 9 -26 0 -10 5 -19 11 -19 5 0 8 -4 4 -9 -3 -5 1 -15 8 -23 8
-7 16 -20 20 -28 3 -8 6 -10 6 -3 1 6 10 9 21 6 25 -7 53 15 45 35 -5 12 -3
13 10 2 13 -11 18 -11 30 1 12 12 11 20 -5 54 -22 45 -25 65 -10 65 5 0 18
-20 29 -45 21 -47 19 -47 84 -23 31 12 32 20 15 131 l-11 77 -139 0 c-136 0
-138 0 -139 -22 l0 -23 -11 23 c-11 22 -38 31 -38 12z"/>
<path d="M2920 5423 c1 -26 21 -47 55 -60 50 -19 94 -23 122 -12 21 8 30 7 38
-4 17 -23 48 -35 113 -43 42 -4 62 -3 62 4 0 6 12 0 26 -13 15 -14 35 -25 44
-25 10 0 23 -7 30 -15 22 -27 35 -16 67 53 40 88 50 132 29 132 -9 0 -18 -13
-22 -35 -9 -50 -26 -55 -18 -6 l7 41 -277 0 c-256 0 -276 -1 -276 -17z"/>
<path d="M3564 5357 c-46 -91 -59 -133 -44 -142 5 -3 10 -1 10 5 0 6 5 8 10 5
6 -3 10 -16 10 -27 0 -19 3 -18 29 10 17 17 35 50 41 74 6 24 17 64 25 90 20
63 19 68 -12 68 -25 0 -33 -9 -69 -83z"/>
<path d="M3855 5383 c-9 -31 -34 -83 -57 -117 -22 -34 -37 -50 -33 -36 4 14 8
44 10 67 l3 41 -35 -51 c-19 -29 -44 -69 -54 -89 -11 -21 -24 -38 -29 -38 -5
0 -7 -7 -4 -15 8 -19 64 -20 64 -1 0 7 7 20 16 27 14 11 16 10 14 -6 -4 -32
-1 -45 10 -45 6 0 13 8 17 18 5 14 108 232 135 285 7 14 4 17 -16 17 -21 0
-27 -8 -41 -57z"/>
<path d="M4134 5405 c-17 -23 -24 -41 -19 -52 6 -16 10 -14 33 12 79 90 96 76
32 -26 -25 -39 -31 -53 -16 -36 14 15 27 27 30 27 15 0 -25 -63 -82 -130 -35
-41 -68 -85 -73 -98 -5 -12 -25 -47 -44 -77 -35 -56 -42 -75 -26 -75 7 0 69
65 132 139 15 17 31 31 37 31 19 0 -11 -45 -66 -98 -34 -34 -50 -56 -46 -66 3
-9 10 -16 15 -16 17 0 79 63 129 131 50 67 70 83 70 56 0 -16 -90 -126 -153
-187 -44 -42 -59 -70 -38 -70 5 0 16 -3 25 -6 13 -5 16 1 17 27 0 32 1 33 10
10 5 -14 7 -38 3 -54 -5 -25 -3 -29 9 -24 9 3 34 11 57 17 25 7 38 15 34 22
-4 7 -3 8 5 4 8 -5 2 -19 -19 -44 -16 -20 -30 -42 -30 -48 0 -18 39 -5 53 17
7 11 16 19 21 19 10 0 36 23 145 130 35 34 61 55 58 46 -6 -15 -4 -15 26 1 17
10 42 26 54 37 38 32 39 8 2 -32 -82 -89 -93 -105 -36 -54 62 55 65 56 86 43
11 -7 8 -12 -11 -25 -16 -10 -25 -26 -25 -41 0 -23 0 -23 36 10 34 33 61 45
61 27 0 -4 -27 -34 -61 -67 -68 -68 -94 -104 -61 -86 14 7 21 8 24 1 2 -6 28
3 58 19 30 17 59 31 64 31 16 0 -46 -60 -84 -82 -19 -11 -51 -31 -70 -43 -19
-12 -48 -30 -63 -39 -16 -10 -26 -20 -23 -23 3 -4 15 2 26 12 11 10 20 15 20
11 0 -4 23 9 50 29 28 20 50 32 50 26 0 -5 -4 -12 -9 -16 -6 -3 -8 -14 -6 -25
2 -10 -3 -24 -11 -30 -7 -7 -12 -16 -9 -20 3 -5 -6 -17 -20 -28 -41 -32 -28
-34 18 -2 24 16 56 34 70 39 49 19 36 -5 -22 -43 -33 -20 -67 -46 -77 -57 -18
-20 -18 -20 34 0 29 12 54 21 56 21 1 0 27 18 56 40 53 40 85 51 78 28 -5 -14
-55 -44 -158 -96 -41 -20 -81 -43 -88 -49 -7 -7 -18 -13 -24 -13 -6 0 -9 -2
-6 -5 2 -3 33 6 68 20 35 14 65 25 66 25 9 0 12 -35 3 -46 -9 -11 -8 -14 5
-14 25 0 19 -19 -9 -32 -19 -8 -22 -14 -13 -20 8 -5 2 -8 -17 -9 -25 0 -27 -2
-10 -8 22 -9 59 5 50 19 -3 5 -1 11 5 15 5 3 10 -1 10 -9 0 -11 10 -9 45 10
50 28 85 25 82 -6 -1 -11 -6 -20 -11 -20 -5 0 -7 -2 -4 -5 11 -11 119 19 141
40 26 26 148 133 162 143 74 54 137 65 217 38 65 -22 163 -46 187 -46 l21 0 0
430 0 430 -639 0 -640 0 -27 -35z"/>
<path d="M2591 5281 c-9 -6 -16 -40 -21 -97 -3 -49 -8 -93 -9 -99 -9 -29 1
-35 53 -35 45 0 54 3 59 20 6 25 42 27 55 3 9 -15 13 -13 36 13 l25 29 1 -27
c0 -31 24 -39 34 -11 6 14 9 14 27 -5 15 -16 32 -22 65 -22 25 0 89 -11 142
-24 53 -14 116 -28 139 -31 39 -6 44 -4 51 16 l9 23 7 -25 c5 -13 8 -27 7 -31
-1 -5 8 -8 20 -8 13 0 25 11 35 33 8 17 18 39 23 47 22 37 43 100 38 113 -3 8
-18 18 -33 21 -21 6 -32 3 -42 -11 -10 -14 -14 -15 -21 -4 -9 13 -29 -31 -50
-109 l-9 -35 -1 30 c-1 17 8 54 19 83 11 29 20 57 20 62 0 26 -173 71 -194 50
-6 -6 -13 -4 -20 5 -12 15 -169 26 -182 12 -4 -4 -17 -4 -29 -1 -21 5 -23 1
-29 -56 -8 -71 -26 -72 -26 -1 0 34 -5 53 -18 64 -20 18 -32 13 -32 -11 0 -8
-8 -21 -17 -28 -21 -15 -43 -1 -43 27 0 36 -18 19 -26 -23 l-7 -43 -11 44
c-12 47 -22 56 -45 42z"/>
<path d="M2520 5250 c0 -34 -15 -40 -25 -10 -11 34 -23 22 -31 -27 l-7 -48
-11 48 -11 47 -20 -30 c-11 -16 -27 -30 -36 -30 -11 0 -19 -12 -23 -32 -6 -32
6 -59 18 -39 12 18 28 12 21 -8 -9 -29 5 -70 27 -82 29 -16 55 -2 62 34 6 26
9 29 16 15 6 -9 18 -14 28 -11 16 4 18 16 19 104 0 77 -3 99 -13 99 -9 0 -14
-11 -14 -30z"/>
<path d="M1952 5123 c3 -15 -14 -43 -22 -38 -5 3 -5 -9 1 -27 12 -43 12 -81
-1 -73 -5 3 -10 15 -10 25 0 49 -36 89 -66 72 -11 -6 -10 -14 6 -45 30 -55 25
-80 -6 -32 -14 22 -23 32 -20 23 6 -21 2 -22 -24 -8 -16 8 -18 7 -15 -10 5
-28 -12 -35 -27 -10 -15 24 -36 26 -44 5 -4 -9 9 -33 30 -59 38 -46 46 -72 21
-62 -8 3 -15 1 -15 -5 0 -13 -42 -1 -52 15 -4 6 -6 17 -3 24 5 14 -22 62 -35
62 -5 0 -6 -14 -3 -31 3 -24 2 -29 -9 -23 -10 6 -10 5 -2 -7 6 -8 14 -22 17
-31 9 -25 -22 -12 -50 21 l-23 26 0 -29 c0 -23 -3 -27 -12 -18 -16 16 -25 15
-32 -5 -4 -10 3 -26 21 -45 38 -40 5 -38 -35 2 -25 24 -31 27 -36 14 -8 -22
-9 -20 23 -34 28 -11 60 -64 47 -77 -3 -3 -7 -4 -9 -2 -2 2 -16 20 -32 39
l-28 35 7 -40 c7 -39 7 -39 -9 -17 -23 31 -83 31 -113 -1 -25 -27 -28 -52 -8
-60 8 -3 20 -16 27 -29 10 -19 6 -18 -22 8 -29 27 -37 30 -53 20 -60 -34 -99
-103 -76 -131 15 -18 5 -34 -11 -18 -13 13 -39 6 -56 -16 -10 -13 -4 -23 35
-58 26 -23 41 -42 33 -43 -7 0 -29 14 -49 31 -25 22 -37 27 -42 18 -5 -7 -6
-18 -3 -26 3 -7 0 -13 -7 -13 -7 0 -10 -8 -7 -20 3 -12 0 -20 -7 -20 -7 0 -12
-10 -12 -22 1 -14 -4 -22 -12 -20 -10 2 -10 -2 -3 -16 7 -13 7 -22 -1 -30 -8
-8 -6 -15 6 -27 22 -22 20 -28 -5 -22 -15 4 -19 2 -15 -8 4 -11 -4 -14 -31
-13 -20 1 -39 -4 -41 -10 -2 -7 -10 -12 -17 -12 -33 0 -24 -57 13 -80 15 -10
15 -11 -3 -5 -37 13 -50 10 -53 -12 -2 -14 3 -23 17 -28 10 -3 31 -21 46 -40
19 -26 34 -35 56 -35 36 0 38 -17 4 -30 -37 -14 -75 6 -75 40 0 21 -7 31 -31
40 -26 11 -32 11 -40 -1 -21 -33 -10 -55 41 -80 27 -13 50 -27 50 -31 0 -12
-14 -9 -64 13 -52 23 -72 19 -56 -12 8 -13 7 -19 0 -19 -7 0 -8 -6 0 -19 8
-16 6 -23 -12 -35 -18 -13 -22 -27 -25 -87 -2 -44 -8 -78 -17 -88 -10 -11 -13
-38 -12 -89 2 -40 -1 -75 -6 -78 -4 -3 -8 -23 -8 -45 0 -32 3 -39 19 -39 11 0
23 -4 26 -10 4 -6 -5 -10 -19 -10 -25 0 -26 -3 -26 -53 0 -29 5 -58 12 -65 9
-9 9 -12 0 -12 -7 0 -12 -4 -12 -10 0 -5 14 -10 31 -10 17 0 28 -4 24 -10 -3
-5 1 -10 9 -10 9 0 16 -4 16 -10 0 -5 -12 -10 -26 -10 -14 0 -23 4 -20 9 7 11
-25 24 -34 14 -4 -4 -5 -27 -2 -50 l4 -42 47 6 46 6 -35 -25 c-42 -28 -54 -83
-24 -105 14 -10 15 -16 6 -25 -9 -9 -6 -15 16 -24 20 -9 22 -13 9 -13 -10 -1
-17 -7 -15 -13 7 -19 56 -21 74 -4 23 24 85 21 91 -4 3 -11 9 -20 14 -20 16 0
22 52 15 148 -8 108 -20 132 -54 111 -25 -15 -35 -9 -26 15 4 11 15 16 33 14
16 -2 26 2 25 10 -1 6 -2 34 -2 61 -1 29 -8 56 -17 65 -22 21 -19 39 6 31 19
-6 20 -3 18 42 -1 27 1 54 5 61 3 6 -4 20 -16 31 l-22 21 24 0 c13 0 21 2 18
5 -3 3 1 36 8 73 18 94 18 152 -1 152 -9 0 -15 9 -15 21 0 18 4 20 25 15 21
-5 27 -2 36 21 22 59 23 85 3 96 -18 10 -17 11 6 17 14 3 31 19 39 35 8 17 21
43 29 58 8 16 12 38 9 49 -4 14 0 22 14 25 24 7 25 20 1 27 -18 6 -71 56 -59
56 3 0 18 -5 33 -11 40 -15 70 -4 84 30 7 17 12 33 11 36 -1 3 8 14 20 26 16
16 18 23 9 34 -6 8 -9 23 -5 34 4 13 0 23 -12 31 -17 11 -17 11 2 7 11 -3 29
-8 39 -13 14 -5 17 -4 12 4 -4 8 -2 10 7 6 9 -3 23 8 36 30 12 19 31 38 42 41
11 4 38 31 60 61 22 30 62 71 89 90 27 19 56 49 65 66 14 29 14 33 -5 53 -24
25 -25 41 -5 49 11 4 20 -6 33 -34 9 -22 19 -40 22 -40 4 0 16 9 28 20 12 11
26 20 31 20 5 0 12 9 16 19 4 12 12 17 24 14 23 -6 32 8 33 48 1 25 5 30 20
26 16 -5 18 -1 12 29 -8 42 0 44 20 5 12 -23 20 -27 41 -23 24 4 26 8 20 38
-6 36 4 44 25 19 16 -20 40 -19 40 1 0 11 6 15 20 11 22 -6 25 5 9 34 -7 13
-16 18 -28 14 -14 -4 -21 1 -26 22 -5 15 -7 32 -6 36 3 14 -22 77 -31 77 -4 0
-7 -3 -6 -7z"/>
<path d="M3423 5103 l-11 -28 -1 25 c-2 20 -8 13 -31 -35 -29 -59 -38 -105
-21 -105 4 0 15 17 24 38 l15 37 1 -36 c1 -50 27 -98 58 -105 19 -5 28 -2 36
11 9 16 11 14 21 -16 8 -24 17 -33 29 -31 11 2 21 -6 26 -21 7 -18 20 -26 46
-31 22 -5 48 -19 65 -37 23 -26 30 -28 52 -20 14 5 28 16 31 23 2 7 7 10 11 6
4 -3 0 -18 -9 -31 -16 -24 -15 -27 5 -47 11 -11 25 -18 30 -15 6 4 10 1 10 -6
0 -17 31 -38 58 -39 17 0 22 -6 22 -25 0 -18 11 -31 45 -51 l45 -26 20 23 c11
13 19 27 20 32 0 4 4 7 10 7 5 0 7 -6 4 -14 -8 -22 39 -13 67 12 12 12 26 22
30 22 4 0 9 9 12 20 6 23 6 23 -29 10 -22 -9 -25 -8 -17 2 13 16 13 48 1 48
-5 0 -18 -5 -29 -10 -22 -12 -24 -7 -7 20 10 15 9 23 -7 40 -16 18 -20 19 -34
5 -26 -25 -91 -65 -91 -56 0 10 30 36 52 44 24 8 44 47 24 47 -8 0 -16 6 -19
13 -2 7 -16 -1 -36 -22 -29 -31 -31 -31 -20 -8 25 55 -8 69 -69 30 -18 -11
-21 -17 -12 -28 8 -9 7 -20 -1 -39 -14 -30 -29 -34 -29 -8 0 10 -5 23 -11 29
-9 9 -5 20 15 43 27 33 31 47 17 68 -6 10 -13 7 -29 -15 -16 -21 -21 -24 -22
-10 0 23 -13 22 -35 -3 -22 -25 -44 -27 -23 -2 24 27 73 116 60 108 -7 -4 -12
-2 -12 6 -1 7 -14 -2 -30 -21 l-29 -34 2 41 c3 41 2 41 -18 23 -29 -26 -56
-34 -48 -14 5 12 3 14 -8 8 -12 -7 -12 -6 1 11 22 30 24 30 16 10 -7 -19 -6
-19 14 -1 19 18 29 52 11 41 -5 -3 -14 1 -21 9 -10 13 -14 12 -29 -6 -10 -13
-22 -18 -34 -14 -19 8 -22 21 -7 30 16 10 12 48 -4 42 -7 -3 -18 -1 -23 4 -6
6 -19 -4 -36 -29 -28 -40 -38 -70 -12 -36 8 10 15 15 15 10 0 -17 -23 -86 -30
-86 -9 0 -4 78 8 117 19 59 -6 45 -38 -23 -32 -66 -52 -81 -32 -25 10 29 0 46
-11 19 -10 -25 -7 31 3 58 6 15 7 31 2 36 -4 4 -13 -4 -19 -19z"/>
<path d="M2615 4933 c8 -39 -11 -46 -21 -8 -6 23 -8 24 -33 11 -15 -8 -36 -30
-46 -50 l-19 -35 23 -25 c12 -13 36 -26 53 -30 36 -7 32 -31 -5 -31 -15 1 -27
-3 -27 -7 0 -4 5 -8 10 -8 6 0 10 -6 10 -14 0 -19 37 -31 54 -17 19 16 25 4
16 -34 -5 -24 -4 -40 6 -52 7 -10 14 -26 14 -35 0 -38 86 -94 155 -101 76 -8
199 -119 255 -231 38 -75 40 -135 7 -197 -13 -24 -45 -84 -72 -134 -26 -49
-54 -97 -61 -105 -7 -9 -15 -31 -16 -50 l-3 -35 90 3 c122 4 135 7 135 36 0
18 6 25 23 28 38 5 20 23 -30 28 l-48 5 58 6 c45 4 61 11 75 29 37 50 129 136
167 157 30 16 66 23 148 28 86 6 107 10 103 21 -3 8 -3 21 0 29 7 18 41 20 46
4 3 -9 10 -9 26 0 18 10 22 9 22 -4 0 -8 -9 -15 -20 -15 -29 0 -25 -21 15 -67
34 -40 82 -63 94 -45 3 5 17 15 30 22 22 11 22 13 7 22 -15 8 -14 12 9 39 14
17 25 35 25 40 0 5 7 9 15 9 8 0 15 5 15 11 0 5 14 15 30 20 37 13 39 29 4 29
-14 0 -23 -4 -20 -8 2 -4 -13 -8 -34 -7 -30 0 -36 3 -28 13 6 7 20 12 32 11
42 -4 54 1 58 25 5 23 -17 46 -24 26 -2 -5 -16 -12 -32 -16 -26 -6 -27 -5 -17
14 15 28 14 42 -3 36 -26 -10 -27 15 -1 32 18 12 25 25 25 48 0 41 -6 47 -35
36 -13 -5 -36 -5 -51 -1 -27 7 -27 7 -8 22 31 21 43 50 33 77 -9 24 -19 30
-59 35 -15 3 -30 15 -40 35 -21 44 -40 41 -40 -7 0 -42 -14 -61 -33 -42 -8 8
-8 25 -1 61 l11 51 -34 -33 c-36 -35 -42 -28 -17 20 8 18 12 37 9 43 -10 15
-40 -15 -81 -83 -20 -32 -40 -58 -45 -58 -11 0 7 36 50 100 38 55 38 66 4 75
-16 3 -35 13 -45 21 -11 10 -18 12 -23 5 -9 -16 -28 -13 -22 3 3 8 -3 26 -15
41 -39 49 -148 87 -148 51 0 -8 -4 -18 -10 -21 -6 -4 -7 5 -4 23 5 25 1 32
-32 51 -24 14 -40 19 -42 12 -6 -17 -22 -13 -22 5 0 14 -3 14 -15 4 -13 -11
-19 -9 -36 8 -26 28 -68 39 -80 21 -5 -8 -9 -25 -9 -39 0 -34 -11 -70 -20 -70
-4 0 -5 29 -3 64 l6 63 -49 11 c-76 16 -124 22 -124 13 0 -9 -61 -8 -76 1 -6
4 -41 6 -79 5 l-67 -2 6 -55 5 -55 -20 50 c-26 63 -44 83 -34 38z"/>
<path d="M740 4868 c14 -14 76 -71 138 -128 62 -56 111 -105 108 -108 -3 -2
-21 10 -41 27 -20 17 -40 29 -46 26 -5 -4 -24 4 -42 16 -17 12 -7 0 23 -27 30
-26 78 -73 107 -103 42 -44 53 -52 58 -38 4 9 4 21 0 27 -3 5 -1 10 4 10 6 0
11 9 11 20 0 24 0 24 36 5 27 -14 29 -13 38 8 15 35 14 40 -14 72 -55 64 -63
75 -52 75 6 0 18 -8 28 -17 13 -13 18 -15 22 -5 3 10 7 10 20 0 13 -11 14 -11
10 2 -3 8 -13 14 -22 14 -10 -1 -30 16 -47 39 -16 22 -29 37 -29 32 0 -4 -12
1 -27 11 -27 17 -28 17 -13 -2 8 -10 23 -29 33 -41 16 -19 17 -21 3 -19 -9 1
-44 29 -76 61 -42 42 -60 54 -60 42 0 -10 5 -28 11 -40 12 -21 11 -21 -8 -4
-27 23 -36 22 -22 -5 l11 -21 -30 21 c-50 36 -49 25 3 -29 64 -65 24 -47 -55
26 -32 29 -68 59 -81 65 l-24 12 25 -24z"/>
<path d="M673 4786 c55 -53 103 -96 109 -96 17 0 87 -96 76 -104 -2 -2 -19 13
-38 32 -19 20 -28 32 -20 27 9 -5 7 1 -4 13 -22 26 -35 30 -15 5 12 -15 12
-16 -3 -10 -10 3 -18 5 -18 3 0 -6 133 -139 161 -161 14 -11 35 -35 47 -52 28
-40 57 -45 48 -8 -5 19 -3 23 9 19 9 -4 15 0 15 9 0 18 -46 57 -66 57 -8 0
-14 10 -14 21 0 14 -33 53 -92 110 -51 48 -93 92 -93 97 0 5 -25 30 -55 55
-54 45 -76 54 -49 20 8 -10 0 -7 -20 7 -75 56 -71 48 22 -44z"/>
<path d="M2110 4780 c0 -24 -3 -24 -40 -5 -17 9 -31 12 -31 8 -3 -23 5 -50 22
-72 10 -13 19 -31 18 -40 0 -13 -2 -13 -12 3 -7 11 -26 34 -43 53 l-30 33 -20
-21 c-14 -15 -26 -19 -47 -15 -22 5 -29 1 -36 -17 -5 -12 -5 -26 0 -31 12 -14
11 -36 -2 -36 -6 0 -13 9 -16 19 -3 11 -13 21 -23 24 -22 6 -60 -30 -44 -41 6
-4 14 -20 17 -37 l5 -30 -24 28 c-13 16 -24 24 -24 20 0 -5 -10 -21 -21 -35
-17 -21 -28 -26 -48 -22 -20 4 -29 0 -40 -17 -10 -17 -10 -24 -2 -27 6 -2 11
-12 11 -23 0 -20 0 -20 -21 -1 -12 12 -29 18 -40 15 -25 -7 -24 -19 1 -33 24
-13 26 -30 5 -30 -24 0 -18 -21 17 -57 35 -37 25 -45 -16 -12 -14 11 -26 29
-26 40 0 53 -69 13 -70 -41 0 -20 -2 -22 -10 -10 -8 12 -10 11 -10 -6 0 -16
-8 -23 -31 -28 -32 -6 -33 -12 -13 -60 7 -17 4 -18 -24 -13 -28 6 -32 3 -42
-28 -6 -19 -18 -38 -25 -42 -7 -5 -16 -19 -20 -33 -5 -21 1 -30 36 -58 50 -38
40 -43 -13 -7 -20 14 -40 25 -44 25 -3 0 -3 -11 0 -25 6 -21 3 -25 -18 -25
-30 0 -42 -26 -15 -33 25 -7 15 -35 -14 -39 -25 -4 -39 -46 -23 -67 7 -9 7
-12 1 -9 -12 7 -13 -37 -2 -49 13 -12 7 -21 -10 -17 -29 7 -41 -8 -44 -55 -3
-40 -1 -44 31 -61 l35 -19 -45 2 -45 2 1 -82 c1 -74 -1 -83 -18 -83 -14 0 -18
-8 -18 -39 0 -39 1 -40 42 -48 23 -5 43 -14 46 -21 5 -15 -34 -16 -43 -1 -5 6
-12 4 -21 -8 -22 -29 -17 -52 14 -59 71 -15 78 -22 23 -23 l-53 -1 7 -82 c4
-46 11 -87 16 -92 5 -5 43 -9 86 -9 l78 1 -69 -8 c-77 -10 -96 -21 -76 -45 9
-11 22 -14 43 -9 21 4 27 3 23 -5 -4 -6 -12 -9 -17 -6 -5 4 -9 0 -9 -9 0 -8
-5 -16 -11 -18 -7 -2 0 -17 15 -35 14 -17 26 -36 26 -42 0 -7 25 -11 68 -11
l67 -1 -35 -19 -35 -18 30 -8 c35 -9 105 -52 123 -76 7 -9 33 -20 58 -24 26
-4 70 -16 98 -27 66 -26 110 -24 141 7 l25 25 -25 73 c-14 40 -28 105 -31 143
l-7 71 68 129 c37 72 71 132 75 135 4 3 20 30 36 60 15 30 30 57 33 60 4 3 14
21 25 40 10 19 28 51 39 70 11 19 31 55 45 80 32 57 120 209 161 278 17 29 31
56 31 59 0 4 6 14 14 22 7 9 31 50 52 91 21 41 44 81 51 88 7 7 13 19 13 25 0
7 7 25 16 42 14 28 14 31 -5 46 -22 18 -28 39 -11 39 6 0 13 -7 16 -15 10 -25
23 -17 39 22 15 35 15 37 -11 64 -15 16 -41 31 -58 35 l-31 7 39 9 c30 6 43 5
56 -7 9 -8 19 -12 23 -9 8 8 -12 47 -29 57 -8 4 -14 14 -14 22 0 7 -21 32 -46
54 -35 31 -55 41 -81 41 -20 0 -32 4 -28 10 3 6 -1 13 -9 16 -9 3 -16 13 -16
21 0 11 -6 8 -19 -8 -16 -20 -23 -22 -38 -13 -10 6 -16 14 -13 17 3 3 -4 12
-14 20 -12 9 -16 19 -11 27 5 9 4 11 -3 6 -7 -4 -12 -1 -12 8 0 9 -4 16 -10
16 -5 0 -10 -9 -10 -20z"/>
<path d="M4118 4573 c-14 -2 -32 -11 -38 -19 -7 -8 -18 -14 -24 -14 -7 0 -23
-11 -36 -26 -21 -21 -22 -27 -10 -34 11 -7 16 -5 18 6 6 25 47 -37 47 -71 0
-26 4 -30 29 -33 17 -2 49 -1 72 3 50 7 110 55 100 81 -3 9 -1 24 6 32 16 20
-78 -44 -105 -71 -16 -16 -19 -17 -14 -4 12 31 -2 47 -30 36 -37 -14 -39 -12
-35 26 3 27 1 35 -12 35 -19 0 -21 11 -4 28 18 18 30 15 24 -5 -6 -20 3 -37
22 -41 8 -1 11 2 6 9 -5 9 -2 10 9 6 14 -5 15 -2 6 19 -5 14 -7 30 -3 35 3 5
4 8 2 8 -2 -1 -15 -4 -30 -6z"/>
<path d="M5180 4491 c0 -6 -6 -11 -12 -11 -7 -1 -28 -14 -47 -30 -19 -16 -38
-27 -42 -24 -5 3 -38 -21 -73 -53 -134 -120 -151 -133 -198 -149 -27 -8 -46
-19 -43 -24 3 -5 -8 -11 -25 -15 -41 -9 -100 -70 -100 -104 0 -14 -4 -40 -9
-57 -5 -17 -5 -55 0 -85 4 -30 10 -80 12 -112 3 -32 7 -60 9 -63 8 -7 59 14
98 41 20 14 51 27 70 30 25 4 10 -6 -53 -36 -62 -30 -87 -47 -85 -58 2 -9 13
-17 26 -19 31 -5 27 -21 -9 -36 l-30 -13 23 -16 c20 -14 21 -18 8 -27 -12 -10
-10 -11 10 -6 63 16 85 18 70 7 -13 -10 -13 -11 0 -11 8 0 37 7 64 15 27 8 68
15 91 15 24 0 56 7 71 15 33 17 74 20 74 5 0 -5 -9 -10 -19 -10 -14 0 -18 -5
-14 -20 3 -12 0 -21 -8 -22 -8 -1 15 -4 50 -7 61 -6 64 -7 48 -23 -11 -10 -13
-19 -7 -23 18 -11 10 -22 -21 -29 -40 -8 -99 -36 -99 -47 0 -5 11 -9 24 -9 22
0 44 -16 34 -25 -2 -2 -50 -7 -107 -11 -95 -6 -104 -6 -98 9 5 12 1 17 -13 17
-10 0 -25 7 -34 15 -18 18 -93 19 -121 2 -24 -14 -30 -48 -15 -78 12 -22 21
-22 105 0 44 12 156 14 203 5 29 -6 50 -30 37 -42 -3 -3 -40 -5 -83 -5 l-77 1
55 -12 c59 -12 100 -31 100 -46 0 -6 -10 -10 -22 -10 -21 0 -21 0 -2 -15 24
-18 24 -18 -119 -15 -109 2 -119 1 -115 -16 5 -25 54 -39 83 -24 25 13 75 6
75 -10 0 -6 -17 -11 -37 -11 -51 -2 -100 -13 -88 -20 6 -4 27 -9 48 -13 45 -8
40 -26 -9 -26 -19 0 -34 -4 -34 -9 0 -5 11 -28 24 -52 40 -72 162 -390 180
-467 28 -122 17 -228 -30 -303 -26 -41 -91 -88 -169 -120 -37 -15 -52 -26 -48
-36 5 -12 -3 -14 -37 -11 -36 3 -44 0 -51 -20 -7 -18 -5 -22 11 -22 10 0 22
-4 25 -10 4 -6 -7 -10 -25 -10 -20 0 -32 -6 -36 -17 -3 -10 -10 -26 -15 -35
-16 -31 -10 -87 11 -110 24 -26 20 -34 -9 -18 -19 9 -22 7 -32 -16 -15 -41 -8
-68 21 -74 53 -11 206 -110 170 -110 -12 0 -12 -2 1 -16 9 -8 38 -17 65 -19
66 -5 114 -24 158 -63 20 -17 45 -32 55 -32 25 0 52 -32 42 -49 -5 -8 -15 -11
-23 -8 -16 6 -42 -28 -33 -43 4 -6 1 -10 -6 -10 -7 0 -5 -6 6 -14 14 -10 17
-21 12 -49 -5 -32 -2 -39 26 -61 34 -27 31 -45 -5 -29 -17 8 -30 7 -50 -5 -25
-15 -28 -14 -60 10 -18 13 -60 41 -93 62 l-60 37 65 -62 c36 -34 80 -73 98
-86 17 -14 32 -32 32 -39 0 -16 -36 -19 -45 -4 -4 6 -11 8 -16 4 -5 -3 -16 0
-24 6 -27 23 -17 -15 11 -41 34 -32 45 -54 38 -74 -5 -12 -14 -15 -31 -10 -24
6 -24 5 -9 -17 9 -12 16 -26 16 -30 0 -13 -34 4 -65 33 -73 68 -108 99 -201
179 -54 47 -111 98 -127 114 -15 15 -31 26 -34 23 -3 -4 -8 -26 -10 -50 -7
-59 22 -103 156 -240 58 -59 108 -113 110 -118 9 -28 -57 33 -134 122 -97 111
-118 127 -140 105 -8 -8 -20 -16 -26 -18 -20 -7 1 -33 73 -93 37 -30 72 -64
78 -75 11 -21 11 -21 -22 -4 -18 9 -53 35 -78 56 -25 22 -46 35 -48 28 -3 -7
-14 -2 -29 12 l-25 23 22 -37 c12 -21 46 -62 75 -91 33 -35 50 -59 45 -67 -11
-17 -35 -2 -99 65 -29 31 -55 54 -58 51 -3 -2 9 -24 26 -48 96 -132 111 -158
97 -158 -9 0 -34 26 -57 57 -54 75 -107 131 -141 149 -55 29 -51 14 17 -72 54
-67 113 -170 103 -180 -3 -2 -32 24 -65 58 -56 60 -103 96 -103 81 0 -3 11
-25 25 -48 31 -54 67 -146 60 -153 -10 -10 -46 33 -58 69 -21 60 -100 189
-120 195 -30 10 -40 -10 -18 -37 10 -13 35 -54 56 -89 69 -121 82 -140 89
-133 4 4 4 0 0 -10 -9 -24 -24 -10 -59 55 -30 57 -93 148 -110 160 -16 12 -25
9 -25 -7 0 -12 -4 -13 -19 -5 -30 16 -33 13 -29 -29 3 -31 1 -37 -9 -29 -7 6
-2 -14 11 -43 28 -60 45 -136 29 -126 -6 4 -18 28 -28 54 -20 54 -72 150 -85
158 -6 3 -7 0 -4 -8 8 -21 -14 -31 -33 -15 -15 11 -16 11 -9 -7 30 -73 45
-114 51 -145 7 -35 7 -35 -12 -15 -25 27 -43 70 -43 104 0 15 -7 36 -16 47
-15 18 -15 18 -5 -3 14 -29 14 -40 -1 -25 -7 7 -18 12 -25 12 -11 0 -11 -5 1
-27 7 -16 18 -45 24 -65 8 -31 8 -38 -3 -38 -8 0 -21 12 -29 28 -9 16 -16 21
-17 12 -1 -8 -5 -1 -9 15 -7 27 -8 25 -9 -18 -1 -30 6 -61 19 -84 11 -21 20
-43 20 -50 0 -7 3 -13 8 -13 16 0 102 -231 102 -275 0 -8 5 -26 12 -42 12 -29
15 -38 17 -51 2 -16 59 -70 77 -74 10 -2 18 -10 17 -16 -2 -7 6 -12 16 -12 10
0 21 -7 25 -15 3 -8 14 -15 25 -15 11 0 23 -4 26 -10 3 -5 16 -10 29 -10 12 0
26 -4 32 -9 5 -4 38 -14 74 -21 106 -21 163 -46 183 -80 l18 -30 435 0 434 0
0 2226 c0 1933 -2 2225 -15 2221 -7 -3 -27 0 -42 8 -15 7 -59 18 -98 23 -38 6
-78 13 -87 17 -11 4 -18 3 -18 -4z"/>
<path d="M2863 4333 c-66 -109 -80 -133 -100 -173 -12 -25 -29 -65 -38 -90
-14 -43 -14 -46 5 -62 19 -15 19 -17 3 -33 -13 -14 -14 -21 -5 -36 10 -15 9
-19 -1 -19 -9 0 -13 -20 -14 -70 0 -54 -5 -76 -19 -91 -16 -17 -16 -22 -4 -29
45 -29 98 -2 135 68 44 82 119 217 136 242 41 64 59 104 59 131 0 59 -83 189
-121 189 -10 0 -26 -12 -36 -27z"/>
<path d="M2497 4268 c-35 -10 -38 -12 -32 -39 6 -26 4 -29 -17 -27 -17 2 -24
-3 -26 -19 -2 -13 -11 -28 -21 -35 -18 -14 -55 -97 -47 -105 3 -3 -9 -17 -25
-30 -32 -27 -72 -96 -62 -107 4 -3 0 -6 -8 -6 -10 -1 -8 -5 5 -15 19 -15 19
-15 -2 -15 -12 0 -22 -4 -22 -9 0 -4 -12 -24 -27 -44 -16 -19 -37 -50 -48 -69
-48 -81 -80 -137 -107 -188 -17 -30 -36 -62 -44 -71 -8 -8 -14 -21 -14 -27 0
-6 -17 -37 -38 -69 -59 -89 -134 -232 -127 -242 3 -5 0 -13 -6 -16 -6 -4 0
-13 16 -21 21 -11 51 -12 128 -7 92 6 103 9 134 36 20 17 32 36 29 44 -3 8 -1
11 4 8 6 -3 10 3 10 13 0 11 7 25 15 32 27 22 16 30 -44 30 -33 0 -63 5 -66
11 -4 6 -1 10 6 8 8 -1 43 -1 79 0 53 1 67 5 75 20 41 76 58 102 74 111 11 5
60 10 109 10 49 0 91 2 94 5 8 8 -14 95 -24 95 -4 0 -8 5 -8 10 0 6 6 10 14
10 18 0 106 90 106 109 0 4 -28 14 -62 22 -78 17 -82 33 -33 109 19 30 35 64
35 76 0 12 7 28 17 35 9 8 23 29 30 48 13 31 13 36 -1 47 -24 17 -19 27 9 22
27 -6 35 9 10 18 -21 8 -19 21 5 27 17 4 19 9 10 32 -5 14 -10 43 -10 64 0 22
-8 48 -19 62 -10 13 -17 32 -15 42 3 19 -4 19 -59 5z"/>
<path d="M3457 3979 c-9 -5 -22 -7 -27 -4 -6 4 -10 -6 -10 -22 0 -39 55 -106
81 -98 14 5 19 1 19 -14 0 -12 -6 -21 -12 -22 -7 0 -4 -4 7 -8 30 -12 50 -2
28 15 -16 12 -16 15 -3 24 8 5 27 10 43 10 20 0 30 7 37 26 6 14 19 28 31 31
32 9 19 38 -19 41 -20 2 -32 9 -32 18 0 11 -15 14 -62 14 -35 0 -71 -5 -81
-11z"/>
<path d="M4084 3948 c-26 -18 -52 -42 -58 -52 -6 -11 -18 -27 -26 -37 -42 -49
-42 -49 -23 -49 17 -1 17 -2 -1 -15 -11 -8 -28 -15 -38 -15 -30 0 -58 -58 -58
-121 0 -43 -5 -60 -20 -74 -10 -9 -28 -35 -39 -56 l-20 -38 29 -18 c17 -9 30
-21 30 -25 0 -14 -37 -9 -50 7 -10 12 -18 5 -52 -45 l-39 -59 21 -23 c23 -24
21 -44 -3 -42 -12 1 -15 -6 -13 -34 4 -43 27 -62 75 -62 20 0 43 -4 50 -9 15
-10 16 -10 -64 -26 -14 -3 -38 1 -55 10 -46 24 -78 19 -114 -17 -40 -42 -86
-104 -86 -117 0 -5 -7 -16 -14 -24 -8 -8 -24 -31 -35 -51 -12 -20 -29 -51 -40
-68 -10 -18 -67 -118 -126 -223 -116 -206 -179 -307 -210 -340 -28 -29 -68
-43 -150 -50 -89 -8 -132 -22 -146 -46 -15 -29 -4 -51 41 -85 21 -16 41 -39
44 -50 3 -12 19 -27 35 -34 16 -6 39 -22 52 -36 12 -13 27 -24 34 -24 15 0
105 -93 105 -108 0 -7 4 -12 9 -12 5 0 14 -15 21 -32 6 -18 20 -49 29 -68 10
-19 23 -61 30 -92 14 -65 58 -128 106 -151 17 -8 64 -25 105 -38 41 -13 77
-27 78 -31 2 -5 12 -8 22 -8 19 0 20 14 5 53 -11 27 9 20 33 -13 12 -16 31
-34 43 -40 19 -10 20 -10 10 9 -16 29 -13 41 9 41 13 0 20 -7 20 -18 0 -25 31
-51 57 -49 17 1 19 4 11 14 -6 8 -8 17 -4 21 4 4 17 -4 27 -18 47 -60 48 -60
98 -60 52 0 116 21 104 35 -5 4 2 2 15 -4 12 -6 22 -16 22 -21 0 -6 5 -10 10
-10 6 0 10 7 10 16 0 11 6 14 20 9 15 -5 20 -2 20 10 0 11 5 15 15 11 20 -7
19 0 -6 36 -12 16 -18 32 -15 35 3 4 -1 17 -10 30 -15 23 -15 24 5 14 11 -6
23 -16 26 -21 3 -6 10 -10 15 -10 14 0 -10 51 -37 81 -13 14 -23 28 -23 32 0
17 34 4 58 -21 32 -34 72 -58 72 -42 0 13 -37 50 -51 50 -5 0 -8 4 -5 9 3 5
-3 11 -14 14 -11 3 -20 11 -20 17 0 9 3 10 13 1 8 -6 17 -8 20 -4 4 3 18 -4
31 -16 l23 -22 5 25 c3 14 2 27 -1 28 -3 2 -17 16 -31 32 l-25 29 30 -19 30
-18 -17 20 c-24 28 -23 47 2 39 20 -6 28 9 10 20 -13 8 -13 45 -1 45 6 0 11
15 13 32 2 24 9 34 23 37 11 2 23 8 27 15 13 19 9 63 -7 76 -8 7 -15 21 -15
31 0 10 -13 25 -29 34 -17 8 -33 19 -36 25 -11 18 25 10 45 -10 38 -38 78 -15
41 24 -27 29 -27 40 3 32 21 -5 25 -2 29 27 3 17 12 66 20 107 15 73 15 76 -6
98 -20 21 -12 33 9 12 6 -6 31 11 71 49 60 57 61 59 38 65 -14 4 -25 11 -25
16 0 15 18 12 51 -7 25 -15 31 -15 38 -4 5 7 14 10 20 7 6 -4 11 -2 11 3 0 6
-7 11 -15 11 -8 0 -15 5 -15 10 0 13 27 13 35 0 6 -9 25 -4 86 22 22 10 59 73
47 82 -1 2 -39 15 -84 30 -45 15 -90 34 -100 42 -18 15 -18 15 6 8 50 -14 121
-16 135 -4 36 30 -45 84 -90 60 -23 -12 -45 -7 -45 11 0 5 12 10 28 10 15 1 1
7 -33 13 -73 15 -124 41 -60 31 22 -4 65 -7 95 -8 50 -2 55 0 52 18 -2 11 -4
28 -6 39 -4 28 -33 39 -87 33 -51 -6 -63 0 -53 27 7 19 34 22 34 4 0 -9 16
-13 45 -13 25 0 45 1 45 2 0 21 -37 84 -52 89 -14 4 -18 12 -15 25 4 16 1 19
-13 14 -25 -8 -35 11 -13 24 17 9 17 12 -1 63 -30 82 -56 118 -88 118 -16 0
-28 5 -28 10 0 6 6 10 14 10 23 0 27 15 11 48 -9 17 -27 33 -43 37 l-27 8 33
9 c37 10 44 38 10 38 -18 0 -20 2 -8 10 23 14 2 25 -46 24 -24 0 -44 3 -44 8
0 4 22 8 48 8 54 0 63 5 55 26 -4 11 -14 13 -34 9 -25 -6 -29 -3 -29 14 0 18
3 19 24 11 42 -16 52 18 11 40 -14 7 -25 17 -25 22 0 4 11 8 25 8 19 0 25 5
25 22 0 12 -7 29 -16 39 -12 14 -13 22 -4 38 9 18 6 25 -20 51 -21 21 -41 30
-62 30 -25 0 -29 3 -20 12 7 7 24 13 39 14 29 1 41 29 16 38 -8 3 -12 10 -9
15 3 5 -5 12 -19 15 -30 8 -33 26 -4 26 15 0 19 4 15 16 -3 9 -6 18 -6 20 0 2
-9 4 -20 4 -25 0 -25 9 -2 26 15 12 15 13 1 14 -9 0 -38 -15 -65 -32z"/>
<path d="M4490 3945 c-14 -7 -55 -27 -92 -44 -38 -16 -68 -35 -68 -40 0 -6 21
2 48 18 54 34 102 49 102 32 0 -6 -4 -11 -10 -11 -17 0 -65 -61 -65 -84 0 -16
-7 -22 -35 -26 -33 -5 -35 -7 -32 -40 2 -19 11 -51 21 -71 14 -30 15 -40 5
-54 -14 -19 -8 -107 8 -113 4 -2 6 -8 2 -13 -3 -5 0 -8 7 -7 7 2 15 -5 17 -14
2 -11 -2 -18 -12 -18 -22 0 -30 -43 -16 -87 16 -48 28 -63 60 -75 24 -9 24
-10 5 -20 -11 -6 -21 -12 -23 -13 -6 -5 77 -161 92 -174 9 -8 16 -28 16 -46 0
-18 9 -55 21 -83 17 -41 27 -52 50 -56 16 -4 42 -9 59 -12 53 -10 40 -20 -21
-16 l-59 4 22 -42 c13 -24 38 -52 55 -63 28 -16 31 -22 22 -39 -8 -15 -7 -32
5 -68 18 -55 21 -113 6 -140 -15 -27 -104 -89 -139 -96 -17 -4 -31 -13 -31
-20 0 -10 -13 -14 -43 -14 -67 0 -85 -18 -131 -134 -21 -52 -20 -78 5 -110 13
-16 15 -24 6 -20 -23 8 -38 -22 -44 -85 -6 -68 6 -94 43 -89 12 2 44 -12 75
-34 69 -47 95 -52 91 -18 -2 14 -4 35 -4 47 0 14 -18 34 -54 60 -58 42 -73 70
-28 52 15 -5 40 -21 56 -34 16 -14 33 -25 38 -25 19 0 32 32 27 67 -3 31 2 46
30 86 27 38 30 49 18 53 -29 11 -15 24 27 24 l42 0 -34 25 c-19 14 -53 31 -75
37 -25 7 -34 13 -22 15 21 5 109 -23 152 -48 28 -17 34 -17 74 -3 25 8 56 23
70 32 14 9 35 22 46 28 71 39 81 218 20 384 -45 125 -170 425 -180 432 -5 4
-23 8 -40 8 -28 1 -29 2 -11 15 19 15 14 35 -10 35 -22 0 -16 17 9 24 l22 6
-26 24 c-20 17 -27 33 -27 58 0 61 -14 76 -69 72 -47 -4 -48 -4 -13 7 50 15
56 25 20 33 -17 3 -29 10 -26 14 3 5 -4 19 -15 31 -11 12 -17 25 -14 31 3 5
-3 13 -12 19 -15 8 -10 10 22 11 33 0 42 5 53 27 21 46 17 51 -35 42 -53 -10
-67 -19 -32 -20 18 0 14 -4 -16 -13 -23 -7 -39 -18 -37 -25 3 -16 -20 -9 -26
7 -2 7 3 12 12 12 9 0 16 7 16 15 0 8 16 19 38 25 77 22 78 24 67 126 -7 65
-14 90 -22 87 -18 -6 -16 8 2 21 12 9 14 18 6 41 -5 17 -12 42 -15 58 -7 31
-11 32 -46 12z"/>
<path d="M3350 3818 c-41 -5 -76 -11 -78 -13 -3 -2 -4 -22 -4 -45 1 -38 -5
-45 -35 -41 -15 2 -17 -37 -3 -59 8 -13 10 -12 10 3 0 18 25 24 35 7 16 -26
104 -3 106 27 1 17 9 16 9 -1 0 -22 53 -18 58 4 2 12 -7 16 -35 18 -21 2 -50
11 -65 22 -15 11 -32 20 -38 20 -18 0 -11 19 11 31 12 6 36 8 55 4 44 -8 75 1
67 21 -3 7 -8 13 -12 13 -3 -1 -40 -6 -81 -11z"/>
<path d="M2639 3674 c-38 -19 -104 -113 -90 -127 17 -17 13 -26 -9 -20 -30 8
-26 -32 6 -62 23 -22 37 -25 103 -26 164 -3 191 3 191 46 0 25 70 95 94 95 8
0 27 11 43 24 l28 24 -70 7 c-39 4 -97 16 -130 27 -77 26 -133 30 -166 12z"/>
<path d="M2563 3353 c-49 -12 -63 -20 -63 -35 0 -13 8 -18 31 -18 17 0 28 -4
24 -10 -3 -5 -19 -10 -35 -10 -32 0 -40 -16 -38 -78 1 -29 4 -33 27 -30 18 2
26 -2 26 -12 1 -44 58 -56 181 -39 87 12 96 20 72 58 -6 10 -8 27 -4 37 7 18
9 17 28 -6 l21 -25 -8 23 c-6 20 -4 23 12 20 17 -3 18 -14 15 -143 -1 -77 -5
-166 -8 -199 -3 -32 -3 -77 0 -101 l7 -43 46 2 c39 1 49 5 62 28 163 279 197
329 217 321 13 -5 13 -8 0 -27 -15 -21 -70 -116 -192 -334 -38 -67 -81 -144
-96 -170 -21 -35 -27 -57 -24 -85 3 -31 1 -37 -12 -35 -10 2 -16 -3 -15 -9 2
-7 -1 -13 -6 -13 -6 0 -6 -10 0 -28 8 -24 17 -29 72 -39 106 -20 172 3 204 72
7 17 29 55 48 85 19 30 40 71 46 90 7 19 24 51 39 70 25 33 97 155 145 246 12
23 29 52 38 65 10 13 17 31 17 40 0 9 8 27 19 40 30 40 35 66 11 72 -28 7 -25
27 4 27 17 0 29 9 39 30 21 41 6 50 -90 57 -43 3 -88 13 -100 21 -13 7 -38 14
-58 14 -19 0 -38 4 -41 9 -3 5 -25 9 -49 9 -57 0 -197 20 -210 30 -14 11 -67
20 -150 25 -38 3 -97 7 -130 9 -38 4 -83 -1 -122 -11z"/>
<path d="M1843 3053 c-31 -12 -3 -91 39 -114 15 -8 27 -3 65 31 25 22 48 38
51 36 2 -3 -14 -27 -37 -54 -38 -47 -52 -70 -33 -58 5 3 30 7 56 11 51 6 111
43 121 75 10 31 -21 67 -63 74 -43 7 -181 7 -199 -1z"/>
<path d="M2480 2973 c-41 -46 -93 -112 -100 -128 -8 -18 -86 -85 -99 -85 -12
0 -52 -20 -61 -31 -3 -3 -52 -18 -110 -33 -58 -15 -130 -34 -160 -42 -30 -8
-61 -16 -68 -18 -7 -1 -22 -10 -33 -19 -10 -9 -26 -17 -34 -17 -8 0 -15 -4
-15 -10 0 -5 -5 -10 -12 -10 -17 0 -135 -58 -143 -70 -3 -5 -13 -10 -21 -10
-8 0 -23 -8 -33 -17 -24 -23 -37 -63 -21 -63 7 0 10 -7 6 -15 -3 -8 -2 -15 2
-15 14 0 32 24 32 41 0 18 17 35 26 27 2 -3 -3 -21 -11 -41 -17 -41 -20 -72
-4 -44 5 9 17 17 25 17 12 0 9 -7 -10 -30 l-25 -31 42 -53 c23 -29 51 -65 61
-80 11 -15 33 -37 48 -48 27 -19 30 -19 47 -4 25 23 43 20 39 -6 -2 -17 -9
-22 -26 -21 -12 2 -22 -1 -22 -6 0 -13 41 -103 60 -131 9 -14 27 -53 39 -87
13 -34 31 -69 41 -78 17 -15 20 -15 44 0 18 12 26 13 26 5 0 -7 7 -10 16 -6 9
4 1 -11 -19 -33 -34 -38 -36 -43 -31 -97 2 -32 12 -82 20 -111 8 -29 13 -57 9
-63 -3 -5 -1 -10 5 -10 6 0 13 7 16 15 4 8 12 15 20 15 10 0 9 -10 -6 -46 -24
-54 -24 -60 -6 -45 11 9 15 9 18 0 2 -7 20 4 41 26 43 44 49 28 11 -28 -14
-22 -32 -36 -41 -35 -11 2 -21 -12 -33 -47 -10 -30 -19 -44 -22 -35 -3 8 -5
-11 -5 -42 1 -32 5 -59 9 -59 4 -1 14 -2 20 -3 7 0 14 -10 16 -21 3 -17 1 -18
-8 -5 -10 12 -11 11 -5 -5 4 -11 7 -33 7 -50 l-2 -30 20 35 c10 19 32 51 49
70 27 32 30 33 31 13 0 -12 -9 -28 -21 -36 -22 -16 -48 -77 -49 -115 0 -19 3
-21 19 -12 11 5 23 20 27 32 4 13 13 32 20 43 13 17 14 9 10 -65 -4 -86 -11
-120 -26 -120 -9 0 -35 -75 -44 -127 -5 -32 7 -54 18 -31 3 7 3 -4 0 -25 -3
-25 -2 -37 5 -33 11 7 41 133 41 175 0 17 11 56 25 88 23 51 24 59 10 69 -16
12 -22 39 -5 29 5 -3 14 13 20 35 10 36 30 56 30 30 0 -6 8 -10 18 -8 12 2 16
-3 14 -17 -2 -19 -2 -19 9 -1 17 28 29 2 29 -67 0 -73 22 -74 31 -1 3 27 7 40
7 30 2 -18 3 -18 21 -2 10 10 21 14 24 9 2 -4 -4 -48 -15 -98 -10 -49 -22
-106 -25 -125 -3 -19 -9 -39 -13 -45 -4 -5 -11 -33 -15 -62 l-7 -51 97 -7
c138 -11 200 -4 222 24 18 23 18 24 -2 66 -18 39 -23 42 -50 38 -26 -4 -27 -3
-12 7 15 9 17 20 12 48 -6 39 15 118 31 115 5 -1 11 -11 14 -22 4 -18 7 -18
24 -5 16 11 20 28 23 86 1 39 7 76 13 82 5 5 10 21 10 34 0 17 4 22 14 19 8
-3 17 1 20 9 8 21 9 20 -18 38 -24 15 -25 15 -40 -27 l-16 -42 5 57 c5 56 4
57 -27 72 -20 10 -43 14 -63 10 -26 -5 -33 -2 -42 18 -11 22 -12 22 -12 2 -1
-22 -30 -54 -49 -54 -19 0 -14 34 9 59 23 25 22 30 -9 36 -14 2 -19 -1 -16
-10 3 -7 -3 -15 -13 -18 -16 -4 -16 -5 0 -6 9 0 17 -6 17 -12 0 -7 -12 -9 -32
-5 -27 4 -36 1 -51 -19 -10 -14 -15 -30 -12 -35 10 -16 -19 -50 -34 -40 -8 4
-10 13 -7 19 4 6 0 12 -8 13 -9 0 -20 1 -26 2 -5 1 -27 -16 -50 -37 -22 -21
-40 -33 -40 -27 0 14 59 75 79 81 7 3 14 14 15 24 1 11 10 44 20 73 17 50 17
57 1 158 -9 59 -14 117 -11 130 4 14 2 24 -4 24 -5 0 -10 11 -10 25 0 15 -7
39 -15 56 -10 19 -13 35 -7 47 5 9 7 22 5 29 -2 6 1 14 6 18 6 3 11 24 11 46
0 21 4 39 9 39 5 0 7 -18 4 -40 -3 -22 -3 -40 1 -40 3 0 17 24 31 53 28 60 43
81 68 90 9 3 17 13 17 22 0 8 4 15 9 15 5 0 13 9 16 21 4 11 20 35 35 53 47
53 60 106 60 249 0 70 3 127 8 127 4 0 6 32 4 70 -4 73 15 145 58 231 11 21
20 54 20 74 0 19 5 35 10 35 15 0 12 42 -5 64 -8 11 -31 20 -57 23 -40 5 -45
2 -78 -34z"/>
<path d="M10 2822 c-7 -3 -10 -219 -10 -652 l0 -648 30 11 c17 6 30 15 30 19
0 4 6 8 13 8 8 0 29 7 47 16 30 15 62 26 130 41 14 3 38 17 53 29 16 13 32 24
37 24 5 0 30 21 57 47 26 25 39 43 28 38 -31 -13 -68 -11 -72 3 -3 6 1 12 9
12 7 1 29 15 48 32 l35 31 -33 -19 c-17 -10 -32 -22 -32 -26 0 -4 -7 -8 -15
-8 -19 0 -19 9 3 42 22 33 52 57 124 98 68 38 70 40 53 63 -12 16 -15 16 -63
-8 -28 -14 -64 -36 -79 -49 -15 -12 -37 -27 -47 -33 -20 -11 -56 -6 -56 7 0
10 115 96 188 140 28 17 52 33 52 36 0 12 -78 -17 -170 -63 -58 -29 -108 -53
-112 -53 -5 0 -8 6 -8 14 0 17 144 124 180 133 14 4 31 12 38 20 7 7 31 16 51
19 21 3 50 16 63 29 13 12 34 25 45 29 11 4 29 16 39 28 19 21 19 21 -18 16
-21 -2 -38 -1 -38 4 0 4 -16 -4 -36 -17 -34 -23 -64 -32 -64 -20 0 3 19 18 41
35 30 21 48 28 65 24 15 -4 24 -2 24 5 0 6 5 11 11 11 5 0 8 -4 5 -8 -2 -4 10
-6 29 -4 22 3 46 17 75 47 l42 43 -44 -3 c-24 -2 -60 -13 -80 -25 -21 -12 -45
-20 -55 -18 -28 5 42 50 84 54 60 5 88 22 111 70 l22 45 -47 -27 c-27 -15 -64
-37 -83 -48 -19 -11 -46 -21 -60 -22 -31 -2 -173 -96 -158 -105 15 -9 -11 -23
-46 -25 -18 -1 -36 -11 -47 -25 -18 -24 -18 -24 14 -29 l31 -5 -27 -12 c-39
-18 -61 -17 -53 3 6 14 0 16 -36 12 -24 -3 -56 -2 -73 1 l-30 6 30 21 c57 40
143 84 161 84 17 0 16 -3 -6 -20 -38 -30 3 -14 65 25 28 18 91 51 140 75 158
75 174 84 178 102 3 10 14 18 25 18 10 0 31 9 46 21 21 16 25 26 20 47 -9 40
-27 54 -68 54 -20 0 -39 5 -42 10 -9 14 17 29 38 22 21 -6 32 11 15 25 -10 8
-22 7 -45 -1 -40 -15 -52 -4 -22 20 44 35 0 56 -56 27 -38 -20 -73 -19 -97 2
-18 17 -20 17 -37 -5 -19 -22 -50 -30 -50 -12 0 6 -28 10 -64 10 -42 0 -80 7
-111 20 -26 11 -59 20 -73 20 -15 0 -42 9 -60 20 -19 12 -31 16 -27 10 8 -13
-8 -13 -21 0 -10 10 -132 19 -154 12z"/>
<path d="M1338 2351 c-58 -33 -62 -37 -53 -51 5 -8 14 -7 31 4 26 18 50 21 59
7 3 -5 -13 -20 -36 -33 -38 -21 -40 -24 -34 -57 8 -41 69 -137 96 -152 11 -5
19 -16 19 -23 0 -19 80 -107 91 -100 5 3 9 -6 9 -19 0 -31 10 -40 27 -25 11 9
13 5 11 -19 -1 -16 7 -45 19 -64 11 -19 26 -52 32 -74 7 -22 16 -49 21 -60 8
-19 22 -70 24 -90 13 -99 20 -143 25 -158 6 -17 8 -17 34 3 15 12 27 28 27 35
0 18 68 70 78 61 4 -4 -4 -16 -18 -27 -44 -34 -51 -41 -46 -46 2 -3 10 -1 17
3 7 4 26 9 42 11 25 3 28 1 17 -12 -7 -8 -17 -15 -23 -15 -5 0 -20 -11 -33
-26 -25 -26 -31 -40 -14 -29 20 12 9 -12 -15 -35 -28 -27 -31 -42 -11 -59 10
-9 15 -8 19 2 3 8 21 22 41 31 42 20 66 67 66 130 0 22 7 49 14 59 13 17 13
29 -9 125 -3 13 -10 20 -16 16 -19 -11 -29 19 -13 37 12 13 13 25 5 60 -15 65
-84 207 -153 314 -34 52 -103 119 -116 111 -12 -7 -35 18 -25 27 3 4 -1 7 -10
7 -9 0 -17 6 -17 14 0 8 -9 21 -20 29 -11 8 -28 31 -38 51 -10 21 -22 37 -25
37 -21 -3 -27 1 -27 14 0 21 -17 17 -72 -14z"/>
<path d="M1075 2229 c-5 -5 -31 -25 -57 -44 -31 -23 -45 -40 -42 -50 4 -8 11
-12 16 -9 6 4 9 1 6 -6 -2 -8 -13 -18 -23 -24 -11 -6 -37 -25 -59 -43 -21 -18
-42 -30 -46 -28 -7 5 -32 -66 -25 -73 7 -7 33 13 107 83 41 39 86 80 101 92
31 26 37 56 10 46 -15 -6 -16 -4 -5 9 7 9 24 19 38 22 21 6 24 9 14 21 -14 17
-21 18 -35 4z"/>
<path d="M1105 2163 c-11 -20 -71 -87 -132 -149 -62 -63 -113 -118 -113 -124
0 -13 27 -13 35 0 3 6 15 10 25 10 26 0 120 91 101 98 -9 3 -5 11 14 28 16 13
32 24 37 24 14 0 9 -17 -7 -24 -22 -8 -3 -52 21 -48 15 3 17 1 7 -9 -7 -7 -19
-14 -26 -15 -36 -5 -137 -85 -137 -107 0 -14 -24 -46 -80 -111 -19 -22 -29
-36 -21 -32 19 12 6 -29 -25 -77 -26 -40 -55 -58 -62 -39 -5 17 -37 15 -52 -3
-7 -8 -20 -15 -29 -15 -25 0 -164 -31 -183 -41 -10 -5 -34 -9 -54 -9 -19 0
-43 -4 -52 -9 -9 -5 -35 -11 -57 -14 -22 -3 -57 -12 -77 -21 -21 -9 -47 -16
-58 -16 -11 0 -20 -4 -20 -8 0 -5 -23 -19 -52 -33 -29 -13 -65 -37 -80 -53
l-28 -29 0 -668 0 -669 1625 0 c1438 0 1625 2 1625 15 0 8 5 15 10 15 6 0 10
-7 10 -15 0 -13 68 -15 550 -15 360 0 550 3 550 10 0 6 -9 10 -20 10 -11 0
-35 9 -55 20 -20 11 -47 20 -61 20 -14 0 -33 4 -42 9 -9 5 -28 11 -42 12 -14
2 -41 20 -60 39 -19 19 -44 40 -55 46 -29 15 -84 103 -91 144 -13 80 -35 126
-88 188 -26 29 -42 28 -55 -5 -16 -39 -53 -107 -71 -128 -8 -10 -35 -28 -60
-39 -45 -21 -50 -21 -1035 -18 -544 1 -1008 5 -1029 8 -65 10 -105 32 -132 74
-26 39 -27 44 -21 143 4 56 11 127 16 157 5 30 12 91 15 135 7 107 17 178 27
191 14 17 20 92 8 100 -11 6 -5 62 11 93 4 9 17 48 29 87 45 150 15 379 -66
503 l-16 25 -24 -45 c-13 -24 -21 -33 -17 -19 3 14 10 29 15 34 11 12 12 50 2
59 -3 4 -20 -17 -36 -46 -17 -29 -32 -46 -35 -39 -2 8 10 34 28 58 20 29 29
51 25 63 -9 28 -66 81 -88 81 -14 0 -17 5 -12 20 5 15 -6 33 -45 74 -56 59
-78 70 -108 52 -11 -6 -35 -19 -53 -29 l-34 -18 27 23 c15 13 38 31 53 42 l27
18 -23 24 c-31 33 -51 30 -74 -13z"/>
<path d="M2610 2060 c0 -27 -37 -47 -43 -22 -3 9 -3 -2 -1 -25 3 -39 76 -198
87 -191 3 2 16 -13 29 -32 18 -27 30 -34 49 -32 32 4 60 -25 38 -39 -11 -7 -9
-9 9 -9 12 0 22 5 22 10 0 6 7 10 15 10 8 0 15 -4 15 -10 0 -5 -7 -10 -15 -10
-8 0 -15 -4 -15 -9 0 -15 23 -26 48 -22 13 1 28 -2 35 -7 7 -5 31 -12 54 -15
40 -5 42 -4 48 25 l7 30 24 -26 c32 -34 40 -33 48 5 7 35 -19 104 -47 128 -10
7 -17 20 -17 27 0 8 -5 14 -11 14 -15 0 -34 22 -34 40 0 9 -7 14 -17 12 -10
-2 -18 2 -18 7 0 6 -6 8 -13 5 -7 -2 -36 16 -66 41 -65 56 -107 59 -124 11 -6
-14 -13 -17 -35 -11 -43 10 -49 24 -14 31 18 4 32 11 32 16 0 5 10 6 23 3 17
-6 13 1 -17 29 -45 42 -96 50 -96 16z"/>
<path d="M4280 1899 c0 -36 6 -45 61 -97 61 -56 137 -107 147 -98 2 3 2 12 -1
21 -4 8 -5 17 -4 20 1 2 -23 29 -53 60 -57 57 -63 77 -7 25 29 -28 72 -48 82
-39 1 2 5 13 7 23 5 28 -127 130 -151 117 -10 -6 -23 -6 -32 0 -33 21 -49 11
-49 -32z"/>
<path d="M4580 1776 c0 -7 6 -18 13 -25 10 -11 9 -13 -3 -7 -8 4 1 -6 20 -23
19 -17 39 -31 46 -31 12 0 49 -38 43 -44 -2 -3 -26 5 -52 16 -45 20 -49 20
-65 4 -16 -16 -15 -19 20 -51 38 -35 105 -54 148 -40 l22 7 -22 20 c-29 27
-21 31 25 13 80 -34 39 15 -47 56 -27 12 -48 26 -48 31 0 13 18 9 60 -12 22
-11 45 -20 51 -20 7 0 5 8 -6 20 -10 11 -15 20 -11 20 5 0 -16 16 -45 36 -39
26 -66 36 -101 39 -32 2 -48 -1 -48 -9z"/>
<path d="M4277 1773 c-16 -15 -6 -61 18 -83 13 -12 23 -31 22 -40 -3 -25 103
-136 114 -118 12 19 12 20 -16 58 -14 19 -25 36 -25 38 0 2 16 2 35 -1 38 -5
62 12 48 37 -10 17 -82 74 -127 98 -32 19 -58 23 -69 11z"/>
<path d="M2466 1729 c-12 -59 -6 -89 29 -156 l35 -67 0 41 c0 23 5 45 12 49 8
5 9 -5 5 -39 -6 -44 7 -97 23 -97 3 0 22 -14 41 -31 l34 -30 3 26 c2 15 -1 40
-7 56 -8 23 -6 41 10 85 21 61 19 69 -29 107 -12 10 -29 25 -37 34 -10 10 -25
12 -45 8 -27 -6 -30 -4 -30 19 0 40 -36 35 -44 -5z"/>
<path d="M2701 1580 c0 -15 4 -31 9 -36 12 -12 -5 -69 -17 -61 -5 3 -8 -7 -7
-22 1 -37 33 -71 65 -71 21 0 28 -6 34 -27 4 -16 10 -22 12 -15 4 10 9 10 23
-3 14 -12 23 -14 36 -7 13 7 22 5 34 -11 13 -16 20 -18 36 -9 10 6 13 12 7 12
-14 0 -18 30 -5 30 4 0 16 -11 26 -25 18 -23 20 -24 32 -7 7 9 14 27 14 40 0
12 7 25 15 28 29 11 15 43 -44 101 -13 13 -33 23 -44 23 -16 0 -18 -5 -12 -27
3 -15 14 -32 22 -38 10 -8 14 -19 9 -30 -6 -17 -8 -16 -23 6 -9 13 -20 27 -25
30 -4 3 -9 17 -10 32 -4 48 -24 38 -25 -13 0 -26 -6 -56 -12 -66 -8 -15 -10
-6 -11 46 0 78 -18 71 -29 -14 -4 -31 -10 -58 -13 -61 -3 -3 -8 25 -12 62 -5
44 -3 69 3 71 6 2 11 15 11 28 0 17 -6 24 -19 24 -11 0 -27 7 -35 16 -15 14
-16 14 -16 -5 0 -28 -18 -27 -23 2 -4 20 -4 20 -6 -3z"/>
<path d="M3376 1344 c-11 -28 5 -59 47 -91 23 -18 56 -46 74 -63 18 -16 35
-30 38 -30 9 0 69 -44 73 -53 2 -4 22 -17 43 -28 22 -11 48 -33 57 -48 17 -28
19 -28 49 -16 21 9 35 23 39 39 3 15 13 30 22 35 14 8 13 16 -11 72 -36 86
-61 125 -91 144 -53 35 -53 -15 0 -78 37 -44 19 -47 -22 -3 -19 20 -39 34 -44
31 -5 -3 -8 11 -5 34 3 38 2 39 -23 36 -15 -1 -33 2 -40 8 -7 5 -15 7 -18 5
-3 -3 -26 1 -51 8 -64 19 -129 18 -137 -2z"/>
<path d="M3750 1305 c0 -4 92 -183 106 -207 3 -4 11 -5 19 -2 11 5 12 11 5 24
-17 32 -10 46 8 18 9 -16 23 -28 30 -28 10 0 12 7 7 28 l-7 27 26 -24 c45 -43
37 -18 -20 57 -30 39 -62 72 -70 72 -9 0 -27 9 -41 20 -23 18 -63 28 -63 15z"/>
<path d="M3146 1067 c-17 -13 -17 -16 0 -78 9 -35 26 -80 36 -99 23 -44 33
-99 21 -111 -6 -6 -16 14 -28 58 -23 86 -94 235 -108 226 -13 -8 -2 -133 18
-197 8 -28 12 -58 9 -69 -6 -18 -6 -18 -21 2 -18 27 -33 18 -33 -19 0 -35 30
-51 131 -69 66 -11 110 -8 162 11 29 11 30 17 29 123 -1 72 -44 168 -77 173
-48 7 -65 13 -61 21 14 23 -53 46 -78 28z"/>
<path d="M2224 1048 c-5 -7 -3 -8 6 -3 10 6 11 1 7 -21 -28 -142 -31 -147 -37
-74 l-5 65 -16 -55 c-9 -30 -22 -91 -29 -134 -6 -44 -14 -85 -17 -93 -4 -10
11 -13 70 -13 l75 0 6 31 c9 46 7 81 -3 74 -15 -9 -23 32 -16 77 6 31 4 39 -5
33 -10 -6 -12 8 -8 59 3 48 1 66 -8 66 -7 0 -16 -5 -20 -12z"/>
<path d="M3497 978 c-3 -13 -6 -68 -6 -123 -1 -125 -17 -192 -52 -217 -22 -17
-49 -20 -230 -24 -301 -7 -362 -17 -373 -59 -5 -19 -7 -18 -30 10 -17 21 -35
31 -62 34 -22 2 -224 5 -449 6 -469 2 -476 3 -505 68 -15 34 -20 38 -26 23 -4
-11 -14 -16 -25 -13 -10 3 -23 -1 -30 -9 -16 -19 -29 -18 -29 4 -1 15 -32 62
-42 62 -4 0 -34 -58 -41 -82 -3 -9 -16 -18 -28 -20 -30 -4 -51 -66 -47 -142 4
-84 25 -98 161 -106 125 -8 1846 -3 1902 5 61 10 73 14 80 33 20 49 34 125 35
192 1 79 -18 200 -32 200 -4 0 -8 7 -8 16 0 8 -4 12 -10 9 -6 -3 -10 4 -10 17
-1 30 -103 138 -131 138 -4 0 -9 -10 -12 -22z"/>
</g>
</svg>
