<?xml version="1.0" standalone="no"?>
<!DOCTYPE svg PUBLIC "-//W3C//DTD SVG 20010904//EN"
 "http://www.w3.org/TR/2001/REC-SVG-20010904/DTD/svg10.dtd">
<svg version="1.0" xmlns="http://www.w3.org/2000/svg"
 width="544.000000pt" height="544.000000pt" viewBox="0 0 544.000000 544.000000"
 preserveAspectRatio="xMidYMid meet">
<metadata>
Created by potrace 1.16, written by Peter Selinger 2001-2019
</metadata>
<g transform="translate(0.000000,544.000000) scale(0.100000,-0.100000)"
fill="#000000" stroke="none">
<path d="M0 2720 l0 -2720 2720 0 2720 0 0 2720 0 2720 -2720 0 -2720 0 0
-2720z m3018 2630 c153 -27 308 -67 387 -100 11 -4 36 -14 55 -21 143 -52 391
-195 525 -304 67 -54 272 -261 301 -305 13 -19 40 -57 60 -84 48 -64 124 -198
175 -305 72 -153 128 -384 143 -591 13 -175 26 -231 83 -365 246 -574 264
-623 270 -737 7 -115 -21 -212 -76 -260 -37 -33 -146 -87 -217 -108 -88 -26
-97 -47 -134 -310 -76 -544 -88 -588 -192 -693 -88 -89 -226 -145 -423 -171
-81 -11 -104 -24 -114 -65 -14 -56 -50 -236 -67 -336 -31 -190 -65 -251 -152
-274 -29 -8 -335 -11 -1059 -9 -1006 3 -1018 3 -1053 24 -19 11 -46 36 -58 55
-22 31 -24 41 -19 129 3 52 26 201 50 330 70 364 80 453 74 615 -6 151 -18
203 -78 319 -34 66 -118 180 -218 295 -91 104 -129 153 -189 242 -73 109 -172
294 -193 359 -4 14 -17 50 -28 80 -39 102 -74 244 -93 385 -33 244 -15 579 42
780 118 411 310 712 639 998 143 126 408 270 641 350 252 87 665 121 918 77z"/>
<path d="M2555 5284 c-145 -18 -211 -29 -275 -46 -41 -11 -88 -24 -105 -28
-77 -19 -171 -57 -300 -121 -215 -105 -317 -179 -501 -363 -76 -77 -254 -294
-254 -311 0 -3 -12 -24 -27 -48 -161 -253 -248 -586 -253 -962 -1 -124 14
-288 31 -340 6 -16 12 -48 16 -70 3 -22 16 -71 30 -110 14 -38 36 -102 49
-141 42 -127 111 -253 224 -412 61 -86 67 -93 128 -166 24 -28 51 -60 60 -72
37 -45 88 -108 113 -138 58 -69 118 -191 144 -291 22 -84 26 -122 26 -237 0
-75 -2 -152 -5 -170 -3 -18 -15 -89 -26 -158 -18 -112 -49 -279 -97 -531 -13
-72 -14 -92 -4 -117 27 -66 -24 -63 1070 -62 545 0 998 3 1008 6 74 24 81 40
127 309 51 289 55 305 86 336 20 21 40 29 86 34 217 24 290 43 380 101 49 33
98 85 123 132 25 47 40 121 66 322 44 340 72 498 96 536 25 40 43 51 164 93
167 59 199 96 199 231 0 109 -26 202 -119 415 -14 33 -29 69 -34 80 -5 11 -23
52 -40 91 -17 39 -31 74 -31 78 0 4 -18 45 -40 92 -61 129 -74 194 -99 469
-13 144 -24 197 -60 302 -103 300 -217 484 -446 718 -92 94 -196 185 -212 185
-6 0 -13 4 -15 8 -5 13 -132 93 -221 140 -187 99 -392 169 -574 198 -92 14
-422 26 -488 18z m532 -263 c78 -16 156 -37 172 -45 15 -8 57 -26 92 -39 139
-53 353 -182 474 -287 144 -124 295 -313 372 -465 11 -22 29 -56 40 -75 22
-39 84 -227 101 -305 12 -52 19 -136 27 -288 2 -48 12 -118 21 -155 14 -57 82
-231 113 -289 5 -10 28 -65 51 -123 23 -57 48 -113 55 -125 7 -11 30 -65 50
-120 42 -113 43 -160 3 -202 -28 -30 -51 -43 -165 -89 -106 -42 -138 -71 -151
-133 -20 -92 -41 -218 -52 -311 -7 -52 -19 -140 -27 -195 -8 -55 -19 -134 -24
-175 -15 -112 -27 -151 -65 -197 -51 -62 -127 -94 -228 -98 -125 -4 -242 10
-376 46 -41 11 -138 36 -215 55 -77 20 -144 40 -150 44 -5 4 -23 10 -40 14
-16 4 -79 22 -140 41 -60 19 -144 44 -185 56 -122 36 -160 60 -238 150 -40 45
-72 88 -72 94 0 7 -9 24 -21 39 -16 21 -29 26 -64 26 -79 0 -93 -50 -50 -179
59 -176 193 -294 400 -351 17 -5 80 -22 140 -39 300 -81 442 -162 504 -286 30
-59 34 -77 38 -173 6 -123 -6 -184 -41 -207 -21 -14 -122 -16 -809 -18 -745
-2 -786 -1 -805 16 -31 28 -31 56 -1 235 36 209 55 364 64 512 15 236 -56 488
-189 674 -25 36 -46 67 -46 69 0 3 -17 23 -37 44 -21 21 -58 62 -83 92 -25 29
-56 65 -70 79 -132 140 -282 416 -329 605 -47 188 -52 226 -58 411 -6 207 2
291 44 461 14 55 27 113 30 128 12 63 163 345 237 444 76 100 193 221 276 287
25 19 59 46 75 60 28 22 192 126 199 126 2 0 55 24 117 53 63 29 132 59 154
65 110 31 159 43 250 57 55 9 102 18 104 21 2 2 90 2 195 0 166 -3 210 -8 333
-35z"/>
<path d="M2711 4962 l-63 -3 6 -47 c5 -47 5 -47 -9 -17 -8 17 -14 36 -15 42 0
17 -44 27 -77 17 -16 -4 -31 -7 -35 -6 -4 1 -42 -3 -83 -9 l-75 -11 0 -37 -1
-36 -15 28 c-8 15 -17 27 -20 27 -3 0 -40 -11 -82 -25 -42 -14 -93 -30 -112
-36 -19 -7 -54 -25 -78 -40 -24 -16 -47 -27 -52 -24 -11 7 -241 -148 -304
-206 -70 -62 -116 -109 -116 -118 0 -4 16 -27 36 -52 l37 -44 -43 43 c-41 42
-43 42 -63 25 -11 -10 -38 -43 -60 -73 -23 -30 -44 -56 -49 -58 -4 -2 -8 -7
-8 -12 0 -5 -16 -32 -35 -61 -19 -30 -35 -61 -35 -70 0 -9 -7 -22 -15 -29 -14
-11 -14 -15 2 -32 17 -19 17 -19 -9 -13 -24 6 -28 3 -34 -22 -4 -15 -19 -53
-34 -83 -44 -89 -45 -97 -13 -114 l28 -15 -31 -1 c-27 0 -32 -5 -42 -39 -16
-51 -16 -51 18 -62 41 -15 38 -27 -7 -25 l-38 1 -7 -70 c-4 -38 -10 -116 -14
-172 l-7 -103 24 0 c35 0 69 -11 64 -20 -3 -5 -23 -6 -45 -3 l-41 6 7 -69 c3
-38 7 -78 8 -89 3 -17 13 -21 72 -26 l69 -5 -62 -2 c-34 -1 -65 -6 -68 -12 -7
-11 23 -170 35 -190 7 -11 20 -11 66 -2 87 18 109 12 29 -7 -79 -20 -89 -35
-59 -93 10 -18 19 -38 20 -44 1 -7 16 -41 33 -77 17 -36 31 -70 31 -76 0 -6 5
-11 10 -11 6 0 10 -7 10 -15 0 -8 9 -24 20 -35 11 -11 20 -24 20 -30 0 -5 9
-14 20 -20 11 -6 20 -17 20 -25 0 -11 6 -12 25 -5 30 11 33 0 6 -24 -18 -16
-18 -19 -3 -35 9 -9 42 -46 72 -81 30 -34 69 -77 86 -95 59 -62 143 -171 179
-235 21 -36 45 -78 55 -95 9 -16 25 -52 35 -80 10 -27 22 -54 27 -59 4 -6 8
-20 8 -33 0 -27 16 -30 42 -6 28 25 32 9 7 -35 -22 -38 -22 -41 -8 -128 17
-108 17 -406 0 -484 -6 -30 -14 -77 -17 -105 -2 -27 -9 -83 -15 -124 -17 -115
-18 -159 -4 -178 11 -15 40 -18 226 -23 118 -4 219 -3 225 2 6 4 13 6 16 3 2
-3 75 -7 161 -9 112 -3 159 -1 164 7 5 7 11 64 14 127 l5 115 2 -110 c1 -60 6
-116 11 -124 7 -11 50 -13 222 -13 118 1 248 5 290 8 l77 6 15 47 c16 52 9
140 -17 202 -15 35 -50 59 -86 59 -11 0 -20 5 -20 10 0 6 9 10 20 10 34 0 23
15 -27 38 -27 12 -59 28 -73 36 -14 8 -65 27 -115 42 -49 15 -122 38 -161 51
-85 28 -124 30 -124 6 0 -21 -17 -6 -22 20 -1 10 -6 18 -11 17 -4 0 -52 23
-108 52 -73 38 -119 70 -165 116 -35 35 -64 69 -64 75 -1 7 -12 -1 -26 -18
l-25 -30 6 46 c5 36 2 55 -13 86 -93 182 -77 312 44 367 36 16 49 16 96 7 30
-7 64 -20 74 -30 35 -34 64 -71 64 -83 0 -21 136 -158 157 -158 7 0 13 -4 13
-9 0 -4 28 -16 63 -25 71 -19 72 -19 110 -34 15 -7 31 -11 35 -10 4 1 14 -2
22 -5 24 -10 232 -70 300 -87 19 -5 55 -15 80 -23 236 -77 346 -100 480 -101
117 0 170 13 213 53 33 32 34 47 2 102 -34 61 -31 69 11 28 34 -32 36 -32 29
-9 -4 14 -16 37 -26 52 -28 39 -23 46 10 14 46 -44 52 -6 9 56 -26 37 -22 46
7 18 14 -13 27 -22 29 -19 4 3 28 148 39 234 2 17 7 37 11 45 4 10 -8 29 -34
55 -50 50 -51 63 -3 31 43 -30 52 -27 29 8 -21 32 -20 39 2 34 16 -5 20 8 36
115 l17 120 -28 30 -28 29 35 -17 c21 -11 35 -14 38 -7 11 35 70 77 200 142
74 37 101 56 106 73 5 23 -9 93 -24 112 -4 6 -11 26 -15 45 -9 42 -21 59 -55
73 l-25 11 24 4 23 4 -22 15 c-14 10 -18 19 -12 25 9 9 -1 38 -73 193 -35 76
-92 222 -109 278 -4 11 -16 17 -36 17 -38 0 -39 16 -2 25 28 6 29 8 26 63 -2
61 -21 246 -30 300 -4 27 -9 32 -32 33 -25 0 -26 1 -6 9 12 5 24 13 27 17 6
10 -48 172 -62 186 -6 6 -22 5 -41 -2 l-32 -11 30 31 29 30 -26 49 -26 49 -53
-31 c-29 -16 -55 -28 -58 -25 -3 2 14 20 38 38 55 43 58 47 44 73 -29 52 -98
152 -112 159 -8 4 -14 13 -14 19 0 13 -50 68 -61 68 -5 0 -27 -18 -51 -39 -23
-22 -45 -37 -48 -35 -3 3 14 23 38 45 23 22 42 46 42 53 0 8 -17 29 -39 47
-21 19 -60 53 -87 77 -26 23 -51 42 -55 42 -4 0 -21 -17 -38 -37 -35 -43 -41
-34 -11 15 11 18 20 37 20 42 0 9 -85 70 -99 70 -4 0 -27 14 -49 30 -23 17
-45 30 -49 30 -5 0 -38 16 -75 34 -37 19 -69 32 -72 29 -3 -3 -13 0 -22 8 -9
8 -35 19 -58 24 -36 9 -43 8 -58 -10 -17 -20 -17 -20 -18 8 0 19 -7 31 -24 39
-36 16 -54 4 -62 -39 -12 -68 -23 -72 -24 -7 l0 61 -62 13 c-84 16 -199 26
-277 22z m141 -488 c53 -18 146 -104 181 -166 12 -22 31 -57 41 -77 27 -49 25
-110 -5 -166 -13 -25 -27 -45 -31 -45 -5 0 -8 -5 -8 -11 0 -14 -28 -75 -56
-120 -24 -38 -32 -83 -19 -111 14 -35 158 -14 201 29 l21 21 -21 6 c-11 3 -32
6 -45 6 -36 0 -21 8 25 13 51 6 79 21 100 52 23 36 144 130 183 144 49 16 221
14 262 -3 39 -16 121 -110 145 -165 43 -96 45 -106 45 -180 1 -53 -6 -74 -52
-168 -29 -60 -68 -129 -86 -154 -18 -26 -33 -50 -33 -53 0 -4 -13 -26 -28 -49
-16 -23 -76 -124 -133 -225 -57 -101 -111 -195 -120 -210 -23 -38 -49 -85 -99
-177 -24 -44 -49 -86 -56 -93 -7 -6 -16 -22 -20 -35 -4 -12 -17 -35 -29 -52
-12 -16 -30 -46 -39 -66 -25 -53 -90 -116 -133 -128 -56 -16 -187 -13 -249 5
-60 17 -93 46 -162 139 -57 78 -102 167 -101 202 0 15 10 55 22 88 23 60 23
60 3 93 -17 30 -100 82 -130 82 -6 0 -34 -23 -63 -50 -29 -27 -78 -62 -110
-77 -54 -26 -66 -28 -179 -27 -141 2 -176 14 -213 72 -13 20 -35 53 -47 72
-48 73 -77 184 -62 238 9 36 30 90 47 122 23 44 65 118 80 140 36 55 42 67 61
106 11 22 28 51 38 65 24 32 92 150 127 219 15 30 30 57 34 60 3 3 13 19 21
35 8 17 27 49 42 72 15 23 28 45 28 49 0 3 33 61 73 128 39 66 79 134 88 151
9 16 25 46 36 65 27 50 92 138 106 144 7 2 71 5 143 5 93 1 143 -3 176 -15z"/>
<path d="M2583 4423 c-25 -5 -58 -46 -98 -123 -16 -30 -37 -66 -47 -79 -21
-28 -23 -43 -5 -40 6 1 19 -1 27 -4 8 -3 24 -8 35 -11 11 -3 -4 -4 -33 -2 -42
3 -55 0 -60 -13 -3 -9 -8 -18 -11 -21 -11 -9 -41 -69 -40 -77 3 -20 -2 -33
-14 -33 -8 0 -20 -12 -28 -27 -8 -16 -16 -30 -20 -33 -3 -3 -12 -21 -21 -40
-9 -19 -28 -52 -42 -73 -14 -21 -26 -40 -26 -43 0 -3 -27 -52 -60 -111 -33
-58 -60 -109 -60 -114 0 -5 -4 -9 -8 -9 -4 0 -24 -29 -43 -65 -18 -36 -37 -65
-40 -65 -4 0 -12 -15 -20 -32 -7 -18 -44 -82 -81 -143 -77 -125 -83 -149 -37
-159 41 -8 213 -8 234 0 17 7 55 74 55 98 0 8 6 17 13 19 9 4 8 8 -3 16 -13 9
-13 11 3 11 9 0 17 4 17 8 0 5 -30 13 -67 19 l-68 10 83 1 c47 1 82 6 82 12 0
6 -5 10 -12 10 -6 0 -2 9 10 21 12 11 26 18 31 15 7 -5 21 15 21 29 0 2 -48 7
-107 11 l-108 9 104 5 c67 4 106 11 109 18 2 7 9 12 16 12 6 0 25 28 41 61 17
37 40 69 57 79 28 17 29 34 2 23 -8 -3 -14 0 -14 6 0 6 9 11 19 11 11 0 23 9
26 21 7 20 32 21 27 0 -1 -6 7 -11 18 -11 11 0 20 4 20 9 0 5 7 16 15 25 13
13 13 15 -4 21 -29 9 -31 39 -5 81 26 43 46 89 45 101 -1 4 -20 8 -44 9 -23 0
-80 2 -127 4 -76 4 -70 5 60 10 122 4 138 7 100 14 -34 7 -40 11 -25 16 11 4
30 3 43 -1 13 -5 25 -9 27 -9 7 0 75 117 75 129 0 6 -7 11 -15 11 -8 0 -15 5
-15 10 0 7 7 7 21 0 24 -14 21 -16 48 37 11 23 25 44 30 48 5 3 21 29 35 58
14 28 42 77 61 107 43 67 46 106 9 120 -25 10 -167 12 -211 3z"/>
<path d="M2873 4363 c-7 -2 -13 -9 -13 -15 0 -5 -9 -22 -20 -38 -17 -23 -106
-176 -182 -310 -11 -19 -24 -40 -29 -46 -13 -15 -109 -207 -109 -216 0 -13 37
-9 49 6 6 7 39 16 74 18 100 9 163 34 189 77 12 20 29 43 38 51 8 8 26 35 38
60 13 25 41 74 62 109 65 107 65 109 18 200 -25 47 -53 85 -69 95 -15 9 -29
16 -31 15 -1 0 -9 -3 -15 -6z"/>
<path d="M3442 3987 c-20 -9 -23 -16 -18 -41 4 -17 16 -45 28 -62 19 -27 27
-32 50 -27 33 6 37 -8 8 -28 -19 -14 -19 -15 10 -58 24 -35 36 -44 60 -45 18
-1 30 4 30 12 0 6 5 12 10 12 6 0 10 -7 10 -16 0 -15 9 -16 66 -11 108 10 116
49 35 172 -58 88 -89 105 -191 104 -41 0 -86 -5 -98 -12z"/>
<path d="M3316 3896 c-14 -19 -26 -41 -26 -48 0 -7 -9 -28 -20 -46 -11 -18
-20 -39 -20 -47 0 -8 -4 -15 -10 -15 -15 0 -12 -76 4 -89 7 -6 16 -30 19 -52
7 -53 51 -119 78 -119 16 0 20 5 16 20 -4 14 0 20 11 21 10 0 2 5 -16 10 -42
12 -32 29 17 29 53 0 59 12 14 27 l-38 13 43 -4 c42 -4 43 -4 72 47 36 64 37
73 4 131 l-26 46 -61 2 -62 2 58 3 c31 2 57 8 57 14 0 22 -51 89 -69 89 -10 0
-30 -15 -45 -34z"/>
<path d="M3541 3667 c-13 -7 -29 -21 -35 -32 -6 -11 -31 -51 -56 -90 -78 -122
-81 -130 -49 -138 12 -3 18 -10 15 -16 -4 -6 -13 -8 -21 -4 -8 3 -33 -2 -55
-11 -23 -9 -52 -13 -69 -10 -16 3 -31 1 -35 -5 -9 -14 12 -53 25 -46 5 4 9 1
9 -4 0 -6 -4 -11 -8 -11 -11 0 -37 -78 -29 -86 3 -3 -1 -21 -9 -39 -8 -19 -14
-46 -14 -60 0 -38 28 -88 46 -81 8 3 14 1 14 -4 0 -5 -10 -12 -22 -16 -62 -19
-135 -105 -125 -145 5 -19 -24 -45 -36 -33 -5 6 -47 -31 -47 -41 0 -3 -9 -16
-21 -28 -28 -30 -178 -269 -210 -335 l-26 -53 26 -18 c21 -15 46 -19 121 -20
92 -1 97 0 128 28 17 17 32 39 32 50 0 12 7 21 15 21 8 0 15 5 15 10 0 6 12
29 27 53 14 23 40 69 56 102 16 33 40 74 53 92 14 18 27 46 30 63 4 16 10 30
15 30 5 0 9 5 9 10 0 6 -7 10 -15 10 -8 0 -15 7 -15 15 0 8 7 15 16 15 8 0 12
-4 9 -10 -3 -5 -2 -10 4 -10 16 0 75 91 141 215 38 71 53 98 66 115 10 14 59
100 90 159 7 13 19 28 26 33 22 14 -11 28 -59 26 -24 -1 -46 1 -49 5 -4 4 20
7 54 7 50 0 65 4 82 22 11 12 20 28 20 35 0 7 5 13 10 13 6 0 10 4 10 9 0 5
16 37 36 70 40 67 58 127 41 138 -20 12 -211 13 -236 0z"/>
<path d="M2760 3586 c0 -26 -23 -36 -35 -16 -7 11 -45 13 -69 4 -23 -9 -20
-51 4 -59 25 -8 25 -16 0 -38 -22 -18 -40 -22 -40 -9 0 5 -13 9 -30 9 -18 0
-30 -6 -30 -13 0 -8 6 -11 14 -8 8 3 17 1 21 -5 8 -15 187 -14 219 0 17 8 26
22 29 43 3 26 4 24 5 -11 2 -34 6 -41 20 -40 17 1 20 26 13 91 -1 4 -8 5 -17
2 -13 -5 -15 -1 -10 19 8 33 -9 50 -56 54 -35 2 -38 0 -38 -23z"/>
<path d="M2639 3361 c-31 -5 -67 -15 -80 -25 -13 -9 -33 -16 -46 -16 -12 0
-25 -4 -28 -10 -4 -6 16 -10 54 -10 58 0 86 -12 56 -24 -8 -3 -14 -11 -13 -18
2 -9 -12 -14 -39 -16 -50 -4 -57 -20 -12 -29 20 -4 28 -10 25 -19 -7 -19 32
-53 68 -58 17 -3 63 -8 101 -11 39 -4 81 -13 94 -22 21 -13 23 -20 18 -66 -4
-29 -3 -44 2 -33 5 14 10 16 15 8 10 -17 24 -15 28 5 3 15 4 15 21 -1 31 -32
100 1 100 47 0 25 2 27 32 21 28 -5 33 -3 38 18 10 36 8 83 -4 95 -17 17 -1
34 25 27 23 -5 23 -4 16 36 -5 25 -19 53 -34 69 -23 22 -35 26 -89 27 -34 0
-114 3 -177 6 -63 4 -140 3 -171 -1z"/>
<path d="M2255 3263 c-11 -21 -39 -67 -62 -102 -44 -66 -47 -73 -43 -104 1
-15 42 -93 80 -154 15 -23 42 -35 58 -24 5 3 24 32 41 65 l32 58 -20 78 c-11
43 -25 87 -32 98 -11 18 -10 24 4 40 17 18 17 21 0 51 -23 40 -34 39 -58 -6z"/>
<path d="M1827 3053 c-13 -13 -7 -44 19 -96 15 -29 28 -54 30 -56 3 -3 29 20
59 49 66 65 72 55 10 -14 -25 -28 -45 -55 -45 -62 0 -18 40 -53 70 -62 47 -13
216 -8 234 7 12 10 14 17 6 25 -5 5 -10 15 -10 22 0 14 -76 150 -98 177 -12
14 -31 17 -98 17 -56 0 -84 -4 -87 -12 -4 -10 -6 -10 -6 0 -1 13 -72 18 -84 5z"/>
<path d="M2840 2868 c-13 -5 -47 -31 -75 -57 -28 -27 -61 -51 -73 -55 -11 -4
-24 -17 -28 -29 -4 -12 -15 -34 -25 -49 -29 -41 -24 -102 14 -171 35 -60 69
-92 91 -84 7 3 28 32 46 64 18 32 42 74 53 93 15 26 17 38 8 52 -6 10 -7 19
-1 23 5 3 13 -3 19 -12 6 -10 11 -16 12 -13 0 3 2 14 4 25 2 11 7 30 10 43 5
14 3 22 -4 22 -6 0 -11 5 -11 10 0 6 14 10 31 10 25 0 32 6 45 37 15 35 15 37
-8 57 -33 30 -79 45 -108 34z"/>
</g>
</svg>
