<?xml version="1.0" standalone="no"?>
<!DOCTYPE svg PUBLIC "-//W3C//DTD SVG 20010904//EN"
 "http://www.w3.org/TR/2001/REC-SVG-20010904/DTD/svg10.dtd">
<svg version="1.0" xmlns="http://www.w3.org/2000/svg"
 width="544.000000pt" height="544.000000pt" viewBox="0 0 544.000000 544.000000"
 preserveAspectRatio="xMidYMid meet">
<metadata>
Created by potrace 1.16, written by Peter Selinger 2001-2019
</metadata>
<g transform="translate(0.000000,544.000000) scale(0.100000,-0.100000)"
fill="#000000" stroke="none">
<path d="M0 2720 l0 -2720 2720 0 2720 0 0 2720 0 2720 -2720 0 -2720 0 0
-2720z m2920 2640 c316 -31 599 -131 913 -325 95 -58 221 -166 344 -293 88
-92 103 -104 117 -93 9 8 16 9 16 3 0 -6 -6 -12 -12 -15 -16 -5 7 -52 64 -127
22 -30 74 -118 114 -195 116 -222 153 -360 185 -675 l21 -215 53 -130 c29 -71
70 -166 90 -210 36 -78 87 -199 127 -300 36 -91 67 -219 68 -275 0 -104 -37
-202 -93 -244 -39 -30 -144 -79 -202 -95 -22 -6 -52 -21 -67 -33 -34 -28 -38
-46 -98 -483 -46 -329 -69 -397 -168 -494 -90 -87 -239 -145 -433 -167 -41 -5
-67 -13 -77 -25 -19 -22 -40 -87 -48 -144 -3 -22 -9 -60 -14 -85 -5 -25 -17
-88 -25 -140 -30 -179 -54 -232 -118 -268 -30 -16 -105 -17 -1072 -17 -1022 0
-1041 0 -1074 20 -19 11 -43 33 -55 48 -31 41 -28 180 8 362 28 144 65 355 85
483 18 118 14 317 -8 404 -35 138 -72 194 -305 476 -82 101 -101 126 -98 134
1 4 -2 8 -7 8 -10 0 -111 147 -158 230 -46 83 -134 295 -153 369 -4 20 -18 73
-29 119 -51 202 -65 485 -36 715 24 184 67 338 150 532 112 263 299 511 529
700 26 22 54 45 60 52 39 35 216 142 330 197 214 105 415 165 616 186 58 5
119 12 135 14 64 7 234 5 325 -4z"/>
<path d="M2569 5286 c-2 -3 -34 -7 -69 -11 -153 -14 -336 -58 -480 -117 -109
-44 -283 -132 -337 -170 -98 -70 -130 -94 -158 -118 -155 -135 -185 -162 -185
-168 0 -4 -27 -36 -60 -72 -33 -35 -60 -68 -60 -71 0 -4 -6 -14 -13 -21 -23
-24 -93 -132 -146 -228 -65 -115 -101 -201 -141 -339 -17 -58 -35 -119 -40
-136 -17 -55 -30 -158 -36 -292 -7 -124 -6 -133 11 -133 17 0 17 -1 2 -18 -12
-13 -17 -37 -17 -83 0 -84 26 -250 40 -259 6 -4 10 -11 8 -16 -11 -40 41 -224
75 -264 10 -12 12 -20 4 -23 -11 -3 -10 -6 59 -152 50 -105 71 -135 95 -135
16 0 19 -4 14 -21 -5 -14 2 -33 21 -61 23 -33 32 -39 56 -36 27 4 28 4 13 -19
-15 -22 -14 -25 12 -48 15 -13 34 -25 41 -25 7 0 11 -4 8 -9 -7 -11 28 -78 58
-110 50 -52 96 -106 96 -112 0 -3 9 -17 21 -30 121 -138 198 -337 203 -524 1
-47 3 -54 19 -49 21 7 22 11 -9 -77 -19 -53 -25 -86 -21 -118 3 -28 0 -49 -8
-57 -6 -7 -15 -52 -19 -101 -4 -48 -10 -100 -13 -115 -4 -22 -2 -28 11 -28 14
0 12 -5 -8 -23 -22 -19 -30 -47 -60 -205 -20 -100 -36 -196 -36 -212 0 -44 37
-79 91 -86 44 -6 47 -5 57 22 l10 29 1 -26 c1 -22 7 -28 34 -32 52 -7 1091 -2
1104 6 6 4 15 3 18 -3 7 -12 432 -11 450 1 6 3 59 3 119 -1 190 -13 264 6 285
72 6 18 24 112 41 208 48 278 64 349 87 371 16 16 53 25 182 44 130 20 175 31
228 56 77 37 163 117 181 167 11 31 10 34 -8 39 -11 3 -20 12 -20 19 0 14 11
18 43 15 18 -2 18 -1 23 39 2 14 8 57 14 95 6 39 14 106 19 150 10 81 46 328
57 376 3 17 -1 32 -11 43 -15 15 -15 16 4 16 13 0 21 6 21 18 0 9 9 32 20 50
21 35 60 55 185 98 74 26 137 63 132 78 -2 6 -22 16 -45 24 -23 7 -42 18 -42
23 0 15 23 10 59 -12 42 -26 54 -21 69 29 29 97 6 224 -79 424 -55 131 -75
158 -118 158 -14 0 -33 4 -40 9 -10 6 -1 8 26 4 22 -3 43 -1 46 3 3 5 -7 35
-22 66 -16 32 -26 59 -24 61 2 2 -2 18 -8 35 -9 27 -16 32 -42 32 -31 0 -31 0
-10 15 l22 15 -30 67 c-31 66 -56 172 -60 252 -2 23 -6 44 -11 47 -4 3 -23 -2
-43 -10 -25 -11 -43 -12 -59 -6 -42 16 -35 25 16 21 63 -4 88 16 88 71 0 34
-4 40 -30 49 -35 13 -36 16 -10 49 11 14 20 37 20 53 0 23 -4 27 -30 27 -16 0
-30 5 -30 10 0 6 6 10 13 10 35 1 37 15 13 98 -13 45 -31 94 -41 108 -15 24
-18 24 -34 10 -21 -19 -31 -20 -31 -3 0 8 11 20 25 27 14 7 25 19 25 25 0 18
-90 199 -101 203 -5 2 -9 14 -9 27 0 12 -7 28 -15 35 -8 7 -35 42 -59 79 -25
36 -58 79 -74 94 l-30 29 -51 -22 c-28 -13 -51 -25 -51 -29 0 -3 -10 -12 -22
-19 -13 -7 -3 5 22 28 25 22 49 40 53 40 5 0 15 7 24 15 13 14 1 29 -110 139
-68 68 -140 135 -159 147 -131 89 -192 126 -286 174 -156 79 -249 117 -298
123 -24 2 -44 8 -44 11 0 10 -57 28 -135 41 -38 7 -83 16 -99 21 -46 14 -96
11 -102 -6 -6 -14 -8 -14 -18 1 -9 12 -34 18 -85 22 -62 4 -74 2 -86 -14 -13
-18 -14 -18 -20 -1 -6 14 -20 17 -74 17 -37 0 -70 -2 -72 -4z m830 -233 c-47
-50 -65 -92 -47 -109 7 -6 58 -35 113 -64 55 -28 119 -63 143 -76 79 -44 226
-161 311 -247 57 -58 89 -83 100 -79 9 3 13 1 8 -3 -4 -5 -1 -15 7 -24 7 -9
28 -43 45 -76 18 -33 41 -69 51 -80 21 -24 119 -204 142 -260 9 -22 23 -69 33
-105 9 -36 20 -78 25 -95 10 -33 24 -163 40 -355 6 -70 19 -149 29 -180 25
-74 80 -183 97 -193 8 -4 14 -22 14 -38 0 -29 36 -125 100 -265 60 -131 80
-193 80 -245 0 -29 5 -39 20 -44 22 -7 38 -51 24 -65 -6 -6 -21 -3 -38 5 -33
17 -56 19 -56 5 0 -5 -15 -10 -32 -10 -31 0 -118 -31 -196 -69 -19 -9 -42 -27
-52 -41 -17 -24 -43 -166 -70 -380 -6 -47 -15 -105 -20 -130 -5 -25 -14 -85
-20 -135 -6 -49 -19 -130 -27 -178 -14 -73 -14 -92 -3 -112 16 -31 5 -45 -17
-22 -15 15 -19 14 -47 -6 -17 -11 -33 -24 -36 -27 -3 -3 -27 -15 -55 -25 -76
-30 -277 -25 -421 9 -125 31 -143 32 -160 9 -11 -17 -13 -16 -23 9 -9 24 -40
41 -97 52 -10 3 -30 8 -44 14 -14 5 -42 12 -62 16 -30 5 -37 3 -41 -11 -4 -15
-5 -14 -6 4 -1 14 -11 25 -32 32 -18 6 -34 11 -35 11 -13 0 0 -87 21 -140 14
-35 25 -72 25 -82 0 -11 14 -26 31 -36 27 -15 114 -78 162 -117 20 -17 37 -19
37 -5 0 6 5 10 10 10 6 0 10 -11 10 -25 0 -19 5 -25 23 -25 l22 -1 -22 -18
c-21 -18 -21 -19 -5 -62 25 -67 23 -271 -2 -323 l-19 -39 -99 5 c-86 4 -100 3
-114 -14 -21 -22 -34 -23 -34 -3 0 25 -57 19 -71 -7 l-11 -21 -17 20 c-15 19
-29 22 -173 26 -105 3 -160 1 -167 -6 -7 -7 -11 -7 -11 -1 0 6 -28 9 -67 7
-38 -1 -78 -2 -90 -2 -13 -1 -23 -5 -23 -11 0 -15 -47 -58 -58 -51 -5 3 -12
16 -16 29 -6 16 -3 22 9 22 9 0 14 4 10 9 -3 6 -103 10 -237 9 -203 0 -234 -2
-246 -17 -10 -12 -15 -13 -18 -3 -4 8 -28 12 -67 12 -39 0 -77 7 -103 19 -38
18 -43 18 -58 3 -20 -20 -20 -6 -1 32 11 20 13 40 9 60 -8 34 -6 68 5 76 39
27 100 415 100 645 1 55 -2 110 -5 122 -6 21 -7 21 -32 5 -24 -16 -25 -16 -14
5 7 12 17 23 24 25 9 3 8 19 -1 69 -25 130 -93 291 -160 379 -14 19 -30 45
-36 57 -5 12 -43 56 -82 98 -40 41 -73 77 -73 79 0 4 -15 21 -97 114 -18 21
-33 43 -33 50 0 7 -7 15 -15 18 -8 4 -13 10 -10 14 7 12 -24 34 -49 35 -11 0
-31 -3 -43 -7 -36 -12 -27 0 13 17 23 10 33 18 27 26 -4 7 -26 46 -48 88 -28
53 -47 77 -63 81 -12 3 -29 18 -37 34 -20 37 -19 39 10 32 23 -6 24 -5 15 19
-5 14 -17 40 -27 58 -9 17 -18 43 -19 56 -2 13 -10 51 -18 85 -30 116 -46 261
-46 404 0 79 -4 141 -8 138 -4 -2 -14 -1 -22 5 -12 7 -10 9 7 9 17 0 23 7 27
33 3 17 10 59 16 91 5 33 9 60 7 61 -15 13 -51 25 -71 25 -14 0 -26 4 -26 9 0
6 18 10 39 9 22 0 44 3 50 6 15 10 36 59 66 158 27 90 104 249 168 349 88 138
230 291 360 389 37 28 67 57 67 66 0 8 6 14 13 12 19 -3 114 49 131 73 8 12
23 23 33 24 21 3 38 9 168 68 97 43 139 55 350 99 117 24 398 30 530 11 75
-10 81 -10 97 9 17 19 17 19 24 -6 6 -26 33 -39 109 -52 22 -4 52 -13 67 -20
37 -19 41 -18 56 15 15 34 78 101 95 101 6 0 -5 -17 -24 -37z"/>
<path d="M2696 4962 l-49 -3 7 -45 c7 -57 -11 -50 -20 7 -5 27 -10 37 -17 30
-6 -6 -6 -20 1 -41 9 -24 9 -31 -1 -27 -6 2 -13 17 -15 33 -2 16 -7 33 -12 37
-4 5 -58 0 -119 -10 l-111 -18 0 -35 -1 -35 -15 28 c-17 31 -31 33 -82 10 -20
-9 -41 -17 -47 -18 -34 -6 -78 -22 -138 -51 -37 -19 -73 -34 -80 -34 -20 0
-227 -144 -227 -158 0 -7 -4 -11 -10 -7 -5 3 -17 -2 -27 -12 -10 -10 -49 -44
-86 -77 -39 -34 -67 -66 -67 -78 0 -10 -4 -17 -10 -13 -15 9 -103 -93 -165
-194 -5 -9 -18 -28 -27 -43 -10 -14 -18 -34 -18 -43 0 -10 -8 -24 -17 -30 -17
-13 -17 -14 0 -32 23 -26 22 -31 -8 -25 -18 3 -26 -1 -31 -14 -3 -11 -11 -28
-17 -39 -51 -90 -71 -155 -47 -155 20 0 9 -19 -12 -22 -19 -2 -24 -10 -26 -44
-3 -38 0 -42 28 -54 46 -19 45 -28 -4 -23 l-44 5 -4 -78 c-3 -60 0 -82 11 -91
12 -11 11 -14 -6 -20 -18 -7 -20 -16 -19 -82 l1 -74 40 -13 40 -12 -44 -1 -44
-1 7 -87 c4 -48 10 -92 14 -98 4 -5 5 -18 4 -28 -4 -21 25 -157 38 -177 7 -11
17 -12 60 -2 28 7 66 12 83 11 23 0 11 -6 -38 -18 -39 -9 -76 -20 -82 -24 -13
-8 -3 -56 20 -91 8 -11 22 -43 32 -71 11 -27 24 -59 30 -70 30 -55 58 -95 66
-95 5 0 9 -8 9 -17 1 -16 2 -16 18 2 9 11 26 27 37 35 19 15 19 15 2 -12 l-17
-28 27 0 c16 0 60 9 98 20 38 11 82 20 97 20 41 0 58 10 58 34 0 12 16 38 36
57 25 24 34 40 31 57 -2 12 4 31 14 44 11 11 19 22 19 23 0 1 -13 26 -30 56
-16 30 -30 62 -30 72 0 10 -7 20 -15 23 -29 11 -14 128 29 226 18 42 13 48
-49 68 -22 7 -44 16 -50 21 -12 11 1 12 23 0 26 -13 82 -22 82 -13 0 5 -15 16
-34 25 -38 18 -136 86 -136 94 0 3 12 -3 28 -13 45 -29 140 -82 160 -88 27 -9
46 17 122 159 18 33 40 69 50 80 16 19 65 99 107 175 63 114 132 239 160 290
17 32 58 101 91 154 34 53 64 106 68 118 3 12 15 31 25 42 11 11 19 27 19 35
0 9 22 40 48 70 51 56 54 58 159 60 71 1 77 9 56 81 -7 25 -13 47 -13 49 0 2
14 -15 31 -38 34 -47 33 -47 58 1 12 23 34 41 72 60 57 28 73 49 99 132 7 22
25 60 41 85 37 57 38 75 4 67 -19 -5 -25 -2 -26 11 0 11 -3 13 -6 6 -3 -9 -10
-10 -21 -4 -19 10 -173 19 -246 13z"/>
<path d="M3086 4905 c-7 -8 -17 -31 -21 -52 -11 -59 -20 -62 -25 -8 l-5 50
-23 -25 c-13 -14 -32 -56 -44 -95 -16 -53 -30 -79 -60 -107 -21 -21 -47 -38
-56 -38 -29 -1 -49 -24 -56 -65 -6 -37 3 -69 18 -65 3 1 31 -6 61 -15 49 -14
58 -14 84 0 16 8 41 29 55 47 14 18 26 27 26 20 0 -7 -20 -33 -45 -58 -25 -24
-45 -46 -45 -48 0 -1 24 -39 54 -83 98 -148 112 -217 60 -311 -25 -45 -30 -72
-14 -72 6 0 10 -5 10 -11 0 -6 -7 -9 -15 -5 -18 7 -38 -29 -58 -106 -10 -37
-11 -60 -5 -66 15 -15 131 -2 145 17 16 23 7 31 -35 32 -30 0 -33 2 -17 9 11
5 39 9 62 9 39 1 49 7 124 81 109 108 139 120 290 120 102 0 123 -3 153 -21
30 -18 94 -92 131 -153 6 -9 26 -17 48 -19 37 -2 37 -2 17 -19 -11 -9 -25 -18
-31 -20 -8 -3 -6 -14 5 -35 9 -18 16 -44 16 -58 0 -15 5 -35 10 -46 8 -14 8
-19 -1 -17 -7 2 -15 -10 -19 -27 -4 -16 -16 -48 -28 -71 -13 -25 -19 -50 -15
-64 5 -19 3 -22 -10 -17 -20 8 -33 -9 -41 -55 -4 -21 -11 -38 -16 -38 -15 0
-47 -39 -66 -79 -9 -20 -20 -38 -24 -41 -4 -3 -23 -34 -41 -69 -40 -74 -46
-86 -76 -127 -13 -18 -37 -63 -56 -101 -18 -38 -41 -80 -50 -93 -35 -49 -64
-97 -99 -160 -45 -83 -81 -144 -88 -150 -3 -3 -14 -24 -24 -47 -11 -24 -22
-43 -25 -43 -3 0 -15 -19 -26 -43 -38 -80 -123 -167 -164 -167 -46 0 -71 -11
-71 -31 0 -11 -4 -19 -10 -19 -5 0 -10 6 -10 14 0 25 -18 27 -38 6 -17 -19
-20 -19 -26 -5 -4 11 -13 14 -25 10 -10 -3 -24 1 -31 10 -20 24 -53 18 -73
-12 l-18 -28 4 28 c6 40 -22 32 -53 -16 -13 -21 -26 -34 -28 -28 -2 7 2 18 8
27 20 23 4 28 -45 14 -34 -10 -55 -25 -86 -61 -28 -34 -52 -52 -79 -59 -29 -8
-46 -21 -67 -53 -19 -29 -45 -50 -81 -67 -28 -14 -55 -34 -58 -44 -4 -10 -24
-38 -45 -61 -21 -22 -43 -54 -49 -69 -22 -59 -9 -267 21 -331 5 -11 13 -40 18
-65 7 -37 10 -41 16 -25 5 11 25 40 46 65 57 70 87 140 59 140 -6 0 -10 6 -8
13 1 6 -4 36 -11 66 -29 117 -10 203 54 245 29 19 120 21 178 4 37 -11 41 -10
58 11 23 29 24 24 3 -19 -16 -31 -16 -34 0 -45 9 -7 16 -19 16 -27 0 -8 12
-31 28 -51 15 -19 36 -47 47 -62 11 -16 37 -39 59 -52 45 -29 207 -83 247 -83
15 0 30 -6 33 -12 3 -7 2 1 -1 17 -4 17 -14 48 -24 70 -14 30 -18 62 -17 125
l1 85 7 -85 c5 -65 13 -98 34 -140 37 -72 53 -89 77 -83 10 3 19 1 19 -5 0 -6
15 -15 33 -21 17 -5 64 -21 102 -35 111 -39 201 -64 245 -68 14 -1 32 -7 40
-13 8 -6 60 -22 115 -35 77 -19 129 -24 225 -25 112 0 129 2 163 22 21 13 44
23 52 23 7 0 16 7 19 16 12 31 6 61 -22 105 -46 72 -46 76 -3 32 23 -24 44
-43 47 -43 10 0 -8 44 -32 79 -30 45 -23 53 12 12 46 -55 62 -14 18 45 -29 38
-28 56 1 24 33 -36 32 -39 59 156 7 50 16 96 19 101 4 6 -12 35 -36 64 l-42
54 36 -28 c20 -15 39 -27 42 -27 13 0 7 28 -8 40 -20 17 -19 27 4 33 13 3 20
16 23 43 3 22 11 72 18 112 l13 73 -29 31 -29 30 33 -17 34 -16 35 40 c24 29
65 56 131 89 135 66 152 79 152 112 0 32 -19 90 -29 90 -4 0 -8 12 -8 28 -1
45 -20 81 -48 88 -28 7 -34 24 -7 24 16 1 16 2 -2 15 -10 7 -16 20 -14 27 5
15 -11 54 -128 305 -13 28 -24 56 -24 61 0 6 -25 24 -56 42 -31 17 -54 34 -50
37 3 3 21 -4 41 -16 49 -28 54 -27 45 13 -11 51 -17 56 -71 56 -53 0 -57 3
-33 28 15 15 15 16 -2 23 -15 5 -10 11 28 27 l47 21 -4 51 c-2 28 -6 54 -8 57
-3 3 -3 11 0 19 7 18 -37 28 -89 21 -55 -7 -153 9 -197 34 -20 11 -27 17 -16
13 70 -23 128 -34 185 -34 105 0 110 3 110 65 0 73 -6 85 -44 85 l-31 1 28 15
c36 19 35 48 -5 126 -35 71 -45 80 -73 72 -16 -5 -18 -4 -7 7 6 7 12 16 12 20
0 7 -72 -5 -104 -17 -13 -5 -17 -4 -13 4 7 10 44 24 100 37 25 5 27 8 16 22
-7 8 -12 31 -10 50 l3 35 -44 -25 c-23 -14 -56 -31 -72 -37 -25 -9 -27 -9 -17
4 7 9 33 28 57 43 50 32 52 38 24 53 -14 7 -19 17 -15 29 7 22 -4 53 -16 45
-5 -3 -9 2 -9 11 0 10 -14 30 -31 46 l-31 29 -44 -45 c-24 -25 -47 -45 -52
-45 -6 0 8 17 29 39 35 35 54 71 29 56 -5 -3 -10 1 -10 9 0 9 4 16 10 16 16 0
-11 49 -31 55 -12 4 -29 -6 -53 -32 -19 -21 -37 -35 -40 -32 -4 3 12 25 35 49
l41 43 -33 32 c-19 17 -51 50 -72 73 -21 22 -46 44 -57 47 -11 4 -20 11 -20
18 0 6 -18 -7 -41 -28 l-41 -40 22 44 c21 42 21 44 3 60 -42 39 -320 191 -350
191 -7 0 -13 -8 -13 -18 0 -11 -9 -27 -20 -37 -19 -17 -19 -17 -8 13 9 24 9
34 -1 46 -15 18 -66 21 -77 5 -4 -7 -11 -2 -18 12 -15 30 -51 42 -70 24z"/>
<path d="M2564 4396 c-22 -16 -136 -194 -154 -240 -6 -16 -19 -41 -30 -56 -11
-16 -20 -40 -20 -54 0 -15 -6 -26 -13 -26 -16 0 -62 -67 -71 -103 -9 -35 27
-47 57 -19 12 11 42 23 67 27 25 5 39 10 33 12 -7 3 -13 11 -13 19 0 9 -4 12
-10 9 -23 -14 -31 8 -10 30 18 19 19 23 5 35 -18 15 -11 30 16 30 10 0 19 5
19 10 0 6 10 10 23 10 25 1 57 22 57 39 0 6 5 11 10 11 6 0 10 5 10 10 0 6
-23 10 -51 10 -36 0 -49 4 -46 13 2 7 19 11 46 10 24 -2 52 2 63 8 28 15 68
51 68 61 0 4 18 35 40 67 22 32 40 63 40 69 0 31 -99 44 -136 18z"/>
<path d="M2941 4243 c-16 -13 -23 -30 -24 -58 -2 -36 -5 -40 -29 -43 -20 -2
-28 -9 -28 -23 0 -10 5 -19 11 -19 7 0 5 -10 -5 -25 -16 -24 -16 -25 9 -25 16
0 25 -6 25 -15 0 -9 -9 -15 -25 -15 -16 0 -25 -6 -25 -15 0 -11 11 -15 36 -15
19 0 33 4 30 9 -3 5 1 15 10 22 8 7 22 26 31 43 9 17 27 44 40 60 29 34 24 77
-11 114 -22 23 -23 23 -45 5z"/>
<path d="M2263 3853 c26 -7 21 -24 -5 -18 -20 5 -30 -6 -75 -81 -29 -47 -53
-93 -53 -100 0 -8 -4 -14 -10 -14 -5 0 -10 -8 -10 -18 0 -9 -11 -29 -25 -44
-14 -15 -25 -32 -25 -38 0 -5 -5 -10 -11 -10 -7 0 -9 -11 -6 -26 3 -20 0 -28
-14 -31 -11 -3 -20 -9 -20 -14 -1 -5 -2 -13 -3 -18 0 -5 -4 -13 -8 -17 -17
-17 -6 -24 37 -24 58 0 99 18 84 37 -9 10 -8 13 4 13 9 0 36 19 60 43 25 24
67 54 93 67 32 17 42 26 30 28 -20 4 -16 26 5 28 8 1 20 2 26 3 9 1 10 8 2 28
-6 15 -9 43 -7 63 3 35 2 35 -42 41 -38 5 -40 6 -12 7 29 2 32 5 27 22 -4 14
-2 20 9 20 10 0 13 -6 10 -15 -4 -8 -1 -15 7 -15 7 0 9 3 6 6 -4 4 3 20 14 35
11 16 17 29 12 29 -4 0 -1 5 7 10 10 7 -6 9 -55 9 -38 -1 -62 -3 -52 -6z"/>
<path d="M3473 3319 c-24 -22 -43 -42 -43 -44 0 -3 10 -5 23 -5 13 0 32 -7 43
-15 17 -13 17 -14 2 -15 -10 0 -18 5 -18 11 0 16 -97 1 -141 -22 -27 -14 -38
-26 -41 -49 -3 -20 0 -30 9 -30 7 0 13 -5 13 -11 0 -5 -3 -8 -7 -6 -5 3 -18 1
-31 -4 -19 -7 -21 -12 -13 -28 6 -10 7 -21 4 -25 -3 -3 0 -6 7 -6 9 0 11 -11
7 -45 -4 -25 -2 -47 3 -50 15 -10 2 -25 -22 -25 -14 0 -18 -5 -14 -15 3 -8 1
-15 -5 -15 -6 0 -8 -4 -5 -9 3 -5 15 -7 26 -4 12 3 20 0 20 -7 0 -8 -10 -11
-29 -8 -28 4 -29 3 -24 -30 5 -25 3 -33 -5 -28 -7 4 -12 3 -12 -3 0 -5 5 -13
10 -16 8 -5 7 -11 -1 -21 -10 -12 -10 -14 1 -12 7 2 15 -3 17 -9 3 -9 -6 -13
-27 -13 -38 0 -94 -42 -78 -58 11 -11 3 -32 -13 -32 -5 0 -9 8 -10 18 0 9 -5
2 -10 -15 -5 -18 -13 -33 -18 -33 -10 0 -71 -94 -71 -109 0 -6 -9 -20 -20 -31
-19 -19 -19 -22 -5 -36 20 -20 19 -36 -2 -32 -17 3 -61 -58 -50 -69 12 -12 87
-4 111 12 13 9 28 29 31 45 3 16 13 31 21 34 7 3 27 31 43 63 60 120 87 169
103 187 10 11 22 34 29 53 6 18 15 33 20 33 5 0 9 4 9 10 0 5 11 26 25 46 14
20 23 40 20 44 -3 5 -2 10 2 12 12 5 56 75 108 173 27 50 51 92 55 95 4 3 17
28 31 55 13 28 34 67 46 87 13 21 23 40 23 43 0 3 -24 5 -52 5 -48 0 -57 -4
-95 -41z"/>
<path d="M2530 2990 c-8 -5 -26 -11 -40 -14 -14 -3 -34 -19 -45 -35 -49 -71
-127 -141 -192 -172 -62 -30 -72 -31 -176 -30 -124 1 -136 3 -190 39 l-39 26
-47 -54 c-25 -29 -51 -69 -56 -89 -10 -33 -14 -37 -60 -44 -28 -5 -70 -16 -95
-24 -25 -8 -71 -21 -103 -28 -67 -15 -69 -16 -58 -33 6 -10 15 -10 34 -3 29
11 36 1 12 -19 -28 -23 -31 -18 130 -195 35 -38 80 -88 99 -110 20 -22 49 -60
63 -85 15 -25 32 -52 39 -60 7 -8 13 -19 14 -25 1 -5 16 -37 34 -70 18 -33 43
-89 56 -125 13 -36 25 -67 26 -69 2 -2 15 4 28 13 37 23 37 21 12 -34 -22 -46
-22 -53 -10 -112 8 -35 14 -122 14 -193 0 -97 4 -136 14 -151 13 -18 13 -25 1
-47 -7 -14 -16 -50 -19 -79 -13 -104 -13 -103 14 -104 28 -2 121 62 144 99 7
12 21 72 29 134 16 112 16 113 -9 210 -28 110 -38 244 -23 312 5 25 10 51 11
58 1 6 12 17 26 25 14 7 35 29 48 49 13 21 46 49 76 67 30 16 65 46 78 66 16
22 41 42 66 52 26 10 59 36 88 69 35 41 57 57 93 67 80 23 79 46 -6 175 -92
141 -99 193 -41 305 18 35 37 71 41 81 5 9 13 26 19 36 6 14 6 21 -3 24 -8 3
-7 10 6 24 22 25 22 50 -1 62 -28 15 -86 21 -102 11z"/>
<path d="M1978 2908 c-30 -17 -38 -28 -38 -50 0 -38 28 -48 130 -48 70 0 79 2
85 20 12 38 -36 84 -100 94 -31 5 -48 1 -77 -16z"/>
<path d="M2783 2870 c-26 -23 -41 -46 -48 -72 -2 -5 -3 -24 -4 -43 0 -19 -6
-35 -12 -35 -6 0 -8 8 -4 19 10 32 -24 19 -46 -19 l-20 -33 48 7 c26 4 56 7
66 7 11 0 17 8 17 25 0 14 7 32 15 40 8 8 19 33 25 54 6 22 15 42 20 45 6 3
10 12 10 20 0 22 -35 14 -67 -15z"/>
<path d="M2415 1873 c-30 -7 -45 -32 -45 -78 0 -39 24 -85 45 -85 4 0 23 17
43 38 l35 37 -32 -47 c-17 -26 -36 -50 -41 -53 -19 -12 -10 -27 11 -22 17 4
19 3 10 -6 -30 -30 6 -103 91 -183 75 -71 137 -99 399 -178 100 -30 125 -32
133 -11 3 8 12 15 21 15 18 0 20 -36 3 -44 -7 -3 -1 -4 15 -2 15 2 27 0 27 -4
0 -4 9 -10 20 -13 38 -10 26 37 -54 218 -12 28 -26 34 -167 79 -199 63 -238
83 -316 166 -37 39 -71 66 -78 64 -9 -4 -12 1 -8 14 6 25 -13 38 -32 22 -18
-15 -18 -10 -4 27 16 42 -15 60 -76 46z"/>
<path d="M2276 1490 c-60 -72 -69 -92 -85 -190 -7 -41 -15 -88 -18 -104 -6
-34 -58 -93 -123 -141 -89 -66 -164 -284 -112 -327 16 -14 398 -29 417 -17 6
4 60 3 120 -1 61 -5 143 -9 182 -9 83 -1 80 -4 86 104 l3 60 2 -67 c3 -104 -7
-98 156 -98 110 0 146 3 163 15 14 10 24 12 28 5 8 -14 65 -13 65 1 0 8 4 8
14 0 10 -9 44 -7 46 3 0 0 9 26 20 56 16 44 18 48 14 18 -10 -61 1 -78 49 -78
35 0 45 5 59 27 14 24 14 31 1 76 -15 51 -51 114 -84 150 -10 12 -17 23 -14
25 3 3 23 -14 45 -38 22 -24 43 -41 46 -37 10 9 -14 68 -33 83 -23 17 -36 18
-27 2 6 -10 4 -10 -7 -2 -8 6 -26 14 -41 18 -19 4 -30 16 -39 43 -18 58 -58
75 -60 26 -1 -25 -2 -23 -11 10 -11 42 -22 48 -118 73 -30 8 -64 18 -75 23
-37 16 -151 51 -168 51 -9 0 -17 -4 -17 -10 0 -5 -4 -10 -10 -10 -5 0 -10 7
-10 15 0 9 -12 20 -26 25 -126 48 -205 101 -306 204 -15 16 -30 27 -31 25 -2
-2 -11 -15 -21 -29 l-17 -25 1 35 c3 52 1 70 -7 70 -5 0 -30 -27 -57 -60z"/>
</g>
</svg>
