<?xml version="1.0" standalone="no"?>
<!DOCTYPE svg PUBLIC "-//W3C//DTD SVG 20010904//EN"
 "http://www.w3.org/TR/2001/REC-SVG-20010904/DTD/svg10.dtd">
<svg version="1.0" xmlns="http://www.w3.org/2000/svg"
 width="544.000000pt" height="544.000000pt" viewBox="0 0 544.000000 544.000000"
 preserveAspectRatio="xMidYMid meet">
<metadata>
Created by potrace 1.16, written by Peter Selinger 2001-2019
</metadata>
<g transform="translate(0.000000,544.000000) scale(0.100000,-0.100000)"
fill="#000000" stroke="none">
<path d="M0 2720 l0 -2720 2720 0 2720 0 0 2720 0 2720 -2720 0 -2720 0 0
-2720z m3013 2630 c104 -15 160 -28 262 -60 50 -15 105 -31 124 -35 50 -11
297 -136 399 -202 133 -87 265 -193 367 -295 44 -44 81 -86 90 -100 5 -10 46
-68 89 -130 43 -61 106 -164 139 -227 51 -100 64 -117 90 -124 29 -8 29 -9 9
-23 l-21 -14 20 -73 c11 -39 28 -97 36 -127 9 -30 19 -86 23 -125 44 -414 38
-382 90 -505 27 -63 62 -149 80 -190 17 -41 38 -88 45 -105 36 -78 89 -208
118 -290 29 -83 32 -100 32 -220 0 -107 -3 -136 -18 -165 -37 -69 -87 -102
-252 -164 -38 -15 -78 -33 -88 -40 -19 -15 -46 -161 -87 -471 -39 -290 -61
-371 -131 -461 -80 -104 -191 -158 -411 -198 -72 -14 -136 -30 -143 -38 -15
-16 -35 -100 -70 -303 -43 -253 -57 -290 -129 -328 l-41 -22 -990 -5 c-544 -3
-991 -2 -993 3 -2 4 -20 7 -40 7 -19 0 -56 10 -80 21 -79 39 -97 117 -67 281
9 46 27 142 40 213 62 331 75 434 75 594 0 274 -61 394 -381 745 -26 28 -55
67 -66 86 -39 72 -75 118 -98 124 -16 4 -22 11 -18 24 2 10 -19 64 -47 120
-58 118 -93 207 -121 307 -10 39 -26 93 -34 120 -26 92 -55 306 -55 410 0 39
-5 76 -11 82 -8 8 -8 17 0 31 6 11 11 38 11 60 0 47 35 279 50 337 80 295 193
531 357 744 75 96 278 301 299 301 8 0 14 3 14 8 0 10 134 112 147 112 6 0 16
7 23 15 18 21 180 106 304 159 180 77 366 122 601 146 105 10 353 5 458 -10z"/>
<path d="M2510 5280 c-165 -17 -285 -45 -480 -115 -75 -26 -271 -126 -350
-179 -41 -27 -120 -86 -175 -132 -221 -181 -366 -370 -502 -654 -34 -72 -103
-268 -103 -294 0 -7 15 -20 33 -29 l32 -17 -31 5 c-20 4 -35 1 -42 -8 -17 -20
-40 -150 -45 -250 -4 -78 -2 -87 12 -81 40 16 70 23 122 29 83 9 91 18 104
119 l12 86 -31 25 -31 26 33 -16 c19 -9 35 -15 37 -13 2 2 10 27 19 57 12 40
13 58 5 68 -9 10 -8 13 2 13 8 0 28 37 48 88 52 133 141 302 182 345 12 12 28
33 37 47 79 121 329 339 492 429 230 125 413 186 658 217 42 5 56 12 62 28 12
32 40 168 40 194 0 25 -5 25 -140 12z"/>
<path d="M2676 5278 c-2 -7 -12 -41 -22 -76 -9 -34 -18 -81 -18 -105 l-1 -42
161 -1 c89 0 166 -4 171 -7 15 -10 23 17 23 79 0 42 6 63 26 94 15 22 24 43
21 46 -7 8 -197 23 -290 23 -46 1 -69 -3 -71 -11z"/>
<path d="M3036 5219 c-37 -43 -40 -56 -30 -133 6 -42 9 -46 35 -46 23 0 30 7
44 43 17 45 20 68 17 135 -3 54 -19 54 -66 1z"/>
<path d="M3130 5189 c0 -32 -5 -80 -12 -108 -6 -28 -9 -54 -5 -57 3 -4 32 -15
64 -26 112 -38 114 -38 120 -20 3 9 27 37 53 62 74 71 78 115 12 143 -56 23
-142 49 -189 57 l-43 7 0 -58z"/>
<path d="M3440 5121 c0 -28 -62 -121 -80 -121 -15 0 -22 -40 -10 -55 6 -8 41
-27 76 -44 60 -28 209 -116 279 -165 53 -37 179 -143 219 -185 46 -47 55 -44
86 26 11 25 33 61 50 79 16 19 30 40 30 45 0 30 -174 189 -285 261 -88 57
-268 153 -323 172 l-42 15 0 -28z"/>
<path d="M2676 4963 c-28 -4 -28 -6 -23 -51 l6 -47 -19 40 -19 40 0 -33 c-1
-18 4 -43 11 -55 6 -12 15 -45 19 -73 10 -73 49 -176 64 -170 8 3 15 -7 19
-25 7 -37 23 -37 37 -2 15 40 37 61 70 68 16 4 43 20 59 37 27 26 30 36 30 88
0 35 8 79 19 108 l20 49 -24 11 c-26 12 -223 23 -269 15z"/>
<path d="M2470 4949 c-30 -5 -69 -12 -85 -14 -29 -5 -31 -8 -27 -43 l3 -37
-21 32 c-20 29 -23 31 -53 21 -18 -6 -37 -17 -44 -25 -6 -8 -31 -16 -55 -18
-36 -2 -111 -30 -168 -63 -8 -5 -40 -21 -70 -37 -30 -15 -76 -42 -103 -59 -49
-32 -52 -40 -32 -91 7 -18 5 -18 -18 4 l-26 24 -43 -34 c-24 -19 -49 -38 -56
-44 -38 -30 -92 -88 -92 -101 0 -8 -6 -14 -14 -14 -13 0 -45 -33 -115 -120
-25 -31 -31 -44 -22 -53 19 -19 14 -39 -7 -28 -15 8 -23 3 -46 -32 -15 -23
-25 -50 -22 -59 3 -13 -2 -18 -15 -18 -25 0 -24 -15 2 -41 l21 -21 -28 6 c-23
5 -32 2 -42 -14 -7 -11 -8 -20 -3 -20 5 0 -1 -19 -14 -42 -12 -24 -28 -60 -35
-81 -10 -33 -10 -41 6 -58 16 -18 16 -19 -9 -19 -22 0 -27 -6 -33 -34 -7 -42
-2 -53 34 -61 19 -4 28 -12 29 -26 2 -19 -2 -21 -43 -14 l-44 6 -1 -38 c-1
-43 2 -97 5 -101 2 -1 35 -14 74 -28 40 -14 97 -41 128 -59 57 -35 120 -48
188 -41 35 4 43 0 90 -44 29 -27 73 -58 100 -69 l48 -21 29 33 c39 44 99 145
99 168 0 10 9 21 21 24 11 4 18 12 17 17 -2 6 5 21 17 34 11 12 36 50 55 83
19 34 50 88 68 119 19 31 55 98 80 147 26 50 50 95 55 100 15 19 82 130 97
160 8 17 18 32 21 35 4 3 26 42 49 86 50 97 105 160 146 169 16 3 37 11 48 17
14 7 21 6 27 -3 13 -21 63 1 67 29 2 13 -1 28 -6 35 -14 18 -59 165 -66 216
-4 24 -13 56 -21 72 -8 15 -15 44 -15 64 0 34 -1 35 -37 34 -21 -1 -63 -5 -93
-10z"/>
<path d="M3079 4883 c-6 -16 -13 -40 -16 -55 -6 -30 -23 -28 -23 3 0 10 -3 19
-7 19 -16 -1 -63 -75 -63 -99 0 -46 -42 -104 -94 -131 -54 -29 -67 -46 -64
-84 2 -27 28 -37 28 -12 0 8 5 18 11 22 7 4 10 -3 7 -21 -3 -24 2 -30 33 -40
50 -18 90 2 115 57 18 39 84 112 171 188 26 22 45 50 53 77 11 37 11 44 -8 67
l-20 26 -21 -27 -20 -28 -1 26 c0 47 -64 55 -81 12z"/>
<path d="M3315 4830 c-7 -22 -21 -26 -27 -8 -3 7 -19 -14 -37 -45 -18 -31 -47
-66 -64 -78 -62 -43 -130 -115 -153 -163 -12 -27 -35 -59 -51 -71 l-27 -23 34
-53 c18 -30 50 -85 69 -124 50 -99 48 -125 -26 -277 -34 -67 -68 -140 -76
-160 -16 -37 -16 -38 9 -51 39 -21 140 -4 169 27 27 30 23 36 -24 36 -27 0
-32 3 -21 10 8 5 33 10 56 10 36 0 47 6 92 53 127 132 149 143 299 149 127 6
135 10 162 86 12 33 27 53 50 67 46 28 111 85 111 98 0 5 -8 3 -18 -6 -10 -9
-34 -22 -53 -28 -19 -7 -45 -21 -59 -33 l-24 -21 16 25 c8 14 31 29 49 35 44
12 139 104 139 133 0 22 -24 31 -35 13 -3 -5 -24 -24 -47 -43 l-43 -33 22 30
c11 17 30 39 42 49 12 11 21 25 21 31 0 7 -39 50 -87 95 l-86 84 -40 -45 -40
-44 22 42 c11 23 21 48 21 55 0 20 -194 138 -302 182 -35 15 -37 15 -43 -4z"/>
<path d="M4117 4572 c-69 -45 -103 -89 -92 -120 3 -9 32 -55 65 -102 32 -47
75 -114 93 -150 19 -36 44 -74 56 -84 21 -19 22 -19 51 2 16 12 51 27 77 33
26 7 54 13 61 15 21 6 13 41 -31 131 -42 84 -111 191 -181 279 l-32 40 -67
-44z"/>
<path d="M2548 4383 c-25 -27 -81 -113 -124 -192 -11 -21 -31 -53 -44 -71 -15
-20 -23 -47 -23 -67 1 -19 -4 -33 -10 -33 -18 -1 -66 -75 -69 -107 -3 -25 0
-28 30 -31 24 -2 32 1 32 13 0 9 12 18 30 22 27 5 30 9 30 44 0 28 6 42 22 53
18 13 19 16 6 16 -9 0 -20 5 -24 12 -5 8 2 9 25 5 27 -6 34 -4 38 13 3 11 12
20 21 20 18 0 72 58 72 77 0 7 5 13 10 13 6 0 10 5 10 10 0 6 8 20 19 31 10
11 28 41 41 67 12 26 26 55 31 64 13 25 11 48 -3 48 -9 0 -8 4 2 10 11 7 -1
10 -41 10 -47 0 -59 -4 -81 -27z"/>
<path d="M3908 4338 c-8 -7 -27 -29 -41 -48 -14 -20 -51 -51 -82 -70 -36 -23
-58 -44 -62 -60 -3 -14 -14 -42 -24 -62 -23 -45 -24 -58 -4 -58 9 0 30 -16 48
-36 18 -20 47 -52 65 -72 l32 -35 38 19 c45 24 89 84 70 95 -8 5 6 17 42 34
30 15 64 32 75 39 11 6 31 17 44 25 16 9 20 15 12 21 -7 4 -42 -8 -79 -27
l-67 -34 59 54 c41 38 57 60 53 71 -4 9 -14 16 -23 16 -10 0 -14 6 -11 14 6
15 -23 68 -56 104 -23 24 -65 29 -89 10z"/>
<path d="M2932 4261 c-8 -4 -14 -31 -15 -62 -3 -51 -4 -54 -31 -57 -26 -3 -28
-6 -23 -38 4 -20 1 -36 -6 -41 -8 -4 -3 -9 12 -13 33 -8 39 -30 9 -30 -13 0
-29 -5 -36 -12 -7 -7 -12 -9 -12 -5 0 4 -6 2 -14 -5 -10 -9 -11 -15 -2 -20 8
-6 8 -13 -2 -28 -11 -18 -10 -20 8 -20 11 0 20 -4 20 -10 0 -5 5 -10 11 -10 5
0 7 5 4 10 -3 6 -1 10 4 10 6 0 11 11 11 25 0 20 5 25 26 25 19 0 28 7 35 30
6 17 15 30 19 30 5 0 12 10 15 23 4 12 15 31 25 42 27 30 33 61 20 103 -17 53
-47 73 -78 53z"/>
<path d="M4410 4083 c-19 -13 -40 -34 -47 -47 -6 -12 -23 -28 -37 -36 -30 -16
-33 -46 -13 -125 l14 -50 39 3 c21 2 57 10 79 18 22 7 52 14 67 14 15 0 29 4
32 8 5 9 -17 118 -35 167 -31 84 -41 89 -99 48z"/>
<path d="M4040 3924 c-52 -31 -110 -61 -129 -66 -23 -7 -30 -13 -23 -20 7 -7
20 -7 41 0 17 6 31 7 31 3 0 -9 -45 -31 -64 -31 -9 0 -12 -9 -8 -25 5 -29 8
-30 53 -11 27 11 39 12 68 1 52 -18 231 14 231 41 0 40 -73 164 -96 164 -5 0
-52 -25 -104 -56z"/>
<path d="M2249 3862 c-1 -4 -1 -10 0 -14 0 -5 -6 -8 -14 -8 -8 0 -15 -6 -15
-13 0 -7 -8 -22 -18 -33 -24 -26 -92 -151 -92 -170 0 -8 -7 -17 -16 -21 -8 -3
-13 -12 -10 -19 3 -8 -4 -18 -15 -24 -11 -6 -17 -15 -14 -21 4 -5 3 -9 -2 -9
-4 0 -13 -10 -19 -23 -65 -130 -85 -170 -87 -180 -1 -7 -9 -15 -17 -18 -20 -9
75 -23 96 -15 9 4 14 9 10 13 -3 3 10 17 29 30 19 13 35 28 35 32 0 14 -36 19
-55 9 -11 -7 -21 -6 -28 1 -16 16 -1 25 38 23 42 -3 76 13 69 32 -3 9 3 17 18
21 13 4 34 19 47 33 31 34 86 70 116 78 15 4 25 13 25 23 0 10 3 21 8 25 4 4
7 33 7 64 0 44 -4 61 -20 75 -17 14 -17 16 -2 11 12 -4 17 -1 17 11 0 9 9 30
21 47 12 16 20 31 18 32 -8 7 -129 14 -130 8z"/>
<path d="M4450 3829 c-14 -5 -44 -14 -67 -19 l-43 -11 0 -59 c0 -49 4 -64 26
-90 34 -39 114 -81 143 -73 15 4 21 1 21 -12 0 -12 5 -15 16 -11 9 3 20 6 26
6 8 0 9 35 4 113 -10 166 -10 167 -60 166 -22 -1 -52 -5 -66 -10z"/>
<path d="M4189 3776 c-3 -3 -36 -10 -74 -16 -53 -9 -79 -8 -106 1 -32 10 -40
9 -63 -7 -31 -23 -34 -60 -6 -84 49 -43 257 -47 293 -7 18 22 20 37 11 86 -5
23 -12 31 -29 31 -12 0 -24 -2 -26 -4z"/>
<path d="M3853 3571 l-31 -51 20 -25 c27 -35 54 -48 118 -56 48 -7 60 -13 90
-48 68 -79 250 -145 250 -92 0 43 -17 69 -44 66 -14 -2 -26 1 -26 6 0 5 6 9
13 9 24 0 47 24 38 39 -7 11 -16 11 -57 -3 -62 -21 -81 -21 -64 -1 7 8 26 15
42 15 16 0 38 5 50 11 17 9 19 17 13 57 -4 32 -15 55 -33 72 -24 22 -38 26
-137 32 -60 3 -132 9 -160 13 l-50 6 -32 -50z"/>
<path d="M4377 3536 c-16 -13 -17 -22 -8 -96 6 -44 13 -85 16 -91 4 -5 8 -19
10 -31 6 -31 32 -83 48 -97 8 -6 47 -17 88 -25 41 -8 93 -20 116 -27 23 -7 45
-10 49 -7 3 4 -13 54 -36 113 -24 58 -50 133 -59 168 l-16 62 -45 6 c-25 4
-58 12 -75 19 -47 19 -69 20 -88 6z"/>
<path d="M1172 3508 c-6 -19 -12 -47 -12 -61 0 -26 2 -27 48 -26 29 1 76 -8
122 -24 65 -22 88 -25 160 -22 47 3 98 7 114 11 23 5 35 0 65 -29 20 -19 45
-37 56 -40 15 -5 14 -3 -5 10 -14 10 -42 35 -63 58 -38 39 -40 40 -127 46 -71
5 -98 12 -137 34 -87 50 -122 65 -165 71 -42 6 -44 5 -56 -28z"/>
<path d="M978 3520 c-47 -5 -77 -14 -102 -31 -72 -48 -22 -83 103 -73 l81 7 0
48 c0 26 -3 49 -7 51 -5 2 -38 1 -75 -2z"/>
<path d="M3786 3455 c-38 -58 -39 -74 -5 -106 35 -32 55 -36 84 -13 15 11 37
13 109 8 l90 -7 -23 31 c-28 40 -32 42 -89 48 -29 2 -66 16 -95 34 -27 17 -50
30 -52 30 -1 0 -10 -11 -19 -25z"/>
<path d="M3592 3432 c-49 -3 -53 -5 -72 -41 -10 -21 -37 -53 -60 -71 -48 -38
-50 -50 -7 -51 19 -1 24 -3 12 -6 -11 -2 -27 -7 -35 -10 -8 -3 -25 -5 -36 -4
-12 1 -43 -8 -68 -20 -46 -21 -67 -39 -47 -39 15 0 14 -27 -1 -33 -8 -3 -5 -6
5 -6 10 -1 15 -6 12 -12 -4 -6 -13 -8 -21 -5 -17 7 -17 -8 0 -56 11 -31 11
-42 0 -64 -17 -33 -17 -34 1 -34 8 0 15 -7 15 -16 0 -11 -6 -15 -20 -11 -15 4
-22 -3 -30 -29 -7 -19 -10 -41 -7 -48 3 -7 -4 -21 -16 -32 -20 -17 -21 -19 -4
-22 21 -4 17 -28 -5 -26 -10 1 -14 -5 -11 -17 4 -14 0 -19 -16 -19 -25 0 -76
-48 -86 -81 -4 -13 -22 -43 -39 -68 -18 -25 -38 -61 -45 -78 -7 -18 -17 -33
-21 -33 -4 0 -13 -22 -20 -50 -7 -27 -16 -47 -21 -44 -14 8 -10 -19 5 -38 31
-42 118 -7 131 52 4 17 12 30 19 30 7 0 27 28 46 62 18 34 39 68 46 76 8 7 14
18 14 23 0 10 91 171 101 179 4 3 19 30 34 60 15 30 52 97 81 148 30 51 54 97
54 102 0 6 4 10 9 10 5 0 11 8 14 18 3 9 31 64 61 120 31 57 56 106 56 108 0
2 -23 4 -51 4 -34 0 -49 4 -47 12 3 7 25 12 54 12 35 1 56 7 69 19 24 25 10
33 -53 29z"/>
<path d="M835 3320 c9 -121 32 -273 56 -360 11 -41 25 -94 31 -117 10 -38 15
-43 65 -62 65 -25 70 -25 107 -6 23 12 36 13 59 5 17 -5 31 -9 32 -8 3 4 -28
100 -37 113 -14 22 -68 315 -74 402 -4 50 -10 96 -13 101 -3 6 -57 12 -119 14
l-113 3 6 -85z"/>
<path d="M1205 3403 c-32 -8 -42 -23 -14 -23 13 0 31 -5 39 -11 11 -8 4 -9
-28 -7 l-44 4 4 -90 c1 -49 8 -91 13 -93 6 -2 9 -23 7 -48 -3 -27 4 -69 18
-111 l22 -66 37 6 c89 15 126 18 111 7 -8 -6 -36 -14 -62 -17 -26 -4 -56 -13
-65 -20 -17 -13 -17 -15 2 -29 14 -11 16 -18 8 -23 -8 -5 -7 -13 5 -30 l17
-22 62 33 c34 18 82 51 107 74 25 22 46 37 48 32 2 -6 22 -3 47 6 24 8 69 18
100 21 78 9 93 19 89 56 -5 49 -25 54 -99 24 -96 -40 -102 -40 -24 -1 38 19
83 35 100 35 28 0 32 4 49 53 29 86 27 99 -19 120 -22 10 -55 33 -73 50 l-32
31 -119 -3 c-105 -2 -125 0 -193 23 -76 27 -79 27 -113 19z"/>
<path d="M3718 3343 c-30 -36 -78 -114 -78 -129 0 -7 -4 -14 -9 -14 -5 0 -13
-9 -16 -20 -3 -11 -12 -26 -18 -32 -7 -7 -24 -35 -39 -63 -73 -138 -103 -192
-186 -335 -50 -85 -94 -159 -99 -165 -5 -5 -17 -29 -27 -52 -11 -24 -22 -43
-25 -43 -4 0 -15 -17 -26 -37 -57 -111 -115 -163 -197 -177 l-38 -7 0 -65 c0
-36 6 -77 14 -92 8 -15 17 -46 21 -67 5 -25 20 -53 41 -75 37 -40 60 -96 70
-173 3 -30 26 -95 52 -153 l47 -100 87 -28 c47 -15 103 -29 124 -32 21 -3 43
-9 50 -15 6 -5 67 -24 135 -41 105 -26 144 -31 254 -32 125 -1 215 14 215 36
0 4 6 8 13 8 8 0 19 11 27 24 11 22 9 30 -20 81 -18 31 -30 58 -27 61 2 3 18
-11 35 -30 42 -49 48 -33 11 33 l-31 56 35 -33 c32 -31 35 -32 40 -13 3 13 -4
35 -19 57 -25 37 -28 58 -4 29 7 -8 16 -15 21 -15 9 0 23 67 42 198 15 101 12
114 -41 156 -37 30 -17 31 23 1 42 -32 50 -30 30 9 -19 36 -19 50 0 42 8 -3
15 -4 15 -3 0 1 9 54 20 117 l19 115 -32 34 c-31 33 -31 34 -5 18 36 -22 55
-21 63 3 3 10 20 31 38 46 35 30 166 94 191 94 23 0 20 8 -14 37 -35 29 -38
43 -10 43 11 0 20 5 20 10 0 23 32 8 44 -20 l12 -30 13 24 c15 28 7 64 -37
159 -18 40 -33 59 -49 63 -30 8 -30 24 0 24 22 1 22 1 2 16 -11 8 -19 22 -17
30 2 8 -4 27 -12 42 -27 50 -76 158 -76 168 0 5 -23 17 -51 27 -37 14 -69 37
-117 85 -102 104 -128 122 -178 122 -23 0 -65 5 -93 12 -47 11 -55 10 -92 -11
l-41 -23 -38 31 c-46 36 -43 36 -62 14z"/>
<path d="M2861 3149 c-10 -23 -11 -37 -3 -49 11 -19 -1 -107 -18 -124 -6 -6
-10 -18 -10 -28 0 -10 -4 -18 -10 -18 -5 0 -10 -7 -10 -16 0 -8 -13 -26 -28
-39 -15 -13 -39 -44 -51 -69 -13 -25 -27 -43 -31 -41 -6 4 -50 -65 -50 -78 0
-3 8 -4 18 -2 9 2 38 7 65 10 42 6 47 9 47 31 0 14 6 27 14 30 8 3 22 26 31
52 10 26 23 54 29 62 21 26 37 71 30 82 -4 6 -2 8 4 5 6 -4 15 13 23 43 7 27
16 50 19 50 4 0 15 18 25 39 19 43 13 70 -11 50 -18 -15 -46 -4 -42 18 5 31
-26 25 -41 -8z"/>
<path d="M4565 3102 c-38 -8 -71 -16 -72 -17 -5 -2 29 -89 67 -173 22 -49 40
-93 40 -97 0 -4 8 -19 18 -33 21 -32 60 -154 62 -197 3 -50 1 -56 -31 -86 -25
-24 -28 -30 -15 -35 34 -13 14 -24 -41 -23 -49 2 -72 -5 -144 -38 -67 -32 -88
-47 -97 -69 -18 -45 -42 -177 -52 -286 -5 -55 -12 -103 -15 -108 -5 -8 -16
-85 -45 -310 -16 -128 -50 -227 -84 -247 -7 -4 -16 -17 -18 -28 -2 -13 -11
-19 -23 -18 -11 1 -44 -5 -74 -13 -97 -25 -341 -11 -461 26 -29 9 -114 33
-200 55 -8 2 -33 11 -55 18 -63 22 -105 28 -105 15 0 -7 -9 -2 -20 10 -12 12
-28 22 -37 22 -12 0 -5 -12 24 -42 59 -62 65 -78 52 -136 -12 -51 -6 -102 12
-102 5 0 40 -23 77 -51 62 -48 73 -62 123 -161 30 -59 35 -269 8 -321 -9 -15
-2 -32 36 -87 25 -38 57 -94 70 -125 27 -60 39 -65 85 -38 35 20 58 94 80 248
11 83 30 184 56 295 10 43 11 66 4 68 -5 2 -10 11 -10 20 0 11 3 13 10 6 8 -8
22 -6 48 7 21 10 84 22 147 29 170 18 301 70 372 149 37 41 84 142 87 186 2
22 6 47 8 55 8 22 26 132 38 230 6 47 17 132 25 190 8 58 16 119 19 135 2 20
-3 37 -16 51 -19 21 -19 21 5 17 20 -4 25 0 30 26 14 69 52 97 193 142 85 27
145 67 173 114 28 48 29 183 2 270 -29 90 -149 384 -177 433 -23 39 -27 42
-67 41 -23 -1 -73 -8 -112 -17z"/>
<path d="M2505 2993 c-27 -9 -51 -29 -74 -61 -84 -115 -178 -178 -283 -190
-58 -7 -67 -12 -112 -57 -47 -49 -47 -49 -17 -9 17 23 31 47 31 53 0 6 -20 11
-47 11 -27 0 -68 9 -91 20 -33 15 -49 17 -63 10 -10 -6 -19 -15 -19 -20 0 -5
-11 -20 -25 -33 -14 -13 -33 -39 -43 -58 -17 -35 -17 -34 -147 -71 -81 -23
-145 -70 -145 -108 0 -10 21 -42 48 -71 26 -28 54 -62 62 -74 8 -12 45 -54 81
-93 53 -57 70 -70 87 -65 25 6 30 -15 10 -35 -9 -9 -7 -17 9 -34 30 -33 131
-232 149 -295 l16 -54 25 16 c34 23 41 11 14 -25 -12 -17 -19 -30 -16 -30 19
0 52 34 92 93 42 63 83 97 117 97 8 0 29 20 46 45 20 29 49 54 81 70 31 16 58
40 75 66 18 29 39 46 73 60 33 14 59 35 83 68 26 35 49 52 84 66 76 28 77 30
49 85 -13 26 -31 50 -39 53 -7 3 -29 -5 -47 -19 -49 -36 -54 -29 -7 14 l40 38
-36 72 c-20 40 -36 86 -36 105 0 21 20 73 55 140 31 60 52 112 49 121 -4 9 0
18 9 22 19 7 41 59 34 78 -7 18 -119 18 -172 -1z"/>
<path d="M1614 2979 c-81 -11 -125 -28 -192 -78 -98 -71 -132 -102 -132 -119
0 -44 104 -191 137 -192 15 0 60 53 69 82 4 13 20 38 35 56 16 18 32 50 35 72
4 22 10 43 14 45 15 9 -11 -80 -30 -105 -22 -29 -81 -142 -76 -147 2 -2 36 8
77 22 41 14 82 25 92 25 9 0 17 5 17 10 0 6 6 10 12 10 26 0 115 108 128 155
12 43 11 49 -15 98 -40 75 -41 75 -80 37 -19 -18 -37 -31 -41 -28 -3 4 4 12
16 18 12 6 19 14 17 17 -7 6 -67 -25 -97 -51 -20 -17 -22 -18 -10 -2 8 11 32
32 53 47 21 15 34 29 30 31 -4 3 -31 1 -59 -3z"/>
<path d="M1968 2897 c-56 -60 -25 -91 87 -88 74 2 91 11 97 50 5 36 -41 65
-105 66 -45 1 -56 -2 -79 -28z"/>
<path d="M1075 2758 c-27 -5 -64 -12 -82 -14 l-32 -5 13 -37 c16 -45 77 -166
104 -205 19 -27 19 -27 43 -9 13 11 41 25 61 31 21 7 40 17 44 22 3 5 10 7 15
4 11 -7 39 18 39 35 0 6 -18 46 -40 89 -47 95 -69 106 -165 89z"/>
<path d="M1218 2476 c3 -5 -2 -7 -11 -3 -10 3 -17 3 -17 -2 0 -5 -9 -11 -20
-14 -35 -9 -35 -51 -1 -101 35 -50 59 -76 70 -76 5 0 34 25 65 56 52 50 57 59
54 92 -3 34 -5 37 -32 34 -26 -3 -28 -1 -17 12 12 14 7 15 -42 13 -30 -1 -52
-6 -49 -11z"/>
<path d="M1377 2395 c-8 -17 -42 -56 -75 -87 l-59 -57 21 -20 c19 -17 24 -18
46 -6 39 22 48 17 18 -9 -16 -13 -28 -28 -28 -34 0 -6 33 -48 73 -95 113 -131
117 -136 162 -206 80 -124 124 -270 125 -413 0 -32 4 -58 10 -58 5 0 22 20 39
43 28 41 57 69 130 125 27 21 29 26 26 73 -3 28 -10 70 -16 92 -20 74 -81 221
-105 254 -13 17 -24 35 -24 40 0 21 -178 223 -196 223 -8 0 -20 15 -28 33 -8
17 -35 54 -59 82 l-44 49 -16 -29z"/>
<path d="M2737 2243 c-9 -21 -25 -65 -36 -98 -11 -33 -20 -53 -21 -44 0 9 9
42 20 75 23 70 25 95 6 88 -19 -7 -36 -49 -36 -87 0 -58 -26 -135 -65 -191
-32 -47 -37 -59 -28 -78 10 -22 11 -21 27 16 9 22 19 37 22 33 3 -3 1 -14 -5
-25 -18 -34 -13 -90 11 -125 42 -60 83 -99 130 -123 46 -23 206 -74 234 -74
20 0 17 23 -12 92 -19 46 -27 86 -31 157 -6 94 -7 97 -48 151 -24 30 -48 66
-55 79 -15 28 -42 153 -38 173 2 8 -9 14 -28 16 -27 3 -32 -1 -47 -35z"/>
<path d="M2900 2245 c0 -13 -10 -45 -22 -70 -22 -45 -22 -46 -3 -78 10 -17 36
-54 57 -81 33 -42 38 -56 38 -100 0 -87 18 -166 55 -241 51 -105 65 -105 67
-2 1 45 1 96 0 112 -4 55 -33 137 -57 161 -37 37 -55 67 -55 92 0 12 -9 40
-20 62 -12 24 -20 59 -20 92 0 55 -6 71 -27 76 -8 1 -13 -8 -13 -23z"/>
<path d="M2598 2247 c-15 -7 -45 -33 -68 -59 -26 -30 -55 -52 -79 -59 -27 -8
-45 -22 -62 -50 -16 -27 -44 -51 -83 -72 -33 -18 -64 -42 -70 -52 -6 -11 -26
-37 -43 -57 -37 -42 -40 -52 -47 -159 -5 -75 12 -173 47 -271 l13 -37 35 41
c46 55 79 109 79 130 0 33 -27 7 -60 -58 -48 -97 -45 -72 4 31 42 87 43 91 30
129 -35 97 -7 204 62 241 37 20 114 22 161 4 23 -8 30 -6 54 23 46 53 72 116
75 177 1 31 5 68 9 84 6 22 4 27 -11 27 -11 -1 -31 -6 -46 -13z"/>
<path d="M2111 1874 c-12 -9 -38 -40 -56 -69 -19 -29 -48 -67 -65 -84 -29 -29
-31 -35 -26 -79 15 -117 18 -399 6 -480 -7 -46 -9 -86 -6 -89 3 -4 16 3 29 14
12 11 40 30 62 41 62 31 88 66 103 135 21 98 26 192 12 229 -42 114 -55 310
-25 368 18 35 4 40 -34 14z"/>
<path d="M2507 1743 c-14 -22 -37 -47 -51 -56 -41 -27 -43 -59 -7 -116 51 -79
132 -148 224 -191 45 -20 93 -40 107 -43 14 -2 76 -21 138 -40 62 -20 129 -37
150 -38 32 -3 37 -1 35 16 -1 11 -5 61 -9 111 l-7 91 -51 23 c-47 21 -114 43
-226 74 -76 22 -112 45 -197 128 l-81 81 -25 -40z"/>
<path d="M1817 1546 c-32 -22 -69 -59 -84 -81 -14 -22 -35 -50 -47 -63 -16
-18 -24 -47 -33 -120 -22 -177 -32 -236 -58 -366 -14 -71 -28 -155 -32 -187
-3 -33 -10 -59 -14 -59 -5 0 -9 -5 -9 -10 0 -6 7 -7 18 -1 9 4 37 17 62 29 25
11 75 47 112 81 56 52 70 71 87 124 11 34 25 91 31 127 5 36 14 81 20 100 5
19 10 58 10 86 0 43 -3 53 -20 57 -11 3 -20 13 -20 22 0 13 6 16 25 13 l25 -5
-1 131 c0 72 -3 138 -7 147 -6 14 -16 10 -65 -25z"/>
<path d="M2299 1493 c-19 -25 -41 -55 -49 -67 -10 -13 -17 -59 -22 -140 -4
-67 -10 -142 -14 -167 -4 -33 -1 -56 11 -79 9 -17 15 -34 12 -36 -2 -2 -12 13
-21 34 -18 40 -20 61 -12 187 5 77 4 78 -4 21 -6 -32 -16 -68 -24 -80 -26 -37
-90 -101 -128 -129 -20 -15 -44 -42 -54 -59 -53 -101 -65 -131 -60 -153 3 -13
1 -25 -4 -27 -6 -2 -13 -20 -16 -40 l-6 -36 48 -7 c27 -3 66 -8 87 -11 33 -5
37 -3 37 15 0 12 5 21 10 21 6 0 10 -8 8 -17 -2 -14 4 -18 27 -18 26 0 33 7
52 45 24 49 27 46 14 -12 l-9 -38 273 0 c309 0 284 -8 286 88 l2 57 10 -72 10
-73 146 0 c80 0 151 4 156 8 6 4 10 18 10 31 0 13 6 26 13 29 6 2 12 -3 12
-12 0 -10 9 -16 21 -16 16 0 20 -5 16 -20 -3 -13 0 -20 9 -20 9 0 14 11 14 33
l1 32 18 -34 c18 -33 18 -33 25 -10 6 22 7 22 17 7 7 -13 23 -18 59 -18 40 0
51 4 61 21 14 26 6 108 -11 119 -7 4 -9 13 -6 19 9 14 -3 53 -14 46 -4 -2 -18
19 -30 48 -12 28 -37 66 -56 84 -19 18 -34 39 -34 48 0 9 -10 19 -22 24 -21 7
-24 4 -35 -38 -7 -25 -10 -68 -8 -96 4 -43 4 -46 -5 -20 -5 17 -7 64 -4 106
l7 76 -29 10 c-47 18 -203 65 -206 63 -2 -1 -27 8 -56 19 -64 26 -72 26 -73 4
0 -16 -2 -15 -10 2 -11 23 -141 80 -176 77 -16 -1 -23 4 -23 16 0 10 -19 32
-42 49 -24 17 -59 49 -78 72 -35 41 -60 52 -60 28 0 -7 -7 -22 -15 -33 -14
-18 -15 -16 -13 28 1 26 0 50 -3 53 -3 2 -21 -16 -40 -42z"/>
<path d="M1743 750 c-18 -11 -33 -24 -33 -30 0 -5 -27 -23 -59 -40 -33 -16
-62 -33 -64 -37 -3 -5 -6 -62 -8 -128 l-4 -120 43 -3 c41 -3 42 -2 42 28 0 37
21 89 53 132 14 18 32 47 41 65 16 33 38 153 27 153 -3 0 -21 -9 -38 -20z"/>
<path d="M1763 568 c-72 -99 -89 -148 -61 -176 17 -17 1779 -17 1796 0 7 7 12
33 12 58 0 35 -8 57 -36 98 -19 29 -45 56 -57 60 -38 13 -137 8 -147 -8 -7
-12 -11 -12 -26 0 -13 12 -67 16 -250 18 l-234 4 -9 -23 -10 -24 0 23 -1 23
-355 -2 c-203 -1 -355 -5 -357 -10 -2 -6 -25 -5 -56 1 -39 7 -58 6 -72 -2 -14
-9 -25 -9 -45 0 -42 19 -51 15 -92 -40z"/>
</g>
</svg>
