<?xml version="1.0" standalone="no"?>
<!DOCTYPE svg PUBLIC "-//W3C//DTD SVG 20010904//EN"
 "http://www.w3.org/TR/2001/REC-SVG-20010904/DTD/svg10.dtd">
<svg version="1.0" xmlns="http://www.w3.org/2000/svg"
 width="544.000000pt" height="544.000000pt" viewBox="0 0 544.000000 544.000000"
 preserveAspectRatio="xMidYMid meet">
<metadata>
Created by potrace 1.16, written by Peter Selinger 2001-2019
</metadata>
<g transform="translate(0.000000,544.000000) scale(0.100000,-0.100000)"
fill="#000000" stroke="none">
<path d="M0 3456 l0 -1984 57 24 c32 12 105 32 162 44 57 12 112 25 122 30 36
20 51 206 22 296 -16 52 -16 52 9 96 14 23 64 95 111 159 94 128 122 176 137
229 17 61 30 71 116 86 43 7 99 18 124 23 25 6 62 10 82 11 20 0 39 3 41 8 3
4 -19 61 -48 127 -62 141 -100 252 -120 349 -9 39 -23 105 -32 146 -24 116
-24 567 1 641 3 8 7 31 10 51 10 66 24 120 65 243 62 185 83 234 139 328 21
34 46 79 57 101 11 21 32 52 47 68 15 16 27 31 27 34 1 5 34 57 41 64 22 20
68 88 63 94 -3 3 -1 6 6 6 7 0 36 22 65 49 92 89 130 121 196 169 36 25 67 49
70 53 25 31 238 150 402 223 l76 35 -5 40 c-3 25 -2 41 5 41 12 0 22 -24 22
-52 0 -17 5 -19 33 -13 17 3 43 10 57 15 14 4 64 16 113 26 54 12 87 23 87 31
0 15 17 18 22 4 2 -6 21 -6 48 0 64 13 433 20 510 9 124 -17 146 -22 265 -52
158 -39 236 -68 370 -133 125 -62 170 -87 238 -133 26 -17 50 -32 53 -32 7 0
142 -108 149 -120 3 -5 15 -10 26 -10 10 0 19 -6 19 -14 0 -8 29 -40 64 -72
78 -72 234 -261 296 -359 29 -47 56 -39 139 41 42 40 85 80 96 88 30 23 110
19 232 -10 98 -24 120 -26 228 -20 115 6 255 21 303 31 l22 5 0 435 -1 435
-2270 0 c-2263 0 -2270 0 -2264 -20 5 -14 2 -20 -9 -20 -9 0 -16 9 -16 20 0
20 -7 20 -440 20 l-440 0 0 -1984z"/>
<path d="M2515 5283 c-46 -4 -165 -23 -220 -35 -73 -15 -298 -93 -354 -122
-14 -8 -69 -35 -121 -61 -52 -26 -97 -51 -100 -55 -3 -4 -21 -15 -40 -25 -19
-10 -49 -30 -67 -44 -17 -14 -53 -42 -79 -61 -78 -57 -136 -120 -136 -146 0
-24 -13 -33 -20 -13 -2 6 -19 -5 -38 -24 -64 -62 -110 -119 -104 -128 3 -5 1
-9 -4 -9 -14 0 -81 -92 -138 -190 -142 -242 -213 -450 -245 -715 -9 -81 -8
-374 2 -495 3 -35 59 -266 86 -355 32 -105 121 -281 154 -306 24 -17 33 -18
85 -8 61 11 94 25 106 42 8 13 -11 64 -62 172 -83 176 -108 266 -148 545 -11
77 4 333 28 470 41 238 156 505 287 666 18 23 33 46 33 53 0 6 5 11 10 11 6 0
10 4 10 9 0 9 48 58 130 134 29 26 236 189 253 198 7 4 26 13 42 20 17 8 46
25 65 37 70 47 250 132 280 132 17 0 81 13 143 29 168 43 327 56 521 42 87 -6
164 -15 170 -19 6 -5 49 -17 96 -27 47 -10 105 -27 130 -38 25 -10 77 -30 115
-44 39 -14 77 -31 85 -37 8 -7 49 -31 90 -55 41 -23 80 -45 86 -49 100 -65
166 -117 244 -194 91 -90 112 -114 181 -203 17 -22 40 -42 52 -45 17 -5 21
-12 19 -35 -2 -23 7 -40 36 -72 36 -40 62 -54 62 -35 0 5 20 18 44 31 26 12
54 37 67 57 l22 36 -29 61 c-49 102 -164 248 -299 380 -282 274 -723 483
-1095 517 -100 10 -346 11 -435 3z"/>
<path d="M2692 4962 l-43 -3 5 -47 6 -47 -21 48 -22 48 -71 -6 c-105 -8 -169
-26 -180 -51 -9 -20 -11 -20 -36 -6 -26 15 -60 11 -60 -6 0 -5 15 -13 33 -18
30 -9 33 -15 52 -84 17 -66 25 -81 71 -125 51 -49 163 -143 188 -157 7 -4 62
-10 122 -14 59 -4 113 -11 119 -16 5 -4 32 -23 59 -41 59 -39 159 -179 177
-247 13 -49 17 -37 -58 -178 -18 -34 -33 -68 -33 -75 0 -8 -9 -22 -20 -32 -22
-20 -70 -115 -70 -138 0 -22 22 -27 119 -27 97 0 137 16 128 52 -3 11 -3 17 0
14 9 -8 34 15 27 25 -3 5 -24 10 -47 10 -45 1 -38 4 34 14 37 5 49 11 60 32
22 43 70 92 127 130 48 32 63 37 150 45 53 5 109 15 126 23 41 21 46 19 46
-15 0 -17 5 -30 13 -30 15 -1 67 -46 67 -59 0 -5 9 -13 20 -16 11 -3 20 -12
20 -19 0 -7 13 -25 29 -40 32 -31 71 -37 97 -15 9 8 46 30 83 49 78 41 101 74
85 119 -6 16 -8 35 -3 42 16 27 -4 28 -47 3 -49 -29 -60 -17 -14 16 63 45 57
74 -49 222 -87 122 -83 120 -136 68 -54 -53 -58 -48 -10 10 19 23 35 46 35 50
0 13 -82 90 -96 90 -7 0 -14 -5 -16 -12 -7 -21 -30 3 -24 26 3 11 1 28 -4 36
-5 8 -10 11 -10 6 0 -6 -7 -1 -15 10 -14 18 -15 18 -39 -11 -29 -34 -33 -28
-11 16 15 28 15 30 -9 39 -13 5 -27 13 -30 18 -3 6 -32 25 -64 42 -31 18 -59
36 -62 40 -9 13 -48 30 -69 30 -12 0 -21 4 -21 9 0 14 -87 44 -105 38 -9 -4
-15 -1 -15 7 0 25 -88 43 -97 20 -8 -23 -25 -16 -21 8 2 19 -3 25 -35 32 -44
11 -56 1 -57 -49 0 -16 -5 -37 -11 -45 -8 -11 -9 0 -6 43 2 34 -1 61 -7 66
-29 22 -244 42 -354 33z"/>
<path d="M2210 4863 c-61 -7 -170 -45 -170 -59 0 -8 -11 -14 -26 -14 -14 0
-51 -18 -83 -40 -31 -22 -60 -40 -64 -40 -4 0 -13 -5 -20 -10 -18 -15 -80 -62
-112 -85 -15 -11 -39 -32 -53 -47 -14 -15 -32 -30 -41 -33 -9 -3 -27 -21 -40
-40 l-24 -36 29 -32 c17 -18 36 -41 43 -52 7 -11 -7 2 -31 29 -32 34 -50 47
-62 43 -9 -4 -16 -12 -16 -19 0 -8 -8 -21 -17 -29 -21 -18 -46 -48 -88 -104
-31 -41 -42 -59 -77 -126 -11 -21 -25 -39 -31 -39 -5 0 -3 -8 6 -18 22 -24 21
-35 -1 -28 -13 5 -21 -1 -28 -21 -8 -24 -6 -31 16 -51 l25 -24 -32 6 c-37 6
-47 -3 -68 -64 -14 -39 -14 -45 1 -62 16 -17 16 -18 -8 -18 -20 0 -27 -6 -30
-27 -3 -16 -7 -34 -9 -41 -4 -14 2 -18 54 -43 15 -7 27 -17 27 -22 0 -9 -12
-7 -76 9 -20 6 -22 0 -36 -103 -14 -107 -16 -355 -3 -413 4 -18 13 -30 22 -30
13 0 13 -3 3 -15 -15 -18 -7 -100 17 -164 16 -43 17 -43 57 -38 116 16 131 17
66 1 -36 -9 -72 -19 -80 -24 -20 -10 -15 -42 21 -118 16 -34 29 -67 29 -72 0
-6 3 -10 8 -10 4 0 15 -18 24 -39 24 -54 55 -81 94 -81 37 0 85 18 97 37 11
18 37 16 37 -2 0 -37 136 2 238 68 62 41 63 43 57 77 -3 19 -18 55 -33 80 -67
110 -85 226 -46 305 25 50 99 185 136 248 15 26 28 50 28 54 0 3 17 33 37 67
21 33 45 73 53 88 8 16 36 64 63 109 26 45 47 85 47 89 0 4 8 18 19 31 39 50
111 186 111 211 0 9 9 19 19 23 11 3 23 16 27 27 4 12 24 50 45 85 21 35 36
63 34 63 -3 0 1 11 10 23 10 15 13 35 9 54 -6 31 6 65 33 92 8 7 11 21 7 30
-3 9 -10 34 -16 55 -5 22 -23 57 -41 79 -18 22 -43 68 -57 101 -26 63 -81 157
-90 154 -3 0 -21 -3 -40 -5z"/>
<path d="M4652 4513 c-15 -16 -53 -58 -85 -94 -46 -54 -57 -73 -57 -101 0 -26
6 -40 22 -50 21 -14 21 -18 10 -40 -12 -22 -10 -32 13 -88 36 -85 85 -275 85
-328 0 -44 17 -175 26 -202 3 -8 7 -48 9 -90 5 -89 12 -126 28 -154 6 -12 17
-34 23 -51 32 -84 106 -259 137 -325 87 -183 157 -396 157 -476 0 -52 1 -54
35 -68 47 -20 44 -29 -6 -21 -26 5 -39 4 -36 -2 8 -13 -30 -117 -43 -121 -6
-2 -17 -10 -25 -19 -8 -8 -41 -30 -72 -49 -31 -19 -51 -34 -45 -34 7 0 12 -7
12 -15 0 -19 -14 -19 -33 -1 -12 13 -23 11 -78 -8 -74 -27 -109 -66 -110 -125
0 -20 -3 -45 -6 -56 -5 -21 -31 -178 -58 -358 -9 -60 -13 -117 -10 -128 4 -11
2 -26 -4 -32 -5 -7 -15 -40 -21 -72 -6 -33 -14 -73 -17 -90 -3 -16 -12 -34
-19 -38 -8 -4 -14 -14 -14 -21 0 -17 -92 -116 -108 -116 -6 0 -12 -3 -12 -8 0
-4 -9 -12 -19 -17 -11 -6 -45 -24 -75 -42 -30 -18 -65 -34 -78 -37 -30 -6
-192 -35 -242 -44 -67 -12 -81 -43 -81 -175 1 -138 3 -146 47 -205 22 -29 38
-64 43 -92 11 -67 95 -317 119 -352 26 -38 87 -70 186 -96 41 -11 113 -32 159
-46 l85 -26 473 0 473 0 0 110 c0 61 -4 110 -9 110 -5 0 -19 17 -31 38 l-22
37 31 -29 31 -30 0 2148 c0 2036 -1 2147 -18 2142 -61 -18 -212 -31 -362 -31
-154 0 -184 3 -246 23 -95 30 -128 29 -162 -5z"/>
<path d="M2862 4340 c-12 -16 -22 -33 -22 -38 0 -5 -7 -15 -15 -22 -16 -13
-55 -93 -59 -120 -2 -8 -10 -31 -18 -50 -33 -72 -30 -263 5 -317 18 -29 87 13
87 53 0 12 15 38 33 57 42 46 147 232 147 264 0 22 -9 44 -54 130 -16 30 -60
73 -75 73 -4 0 -17 -13 -29 -30z"/>
<path d="M2473 4272 c-15 -16 -34 -46 -42 -68 -7 -21 -26 -59 -42 -84 -22 -33
-28 -51 -24 -72 5 -22 3 -27 -8 -22 -19 7 -47 -23 -81 -86 -21 -38 -24 -51
-14 -55 7 -3 58 -6 113 -8 l100 -3 -115 -2 c-130 -2 -133 -4 -181 -99 -13 -27
-26 -50 -29 -53 -3 -3 -18 -32 -35 -65 -16 -33 -33 -64 -38 -70 -22 -27 -77
-118 -77 -128 0 -6 -6 -18 -14 -26 -8 -9 -27 -41 -42 -71 -15 -30 -30 -57 -34
-60 -4 -3 -26 -42 -50 -87 -57 -111 -55 -113 103 -113 115 0 121 1 143 25 12
13 29 37 37 52 8 16 22 43 31 61 l17 32 -65 0 c-36 0 -68 5 -71 10 -4 6 23 10
74 10 l80 0 16 33 c9 19 28 48 43 67 l28 33 229 4 c127 3 244 4 260 4 138 -4
226 -2 240 6 10 6 34 7 59 2 22 -5 78 -8 123 -9 95 0 95 -2 31 92 -21 32 -38
64 -38 71 0 7 -11 23 -25 35 -23 20 -35 22 -168 22 -78 0 -149 -5 -157 -10
-10 -6 -22 -4 -38 6 -20 13 -24 13 -45 -8 -25 -26 -44 -63 -49 -93 -5 -32 -35
-30 -41 2 -14 71 -24 110 -30 120 -3 5 -46 13 -94 17 -48 3 -91 10 -96 15 -8
8 16 66 53 131 29 51 26 68 -12 73 -25 3 -22 4 15 5 45 2 47 3 47 33 0 20 4
28 11 23 8 -5 10 1 5 19 -4 16 -2 27 7 30 9 3 9 9 -1 26 -12 20 -11 23 7 28
22 6 28 19 10 25 -7 2 -7 12 1 33 7 18 9 51 5 80 -5 42 -11 54 -39 73 -42 29
-59 28 -93 -6z"/>
<path d="M4339 4212 c-100 -52 -120 -71 -100 -96 18 -22 82 -239 102 -351 7
-33 16 -65 21 -72 5 -6 5 -13 1 -15 -12 -4 2 -264 17 -318 6 -24 37 -103 67
-175 30 -71 75 -178 100 -237 30 -71 49 -105 58 -102 16 7 31 -16 17 -25 -6
-4 4 -44 29 -110 21 -57 39 -116 39 -131 0 -43 -40 -92 -100 -122 -70 -34
-126 -58 -137 -58 -21 0 -93 -47 -102 -66 -5 -12 -19 -87 -30 -166 -12 -78
-25 -172 -31 -208 -6 -36 -17 -114 -26 -175 -9 -60 -19 -135 -24 -165 -32
-212 -81 -274 -245 -309 -3 -1 -12 -1 -20 -1 -8 0 -15 -9 -15 -20 0 -11 -4
-20 -10 -20 -5 0 -10 9 -10 20 0 16 -7 20 -36 20 -19 0 -44 -5 -55 -10 -10 -6
-19 -7 -19 -2 0 5 -40 15 -89 21 -49 6 -171 32 -271 57 -101 25 -195 44 -209
42 -62 -7 -26 -99 68 -176 25 -20 66 -58 91 -84 44 -47 165 -112 220 -120 21
-3 24 -9 27 -48 4 -56 20 -98 45 -111 23 -12 38 -4 38 22 0 10 4 27 10 37 5 9
17 34 26 55 26 60 57 75 175 87 201 19 290 52 379 139 60 59 106 153 97 198
-2 12 1 24 6 26 6 2 16 48 23 103 6 54 24 176 38 269 15 94 25 181 24 195 -3
30 27 134 49 166 13 20 47 40 128 74 11 5 34 11 50 15 17 3 54 19 83 36 45 25
58 40 79 86 22 49 25 65 20 127 -7 87 -41 202 -65 215 -13 8 -14 13 -5 19 10
6 6 26 -16 82 -32 85 -139 337 -178 420 -56 117 -79 213 -88 355 -13 226 -49
381 -132 561 -34 74 -48 80 -114 46z"/>
<path d="M3465 3980 c-33 -4 -41 -9 -43 -29 -2 -13 1 -26 6 -30 5 -3 17 -21
26 -39 14 -27 22 -33 43 -30 15 2 28 -3 30 -9 3 -7 -2 -13 -11 -13 -22 0 -20
-22 5 -64 l21 -36 87 0 c100 0 124 11 127 60 2 30 0 32 -24 25 -15 -3 -54 -8
-87 -10 -56 -4 -57 -4 -20 5 66 17 73 22 45 30 -25 8 -24 8 5 10 17 1 39 5 50
10 18 7 19 8 3 15 -10 4 -18 17 -18 29 -1 24 -24 59 -33 49 -4 -3 -7 -1 -7 5
0 15 -76 16 -85 2 -3 -5 -16 -10 -28 -10 l-22 1 21 17 c20 17 20 17 -15 18
-20 0 -54 -3 -76 -6z"/>
<path d="M4105 3964 c-16 -13 -74 -48 -127 -76 l-98 -52 0 -73 c0 -74 -18
-163 -32 -163 -4 0 -8 -8 -8 -17 0 -39 -128 -264 -197 -346 -12 -16 -23 -37
-23 -47 0 -10 -6 -20 -14 -23 -7 -3 -25 -27 -38 -54 -48 -92 -124 -228 -164
-293 -41 -66 -74 -132 -74 -146 0 -4 -8 -17 -19 -28 -27 -30 -130 -203 -136
-229 -8 -32 -80 -106 -118 -122 -40 -16 -217 -21 -271 -7 -22 6 -43 9 -46 7
-8 -5 -90 81 -90 95 0 5 -7 10 -16 10 -14 0 -15 -6 -9 -37 5 -21 9 -60 10 -88
2 -45 6 -53 51 -93 27 -23 61 -49 76 -58 27 -14 28 -14 43 18 l15 33 -5 -34
c-4 -29 0 -38 27 -63 18 -16 68 -47 112 -69 145 -74 153 -81 175 -153 11 -36
26 -112 32 -170 9 -79 16 -106 28 -110 9 -2 27 -11 41 -19 54 -31 95 -51 98
-48 1 1 40 -9 85 -24 125 -39 136 -42 227 -65 177 -45 440 -29 440 27 0 7 7
13 15 13 21 0 18 27 -10 88 -13 28 -21 52 -18 52 4 0 20 -12 36 -27 l28 -28
-10 28 c-6 16 -18 39 -26 50 -19 27 -19 38 -1 31 7 -3 18 -16 24 -30 14 -30
32 -31 32 -1 0 23 -34 87 -54 99 -8 5 -8 8 0 8 6 0 19 -9 29 -20 26 -29 35
-25 35 16 0 19 4 43 9 52 5 10 15 63 21 119 l12 101 -44 42 c-42 41 -38 44 14
8 38 -26 54 -23 34 7 -20 30 -20 35 -1 35 9 0 15 10 16 23 1 30 4 49 24 136
l16 74 -33 34 -33 35 39 -19 c30 -14 40 -15 44 -5 7 22 54 73 76 83 12 5 28
13 36 17 8 5 51 27 95 49 l80 40 3 44 c2 23 -4 60 -12 81 -9 21 -24 56 -33 79
-10 25 -27 45 -42 51 l-26 11 25 6 25 7 -29 19 c-22 15 -25 20 -13 24 13 5 9
19 -24 89 -21 45 -39 88 -39 95 0 22 -53 137 -61 132 -4 -3 -13 21 -19 52 -17
93 -34 121 -72 126 l-33 3 33 9 c27 6 33 12 28 29 -2 12 -8 84 -12 161 -8 168
-13 187 -45 196 l-24 7 23 7 c29 9 28 31 -3 99 -14 30 -25 59 -25 63 0 10 -37
43 -48 43 -4 -1 -20 -12 -37 -26z m-369 -1564 c8 0 37 -12 65 -26 28 -14 48
-21 44 -15 -9 15 16 13 38 -3 25 -20 21 -26 -14 -19 -28 5 -31 4 -25 -14 5
-15 1 -22 -14 -26 -25 -6 -27 -42 -2 -57 13 -8 8 -9 -21 -4 -32 5 -36 4 -31
-11 6 -16 5 -16 -24 -1 -32 16 -82 74 -82 94 0 16 28 3 57 -26 32 -32 41 -21
14 16 -26 37 -27 46 -2 32 25 -13 51 -13 51 0 0 6 -7 10 -15 10 -18 0 -65 47
-64 64 0 6 3 6 6 -1 2 -7 11 -13 19 -13z"/>
<path d="M3325 3908 c-15 -18 -36 -53 -47 -78 -11 -24 -23 -47 -27 -50 -5 -3
-16 -20 -25 -39 -21 -41 -16 -80 21 -152 22 -41 30 -49 47 -45 12 4 41 9 65
13 l43 6 -28 14 -29 13 39 -5 c43 -5 51 1 87 69 14 26 19 48 14 65 -3 14 -7
34 -9 43 -5 36 -37 58 -85 59 l-46 1 43 10 43 9 -23 42 c-13 23 -27 40 -32 39
-5 -2 -12 1 -16 8 -5 7 -17 0 -35 -22z"/>
<path d="M3545 3670 c-17 -6 -75 -86 -75 -103 0 -6 15 -7 38 -3 20 3 73 6 117
6 l80 0 19 43 c10 23 17 47 15 52 -4 10 -166 14 -194 5z"/>
<path d="M3562 3553 l-102 -4 -30 -47 c-16 -26 -35 -61 -41 -78 -7 -17 -19
-36 -28 -41 -23 -14 -310 -18 -635 -9 -197 6 -267 5 -262 -3 5 -7 -1 -11 -14
-11 -12 0 -18 5 -15 10 4 6 -13 10 -44 10 -28 0 -51 -2 -51 -5 0 -14 68 -156
94 -197 27 -43 35 -48 67 -48 20 0 42 -7 49 -15 10 -11 36 -14 129 -12 139 2
153 -4 141 -60 -5 -20 -18 -49 -29 -64 -12 -16 -21 -31 -21 -34 0 -4 -20 -39
-44 -78 -23 -40 -61 -109 -84 -154 -38 -77 -40 -83 -28 -120 21 -68 59 -129
103 -166 21 -19 22 -18 49 25 15 23 43 66 61 95 18 28 33 56 33 61 0 5 7 15
15 22 8 6 33 44 55 83 22 40 50 88 62 107 12 19 52 88 90 152 72 123 85 138
94 115 3 -8 -18 -52 -47 -98 -28 -46 -65 -111 -81 -144 -17 -33 -44 -79 -60
-102 -66 -97 -198 -334 -198 -357 0 -26 40 -39 135 -43 76 -3 95 -1 121 16 31
19 117 153 139 217 6 19 15 31 18 27 4 -3 7 0 7 9 0 8 16 37 35 64 19 27 35
53 35 57 0 4 16 33 35 63 19 30 35 56 35 59 0 2 28 51 62 107 56 94 94 163
150 273 11 22 34 56 51 77 17 21 28 41 24 44 -3 4 -32 10 -64 14 l-58 7 66 2
c59 1 69 4 83 26 21 32 21 35 -11 36 l-28 1 30 9 c70 20 90 119 22 107 -7 -1
-58 -4 -115 -5z"/>
<path d="M2278 3322 c-30 -34 -32 -45 -8 -37 18 6 21 3 18 -12 -2 -11 -12 -18
-25 -18 -11 0 -30 -11 -41 -25 -26 -34 -82 -134 -82 -148 0 -18 44 -81 57 -82
7 0 20 11 29 25 10 15 26 25 40 25 32 0 31 -16 -2 -24 -20 -5 -25 -12 -21 -26
3 -11 -1 -24 -9 -31 -17 -14 -18 -43 -4 -70 15 -27 61 -25 86 4 49 59 84 118
84 143 0 15 7 32 15 38 13 9 7 27 -39 121 -61 127 -76 144 -98 117z"/>
<path d="M1827 3053 c-13 -12 -7 -41 15 -83 33 -61 49 -66 88 -25 50 52 59 42
11 -10 -35 -38 -40 -48 -31 -65 15 -27 46 -42 78 -37 28 5 137 60 161 82 18
17 8 55 -24 93 -14 17 -25 35 -25 41 0 12 -261 16 -273 4z"/>
<path d="M2459 2991 c-24 -26 -57 -70 -73 -97 -32 -54 -99 -110 -161 -133 -27
-10 -81 -16 -168 -17 -70 0 -138 -6 -150 -12 -12 -6 -46 -18 -74 -27 -29 -9
-56 -22 -60 -29 -5 -7 -45 -27 -90 -45 -46 -18 -83 -39 -83 -45 0 -7 -19 -20
-42 -30 -58 -25 -78 -44 -78 -73 0 -30 53 -103 140 -190 71 -72 116 -131 181
-238 23 -38 51 -81 61 -94 10 -13 18 -31 18 -40 0 -9 9 -34 20 -56 11 -22 20
-45 20 -53 0 -7 5 -22 11 -33 10 -19 12 -19 35 -4 28 18 31 9 8 -24 -14 -20
-15 -35 -8 -100 11 -95 12 -452 1 -549 -6 -58 -5 -77 8 -94 l15 -22 0 22 c0
16 8 23 28 27 47 10 112 44 167 88 89 72 91 77 104 284 11 170 10 188 -9 281
-16 75 -18 109 -12 140 10 42 1 62 -26 62 -7 0 -29 17 -49 37 l-35 38 18 57
c9 32 21 58 25 58 5 0 5 -10 0 -23 -7 -19 -6 -24 7 -25 35 -2 61 9 67 28 10
33 28 24 21 -11 -4 -22 -2 -29 7 -26 6 2 13 10 13 18 1 8 2 23 3 34 2 19 2 19
15 3 18 -24 25 -23 58 9 15 15 40 27 56 28 33 1 68 26 101 72 28 37 25 71 -16
159 -28 62 -28 135 0 157 20 16 31 54 17 62 -5 3 -10 29 -10 56 0 41 10 70 54
157 30 59 57 114 61 122 3 8 18 33 34 55 16 22 26 42 23 45 -4 3 -7 12 -7 20
0 12 -19 15 -101 17 l-102 2 -43 -48z"/>
<path d="M1203 2472 c-67 -23 -72 -27 -58 -42 9 -10 13 -25 9 -34 -3 -9 -1
-16 5 -16 6 0 11 -6 11 -13 0 -18 134 -197 195 -262 26 -27 54 -61 63 -75 9
-14 39 -54 67 -90 72 -91 101 -146 121 -226 9 -38 22 -76 29 -84 22 -27 12
-402 -14 -538 -12 -62 -25 -138 -30 -170 -5 -31 -11 -66 -14 -77 -2 -11 -8
-42 -12 -70 -4 -27 -14 -75 -22 -105 -23 -83 -33 -200 -19 -230 17 -38 66 -49
213 -49 l132 -1 5 33 c3 17 7 65 8 106 3 66 1 74 -16 77 -11 1 -31 11 -45 22
-21 15 -27 30 -31 76 -3 31 -2 60 3 65 4 4 14 49 22 100 12 69 13 97 4 107
-11 14 -3 38 10 30 4 -3 18 72 31 166 18 133 22 195 17 282 -9 165 -35 301
-75 386 -67 146 -105 216 -144 262 -23 28 -52 63 -63 77 -11 13 -45 50 -75 82
-82 84 -194 209 -203 225 -11 19 -39 16 -124 -14z"/>
<path d="M895 2432 c-38 -3 -160 -29 -202 -43 -24 -8 -35 -19 -44 -47 -21 -66
-60 -136 -113 -202 -130 -162 -148 -192 -142 -230 4 -19 9 -78 13 -131 6 -95
3 -116 -33 -216 l-16 -43 -51 0 c-61 0 -216 -31 -269 -53 l-38 -16 0 -726 0
-725 872 2 872 3 13 65 c7 36 30 100 52 143 24 47 35 80 29 83 -6 4 -63 9
-127 12 -98 4 -125 9 -171 30 -30 15 -59 27 -65 27 -26 0 -24 203 3 330 12 55
31 159 43 230 12 72 28 164 35 205 8 41 17 153 20 249 6 155 5 175 -10 183
-17 10 -22 34 -6 40 13 4 -4 75 -36 145 -25 55 -119 194 -161 238 -39 41 -140
161 -174 206 -100 134 -123 164 -131 167 -4 2 -15 19 -24 37 -14 30 -20 34
-62 37 -26 1 -60 2 -77 0z"/>
<path d="M2563 2140 c-33 -41 -29 -54 27 -80 45 -21 50 -27 50 -57 0 -38 5
-40 33 -15 18 15 20 15 14 1 -4 -13 -1 -16 14 -12 13 4 19 0 19 -12 0 -28 43
-14 54 18 8 21 6 31 -6 43 -14 14 -16 13 -21 -16 -11 -52 -30 -25 -22 31 6 40
4 49 -8 49 -8 0 -37 18 -63 40 -27 22 -53 40 -59 39 -5 0 -20 -13 -32 -29z"/>
<path d="M2580 1945 c0 -36 40 -112 66 -128 8 -4 14 -13 14 -19 0 -16 43 -78
53 -78 5 0 15 -7 24 -15 8 -8 19 -13 24 -10 5 3 18 -3 30 -13 11 -11 41 -25
67 -32 26 -7 77 -21 113 -31 86 -25 103 -24 123 6 19 28 20 87 5 171 -13 71
-28 97 -70 118 -53 26 -98 31 -106 11 -6 -17 -7 -17 -20 1 -13 17 -14 17 -28
-3 -27 -38 -101 -74 -157 -75 -35 -1 -53 3 -56 12 -3 7 -13 21 -23 31 -11 11
-19 29 -19 42 0 23 -17 47 -32 47 -4 0 -8 -16 -8 -35z"/>
<path d="M2415 1846 c-17 -12 -20 -25 -19 -86 1 -40 6 -82 12 -94 5 -11 18
-41 28 -66 11 -27 49 -75 94 -120 69 -70 82 -79 165 -109 50 -18 137 -46 195
-62 58 -16 127 -36 155 -45 62 -19 165 -30 166 -18 7 49 2 64 -49 138 -30 45
-62 83 -71 86 -9 3 -38 16 -64 28 -27 12 -55 22 -62 22 -13 0 -172 56 -236 83
-40 16 -131 101 -169 157 -14 19 -30 41 -37 48 -7 7 -16 19 -21 27 -12 22 -64
29 -87 11z"/>
<path d="M2370 1484 c0 -9 -9 -18 -20 -21 -22 -6 -26 -25 -34 -144 -6 -99 -23
-138 -92 -202 -59 -55 -150 -117 -170 -117 -7 0 -20 -26 -28 -57 -9 -32 -25
-81 -36 -108 -11 -28 -20 -54 -20 -58 0 -16 56 -57 85 -62 17 -3 173 -7 347
-9 240 -3 319 -1 327 8 6 7 12 48 14 91 l3 80 2 -87 2 -88 188 0 c136 0 191 3
200 12 9 9 15 10 20 2 8 -13 109 -17 160 -8 67 13 79 119 26 234 -28 60 -48
79 -83 80 -16 0 -21 4 -17 15 7 19 -31 45 -66 45 -21 0 -31 7 -37 23 -7 19
-29 31 -98 54 -125 43 -194 64 -223 69 -14 3 -33 7 -42 10 -14 4 -18 -1 -19
-18 -1 -21 -2 -20 -14 8 -13 28 -71 64 -105 64 -17 0 -133 84 -196 143 -66 61
-74 66 -74 41z"/>
<path d="M3467 987 c-3 -8 -1 -19 5 -25 6 -6 9 -59 6 -139 -4 -139 -18 -185
-60 -199 -13 -4 -200 -7 -415 -6 l-393 2 0 -26 c0 -32 -31 -30 -40 3 l-5 22
-309 -3 c-227 -3 -310 -7 -316 -16 -9 -14 -24 -200 -17 -207 10 -9 1554 -13
1636 -4 61 7 89 14 103 29 49 48 63 249 26 361 -12 36 -26 72 -32 80 -6 8 -20
41 -31 75 l-21 61 -66 3 c-49 2 -67 -1 -71 -11z"/>
<path d="M3811 561 c-10 -10 -24 -43 -31 -72 -18 -78 -46 -123 -94 -150 -38
-21 -55 -23 -221 -27 -125 -3 -188 -9 -206 -18 -23 -12 -29 -11 -39 1 -10 12
-46 15 -192 15 -171 0 -180 -1 -185 -20 -7 -26 -33 -26 -40 0 -5 19 -14 20
-291 20 -259 0 -286 -2 -298 -18 -13 -16 -13 -16 -14 2 0 17 -8 18 -141 12
-86 -4 -146 -11 -155 -19 -37 -30 -57 -56 -80 -100 -22 -44 -54 -149 -54 -176
0 -8 352 -11 1283 -11 l1282 1 -101 34 c-201 67 -211 78 -299 341 -71 213 -81
228 -124 185z"/>
</g>
</svg>
