<?xml version="1.0" standalone="no"?>
<!DOCTYPE svg PUBLIC "-//W3C//DTD SVG 20010904//EN"
 "http://www.w3.org/TR/2001/REC-SVG-20010904/DTD/svg10.dtd">
<svg version="1.0" xmlns="http://www.w3.org/2000/svg"
 width="544.000000pt" height="544.000000pt" viewBox="0 0 544.000000 544.000000"
 preserveAspectRatio="xMidYMid meet">
<metadata>
Created by potrace 1.16, written by Peter Selinger 2001-2019
</metadata>
<g transform="translate(0.000000,544.000000) scale(0.100000,-0.100000)"
fill="#000000" stroke="none">
<path d="M0 4336 c0 -1044 1 -1105 18 -1109 16 -4 16 -5 0 -6 -17 -1 -18 -51
-18 -870 l0 -869 88 29 c48 17 125 37 172 46 47 9 90 22 96 30 7 7 15 56 19
108 5 74 3 110 -11 168 l-17 74 38 64 c22 35 42 65 46 67 5 2 6 9 3 17 -3 7 0
16 7 21 8 5 10 3 4 -7 -4 -8 6 2 23 21 17 19 31 39 32 44 0 4 15 29 34 55 18
25 50 81 70 123 40 84 49 92 116 103 25 4 54 12 65 18 11 6 45 11 76 11 99 2
109 33 53 172 -40 99 -92 254 -99 297 -3 15 -12 58 -20 97 -33 158 -44 429
-25 605 33 294 182 691 337 894 18 24 33 52 33 63 0 11 4 17 9 14 5 -3 21 10
36 30 15 19 45 54 66 77 21 23 41 50 45 60 3 9 10 17 16 17 5 0 40 28 76 61
37 34 92 79 122 100 30 21 80 56 110 77 82 58 260 148 413 209 40 16 46 35 22
60 -9 8 -13 18 -10 21 3 4 10 1 14 -6 4 -7 12 -12 17 -11 5 1 17 -1 27 -5 9
-5 24 -5 32 -2 22 8 53 82 47 111 l-4 25 -1089 0 -1089 0 0 -1104z"/>
<path d="M2226 5428 c-3 -7 -9 -28 -15 -47 -22 -70 -19 -74 52 -67 45 5 67 13
80 28 12 14 21 17 30 10 8 -6 42 -5 102 4 99 14 408 17 495 4 233 -33 491
-116 665 -213 44 -24 103 -57 130 -72 73 -41 117 -70 142 -94 12 -12 26 -21
30 -21 5 0 15 -9 23 -20 8 -11 18 -20 23 -20 4 0 21 -12 36 -27 16 -16 62 -59
102 -97 92 -86 145 -147 238 -271 64 -85 75 -89 117 -50 15 14 34 23 41 21 7
-3 13 -1 13 4 0 6 7 10 15 10 8 0 15 4 15 8 0 5 18 17 40 28 22 10 40 22 40
27 0 16 47 24 90 16 25 -4 79 -17 120 -28 133 -36 483 -23 539 20 13 11 21 19
17 19 -3 0 3 9 14 20 19 19 19 35 20 420 l0 400 -1605 0 c-1276 0 -1606 -3
-1609 -12z"/>
<path d="M2500 5279 c-57 -7 -79 -14 -92 -29 -15 -18 -18 -19 -26 -4 -8 15
-14 14 -73 -2 -85 -23 -108 -41 -109 -82 0 -29 36 -117 61 -148 6 -8 23 -9 52
-4 243 46 312 53 467 46 85 -4 175 -11 200 -15 37 -7 180 -37 215 -46 12 -2
32 -10 105 -40 133 -55 162 -66 164 -63 1 2 7 14 13 28 10 23 12 23 18 6 5
-11 3 -21 -5 -26 -19 -12 -6 -25 68 -66 102 -57 207 -134 309 -226 93 -83 183
-182 183 -199 0 -5 7 -9 15 -9 8 0 15 -6 15 -14 0 -25 26 -39 50 -26 14 7 26
8 31 3 13 -13 0 -43 -17 -43 -18 0 42 -99 62 -101 35 -4 39 -3 37 8 -2 8 4 10
14 6 10 -4 14 -2 10 4 -3 5 10 25 29 44 54 53 58 70 25 131 -42 79 -86 140
-141 197 -28 28 -50 55 -50 60 0 10 -157 164 -222 217 -131 109 -413 257 -623
329 -178 61 -549 91 -785 64z"/>
<path d="M2050 5173 c-18 -7 -218 -100 -244 -115 -116 -63 -183 -108 -271
-181 -117 -97 -169 -150 -154 -156 8 -4 15 -15 17 -25 3 -18 2 -18 -20 -4 -22
15 -25 14 -53 -16 -43 -44 -115 -133 -115 -140 0 -4 -11 -18 -25 -32 -14 -14
-25 -31 -25 -39 0 -7 -4 -15 -8 -17 -22 -9 -149 -232 -189 -333 -31 -79 -78
-249 -100 -360 -25 -125 -27 -534 -4 -644 10 -47 23 -87 29 -89 7 -2 9 -15 6
-32 -6 -26 20 -124 52 -198 8 -18 14 -39 14 -47 0 -21 77 -167 106 -201 22
-25 32 -29 85 -29 32 0 59 3 59 7 0 4 11 19 25 34 30 32 31 41 5 96 -43 95
-92 214 -96 237 -3 14 -14 56 -24 95 -68 254 -64 618 11 887 11 41 21 80 21
87 1 6 5 12 9 12 4 0 10 12 13 27 9 35 106 247 116 253 5 3 20 25 33 49 20 35
23 48 14 62 -9 14 -8 22 1 31 10 10 14 10 21 0 5 -9 23 4 58 45 28 32 60 67
70 78 35 39 198 181 235 205 21 14 38 28 38 33 0 4 6 7 14 7 8 0 28 14 44 30
17 17 38 30 47 30 10 0 51 20 92 45 40 25 78 45 84 45 6 0 30 9 55 20 155 70
147 62 115 114 -11 17 -27 51 -37 76 -10 25 -22 48 -28 52 -12 9 -73 9 -96 1z"/>
<path d="M2666 4964 c-15 -5 -17 -12 -12 -47 8 -46 -3 -43 -20 6 -10 30 -14
32 -55 32 -57 -1 -123 -10 -180 -26 l-46 -12 8 -36 c4 -19 7 -36 6 -38 -2 -1
-11 11 -22 28 -20 29 -67 41 -80 19 -3 -5 -16 -10 -28 -10 -39 0 -217 -76
-217 -92 0 -4 -8 -8 -18 -8 -10 0 -39 -13 -65 -30 -26 -16 -51 -30 -56 -30 -5
0 -24 -12 -43 -27 -20 -16 -46 -35 -59 -43 -19 -12 -72 -58 -135 -116 -7 -6
-26 -22 -44 -37 -18 -16 -28 -32 -24 -38 4 -7 3 -9 -3 -6 -5 4 -25 -12 -44
-35 -19 -22 -40 -47 -46 -54 -7 -7 -13 -16 -13 -21 0 -4 -12 -19 -26 -32 -14
-13 -32 -38 -40 -55 -7 -17 -28 -53 -44 -80 -29 -45 -30 -50 -15 -72 19 -30
19 -40 0 -24 -8 7 -22 10 -30 6 -23 -8 -18 -34 7 -38 12 -2 23 -9 26 -15 5
-16 -30 -17 -45 -2 -8 8 -19 -7 -42 -56 -36 -77 -37 -82 -14 -107 15 -17 15
-18 -9 -18 -22 0 -26 -6 -32 -41 -4 -23 -4 -44 -1 -47 3 -3 5 0 5 6 0 21 18
13 39 -17 l21 -28 -44 4 -44 5 -5 -48 c-2 -27 -9 -76 -15 -109 -7 -33 -11 -89
-9 -124 l2 -65 50 -12 50 -12 -46 -1 -47 -1 -1 -73 c-1 -48 3 -79 12 -92 9
-12 12 -34 9 -61 -5 -47 30 -159 52 -167 11 -5 75 4 134 18 14 3 21 2 18 -4
-3 -5 -38 -15 -76 -22 -39 -7 -73 -17 -77 -22 -7 -11 -2 -22 73 -170 66 -132
72 -137 164 -137 159 0 360 120 360 215 0 9 -13 39 -29 68 -37 68 -55 146 -47
208 6 46 45 131 101 219 14 22 25 43 25 47 0 3 6 14 14 22 7 9 26 41 42 71 15
30 33 62 40 70 6 8 23 35 36 60 14 25 44 77 67 117 22 39 50 88 61 107 11 20
29 52 40 72 11 19 39 68 61 107 60 105 79 137 102 182 12 22 24 42 27 45 14
14 70 113 70 124 0 7 8 21 18 32 38 42 52 67 41 80 -8 10 26 12 164 11 l174
-2 59 -36 c60 -37 87 -68 149 -173 58 -96 57 -123 -10 -260 -32 -64 -61 -119
-66 -122 -13 -8 -69 -120 -69 -139 0 -25 167 -21 225 6 43 20 58 39 33 39 -7
0 -5 5 5 11 29 17 19 29 -25 30 l-43 1 53 8 c57 9 80 22 92 56 5 12 40 47 77
78 80 64 117 75 246 76 108 0 132 -11 212 -97 75 -81 97 -84 207 -26 63 33 73
42 76 68 2 17 8 34 13 39 20 22 7 24 -33 6 -69 -31 -78 -22 -15 16 61 38 81
70 21 35 -56 -33 -62 -25 -16 22 46 47 52 73 24 115 -11 15 -31 45 -46 67 -54
82 -78 110 -102 125 -23 14 -26 12 -69 -30 -25 -24 -45 -40 -45 -35 0 5 21 31
47 57 l46 47 -32 30 c-18 17 -40 31 -48 31 -8 0 -12 4 -9 9 4 5 -3 7 -15 4
-26 -7 -42 16 -26 36 8 10 8 13 1 8 -6 -4 -20 5 -30 18 -23 30 -35 31 -59 5
-23 -26 -29 -20 -14 13 11 24 9 29 -21 54 -19 15 -52 37 -74 49 -23 12 -57 31
-76 42 -19 12 -42 22 -51 22 -9 0 -19 7 -23 15 -6 16 -46 35 -84 39 -13 2 -27
7 -30 13 -16 24 -101 38 -109 17 -8 -22 -23 -16 -23 10 0 19 -7 26 -32 31 -34
8 -58 -11 -58 -46 0 -24 -19 -73 -26 -66 -3 3 -1 28 4 55 9 53 4 74 -21 78 -9
1 -39 7 -69 13 -59 13 -263 23 -292 15z"/>
<path d="M5398 4525 c-10 -10 -132 -26 -278 -37 -186 -13 -244 -14 -300 -5
-25 4 -65 10 -90 12 -25 3 -56 7 -68 10 -13 3 -21 2 -18 -3 3 -6 -4 -12 -15
-15 -11 -3 -23 -15 -26 -26 -3 -11 -9 -18 -14 -15 -5 3 -9 -2 -9 -10 0 -8 -13
-31 -30 -49 -30 -34 -39 -54 -20 -42 6 3 10 -1 10 -9 0 -9 -4 -16 -10 -16 -17
0 -11 -72 10 -130 24 -63 80 -245 85 -275 19 -108 33 -229 44 -365 11 -124 13
-134 91 -315 28 -66 56 -133 62 -150 6 -16 19 -37 29 -47 11 -9 19 -26 19 -39
0 -23 88 -250 101 -259 11 -8 40 -120 46 -180 7 -71 15 -86 57 -100 25 -8 48
-29 80 -74 51 -71 109 -126 133 -126 9 0 47 -16 85 -35 l68 -36 0 1171 c0
1128 -1 1170 -18 1170 -10 0 -21 -2 -24 -5z"/>
<path d="M2557 4410 c-32 -25 -229 -360 -211 -360 2 0 -6 -12 -19 -26 -13 -14
-39 -55 -57 -92 -18 -37 -45 -85 -60 -107 -15 -22 -34 -53 -42 -70 -38 -75
-73 -135 -113 -196 -24 -37 -59 -95 -78 -130 -53 -98 -127 -229 -144 -255 -11
-17 -12 -28 -4 -41 6 -10 11 -12 11 -5 0 20 28 14 35 -8 6 -18 15 -20 105 -20
96 0 99 1 128 29 24 24 47 63 80 134 2 4 -31 7 -74 7 -99 0 -89 11 17 19 l81
6 29 50 c16 28 33 56 37 63 8 12 281 22 595 21 85 0 117 3 112 11 -5 8 23 10
102 6 l108 -6 17 29 c19 34 15 41 -23 41 -31 0 -47 -15 -24 -24 8 -3 15 -10
15 -15 0 -16 -29 -20 -44 -6 -17 17 -52 20 -61 5 -8 -13 -65 -13 -65 1 0 24
22 49 44 49 29 0 77 39 59 46 -7 3 -13 10 -13 15 0 15 32 10 52 -7 16 -16 18
-16 24 0 3 9 1 23 -6 31 -7 8 -10 21 -7 29 4 11 -5 14 -41 15 -107 3 -310 20
-354 30 -25 5 -103 10 -173 10 -71 0 -132 4 -137 9 -9 9 15 61 76 167 12 22
32 56 43 75 41 72 88 146 110 176 12 16 30 47 38 68 9 21 28 57 43 80 40 62
63 117 57 136 -6 20 -62 30 -170 30 -58 0 -78 -4 -98 -20z"/>
<path d="M2865 4348 c-38 -54 -205 -331 -205 -341 0 -3 -24 -44 -54 -90 -30
-46 -66 -107 -80 -134 -32 -64 -33 -63 129 -63 144 0 124 -13 216 150 29 52
63 113 76 135 13 22 32 59 43 82 11 23 25 45 30 48 6 3 10 12 10 20 0 26 -40
121 -60 143 -11 12 -20 26 -20 31 0 12 -40 41 -57 41 -7 0 -19 -10 -28 -22z"/>
<path d="M4320 4200 c-14 -11 -30 -20 -36 -20 -29 0 -25 -72 15 -233 49 -199
61 -269 61 -372 1 -119 15 -214 38 -265 11 -25 35 -82 52 -127 17 -45 42 -98
56 -118 13 -20 20 -34 15 -31 -5 4 9 -32 32 -78 22 -47 44 -83 49 -80 4 3 5
-2 2 -10 -5 -12 1 -16 25 -16 37 0 40 -12 7 -26 l-25 -9 39 -80 c21 -45 53
-96 72 -114 37 -36 194 -118 205 -107 4 4 -1 46 -11 94 -21 102 -105 328 -201
537 -58 125 -115 283 -115 316 0 9 -10 20 -22 23 l-23 7 23 9 c19 8 22 15 18
42 -3 18 -13 93 -21 165 -18 154 -31 226 -44 252 -6 10 -12 29 -15 43 -7 40
-52 145 -78 183 -19 29 -29 35 -58 35 -19 0 -46 -9 -60 -20z"/>
<path d="M3438 3993 c-28 -7 -22 -58 13 -109 25 -37 33 -43 45 -33 11 9 18 9
26 1 8 -8 7 -13 -5 -18 -29 -11 -20 -50 19 -84 l36 -31 22 20 c15 14 26 17 36
11 28 -18 106 -9 94 11 -3 5 0 9 5 9 8 0 7 7 -1 19 -10 16 -9 25 2 46 11 21
12 30 2 45 -7 11 -12 25 -12 32 0 24 -49 67 -87 77 -37 11 -161 13 -195 4z"/>
<path d="M4082 3945 c-12 -13 -44 -34 -72 -46 -27 -12 -50 -25 -50 -29 0 -4
-11 -12 -23 -17 -32 -15 -57 -71 -57 -125 0 -55 -26 -130 -75 -223 -48 -89
-125 -215 -145 -237 -16 -17 -24 -31 -90 -158 -19 -36 -37 -67 -40 -70 -5 -5
-12 -17 -49 -84 -52 -92 -98 -174 -113 -201 -10 -16 -31 -55 -48 -85 -17 -30
-51 -89 -76 -130 -26 -41 -57 -96 -71 -122 -14 -26 -39 -61 -56 -79 -58 -56
-77 -61 -211 -57 -112 4 -127 7 -203 40 -67 29 -81 33 -73 18 6 -10 10 -34 10
-53 0 -26 10 -44 44 -80 24 -26 51 -47 61 -47 9 0 13 -4 10 -10 -3 -5 -2 -10
3 -10 5 0 24 -14 42 -32 38 -36 73 -56 219 -128 57 -27 102 -53 99 -56 -4 -3
3 -31 14 -62 11 -31 22 -70 25 -87 3 -16 9 -34 14 -39 5 -6 9 -27 9 -49 0 -45
11 -68 58 -118 30 -34 53 -44 191 -88 237 -77 363 -99 503 -87 71 6 95 13 132
37 54 34 58 56 21 120 -35 61 -31 71 10 24 41 -47 46 -29 10 34 -30 51 -28 61
5 26 13 -14 27 -25 32 -25 12 0 10 48 -4 73 -10 20 -10 21 5 8 10 -7 17 -10
17 -5 4 76 12 135 28 209 l19 90 -46 49 c-47 50 -42 52 17 9 39 -29 52 -24 28
11 -20 32 -21 50 -1 42 8 -3 15 0 16 7 4 67 15 130 35 199 3 9 -9 32 -28 54
l-33 37 33 -17 33 -17 42 44 c29 31 72 60 137 91 110 53 135 70 125 86 -4 7
-2 15 4 19 8 5 6 15 -9 33 -11 15 -20 32 -20 39 0 7 -4 26 -10 43 -5 17 -12
44 -15 59 -3 16 -16 32 -30 39 -18 8 -22 14 -14 24 7 8 7 14 -1 19 -5 3 -10
20 -10 36 0 45 -25 85 -61 98 -18 6 -73 11 -123 12 -61 1 -83 4 -66 9 14 4 18
8 9 9 -8 1 -54 21 -102 45 -97 50 -94 71 4 24 50 -24 87 -33 170 -42 l106 -11
-8 30 c-4 17 -21 68 -39 115 -18 47 -40 108 -50 135 -15 44 -21 51 -51 56 -19
4 -25 7 -13 8 28 1 36 11 23 28 -9 10 -8 17 1 28 9 11 11 45 6 133 -4 64 -9
127 -12 140 -14 72 -14 72 -42 72 l-27 1 26 19 27 20 -17 46 c-10 25 -25 54
-34 65 -9 10 -17 23 -17 27 0 4 -15 8 -34 9 -24 1 -39 -5 -54 -22z"/>
<path d="M3311 3895 c-17 -20 -31 -44 -31 -54 0 -11 -16 -43 -35 -72 -19 -30
-35 -63 -35 -74 1 -33 25 -55 59 -55 17 0 31 -4 31 -10 0 -5 -13 -10 -30 -10
-29 0 -44 -19 -17 -21 31 -4 103 4 107 11 3 5 23 10 45 12 32 2 44 9 63 38 24
36 24 47 -1 115 -13 35 -20 41 -54 46 -26 4 -30 7 -12 8 14 0 28 4 32 7 11 11
-53 94 -72 94 -11 0 -33 -16 -50 -35z"/>
<path d="M3512 3543 c-32 -4 -77 -41 -109 -90 -11 -17 -12 -26 -3 -43 14 -26
4 -46 -15 -30 -9 8 -20 8 -32 2 -22 -12 -248 -15 -556 -7 -157 4 -227 3 -222
-5 4 -6 -7 -10 -27 -11 -67 -3 -153 3 -175 12 -20 7 -23 5 -23 -14 0 -24 56
-139 90 -187 14 -20 33 -31 58 -36 20 -4 42 -10 47 -14 6 -4 65 -10 132 -12
135 -4 157 -13 146 -57 -7 -30 -52 -124 -63 -131 -4 -3 -22 -34 -41 -70 -18
-36 -36 -67 -40 -70 -4 -3 -15 -25 -25 -50 -10 -25 -22 -48 -28 -52 -14 -9
-11 -84 3 -118 18 -41 52 -93 69 -107 47 -37 48 -37 101 47 28 45 51 84 51 89
0 4 11 21 24 36 14 16 28 40 31 54 3 13 16 37 28 51 30 38 40 53 96 150 81
143 126 213 139 218 25 8 10 -30 -46 -125 -33 -54 -86 -145 -119 -203 -33 -58
-78 -134 -100 -170 -44 -72 -107 -189 -110 -207 -2 -7 8 -20 22 -31 31 -25
181 -30 223 -8 37 19 126 153 184 278 15 31 31 59 37 62 6 4 18 24 28 44 10
20 29 55 44 77 32 47 65 109 166 305 41 80 85 159 97 175 13 17 29 41 36 54
l12 24 -51 -6 c-30 -4 -51 -2 -51 3 0 6 22 10 48 10 49 0 92 26 79 48 -3 4 5
20 19 35 47 51 26 73 -77 81 -35 2 -79 2 -97 -1z"/>
<path d="M2269 3313 c-8 -16 -26 -46 -40 -68 -42 -63 -89 -152 -89 -168 0 -8
7 -20 15 -27 12 -10 18 -10 30 0 9 7 19 10 23 6 4 -4 -2 -14 -12 -22 -17 -12
-18 -14 -2 -20 9 -3 23 -1 30 5 21 18 26 -8 8 -46 -32 -68 34 -127 83 -73 10
11 13 20 7 20 -7 0 -12 4 -12 10 0 5 7 7 15 4 9 -4 19 4 27 23 7 15 22 42 34
58 12 17 24 48 28 71 5 34 0 52 -30 110 -40 78 -83 144 -94 144 -3 0 -13 -12
-21 -27z"/>
<path d="M1832 3045 c-20 -23 -3 -74 40 -117 l20 -20 49 48 c62 61 64 47 3
-18 -52 -55 -50 -62 18 -83 44 -13 45 -13 116 28 39 22 74 47 77 54 2 8 -4 26
-14 41 -10 15 -26 39 -35 55 l-16 27 -123 0 c-92 -1 -125 -4 -135 -15z"/>
<path d="M2511 3027 c-22 -5 -41 -11 -41 -15 0 -4 -10 -18 -23 -32 -13 -14
-40 -51 -61 -82 -72 -110 -157 -155 -296 -159 -69 -1 -105 -8 -212 -41 -37
-11 -72 -17 -79 -12 -8 4 -9 3 -5 -4 4 -7 2 -13 -3 -13 -17 -2 -23 -4 -66 -24
-22 -10 -49 -20 -59 -22 -10 -2 -39 -12 -64 -23 -24 -11 -50 -20 -58 -20 -7 0
-16 -10 -20 -22 -3 -12 -16 -29 -27 -38 -19 -16 -20 -20 -7 -51 14 -34 90
-134 153 -199 55 -57 151 -179 153 -194 1 -8 11 -28 23 -45 61 -89 72 -113 91
-181 7 -25 17 -55 23 -68 l10 -22 24 22 c26 24 31 9 9 -25 -20 -29 -27 -74
-17 -100 24 -64 29 -297 12 -512 -6 -62 -4 -97 4 -113 10 -21 13 -22 24 -8 8
9 20 16 27 16 8 0 14 5 14 10 0 6 6 10 14 10 18 0 47 16 119 64 65 43 83 65
97 117 16 60 21 287 8 426 -15 174 -6 222 57 282 25 24 45 46 45 49 0 4 37 45
81 92 114 120 113 117 78 224 -35 105 -36 137 -8 183 19 30 20 40 11 90 -11
66 -4 96 37 163 41 66 73 139 66 150 -3 5 3 11 14 15 19 6 51 61 51 88 0 9 -6
19 -12 24 -17 10 -134 10 -187 0z"/>
<path d="M4710 2563 c0 -15 -65 -79 -95 -93 -16 -8 -32 -18 -35 -21 -3 -3 -34
-16 -70 -28 -147 -52 -162 -67 -182 -186 -10 -65 -10 -64 -27 -205 -7 -52 -16
-117 -21 -145 -5 -27 -17 -104 -26 -170 -38 -285 -68 -342 -204 -389 -25 -9
-67 -19 -95 -22 -72 -9 -258 12 -372 42 -317 82 -338 84 -345 33 -3 -22 3 -36
30 -64 19 -19 39 -35 45 -35 6 0 7 -3 4 -6 -4 -4 30 -41 74 -83 78 -73 130
-110 157 -111 7 0 37 -16 67 -35 38 -24 56 -43 61 -62 3 -15 8 -35 11 -43 4
-8 5 -20 4 -27 -1 -9 6 -10 29 -2 23 8 36 23 51 60 30 69 66 96 136 104 129
13 211 27 273 47 170 55 253 164 275 363 4 32 11 67 16 76 18 34 11 57 -18 61
-14 2 -29 9 -31 17 -3 10 0 12 12 8 9 -4 22 -10 30 -13 11 -4 16 15 26 83 6
48 15 115 20 148 5 33 12 83 15 110 3 28 13 80 22 118 20 84 49 115 141 147
104 36 124 48 117 71 -4 13 -2 19 9 19 9 0 16 -4 16 -10 0 -20 39 -9 59 16 25
32 44 98 36 124 -3 10 -16 22 -28 25 -12 4 -52 25 -88 46 -61 37 -99 49 -99
32z"/>
<path d="M1203 2460 c-15 -6 -23 -18 -23 -35 0 -14 -4 -25 -10 -25 -5 0 -10
-4 -10 -9 0 -14 135 -214 157 -231 42 -36 247 -305 258 -340 3 -11 11 -20 16
-20 5 0 9 -10 9 -22 0 -12 6 -40 14 -63 44 -127 57 -266 42 -430 -13 -139 -36
-309 -46 -330 -4 -11 -16 -66 -24 -122 -9 -56 -25 -137 -36 -180 -25 -94 -35
-173 -27 -205 11 -43 102 -72 148 -48 11 6 25 8 32 3 19 -12 164 -16 171 -5
11 18 27 164 20 181 -4 9 -6 19 -6 23 1 5 -6 8 -15 8 -10 1 -31 11 -47 24 -28
24 -29 26 -22 93 3 37 9 81 12 97 5 19 3 27 -4 23 -19 -12 -21 21 -2 38 11 10
20 36 23 68 3 29 13 86 22 127 33 151 30 599 -5 669 -4 9 -13 34 -20 56 -7 22
-20 51 -30 65 -9 14 -22 41 -29 60 -30 82 -91 168 -210 297 -42 44 -108 116
-147 159 l-71 77 -59 4 c-32 1 -69 -2 -81 -7z"/>
<path d="M895 2419 c-11 -4 -63 -15 -116 -24 -80 -14 -98 -20 -108 -39 -7 -12
-11 -26 -9 -32 2 -5 -9 -25 -25 -45 -15 -20 -27 -39 -27 -43 0 -9 -72 -100
-82 -104 -5 -2 -8 -10 -8 -17 0 -7 -3 -15 -8 -17 -4 -1 -29 -32 -55 -67 -50
-67 -67 -109 -49 -120 15 -9 8 -274 -10 -330 -11 -38 -19 -46 -53 -58 -22 -7
-78 -18 -125 -23 -78 -8 -159 -28 -203 -51 -16 -9 -17 -54 -17 -729 l0 -720
867 2 868 3 17 65 c10 36 20 89 22 118 2 29 11 63 20 77 20 31 12 36 -68 42
-62 5 -113 -8 -101 -27 12 -20 -16 -19 -32 1 -33 39 -85 69 -100 57 -10 -8
-13 -6 -13 10 0 11 -7 37 -16 58 -13 31 -15 59 -10 134 7 121 15 182 26 195 4
5 11 30 15 55 4 25 19 113 35 195 40 215 47 274 49 418 1 93 -2 133 -11 144
-7 9 -13 43 -14 77 -1 86 -66 217 -155 318 -62 68 -217 256 -254 307 -11 15
-30 38 -42 51 -13 13 -25 32 -29 42 -3 10 -8 18 -12 18 -4 0 -21 14 -39 30
-30 29 -61 41 -48 20 8 -14 -5 -12 -35 3 -15 8 -34 11 -45 6z"/>
<path d="M5019 2403 c0 -10 -10 -38 -22 -62 -18 -37 -36 -52 -104 -91 -46 -26
-114 -58 -153 -70 -42 -14 -78 -32 -89 -46 -23 -29 -46 -139 -72 -343 -11 -91
-22 -168 -25 -172 -12 -20 -11 -97 3 -122 8 -16 13 -30 11 -30 -36 -18 -44
-29 -50 -68 -3 -24 -11 -57 -17 -72 -14 -36 -14 -37 3 -31 7 3 16 -2 20 -12 5
-13 2 -15 -19 -12 -18 4 -26 0 -30 -13 -12 -36 -129 -144 -188 -172 -31 -15
-57 -30 -57 -33 0 -3 4 -3 9 1 5 3 12 1 15 -4 7 -11 -19 -22 -37 -15 -8 3 -47
-2 -88 -10 -41 -9 -105 -20 -142 -25 -105 -15 -112 -22 -126 -136 -13 -102 -9
-139 20 -192 10 -18 20 -36 21 -41 2 -4 7 -5 13 -4 5 2 7 0 3 -3 -4 -4 2 -26
13 -48 12 -22 23 -59 25 -81 6 -51 69 -245 100 -308 28 -56 56 -72 199 -116
243 -75 216 -72 587 -72 186 0 338 3 338 7 0 3 -12 22 -26 42 -22 31 -21 30
13 -7 l38 -42 118 0 117 0 0 113 c0 80 -4 120 -15 141 -14 25 -14 27 0 16 13
-11 15 90 13 935 l-3 949 -70 38 c-38 21 -76 36 -83 33 -25 -9 -63 20 -124 97
-34 44 -70 84 -79 89 -29 15 -59 11 -60 -8z"/>
<path d="M2517 2088 c-38 -40 -57 -68 -55 -81 2 -11 23 -35 48 -52 25 -17 60
-51 78 -76 102 -137 125 -161 186 -189 34 -15 77 -33 96 -39 19 -5 57 -17 84
-26 59 -18 108 -19 124 -3 24 24 12 140 -25 228 -3 8 -7 19 -7 25 -1 5 -14 18
-31 28 -113 70 -168 101 -225 128 -36 17 -79 46 -97 65 -18 19 -41 34 -52 34
-11 0 -23 5 -26 10 -14 22 -43 7 -98 -52z"/>
<path d="M2406 1826 c-21 -44 -20 -81 3 -147 43 -123 124 -228 211 -273 87
-45 358 -128 515 -158 28 -5 63 -13 78 -18 27 -8 28 -7 25 22 -2 18 -10 33
-18 35 -12 4 -13 3 -1 -5 18 -13 7 -44 -13 -36 -23 9 -29 37 -10 51 18 13 17
16 -33 70 -6 7 -20 27 -32 46 -33 53 -97 92 -211 126 -58 18 -113 34 -124 36
-77 17 -196 116 -258 216 -32 53 -53 69 -91 69 -18 0 -29 -9 -41 -34z"/>
<path d="M2370 1470 c-18 -24 -30 -26 -30 -3 0 9 -3 14 -6 10 -4 -3 -10 -61
-15 -128 -7 -99 -13 -128 -31 -159 -27 -45 -141 -141 -209 -175 -51 -26 -52
-29 -84 -155 -9 -36 -21 -73 -26 -82 -11 -21 -11 -29 -1 -26 4 0 25 -7 47 -18
36 -17 69 -19 355 -21 173 -1 325 -4 337 -6 29 -5 33 7 35 106 2 78 2 79 5 17
2 -36 5 -79 8 -96 l5 -32 63 3 c119 6 357 8 362 3 10 -10 168 21 176 34 5 7 9
45 9 85 0 110 -48 203 -104 203 -18 0 -25 6 -28 23 -2 15 -14 25 -37 33 -18 6
-37 17 -42 26 -10 18 -56 38 -189 78 -58 18 -122 39 -143 46 -50 18 -65 18
-70 -3 -3 -15 -6 -13 -15 8 -6 16 -22 29 -39 34 -37 9 -96 37 -104 48 -4 6
-14 7 -23 4 -10 -4 -21 1 -28 13 -7 11 -21 20 -30 20 -11 0 -23 14 -32 34 -8
19 -23 37 -34 40 -11 4 -27 18 -36 31 -20 30 -27 31 -46 5z"/>
<path d="M3467 1014 c-3 -5 -2 -16 4 -24 13 -21 11 -261 -2 -301 -7 -19 -21
-43 -33 -54 -20 -20 -35 -20 -755 -21 -556 -2 -735 -5 -741 -14 -14 -23 -22
-193 -9 -200 25 -16 143 -21 335 -14 165 5 201 9 197 20 -3 9 2 14 12 14 11 0
15 -5 11 -15 -5 -13 23 -15 212 -15 119 0 270 -3 335 -6 79 -4 122 -2 131 6
10 7 27 8 59 0 55 -12 290 -11 367 1 30 5 62 17 72 27 42 41 63 296 30 357 -6
11 -16 35 -22 53 -7 17 -16 32 -19 32 -4 0 -13 22 -21 49 -7 27 -20 52 -29 55
-9 4 -27 13 -41 21 -14 8 -37 15 -52 15 -14 0 -28 5 -30 12 -3 7 -7 8 -11 2z"/>
<path d="M3802 528 c-5 -7 -18 -38 -29 -69 -22 -66 -47 -100 -93 -125 -32 -17
-65 -19 -392 -22 l-357 -3 -4 -22 -4 -22 -8 23 -8 23 -507 -3 -508 -3 -20 -25
c-12 -14 -33 -46 -47 -72 -23 -42 -24 -48 -9 -56 18 -10 11 -32 -11 -32 -7 0
-22 -26 -33 -60 l-21 -60 59 0 59 0 4 32 4 33 1 -32 2 -33 1223 0 1222 1 -60
24 c-33 13 -85 31 -116 39 -86 24 -103 41 -171 171 -9 18 -26 67 -37 108 -11
41 -29 95 -40 120 -12 25 -21 52 -21 59 0 18 -64 23 -78 6z"/>
</g>
</svg>
