<?xml version="1.0" standalone="no"?>
<!DOCTYPE svg PUBLIC "-//W3C//DTD SVG 20010904//EN"
 "http://www.w3.org/TR/2001/REC-SVG-20010904/DTD/svg10.dtd">
<svg version="1.0" xmlns="http://www.w3.org/2000/svg"
 width="544.000000pt" height="544.000000pt" viewBox="0 0 544.000000 544.000000"
 preserveAspectRatio="xMidYMid meet">
<metadata>
Created by potrace 1.16, written by Peter Selinger 2001-2019
</metadata>
<g transform="translate(0.000000,544.000000) scale(0.100000,-0.100000)"
fill="#000000" stroke="none">
<path d="M0 4436 l0 -1005 28 -4 27 -4 -27 -2 c-27 -1 -28 -3 -28 -55 0 -52 1
-55 28 -59 l27 -4 -27 -2 -28 -1 0 -179 c0 -163 2 -180 18 -184 16 -4 16 -5 0
-6 -17 -1 -18 -35 -18 -572 0 -377 3 -568 10 -564 5 3 10 1 10 -4 0 -6 -4 -11
-10 -11 -5 0 -10 -18 -10 -41 0 -40 1 -41 28 -35 l27 6 -27 -23 c-18 -15 -28
-32 -28 -51 l0 -27 28 19 c15 11 43 27 62 36 l35 18 -30 -26 c-16 -14 -45 -35
-62 -47 -28 -17 -33 -27 -33 -60 0 -21 3 -39 6 -39 3 0 19 11 36 25 16 14 37
25 46 25 11 0 -2 -17 -35 -46 -57 -49 -76 -92 -26 -56 52 37 102 61 108 52 5
-9 94 36 107 54 4 6 8 8 8 4 0 -8 92 33 113 50 8 7 27 13 43 14 16 1 32 6 35
11 4 5 17 11 30 12 24 3 154 45 206 67 30 12 38 15 52 17 5 0 11 11 13 24 2
12 9 21 16 19 8 -1 28 12 46 30 33 33 73 98 60 98 -4 0 0 8 10 19 9 10 18 28
21 39 2 11 8 30 14 41 6 11 11 50 11 86 0 66 1 68 42 106 24 22 46 39 50 39 5
0 8 7 8 15 0 8 4 15 9 15 17 0 21 62 6 93 -8 17 -15 37 -15 46 0 9 -16 48 -35
86 -83 164 -154 368 -183 520 -39 211 -45 261 -46 427 l-1 168 -27 0 c-16 0
-28 4 -28 10 0 5 13 7 29 4 33 -7 46 7 32 35 -8 14 -7 20 3 24 8 3 16 30 20
64 4 32 9 65 11 73 2 8 13 48 23 87 10 40 17 75 14 78 -3 2 0 10 5 17 6 7 21
45 33 83 25 77 81 200 115 255 12 19 46 76 75 125 29 50 64 103 77 119 20 24
23 36 18 68 -7 42 1 51 14 16 9 -25 2 -31 111 88 39 42 206 198 229 214 4 3
10 13 14 23 4 10 17 17 32 17 14 0 37 11 50 24 13 14 34 27 45 31 11 3 20 11
20 16 0 5 6 9 14 9 7 0 40 14 72 32 130 69 164 91 164 106 0 6 5 12 10 12 6 0
10 10 10 22 0 12 -3 18 -7 15 -3 -4 -13 2 -20 13 -8 11 -19 18 -24 15 -5 -4
-9 23 -9 64 l0 71 -260 0 c-255 0 -260 0 -250 -19 5 -11 10 -23 10 -28 -1 -4
-8 4 -16 20 -13 24 -20 27 -64 27 l-49 0 29 -57 c39 -75 39 -94 0 -24 -40 72
-48 81 -77 81 l-25 0 22 -36 c12 -19 20 -38 17 -41 -6 -5 -47 55 -47 70 0 4
-263 7 -585 7 l-585 0 0 -1004z"/>
<path d="M1928 5408 c4 -33 27 -68 44 -68 14 0 38 -27 31 -34 -6 -6 29 -9 107
-9 19 -1 49 3 65 7 17 4 50 11 75 16 52 10 96 25 103 37 3 4 8 25 12 45 l7 37
-224 0 -225 1 5 -32z"/>
<path d="M2382 5428 c-1 -7 -3 -26 -5 -43 l-2 -30 80 3 c59 3 82 8 89 19 6 12
10 13 16 3 6 -9 54 -13 178 -14 l171 -1 3 30 c4 38 19 39 29 1 10 -36 24 -46
69 -46 65 -1 496 -128 533 -158 6 -5 37 -20 67 -33 51 -22 105 -51 191 -105
32 -20 39 -21 55 -9 28 21 34 18 34 -16 0 -30 1 -31 35 -25 l35 7 0 -38 c0
-29 6 -42 23 -52 26 -17 116 -94 199 -173 33 -32 64 -58 69 -58 5 0 9 -7 9
-16 0 -21 158 -222 181 -229 13 -4 19 -16 19 -36 0 -34 20 -77 46 -100 22 -19
83 -31 167 -34 31 -1 60 -4 63 -7 3 -3 26 1 51 8 59 18 73 18 73 -1 0 -23 18
-18 35 9 13 19 23 24 48 20 37 -4 118 43 135 80 10 23 10 24 -19 16 -16 -5
-55 -25 -86 -44 -31 -20 -59 -33 -61 -31 -15 15 108 100 182 126 43 16 77 46
115 104 14 22 39 54 56 72 16 17 41 45 55 62 14 17 33 31 42 31 10 0 18 4 18
9 0 5 12 11 28 13 l27 3 3 348 2 347 -570 0 -569 0 -12 -22 c-7 -13 -25 -39
-41 -58 -15 -19 -28 -39 -28 -45 -1 -13 -60 -78 -66 -72 -5 5 57 98 103 152
41 48 26 60 -20 15 -17 -17 -45 -41 -62 -53 l-30 -20 29 31 c17 18 26 32 23
32 -4 0 -3 9 3 20 10 19 8 20 -32 20 -38 0 -45 -4 -61 -31 -10 -18 -20 -29
-24 -26 -3 4 2 18 11 32 l16 25 -333 0 -334 0 -11 -22 -11 -23 0 23 -1 22
-304 0 c-282 0 -305 -1 -309 -17 -4 -17 -5 -17 -6 0 -1 16 -18 17 -209 17
-159 0 -209 -3 -210 -12z"/>
<path d="M2613 5283 c-44 -3 -52 -7 -55 -26 -2 -12 -7 -20 -13 -17 -5 3 -9 13
-7 24 2 16 -3 17 -45 12 -27 -3 -69 -7 -96 -9 -26 -2 -53 -9 -59 -15 -7 -7
-25 -12 -41 -12 -16 0 -67 -16 -113 -36 -85 -37 -85 -37 -78 -68 3 -17 9 -35
11 -40 9 -14 87 -46 115 -46 15 0 30 -5 33 -11 4 -6 21 -9 39 -8 17 2 36 0 41
-3 6 -4 43 -1 83 5 71 11 72 12 78 45 7 37 12 37 17 2 3 -21 8 -23 63 -23 130
0 126 -1 119 34 -5 24 -4 30 6 27 8 -3 15 -17 17 -31 l3 -27 104 0 c73 0 105
4 108 13 3 6 6 3 6 -8 1 -16 9 -21 34 -23 17 -1 68 -12 111 -23 44 -11 90 -18
103 -14 15 3 22 1 21 -6 -4 -17 91 -48 140 -45 33 2 42 -1 42 -14 0 -21 20
-40 41 -40 10 0 19 -3 21 -7 2 -5 38 -26 81 -48 123 -64 262 -173 431 -338
l79 -78 18 31 c18 30 63 55 79 45 4 -2 15 4 25 15 10 11 22 17 27 14 15 -9
-20 -41 -52 -48 -57 -11 -86 -93 -48 -137 13 -15 48 -61 78 -103 30 -42 58
-76 64 -76 5 0 7 -3 3 -6 -3 -3 3 -15 13 -26 22 -24 100 -33 100 -11 0 7 9 22
21 34 11 11 18 27 15 35 -3 9 -1 12 4 9 6 -3 10 1 10 9 0 9 -6 13 -14 10 -21
-8 -28 12 -11 29 20 20 19 24 -10 85 -21 45 -48 85 -157 239 -14 20 -32 33
-46 33 -18 0 -22 4 -18 18 4 13 -7 34 -36 68 -24 27 -49 53 -56 57 -7 5 -32
26 -55 48 -23 22 -53 42 -67 45 -45 10 -51 14 -45 24 3 5 2 10 -4 10 -5 0 -13
-4 -16 -10 -12 -20 -25 -10 -19 14 4 18 -1 32 -18 50 -23 26 -118 79 -118 67
0 -4 -7 -16 -16 -27 -15 -18 -15 -17 -10 14 5 27 3 32 -12 30 -11 -2 -16 3
-15 12 3 15 -44 50 -65 50 -6 0 -13 -8 -16 -18 -3 -10 -16 -18 -29 -20 -20 -1
-22 2 -19 37 4 37 3 38 -45 55 -26 9 -64 24 -83 33 -19 9 -56 21 -82 28 -39
11 -48 11 -48 0 0 -7 -7 -18 -15 -25 -16 -14 -19 -7 -15 38 1 17 -4 22 -24 22
-13 0 -37 5 -53 11 -15 6 -54 14 -85 18 l-58 7 -7 -50 -7 -51 -7 53 c-4 29 -9
55 -11 58 -6 6 -322 12 -385 7z"/>
<path d="M1880 5100 c-52 -25 -59 -33 -52 -66 5 -27 -12 -33 -26 -8 -5 9 -18
14 -28 12 -15 -3 -19 -11 -16 -43 2 -35 1 -37 -10 -20 -6 11 -16 23 -22 27
-13 9 -128 -72 -134 -94 -2 -10 -14 -18 -26 -18 -32 0 -60 -22 -188 -151 -146
-148 -334 -407 -330 -456 1 -13 -2 -23 -7 -23 -10 0 -52 -85 -77 -154 -10 -27
-11 -43 -4 -50 16 -16 12 -24 -12 -28 -18 -3 -25 -18 -50 -118 -43 -174 -51
-240 -31 -263 16 -17 16 -18 -4 -23 -18 -5 -20 -14 -22 -79 -2 -57 1 -74 14
-78 19 -8 20 -27 1 -27 -8 0 -16 -7 -20 -15 -8 -21 11 -294 23 -335 6 -19 11
-47 11 -62 0 -15 7 -31 16 -36 9 -5 14 -15 12 -23 -7 -21 52 -212 87 -279 7
-14 19 -38 26 -55 8 -16 24 -46 37 -67 21 -33 26 -35 53 -28 28 8 40 -2 19
-15 -20 -12 -9 -50 23 -77 17 -15 37 -28 44 -28 12 0 94 65 105 84 4 7 1 23
-6 37 -7 13 -14 28 -17 34 -2 5 -10 9 -16 7 -15 -3 -17 20 -3 34 6 6 -2 32
-23 74 -52 104 -83 195 -119 350 -31 136 -33 156 -33 332 0 104 -4 188 -9 188
-5 0 -3 6 3 14 6 7 16 49 21 92 17 134 17 136 56 264 18 60 50 135 94 221 25
49 27 56 12 65 -20 13 -6 37 19 31 27 -7 54 47 33 67 -17 17 -18 42 -3 51 14
9 19 3 21 -27 2 -26 28 -29 28 -3 0 38 210 264 320 346 36 27 72 55 81 64 9 8
21 15 27 15 7 0 12 5 12 10 0 6 6 10 13 10 18 1 70 46 64 57 -3 5 -2 15 4 23
7 13 9 12 9 -2 0 -13 5 -15 28 -8 35 10 86 33 92 41 3 4 36 21 74 38 103 48
119 72 55 86 -17 4 -51 27 -76 52 -55 56 -103 65 -173 33z"/>
<path d="M2661 4961 c-9 -6 -11 -21 -7 -52 6 -45 -2 -38 -24 24 -11 32 -26 33
-125 12 -39 -9 -85 -18 -103 -22 -34 -6 -45 -16 -49 -45 -2 -10 -3 -21 -4 -25
-9 -56 27 -108 109 -154 75 -42 89 -60 133 -166 11 -27 20 -33 44 -34 29 0 55
-2 170 -15 72 -8 123 -42 192 -131 96 -121 115 -208 63 -300 -16 -29 -30 -59
-30 -67 0 -7 -7 -19 -15 -26 -8 -7 -15 -22 -15 -35 0 -12 -9 -30 -20 -40 -11
-10 -25 -35 -31 -56 -10 -31 -9 -40 4 -53 9 -9 19 -16 24 -16 10 1 83 68 83
78 0 18 63 71 97 83 21 6 52 27 70 45 17 19 38 34 47 34 20 0 66 21 66 31 0
11 147 57 205 64 28 4 59 10 70 15 11 4 53 15 93 24 68 16 78 16 139 0 103
-26 203 -8 211 38 5 29 -70 170 -114 216 -7 6 -16 21 -19 32 -3 11 -11 20 -16
20 -6 0 -7 5 -4 10 14 22 -7 7 -57 -40 -29 -27 -57 -50 -62 -50 -5 0 -3 6 6
13 9 6 32 32 50 57 l35 46 -50 44 c-56 51 -60 55 -106 93 l-33 28 -35 -38 -35
-38 21 36 c26 46 27 66 1 74 -11 3 -20 11 -20 17 0 6 -9 8 -20 5 -12 -3 -25 2
-33 12 -19 28 -104 73 -129 69 -17 -2 -23 2 -23 15 0 19 -46 47 -79 47 -11 0
-30 7 -41 16 -11 8 -37 19 -58 25 -33 9 -42 7 -58 -7 -18 -16 -19 -16 -19 9 0
19 -5 27 -17 27 -10 0 -27 3 -39 6 -18 5 -23 -2 -37 -48 l-16 -53 2 60 2 60
-65 8 c-36 4 -84 12 -108 17 -52 12 -202 13 -221 1z"/>
<path d="M2230 4871 c-8 -5 -28 -12 -45 -15 -67 -12 -103 -25 -162 -59 -35
-20 -63 -34 -63 -31 0 3 -20 -9 -44 -26 -25 -16 -48 -30 -53 -30 -14 0 -143
-106 -216 -177 -52 -51 -66 -71 -62 -87 5 -19 5 -19 -5 -3 -10 15 -13 15 -26
3 -8 -8 -14 -17 -14 -21 0 -3 -17 -23 -37 -43 -56 -56 -83 -90 -93 -118 -5
-13 -15 -24 -21 -24 -6 0 -8 -7 -5 -15 3 -9 -1 -18 -9 -21 -8 -4 -15 -12 -15
-20 0 -8 -4 -14 -9 -14 -5 0 -11 -14 -15 -32 -4 -22 -1 -37 11 -51 18 -19 17
-20 -6 -8 -13 7 -27 9 -31 4 -12 -12 -70 -153 -70 -168 0 -7 -5 -15 -12 -17
-7 -3 -2 -13 12 -26 l24 -22 -27 0 c-21 0 -27 -5 -27 -21 0 -11 -5 -29 -10
-40 -9 -16 -6 -22 25 -40 19 -12 35 -23 35 -25 0 -2 -17 -1 -39 2 l-38 6 -12
-103 c-19 -172 -20 -181 -14 -195 3 -8 14 -14 24 -14 25 0 24 -12 -2 -36 -19
-17 -20 -28 -17 -107 1 -48 8 -91 13 -95 6 -4 11 -36 12 -71 1 -35 7 -67 12
-70 5 -3 13 -22 18 -41 11 -39 19 -41 111 -23 28 6 52 7 52 3 0 -5 -31 -13
-69 -20 -38 -6 -72 -17 -74 -24 -7 -18 83 -218 105 -234 10 -7 18 -24 18 -38
0 -15 6 -24 15 -24 8 0 14 -4 13 -9 -5 -15 61 -71 84 -71 13 0 29 -4 37 -9 20
-13 134 25 124 42 -4 6 0 8 9 5 17 -7 78 20 78 33 0 5 9 9 20 9 11 0 20 5 20
10 0 6 9 10 21 10 11 0 17 5 14 10 -3 6 1 10 10 10 9 0 14 4 11 9 -3 5 0 11 7
14 7 2 21 21 32 40 19 35 19 36 -1 74 -10 21 -22 40 -25 43 -20 16 -63 133
-72 194 -9 60 -8 77 7 111 29 67 86 174 152 285 73 124 105 178 142 243 15 26
49 85 76 130 64 109 87 149 130 231 20 38 45 81 56 96 11 16 20 31 20 34 0 4
11 24 25 45 13 22 40 70 59 109 20 38 55 90 78 117 l42 47 -13 47 c-12 46 -45
91 -66 91 -10 0 -36 17 -108 73 -16 12 -37 22 -46 22 -12 0 -18 14 -23 58 -4
32 -14 64 -22 72 -17 17 -16 17 -36 6z"/>
<path d="M5390 4603 c-25 -14 -54 -37 -65 -51 -11 -14 -35 -41 -52 -61 -18
-19 -33 -39 -33 -43 0 -4 -16 -25 -35 -45 -19 -20 -35 -42 -35 -48 0 -6 -12
-22 -26 -36 -15 -13 -44 -48 -65 -76 -25 -34 -49 -55 -67 -59 -15 -3 -43 -12
-62 -19 -19 -7 -60 -13 -90 -14 -30 0 -78 -5 -106 -11 -28 -6 -66 -9 -86 -6
-30 4 -37 1 -43 -17 -11 -34 -11 -41 0 -49 6 -5 6 -8 -2 -8 -14 0 -11 -36 16
-224 19 -132 37 -303 33 -320 -2 -4 19 -6 45 -3 43 5 45 5 20 -6 -22 -9 -27
-16 -23 -33 4 -13 1 -24 -7 -27 -7 -4 -3 -8 11 -12 23 -8 31 -33 10 -32 -47 1
-49 -1 -31 -38 19 -39 38 -45 48 -14 7 21 31 22 29 1 -1 -7 -2 -21 -2 -32 -1
-11 -8 -20 -16 -20 -19 0 -15 -20 24 -114 31 -74 33 -76 67 -76 30 0 34 -2 23
-15 -7 -8 -19 -15 -26 -15 -17 0 -17 0 1 -43 8 -20 24 -38 35 -42 16 -5 20
-15 20 -50 0 -37 25 -112 72 -215 7 -14 13 -35 14 -48 2 -13 9 -31 16 -39 7
-9 16 -46 19 -82 12 -128 -26 -242 -101 -301 -22 -17 -40 -28 -40 -24 0 4 -10
-2 -22 -13 -13 -11 -40 -23 -61 -26 -49 -8 -127 -45 -148 -71 -17 -21 -42
-127 -59 -251 -6 -38 -14 -96 -19 -129 -5 -32 -12 -93 -16 -135 -17 -221 -53
-329 -141 -428 -35 -39 -42 -53 -38 -78 4 -28 4 -29 -7 -7 -7 12 -15 21 -18
20 -14 -8 -128 -61 -146 -69 -32 -13 -93 -27 -200 -44 -55 -9 -110 -22 -121
-30 -22 -14 -35 -51 -39 -110 -1 -16 -14 -93 -29 -170 -54 -283 -68 -320 -136
-359 -32 -19 -54 -21 -252 -24 -218 -3 -237 -7 -209 -37 14 -15 22 -79 12 -94
-7 -10 -12 0 -17 35 -6 42 -9 45 -15 24 -6 -22 -7 -21 -8 11 -1 37 -31 80 -31
45 0 -10 4 -25 9 -34 13 -26 22 -112 11 -112 -5 0 -12 20 -15 44 -4 24 -17 59
-28 77 l-22 34 -3 -37 c-2 -20 2 -46 7 -57 6 -11 11 -41 11 -68 l-1 -48 -18
35 c-26 50 -35 98 -21 115 16 19 -4 55 -31 55 -18 0 -19 -4 -13 -36 5 -27 4
-35 -5 -30 -6 4 -11 15 -11 25 0 10 -6 23 -12 28 -21 16 -222 17 -247 1 -19
-11 -23 -11 -32 5 -6 9 -14 17 -19 17 -14 0 -40 -60 -40 -92 0 -17 -4 -27 -10
-23 -5 3 -10 33 -10 66 l0 59 -65 0 c-62 0 -66 -1 -76 -27 -6 -15 -14 -53 -19
-83 -8 -48 -8 -45 -4 25 l6 80 -81 -3 c-53 -2 -81 -8 -81 -15 -1 -7 -7 -25
-14 -42 -14 -30 -14 -30 -8 14 l5 44 -29 -7 c-37 -9 -38 -9 -105 0 l-57 7 -7
-42 c-8 -51 -22 -54 -17 -4 l3 38 -73 2 c-46 1 -76 -3 -81 -10 -5 -9 -11 -7
-20 5 -11 14 -19 15 -55 5 -25 -7 -44 -18 -48 -29 -3 -10 -14 -23 -25 -28 -17
-10 -19 -7 -19 25 l0 36 -112 -3 -112 -3 -23 -40 c-25 -45 -32 -31 -7 16 8 17
14 35 11 42 -2 6 -36 -52 -77 -129 -40 -76 -82 -152 -93 -167 l-19 -28 32 3
c29 3 34 9 73 95 22 51 43 91 45 89 2 -3 -12 -42 -32 -88 -40 -94 -41 -98 -23
-98 14 0 100 171 116 230 7 29 9 30 10 10 0 -14 -20 -72 -44 -130 -25 -58 -45
-106 -45 -107 0 -2 15 -3 33 -3 27 0 34 6 49 38 15 31 15 13 1 -25 -4 -10 33
-13 164 -13 l170 0 22 92 c12 51 24 104 27 117 3 13 7 21 10 18 4 -4 -24 -144
-42 -209 -5 -15 2 -18 39 -18 l44 0 16 63 c14 53 15 56 11 17 -3 -25 -8 -53
-10 -62 -5 -17 20 -18 435 -18 l440 0 4 33 4 32 1 -32 c2 -23 7 -33 18 -33 13
0 15 6 10 33 -4 17 -10 55 -14 82 l-7 50 -6 -40 -6 -40 -2 43 c-2 87 39 33 48
-63 5 -44 10 -61 22 -63 15 -3 16 7 12 85 -7 106 4 104 21 -4 l12 -78 63 -3
63 -3 -5 48 c-6 47 -6 48 8 18 8 -16 14 -38 15 -47 0 -17 61 -18 1140 -18
l1140 0 0 496 0 496 -42 38 c-51 45 -47 60 6 24 33 -23 37 -24 34 -8 -2 11
-29 31 -64 49 -34 16 -60 35 -57 41 2 6 -8 27 -22 48 -14 21 -20 34 -13 30 56
-33 127 -86 141 -106 16 -23 16 -23 16 18 1 33 -3 41 -15 40 -9 0 -19 5 -21
12 -3 8 1 10 11 6 12 -4 15 -2 10 9 -3 8 -38 31 -79 50 -40 20 -76 40 -79 46
-9 13 98 -23 141 -49 32 -19 33 -19 33 0 0 13 -22 29 -75 57 -42 21 -69 39
-61 41 8 2 38 -9 68 -25 29 -15 56 -29 61 -31 4 -2 7 16 7 40 0 41 -2 44 -35
54 -19 6 -35 7 -35 3 0 -15 -14 -10 -45 16 l-30 25 30 -5 c17 -2 49 -7 73 -10
l42 -5 0 1015 0 1015 -30 0 c-16 0 -30 5 -30 11 0 7 11 8 30 4 22 -5 30 -3 30
7 0 16 -110 38 -190 38 -28 0 -50 5 -50 10 0 6 27 10 60 10 59 0 79 13 40 25
-30 10 -24 25 10 25 16 0 52 5 80 11 l50 11 0 524 c0 288 -1 524 -2 524 -2 -1
-23 -12 -48 -27z"/>
<path d="M2580 4410 c0 -5 -7 -10 -15 -10 -9 0 -18 -7 -22 -16 -3 -10 -18 -29
-32 -43 -14 -14 -36 -44 -47 -66 -12 -22 -40 -75 -63 -117 -22 -42 -41 -84
-41 -92 0 -8 -13 -27 -28 -43 -16 -15 -50 -69 -77 -118 -26 -50 -53 -97 -60
-105 -12 -14 -124 -212 -188 -330 -16 -30 -39 -68 -52 -85 -12 -16 -48 -81
-81 -142 -46 -91 -56 -115 -46 -125 9 -9 53 -14 130 -16 115 -3 118 -3 145 23
25 24 77 116 77 137 0 4 -29 8 -64 8 -36 0 -68 5 -72 11 -3 6 1 10 12 9 11 -1
48 -2 84 -1 64 1 65 2 83 37 24 49 22 54 -20 55 -75 1 -81 16 -9 21 49 3 72 9
81 21 7 9 17 17 24 17 6 0 11 5 11 11 0 18 38 93 57 114 10 11 17 28 15 37 -2
12 6 22 25 30 15 7 30 13 32 15 2 1 7 24 12 51 4 27 21 72 38 99 37 60 38 70
9 76 -21 4 -21 4 3 6 24 1 59 28 59 45 0 4 8 18 18 31 19 25 28 39 74 110 18
28 38 56 45 63 7 7 16 25 19 40 4 15 10 32 14 37 4 6 29 50 55 98 59 110 55
117 -56 117 -89 0 -86 3 -64 -80 15 -57 18 -137 6 -180 -11 -39 -21 -10 -30
87 -5 57 -16 103 -30 131 -21 41 -31 52 -31 32z"/>
<path d="M2871 4343 c-12 -16 -30 -39 -42 -52 -11 -13 -32 -47 -46 -75 -14
-28 -41 -65 -59 -82 -19 -17 -34 -37 -34 -45 0 -8 -7 -25 -16 -37 -24 -35 -35
-82 -23 -104 13 -23 2 -39 -12 -18 -8 13 -10 13 -19 0 -7 -11 -5 -16 6 -18 20
-5 11 -27 -10 -26 -10 1 -31 -19 -51 -49 -38 -56 -43 -77 -20 -77 8 0 15 4 15
8 0 4 12 9 28 10 15 1 29 7 30 12 2 6 9 10 16 10 6 0 19 9 29 20 22 27 43 25
73 -5 27 -27 39 -31 49 -15 3 5 12 7 20 4 9 -4 19 3 25 17 19 41 44 84 70 119
54 74 120 204 120 236 0 40 -61 146 -101 174 l-27 20 -21 -27z"/>
<path d="M4435 4017 c-36 -26 -64 -58 -65 -73 0 -6 -8 -18 -18 -28 -20 -17
-20 -22 -2 -211 5 -55 12 -152 16 -215 4 -63 13 -130 20 -149 8 -18 14 -42 14
-52 0 -10 20 -55 43 -101 24 -46 56 -119 72 -163 43 -124 92 -215 115 -215 28
0 36 -21 14 -37 -17 -12 -17 -16 -4 -26 8 -7 16 -25 18 -42 2 -16 8 -33 14
-36 6 -4 11 -34 12 -67 1 -73 -19 -106 -84 -139 -24 -13 -48 -30 -53 -38 -5
-10 -23 -15 -51 -15 -48 0 -125 -44 -143 -82 -12 -25 -45 -208 -63 -348 -6
-47 -16 -125 -23 -173 l-13 -88 25 -12 c13 -7 27 -18 29 -26 3 -10 -3 -11 -28
-6 l-33 7 6 -48 c4 -27 10 -64 13 -83 5 -24 3 -32 -5 -27 -6 4 -11 16 -11 27
0 11 -4 17 -10 14 -5 -3 -10 -18 -10 -33 0 -15 -4 -33 -9 -41 -13 -21 -2 -41
23 -41 19 -1 19 -2 3 -11 -9 -5 -22 -7 -27 -4 -6 4 -32 -16 -58 -43 -62 -64
-93 -73 -267 -79 -131 -5 -149 -3 -270 26 -71 17 -161 40 -200 51 -38 12 -108
31 -155 44 -172 46 -467 139 -523 164 -71 32 -144 101 -202 192 -46 72 -68 90
-108 90 -76 0 -83 -131 -13 -267 29 -58 126 -166 175 -198 40 -25 208 -86 286
-104 108 -25 314 -95 378 -129 38 -19 83 -51 100 -70 18 -19 40 -42 50 -51 9
-8 17 -23 17 -33 0 -9 4 -19 9 -23 5 -3 17 -31 27 -63 13 -44 15 -79 10 -157
-8 -142 -36 -175 -152 -175 l-62 0 -6 -45 c-4 -25 -3 -53 3 -64 6 -11 11 -30
11 -43 l-1 -23 -14 25 c-8 14 -15 45 -15 70 0 25 -4 50 -8 56 -4 6 -33 14 -66
18 -58 6 -58 6 -52 -18 3 -13 9 -32 13 -41 4 -12 2 -16 -7 -13 -8 2 -20 23
-28 46 l-14 42 -56 -6 c-31 -4 -69 -12 -84 -19 -21 -10 -29 -10 -40 0 -18 17
-548 32 -548 16 0 -6 -7 -11 -15 -11 -8 0 -15 4 -15 9 0 10 -351 8 -368 -3 -7
-4 -12 -14 -12 -22 0 -20 -17 -18 -22 4 -3 10 -23 22 -51 30 -64 19 -71 31
-64 105 3 34 7 69 9 77 3 8 3 12 1 8 -7 -12 -43 -9 -43 2 0 22 31 70 44 70 10
0 16 17 19 58 3 31 10 77 16 102 18 67 31 188 37 348 6 140 6 143 -15 149 -21
5 -30 33 -11 33 27 0 -2 163 -48 275 -43 102 -69 152 -116 215 -64 85 -87 109
-110 112 -14 2 -20 10 -19 23 1 13 -11 29 -33 45 -20 14 -48 35 -64 48 -15 12
-38 22 -50 22 -11 0 -18 4 -15 10 9 15 -74 12 -89 -3 -18 -18 -31 -77 -17 -77
6 0 14 -12 17 -27 7 -29 42 -85 56 -91 4 -2 8 -10 8 -18 0 -7 9 -19 20 -26 11
-7 20 -21 20 -30 0 -9 6 -21 13 -25 13 -9 98 -125 134 -183 12 -20 36 -78 54
-130 31 -89 33 -105 36 -255 2 -116 -3 -195 -16 -290 -16 -112 -82 -454 -95
-496 -2 -8 -7 -33 -10 -56 -5 -33 -3 -43 8 -43 15 0 15 -6 2 -90 -7 -45 -7
-46 21 -48 15 -1 30 -7 31 -12 11 -31 36 -40 109 -40 66 0 75 2 80 20 6 22 23
27 23 8 0 -7 10 2 21 19 25 39 33 42 25 8 -7 -29 8 -34 23 -7 9 15 10 13 11
-9 0 -18 7 -28 20 -32 11 -3 20 -2 20 3 0 15 41 19 47 4 4 -10 24 -14 78 -14
l72 0 33 102 c18 57 34 108 35 113 2 6 4 -4 4 -21 1 -17 -8 -51 -18 -75 -10
-24 -22 -63 -26 -87 l-7 -44 31 16 c17 9 31 25 31 34 0 10 7 27 15 38 14 18
15 16 9 -22 l-6 -41 52 7 c34 4 53 3 56 -4 4 -11 110 -13 121 -2 4 3 1 6 -6 6
-10 0 -11 10 -6 37 4 21 9 42 13 47 8 14 20 -23 21 -64 l1 -35 63 -2 c78 -3
93 1 92 30 0 30 19 34 25 5 4 -16 14 -24 33 -26 26 -3 27 -2 27 49 0 51 14 59
22 14 2 -11 9 -21 16 -21 6 -1 17 -2 22 -3 6 0 10 -7 10 -15 0 -16 27 -29 41
-20 5 3 9 25 9 50 0 24 5 44 10 44 10 0 15 -34 11 -82 -2 -20 2 -28 13 -28 9
0 16 7 16 15 0 19 9 19 31 -1 23 -21 39 -10 40 29 1 18 3 24 6 15 2 -10 9 -18
14 -18 5 0 9 -6 9 -14 0 -19 57 -26 72 -9 7 9 14 10 23 3 15 -12 25 -3 25 24
1 20 2 19 16 -4 l15 -25 -5 34 c-3 18 -6 39 -7 45 0 6 -4 2 -9 -9 -7 -16 -9
-17 -9 -3 -2 45 38 25 45 -23 8 -56 12 -63 28 -50 13 11 12 17 0 48 -8 19 -13
37 -11 39 4 5 57 -74 57 -86 0 -12 370 -4 402 8 45 18 61 57 89 221 63 360 68
385 87 410 20 27 71 45 159 55 125 14 198 27 207 36 5 5 17 10 26 10 8 1 33
14 55 30 22 16 50 34 61 39 33 15 90 91 109 146 9 28 19 76 22 107 5 48 2 61
-16 84 -28 36 -27 48 4 28 15 -9 25 -13 23 -8 -1 5 4 40 11 78 14 68 13 70 -8
84 -28 19 -29 47 -1 32 17 -9 20 -6 30 32 10 35 9 48 -4 75 -18 39 -20 46 -7
38 15 -9 41 24 41 53 0 32 26 160 39 194 14 35 43 62 92 82 24 10 52 22 61 27
10 5 26 9 36 9 26 0 34 11 21 27 -9 10 -3 13 31 13 74 0 145 73 120 121 -8 15
-7 23 4 35 21 20 11 40 -26 53 -37 13 -34 19 10 23 23 2 31 6 27 16 -3 7 -5
22 -5 32 0 11 -12 23 -32 31 l-33 13 32 3 32 4 -18 42 c-10 23 -21 53 -24 67
-15 62 -79 181 -103 192 -28 13 -30 21 -10 38 13 10 12 19 -9 63 -13 29 -38
88 -57 131 -21 50 -40 81 -51 84 -10 3 -16 10 -13 17 2 7 -6 44 -19 81 -17 48
-30 70 -46 76 -20 8 -20 10 -7 26 12 13 15 39 14 107 -1 50 -5 96 -10 103 -4
6 -22 12 -39 12 l-32 0 25 20 c14 11 31 20 38 20 15 0 15 -3 -2 100 -15 92
-29 134 -45 145 -6 3 -11 12 -11 20 0 8 -10 25 -23 39 l-22 24 -30 -21z"/>
<path d="M3788 4010 c-13 -8 -15 -15 -8 -28 32 -59 71 -157 81 -202 13 -61 7
-147 -13 -188 -42 -81 -114 -210 -130 -231 -10 -13 -18 -28 -18 -34 0 -5 -22
-43 -50 -83 -27 -40 -50 -76 -50 -80 0 -4 -22 -43 -48 -88 -27 -45 -56 -94
-64 -111 -58 -115 -72 -141 -78 -145 -4 -3 -33 -52 -66 -109 -32 -57 -76 -131
-96 -165 -20 -33 -52 -88 -71 -121 -41 -70 -95 -123 -140 -136 -60 -17 -192
-11 -253 12 -63 24 -103 62 -168 159 -95 141 -99 179 -31 304 36 68 44 91 42
126 -2 36 -9 46 -42 71 -57 42 -109 38 -140 -11 -13 -19 -38 -51 -56 -72 -19
-20 -42 -44 -51 -55 -51 -56 -180 -103 -284 -103 -19 0 -53 -9 -75 -20 -22
-12 -43 -18 -48 -16 -4 3 -13 -5 -20 -17 -11 -21 -26 -31 -161 -106 -116 -66
-129 -75 -152 -120 l-22 -43 24 -42 c13 -22 51 -76 84 -118 66 -82 131 -180
158 -237 41 -85 78 -171 78 -180 0 -5 5 -22 10 -37 10 -24 12 -25 28 -12 39
34 45 30 19 -15 -16 -27 -25 -53 -20 -60 4 -6 8 -30 9 -52 18 -340 20 -422 11
-440 -6 -11 -19 -94 -29 -185 -27 -241 -30 -280 -18 -280 5 0 10 5 10 10 0 6
9 10 20 10 13 0 20 -7 20 -19 0 -28 32 -31 407 -35 248 -3 335 -2 340 7 4 7
10 66 14 132 l6 120 1 -127 2 -126 65 -4 c36 -1 66 1 68 5 1 5 22 4 46 -2 24
-5 58 -7 77 -4 31 5 34 9 34 40 0 28 3 34 16 29 9 -3 20 -6 25 -6 5 0 9 -5 9
-11 0 -5 -4 -7 -10 -4 -11 7 -13 -6 -4 -29 5 -14 27 -16 139 -16 l133 0 16 34
c22 47 21 153 -3 208 -22 53 -41 69 -89 78 -36 7 -36 7 -12 17 25 10 25 11
-24 42 -28 17 -57 31 -66 31 -9 0 -20 4 -25 9 -6 5 -38 18 -73 30 -34 12 -70
25 -80 30 -9 5 -44 15 -77 21 -33 7 -78 18 -100 26 -54 19 -55 18 -55 -13 0
-22 -2 -25 -10 -13 -5 8 -10 24 -10 36 0 15 -13 26 -53 42 -29 12 -56 22 -60
22 -19 0 -129 81 -186 137 -35 35 -65 62 -66 61 -1 -2 -7 -12 -13 -23 -10 -17
-11 -12 -12 31 0 36 -8 68 -27 106 -32 63 -33 65 -45 141 -9 52 -7 63 14 105
39 79 95 103 201 86 40 -7 43 -11 154 -163 26 -35 55 -66 64 -68 10 -3 20 -11
23 -19 3 -8 17 -14 31 -14 14 0 28 -7 31 -15 4 -8 16 -15 28 -15 12 0 68 -16
126 -36 58 -20 130 -43 160 -50 30 -8 93 -26 140 -41 158 -48 245 -74 280 -82
19 -5 67 -18 106 -30 88 -26 98 -26 117 1 l16 23 7 -22 c5 -17 16 -24 48 -28
62 -10 193 11 227 36 16 11 29 17 29 13 0 -3 7 -1 15 6 21 18 19 47 -11 110
l-25 55 35 -34 36 -35 -10 34 c-5 18 -16 40 -23 49 -31 36 -28 44 6 12 20 -19
40 -31 44 -28 4 4 -4 29 -17 55 -14 26 -26 51 -29 56 -2 6 9 0 24 -12 32 -25
34 -25 40 14 3 16 8 45 12 64 4 19 7 42 8 50 1 8 5 45 9 82 l7 67 -42 45 c-49
54 -46 57 13 17 46 -32 64 -24 29 13 -26 28 -27 39 -1 31 17 -5 20 -2 20 22 0
16 9 69 20 118 l19 90 -31 32 c-18 18 -27 33 -21 33 6 0 16 -7 23 -15 18 -22
35 -19 54 10 21 32 51 59 79 72 177 83 197 95 207 132 12 44 13 58 2 63 -4 2
-18 36 -31 75 -18 60 -27 74 -47 79 -27 7 -33 24 -7 24 15 0 15 2 -1 19 -10
11 -13 22 -8 25 6 3 -10 44 -34 90 -24 47 -44 90 -44 96 0 5 -12 34 -26 63
-14 28 -32 74 -40 100 -8 26 -22 51 -30 54 -9 3 -14 19 -14 44 0 38 -1 39 -36
39 -21 0 -33 4 -29 10 3 6 17 10 31 10 28 0 34 34 8 44 -13 5 -14 9 -4 21 14
17 5 228 -12 285 -14 44 -21 49 -72 43 -52 -6 -30 13 26 22 21 4 38 9 38 11 0
8 -25 48 -42 68 -10 11 -18 23 -18 28 0 4 -11 10 -24 14 -14 3 -27 12 -30 20
-7 18 -39 17 -91 -1 l-40 -14 28 25 c39 34 21 49 -68 58 -39 3 -88 9 -110 11
-22 3 -48 1 -57 -5z"/>
<path d="M3583 3953 c-24 -8 -43 -21 -43 -29 0 -8 -7 -14 -15 -14 -24 0 -36
-43 -16 -54 25 -14 26 -15 7 -29 -17 -13 -17 -15 2 -54 17 -32 28 -42 54 -46
46 -7 191 -2 206 7 14 8 17 76 3 76 -5 0 -12 11 -15 25 -8 33 -51 81 -98 111
-21 13 -39 24 -40 23 -2 0 -22 -7 -45 -16z"/>
<path d="M3283 3801 c-7 -11 -10 -31 -7 -45 4 -22 1 -26 -21 -26 -15 0 -24 -4
-20 -9 3 -5 1 -12 -5 -16 -20 -12 -9 -53 34 -136 43 -83 74 -117 83 -91 3 6
10 9 15 6 7 -4 8 -2 4 5 -4 6 -3 18 3 25 9 11 4 15 -21 21 l-33 8 48 10 c26 6
47 14 47 19 0 4 -3 7 -7 7 -27 -4 -63 3 -63 12 0 8 14 9 44 5 43 -7 43 -7 75
42 32 51 39 90 19 110 -7 7 -9 12 -4 12 4 0 -2 14 -14 30 -20 29 -25 30 -93
30 -60 0 -74 -3 -84 -19z"/>
<path d="M3512 3643 c-16 -21 -53 -80 -83 -132 -48 -85 -51 -95 -36 -106 23
-17 21 -28 -3 -20 -12 4 -26 2 -33 -3 -7 -5 -67 -12 -135 -15 -68 -3 -126 -7
-129 -10 -2 -3 -7 -25 -10 -48 -7 -49 -39 -109 -58 -109 -7 0 -19 7 -26 16
-13 16 -15 29 -18 105 l-1 37 -150 -2 -150 -1 -25 -30 c-13 -16 -24 -37 -25
-47 0 -9 -4 -18 -8 -20 -5 -1 -11 -19 -15 -40 -9 -60 2 -66 144 -71 69 -2 135
-10 147 -16 33 -18 62 -14 62 9 0 13 7 20 20 20 11 0 20 5 20 10 0 6 9 10 20
10 14 0 20 -7 20 -24 0 -13 5 -26 12 -28 13 -5 -58 -88 -74 -88 -5 0 -22 -10
-38 -21 -22 -17 -37 -20 -64 -16 -30 5 -37 2 -52 -21 -10 -15 -21 -31 -26 -37
-4 -5 -19 -24 -33 -41 -14 -18 -25 -36 -25 -41 0 -5 -9 -19 -20 -31 -11 -11
-29 -36 -40 -54 -76 -127 -84 -162 -50 -236 21 -46 87 -132 101 -132 5 0 21
19 36 43 14 23 41 65 60 92 18 28 33 53 33 57 0 3 16 30 35 59 19 30 35 57 35
61 0 3 -10 9 -22 11 -18 3 -17 4 4 3 31 -1 42 15 152 209 76 135 102 168 111
143 3 -8 -15 -49 -43 -95 -27 -44 -64 -109 -83 -144 -18 -35 -45 -82 -60 -104
-25 -38 -37 -57 -97 -165 -14 -25 -31 -50 -37 -57 -7 -6 -27 -42 -45 -79 l-32
-67 22 -17 c18 -13 46 -17 127 -18 l103 -2 38 38 c21 21 48 58 61 82 13 25 39
74 58 110 18 36 42 79 53 95 27 43 77 130 117 205 20 36 51 88 69 117 19 28
34 56 34 61 0 5 8 20 19 33 10 13 35 56 56 94 20 39 45 84 55 100 11 17 27 46
36 65 10 19 35 61 56 92 51 76 117 209 111 224 -7 19 -39 24 -150 24 l-101 0
-30 -37z"/>
<path d="M3062 3642 c-7 -5 -10 -16 -6 -25 3 -10 1 -17 -5 -17 -6 0 -11 9 -11
20 0 11 -4 20 -9 20 -17 0 0 -94 20 -113 10 -10 19 -25 19 -33 0 -33 33 -52
95 -54 95 -3 105 -1 105 15 0 20 -66 144 -90 169 -19 20 -97 32 -118 18z"/>
<path d="M2249 3256 c-14 -13 -44 -58 -68 -100 -41 -72 -43 -78 -27 -95 9 -9
16 -24 16 -32 0 -27 31 -61 51 -56 11 3 19 1 19 -4 0 -6 6 -4 14 3 8 7 12 16
10 20 -2 3 1 8 8 10 7 3 9 11 3 24 -17 40 -11 67 15 71 39 5 50 11 50 28 0 8
-9 15 -20 15 -11 0 -20 7 -20 15 0 8 5 15 10 15 6 0 4 13 -5 30 -8 16 -15 40
-15 55 0 31 -11 32 -41 1z"/>
<path d="M1833 3053 c-7 -2 -13 -12 -13 -20 0 -16 58 -123 66 -123 2 0 25 19
49 41 51 47 72 49 25 3 -35 -34 -63 -81 -52 -88 19 -11 167 -26 170 -16 2 5
11 10 19 10 19 0 63 46 63 66 0 8 -14 41 -30 74 l-30 60 -128 -1 c-70 0 -133
-3 -139 -6z"/>
<path d="M1135 2150 c-4 -6 -16 -10 -28 -10 -30 -1 -92 -56 -93 -83 0 -12 -5
-31 -11 -42 -5 -11 -18 -45 -28 -75 -44 -136 -127 -260 -173 -260 -11 0 -24
-4 -27 -10 -3 -5 -17 -10 -31 -10 -16 0 -24 -6 -24 -17 0 -15 -2 -16 -10 -3
-8 13 -14 8 -12 -11 1 -8 -57 -22 -81 -20 -10 2 -24 -2 -30 -7 -7 -5 -34 -17
-62 -27 -27 -10 -54 -22 -59 -26 -6 -5 -27 -9 -48 -9 -22 0 -67 -14 -105 -32
-65 -30 -125 -68 -108 -68 5 0 1 -8 -7 -17 -15 -19 -58 -91 -58 -99 0 -15 27
2 66 41 52 53 64 58 33 13 -28 -40 -76 -78 -120 -94 -9 -3 -27 -24 -39 -47
-13 -23 -36 -57 -52 -75 l-28 -33 0 -564 0 -565 623 0 623 0 17 36 c10 19 15
39 12 43 -2 5 11 26 29 47 18 21 52 75 75 119 22 44 49 91 58 105 17 23 17 24
1 17 -20 -7 -24 12 -9 41 4 9 11 43 15 76 5 50 4 57 -9 52 -19 -7 -20 8 -1 23
22 19 69 223 59 261 -3 9 3 39 11 65 9 26 28 118 43 204 21 126 26 190 27 336
1 174 0 183 -28 258 -15 42 -32 80 -37 83 -5 3 -9 11 -9 18 0 18 -79 136 -91
136 -5 0 -9 5 -9 11 0 10 -150 162 -193 197 -27 20 -66 32 -72 22z"/>
<path d="M1467 347 c-8 -7 -30 -39 -50 -72 -19 -33 -63 -106 -96 -162 -34 -56
-61 -105 -61 -108 0 -3 18 -5 39 -5 48 0 56 10 142 176 34 66 67 126 75 134
23 27 -20 60 -49 37z"/>
</g>
</svg>
