<?xml version="1.0" standalone="no"?>
<!DOCTYPE svg PUBLIC "-//W3C//DTD SVG 20010904//EN"
 "http://www.w3.org/TR/2001/REC-SVG-20010904/DTD/svg10.dtd">
<svg version="1.0" xmlns="http://www.w3.org/2000/svg"
 width="544.000000pt" height="544.000000pt" viewBox="0 0 544.000000 544.000000"
 preserveAspectRatio="xMidYMid meet">
<metadata>
Created by potrace 1.16, written by Peter Selinger 2001-2019
</metadata>
<g transform="translate(0.000000,544.000000) scale(0.100000,-0.100000)"
fill="#000000" stroke="none">
<path d="M0 5369 l0 -70 83 -39 c59 -27 96 -53 132 -91 l50 -52 -55 38 c-48
33 -52 34 -30 10 22 -25 23 -27 5 -21 -13 5 -7 -7 20 -35 53 -56 26 -44 -95
41 -55 38 -103 70 -105 70 -3 0 -5 -19 -5 -42 0 -48 8 -55 136 -128 34 -19 83
-60 110 -90 27 -30 38 -46 25 -35 -13 11 -78 57 -144 101 -105 70 -122 79
-125 62 -6 -33 3 -43 112 -117 171 -116 149 -118 -29 -2 -38 25 -73 47 -77 49
-5 2 -8 -82 -8 -187 0 -185 1 -190 22 -205 12 -9 18 -16 12 -16 -5 0 -16 6
-23 13 -10 10 -12 6 -9 -17 2 -24 14 -36 58 -63 62 -37 55 -43 -14 -13 l-46
19 0 -38 c0 -36 2 -38 60 -66 70 -33 74 -45 6 -15 -26 11 -52 20 -57 20 -5 0
-9 -264 -9 -655 l0 -655 63 -1 62 -2 -62 -10 -63 -10 0 -63 0 -64 103 -1 c106
-2 103 -4 -25 -14 -78 -7 -78 -7 -78 -35 0 -27 2 -29 58 -35 31 -3 66 -10 77
-15 11 -4 41 -17 67 -29 26 -12 56 -21 66 -21 10 0 25 -9 35 -20 10 -12 29
-20 49 -20 25 0 29 3 18 10 -13 8 -12 10 3 10 9 0 17 6 17 14 0 15 45 30 60
21 6 -4 10 -13 10 -22 0 -13 11 -14 68 -10 136 12 182 20 193 33 6 8 18 14 25
14 8 0 14 7 14 15 0 8 4 15 9 15 23 0 21 89 -4 220 -2 13 0 29 5 36 8 8 5 13
-10 17 -24 6 -27 27 -4 27 13 0 15 7 10 31 -3 17 -6 55 -6 84 0 48 -2 53 -20
48 -14 -4 -20 0 -20 12 0 12 6 16 20 12 19 -5 20 0 20 83 0 61 -4 90 -12 94
-10 3 -9 8 3 18 24 20 29 45 13 59 -12 10 -12 13 -1 23 8 6 19 47 26 91 6 44
20 115 31 159 22 87 25 126 10 126 -16 0 -11 27 6 34 14 5 14 9 3 23 -8 10
-10 18 -4 20 41 14 60 31 57 52 -1 13 7 30 18 39 11 10 40 58 65 107 25 50 63
117 85 150 39 61 48 89 30 100 -20 13 -9 21 23 17 30 -3 35 0 47 30 8 18 31
50 52 71 21 20 35 37 31 37 -4 0 3 8 17 18 14 9 26 26 25 37 0 13 8 21 21 23
12 2 55 34 95 71 41 37 84 73 97 80 12 6 22 21 22 31 0 13 7 20 20 20 12 0 31
10 44 23 36 35 79 63 106 70 32 8 70 43 70 64 0 12 3 13 15 3 9 -7 25 -10 41
-6 35 9 99 51 117 77 9 11 20 18 27 14 16 -10 100 27 101 45 1 8 2 45 4 83 l3
67 -103 0 c-102 0 -103 0 -99 -22 l5 -23 -17 23 c-15 20 -24 22 -124 22 -107
0 -108 0 -104 -22 l5 -23 -17 23 c-14 19 -26 22 -81 22 -58 0 -64 -2 -59 -17
6 -17 5 -17 -8 0 -7 9 -23 17 -35 17 -19 0 -20 -3 -11 -21 16 -30 6 -34 -13
-5 l-16 24 -316 1 c-315 2 -316 2 -305 -19 14 -27 -5 -27 -22 0 -11 17 -24 20
-91 20 -60 0 -76 -3 -71 -12 5 -9 2 -9 -9 1 -27 22 -20 -3 18 -60 l35 -54 -60
63 c-42 44 -67 62 -85 62 -14 0 -25 -3 -25 -6 0 -3 30 -38 66 -77 36 -39 61
-73 55 -75 -6 -2 -9 -8 -5 -13 3 -5 2 -9 -2 -9 -12 0 -169 153 -166 162 1 5
-2 7 -7 4 -5 -4 -12 -2 -16 4 -3 5 -11 10 -18 10 -6 0 22 -35 63 -77 141 -146
146 -154 56 -92 -43 30 -107 80 -141 112 -58 53 -92 72 -83 47 2 -6 57 -64
122 -130 66 -66 118 -122 115 -124 -2 -2 -40 22 -84 55 -44 32 -89 64 -100 70
-20 12 -20 12 -1 -12 11 -13 -11 8 -47 46 -37 39 -69 78 -72 88 -5 13 -18 17
-62 17 -31 0 -54 -2 -52 -4 2 -2 22 -18 44 -36 22 -17 90 -80 151 -139 62 -60
130 -117 151 -127 71 -36 152 -93 164 -116 14 -26 16 -27 -69 42 -24 19 -46
35 -50 36 -14 1 -68 29 -97 50 -50 35 -62 39 -40 14 l20 -23 -20 11 c-11 6
-54 43 -95 82 -41 40 -68 68 -60 64 8 -4 -13 23 -47 60 -35 36 -63 71 -63 76
0 6 -16 10 -35 10 l-35 0 0 -71z"/>
<path d="M2330 5415 c0 -41 33 -62 98 -62 64 -1 92 10 92 34 0 15 2 15 13 -2
8 -10 19 -15 25 -11 7 4 12 2 12 -4 0 -7 18 -10 46 -8 37 2 48 7 55 26 11 27
34 28 56 2 21 -24 68 -26 90 -5 14 14 17 14 34 -1 11 -10 29 -18 42 -19 12 -1
64 -8 115 -15 71 -11 98 -11 112 -2 15 9 19 8 24 -5 6 -14 9 -14 31 1 24 16
25 15 25 -4 0 -27 50 -51 102 -48 36 3 43 7 56 38 8 19 17 30 19 23 2 -6 -3
-26 -12 -43 -9 -17 -13 -35 -10 -40 11 -17 45 -11 46 8 0 11 4 8 10 -9 8 -20
30 -35 108 -67 101 -43 125 -49 136 -32 12 19 25 10 21 -14 -5 -27 10 -44 61
-70 22 -11 34 -13 39 -5 4 6 11 2 18 -13 6 -12 25 -30 42 -38 16 -9 43 -28 59
-43 36 -33 61 -34 86 -4 22 27 24 37 4 37 -18 0 -20 21 -3 38 20 20 31 14 24
-13 -4 -14 -2 -25 3 -25 5 0 5 -13 -2 -29 -8 -22 -8 -36 0 -53 7 -13 15 -33
18 -46 4 -12 16 -27 28 -34 22 -11 35 -22 96 -77 19 -17 43 -31 53 -31 12 0
19 -6 17 -17 -4 -49 15 -57 59 -22 29 22 45 8 20 -18 -8 -8 -13 -25 -10 -38 4
-21 7 -22 28 -13 32 15 43 2 15 -18 -17 -13 -20 -19 -10 -30 13 -16 47 -18 69
-4 11 7 11 10 2 10 -7 0 -10 5 -7 10 14 23 23 7 22 -37 -2 -54 -8 -52 108 -39
46 5 48 4 31 -9 -11 -8 -26 -15 -33 -15 -7 0 -13 -6 -13 -12 0 -9 -4 -8 -10 2
-7 11 -10 12 -10 2 0 -8 9 -16 20 -19 15 -4 18 -9 10 -18 -13 -16 16 -25 83
-25 42 0 49 3 57 25 7 17 17 25 34 25 29 0 26 -26 -2 -32 -10 -2 8 -5 38 -5
30 -1 60 3 67 9 8 6 16 8 19 5 4 -3 17 5 31 19 13 13 30 24 37 24 6 0 21 7 32
16 18 15 18 15 -3 9 -43 -12 -24 15 37 53 62 38 79 59 35 42 -25 -9 -42 1 -31
19 5 7 53 21 91 25 6 1 26 9 46 18 20 8 47 19 60 23 13 4 33 15 44 24 61 51
107 74 153 75 26 1 59 -2 75 -7 l27 -7 0 320 0 320 -322 -1 -323 -1 -80 -89
c-44 -49 -91 -97 -105 -106 -41 -27 31 61 109 134 l66 63 -55 0 c-50 0 -57 -3
-72 -27 -10 -16 -18 -23 -18 -16 0 6 5 15 10 18 12 7 13 25 2 25 -4 0 -40 -31
-80 -68 -40 -37 -72 -66 -72 -63 0 3 28 34 62 68 l62 63 -75 0 c-77 0 -89 -5
-114 -50 -8 -13 -7 -13 10 0 17 14 18 14 5 -10 -18 -34 -50 -75 -50 -64 0 5 7
21 17 34 15 24 15 24 -13 -2 -55 -51 -61 -27 -9 35 19 22 35 44 35 49 0 10
-70 11 -70 1 -1 -9 -70 -91 -70 -82 0 3 11 20 25 39 14 19 25 38 25 42 0 4
-24 8 -54 8 -44 0 -56 -4 -70 -22 l-17 -23 11 23 c10 20 8 22 -16 22 -15 0
-37 -8 -48 -17 -20 -17 -20 -17 -7 0 12 15 11 17 -12 17 -20 0 -36 -13 -66
-54 -36 -49 -61 -74 -61 -63 0 25 28 71 51 83 16 8 29 19 29 24 0 14 -64 12
-79 -2 -11 -10 -14 -10 -18 -1 -3 10 -47 13 -174 12 -143 0 -169 -2 -169 -15
0 -15 -37 -94 -45 -94 -5 0 11 53 24 78 16 29 14 32 -17 32 -20 0 -33 -7 -41
-22 l-11 -23 6 23 c5 21 3 22 -55 22 l-61 0 0 -34 c0 -19 -5 -38 -12 -42 -8
-5 -9 5 -5 34 l5 42 -525 0 c-493 0 -524 -1 -522 -17 5 -51 -16 -61 -26 -13
-8 36 -25 40 -25 5z m2575 -5 c-9 -14 8 -13 23 2 9 9 15 9 24 0 10 -10 -4 -29
-67 -90 -85 -82 -77 -65 15 32 30 32 46 54 35 48 -11 -6 -78 -70 -148 -143
-96 -99 -130 -130 -139 -121 -9 9 3 27 48 75 32 35 70 77 84 95 14 18 30 32
35 32 6 0 29 18 50 40 38 39 52 50 40 30z"/>
<path d="M2629 5288 c-25 -7 -39 -17 -46 -36 l-10 -27 -11 27 c-11 26 -14 27
-69 23 -70 -6 -113 -22 -113 -42 0 -12 -3 -13 -14 -4 -11 9 -15 5 -19 -19 -5
-21 -12 -30 -26 -30 -25 0 -50 -45 -44 -80 2 -14 14 -35 27 -47 22 -20 24 -20
40 -5 14 14 18 15 25 3 9 -15 56 -16 136 -6 42 6 99 10 178 13 29 1 46 6 42
12 -3 6 -3 16 1 22 6 9 10 6 14 -10 5 -21 11 -23 105 -27 55 -3 118 -9 140
-15 51 -12 56 -12 53 1 -5 21 23 21 29 0 6 -23 55 -41 111 -41 17 0 32 -4 32
-8 0 -10 62 -33 97 -37 14 -1 28 -7 32 -12 3 -5 38 -22 76 -38 104 -43 239
-124 300 -177 l53 -48 25 33 c23 29 26 30 27 11 0 -12 -7 -27 -15 -34 -19 -16
-19 -30 -1 -30 8 0 16 -3 18 -8 2 -4 23 -23 48 -42 25 -19 57 -47 73 -62 15
-15 31 -28 36 -28 5 0 12 -11 15 -24 6 -25 42 -42 49 -22 2 6 3 2 1 -9 -4 -22
22 -55 42 -55 8 0 23 -19 35 -41 15 -31 24 -38 32 -30 6 6 21 11 32 11 15 0
28 13 43 44 12 24 29 49 37 56 8 7 15 18 15 24 0 6 -11 -1 -24 -16 -13 -16
-26 -28 -30 -28 -12 0 -6 38 9 50 21 18 19 34 -12 84 -36 57 -247 276 -266
276 -8 0 -18 -8 -21 -17 -6 -15 -8 -15 -16 -3 -6 8 -10 25 -10 37 0 13 -11 30
-27 40 -15 10 -34 24 -43 31 -37 32 -123 85 -210 130 -212 110 -279 142 -296
142 -8 0 -31 8 -52 19 -40 20 -59 23 -226 46 -149 20 -188 20 -184 -2 2 -10
-4 -19 -14 -21 -10 -2 -18 2 -18 8 0 29 -30 41 -87 37 -32 -2 -65 -1 -73 3 -8
4 -31 3 -51 -2z"/>
<path d="M1885 5082 c-16 -2 -35 -9 -40 -16 -6 -7 -25 -17 -43 -20 -26 -6 -32
-13 -33 -34 0 -15 -3 -22 -5 -16 -3 7 -17 9 -37 5 -24 -5 -36 -16 -52 -49 -22
-45 -35 -54 -35 -22 0 26 -15 25 -34 -2 -15 -21 -15 -23 4 -30 11 -4 20 -12
20 -18 0 -18 -30 -23 -58 -10 -24 10 -29 9 -47 -12 -11 -13 -37 -32 -58 -43
-65 -34 -140 -113 -147 -154 -4 -27 -10 -36 -25 -36 -11 0 -29 -15 -43 -35
-13 -19 -33 -45 -44 -57 l-21 -22 27 -12 c34 -16 34 -45 1 -52 -20 -3 -25 0
-24 12 4 40 0 45 -21 26 -11 -10 -20 -24 -20 -31 0 -7 -8 -18 -18 -23 -23 -12
-65 -108 -51 -116 5 -4 9 -15 9 -26 0 -16 -3 -18 -19 -9 -25 13 -36 -2 -21
-29 13 -25 13 -31 0 -31 -5 0 -10 7 -10 16 0 25 -26 -1 -35 -34 -3 -14 -15
-46 -26 -69 -11 -24 -18 -47 -15 -52 3 -4 -3 -15 -13 -23 -16 -14 -43 -97 -56
-173 -2 -11 -8 -33 -14 -49 -9 -22 -8 -32 1 -43 10 -12 9 -17 -2 -27 -8 -6
-16 -20 -18 -31 -3 -29 -10 -70 -12 -70 -6 0 -5 -127 1 -131 5 -3 5 -14 -1
-25 -10 -18 -8 -285 3 -351 2 -16 5 -41 6 -57 0 -16 8 -36 16 -44 8 -8 12 -17
9 -20 -7 -7 27 -67 38 -67 4 0 5 -6 3 -13 -3 -7 9 -20 27 -30 40 -21 92 -14
127 17 22 20 23 25 17 101 -8 100 -15 125 -31 125 -7 0 -16 7 -19 16 -5 12 -2
15 12 12 16 -4 18 -1 15 21 -8 57 -12 341 -4 341 4 0 16 55 26 123 9 67 24
142 31 167 8 25 14 57 14 71 0 15 6 32 14 38 8 7 18 25 21 41 7 31 83 192 95
200 4 3 11 16 15 30 4 14 18 37 31 52 33 40 40 69 20 83 -24 18 -19 28 10 21
19 -5 30 -1 45 16 36 42 40 55 24 72 -8 8 -15 19 -15 25 0 18 19 12 30 -9 12
-22 38 -17 36 8 0 8 9 21 21 27 12 6 39 29 61 51 21 21 49 47 61 57 39 31 173
132 190 142 56 34 65 45 64 80 -1 19 3 32 8 29 5 -3 9 -14 9 -25 0 -25 17 -24
60 3 19 12 40 23 46 24 6 1 30 14 52 29 48 32 57 66 28 109 -18 27 -20 28 -27
10 -7 -17 -8 -17 -8 3 -1 15 -12 28 -32 38 -29 15 -32 15 -44 -2 -12 -16 -15
-16 -27 -3 -8 10 -25 14 -43 12z"/>
<path d="M2653 4913 c6 -58 3 -56 -23 15 -14 37 -44 43 -85 16 -14 -9 -32 -14
-40 -10 -9 3 -21 -4 -31 -19 -16 -24 -15 -27 12 -68 16 -23 27 -46 25 -52 -1
-5 0 -7 4 -3 8 8 45 -27 45 -43 0 -6 16 -44 35 -86 19 -41 32 -79 29 -84 -3
-5 0 -9 6 -9 7 0 9 -8 5 -19 -3 -12 0 -21 10 -25 8 -3 15 -1 15 4 0 6 11 10
24 10 18 0 25 -6 28 -22 3 -20 11 -24 64 -30 94 -10 149 -44 225 -138 75 -93
107 -202 76 -257 -6 -12 -38 -72 -70 -135 -32 -62 -65 -120 -72 -128 -8 -9
-16 -31 -17 -50 l-3 -35 95 3 c119 4 130 7 130 37 0 17 6 25 23 27 38 5 20 23
-30 29 l-48 6 45 2 c63 3 79 11 109 56 31 46 132 125 182 143 45 15 245 16
255 1 3 -6 17 -9 31 -6 13 2 21 2 18 -1 -9 -9 28 -43 64 -58 38 -16 91 -10 91
9 0 7 14 25 30 40 17 16 30 36 30 46 0 9 13 30 29 45 35 34 48 72 42 126 0 6
-8 10 -16 10 -13 0 -14 4 -5 20 7 14 7 20 0 20 -5 0 -10 -4 -10 -10 0 -5 -9
-10 -20 -10 -24 0 -26 13 -5 30 21 17 19 27 -10 52 -14 12 -25 30 -25 40 0 11
-7 18 -20 18 -11 0 -20 -5 -20 -11 0 -7 -9 -9 -21 -6 -14 4 -23 -1 -31 -18
-10 -21 -55 -51 -65 -42 -2 3 14 26 37 51 22 26 40 51 40 56 0 5 3 15 6 24 4
10 -21 41 -72 91 l-78 77 -38 -44 -39 -43 23 47 c24 52 19 70 -14 49 -18 -11
-20 -11 -15 1 3 8 2 19 -1 24 -13 17 -71 54 -86 54 -8 0 -19 6 -23 13 -10 17
-63 52 -63 42 0 -4 -6 -2 -14 4 -11 9 -15 6 -20 -14 -6 -25 -20 -33 -30 -16
-4 5 -2 21 3 34 8 21 6 28 -14 41 -13 9 -31 16 -40 16 -9 0 -30 8 -48 17 -38
20 -85 18 -111 -5 -18 -16 -18 -16 -12 14 7 32 8 32 -49 37 -28 2 -30 -1 -40
-45 -15 -68 -27 -71 -19 -5 6 49 4 57 -10 57 -9 0 -16 -6 -16 -14 0 -21 -21
-31 -31 -15 -5 8 -8 21 -6 30 5 18 -49 35 -130 42 -49 4 -51 3 -42 -15 6 -11
8 -22 5 -25 -8 -8 -26 7 -26 21 0 15 -43 26 -103 26 l-40 0 6 -57z"/>
<path d="M2138 4769 c4 -24 1 -29 -16 -29 -12 0 -23 8 -27 19 -6 21 -31 34
-47 25 -6 -4 -8 -24 -4 -48 6 -38 5 -40 -9 -21 -9 11 -18 30 -21 41 l-6 22
-51 -19 c-29 -11 -53 -19 -54 -19 -2 0 -3 -9 -3 -20 0 -15 -7 -20 -25 -20 -14
0 -28 -7 -31 -15 -4 -8 -11 -15 -17 -15 -16 0 -155 -108 -167 -130 -6 -11 -16
-20 -22 -20 -13 0 -68 -61 -68 -76 0 -14 -45 -62 -77 -83 -22 -15 -20 -51 3
-51 8 0 14 -7 14 -16 0 -17 -22 -16 -62 1 -13 5 -20 2 -24 -11 -3 -11 -10 -27
-15 -37 -8 -15 -4 -20 21 -28 41 -15 38 -29 -4 -22 -26 4 -39 0 -56 -17 -12
-12 -19 -28 -16 -36 3 -8 -1 -14 -9 -14 -21 0 -19 -14 5 -35 29 -26 25 -35
-12 -28 -26 5 -30 3 -25 -9 3 -10 -3 -24 -15 -34 -23 -22 -37 -46 -48 -84 -6
-22 -5 -27 7 -26 9 0 18 -5 20 -11 3 -8 -4 -13 -18 -13 -21 0 -22 -1 -4 -20
18 -20 17 -20 -9 -20 -28 0 -31 -4 -40 -57 -5 -30 -2 -35 31 -51 l36 -19 -44
1 -44 1 -10 -65 c-5 -36 -13 -69 -16 -75 -5 -10 -6 -47 -1 -152 2 -42 6 -53
18 -53 38 0 92 -23 87 -36 -7 -19 -29 -18 -37 1 -3 9 -18 15 -36 15 l-31 0 7
-87 c4 -49 8 -90 10 -92 2 -2 36 -4 76 -3 64 0 68 -1 33 -8 -22 -5 -55 -9 -74
-9 -30 -1 -33 -3 -27 -23 4 -13 8 -30 9 -38 1 -8 5 -19 10 -25 4 -5 21 -30 38
-54 l31 -43 81 6 82 5 -42 -16 c-41 -17 -56 -33 -30 -33 6 0 30 -18 52 -40 22
-21 48 -39 58 -40 10 0 15 -4 12 -10 -4 -6 11 -10 39 -10 24 0 66 -9 92 -20
67 -29 141 -31 161 -5 8 11 19 19 24 17 14 -3 11 14 -18 96 -19 56 -27 97 -27
152 -1 70 2 81 43 160 25 47 67 120 93 162 26 43 48 81 48 84 0 4 14 30 32 58
41 67 66 110 99 171 14 28 50 91 79 140 98 167 190 328 190 333 0 3 11 19 24
36 31 42 76 131 76 153 0 10 12 31 28 48 15 16 39 44 54 63 26 32 27 35 12 64
-20 39 -83 108 -99 108 -7 0 -15 7 -19 15 -3 8 -12 12 -19 9 -8 -3 -17 2 -20
10 -4 9 -13 16 -21 16 -7 0 -16 7 -20 15 -3 8 -9 14 -13 14 -4 -1 -16 1 -25 4
-10 4 -26 10 -35 14 -10 3 -20 7 -23 8 -3 1 -13 5 -23 10 -10 4 -20 5 -24 2
-3 -4 -18 0 -32 8 -27 13 -27 13 -23 -16z"/>
<path d="M5315 4603 c-24 -6 -60 -30 -61 -41 -1 -15 -39 -72 -48 -72 -12 0
-66 -51 -66 -61 0 -5 -11 -20 -24 -34 -13 -14 -23 -33 -22 -43 1 -12 -19 -27
-64 -49 -35 -17 -67 -31 -70 -31 -3 1 -18 -4 -34 -11 -32 -13 -57 -15 -102 -8
-23 4 -38 -1 -59 -19 -16 -14 -40 -27 -54 -30 -30 -7 -101 -53 -101 -65 0 -5
12 -4 28 2 15 6 45 14 67 19 22 4 69 16 105 25 35 10 78 18 95 20 16 1 50 5
75 9 42 7 44 6 26 -8 -19 -15 -19 -16 10 -16 24 -1 26 -2 12 -11 -17 -9 -157
-39 -181 -39 -26 1 40 29 68 30 17 0 36 4 43 9 19 12 -94 2 -168 -15 -36 -9
-87 -26 -114 -40 -28 -13 -57 -24 -66 -24 -25 0 -26 -65 0 -83 11 -7 17 -17
14 -20 -4 -4 -1 -20 6 -37 10 -25 18 -30 46 -30 40 0 84 -16 84 -30 0 -11 -5
-13 -55 -26 l-30 -7 30 -7 30 -6 -33 -8 c-46 -11 -54 -38 -46 -162 l7 -103 36
-9 c23 -6 28 -10 15 -11 -26 -1 -50 -26 -34 -36 6 -4 7 -12 1 -24 -15 -27 8
-108 72 -256 78 -179 155 -353 166 -374 7 -12 24 -27 39 -32 26 -10 26 -11 8
-24 -19 -14 -18 -16 7 -72 14 -32 35 -101 46 -153 20 -96 39 -150 54 -150 5 0
6 -4 3 -9 -4 -5 13 -24 36 -42 24 -19 45 -36 48 -40 3 -4 52 -30 110 -59 58
-29 120 -63 138 -77 l32 -24 0 523 0 523 -77 -2 c-82 -1 -77 2 20 12 51 6 57
9 57 30 0 20 -7 25 -52 33 l-53 9 53 8 c34 5 52 12 52 21 0 11 -18 14 -72 14
-51 0 -68 3 -58 10 8 5 41 10 73 10 31 0 57 4 57 10 0 5 -26 10 -57 12 l-58 3
55 10 c46 8 56 14 58 33 3 17 -2 22 -20 23 l-23 0 23 11 c12 6 22 19 22 30 0
15 -9 18 -62 19 -35 0 -57 3 -50 6 6 2 10 9 6 14 -3 5 1 11 8 13 7 2 32 9 56
15 59 17 52 31 -15 31 -69 0 -86 8 -70 31 7 9 22 19 35 23 12 4 22 12 22 18 0
10 -33 8 -80 -4 -8 -2 -5 0 8 6 12 5 22 13 22 17 0 5 27 13 59 20 l60 11 -1
39 c0 32 -4 39 -17 35 -9 -3 -29 -8 -46 -11 l-30 -5 30 14 c17 9 38 15 48 16
16 0 17 25 17 384 l0 384 -27 5 c-69 14 -79 15 -98 10z"/>
<path d="M2695 4410 c-4 -6 -10 -8 -15 -5 -4 3 -11 -6 -14 -20 -6 -25 -29 -34
-41 -16 -7 12 -65 11 -65 -1 0 -4 -7 -8 -15 -8 -20 0 -92 -93 -123 -160 -14
-30 -29 -57 -32 -60 -14 -12 -41 -83 -36 -96 3 -8 0 -14 -7 -14 -17 0 -42 -31
-72 -89 -23 -47 -24 -51 -7 -60 15 -9 15 -10 -5 -11 -13 0 -23 -4 -23 -9 0 -5
-6 -16 -13 -23 -25 -25 -100 -147 -170 -278 -16 -30 -36 -62 -43 -71 -8 -8
-14 -22 -14 -29 0 -8 -8 -23 -19 -34 -10 -12 -37 -55 -59 -96 -22 -41 -52 -95
-66 -120 -31 -54 -32 -71 -8 -93 16 -15 34 -16 125 -10 59 3 107 10 107 15 0
4 7 8 15 8 11 0 15 8 13 28 -2 20 1 26 13 24 22 -3 50 29 31 36 -10 3 -7 8 7
19 34 24 24 33 -36 33 -32 0 -65 5 -73 10 -10 7 12 10 71 10 73 0 88 3 93 18
3 9 18 37 34 62 35 56 49 60 266 60 92 1 200 5 239 10 75 9 97 24 130 89 7 13
29 33 50 44 67 34 59 67 -15 67 -21 0 -71 11 -112 25 -65 22 -92 25 -211 25
-155 0 -159 2 -122 71 68 125 121 218 141 249 13 19 37 58 54 85 17 28 35 55
40 60 4 6 14 26 22 45 8 19 34 70 58 113 36 63 42 80 32 92 -14 17 -115 21
-125 5z"/>
<path d="M2837 4303 c-80 -125 -141 -228 -170 -288 -11 -22 -29 -53 -42 -70
-39 -52 -117 -204 -110 -215 4 -6 54 -10 124 -10 134 0 150 7 186 76 11 22 23
41 26 44 3 3 19 31 34 63 16 31 31 57 35 57 3 0 15 19 25 43 10 23 31 64 47
90 37 63 35 91 -9 177 -32 62 -69 100 -97 100 -3 0 -25 -30 -49 -67z"/>
<path d="M4405 4138 c-36 -22 -45 -23 -45 -3 0 17 -9 19 -30 5 -9 -5 -19 -5
-26 1 -8 6 -13 1 -17 -18 -3 -16 -9 -36 -12 -45 -6 -14 -2 -18 19 -18 26 0 26
-1 12 -22 -19 -27 -20 -48 -4 -83 9 -20 17 -25 34 -21 13 4 26 2 29 -4 4 -6
-6 -10 -24 -10 -33 0 -38 -11 -22 -54 8 -19 15 -23 33 -19 l23 6 -21 -24 c-21
-23 -21 -26 -7 -94 8 -38 21 -75 29 -82 14 -10 13 -12 -2 -21 -28 -16 -29
-144 -2 -200 16 -35 18 -45 7 -58 -10 -12 -9 -19 8 -36 22 -21 43 -18 43 8 0
8 7 14 15 14 8 0 15 -7 15 -15 0 -8 -4 -15 -10 -15 -5 0 -10 -6 -10 -14 0 -7
-10 -17 -22 -21 -14 -4 -18 -8 -10 -12 6 -2 12 -10 12 -18 0 -7 7 -18 15 -25
8 -7 13 -16 10 -20 -7 -11 25 -50 41 -50 8 0 14 -9 14 -20 0 -39 28 -89 59
-105 36 -18 39 -30 11 -38 -19 -5 -19 -7 -6 -45 29 -80 60 -122 92 -122 29 0
38 -14 20 -29 -14 -11 -11 -51 4 -51 4 0 13 -18 20 -40 13 -40 32 -63 73 -86
45 -26 70 -34 88 -29 21 7 25 31 7 38 -10 4 -10 6 0 6 25 2 11 21 -15 21 -35
0 -60 14 -43 25 6 4 24 2 40 -5 16 -7 34 -10 39 -9 17 6 -12 53 -34 57 -33 6
-42 22 -12 22 31 0 33 10 13 48 -14 27 -28 61 -30 73 -1 3 -13 33 -28 65 -61
132 -72 160 -71 173 1 9 -7 11 -28 7 -35 -7 -49 11 -14 20 14 3 25 7 25 9 0 1
-10 22 -23 46 -15 27 -31 44 -43 45 -53 2 -59 6 -28 15 36 10 36 -6 -3 141
-17 63 -20 68 -45 68 -34 0 -36 13 -6 34 25 18 26 30 6 206 -7 67 -16 109 -25
115 -11 8 -12 17 -4 37 10 27 -7 116 -27 141 -5 7 -13 26 -16 42 -4 17 -17 42
-30 56 -13 14 -26 33 -27 41 -3 13 -8 12 -34 -4z"/>
<path d="M3440 3970 c-20 -17 -21 -23 -11 -48 19 -46 56 -83 69 -70 9 9 15 9
23 1 15 -15 1 -36 -18 -29 -8 3 -12 2 -9 -3 10 -15 53 -21 78 -12 23 10 23 10
-4 10 -37 1 -39 31 -2 31 32 0 64 17 64 33 0 7 10 17 23 22 12 6 23 20 25 32
5 34 -42 53 -136 53 -64 0 -83 -4 -102 -20z"/>
<path d="M4093 3938 c-11 -13 -23 -31 -26 -40 -4 -10 -11 -18 -16 -18 -12 0
-71 -59 -71 -71 0 -5 -7 -9 -15 -9 -8 0 -15 -4 -15 -9 0 -5 -8 -12 -18 -15
-24 -8 -40 -41 -46 -93 -4 -33 -1 -43 9 -43 22 0 7 -27 -18 -34 -16 -4 -37
-37 -77 -118 -30 -62 -55 -115 -55 -118 -1 -3 -7 -17 -14 -31 -11 -22 -10 -31
4 -58 21 -42 81 -69 170 -77 38 -3 86 -14 107 -25 20 -10 43 -19 51 -19 7 0
23 -11 35 -25 23 -26 47 -25 69 4 10 14 13 12 22 -13 9 -21 16 -26 29 -21 9 4
26 8 37 9 11 0 23 6 27 11 5 6 8 5 8 -2 0 -7 12 -13 28 -13 19 0 23 3 13 9
-11 7 -10 10 4 12 17 4 17 5 2 20 -9 9 -13 19 -10 23 4 3 -2 13 -13 20 -14 11
-16 18 -8 26 8 8 9 21 3 38 -5 15 -11 44 -14 65 -6 35 -8 37 -42 37 -38 0 -36
15 2 22 27 5 30 32 6 55 -21 19 -26 83 -7 83 5 0 5 23 1 53 -4 28 -10 81 -14
116 l-6 64 -38 11 c-45 13 -39 26 12 27 20 0 31 3 25 5 -6 2 -9 17 -6 32 2 19
-6 42 -30 76 -40 58 -73 69 -105 34z"/>
<path d="M3310 3813 c-29 -3 -38 -10 -47 -33 -7 -18 -7 -32 -2 -36 5 -3 9 -23
9 -44 0 -33 4 -41 23 -45 28 -7 61 -2 79 12 7 6 26 13 42 15 39 4 45 26 9 34
-56 12 -63 16 -63 30 0 16 13 18 58 5 34 -10 42 -2 17 19 -10 9 -32 11 -65 7
-41 -5 -50 -3 -50 9 0 12 8 14 44 9 48 -8 90 1 81 16 -6 9 -63 10 -135 2z"/>
<path d="M2340 3371 c0 -15 67 -148 92 -183 17 -25 24 -27 63 -22 28 3 45 1
45 -6 0 -5 -16 -10 -36 -10 -19 0 -33 -4 -30 -9 3 -5 15 -7 26 -4 11 3 31 -2
44 -11 19 -12 55 -16 150 -18 l126 -2 11 -36 c18 -60 -22 -203 -51 -185 -6 4
-10 -7 -10 -24 0 -24 3 -29 16 -24 15 5 16 -1 12 -53 -3 -32 -7 -66 -9 -74 -2
-8 1 -14 6 -13 6 1 9 -18 7 -45 -2 -29 2 -54 11 -66 13 -18 15 -18 29 12 12
23 13 33 4 43 -8 9 -6 10 11 6 18 -4 27 2 43 28 25 40 25 45 0 45 -11 0 -20 5
-20 11 0 7 11 9 28 6 26 -5 31 -1 62 51 101 172 173 289 185 301 20 21 38 5
24 -22 -7 -12 -15 -24 -18 -27 -4 -3 -33 -52 -65 -110 -33 -58 -71 -125 -85
-150 -14 -25 -28 -49 -31 -55 -3 -5 -18 -30 -34 -55 -17 -25 -45 -74 -64 -110
-18 -36 -43 -82 -55 -103 -20 -36 -20 -38 -3 -73 15 -32 20 -36 46 -30 17 3
32 1 36 -5 10 -17 123 -1 154 21 14 10 32 31 40 47 8 15 34 58 57 96 22 37 44
80 48 94 3 15 19 43 34 62 16 20 39 56 52 80 13 24 29 51 34 60 38 60 114 200
120 221 4 14 14 33 22 42 15 17 33 79 36 127 2 23 -3 25 -78 38 -44 7 -89 20
-102 28 -12 8 -38 15 -57 15 -19 0 -37 4 -40 9 -3 4 -40 11 -83 15 -43 3 -103
11 -133 16 -30 6 -100 15 -155 20 -55 6 -110 15 -123 20 -32 14 -159 13 -168
-1 -4 -8 -9 -7 -15 2 -10 18 -209 27 -209 10z"/>
<path d="M2242 3257 c-29 -44 -52 -86 -52 -93 0 -7 -4 -16 -10 -19 -5 -3 -10
-14 -10 -24 0 -16 6 -18 37 -14 54 7 83 20 90 40 9 24 23 33 56 33 15 0 27 3
27 8 0 11 -61 125 -74 138 -9 8 -25 -9 -64 -69z"/>
<path d="M3591 3110 c-17 -18 -30 -35 -29 -39 2 -18 -3 -31 -13 -31 -11 0 -48
-40 -49 -53 0 -4 -20 -40 -44 -80 -24 -39 -56 -94 -71 -122 -52 -93 -96 -170
-130 -225 -19 -30 -44 -73 -55 -95 -33 -66 -107 -158 -137 -170 -15 -7 -68
-15 -118 -18 -174 -12 -196 -43 -97 -138 76 -73 158 -139 172 -139 7 0 25 -13
40 -30 15 -16 32 -30 37 -30 19 0 47 -40 36 -51 -11 -11 5 -59 20 -59 4 0 7
-7 7 -15 0 -8 4 -15 9 -15 5 0 16 -35 26 -77 17 -80 52 -163 69 -163 5 0 17
-6 25 -13 9 -8 68 -31 131 -51 63 -21 121 -43 129 -49 7 -6 30 -12 50 -13 20
-1 59 -7 86 -14 67 -16 177 -24 219 -16 33 6 34 8 29 41 -3 21 -1 35 4 35 16
0 38 -31 38 -54 0 -14 7 -22 23 -24 27 -4 55 16 48 34 -6 15 22 34 40 27 24
-8 22 28 -4 79 -19 36 -34 54 -51 58 -29 7 -39 28 -17 36 11 4 28 -7 51 -32
41 -44 52 -41 31 10 -16 40 -12 45 16 19 10 -9 21 -13 25 -10 9 10 -12 52 -49
98 -41 51 -29 61 18 15 45 -43 70 -49 29 -6 -22 23 -25 30 -12 30 8 0 19 -5
23 -12 8 -13 28 65 45 176 l11 68 -38 39 c-44 45 -38 51 12 13 37 -28 43 -20
25 29 -8 20 -6 29 10 43 23 21 24 42 4 64 -14 15 -13 20 9 45 36 42 39 93 8
128 -27 29 -24 35 8 15 16 -11 22 -9 34 7 8 11 12 23 10 27 -2 4 17 22 43 40
60 41 93 76 93 98 0 10 7 23 15 30 8 7 12 16 9 21 -3 5 -2 8 3 7 17 -6 16 8
-2 40 -11 17 -22 32 -26 32 -9 0 -31 64 -28 82 2 15 -10 47 -25 66 -24 29 -49
51 -55 47 -17 -10 -30 15 -33 58 -3 44 -6 49 -30 54 -16 3 -28 9 -28 14 0 5
-16 9 -35 9 -33 0 -93 23 -105 40 -3 4 -27 17 -53 29 -26 12 -50 28 -53 36 -4
10 -29 13 -107 12 -56 -1 -109 2 -116 7 -8 5 -41 11 -72 14 -54 3 -59 1 -88
-28z"/>
<path d="M1837 3053 c-17 -16 -5 -60 24 -90 16 -18 32 -33 33 -33 2 0 25 18
52 40 26 22 50 37 52 35 3 -2 -14 -26 -36 -53 l-41 -49 32 0 c19 0 51 12 80
30 54 35 70 70 41 92 -15 11 -16 15 -4 16 8 1 -3 5 -25 10 -49 10 -199 12
-208 2z"/>
<path d="M2478 2988 c-19 -24 -59 -74 -88 -113 -30 -38 -57 -72 -62 -73 -5 -2
-14 -10 -21 -17 -15 -15 -100 -55 -117 -55 -6 0 -68 -19 -138 -42 -70 -23
-129 -42 -132 -43 -60 -13 -80 -21 -107 -41 -17 -13 -43 -24 -57 -24 -23 0
-80 -20 -116 -41 -8 -5 -29 -16 -46 -25 -40 -21 -68 -67 -60 -100 4 -13 11
-24 16 -24 6 0 10 -5 10 -11 0 -6 12 -23 28 -39 60 -61 129 -144 160 -193 18
-29 38 -56 45 -62 20 -15 83 -132 110 -206 14 -36 31 -76 38 -87 l13 -21 27
25 27 26 -15 -43 c-8 -24 -19 -49 -23 -55 -5 -5 -7 -21 -5 -35 2 -13 9 -52 14
-87 5 -34 17 -72 25 -84 20 -28 21 -82 1 -101 -8 -8 -12 -17 -10 -19 3 -2 5
-27 6 -54 2 -56 13 -84 34 -84 18 0 18 -13 1 -62 l-13 -37 38 2 c22 1 39 5 39
9 0 4 10 8 23 8 12 0 33 9 47 20 14 11 29 20 33 20 12 0 29 20 52 60 16 29 20
59 23 185 4 139 -10 261 -27 251 -3 -2 -5 34 -3 81 3 74 6 86 22 90 11 3 22
13 25 22 3 9 22 35 43 57 20 21 48 59 61 84 13 25 36 57 52 71 37 34 67 165
58 254 -4 42 -1 72 9 100 10 26 15 66 13 113 -2 81 18 148 65 224 15 23 28 55
29 70 1 16 5 31 9 35 3 3 6 15 6 25 0 10 5 18 10 18 6 0 10 13 10 29 0 24 -5
29 -31 35 -17 3 -51 6 -74 6 -38 0 -46 -5 -77 -42z"/>
<path d="M0 2672 l0 -162 26 11 c15 5 29 8 31 5 2 -2 -10 -8 -26 -14 l-31 -11
0 -115 c0 -113 1 -116 23 -117 l22 0 -22 -9 c-20 -8 -23 -16 -23 -69 l0 -60
36 15 c42 17 37 1 -7 -21 -22 -12 -29 -22 -29 -45 0 -28 2 -29 27 -19 18 7 30
6 37 -1 7 -7 6 -10 -2 -11 -7 -1 -16 -3 -22 -4 -5 -1 -17 -3 -25 -4 -12 -1
-15 -17 -15 -81 0 -77 1 -80 19 -70 27 14 39 -7 15 -25 -11 -8 -22 -15 -26
-15 -5 0 -8 -25 -8 -56 l0 -55 28 19 c61 43 75 42 27 -1 -27 -26 -45 -46 -38
-47 6 0 14 4 17 9 3 5 17 11 31 13 25 5 25 5 8 -14 -10 -11 -30 -26 -45 -34
-16 -8 -28 -19 -28 -25 0 -7 11 -4 26 6 37 24 41 11 5 -16 -22 -16 -31 -31
-31 -52 l0 -29 56 40 c30 22 81 64 112 94 31 30 64 58 72 62 8 4 -27 -32 -78
-81 -83 -80 -114 -118 -79 -96 6 4 18 8 25 9 16 3 82 51 99 72 18 21 30 6 15
-18 -16 -26 -15 -30 8 -30 25 0 70 21 70 33 0 5 6 7 13 4 8 -3 27 5 43 19 16
13 35 23 43 24 7 0 34 21 59 46 32 33 41 48 32 54 -8 5 -9 10 -2 14 10 6 9 68
-2 111 -2 11 -5 30 -5 42 -1 15 -6 21 -16 17 -8 -3 -22 1 -30 10 -14 14 -14
16 -1 16 21 0 31 21 15 31 -11 7 -4 18 31 49 25 22 48 40 53 40 4 0 7 5 7 11
0 6 9 24 20 39 l20 29 -21 6 c-21 7 -21 7 -2 27 11 10 27 20 35 22 25 3 88 50
88 64 0 7 14 38 30 68 26 45 28 54 14 54 -11 0 1 18 37 55 30 30 61 55 70 55
20 0 59 36 59 55 0 8 -17 26 -39 40 -21 14 -47 41 -57 60 -14 26 -23 33 -43
31 -14 -1 -31 1 -37 6 -6 4 -35 3 -65 -3 -30 -6 -71 -10 -91 -10 -21 0 -40 -4
-43 -10 -4 -5 -16 -9 -29 -9 -12 0 -27 -5 -34 -12 -9 -9 -15 -9 -24 0 -7 7
-42 12 -88 12 -70 0 -77 2 -103 30 -16 17 -33 30 -38 30 -6 0 -22 9 -37 20
-18 13 -51 23 -95 27 l-67 6 0 -161z"/>
<path d="M4638 2477 c-21 -6 -38 -14 -38 -19 0 -4 -7 -8 -16 -8 -9 0 -27 -9
-41 -20 -16 -12 -41 -20 -66 -20 -31 0 -50 -8 -83 -35 -45 -37 -59 -74 -70
-190 -3 -27 -9 -67 -15 -87 -5 -20 -9 -40 -8 -45 1 -4 0 -15 -4 -23 -3 -8 -8
-53 -12 -100 -9 -115 -9 -111 -1 -147 6 -24 3 -35 -12 -50 -13 -11 -22 -38
-26 -73 -17 -137 -52 -248 -89 -278 -13 -11 -11 -16 12 -40 14 -16 33 -37 41
-48 57 -72 71 -94 62 -94 -6 0 -31 26 -54 58 -24 31 -46 58 -50 60 -5 2 -8 10
-8 18 0 20 -47 17 -95 -6 -22 -11 -50 -19 -62 -20 -14 0 -23 -6 -23 -15 0 -17
-11 -20 -26 -6 -5 6 -63 13 -129 16 -125 6 -158 10 -212 24 -24 7 -33 6 -37
-5 -8 -20 -27 -17 -33 5 -5 21 -99 51 -158 51 -30 0 -35 -3 -35 -25 0 -45 21
-71 93 -113 40 -24 79 -55 88 -71 10 -17 33 -35 53 -42 20 -7 36 -17 36 -21 0
-4 5 -8 10 -8 6 0 30 -9 52 -20 51 -25 48 -25 48 5 0 35 15 31 34 -10 19 -40
22 -41 43 -20 14 14 14 18 0 33 -21 23 -50 92 -39 92 13 0 48 -41 67 -79 9
-19 20 -30 24 -25 3 5 33 9 66 9 95 1 195 15 195 28 0 7 19 13 47 15 26 1 54
9 63 17 9 8 22 15 29 15 6 0 14 6 17 14 3 9 12 12 21 9 13 -5 15 -2 10 16 -4
17 2 25 34 41 21 11 39 23 39 27 0 4 -10 17 -22 30 -12 13 -19 26 -16 29 11
10 48 -16 48 -34 0 -32 18 8 36 81 l17 68 -34 35 c-39 40 -33 55 10 24 l31
-21 0 23 c0 13 -9 29 -21 36 -17 11 -18 16 -8 28 11 14 14 13 22 -2 8 -14 12
-11 23 22 11 33 11 41 -2 55 -13 15 -13 17 1 23 9 3 13 11 10 16 -4 6 -2 17 4
24 6 7 16 44 23 84 12 70 11 71 -13 90 -28 24 -18 42 13 23 17 -10 19 -10 16
1 -3 7 -1 23 3 35 5 12 11 56 14 98 6 74 45 175 67 175 24 0 78 34 78 49 0 11
8 17 23 17 69 1 95 6 115 24 12 11 25 20 30 20 11 0 32 45 32 69 0 10 -7 24
-15 31 -8 7 -13 16 -10 20 2 4 -17 8 -43 8 -29 2 -57 10 -74 22 -30 22 -44 23
-100 7z"/>
<path d="M1255 2393 c-38 -6 -55 -20 -55 -46 0 -31 39 -87 61 -87 14 0 19 -7
19 -29 0 -27 16 -43 45 -45 6 -1 11 -11 11 -24 1 -22 34 -68 62 -85 6 -4 12
-14 12 -21 0 -7 26 -44 58 -82 68 -81 125 -173 141 -229 7 -22 16 -49 21 -60
17 -43 29 -104 35 -192 4 -56 12 -97 20 -103 14 -11 9 -50 -6 -50 -5 0 -6 -6
-3 -14 3 -8 -1 -34 -9 -58 -9 -26 -12 -49 -6 -59 5 -9 4 -20 -2 -26 -6 -6 -13
-42 -16 -81 -5 -69 -4 -71 18 -65 19 5 21 3 15 -13 -5 -10 -11 -38 -13 -61 -3
-24 -9 -43 -13 -43 -4 0 -6 -15 -5 -32 1 -18 -6 -50 -16 -70 -23 -45 -24 -74
-5 -81 18 -7 84 81 92 122 3 16 22 43 40 61 50 47 87 125 85 179 -1 24 4 50
11 58 6 8 14 55 16 104 4 76 2 88 -11 84 -10 -4 -17 2 -22 22 -5 22 -2 32 19
50 23 20 26 29 26 92 0 38 -5 82 -12 98 -17 42 -19 55 -18 92 1 34 -22 120
-41 155 -6 10 -17 35 -24 55 -30 84 -159 261 -191 261 -8 0 -14 8 -14 18 0 11
-15 32 -32 49 -18 16 -50 49 -71 73 l-38 43 -24 -23 -25 -23 0 21 c0 12 4 22
10 22 11 0 1 32 -14 42 -11 8 -79 8 -131 1z"/>
<path d="M974 2322 c3 -5 -4 -10 -17 -10 -42 -2 -59 -9 -70 -28 -6 -10 -14
-22 -20 -25 -5 -4 -12 -22 -16 -40 -5 -27 -13 -36 -39 -44 -17 -5 -32 -14 -32
-21 0 -7 -6 -14 -14 -17 -8 -3 -24 -26 -35 -51 -11 -26 -27 -46 -35 -46 -12 0
-16 -10 -16 -35 0 -31 3 -35 26 -35 14 0 23 -4 19 -10 -11 -17 -16 -108 -7
-114 5 -3 25 5 43 17 19 13 41 27 49 31 16 10 -25 -39 -77 -91 -35 -33 -43
-67 -19 -76 15 -6 11 -47 -4 -47 -4 0 -11 -8 -14 -17 -4 -10 22 13 58 52 36
38 68 66 72 62 7 -7 -36 -57 -137 -160 -50 -51 -63 -58 -115 -69 -42 -8 -67
-19 -88 -39 -23 -23 -37 -29 -72 -29 -25 0 -72 -8 -107 -17 -54 -15 -74 -28
-157 -104 -52 -48 -107 -97 -122 -109 -23 -18 -28 -29 -28 -66 l0 -46 73 63
c39 35 99 88 131 119 56 51 57 52 21 10 -22 -25 -67 -70 -100 -100 -33 -30
-75 -69 -92 -87 l-33 -32 0 -556 0 -555 920 0 920 0 0 75 c0 70 -1 75 -24 81
-17 4 -27 17 -36 47 -19 64 -46 97 -80 97 -16 0 -35 -6 -43 -14 -8 -8 -34 -65
-58 -126 -24 -62 -45 -105 -47 -97 -3 17 55 196 70 214 15 18 0 33 -32 33 -28
0 -33 -8 -98 -140 -37 -77 -71 -138 -74 -135 -6 6 14 95 32 140 16 41 3 25
-36 -43 -46 -79 -42 -61 10 49 25 51 43 96 40 101 -3 4 0 8 5 8 6 0 11 10 10
23 0 15 -2 17 -6 7 -3 -8 -9 -17 -12 -20 -10 -8 -29 -42 -51 -90 -12 -25 -38
-65 -59 -90 -21 -25 -45 -60 -55 -77 -9 -18 -21 -33 -26 -33 -12 0 8 58 32 92
24 35 93 189 73 164 -19 -25 -19 -13 0 23 8 16 21 31 30 34 9 4 15 19 15 39
-1 24 -3 29 -10 18 -5 -9 -10 -22 -12 -30 -2 -8 -17 -28 -34 -45 -16 -16 -47
-58 -67 -91 -45 -75 -64 -93 -73 -70 -5 14 17 61 65 135 15 23 14 23 -6 11
-11 -8 -32 -31 -47 -53 -25 -40 -26 -40 -34 -16 -11 30 -1 70 38 141 35 64
106 149 123 145 13 -2 50 64 40 72 -3 4 -8 0 -11 -8 -2 -8 -28 -37 -57 -65
-29 -28 -54 -58 -57 -66 -3 -8 -8 -12 -11 -9 -8 7 58 114 70 114 4 0 25 22 46
50 20 27 42 50 49 50 19 0 52 73 40 88 -11 13 13 137 29 147 4 3 10 23 14 45
4 22 12 48 17 58 19 36 0 28 -23 -10 -13 -21 -28 -41 -35 -45 -6 -4 -24 -24
-39 -44 -22 -28 -24 -36 -11 -31 11 5 16 3 14 -5 -7 -21 -26 -20 -33 1 -7 24
-1 37 43 85 38 42 83 117 100 165 10 27 10 36 0 42 -10 6 -9 15 6 40 l18 31
-21 -11 c-26 -14 -26 -11 1 47 41 88 34 351 -12 453 -16 37 -19 39 -25 20 -3
-11 -13 -21 -21 -21 -17 0 -17 -1 -3 39 15 43 6 72 -44 133 -23 29 -50 64 -58
78 -9 14 -49 59 -88 99 -40 41 -78 86 -86 100 -19 37 -56 69 -85 73 -19 2 -25
9 -25 27 -1 32 -21 38 -48 13 -33 -30 -65 -44 -72 -32 -3 5 -3 15 0 20 3 6 1
10 -5 10 -24 0 -3 23 30 34 46 15 44 30 -4 34 -22 2 -36 -1 -32 -6z"/>
<path d="M4969 2277 c-31 -18 -71 -42 -90 -54 -19 -13 -43 -23 -54 -23 -11 0
-26 -4 -34 -9 -10 -7 -8 -12 10 -24 31 -22 20 -30 -15 -12 -40 21 -52 19 -25
-5 29 -24 24 -24 -32 -5 -42 15 -44 15 -65 -7 -13 -13 -26 -35 -29 -50 -6 -24
-4 -28 14 -28 12 0 21 -5 21 -11 0 -6 -9 -9 -20 -6 -27 7 -32 -15 -6 -30 20
-12 20 -12 -6 -13 -37 0 -35 -12 8 -60 37 -41 32 -52 -11 -24 -33 21 -34 0 -2
-34 l22 -25 -27 7 c-25 6 -28 3 -37 -31 -5 -21 -12 -72 -16 -113 -3 -41 -10
-91 -15 -110 -28 -106 -41 -202 -29 -216 9 -11 9 -14 -1 -14 -9 0 -7 -7 6 -22
17 -19 17 -21 2 -15 -31 11 -19 -16 27 -63 25 -25 45 -49 45 -55 0 -5 -19 10
-43 33 -67 66 -107 50 -49 -19 l27 -33 -33 24 -34 25 -34 -40 c-19 -22 -32
-46 -29 -52 20 -50 20 -49 -3 -29 -19 17 -22 17 -28 2 -3 -9 -10 -13 -15 -10
-5 3 -9 -2 -9 -11 0 -25 -27 -47 -49 -40 -11 3 -22 1 -26 -5 -3 -5 -21 -10
-38 -10 -60 0 -65 -13 -28 -65 44 -61 35 -67 -13 -9 -37 44 -38 45 -84 38 -26
-3 -51 -10 -55 -14 -12 -10 18 -68 56 -107 17 -18 27 -36 23 -40 -9 -9 -38 25
-80 92 l-28 46 -60 -3 c-55 -3 -59 -4 -53 -26 6 -23 -4 -29 -21 -12 -6 6 -13
0 -21 -19 -9 -25 -5 -41 29 -121 22 -50 36 -95 33 -98 -9 -9 -35 28 -41 58 -3
14 -14 37 -25 50 l-19 25 1 -25 c0 -14 11 -43 24 -65 14 -22 25 -50 25 -62 0
-26 30 -82 71 -134 15 -20 32 -53 38 -75 17 -71 50 -149 71 -166 11 -9 20 -19
20 -23 0 -4 8 -19 19 -33 10 -15 25 -47 33 -72 17 -52 28 -59 154 -95 171 -48
198 -58 221 -82 l24 -23 439 0 440 0 0 320 c0 290 -2 320 -16 320 -18 0 -175
144 -185 170 -4 9 -23 27 -43 40 -37 26 -45 40 -23 41 6 0 2 4 -10 9 -13 5
-23 14 -23 20 0 6 -5 8 -10 5 -6 -4 -9 -1 -8 7 2 7 -3 12 -11 10 -14 -3 -104
63 -134 98 -10 11 -15 26 -11 32 4 7 3 8 -5 4 -6 -4 -14 0 -18 11 -3 10 -13
26 -21 36 -8 9 -13 19 -10 22 2 2 35 -29 73 -70 39 -42 77 -75 87 -75 11 0 47
-28 81 -61 34 -34 56 -58 50 -55 -30 16 -8 -5 65 -64 42 -34 98 -86 124 -114
l47 -51 1 30 c0 26 -11 39 -78 90 -77 59 -174 154 -193 188 -10 18 -9 18 17 1
20 -14 26 -15 22 -4 -6 18 -66 52 -79 44 -5 -3 -8 -1 -7 4 2 5 -8 19 -22 30
-14 11 -23 23 -20 26 8 7 158 -98 210 -148 25 -24 69 -57 98 -74 50 -31 52
-31 52 -10 0 26 -134 153 -220 209 -33 21 -60 41 -60 44 0 10 50 -15 111 -58
35 -25 88 -59 117 -76 l52 -30 0 38 c0 36 -4 42 -49 70 -27 18 -58 34 -70 36
-44 8 -171 89 -159 100 8 8 167 -69 226 -108 l52 -36 0 37 c0 33 -6 41 -50 74
-28 21 -76 52 -108 69 -67 37 -82 48 -82 61 0 5 53 -18 118 -52 64 -33 108
-54 97 -45 -11 9 -18 19 -15 23 3 4 -28 29 -67 55 -103 67 -96 90 9 27 85 -52
110 -62 87 -33 -10 11 -10 14 -1 9 7 -4 12 -1 12 8 0 9 -19 25 -41 37 -54 27
-182 123 -170 127 4 1 44 -15 87 -38 75 -38 77 -39 44 -11 -42 37 -30 40 25 6
22 -13 43 -25 48 -25 4 0 7 25 7 56 0 42 -5 61 -17 71 -17 14 -17 14 0 9 16
-5 18 0 15 41 -3 46 -4 47 -62 77 -43 23 -53 32 -38 34 11 2 37 -4 57 -12 47
-20 45 -21 45 12 -1 24 -10 32 -91 71 -49 24 -88 45 -85 48 2 3 40 -11 84 -31
44 -20 82 -36 86 -36 3 0 6 74 6 163 0 130 -3 171 -16 198 -18 37 -91 109
-111 109 -7 0 -13 4 -13 8 0 5 -48 33 -107 62 -60 30 -110 57 -113 61 -15 22
-58 16 -111 -14z m-159 -1543 c34 -47 78 -100 97 -119 19 -19 32 -39 28 -45
-3 -6 16 -39 44 -74 47 -58 66 -96 41 -81 -6 3 -44 49 -85 100 -41 52 -85 100
-97 106 -23 12 -98 84 -98 95 0 10 25 -10 57 -45 17 -20 46 -45 65 -55 l33
-20 -43 52 c-24 29 -48 54 -52 57 -10 6 -90 122 -90 130 0 20 48 -28 100 -101z"/>
<path d="M2609 2042 c13 -24 -2 -46 -26 -38 -17 6 -19 2 -15 -26 3 -18 16 -53
30 -78 14 -25 30 -54 36 -66 6 -11 16 -19 22 -17 6 2 17 -10 24 -26 14 -34 40
-61 40 -42 0 19 40 13 40 -6 1 -29 36 -63 64 -63 14 0 26 5 26 11 0 6 5 9 11
7 6 -2 9 -6 7 -9 -9 -17 28 -39 66 -39 33 0 43 4 51 23 6 12 17 22 25 22 22 0
30 16 19 36 -5 10 -9 28 -9 41 0 14 -14 36 -35 55 -19 18 -35 37 -35 42 0 5
-25 21 -55 36 -30 14 -55 30 -55 35 0 6 -6 10 -14 10 -18 0 -76 32 -76 43 0 4
-7 7 -15 7 -8 0 -15 6 -15 13 0 17 -62 47 -96 47 -21 0 -23 -3 -15 -18z"/>
<path d="M2459 1781 c9 -6 10 -11 2 -15 -16 -10 -13 -89 4 -112 8 -10 15 -32
15 -49 1 -35 46 -106 76 -119 12 -5 30 -22 40 -38 10 -15 26 -28 35 -28 9 0
19 -6 22 -14 3 -8 30 -22 59 -31 29 -10 58 -20 65 -22 7 -3 24 7 38 23 24 25
25 26 25 6 0 -34 64 -68 160 -86 47 -9 95 -15 108 -14 23 2 29 13 12 23 -5 3
-10 17 -10 31 0 44 -63 135 -111 160 -25 12 -27 12 -34 -9 -6 -21 -7 -20 -21
10 -9 22 -23 35 -41 39 -16 3 -49 14 -75 25 -56 23 -68 24 -68 5 0 -8 -4 -18
-10 -21 -6 -4 -9 3 -7 16 1 16 -17 35 -84 83 -47 33 -96 76 -109 94 -12 17
-29 32 -36 32 -8 0 -14 5 -14 10 0 6 -12 10 -27 10 -20 0 -24 -3 -14 -9z"/>
<path d="M2413 1405 c-8 -8 -13 -42 -13 -81 0 -59 -2 -65 -13 -50 -13 17 -14
17 -30 -8 -9 -14 -31 -39 -47 -56 -17 -17 -28 -35 -26 -39 3 -4 -9 -18 -25
-30 -27 -20 -44 -27 -71 -30 -5 -1 -8 -5 -8 -11 0 -5 -14 -23 -30 -39 -17 -16
-30 -33 -28 -37 4 -17 -14 -74 -22 -69 -22 14 -17 -129 5 -166 13 -20 44 -2
58 34 9 24 27 12 27 -17 0 -18 5 -23 22 -22 14 1 27 -8 34 -22 13 -27 18 -22
29 25 11 51 25 49 26 -4 1 -48 1 -48 11 -15 15 46 28 40 28 -13 0 -71 27 -56
50 28 7 26 17 44 21 40 5 -5 4 -24 -1 -43 -6 -19 -10 -43 -10 -52 0 -22 33
-24 53 -3 12 11 16 12 20 2 2 -8 27 -12 83 -10 139 3 127 -4 122 66 -3 34 -3
52 -1 39 3 -15 10 -22 18 -18 8 3 16 0 19 -7 2 -7 5 15 5 48 1 43 4 56 11 45
7 -11 10 4 11 50 1 64 6 37 31 -195 1 -14 9 -20 25 -20 18 0 23 6 23 26 0 15
3 42 7 60 l7 34 6 -30 6 -30 13 23 c10 18 10 26 0 38 -6 8 -9 17 -6 20 8 8 37
-21 37 -35 0 -6 6 -11 14 -11 8 0 17 -15 21 -37 10 -57 23 -68 80 -68 l50 0
-2 35 c-1 27 1 31 8 17 6 -9 28 -26 50 -37 l39 -20 -4 82 c-3 82 -1 81 22 -13
9 -38 26 -39 30 -3 l4 27 37 -43 38 -44 41 12 c38 12 41 15 48 58 9 65 -1 137
-28 183 -26 46 -63 68 -83 51 -21 -17 -55 5 -55 35 0 19 4 23 18 18 11 -4 10
0 -5 11 -13 9 -36 22 -53 27 -16 6 -30 15 -30 21 0 5 -4 7 -9 3 -6 -3 -28 -1
-50 4 l-40 9 6 -30 c5 -26 3 -29 -13 -26 -14 2 -19 12 -19 33 0 19 -5 29 -13
27 -14 -3 -72 26 -85 43 -4 6 -7 -12 -5 -39 3 -57 -16 -74 -26 -23 -9 48 -62
117 -91 117 -29 0 -33 -15 -28 -124 4 -96 -4 -141 -17 -96 -4 14 -5 50 -2 81
2 31 2 81 -2 111 -6 44 -11 54 -26 55 -11 1 -20 -3 -20 -9 0 -6 -10 -4 -23 5
-21 14 -25 13 -35 -1 -11 -15 -12 -15 -7 3 7 30 -9 47 -46 50 -26 2 -38 10
-53 34 -14 25 -24 31 -40 27 -15 -4 -26 1 -34 14 -14 23 -22 24 -39 5z"/>
<path d="M3493 977 c-4 -6 -8 -65 -9 -132 -2 -66 -7 -135 -11 -154 -13 -52
-51 -75 -132 -79 l-69 -4 -7 -44 c-7 -52 -19 -49 -45 12 -14 31 -25 44 -40 44
-15 0 -20 -7 -20 -26 0 -24 -1 -24 -16 -9 -29 29 -38 2 -15 -46 12 -23 21 -49
21 -56 0 -8 5 -11 11 -8 6 4 8 23 4 49 -4 30 -3 37 4 26 6 -8 11 -28 11 -44 0
-47 21 -93 48 -106 15 -7 91 -11 199 -11 223 0 241 7 262 96 20 91 24 182 10
234 -7 25 -40 87 -73 137 -34 50 -65 99 -71 108 -12 20 -52 29 -62 13z"/>
<path d="M1757 855 c-37 -35 -81 -124 -78 -158 1 -15 -3 -35 -9 -43 -7 -7 -10
-14 -7 -14 7 0 -24 -89 -52 -150 -29 -64 -27 -78 13 -85 56 -11 69 -1 120 100
39 76 47 100 41 122 -4 16 -7 55 -7 88 1 60 1 60 -13 28 -8 -17 -20 -35 -26
-39 -19 -11 0 79 21 97 15 13 39 79 28 79 -2 0 -16 -11 -31 -25z"/>
<path d="M2573 611 c-34 -3 -64 -9 -68 -13 -9 -8 -23 -168 -17 -185 2 -7 20
-13 39 -13 l36 0 -6 60 c-3 33 -1 60 3 60 5 0 10 -26 12 -57 2 -46 7 -59 21
-61 13 -3 17 3 17 25 0 15 5 35 11 43 8 12 9 10 4 -7 -4 -14 -2 -23 4 -23 6 0
11 -7 11 -16 0 -14 2 -14 15 0 8 8 15 28 15 45 0 17 4 31 9 31 5 0 11 11 13
25 3 13 1 22 -3 19 -11 -6 -23 41 -14 55 3 6 2 11 -4 11 -5 0 -15 2 -23 3 -7
2 -41 1 -75 -2z"/>
<path d="M2292 598 c-7 -7 -12 -18 -12 -25 0 -7 -7 -13 -15 -13 -12 0 -15 -15
-15 -75 0 -58 3 -75 14 -75 18 0 46 27 46 45 0 8 5 17 12 21 8 5 9 -3 5 -28
-6 -42 6 -58 44 -58 33 0 45 14 69 81 l18 54 5 -35 c2 -19 4 -1 3 40 -1 63 -4
75 -18 78 -14 3 -18 -4 -18 -30 0 -39 -14 -66 -24 -49 -4 6 -6 26 -4 44 3 29
0 32 -25 35 -15 2 -26 0 -25 -5 1 -4 -4 -30 -11 -56 -16 -55 -28 -47 -32 21
-2 23 -3 42 -4 42 -1 0 -6 -5 -13 -12z"/>
<path d="M2715 557 c5 -29 9 -76 9 -106 2 -106 34 -57 37 54 1 60 17 14 18
-52 1 -52 2 -53 31 -53 29 0 30 2 30 43 0 24 -7 58 -16 76 -10 19 -13 42 -9
60 l6 28 -57 1 -57 0 8 -51z"/>
<path d="M2883 595 c-5 -15 -2 -46 15 -130 6 -29 12 -39 24 -37 9 1 19 -2 22
-7 3 -5 15 -7 26 -4 18 5 20 14 20 75 0 43 4 67 10 63 6 -3 10 -25 10 -48 0
-41 18 -91 21 -57 0 8 0 33 0 55 -1 30 1 36 8 25 6 -8 11 -23 11 -33 0 -10 4
-16 9 -12 11 6 3 70 -11 98 -7 14 -20 17 -63 15 -30 -1 -55 -6 -55 -11 0 -5
-7 -1 -16 7 -19 20 -23 20 -31 1z"/>
<path d="M3798 488 c-6 -13 -22 -44 -35 -69 -48 -94 -89 -109 -333 -116 -168
-5 -187 -7 -207 -26 -15 -13 -23 -16 -23 -8 0 11 -3 11 -17 0 -12 -10 -17 -11
-20 -2 -3 8 -11 5 -24 -8 -23 -23 -25 -85 -4 -113 17 -23 20 -62 4 -71 -14 -9
-18 -4 -35 42 l-15 38 5 -36 c3 -26 0 -38 -14 -46 -15 -10 -19 -5 -35 50 -9
34 -21 71 -25 82 -8 18 -9 18 -10 -5 l-2 -25 -8 25 c-4 15 -7 -18 -6 -80 1
-94 -1 -105 -16 -104 -10 1 -18 -2 -18 -7 0 -13 1377 -12 1385 1 4 6 -8 10
-29 10 -20 0 -36 5 -36 10 0 6 -3 9 -7 8 -5 -1 -26 4 -48 10 -22 7 -58 18 -80
25 -80 23 -140 77 -174 152 -7 17 -19 41 -27 55 -7 14 -26 64 -43 110 -43 116
-75 147 -103 98z"/>
<path d="M2160 304 c-14 -3 -51 -9 -82 -15 -55 -11 -58 -14 -68 -48 -5 -20
-10 -43 -10 -51 0 -8 -11 -51 -25 -95 -14 -44 -25 -83 -25 -87 0 -5 198 -8
439 -8 l439 0 6 58 c3 31 2 93 -2 137 -6 71 -9 80 -28 83 -19 3 -23 -3 -29
-47 -8 -61 -25 -58 -25 3 0 27 -6 48 -15 56 -13 11 -15 2 -15 -71 0 -96 -9
-159 -21 -159 -5 0 -9 35 -9 78 0 111 -9 152 -31 152 -12 0 -21 -10 -25 -27
-3 -16 -8 -35 -11 -43 -7 -17 -6 -19 -18 54 l-6 38 -47 -5 c-52 -6 -72 -25
-72 -71 0 -17 -5 -38 -10 -46 -11 -18 -12 -13 -14 59 l-1 54 -95 -1 c-88 0
-96 -2 -107 -23 l-11 -22 -5 24 c-3 18 -5 16 -6 -11 -1 -19 -6 -44 -11 -55 -7
-15 -9 -10 -9 25 1 78 6 72 -51 64z"/>
</g>
</svg>
