<?xml version="1.0" standalone="no"?>
<!DOCTYPE svg PUBLIC "-//W3C//DTD SVG 20010904//EN"
 "http://www.w3.org/TR/2001/REC-SVG-20010904/DTD/svg10.dtd">
<svg version="1.0" xmlns="http://www.w3.org/2000/svg"
 width="544.000000pt" height="544.000000pt" viewBox="0 0 544.000000 544.000000"
 preserveAspectRatio="xMidYMid meet">
<metadata>
Created by potrace 1.16, written by Peter Selinger 2001-2019
</metadata>
<g transform="translate(0.000000,544.000000) scale(0.100000,-0.100000)"
fill="#000000" stroke="none">
<path d="M0 3458 l0 -1983 35 37 c39 41 133 90 207 108 36 9 48 17 48 32 0 23
29 36 40 17 10 -15 76 -1 215 46 164 56 214 94 215 162 1 16 7 39 15 53 9 15
14 54 15 98 0 40 5 83 11 95 16 31 104 117 120 118 8 0 31 21 52 45 33 36 39
51 40 91 1 41 -5 58 -42 113 -23 36 -58 98 -77 137 -19 40 -39 75 -45 78 -5 4
-7 10 -4 15 3 5 -5 14 -17 21 -30 16 -144 37 -157 29 -15 -9 -186 7 -207 19
-11 6 -52 14 -92 19 -56 7 -75 5 -83 -5 -13 -15 -49 -18 -49 -3 0 6 7 13 15
16 25 10 17 24 -14 24 -49 0 -91 12 -91 26 0 22 30 32 126 43 90 10 167 2 189
-20 5 -5 62 -9 127 -9 111 0 121 2 158 26 l39 26 -5 82 c-3 44 -9 104 -14 131
-5 28 -11 120 -13 205 -7 304 50 595 172 885 26 61 104 216 111 220 5 3 33 42
63 88 67 100 211 253 332 355 50 41 95 82 102 90 6 8 33 24 60 37 26 12 54 29
62 38 7 10 19 17 26 17 8 0 15 4 17 8 2 5 82 47 178 94 194 96 194 96 204 201
l6 57 -345 0 -345 0 0 -22 -1 -23 -18 23 -19 22 -681 0 -681 0 0 -1982z"/>
<path d="M2280 5433 c1 -14 25 -39 50 -54 20 -11 86 -14 330 -14 283 0 313 -2
410 -24 261 -58 360 -91 542 -181 152 -76 256 -140 330 -204 26 -23 77 -66
114 -96 57 -47 143 -137 244 -256 31 -35 96 -132 133 -196 50 -86 95 -100 164
-49 49 36 127 52 228 45 50 -3 107 -12 128 -20 52 -19 109 -18 208 7 72 18 89
27 120 60 35 38 36 39 13 39 -33 0 -30 18 4 26 56 12 64 16 102 54 l40 39 0
416 0 415 -1580 0 c-869 0 -1580 -3 -1580 -7z"/>
<path d="M2502 5273 c-91 -19 -98 -30 -86 -134 l9 -74 205 -1 c259 -1 296 -5
510 -56 114 -26 294 -97 380 -149 8 -5 35 -20 60 -35 85 -48 117 -69 176 -114
79 -60 325 -300 318 -311 -3 -5 -1 -9 5 -9 6 0 18 -15 27 -32 17 -33 76 -93
132 -135 21 -16 44 -23 77 -23 44 0 47 2 61 36 14 34 14 40 -7 92 -27 66 -104
183 -188 286 -67 82 -246 255 -303 294 -21 13 -38 29 -38 33 0 5 -7 9 -15 9
-9 0 -46 20 -83 44 -226 146 -469 239 -732 280 -134 21 -404 20 -508 -1z"/>
<path d="M2030 5150 c-8 -5 -27 -10 -42 -10 -16 0 -28 -4 -28 -10 0 -5 -7 -10
-15 -10 -14 0 -100 -43 -210 -106 -48 -27 -184 -120 -195 -133 -3 -3 -34 -31
-69 -61 -112 -95 -208 -199 -256 -275 -24 -38 -87 -118 -100 -127 -5 -4 -6 -8
-1 -8 5 0 2 -8 -7 -17 -26 -30 -144 -283 -175 -378 -37 -112 -69 -269 -82
-400 -12 -127 -13 -373 -1 -411 5 -16 15 -55 22 -87 7 -32 16 -60 20 -62 4 -3
5 -14 2 -25 -4 -13 1 -22 13 -26 11 -3 35 -12 55 -21 32 -13 40 -13 73 1 26
11 36 21 33 31 -4 8 -3 16 1 19 4 2 4 54 1 115 -5 96 -8 114 -27 134 -27 29
-27 33 -2 40 14 3 20 14 20 31 0 23 -3 26 -25 20 -19 -5 -25 -2 -25 9 0 9 10
17 23 19 24 3 24 1 14 127 -4 56 -2 64 14 68 11 3 19 13 19 23 0 10 11 76 25
147 14 70 28 146 31 168 2 22 20 72 39 111 20 40 32 79 29 88 -3 9 -1 16 5 16
6 0 11 6 11 13 0 8 9 22 20 32 14 13 17 22 10 29 -29 29 12 81 55 70 30 -7 32
5 5 36 -24 28 -12 50 29 50 34 0 39 4 93 75 45 59 227 236 251 244 7 2 37 26
68 53 30 26 61 48 68 48 13 0 29 12 70 53 16 15 35 27 44 27 16 0 48 11 95 33
13 6 32 28 43 49 11 21 23 38 28 38 10 0 41 84 41 111 0 37 -73 63 -110 39z"/>
<path d="M2732 4942 c-15 -10 -5 -131 12 -133 27 -3 43 5 64 32 26 32 51 38
53 12 3 -52 -2 -312 -6 -334 -5 -22 -2 -27 19 -31 22 -4 25 -1 28 26 2 19 9
31 18 31 9 0 17 12 20 29 3 16 11 31 18 34 18 6 16 -76 -4 -95 -20 -20 -14
-57 10 -61 16 -4 18 0 13 28 -7 33 6 70 24 70 13 0 1 -109 -13 -127 -7 -9 -2
-24 18 -50 15 -21 32 -41 37 -44 5 -3 8 -9 7 -13 -3 -11 22 -66 30 -66 10 0
23 -39 21 -62 -1 -9 3 -19 9 -23 6 -4 10 4 10 19 0 16 7 27 20 31 11 3 20 12
20 19 0 8 7 19 15 26 12 10 15 10 15 -3 0 -21 -39 -87 -52 -87 -6 0 -6 -6 2
-15 14 -17 4 -39 -16 -31 -12 5 -85 -109 -134 -209 -8 -16 -22 -38 -31 -48
-26 -28 -44 -108 -27 -118 17 -11 155 -11 162 0 3 4 18 11 33 14 19 4 32 15
40 36 11 30 11 31 -25 37 -56 9 -61 12 -20 13 61 2 85 16 107 67 12 25 21 52
21 58 0 7 14 30 30 53 22 30 40 43 65 47 19 4 35 11 35 15 0 4 18 16 39 26 22
10 42 24 45 32 3 8 1 11 -4 8 -5 -3 -15 -1 -22 4 -7 6 -24 19 -38 30 -22 17
-23 21 -10 37 14 16 13 17 -7 12 -20 -5 -22 -2 -25 41 -3 47 -19 59 -28 21 -9
-36 -25 -21 -25 23 0 38 -2 42 -25 42 -18 0 -26 -6 -28 -22 -2 -12 -10 -27
-19 -35 -14 -11 -15 -9 -9 20 5 21 4 32 -3 32 -6 0 -11 -4 -11 -10 0 -5 -7
-10 -15 -10 -9 0 -15 9 -15 24 0 14 -4 28 -10 31 -5 3 -10 17 -10 30 0 18 -4
23 -15 19 -18 -7 -20 17 -2 35 6 8 -3 5 -20 -5 -25 -14 -33 -25 -33 -46 0 -15
-5 -30 -12 -34 -7 -5 -4 -10 10 -15 26 -10 30 -47 6 -56 -11 -4 -23 2 -34 18
-17 21 -17 27 -4 58 8 19 12 36 9 39 -3 3 -5 0 -5 -7 0 -7 -4 -9 -10 -6 -5 3
-10 21 -10 39 0 39 19 98 29 92 4 -3 20 22 36 55 47 99 60 88 25 -21 -11 -34
-20 -67 -20 -72 0 -5 9 -6 20 -3 13 4 20 2 21 -7 0 -7 6 8 13 34 25 92 91 155
120 116 10 -14 15 -14 38 -2 17 9 29 10 33 4 10 -16 45 -12 45 6 0 10 6 14 15
11 8 -4 17 -2 20 3 4 6 19 10 36 10 23 0 29 -4 29 -21 0 -14 4 -18 13 -12 6 4
18 8 26 10 7 1 19 7 25 13 13 13 -14 37 -54 47 -14 4 -29 12 -35 20 -13 17
-241 133 -262 133 -9 0 -25 -7 -35 -17 -17 -15 -18 -15 -18 10 0 15 -6 27 -12
28 -7 0 -25 3 -40 5 -25 4 -27 1 -38 -51 -6 -30 -15 -57 -20 -60 -8 -5 -7 19
5 93 4 28 2 34 -23 43 -34 14 -283 23 -300 11z"/>
<path d="M2040 4774 c0 -12 -7 -14 -29 -9 -21 4 -35 0 -57 -18 -16 -13 -35
-26 -42 -28 -8 -3 2 -20 28 -47 22 -24 44 -41 50 -37 5 3 10 2 10 -3 0 -5 9
-12 20 -15 14 -4 18 -10 14 -24 -6 -16 -5 -16 8 2 15 18 17 16 46 -40 17 -33
31 -54 32 -47 0 6 9 12 19 12 11 0 22 3 25 8 5 8 -15 96 -33 147 -6 17 -10 37
-9 45 1 8 0 27 0 43 -2 25 -5 27 -42 27 -30 0 -40 -4 -40 -16z"/>
<path d="M2175 4671 c-11 -19 17 -91 36 -91 14 0 18 -11 22 -52 2 -29 8 -63
12 -75 6 -19 4 -23 -13 -23 -27 0 -57 40 -39 53 9 6 8 7 -3 4 -10 -2 -16 -19
-18 -45 -4 -51 -18 -54 -37 -8 -12 29 -50 54 -63 41 -7 -7 8 -42 28 -65 24
-28 27 -72 5 -64 -14 6 -19 18 -16 37 1 5 -4 7 -11 5 -7 -3 -14 -15 -16 -27
-2 -13 -10 -21 -20 -20 -33 3 -42 -1 -42 -19 0 -9 9 -23 20 -30 23 -14 26 -32
6 -32 -19 0 -78 59 -70 71 3 5 -2 9 -10 9 -20 0 -21 -16 -1 -24 20 -7 21 -76
0 -76 -8 0 -19 9 -25 21 -7 11 -17 18 -24 16 -8 -3 -18 9 -26 29 -11 28 -17
33 -37 28 -14 -4 -34 1 -51 12 -21 14 -24 14 -14 2 7 -9 9 -19 4 -22 -5 -3
-28 15 -52 39 -24 25 -40 45 -36 45 5 0 2 8 -5 17 -10 12 -11 15 -1 9 10 -6
12 1 9 30 -2 21 -10 40 -17 42 -16 6 -80 -27 -80 -41 0 -11 39 -64 66 -91 8
-9 12 -16 7 -16 -4 0 -19 14 -33 30 -14 17 -34 30 -47 30 -63 0 12 -72 114
-110 32 -12 50 -40 38 -59 -3 -5 -17 1 -32 15 -60 55 -50 9 11 -52 23 -23 52
-56 65 -73 l24 -32 -22 -15 c-14 -11 -21 -26 -21 -50 l0 -35 -37 40 c-20 22
-40 38 -44 35 -4 -2 -24 -5 -44 -6 -33 -1 -34 -2 -19 -19 14 -16 15 -23 4 -49
-7 -17 -21 -35 -31 -41 -15 -8 -17 -14 -9 -29 5 -10 10 -21 10 -24 0 -9 -46
11 -89 39 -22 14 -46 25 -53 25 -16 0 27 -40 70 -65 37 -22 41 -35 11 -35 -20
0 -67 28 -97 57 -8 8 -27 20 -43 28 -26 14 -29 14 -29 0 0 -9 11 -20 24 -25
14 -5 38 -23 54 -40 16 -16 38 -30 48 -30 22 0 64 -27 64 -41 0 -17 -31 -9
-63 15 -52 40 -134 47 -95 8 23 -23 -38 -13 -90 14 -28 14 -57 24 -64 21 -8
-3 -4 -8 12 -15 24 -9 24 -10 5 -17 -42 -14 -48 -22 -49 -60 -1 -31 4 -42 22
-51 38 -19 37 -24 -4 -21 -37 2 -38 1 -45 -38 -8 -47 -4 -50 65 -59 58 -6 133
-38 104 -44 -9 -2 -26 2 -38 8 -11 6 -30 8 -42 4 -20 -6 -19 -7 10 -20 40 -17
41 -39 1 -53 -36 -12 -30 -31 10 -31 16 0 35 -7 42 -16 7 -9 22 -20 34 -24 15
-7 10 -9 -25 -11 -42 -2 -43 -2 -12 -8 18 -3 31 -10 30 -16 -3 -11 -26 -11
-100 0 -40 6 -48 5 -48 -9 0 -16 14 -21 95 -30 27 -4 54 -11 60 -17 7 -8 -3
-10 -37 -6 -26 3 -50 2 -53 -4 -4 -5 1 -9 9 -9 21 0 96 -40 96 -51 0 -14 -67
-11 -73 4 -5 13 -100 47 -134 47 -19 0 -19 -4 -11 -56 8 -50 38 -118 38 -87 0
7 7 10 16 6 9 -3 19 -1 23 4 7 11 61 27 61 18 0 -4 -5 -15 -10 -26 -12 -22 -9
-23 43 -8 44 12 87 3 52 -11 -11 -5 -51 -11 -88 -15 -44 -5 -64 -11 -55 -16 7
-5 9 -9 3 -9 -5 0 -4 -5 3 -12 17 -17 161 -12 182 7 15 13 19 13 29 2 9 -11 8
-17 -4 -27 -8 -7 -15 -21 -15 -32 0 -11 -13 -26 -30 -36 -36 -21 -38 -30 -5
-38 28 -7 31 -14 13 -32 -10 -9 -9 -16 4 -28 14 -14 22 -15 49 -5 17 6 36 11
40 11 14 0 10 -27 -6 -40 -23 -19 -18 -27 22 -33 24 -4 48 -1 67 8 55 28 75
13 34 -25 l-22 -20 35 6 c19 4 58 7 87 8 l52 1 0 38 c0 49 -21 115 -39 122 -7
3 -20 0 -27 -6 -17 -14 -34 -3 -34 23 0 16 5 19 25 16 26 -5 28 -3 51 97 9 39
51 123 103 205 23 36 48 81 57 100 9 19 20 43 25 52 12 24 12 25 -13 32 -18 4
-20 8 -10 18 10 10 15 10 22 -2 10 -17 12 -16 34 27 10 19 14 43 10 57 -5 22
-3 24 17 19 20 -5 21 -3 15 20 -6 26 6 37 19 17 11 -18 23 -10 30 20 4 17 12
36 18 43 7 7 18 23 24 34 11 19 10 24 -5 33 -15 10 -14 11 6 7 12 -3 22 -1 22
3 0 5 6 15 13 22 7 7 27 38 44 68 22 42 28 61 22 78 -5 12 -13 22 -18 22 -5 0
-12 18 -16 41 -5 28 -14 43 -28 50 l-22 10 21 -4 c17 -4 20 -1 16 16 -3 14 -1
18 9 15 8 -3 14 -12 14 -21 0 -9 8 -25 17 -36 9 -11 14 -22 11 -24 -3 -3 4 -3
16 0 11 3 18 9 15 14 -3 6 4 26 15 45 12 19 21 44 21 54 0 26 17 34 29 13 8
-14 11 -15 12 -3 2 27 -3 55 -12 64 -11 12 -12 46 -1 46 5 0 17 -18 27 -40 10
-23 22 -37 26 -33 11 11 13 64 4 86 -6 14 -3 17 16 15 16 -2 24 2 24 12 0 9
-9 15 -22 15 -13 0 -22 5 -20 10 1 6 8 9 15 7 17 -4 15 43 -3 61 -7 8 -34 18
-58 21 -41 6 -44 9 -39 32 2 14 0 35 -6 47 -6 12 -13 34 -16 48 -6 30 -46 91
-63 96 -6 2 -14 -1 -18 -6z"/>
<path d="M3675 4559 c1 -23 -5 -55 -16 -77 -11 -20 -19 -50 -19 -66 0 -16 -7
-38 -17 -48 -25 -27 -10 -32 58 -18 51 11 62 11 69 0 7 -11 21 -1 59 40 28 30
51 60 51 67 0 14 -68 83 -83 84 -7 0 -25 9 -42 19 -67 43 -62 43 -60 -1z"/>
<path d="M2878 4325 c-24 -31 -23 -48 1 -40 11 3 22 1 26 -5 4 -6 -4 -10 -19
-10 -17 0 -26 -6 -26 -15 0 -9 -7 -15 -17 -13 -11 2 -19 -7 -24 -26 -11 -40
-5 -46 49 -46 34 0 43 -3 32 -10 -8 -5 -34 -10 -57 -10 -47 0 -58 -16 -18 -26
27 -7 33 -19 13 -27 -8 -3 -6 -6 5 -6 30 -2 19 -20 -14 -23 -30 -3 -32 -5 -33
-46 -1 -27 3 -42 12 -42 20 0 13 -27 -9 -33 -22 -6 -18 -27 6 -27 7 0 17 -9
20 -20 8 -26 22 -25 36 3 6 12 26 38 44 57 18 19 36 46 40 60 4 14 13 32 20
40 8 8 13 17 13 20 0 13 26 60 34 60 5 0 7 4 3 10 -3 5 -13 6 -23 3 -16 -6
-16 -6 1 11 22 23 22 29 -10 90 -24 44 -68 95 -83 95 -3 0 -13 -10 -22 -24z"/>
<path d="M5371 4263 c-29 -29 -63 -55 -75 -57 -146 -28 -260 -31 -493 -10 -85
8 -129 -8 -165 -59 -27 -37 -30 -108 -11 -222 13 -71 37 -280 49 -415 4 -48
16 -99 34 -140 15 -36 31 -76 35 -90 4 -14 37 -90 72 -170 35 -80 68 -154 73
-165 4 -11 22 -52 39 -91 17 -39 31 -77 31 -86 0 -8 3 -18 7 -22 4 -3 8 -12
10 -19 1 -7 10 -37 19 -67 10 -33 16 -93 17 -150 1 -180 -52 -242 -272 -319
-50 -18 -81 -35 -95 -54 -20 -27 -45 -155 -80 -422 -49 -363 -64 -416 -144
-512 -34 -41 -111 -98 -162 -120 -33 -15 -143 -49 -203 -64 -28 -7 -52 -20
-58 -31 -8 -16 -13 -17 -25 -7 -12 10 -12 14 -2 21 8 6 4 7 -12 2 -66 -18 -70
-22 -87 -79 -14 -48 -24 -125 -19 -150 4 -16 8 -43 10 -60 2 -16 7 -38 11 -49
8 -18 7 -18 -19 -1 -39 26 -51 9 -70 -95 -23 -123 -34 -156 -62 -190 -52 -61
-25 -59 -1130 -61 l-1004 -1 -53 29 c-62 35 -87 77 -87 148 0 49 32 251 65
404 31 149 57 360 62 511 5 138 3 164 -16 233 -39 144 -112 260 -251 402 -84
85 -124 121 -137 119 -36 -4 -73 -19 -73 -30 0 -8 -12 -17 -27 -20 -35 -9 -72
-35 -73 -51 0 -7 -4 -13 -9 -13 -5 0 -14 -30 -21 -67 -24 -126 -82 -243 -153
-310 -34 -32 -213 -103 -260 -103 -14 0 -28 -4 -32 -9 -3 -6 -27 -13 -53 -17
-26 -4 -69 -16 -97 -27 -27 -10 -64 -23 -81 -28 -17 -5 -42 -18 -54 -29 -13
-12 -30 -18 -37 -16 -7 3 -13 0 -13 -5 0 -6 -12 -26 -27 -44 -53 -61 -63 -75
-63 -85 0 -6 -4 -10 -9 -10 -5 0 -12 -12 -16 -28 -7 -32 -33 -65 -57 -75 -17
-6 -18 -44 -18 -597 l0 -590 863 0 c658 0 866 3 875 12 9 9 12 9 12 0 0 -9
417 -12 1845 -12 l1845 0 0 1069 c0 846 -3 1070 -12 1074 -10 4 -10 6 0 6 9 1
12 225 12 1086 0 597 -3 1084 -7 1083 -5 -1 -32 -25 -62 -55z"/>
<path d="M2399 4138 c-6 -13 -19 -38 -29 -57 -17 -30 -17 -35 -3 -49 9 -9 18
-11 21 -6 16 22 92 8 92 -17 0 -6 -5 -7 -12 -3 -7 4 -8 3 -4 -4 4 -6 13 -9 21
-6 21 8 27 36 11 52 -12 13 -12 18 4 45 23 37 18 47 -21 47 -17 0 -39 5 -50
10 -16 9 -21 7 -30 -12z"/>
<path d="M3968 4002 c-28 -17 -36 -32 -18 -32 12 0 11 -78 -3 -104 -24 -48
-26 -75 -5 -101 19 -25 19 -25 -1 -25 -11 0 -23 5 -26 10 -12 19 -22 10 -23
-22 -1 -18 -10 -60 -22 -92 -26 -76 -26 -76 10 -76 17 0 30 -4 30 -9 0 -15
-23 -19 -48 -9 -32 11 -39 5 -47 -42 -4 -22 -11 -42 -16 -46 -14 -8 -1 -24 16
-19 52 17 51 16 25 30 -24 14 -23 14 25 16 235 9 253 8 276 -17 12 -13 28 -24
36 -24 22 0 15 -20 -12 -32 -18 -8 -25 -20 -26 -40 -1 -15 -2 -34 -3 -40 0 -7
-17 -15 -36 -18 -50 -7 -53 -35 -4 -44 51 -10 31 -24 -41 -28 -49 -2 -64 1
-80 17 -26 26 -27 42 -4 59 18 13 19 15 4 30 -20 19 -15 19 -58 1 -44 -18 -60
-19 -54 -2 2 6 14 11 26 9 18 -3 22 1 19 15 -2 10 -11 18 -21 17 -9 0 -45 -1
-80 -2 -59 -2 -65 -4 -78 -29 -8 -16 -24 -39 -37 -53 -30 -33 -60 -92 -55
-107 3 -8 -3 -13 -15 -13 -25 0 -46 -44 -32 -70 14 -27 13 -32 -12 -28 -17 2
-28 -9 -54 -52 -18 -30 -36 -68 -40 -84 -3 -17 -15 -37 -25 -45 -37 -32 -209
-361 -189 -361 5 0 10 6 13 13 4 9 7 9 18 -1 19 -18 -13 -51 -34 -34 -11 9
-17 7 -27 -13 -7 -14 -17 -25 -22 -25 -4 0 -26 -29 -48 -64 -39 -61 -82 -107
-126 -132 -15 -9 -16 -14 -7 -25 8 -10 9 -20 2 -29 -8 -13 -10 -13 -19 0 -5 8
-8 21 -5 28 7 18 -95 15 -120 -3 -22 -18 -25 -84 -3 -111 35 -43 65 -71 80
-77 11 -4 15 -13 11 -26 -3 -12 -1 -21 4 -21 16 0 83 -62 77 -71 -3 -5 0 -9 5
-9 6 0 11 -7 11 -15 0 -18 3 -22 58 -85 28 -31 46 -66 61 -116 20 -67 65 -144
100 -171 27 -21 95 -51 126 -56 17 -3 50 -12 75 -21 50 -18 68 -24 120 -36 19
-4 55 -14 80 -23 65 -22 199 -30 276 -16 49 8 75 19 100 41 41 36 42 49 8 112
-30 57 -26 69 9 26 14 -16 28 -30 31 -30 9 0 -14 63 -30 81 -27 30 -9 33 22 4
25 -23 29 -25 32 -10 2 10 -10 37 -27 61 -34 49 -32 54 7 23 l27 -21 12 94 c7
51 15 123 19 159 l6 66 -58 45 c-56 43 -96 68 -108 68 -15 0 -4 -49 14 -65 25
-22 25 -34 0 -64 -14 -16 -27 -22 -42 -18 -14 4 -27 -1 -39 -15 -19 -21 -38
-23 -101 -12 -36 6 -52 -6 -28 -21 18 -11 11 -27 -10 -22 -23 6 -26 -3 -7 -22
10 -10 3 -11 -35 -6 -40 6 -48 5 -48 -8 0 -9 5 -19 10 -22 6 -3 10 -16 10 -27
0 -18 -5 -20 -40 -15 -24 3 -41 1 -44 -7 -3 -6 -14 0 -28 17 -32 36 -39 34
-36 -10 4 -54 -23 -56 -58 -3 -15 22 -32 39 -38 37 -6 -2 -15 -20 -19 -40 -16
-65 -41 -38 -53 54 -7 59 -41 139 -59 139 -7 0 -9 -13 -7 -34 4 -30 -11 -56
-25 -43 -16 17 -21 85 -8 124 12 34 12 48 3 69 -10 20 -9 27 2 34 19 12 28 4
38 -33 5 -18 13 -32 20 -32 21 0 31 -20 34 -70 3 -58 18 -65 31 -16 6 24 5 36
-3 41 -15 9 -10 42 7 47 6 2 19 -10 28 -26 8 -17 20 -31 25 -31 20 0 19 21 -1
75 -24 64 -18 83 14 44 22 -27 66 -45 68 -28 1 5 2 14 3 19 0 6 7 15 15 19 8
5 9 11 3 14 -5 4 -9 24 -9 45 0 30 4 38 19 39 13 1 20 -7 24 -27 7 -31 46 -74
63 -69 12 4 -26 84 -65 136 -33 44 -30 53 6 18 17 -16 30 -34 30 -40 0 -7 9
-20 20 -30 11 -10 20 -13 20 -7 0 7 -9 21 -20 32 -23 23 -25 48 -8 85 14 30
22 31 48 5 11 -11 32 -20 47 -20 21 0 24 3 15 12 -19 19 -14 30 8 18 28 -15
25 -1 -7 33 l-28 29 28 -7 c34 -9 38 15 5 38 -19 12 -21 18 -11 28 11 10 18 9
40 -7 16 -12 44 -24 64 -28 20 -3 47 -18 60 -32 13 -14 47 -42 74 -62 28 -20
57 -43 67 -53 17 -17 17 -18 -20 -77 -10 -18 -9 -23 8 -35 27 -19 41 -59 24
-72 -16 -12 -10 -22 38 -58 50 -37 66 -34 34 7 -31 41 -32 46 -7 39 16 -4 20
2 26 39 4 23 13 65 21 92 21 73 18 103 -10 121 -13 9 -27 23 -30 31 -4 12 3
10 30 -7 35 -21 37 -21 47 -3 22 39 73 73 182 124 139 64 139 65 94 201 -29
88 -35 99 -63 110 l-31 11 25 7 24 7 -22 16 c-14 9 -19 17 -12 20 8 2 -6 43
-40 118 -74 164 -103 224 -111 230 -3 3 -9 21 -12 40 -15 98 -19 105 -67 111
-34 4 -37 6 -15 8 57 3 58 7 46 127 -21 197 -32 254 -53 269 -19 13 -19 13 2
20 18 6 19 9 7 18 -7 7 -19 30 -25 52 -13 45 -65 105 -91 105 -9 0 -36 -9 -60
-20 -59 -27 -61 -25 -11 11 l42 31 -27 14 c-34 18 -53 17 -87 -4z"/>
<path d="M2298 3957 c-16 -29 -28 -58 -28 -64 0 -13 194 -23 214 -11 6 4 -19
8 -56 8 -37 0 -70 5 -73 11 -5 7 11 9 47 8 59 -2 98 15 98 44 0 21 -24 18 -26
-4 -1 -8 -2 -18 -3 -24 -1 -5 -10 4 -20 21 -11 18 -34 39 -51 48 l-32 16 4
-30 c3 -20 0 -30 -8 -30 -7 0 -14 12 -16 27 -5 43 -21 37 -50 -20z"/>
<path d="M4357 3957 c-27 -21 -29 -26 -25 -82 3 -33 11 -106 19 -162 13 -101
13 -101 44 -107 22 -5 26 -9 16 -15 -8 -5 -20 -7 -28 -4 -10 4 -13 -8 -15 -48
-2 -76 3 -141 12 -159 4 -8 10 -28 13 -45 3 -16 19 -64 37 -105 18 -41 43
-102 57 -135 33 -81 53 -128 117 -277 102 -234 106 -273 38 -325 -44 -33 -110
-65 -172 -84 -27 -8 -61 -29 -86 -54 -40 -39 -42 -43 -49 -120 -4 -44 -11 -84
-15 -90 -4 -5 -8 -17 -9 -25 -10 -105 -29 -243 -66 -497 -27 -188 -65 -249
-182 -293 -71 -27 -218 -32 -363 -12 -52 7 -123 16 -157 19 -35 3 -63 10 -63
14 0 5 -22 9 -50 9 -83 0 -75 -12 131 -200 112 -102 139 -130 155 -163 19 -36
39 -34 66 8 34 52 83 68 248 82 121 10 263 75 328 149 80 91 92 141 147 619
14 128 38 253 56 296 15 38 55 63 155 99 96 33 159 67 185 96 34 40 49 159 28
239 -5 22 -12 51 -15 65 -5 21 -123 325 -159 405 -87 198 -117 273 -130 317
-7 29 -18 69 -24 88 -5 19 -12 71 -15 115 -14 177 -30 285 -42 285 -19 0 -28
21 -14 30 10 6 9 16 -6 46 -19 38 -20 39 -79 42 -50 2 -65 -1 -88 -21z"/>
<path d="M3306 3868 c-9 -12 -16 -33 -16 -45 0 -13 -5 -23 -10 -23 -6 0 -16
-12 -23 -27 -6 -16 -20 -34 -30 -41 -12 -9 -16 -23 -14 -45 6 -45 49 -137 81
-171 14 -16 26 -33 26 -37 0 -5 9 -9 20 -9 18 0 25 10 21 33 0 4 4 7 9 7 24 0
7 17 -27 27 l-38 10 40 3 c22 2 46 3 53 3 22 -1 7 22 -16 25 -12 2 -22 8 -22
13 0 6 14 7 34 3 33 -6 36 -4 65 48 32 55 32 77 2 107 -28 28 -49 32 -93 16
-32 -11 -46 -11 -62 -2 -20 11 -20 11 9 18 17 4 49 7 73 8 67 2 49 21 -20 21
-60 1 -62 1 -38 15 14 8 37 14 53 15 49 0 27 39 -26 46 -29 3 -39 0 -51 -18z"/>
<path d="M2219 3823 c-74 -100 -103 -162 -93 -195 4 -13 0 -18 -14 -18 -22 0
-31 -10 -55 -62 -14 -33 -15 -39 -2 -52 21 -21 20 -23 -22 -30 -37 -6 -40 -10
-91 -114 -29 -59 -52 -117 -52 -130 0 -13 -4 -20 -10 -17 -6 4 -17 -9 -25 -27
-20 -48 -6 -57 111 -64 117 -8 146 1 142 44 -2 21 1 27 17 27 14 0 20 7 20 21
1 12 6 28 13 36 18 22 5 28 -62 28 -43 0 -57 3 -46 10 8 5 43 10 77 10 51 0
66 4 83 22 11 12 20 24 21 27 0 3 2 13 4 22 2 13 -9 18 -54 22 -31 4 -67 4
-79 0 -12 -3 -22 -1 -22 4 0 15 77 22 133 14 26 -4 47 -5 47 -2 0 3 17 17 38
31 20 14 42 31 47 38 6 7 22 12 35 10 14 -2 25 2 25 7 0 6 -4 9 -10 7 -5 -1
-2 4 8 11 18 15 23 28 10 26 -21 -3 -33 3 -33 17 0 10 7 14 23 13 26 -4 50 9
42 22 -4 5 -20 9 -36 9 -40 0 -33 25 7 26 77 2 78 3 62 22 -46 55 -48 66 -23
115 24 44 24 45 3 39 -15 -3 -19 -1 -16 9 3 8 12 13 21 13 8 -1 17 6 20 16 4
15 -6 18 -77 24 -44 4 -97 9 -116 12 -33 5 -37 2 -71 -43z"/>
<path d="M3523 3646 c-15 -13 -37 -41 -48 -63 -10 -21 -28 -51 -40 -68 -22
-33 -55 -92 -55 -100 0 -3 9 -5 21 -5 32 0 17 -23 -22 -33 -27 -6 -267 -9
-454 -6 -68 2 -232 -13 -257 -22 -42 -17 -104 -108 -110 -162 -5 -44 -4 -46
23 -52 16 -4 43 -4 60 0 22 5 34 3 40 -6 7 -11 10 -9 15 9 7 26 12 27 37 7 30
-22 49 -8 45 34 -3 41 3 43 41 8 24 -21 29 -35 35 -98 3 -41 2 -108 -4 -149
-5 -41 -9 -103 -8 -137 l3 -63 48 0 c44 0 49 2 58 30 6 17 15 30 19 30 4 0 34
44 65 98 96 161 116 192 131 192 22 0 18 -11 -45 -116 -32 -55 -81 -142 -109
-194 -28 -52 -74 -137 -102 -189 -27 -52 -50 -107 -50 -122 0 -19 -5 -29 -15
-29 -16 0 -20 -36 -7 -56 15 -25 80 -42 139 -38 51 3 62 8 91 38 17 19 32 39
32 45 0 6 4 11 9 11 5 0 35 52 67 116 32 64 67 128 79 143 26 31 92 147 170
296 59 113 83 155 147 266 54 94 54 95 17 103 -17 3 -42 6 -55 6 -13 0 -24 4
-24 10 0 5 8 9 18 8 9 -1 40 0 67 0 48 2 51 4 79 50 16 26 38 57 49 70 11 12
17 22 13 22 -4 0 0 10 8 22 9 12 16 34 16 49 0 15 7 29 16 33 13 5 14 9 4 21
-9 11 -32 15 -91 13 -75 -1 -97 -9 -64 -22 19 -7 19 -32 0 -40 -8 -3 -27 -1
-41 4 -19 8 -24 15 -19 29 9 30 -11 33 -42 7z"/>
<path d="M3079 3656 c-2 -2 -60 -6 -129 -9 -156 -6 -213 -20 -259 -64 -19 -18
-30 -33 -23 -33 20 0 13 -16 -13 -30 -28 -15 -33 -30 -10 -30 18 0 20 -26 3
-33 -35 -12 113 -22 336 -22 186 1 251 4 254 13 2 7 10 12 18 12 8 0 14 5 14
10 0 6 -4 10 -10 10 -5 0 -10 5 -10 11 0 22 -42 100 -71 134 -24 26 -39 35
-63 35 -18 0 -35 -2 -37 -4z"/>
<path d="M1860 3033 c0 -13 -1 -26 -2 -30 -2 -5 8 -9 20 -11 21 -3 23 -8 20
-37 l-4 -34 59 56 c59 56 87 66 48 17 -11 -15 -21 -33 -21 -40 0 -8 -5 -14
-11 -14 -5 0 -8 -4 -5 -8 8 -13 70 -2 83 15 7 9 19 12 32 8 30 -9 37 18 17 63
l-17 37 -109 1 c-108 0 -110 0 -110 -23z"/>
<path d="M2533 2996 c-38 -21 -70 -63 -77 -100 -4 -20 -10 -36 -14 -36 -4 0
-22 -14 -40 -31 -24 -23 -30 -35 -23 -42 19 -19 13 -47 -9 -47 -11 0 -34 -13
-52 -30 -35 -34 -62 -38 -77 -13 -8 16 -17 14 -108 -17 -114 -39 -199 -81
-196 -97 2 -10 -38 -52 -107 -111 -29 -25 -32 -32 -21 -45 7 -9 10 -26 6 -39
l-6 -23 20 23 c19 22 35 17 27 -10 -2 -7 -7 -25 -10 -40 -7 -32 -18 -35 -40
-12 -15 14 -19 13 -47 -6 -16 -12 -33 -20 -36 -16 -8 8 17 37 27 31 9 -6 50
47 50 64 0 19 -18 12 -39 -16 -20 -27 -20 -27 -21 -5 0 12 -5 22 -11 22 -14 0
-79 -67 -79 -81 0 -12 51 -108 70 -129 8 -10 26 -34 40 -55 14 -20 31 -42 38
-50 6 -7 32 -56 57 -107 25 -51 50 -101 55 -110 6 -10 10 -22 10 -27 0 -5 7
-25 15 -45 l15 -36 22 20 c30 27 34 17 11 -23 -18 -30 -20 -43 -12 -130 11
-137 12 -319 1 -412 -5 -44 -19 -161 -32 -260 -13 -99 -21 -192 -17 -206 6
-24 13 -27 74 -34 38 -4 179 -8 315 -10 195 -2 253 0 274 11 33 17 44 18 44 1
0 -16 92 -10 102 7 4 6 9 43 10 81 l2 70 5 -80 6 -80 125 -7 c120 -7 285 -3
416 8 53 5 63 9 73 30 14 32 14 122 -1 165 -18 52 -59 109 -79 109 -30 0 -49
11 -49 30 0 9 -8 24 -17 32 -17 14 -85 48 -97 48 -3 0 -29 11 -58 23 -77 35
-104 44 -193 68 -44 12 -88 24 -97 26 -14 4 -18 -1 -18 -21 0 -14 -5 -26 -11
-26 -5 0 -8 4 -5 9 11 17 -13 61 -33 61 -41 0 -201 103 -266 172 l-64 67 -21
-27 -21 -27 6 51 c6 46 3 58 -39 138 -24 48 -49 93 -55 100 -6 7 -7 17 -3 21
4 5 2 5 -4 2 -18 -10 -37 20 -30 47 3 14 2 27 -3 30 -13 8 -62 -71 -68 -110
-5 -31 -7 -33 -19 -17 -7 10 -14 35 -14 55 0 53 -16 88 -40 88 -13 0 -22 9
-26 28 -3 15 -8 34 -11 42 -9 23 -3 61 15 89 19 30 72 81 84 81 4 0 8 15 8 33
0 33 15 66 24 56 3 -3 1 -20 -4 -38 -8 -28 -7 -31 5 -21 8 6 19 9 25 5 5 -3
10 -1 10 4 0 6 -4 11 -10 11 -5 0 -10 5 -10 12 0 7 7 5 18 -4 19 -18 49 -11
71 16 7 9 20 16 28 16 7 0 16 7 19 15 8 21 24 19 24 -3 0 -17 -32 -52 -49 -52
-9 0 -41 -33 -41 -43 0 -4 7 -7 15 -7 8 0 16 -7 16 -15 1 -8 2 -20 3 -27 0 -6
9 -12 18 -14 14 -2 15 1 6 16 -9 13 -8 26 2 49 15 38 35 42 26 5 -5 -17 -3
-23 4 -19 5 3 10 13 10 21 0 20 22 42 37 37 8 -3 8 -13 -3 -39 l-14 -34 29 0
c16 0 32 6 35 13 3 9 9 7 19 -6 8 -10 24 -19 36 -20 11 -1 23 -7 26 -15 3 -10
10 -10 25 -2 14 8 20 21 20 48 0 20 10 53 22 72 18 30 21 49 20 130 -2 136 -6
157 -41 232 -41 90 -41 134 3 229 19 41 37 88 41 104 4 17 9 37 12 45 13 34
13 54 -2 77 -17 25 -47 29 -82 9z"/>
<path d="M1020 2770 c-16 -16 -18 -25 -10 -45 6 -15 10 -39 10 -55 0 -16 5
-32 10 -35 6 -3 19 -26 30 -51 12 -25 24 -42 29 -40 4 3 6 -6 3 -19 -2 -15 0
-25 7 -25 6 0 11 7 11 15 0 9 9 15 25 15 19 0 25 5 26 23 0 21 1 21 9 2 6 -13
7 -1 5 36 -2 31 -9 66 -16 77 -10 16 -10 24 -1 35 15 17 1 31 -39 41 -15 3
-29 15 -32 26 -7 26 -41 26 -67 0z"/>
<path d="M1312 2292 c-27 -9 5 -118 52 -174 36 -43 131 -168 165 -218 48 -71
85 -154 107 -245 33 -137 29 -386 -11 -590 -14 -71 -30 -158 -34 -192 -5 -34
-14 -84 -20 -110 -27 -120 -51 -252 -51 -282 0 -61 82 -106 117 -63 14 16 14
16 10 -4 -4 -20 1 -21 101 -28 58 -3 233 -6 389 -6 278 0 285 1 290 20 5 19 6
19 18 3 12 -16 54 -17 596 -14 558 2 584 3 610 22 35 25 58 93 75 225 7 57
-14 162 -42 205 -44 70 -64 109 -65 127 0 10 -3 12 -6 5 -3 -8 -12 -4 -26 13
-23 26 -82 40 -93 22 -4 -6 -8 -66 -9 -132 -3 -154 -11 -200 -43 -231 l-25
-25 -346 0 c-813 -1 -1148 -2 -1187 -1 -49 1 -84 30 -84 70 0 16 -7 31 -15 35
-19 7 -20 26 -1 26 15 0 17 9 51 190 32 176 38 229 42 395 2 106 -1 202 -9
255 -12 76 -15 85 -35 88 -13 2 -23 6 -23 10 0 12 14 29 27 33 16 6 -28 140
-74 226 -67 125 -196 279 -260 310 -22 10 -45 13 -67 9 -23 -5 -36 -3 -39 6
-4 10 -6 10 -6 1 -1 -18 -31 -16 -31 1 0 15 -27 25 -48 18z"/>
<path d="M2966 1848 c5 -7 2 -9 -9 -5 -13 5 -14 2 -6 -22 8 -23 6 -35 -10 -62
-33 -54 -23 -99 21 -99 10 0 18 -4 18 -9 0 -15 71 -18 86 -3 8 8 14 34 14 62
0 39 -3 49 -20 53 -11 3 -20 14 -20 24 0 21 -49 73 -69 73 -7 0 -9 -5 -5 -12z"/>
<path d="M2444 1772 c-51 -43 -56 -87 -16 -161 92 -171 215 -242 551 -317 36
-8 69 -18 75 -23 22 -16 115 -21 130 -6 7 8 16 11 20 8 3 -4 6 -3 6 1 0 10
-30 57 -54 84 -11 12 -29 38 -40 58 -16 28 -36 43 -91 66 -38 17 -92 37 -120
45 -27 7 -57 16 -65 18 -8 2 -31 8 -50 13 -19 5 -49 18 -67 28 -39 25 -203
181 -203 194 0 16 -54 11 -76 -8z"/>
</g>
</svg>
