<?xml version="1.0" standalone="no"?>
<!DOCTYPE svg PUBLIC "-//W3C//DTD SVG 20010904//EN"
 "http://www.w3.org/TR/2001/REC-SVG-20010904/DTD/svg10.dtd">
<svg version="1.0" xmlns="http://www.w3.org/2000/svg"
 width="544.000000pt" height="544.000000pt" viewBox="0 0 544.000000 544.000000"
 preserveAspectRatio="xMidYMid meet">
<metadata>
Created by potrace 1.16, written by Peter Selinger 2001-2019
</metadata>
<g transform="translate(0.000000,544.000000) scale(0.100000,-0.100000)"
fill="#000000" stroke="none">
<path d="M0 4165 c0 -701 2 -1275 4 -1275 2 0 23 7 46 15 30 11 84 15 186 15
125 0 148 -3 179 -20 20 -11 42 -20 50 -20 8 0 15 -4 15 -10 0 -11 130 -14
168 -3 13 3 28 17 33 30 8 20 14 24 34 19 17 -4 31 0 45 14 22 22 27 50 8 50
-6 0 -3 6 7 14 17 12 18 18 6 72 -7 32 -17 114 -21 183 -5 69 -14 165 -21 214
-10 64 -10 98 -2 127 8 31 7 42 -3 51 -22 18 -16 39 10 39 21 0 25 6 34 63 10
66 61 264 86 333 10 29 11 45 4 52 -12 12 -1 35 13 26 9 -5 58 90 63 121 1 8
5 17 9 21 8 8 -2 54 -15 71 -5 6 -8 24 -6 40 2 22 9 29 31 31 23 3 26 6 16 18
-15 18 4 44 33 44 11 0 16 5 13 10 -9 15 14 40 35 40 11 0 20 10 24 25 4 15
18 30 33 36 26 10 153 136 153 152 0 4 5 5 10 2 5 -3 10 -2 10 3 0 14 217 197
301 254 38 27 92 60 119 74 28 14 50 30 50 35 0 5 3 8 8 7 4 -1 54 21 112 48
58 28 119 56 136 63 43 17 64 57 51 96 -11 32 -26 47 -39 39 -4 -3 -8 0 -8 6
0 6 14 17 30 24 17 7 27 15 23 19 -3 4 -471 7 -1040 7 l-1033 0 0 -1275z"/>
<path d="M2280 5433 c0 -5 11 -21 24 -38 l24 -30 324 0 c317 0 325 -1 443 -28
197 -45 249 -59 270 -72 11 -6 34 -15 52 -18 50 -10 355 -155 385 -184 14 -14
31 -22 37 -19 6 4 11 4 11 -1 0 -4 17 -19 38 -32 20 -14 54 -41 75 -60 20 -19
37 -32 37 -27 0 8 128 -120 205 -205 75 -83 141 -170 212 -277 36 -54 72 -101
81 -107 32 -19 122 -21 122 -3 0 13 17 28 65 59 93 60 225 101 263 80 11 -6
39 -11 61 -11 22 0 42 -4 45 -9 7 -10 81 -17 269 -26 l117 -5 0 510 0 510
-1580 0 c-869 0 -1580 -3 -1580 -7z"/>
<path d="M2720 5280 c-9 -6 -10 -10 -3 -10 21 0 25 -39 13 -112 -10 -58 -10
-72 1 -79 9 -5 15 -4 17 4 6 23 25 57 33 57 3 0 10 -10 14 -22 6 -21 8 -20 17
12 5 19 14 43 19 52 5 10 9 29 9 43 0 18 5 25 19 25 14 0 17 -6 15 -27 -2 -16
-1 -22 2 -15 5 10 10 10 25 -4 21 -19 24 -56 10 -116 -5 -21 -6 -36 -2 -36 15
5 127 -14 203 -33 153 -39 186 -43 203 -29 8 7 15 19 15 26 0 19 7 18 65 -10
27 -13 79 -28 114 -33 60 -9 65 -8 87 14 28 28 29 36 8 71 -21 37 -131 89
-294 142 -180 58 -219 65 -338 64 -89 0 -112 3 -108 13 4 10 -11 13 -62 13
-37 0 -74 -5 -82 -10z"/>
<path d="M2002 5139 c-23 -4 -55 -14 -70 -22 -15 -8 -38 -20 -52 -26 -110 -50
-184 -111 -133 -111 9 0 13 -3 10 -6 -4 -4 2 -19 13 -34 10 -15 21 -39 24 -55
11 -59 21 -30 16 46 -1 24 2 26 32 24 18 -2 36 -3 40 -4 4 -1 10 -17 14 -36 3
-19 10 -37 14 -40 11 -7 70 15 70 26 0 5 6 9 14 9 8 0 21 9 29 20 8 11 16 17
20 14 5 -6 27 59 27 83 0 6 4 13 8 15 5 2 12 26 15 54 6 50 5 51 -21 51 -15 0
-46 -4 -70 -8z"/>
<path d="M2910 4941 c-23 -6 -25 -12 -22 -52 2 -32 -1 -49 -12 -58 -9 -8 -16
-20 -16 -27 0 -8 -4 -14 -8 -14 -4 0 -8 10 -8 23 -1 67 -5 107 -11 107 -7 0
-34 -53 -70 -135 -12 -28 -13 -26 -10 32 l3 62 -27 -6 c-19 -3 -27 -1 -26 8 3
65 -26 60 -52 -9 -12 -29 -21 -60 -21 -67 0 -8 -7 -11 -20 -8 -15 4 -20 14
-20 39 0 19 -4 34 -9 34 -5 0 -12 8 -14 18 -6 26 1 -26 14 -88 5 -30 13 -64
17 -75 5 -17 7 -16 12 10 7 40 23 34 33 -12 4 -21 9 -45 11 -53 3 -8 5 -20 5
-25 1 -6 12 -23 26 -38 14 -15 23 -27 20 -27 -4 0 3 -13 14 -28 15 -22 38 -34
95 -50 41 -12 81 -22 89 -22 9 0 18 -9 22 -19 3 -11 12 -22 20 -25 8 -3 15
-10 15 -16 0 -9 30 -47 71 -90 24 -25 69 -125 69 -152 0 -47 -40 -152 -65
-170 -7 -5 -7 -8 0 -8 6 0 6 -3 -1 -8 -9 -6 -36 -51 -90 -152 -8 -14 -14 -32
-14 -40 0 -9 -5 -21 -11 -27 -19 -19 20 -31 109 -32 60 -1 89 3 105 14 12 8
17 15 12 15 -5 0 3 13 18 28 21 22 24 31 15 40 -15 15 -33 15 -58 0 -10 -7
-23 -8 -27 -4 -4 5 -2 11 5 13 6 3 12 12 12 21 0 12 3 13 12 4 15 -15 63 -16
89 -2 10 6 35 44 55 85 39 77 91 145 111 145 32 0 113 48 113 68 0 13 49 56
57 49 3 -4 -1 -15 -10 -25 -22 -24 -21 -32 1 -32 9 0 23 9 30 20 7 11 21 20
32 20 11 0 20 5 20 10 0 6 5 10 10 10 20 0 80 45 86 65 3 11 16 31 29 45 13
14 26 36 30 50 7 24 7 24 -12 8 -15 -14 -28 -16 -63 -10 l-44 7 52 45 c57 49
61 57 35 62 -21 4 -50 -18 -110 -82 -35 -36 -43 -41 -43 -25 -1 17 -4 16 -26
-10 -25 -29 -26 -29 -19 -5 13 45 17 90 9 90 -4 0 -16 -7 -26 -17 -26 -23 -22
-3 7 37 14 19 25 37 25 41 0 8 -71 -4 -89 -15 -8 -5 -14 -1 -18 12 -7 27 -33
33 -56 13 -13 -11 -20 -12 -29 -3 -13 13 -16 69 -4 95 7 14 3 17 -18 17 -33 0
-66 -33 -66 -65 0 -14 -5 -25 -10 -25 -19 0 -22 28 -7 52 17 25 20 78 5 78 -5
0 -7 -4 -4 -9 3 -5 -3 -11 -14 -14 -11 -3 -24 -16 -29 -29 -10 -27 -39 -54
-47 -45 -4 3 5 20 20 37 19 23 26 43 26 74 0 28 7 51 22 69 12 15 27 40 34 55
11 27 10 28 -33 44 -44 16 -44 16 -54 -9 -5 -13 -9 -34 -9 -46 0 -12 -4 -37
-10 -55 -6 -23 -6 -39 2 -52 9 -14 6 -29 -17 -73 -16 -31 -30 -55 -31 -54 -1
1 -4 18 -8 37 -4 22 -3 30 3 21 13 -20 24 19 15 54 -4 15 0 44 11 71 14 37 15
50 5 74 -6 16 -9 37 -6 48 5 14 1 21 -11 25 -10 2 -25 8 -35 12 -13 5 -18 -3
-28 -49 -17 -81 -33 -83 -25 -3 l7 65 -31 6 c-65 13 -87 14 -111 7z"/>
<path d="M1575 4891 c-16 -3 -29 -11 -27 -16 2 -10 -1 -11 -33 -14 -8 0 -15
-8 -15 -16 0 -8 -6 -15 -14 -15 -7 0 -43 -30 -80 -66 -49 -48 -65 -71 -61 -84
9 -30 128 -145 144 -142 9 2 35 24 60 48 24 24 47 44 52 44 17 0 21 68 5 92
-9 12 -16 34 -16 48 -1 14 -7 36 -15 50 -18 31 -18 40 -2 40 18 0 67 24 67 33
0 8 -21 8 -65 -2z"/>
<path d="M3893 4845 c-28 -14 -69 -65 -53 -65 8 0 10 -11 6 -34 -4 -21 -2 -37
4 -41 6 -4 8 -15 5 -26 -5 -15 -2 -19 17 -17 24 3 25 -1 13 -42 l-7 -25 22 23
c12 13 27 21 33 18 7 -3 19 -9 29 -12 9 -3 18 -14 21 -25 3 -10 1 -17 -3 -14
-5 3 -14 -4 -20 -15 -13 -24 4 -28 26 -5 9 9 34 15 61 15 45 0 46 0 28 -20
-19 -22 -7 -28 14 -7 10 10 15 9 24 -3 7 -9 20 -14 30 -12 21 4 22 -16 1 -46
-15 -21 -14 -22 15 -22 36 0 38 -7 11 -57 -36 -67 -22 -98 40 -95 34 2 41 0
38 -14 -2 -9 6 -20 19 -25 18 -6 25 -4 33 11 6 11 20 20 30 20 22 0 27 -16 8
-23 -7 -2 -10 -7 -7 -11 3 -3 14 -4 23 0 17 6 22 49 7 58 -4 3 -11 18 -14 33
-3 16 -17 42 -31 58 -14 17 -26 33 -26 36 0 3 -8 16 -17 27 -10 12 -29 37 -43
56 -14 20 -31 36 -38 36 -8 0 -12 5 -10 11 7 22 -174 216 -229 245 -31 16 -42
18 -60 9z"/>
<path d="M2035 4773 c4 -10 10 -27 13 -38 3 -11 13 -31 24 -44 10 -14 18 -40
18 -63 0 -22 4 -37 9 -33 5 3 17 -5 25 -17 17 -24 21 -73 8 -82 -12 -7 -53 51
-55 77 0 12 -9 33 -19 46 -10 13 -23 41 -28 62 -10 37 -40 56 -40 26 0 -30 33
-107 56 -132 27 -29 29 -35 13 -35 -11 0 -74 63 -97 96 -11 17 -11 17 -2 -3
17 -36 13 -55 -10 -48 -14 5 -20 2 -20 -9 0 -9 5 -16 10 -16 6 0 10 -9 10 -21
0 -16 -4 -19 -22 -14 -13 4 -27 11 -32 15 -4 4 -20 5 -35 1 -14 -5 -43 -6 -63
-3 -45 5 -50 -10 -12 -34 19 -13 28 -14 37 -5 6 6 17 11 24 11 17 0 41 -48 41
-84 0 -18 10 -38 27 -55 15 -14 24 -19 19 -11 -7 13 -5 13 9 1 23 -18 21 -41
-3 -41 -14 0 -32 19 -57 60 -21 33 -41 60 -45 60 -4 0 -5 -15 -2 -32 l6 -33
-24 27 c-13 15 -34 42 -47 59 l-25 32 -17 -22 c-20 -25 -37 -26 -67 -6 -16 12
-26 13 -39 6 -46 -27 -46 -27 -8 -65 43 -43 41 -58 -3 -26 -31 23 -52 20 -52
-6 0 -8 -5 -23 -12 -33 -10 -17 -6 -25 26 -61 45 -50 40 -66 -6 -19 -25 25
-34 29 -36 17 -3 -13 -9 -15 -33 -8 -17 5 -29 5 -29 0 0 -5 -8 -7 -17 -4 -10
3 -2 -8 17 -25 19 -17 40 -31 47 -31 7 0 13 -5 13 -11 0 -7 -11 -9 -28 -6 -28
6 -28 5 -27 -39 2 -49 2 -49 -27 -33 -18 9 -20 9 -15 -4 3 -9 1 -17 -6 -20 -7
-2 0 -15 16 -32 14 -16 25 -31 23 -32 -8 -8 -62 20 -93 47 -35 31 -48 36 -58
21 -6 -12 18 -38 44 -46 12 -3 17 -12 14 -23 -4 -17 13 -39 52 -68 19 -13 19
-14 -6 -5 -14 5 -43 21 -64 35 -21 14 -41 26 -45 26 -14 0 -20 -31 -10 -50 8
-15 7 -18 -2 -15 -20 7 -50 -21 -46 -42 2 -10 14 -19 28 -21 33 -5 48 -20 27
-28 -9 -3 -17 -15 -17 -25 0 -13 -7 -19 -22 -19 -19 0 -20 -2 -8 -11 12 -8 8
-10 -15 -6 -24 5 -32 1 -41 -17 -9 -20 -7 -24 20 -36 l31 -14 -38 -3 c-35 -4
-38 -7 -35 -31 3 -23 8 -27 38 -30 55 -5 61 -22 7 -22 -26 0 -47 -3 -47 -8 0
-4 16 -16 35 -26 19 -10 32 -23 29 -27 -8 -14 -19 -11 -44 11 -23 20 -40 19
-40 -4 0 -8 10 -16 22 -19 18 -5 19 -8 8 -21 -7 -9 -19 -16 -27 -16 -28 0 -7
-24 33 -37 l39 -13 -53 5 c-39 3 -52 1 -49 -8 2 -7 16 -13 30 -15 15 -2 25 -8
21 -13 -3 -5 0 -16 6 -24 11 -13 7 -15 -21 -15 -31 0 -32 -1 -13 -15 11 -8 41
-14 72 -15 38 0 52 -4 49 -12 -3 -9 -21 -12 -59 -10 -32 2 -59 -1 -62 -7 -12
-18 17 -50 48 -53 l29 -3 -31 -32 c-16 -18 -25 -33 -19 -34 28 -1 116 2 157 7
39 4 43 3 25 -8 -11 -7 -55 -15 -98 -18 -88 -6 -104 -23 -25 -28 72 -4 81 -18
17 -25 -28 -4 -54 -9 -57 -12 -3 -3 11 -20 31 -39 30 -27 34 -36 24 -45 -8 -6
-17 -8 -20 -4 -4 3 -7 1 -7 -5 0 -7 5 -12 11 -12 5 0 8 -4 5 -9 -7 -11 22 -23
35 -16 4 3 20 -2 34 -11 15 -10 42 -17 60 -16 26 1 33 -2 28 -13 -3 -8 -14
-15 -24 -15 -10 0 -19 -4 -19 -10 0 -6 16 -8 36 -5 30 4 37 1 41 -15 3 -11 9
-20 14 -20 5 0 9 -8 9 -18 0 -10 8 -20 18 -21 53 -6 95 -2 102 9 14 22 32 2
19 -22 -13 -23 1 -38 36 -38 12 0 25 -4 31 -10 14 -14 76 -15 100 -2 22 12 38
74 23 90 -11 10 -41 120 -46 168 -4 32 4 59 37 135 24 52 50 103 59 114 10 11
32 49 50 83 18 35 50 90 72 122 42 63 49 115 17 126 -21 6 -24 44 -5 44 8 0
22 -9 32 -20 25 -27 30 -26 52 18 10 20 56 101 102 180 83 142 87 155 66 206
-7 16 -5 17 14 11 21 -6 22 -5 11 15 -11 21 -11 21 14 5 25 -17 26 -17 38 11
6 16 12 31 13 34 0 3 6 15 13 26 10 18 9 21 -5 20 -10 0 -19 7 -21 17 -3 15 1
18 22 15 21 -2 31 4 50 37 22 36 23 42 10 67 -8 15 -14 29 -14 33 0 12 24 4
36 -12 12 -16 14 -15 15 12 1 17 1 34 0 39 -1 5 2 12 8 15 5 4 7 25 4 49 -4
29 -9 39 -14 30 -7 -10 -9 -10 -9 2 0 13 -2 13 -9 1 -8 -12 -14 -12 -40 -1
-33 13 -41 30 -16 30 29 0 17 22 -39 67 -12 10 -15 9 -18 -10 -2 -14 -11 -23
-25 -25 -19 -3 -21 0 -16 37 4 30 1 46 -13 64 -19 24 -44 26 -44 4 0 -7 -9
-18 -20 -25 -18 -11 -21 -10 -29 11 -5 14 -19 27 -30 30 -12 3 -22 14 -22 26
-3 39 -4 43 -23 57 -27 19 -40 18 -31 -3z"/>
<path d="M2871 4344 c-9 -11 -12 -31 -8 -61 4 -40 3 -44 -14 -40 -13 4 -23 -6
-38 -37 -10 -23 -21 -51 -23 -61 -3 -19 1 -21 43 -24 12 -1 17 -5 13 -12 -3
-6 -1 -15 6 -19 8 -5 -8 -11 -39 -15 -49 -7 -51 -8 -50 -38 1 -57 16 -131 28
-135 6 -2 11 -10 11 -18 0 -17 -1 -17 39 -3 18 7 29 14 24 18 -17 12 -31 48
-23 60 5 9 18 11 37 7 34 -8 60 17 94 89 12 25 25 48 29 50 5 3 4 20 -1 38
-12 43 -12 47 7 47 8 0 13 4 9 10 -3 5 -12 7 -20 3 -17 -6 -20 8 -4 24 8 8 8
13 0 17 -6 4 -11 16 -11 26 0 10 -6 23 -13 27 -7 4 -20 20 -30 36 -19 30 -45
34 -66 11z"/>
<path d="M5330 4303 c-86 -16 -274 -21 -371 -9 -71 9 -66 11 -194 -67 -37 -22
-107 -102 -126 -142 -25 -53 -24 -76 11 -315 17 -113 30 -223 30 -245 0 -60
25 -163 55 -230 14 -33 30 -69 35 -80 4 -11 18 -42 30 -70 13 -27 29 -68 37
-90 7 -22 20 -50 28 -62 8 -12 25 -48 36 -80 12 -32 25 -62 29 -68 24 -33 81
-232 87 -302 6 -83 -13 -185 -43 -231 -19 -28 -107 -86 -166 -108 -127 -47
-150 -58 -159 -76 -12 -22 -60 -281 -83 -448 -42 -296 -65 -384 -122 -461 -75
-103 -205 -176 -371 -209 -124 -25 -136 -28 -142 -36 -3 -5 -13 -9 -21 -9 -8
0 -19 -17 -26 -40 -15 -47 -18 -161 -5 -169 4 -3 11 -19 14 -34 3 -16 20 -42
36 -58 17 -16 31 -36 31 -44 0 -9 5 -21 10 -26 6 -6 13 -23 16 -38 2 -15 12
-47 21 -69 8 -23 17 -54 18 -69 1 -16 4 -29 5 -30 1 -2 4 -15 5 -29 6 -47 46
-119 66 -119 10 0 19 -7 19 -15 0 -8 17 -22 37 -30 21 -9 40 -19 43 -24 3 -4
23 -13 45 -19 63 -17 115 -38 128 -51 18 -18 -10 -32 -53 -25 -39 5 -143 23
-176 30 -65 12 -184 142 -184 201 0 12 -4 25 -10 28 -5 3 -10 17 -10 30 0 13
-4 27 -10 30 -5 3 -10 14 -10 23 0 10 -9 23 -20 30 -11 7 -20 19 -20 27 0 17
-43 37 -62 30 -7 -3 -18 -15 -24 -28 -58 -115 -65 -123 -123 -149 -42 -18 -84
-19 -1063 -18 -837 0 -1024 2 -1051 13 -50 21 -95 72 -102 115 -3 20 -9 49
-14 63 -5 17 -4 32 5 44 7 9 16 43 19 74 4 31 17 110 30 176 72 367 83 460 81
660 -2 149 -4 165 -30 234 -25 67 -110 211 -128 219 -5 2 -8 10 -8 18 0 8 -4
14 -9 14 -5 0 -24 20 -42 45 -19 24 -38 45 -44 45 -5 0 -23 11 -40 24 l-29 23
-27 -19 c-32 -24 -53 -16 -43 15 6 19 5 20 -10 8 -9 -7 -27 -11 -40 -9 -15 3
-27 -2 -35 -14 -9 -15 -15 -16 -32 -8 -15 9 -24 8 -37 -2 -36 -28 -60 -62 -65
-92 -3 -18 -13 -50 -23 -72 -9 -21 -18 -41 -18 -44 -1 -3 -16 -34 -33 -70 -30
-62 -89 -130 -112 -130 -6 0 -11 -4 -11 -10 0 -5 -19 -14 -42 -21 -24 -6 -63
-20 -87 -31 -24 -11 -76 -26 -115 -34 -39 -7 -87 -18 -106 -22 -55 -14 -173
-72 -197 -98 -12 -13 -30 -24 -40 -24 -26 -1 -49 -22 -50 -47 -2 -20 -40 -77
-80 -121 -7 -7 -13 -20 -13 -28 0 -8 -7 -17 -15 -20 -13 -5 -15 -81 -15 -595
l0 -589 2720 0 2720 0 0 2160 c0 2051 -1 2160 -17 2159 -10 -1 -52 -8 -93 -16z"/>
<path d="M2417 4147 c-3 -8 -2 -32 3 -53 10 -44 -1 -64 -24 -45 -20 17 -32 8
-40 -30 -5 -24 -10 -30 -24 -27 -14 4 -24 -4 -36 -26 -9 -17 -17 -35 -17 -41
0 -5 -5 -16 -11 -22 -6 -7 -9 -14 -7 -14 17 -7 231 -4 235 3 3 4 -2 8 -11 8
-9 0 -13 5 -10 10 3 6 19 10 36 10 33 0 39 15 9 23 -25 6 -37 34 -21 50 9 9
13 6 17 -11 8 -30 24 -28 24 2 0 14 5 28 10 31 6 3 10 17 10 30 0 13 4 26 9
29 14 9 0 56 -19 66 -10 5 -42 12 -72 16 -44 5 -56 3 -61 -9z"/>
<path d="M936 4002 c-31 -60 -67 -212 -64 -272 2 -32 6 -56 11 -53 13 8 67
-38 67 -57 0 -10 6 -20 13 -23 18 -6 47 11 47 29 0 12 7 15 30 12 20 -3 30 0
30 9 0 7 -7 13 -15 13 -8 0 -15 5 -15 10 0 6 6 10 14 10 29 0 44 30 51 100 7
69 6 73 -21 102 l-29 31 37 -7 c42 -8 64 11 33 28 -10 6 -32 23 -48 39 -17 15
-37 27 -47 27 -9 0 -25 7 -36 15 -28 21 -42 18 -58 -13z"/>
<path d="M4356 4005 c-21 -21 -28 -70 -21 -130 11 -85 24 -189 24 -202 1 -8
15 -13 36 -13 30 0 35 -3 35 -23 0 -15 -9 -28 -22 -35 -21 -10 -19 -10 9 -5
18 3 40 2 50 -2 17 -7 17 -8 -2 -16 -13 -5 -6 -6 21 -2 23 3 50 0 60 -6 17 -9
18 -10 2 -11 -22 0 -24 -16 -3 -23 24 -10 28 11 26 122 -3 159 -38 303 -77
318 -8 3 -14 11 -14 18 0 27 -99 34 -124 10z"/>
<path d="M3577 3946 c-10 -8 -27 -12 -37 -9 -14 4 -20 0 -20 -10 0 -9 -12 -25
-26 -36 -28 -22 -25 -42 5 -34 21 5 37 -12 21 -22 -18 -11 -11 -61 13 -83 21
-20 34 -22 128 -21 57 0 96 3 87 7 -15 6 -15 9 -2 26 14 20 14 20 15 0 0 -11
3 -14 6 -6 8 21 -6 62 -22 62 -20 0 -29 19 -15 35 10 12 6 21 -18 49 -17 19
-33 32 -36 29 -3 -4 -6 -2 -6 4 0 6 -9 13 -20 16 -11 3 -18 2 -16 -2 3 -4 0
-13 -5 -21 -7 -12 -10 -11 -15 8 -7 25 -12 27 -37 8z"/>
<path d="M3354 3902 c-29 -4 -55 -34 -99 -117 -21 -38 -41 -74 -45 -80 -13
-16 67 -176 103 -207 39 -33 39 -33 53 -3 11 22 10 24 -20 27 -20 2 -32 9 -34
21 -2 9 2 17 8 17 6 0 8 -5 4 -11 -5 -9 4 -10 32 -4 66 12 70 28 9 39 -19 4
-35 12 -35 17 0 6 8 8 18 5 9 -3 32 -6 51 -8 32 -3 36 0 66 57 l32 59 -21 33
c-11 18 -26 33 -33 33 -6 0 -9 9 -6 20 5 17 0 20 -30 20 -39 0 -62 19 -25 21
13 1 26 1 31 0 4 0 7 4 7 9 0 6 -4 10 -10 10 -5 0 -10 5 -10 11 0 18 -24 34
-46 31z"/>
<path d="M4144 3889 c-3 -5 -2 -9 2 -9 19 0 -89 -60 -125 -70 -66 -18 -61 -32
8 -24 53 6 61 4 61 -10 0 -12 -11 -16 -47 -17 -27 -1 -40 -3 -30 -6 9 -2 17
-9 17 -13 0 -13 -58 -42 -70 -35 -5 3 -24 -2 -44 -11 -25 -13 -37 -26 -42 -48
-3 -17 -19 -53 -34 -81 -15 -27 -31 -61 -35 -75 -7 -21 -77 -132 -95 -150 -10
-10 -41 -65 -56 -99 -9 -19 -26 -49 -38 -65 -12 -17 -31 -49 -42 -71 -10 -22
-21 -42 -24 -45 -11 -11 -70 -112 -70 -119 0 -5 -7 -14 -15 -21 -8 -7 -21 -24
-29 -39 -157 -293 -198 -365 -287 -504 -34 -53 -102 -97 -153 -98 -67 -1 -179
-23 -184 -37 -2 -6 3 -12 11 -12 10 0 15 -12 15 -40 1 -35 8 -46 65 -102 64
-64 69 -68 86 -68 5 0 13 -9 16 -20 3 -11 15 -20 25 -20 33 0 50 -12 50 -35 0
-13 7 -25 15 -29 8 -3 27 -30 41 -61 15 -30 30 -55 34 -55 10 0 27 -45 51
-130 14 -53 26 -72 62 -105 24 -22 61 -45 83 -52 211 -63 231 -64 220 -18 -4
14 -2 35 4 46 10 17 14 18 27 7 14 -12 15 -9 9 27 -4 22 -16 57 -27 78 -10 21
-19 48 -19 60 1 17 7 11 25 -23 13 -25 24 -40 25 -33 1 28 56 -8 80 -52 13
-24 26 -42 28 -40 7 6 -48 108 -65 120 -10 8 -14 19 -10 30 6 14 10 15 23 5
11 -10 18 -10 26 -2 9 9 7 17 -9 34 -28 30 -34 71 -11 76 21 4 72 -62 64 -83
-3 -9 -2 -13 4 -10 6 3 10 2 10 -2 0 -5 7 -18 16 -29 8 -10 13 -14 10 -7 -4 6
-2 14 3 17 15 10 23 76 11 92 -7 7 -39 21 -71 30 -32 9 -59 20 -59 25 0 4 -9
10 -19 14 -12 3 -17 12 -15 23 3 9 -6 32 -20 51 -14 19 -23 37 -21 40 8 7 20
-9 53 -69 26 -47 37 -57 71 -67 53 -15 55 2 6 46 -19 17 -35 33 -35 36 0 9 75
-32 89 -49 16 -19 51 -21 51 -3 0 8 -16 30 -37 50 -33 34 -34 37 -14 37 12 0
24 -6 27 -13 2 -7 29 -26 59 -43 32 -17 55 -36 55 -45 0 -14 38 -34 47 -25 2
2 -10 20 -27 41 -29 36 -32 43 -34 74 -1 8 -7 16 -14 19 -7 2 -10 -2 -6 -12 5
-12 -1 -14 -33 -9 -21 3 -42 9 -47 14 -15 14 21 22 43 9 18 -9 21 -8 21 10 0
21 -6 23 -52 20 -20 -1 -28 3 -28 14 0 9 8 16 20 16 16 0 21 9 27 42 3 24 8
37 11 30 2 -6 10 -12 19 -12 22 0 73 -39 73 -56 0 -12 4 -12 20 -4 14 8 32 8
57 1 20 -6 39 -9 41 -6 2 2 -22 31 -53 65 -58 60 -58 68 2 51 22 -6 33 -6 36
2 2 6 11 8 23 3 12 -6 15 -10 7 -13 -18 -7 -16 -33 2 -33 8 0 15 7 15 16 0 15
2 15 25 0 36 -23 42 -20 15 9 -19 20 -20 25 -7 25 9 0 20 -7 25 -16 7 -12 11
-13 17 -4 4 7 -2 25 -15 42 -27 37 -23 42 21 24 33 -14 36 -13 47 5 10 16 10
23 -3 35 -18 18 -20 34 -4 34 7 0 9 9 5 24 -4 15 -1 26 7 30 8 3 4 11 -12 26
-29 25 -21 38 14 22 34 -16 48 -15 42 2 -4 9 3 16 20 20 20 6 23 9 13 21 -9
11 -9 15 -1 15 24 0 9 17 -34 38 -57 28 -59 47 -2 22 84 -37 106 -36 203 11
49 23 92 47 96 53 14 20 8 67 -13 109 -11 23 -22 55 -24 71 -5 34 -21 55 -55
69 -20 8 -22 11 -7 14 23 6 22 20 -4 28 -14 5 -17 10 -10 19 12 14 -14 94 -68
209 -17 38 -31 73 -31 78 0 5 -21 9 -47 10 -56 1 -115 20 -121 39 -4 10 4 12
32 7 20 -3 51 -1 68 5 l31 11 -67 27 c-66 26 -76 40 -27 40 34 0 47 10 47 37
0 15 -8 23 -28 27 -40 8 -35 24 10 29 20 2 2 4 -41 5 -75 2 -78 3 -61 20 17
16 16 17 -14 20 -53 5 -33 32 23 32 30 0 72 19 79 35 3 9 -9 12 -40 10 -55 -2
-57 10 -3 27 23 6 37 14 30 16 -14 5 -14 69 0 74 7 2 11 24 11 53 -2 85 -2 84
-39 78 -41 -7 -42 2 -4 22 31 15 31 25 6 86 -7 19 -52 31 -61 18z"/>
<path d="M2227 3840 c-30 -33 -117 -176 -117 -191 0 -5 6 -9 14 -9 12 0 26
-20 26 -37 0 -2 -12 -2 -27 1 -35 7 -48 -1 -56 -36 -4 -15 -13 -33 -20 -40
-26 -28 -48 -69 -41 -80 4 -7 3 -8 -4 -4 -8 4 -12 0 -12 -12 0 -10 -12 -29
-26 -43 -14 -13 -37 -46 -51 -74 -13 -27 -40 -79 -58 -115 l-33 -65 21 -16
c15 -13 45 -17 125 -18 97 -2 104 -1 109 18 3 12 9 18 14 16 13 -8 59 47 59
71 0 12 7 27 15 34 25 20 7 30 -55 30 -32 0 -62 5 -65 10 -4 6 23 10 74 10
l81 0 22 41 c13 23 29 52 35 64 7 12 28 28 45 35 18 7 43 17 55 22 11 6 25 8
31 4 14 -8 54 40 50 61 -2 12 -12 18 -31 18 -27 0 -32 6 -24 28 3 9 7 9 18 0
11 -9 20 -8 37 1 21 11 22 14 8 25 -9 7 -23 11 -31 7 -8 -3 -25 -1 -37 4 l-23
9 24 0 c19 1 23 5 19 26 -3 14 -2 25 3 25 4 0 9 -10 11 -22 2 -13 6 -22 11
-20 4 1 19 2 35 3 l27 1 -25 8 c-24 8 -23 8 8 9 39 1 44 27 8 41 -34 12 -36
27 -10 80 12 25 24 59 26 75 l3 30 -121 3 -120 3 -27 -31z"/>
<path d="M3563 3672 c-28 -3 -38 -14 -83 -84 -64 -99 -97 -171 -81 -176 18 -6
13 -34 -6 -30 -28 4 -43 -11 -44 -45 l-1 -32 -11 28 c-10 26 -15 28 -47 22
-19 -4 -42 -13 -51 -21 -17 -15 -30 -9 -23 11 8 21 -31 25 -247 25 -270 0
-369 -19 -369 -71 0 -11 -3 -19 -7 -19 -19 -1 -47 -57 -48 -96 -1 -24 1 -43 4
-42 3 1 13 -2 22 -6 8 -4 58 -5 110 -4 l94 3 0 37 c0 48 10 56 36 27 11 -13
18 -19 15 -12 -4 6 -2 14 3 17 15 10 24 -110 16 -240 -4 -68 -11 -124 -17
-124 -5 0 -3 -9 5 -21 8 -11 13 -28 10 -39 -6 -21 0 -25 50 -34 33 -6 38 -4
47 18 5 14 18 30 29 35 11 6 23 21 26 33 4 13 15 32 25 43 10 11 28 40 40 64
36 72 92 151 106 151 19 0 17 -16 -5 -48 -22 -32 -74 -124 -161 -282 -35 -63
-72 -131 -83 -150 -10 -19 -21 -43 -23 -54 -2 -11 -10 -24 -19 -28 -9 -5 -15
-23 -15 -41 0 -18 -4 -37 -10 -43 -5 -5 -11 -25 -12 -43 l-3 -35 77 -14 c74
-13 80 -13 120 7 50 24 106 106 174 251 13 30 33 63 42 73 17 19 53 77 96 158
22 41 23 46 8 56 -15 11 -15 12 4 12 19 1 84 76 84 97 0 9 70 129 112 191 23
35 28 50 23 77 -7 35 10 60 25 37 5 -8 12 -4 23 13 10 14 17 30 17 35 0 6 -28
12 -62 14 l-63 3 66 2 c71 2 84 10 107 66 13 28 13 29 -18 23 -39 -8 -39 1 0
14 21 8 29 17 27 32 -1 14 5 23 23 28 16 4 19 7 8 8 -21 1 -25 31 -4 31 8 0
17 -8 21 -17 6 -15 11 -10 25 22 23 50 24 69 5 85 -12 10 -21 10 -40 2 -14 -7
-25 -8 -25 -3 0 9 -73 10 -147 3z"/>
<path d="M2960 3649 c-19 -4 -38 -5 -43 -2 -5 3 -47 2 -94 -2 -65 -5 -89 -11
-101 -26 -9 -10 -22 -19 -29 -19 -7 0 -13 -6 -13 -14 0 -8 -6 -17 -12 -20 -10
-5 -10 -7 0 -12 21 -10 14 -19 -24 -33 -19 -7 -33 -16 -29 -19 6 -7 10 -8 36
-11 6 0 9 -10 6 -20 -7 -28 14 -31 265 -37 180 -4 231 -2 274 11 29 8 56 20
60 26 9 15 -50 130 -83 160 -25 24 -36 26 -103 26 -41 0 -91 -4 -110 -8z"/>
<path d="M945 3523 c-108 -7 -132 -30 -37 -35 55 -3 56 -4 29 -16 -33 -14 -28
-28 13 -37 49 -11 34 -25 -25 -25 -51 0 -56 -2 -66 -27 -14 -37 -7 -232 9
-242 11 -6 22 -57 25 -108 1 -15 7 -23 20 -23 10 0 15 -4 12 -10 -9 -15 29
-12 62 4 15 8 39 19 53 25 l25 10 -27 0 c-40 1 -43 18 -6 26 18 4 42 14 53 22
18 14 13 15 -55 9 -41 -3 -87 -9 -102 -12 -21 -5 -28 -3 -28 9 0 18 32 26 114
26 54 1 75 10 76 32 0 4 -19 0 -42 -8 -42 -14 -68 -12 -68 7 0 5 12 10 28 11
61 1 91 37 51 62 -23 14 -25 27 -3 27 10 0 14 7 12 22 -3 23 -8 24 -110 42
-60 11 -44 26 26 26 36 0 68 5 71 10 4 6 -21 10 -68 10 -52 0 -78 4 -86 14
-18 22 3 29 65 21 29 -3 63 -3 75 0 19 6 21 12 15 52 -4 29 -14 51 -28 64 -13
10 -25 18 -28 17 -3 -1 -27 -3 -55 -5z"/>
<path d="M4570 3471 c0 -11 -12 -23 -30 -31 -16 -7 -30 -18 -30 -26 0 -7 -11
-25 -25 -38 -21 -21 -24 -29 -15 -46 6 -11 15 -20 20 -20 21 0 9 -27 -16 -39
-24 -11 -26 -16 -22 -54 5 -37 85 -254 138 -372 63 -138 92 -216 97 -256 5
-41 2 -49 -27 -82 -32 -36 -50 -47 -140 -82 -98 -37 -162 -79 -167 -110 -1 -5
-4 -27 -8 -47 -7 -35 -5 -39 25 -55 18 -10 42 -26 54 -35 l21 -17 -23 -1 c-26
0 -56 -25 -47 -39 3 -5 22 -15 43 -22 20 -7 48 -19 61 -28 39 -25 48 -21 61
23 28 97 57 119 220 176 81 28 137 65 157 104 26 50 26 167 -1 261 -25 89 -71
211 -122 325 -116 259 -203 478 -204 513 0 9 -4 17 -10 17 -5 0 -10 -8 -10
-19z"/>
<path d="M1841 3051 c-19 -12 -6 -59 26 -93 l25 -26 34 20 c19 11 38 25 42 32
4 6 15 17 25 25 31 25 18 -6 -23 -54 -22 -25 -40 -48 -40 -50 0 -3 10 -5 23
-5 12 0 43 -3 70 -6 31 -4 47 -2 47 5 0 6 -9 11 -19 11 -32 0 -51 11 -51 30 0
22 18 30 45 19 11 -4 30 -8 42 -8 19 -1 21 3 17 31 -6 51 -29 65 -117 72 -75
6 -78 5 -72 -14 4 -11 2 -20 -4 -20 -6 0 -11 9 -11 20 0 21 -33 28 -59 11z"/>
<path d="M2538 3003 c-16 -3 -38 -19 -54 -41 -16 -20 -31 -38 -36 -40 -4 -2
-5 -9 -2 -17 3 -7 -10 -25 -30 -40 -20 -15 -36 -32 -36 -37 0 -5 -12 -20 -27
-33 -16 -13 -22 -25 -15 -25 17 0 15 -40 -3 -40 -8 0 -15 5 -15 11 0 10 -23 7
-65 -10 -30 -13 -213 -61 -229 -61 -7 0 -19 -7 -26 -15 -7 -8 -21 -15 -32 -15
-11 0 -51 -22 -89 -50 -38 -27 -77 -50 -87 -50 -10 0 -28 -9 -40 -20 -12 -11
-28 -20 -37 -20 -22 0 -18 -21 6 -27 15 -4 19 -11 15 -27 -3 -11 -6 -29 -6
-38 0 -10 -4 -18 -10 -18 -5 0 -10 16 -10 35 0 19 -4 35 -10 35 -5 0 -10 -4
-10 -10 0 -5 -7 -7 -15 -4 -9 4 -15 0 -15 -10 0 -9 -4 -16 -9 -16 -9 0 -24
-71 -16 -78 3 -3 12 1 20 8 24 20 44 -3 27 -30 -11 -18 -8 -25 21 -55 l33 -34
37 24 c47 33 53 31 27 -5 -12 -16 -28 -30 -35 -30 -12 0 -35 -29 -35 -44 0 -3
10 -14 22 -26 12 -11 19 -20 15 -20 -4 0 8 -21 26 -47 44 -63 87 -140 87 -157
0 -8 7 -19 15 -26 8 -7 15 -19 15 -27 0 -24 29 -46 73 -54 47 -9 61 0 71 42 5
21 2 28 -14 32 -33 9 -35 36 -6 92 30 57 85 127 86 108 0 -7 -13 -27 -28 -45
-67 -78 -99 -165 -38 -105 31 31 36 33 36 12 0 -8 -4 -15 -10 -15 -5 0 -10 -9
-10 -20 0 -11 5 -20 10 -20 6 0 10 6 10 14 0 7 7 19 15 26 8 7 15 21 15 31 0
11 5 19 11 19 14 0 8 -35 -20 -115 -12 -32 -20 -63 -19 -67 3 -9 32 42 47 85
12 31 31 36 31 8 0 -11 6 -22 13 -24 8 -4 9 -8 1 -14 -24 -18 -47 -82 -24 -68
6 3 10 -1 10 -11 0 -12 5 -10 22 11 13 16 21 40 20 60 -1 22 6 39 23 55 l25
23 0 -26 c0 -23 3 -25 23 -18 12 4 23 18 25 30 2 12 8 19 13 16 12 -8 11 1 -3
24 -19 30 5 75 35 65 30 -9 31 -10 17 -31 -11 -17 -11 -17 -6 2 5 17 3 16 -13
-5 -16 -20 -17 -26 -6 -28 8 -2 15 -8 15 -13 0 -6 5 -7 12 -3 6 4 27 8 46 8
31 1 35 4 38 30 2 16 -3 38 -11 49 -7 10 -11 26 -8 33 7 20 23 7 23 -19 0 -12
9 -28 21 -35 14 -9 18 -19 14 -32 -8 -24 20 -38 44 -23 23 15 64 -30 85 -94
15 -44 31 -63 53 -63 5 0 1 31 -12 95 -8 39 25 76 50 55 8 -7 15 -17 15 -23 0
-6 9 -20 20 -32 l21 -22 -25 -24 c-25 -24 -36 -69 -16 -69 6 0 10 -7 10 -15 0
-8 -4 -15 -10 -15 -5 0 -10 -7 -10 -15 0 -26 21 -16 35 18 22 48 41 69 61 65
12 -2 20 5 24 22 7 31 46 36 43 5 -2 -11 0 -35 3 -53 5 -33 7 -33 47 -30 42 3
42 3 45 -33 3 -32 6 -36 28 -31 19 3 24 0 24 -17 0 -12 5 -19 10 -16 6 3 10
27 10 53 0 46 -15 79 -52 116 -10 9 -32 37 -49 61 -18 25 -40 47 -51 50 -10 4
-24 12 -30 19 -7 6 -32 20 -56 29 l-43 17 -10 -28 c-5 -16 -16 -29 -24 -29
-19 0 -19 16 1 38 14 16 13 20 -16 49 -17 18 -34 29 -37 26 -4 -3 -25 15 -48
40 -46 50 -46 45 -30 204 6 56 4 68 -13 88 -12 13 -23 46 -27 80 -4 31 -13 68
-20 82 -23 45 -28 96 -12 127 41 79 62 133 69 178 4 28 10 67 14 87 6 34 4 39
-21 48 -14 5 -27 9 -28 9 -1 -1 -14 -4 -29 -6z"/>
<path d="M45 2806 l-40 -23 -3 -661 c-1 -364 1 -662 6 -662 4 0 13 9 19 20 19
30 115 97 150 104 22 5 30 12 26 22 -4 10 4 14 30 14 20 0 49 5 64 11 15 6 37
15 48 19 11 5 38 11 59 14 22 3 42 9 45 14 3 5 24 12 46 16 46 8 102 25 127
37 10 5 27 9 38 9 11 0 20 5 20 10 0 6 6 10 14 10 8 0 18 9 21 20 3 11 10 20
15 20 13 0 48 82 50 120 5 65 1 80 -25 90 -26 10 -26 34 0 55 6 6 23 34 36 63
13 28 29 52 35 52 14 0 35 46 28 64 -3 8 12 27 36 46 22 18 38 35 35 38 -3 3
-16 -4 -28 -16 -23 -22 -24 -22 -40 -4 -18 19 -24 47 -8 38 5 -3 11 1 14 9 4
9 1 12 -9 8 -21 -8 -18 40 5 61 10 9 21 28 23 41 4 18 0 25 -19 30 -20 5 -22
9 -13 25 6 11 17 20 24 20 24 0 -17 91 -48 107 -22 11 -24 16 -14 32 6 10 8
29 5 42 -9 37 -64 49 -190 42 -90 -5 -111 -3 -144 13 -52 25 -60 26 -128 25
-42 0 -55 2 -45 9 18 12 19 11 -125 15 -88 3 -105 0 -140 -19z"/>
<path d="M1529 2217 c-13 -13 -34 -36 -47 -51 -23 -27 -70 -34 -65 -9 2 8 -5
8 -27 0 -17 -6 -30 -15 -30 -20 0 -12 123 -177 132 -177 5 0 8 -5 8 -10 0 -6
15 -32 33 -58 50 -73 83 -150 112 -262 31 -120 22 -333 -26 -600 -12 -63 -27
-153 -35 -200 -16 -103 -20 -121 -45 -229 -37 -159 -21 -193 101 -212 113 -17
862 -8 885 11 15 12 19 12 30 -4 13 -17 38 -18 531 -11 284 3 526 10 538 15
12 4 28 15 35 23 31 38 52 217 36 312 -8 54 -36 145 -44 145 -10 0 -36 63 -33
80 2 12 1 12 -6 2 -7 -11 -13 -9 -28 10 -25 30 -58 48 -86 48 -19 0 -20 -2 -8
-10 10 -6 11 -13 5 -17 -6 -5 -11 -66 -11 -148 -1 -77 -6 -152 -12 -167 -24
-59 -13 -58 -552 -58 -357 -1 -498 -4 -508 -12 -10 -9 -15 -9 -21 1 -7 10 -62
11 -262 6 -234 -6 -257 -5 -289 12 -31 16 -35 23 -38 63 -2 25 4 80 13 123 16
72 16 80 1 96 -20 22 -20 31 -2 31 7 0 16 12 19 28 21 97 27 136 36 212 11 90
6 238 -10 280 -14 39 -28 156 -30 254 -1 68 -8 103 -28 155 -41 105 -130 244
-161 253 -8 3 -28 30 -44 61 -16 32 -32 57 -36 57 -4 0 -18 -10 -31 -23z"/>
<path d="M4418 1754 c3 -16 -1 -29 -9 -34 -8 -6 -12 -23 -10 -49 2 -38 1 -41
-23 -41 -14 0 -42 14 -63 33 l-37 32 22 -32 c23 -33 28 -48 12 -38 -6 3 -7 -1
-4 -9 5 -14 -4 -20 -26 -18 -10 1 -49 -63 -53 -84 -5 -37 -59 -132 -86 -151
-70 -52 -183 -66 -402 -49 -91 7 -175 19 -187 25 -13 7 -61 15 -108 18 -80 6
-84 5 -78 -13 11 -29 94 -125 118 -134 12 -5 40 -27 64 -49 24 -23 49 -41 56
-41 16 0 72 -55 104 -102 26 -41 33 -40 71 5 36 43 54 48 211 61 216 19 355
97 425 240 27 55 65 268 65 366 0 51 -3 57 -29 73 -38 22 -39 22 -33 -9z"/>
<path d="M2252 1448 c-25 -52 -42 -62 -42 -25 0 14 -11 28 -30 39 -17 9 -30
12 -30 7 0 -6 -8 -9 -18 -7 -21 3 -82 -38 -82 -57 0 -7 -5 -15 -11 -17 -31
-10 -96 -331 -114 -559 -9 -114 -5 -119 118 -120 344 -2 678 1 687 6 5 3 11
52 12 108 l2 102 3 -90 c5 -142 -7 -130 133 -130 66 0 120 2 120 5 0 3 55 5
122 5 68 0 148 2 180 5 53 3 57 5 62 33 17 84 -7 209 -44 232 -6 4 -8 10 -5
15 7 11 -27 26 -64 29 -15 1 -19 8 -18 27 2 22 -6 31 -41 50 -68 36 -338 121
-349 110 -3 -3 -20 4 -39 14 l-34 20 -6 -25 c-7 -30 -24 -23 -24 9 0 20 -7 25
-42 30 -23 4 -45 10 -48 15 -3 4 -36 25 -75 46 -38 21 -87 51 -108 66 -32 23
-43 26 -63 18 -35 -13 -34 -14 -34 33 0 40 -1 41 -19 24 -11 -10 -24 -15 -29
-12 -5 3 -17 -12 -27 -34 -10 -22 -21 -40 -25 -40 -16 0 -18 45 -4 72 8 16 14
33 12 37 -2 4 -13 -14 -26 -41z"/>
<path d="M2976 1442 c-4 -7 -12 -9 -18 -6 -6 4 -6 -1 1 -14 6 -11 11 -39 11
-60 0 -36 4 -42 40 -61 22 -12 56 -21 75 -21 19 0 35 -4 35 -9 0 -12 53 -21
64 -11 9 9 -8 41 -36 71 -7 8 -24 35 -37 61 -28 56 -42 63 -74 38 -25 -20 -25
-20 -39 2 -10 15 -17 18 -22 10z"/>
</g>
</svg>
