<?xml version="1.0" standalone="no"?>
<!DOCTYPE svg PUBLIC "-//W3C//DTD SVG 20010904//EN"
 "http://www.w3.org/TR/2001/REC-SVG-20010904/DTD/svg10.dtd">
<svg version="1.0" xmlns="http://www.w3.org/2000/svg"
 width="544.000000pt" height="544.000000pt" viewBox="0 0 544.000000 544.000000"
 preserveAspectRatio="xMidYMid meet">
<metadata>
Created by potrace 1.16, written by Peter Selinger 2001-2019
</metadata>
<g transform="translate(0.000000,544.000000) scale(0.100000,-0.100000)"
fill="#000000" stroke="none">
<path d="M0 4606 l0 -834 90 -17 c49 -10 90 -20 90 -23 0 -5 -103 5 -152 15
-27 5 -28 4 -28 -35 l0 -41 48 -6 c78 -10 80 -13 15 -14 -79 -1 -83 -21 -5
-21 36 0 66 -6 78 -15 17 -13 11 -14 -59 -8 l-77 6 0 -30 c0 -27 4 -30 48 -40
l47 -10 -47 -2 -48 -1 0 -1765 0 -1765 2720 0 2720 0 0 2321 0 2320 -22 -6
c-13 -4 -28 -13 -34 -21 -6 -8 -14 -14 -18 -14 -12 0 -106 -84 -106 -95 0 -5
-14 -24 -30 -42 -17 -18 -30 -40 -30 -50 0 -15 -2 -16 -10 -3 -8 12 -10 10
-10 -8 0 -13 -4 -20 -10 -17 -5 3 -10 2 -10 -3 0 -4 -8 -17 -18 -28 -29 -32
-62 -81 -62 -94 0 -16 -59 -70 -90 -82 -14 -6 -56 -17 -95 -25 -38 -8 -82 -21
-97 -29 -15 -8 -31 -14 -35 -14 -5 0 -23 -5 -40 -11 -43 -14 -43 -30 -1 -18
45 12 70 11 66 -3 -3 -7 -33 -20 -69 -29 -88 -23 -99 -28 -99 -50 0 -20 19
-27 85 -31 l40 -3 -44 -15 c-53 -18 -71 -41 -54 -69 6 -10 10 -35 8 -55 -3
-36 1 -40 39 -36 11 1 15 -3 12 -9 -4 -6 -16 -11 -27 -11 -14 0 -19 -7 -19
-29 0 -17 5 -33 10 -36 7 -4 7 -12 0 -25 -8 -15 -6 -21 7 -29 10 -6 12 -11 6
-11 -7 0 -13 -11 -13 -25 0 -18 5 -25 20 -25 25 0 26 -16 3 -29 -21 -12 -14
-21 39 -49 38 -20 40 -32 5 -32 -13 0 -17 5 -13 16 4 12 0 15 -17 12 -19 -3
-22 -10 -25 -50 -3 -46 -2 -47 30 -53 18 -3 48 -5 67 -3 20 2 36 -2 38 -9 3
-9 -12 -11 -54 -10 -68 2 -68 1 -26 -98 58 -139 60 -142 95 -150 28 -7 30 -9
11 -12 -26 -5 -31 -31 -8 -39 8 -4 15 -18 15 -33 0 -14 8 -42 19 -61 10 -19
26 -60 36 -90 10 -30 25 -66 34 -79 18 -27 57 -148 73 -226 15 -72 5 -191 -21
-246 -25 -54 -48 -80 -91 -105 l-30 -18 41 -38 c41 -38 46 -64 9 -41 -18 12
-140 43 -163 43 -18 -1 25 -30 44 -30 9 0 22 -7 29 -15 20 -24 -36 -20 -67 5
-31 24 -49 25 -57 5 -3 -8 -15 -15 -26 -15 -31 0 -61 -36 -54 -64 3 -13 1 -27
-4 -30 -12 -7 -4 -46 9 -46 5 0 9 -7 9 -15 0 -8 -7 -15 -15 -15 -20 0 -19 -29
2 -52 16 -18 16 -19 -3 -24 -15 -4 -23 -20 -33 -64 -7 -33 -11 -73 -9 -89 2
-17 0 -32 -6 -34 -14 -5 18 -55 52 -84 14 -12 23 -25 20 -29 -4 -3 -21 8 -38
26 -23 24 -35 29 -43 21 -8 -8 -5 -19 12 -42 12 -17 19 -34 16 -37 -4 -4 -10
-1 -12 5 -3 7 -8 13 -13 13 -14 0 -5 -27 16 -52 l19 -22 -26 16 c-26 16 -27
16 -33 -5 -15 -56 -8 -71 48 -101 29 -16 58 -26 64 -23 5 4 12 -1 14 -11 3 -9
18 -24 34 -32 16 -8 51 -30 77 -50 56 -40 119 -96 97 -84 -30 16 -105 68 -127
87 -25 22 -43 33 -123 74 -60 31 -110 33 -105 5 2 -9 6 -36 8 -58 4 -38 3 -41
-16 -36 -20 5 -20 5 2 -27 13 -18 40 -43 60 -55 20 -13 54 -43 76 -66 22 -23
50 -46 61 -50 26 -10 71 -70 53 -70 -6 0 -48 35 -93 78 -124 119 -174 162
-188 162 -7 0 -21 -12 -32 -26 -19 -27 -19 -25 13 -89 3 -5 -7 -2 -21 7 -17
11 -29 14 -33 8 -3 -6 -15 -10 -25 -10 -20 0 -44 -32 -33 -44 3 -3 -3 -6 -15
-6 -42 0 -29 -34 40 -105 37 -39 85 -95 107 -125 82 -115 212 -322 209 -332
-5 -14 -16 -2 -70 81 -23 35 -57 78 -76 95 -68 62 -172 170 -172 180 0 5 15
-3 33 -20 17 -16 43 -38 56 -49 l24 -20 -18 35 c-39 77 -99 148 -179 211 -26
20 -56 16 -56 -7 0 -10 -8 -12 -30 -8 -43 9 -39 -11 20 -91 51 -69 58 -85 40
-85 -6 0 -32 34 -58 75 -42 66 -51 75 -85 81 -48 8 -53 2 -37 -35 19 -47 6
-58 -18 -16 l-23 37 -51 -6 c-63 -9 -68 -11 -68 -39 0 -20 0 -20 -15 -1 -24
31 -37 -1 -19 -44 17 -41 17 -42 4 -42 -6 0 -17 15 -25 32 l-14 33 6 -47 c5
-40 3 -48 -11 -48 -9 0 -16 -1 -16 -2 -1 -2 -7 -37 -15 -78 -7 -41 -21 -115
-30 -165 -44 -248 -69 -273 -290 -286 -71 -4 -189 -8 -262 -8 l-131 -1 -11
-30 c-13 -38 -23 -38 -44 3 -15 31 -16 31 -17 7 l-1 -25 -19 24 -20 23 0 -36
c0 -40 -20 -54 -85 -59 -26 -1 -35 -7 -40 -24 -3 -13 -10 -23 -15 -23 -17 0
-40 45 -40 80 0 44 -8 55 -42 55 -18 1 -31 -7 -39 -22 -16 -29 -26 -29 -49 0
-10 12 -31 24 -47 26 -15 3 -154 4 -308 4 l-280 -1 -20 -24 c-11 -13 -28 -35
-38 -48 l-17 -25 2 32 c2 18 0 34 -4 35 -12 5 -48 -31 -48 -47 0 -34 -18 -12
-24 30 l-7 45 -127 0 c-70 0 -134 -4 -142 -10 -9 -5 -19 -5 -26 1 -18 15 -40
1 -60 -37 -22 -40 -49 -42 -49 -2 1 15 -2 25 -6 23 -3 -3 -4 18 -1 45 2 28 2
50 -2 50 -4 0 -25 -38 -47 -85 -22 -47 -45 -87 -50 -91 -13 -7 -12 -4 16 82
29 89 30 101 10 84 -8 -7 -15 -19 -15 -26 0 -8 -4 -14 -9 -14 -4 0 -6 12 -4
28 3 18 -4 9 -21 -26 -14 -29 -30 -51 -35 -48 -9 6 -5 30 18 91 l11 30 -20
-24 c-16 -18 -20 -20 -20 -7 0 10 -4 15 -8 12 -17 -10 -34 11 -24 30 5 11 23
46 39 79 17 33 34 74 37 90 4 17 26 64 51 105 24 41 42 76 39 79 -9 9 -58 -47
-107 -126 -48 -77 -67 -97 -67 -74 0 13 116 187 152 229 15 18 28 39 28 47 0
7 6 16 13 19 9 5 9 7 -1 12 -6 3 -9 11 -6 16 4 7 2 8 -5 4 -6 -4 -9 -11 -6
-15 2 -5 -5 -17 -17 -27 -14 -12 -18 -14 -13 -4 5 8 -12 -6 -37 -32 -44 -47
-73 -63 -62 -33 5 11 2 14 -12 9 -11 -4 3 16 31 45 50 52 61 61 49 39 -11 -23
107 106 127 137 12 19 19 48 19 77 0 26 5 59 12 73 9 19 9 28 0 37 -17 17 -15
38 6 61 15 17 17 41 17 186 0 179 -6 209 -72 351 -21 45 -144 205 -189 245 -6
6 -21 27 -33 48 -28 47 -60 66 -75 45 -6 -8 -22 -21 -36 -28 -25 -13 -25 -13
2 17 35 37 35 44 -2 71 -16 13 -30 29 -30 38 0 12 -7 14 -34 9 -43 -9 -55 9
-27 39 27 28 26 38 -1 73 -26 32 -35 45 -79 121 -18 30 -38 56 -45 59 -6 2
-29 0 -50 -6 -51 -14 -53 -8 -7 16 26 14 37 26 35 39 -5 38 -36 130 -53 161
-10 17 -32 75 -48 129 -17 53 -37 107 -46 120 -9 14 -11 25 -5 29 15 9 12 62
-5 79 -10 9 -11 17 -5 21 15 9 2 25 -21 25 -10 0 -19 5 -19 10 0 6 9 10 20 10
16 0 19 5 15 23 -3 12 -7 87 -8 167 l-3 144 -29 1 c-15 0 -30 6 -33 14 -4 11
2 13 28 8 31 -7 32 -6 27 22 -3 15 -2 32 3 37 16 16 15 95 0 108 -8 6 -22 20
-30 30 -14 18 -13 19 22 13 43 -7 43 -6 57 93 6 46 5 67 -3 73 -8 5 -6 11 5
20 9 7 19 22 23 33 6 19 1 23 -39 34 -25 7 -48 17 -52 22 -3 6 3 8 13 5 48
-13 94 -17 94 -8 0 5 -4 13 -10 16 -14 9 -12 25 2 22 27 -5 85 152 59 161 -18
6 -13 22 9 22 11 0 26 12 35 29 14 28 14 30 -15 55 -17 14 -47 28 -68 31 -51
8 -170 70 -158 83 3 2 31 -10 62 -27 31 -18 62 -30 69 -27 7 2 36 -7 64 -20
59 -29 80 -24 56 12 -15 23 -15 23 11 14 35 -14 42 -12 21 4 -15 12 -16 17 -4
39 11 21 16 24 27 14 10 -9 13 -9 17 1 3 6 11 12 19 12 10 0 13 7 8 25 -3 14
-2 25 4 25 5 0 12 7 16 15 3 10 -10 25 -39 45 -27 19 -45 26 -47 18 -3 -7 -22
5 -46 27 -48 43 -49 59 -3 25 17 -12 31 -17 31 -11 0 5 -7 14 -16 19 -10 6
-13 12 -6 16 6 3 17 -1 25 -9 9 -8 19 -15 23 -15 5 0 29 -20 54 -45 l46 -46
19 21 c16 18 17 24 7 41 -7 11 -8 19 -2 19 5 0 10 -5 10 -12 0 -9 3 -9 11 -1
9 9 2 24 -29 61 -53 63 -75 82 -72 61 4 -27 0 -35 -20 -36 -25 -2 -26 12 -2
26 9 6 13 11 7 11 -5 0 -4 4 3 8 10 7 8 14 -8 34 -11 15 -20 30 -20 35 0 5
-21 29 -46 53 -26 25 -44 37 -41 27 4 -11 3 -16 -4 -12 -6 4 -8 14 -5 22 6 16
-21 63 -36 63 -6 0 -38 23 -73 50 -65 52 -92 65 -60 30 10 -11 15 -20 11 -20
-4 0 25 -35 64 -77 162 -176 68 -103 -127 97 -78 80 -113 137 -98 160 12 19
27 10 91 -57 35 -37 64 -62 64 -57 0 6 -29 39 -64 73 -41 39 -63 67 -59 76 6
16 15 12 53 -22 14 -12 28 -21 31 -20 4 1 33 -32 65 -73 32 -41 89 -104 126
-140 37 -36 73 -79 80 -95 23 -54 87 -142 138 -189 45 -42 80 -59 80 -38 0 11
-35 48 -57 61 -10 5 -15 13 -11 16 4 4 25 -7 48 -25 22 -17 40 -28 40 -23 0 4
20 28 45 53 29 30 42 51 39 63 -6 19 6 23 23 6 14 -14 76 60 64 75 -16 20 -23
56 -11 56 6 0 13 -13 17 -30 6 -35 14 -37 36 -12 23 26 21 38 -12 80 -34 43
-57 112 -37 112 7 0 26 -29 41 -65 15 -36 30 -64 32 -61 3 2 0 14 -7 25 -18
34 6 24 29 -11 l21 -33 -4 78 c-2 42 0 77 3 77 3 0 15 -18 25 -40 15 -32 25
-40 46 -40 34 0 56 25 52 59 -3 25 -3 25 11 6 14 -18 18 -18 41 -6 19 11 26
22 26 45 l1 31 19 -24 c21 -24 23 -22 20 16 -1 20 3 22 29 19 39 -4 40 -2 31
40 -10 42 -1 43 25 4 23 -35 27 -36 48 -12 14 15 16 35 10 135 l-6 117 -118 0
-118 0 25 -67 c43 -114 56 -155 50 -161 -6 -5 -86 160 -100 206 -6 17 -15 22
-42 22 -32 0 -34 -2 -24 -21 6 -11 9 -25 7 -32 -2 -7 -11 3 -21 21 -9 17 -23
32 -31 32 -8 0 -15 -1 -15 -2 0 -3 37 -105 47 -128 3 -8 5 -18 5 -22 -1 -5 3
-8 8 -8 6 0 10 8 10 18 0 14 4 12 20 -8 11 -14 20 -32 20 -41 0 -9 6 -22 14
-28 8 -6 16 -23 19 -36 3 -20 2 -23 -9 -14 -7 6 -16 21 -20 32 -7 25 -33 57
-46 57 -8 0 19 -56 44 -92 22 -31 -3 -34 -29 -3 -25 28 -25 28 -19 5 l7 -25
-20 24 c-12 13 -21 33 -21 45 0 17 2 19 11 6 16 -23 7 -1 -29 69 -18 34 -31
65 -29 68 3 2 13 -12 22 -31 10 -20 22 -39 27 -42 18 -11 -54 119 -76 137 -36
31 -37 22 -6 -40 17 -32 30 -64 30 -71 0 -6 9 -25 21 -42 12 -16 19 -31 17
-34 -6 -6 -53 64 -94 141 l-32 60 -681 3 -681 2 0 -834z m1314 750 c36 -59 41
-65 44 -43 2 14 -4 39 -12 56 -20 37 -20 41 -1 41 18 0 57 -66 90 -155 15 -39
35 -77 45 -85 21 -17 70 -112 70 -135 0 -8 -4 -15 -10 -15 -5 0 -10 8 -10 18
0 21 -46 122 -56 122 -3 0 -4 -15 -1 -32 5 -32 5 -32 -13 8 -23 48 -60 87 -60
61 0 -9 5 -19 10 -22 6 -3 10 -13 10 -22 0 -8 11 -37 25 -64 13 -27 20 -49 16
-49 -12 0 -35 38 -50 80 -6 19 -40 84 -76 145 -72 124 -92 169 -73 163 7 -3
30 -35 52 -72z m-742 -263 c122 -109 298 -292 298 -309 -1 -15 -7 -12 -31 16
-67 79 -86 97 -121 123 -21 16 -38 25 -38 22 0 -4 -16 3 -36 15 -50 32 -52 19
-1 -18 23 -17 61 -49 85 -72 24 -22 45 -40 48 -40 15 0 89 -85 99 -115 7 -19
11 -35 9 -35 -9 0 -74 64 -74 73 0 5 12 1 28 -8 20 -13 23 -14 12 -2 -8 9 -21
17 -28 19 -8 2 -29 17 -49 35 -19 17 -45 34 -56 37 -15 4 -9 -6 21 -30 23 -20
47 -45 53 -56 10 -19 -144 103 -157 124 -8 13 10 3 41 -21 11 -8 3 3 -18 25
-32 34 -42 39 -71 36 -28 -3 -41 3 -75 33 -37 33 -57 66 -31 50 6 -3 10 1 10
10 0 10 5 14 13 9 6 -4 -6 12 -28 35 -55 58 -31 51 45 -13 36 -30 67 -52 70
-49 3 3 -1 8 -7 10 -14 5 -93 101 -93 114 0 4 8 10 18 12 9 3 18 5 20 6 1 0
21 -16 44 -36z m-83 -157 c24 -22 40 -34 36 -26 -4 8 10 -1 31 -21 21 -20 69
-57 107 -83 37 -26 67 -50 67 -52 0 -6 -53 19 -90 43 -19 13 -39 23 -45 23 -5
0 18 -18 51 -40 34 -21 64 -47 68 -57 6 -15 4 -15 -16 3 -13 12 -58 44 -100
72 -67 44 -78 49 -78 32 0 -17 -3 -18 -25 -8 -14 6 -25 15 -25 20 0 5 9 4 20
-2 11 -6 20 -8 20 -6 0 3 -15 13 -32 22 -44 23 -141 110 -144 129 -3 18 1 18
29 4 18 -9 20 -9 10 2 -51 53 53 5 116 -55z m-158 -23 c8 -9 44 -35 80 -59 37
-23 87 -58 112 -77 56 -43 156 -101 163 -94 3 2 -31 30 -76 62 -80 58 -109 91
-47 55 54 -32 177 -140 177 -155 0 -8 4 -15 9 -15 14 0 100 -70 112 -91 9 -18
8 -20 -5 -12 -9 5 -33 25 -53 44 -50 47 -165 121 -255 164 -84 40 -248 160
-248 181 0 19 15 18 31 -3z m5047 -1215 c-3 -7 -36 -20 -74 -29 l-69 -16 53
-8 c28 -4 52 -11 52 -16 0 -5 20 -9 45 -9 49 0 54 -7 28 -50 -17 -30 -46 -41
-163 -61 -71 -12 -283 -3 -259 11 7 5 17 6 21 4 4 -3 13 -2 20 2 7 4 30 7 53
6 22 -1 58 3 80 8 33 8 26 8 -34 4 -41 -2 -71 -1 -67 3 10 10 90 32 153 41 60
10 81 22 37 22 -41 -1 -164 -16 -196 -25 -18 -5 -28 -3 -28 4 0 6 8 11 18 11
14 0 15 2 2 10 -8 5 -10 10 -5 10 6 1 -1 6 -15 12 l-25 10 30 9 c17 5 53 12
80 14 28 3 91 14 140 24 112 23 128 24 123 9z m-4988 -1591 c-47 -23 -70 -42
-70 -59 0 -25 21 -22 63 6 19 13 38 22 41 18 11 -10 6 -32 -8 -32 -20 0 -119
-54 -226 -125 -65 -43 -108 -64 -137 -68 -24 -3 -43 -3 -43 -1 0 2 25 18 56
35 30 18 59 41 64 53 13 34 47 59 72 53 31 -9 91 30 85 54 -7 27 64 79 108 78
17 -1 17 -2 -5 -12z m100 -214 c-18 -15 -39 -32 -46 -36 -23 -13 -16 -25 11
-19 21 4 25 1 25 -19 0 -17 -12 -32 -43 -51 -23 -15 -60 -44 -82 -65 -38 -36
-151 -90 -164 -78 -3 3 8 17 24 31 18 15 23 23 12 20 -14 -4 -16 -2 -9 12 5 9
7 22 5 28 -4 12 23 37 103 94 63 45 188 119 193 114 2 -2 -11 -16 -29 -31z
m4545 -301 c17 -8 55 -34 85 -57 30 -23 65 -47 76 -53 12 -6 46 -32 75 -58 30
-25 68 -52 85 -60 34 -14 60 -41 50 -51 -3 -4 -28 2 -55 14 -35 15 -48 17 -48
7 0 -7 4 -11 8 -9 4 3 18 -4 30 -14 19 -16 22 -22 12 -32 -7 -7 -13 -21 -13
-31 0 -16 -3 -17 -20 -8 -11 6 -20 7 -20 2 0 -5 14 -15 30 -22 22 -9 30 -19
30 -37 0 -22 -3 -24 -26 -19 -23 6 -24 5 -14 -15 7 -11 32 -30 57 -41 57 -25
49 -33 -17 -19 -28 6 -56 9 -61 6 -5 -3 -19 0 -31 6 -35 18 -269 203 -302 238
-32 34 -23 42 15 13 49 -37 156 -99 181 -105 14 -4 34 -10 45 -14 10 -4 -6 14
-36 40 -30 25 -58 44 -63 41 -6 -4 -26 9 -46 28 -21 19 -52 45 -70 58 -58 39
-27 32 64 -15 81 -42 86 -44 55 -16 -19 17 -49 37 -67 46 -41 19 -57 40 -23
30 21 -7 22 -6 10 9 -26 31 6 16 53 -25 26 -23 49 -39 53 -36 3 3 23 -5 44
-19 22 -14 44 -22 49 -19 5 3 21 -2 35 -11 14 -9 25 -12 25 -6 0 5 -31 28 -68
51 -38 23 -79 52 -91 65 l-23 24 39 -13 c97 -35 57 -4 -154 120 -35 20 -63 38
-63 40 0 6 75 -17 105 -33z m-75 -435 c0 7 9 9 22 5 26 -6 188 -120 188 -132
0 -4 10 -18 23 -31 76 -78 100 -110 89 -121 -9 -9 -21 -7 -47 8 -19 10 -35 22
-35 26 0 15 -62 78 -71 72 -5 -3 -9 -2 -8 3 5 27 -8 38 -183 167 -21 15 -38
32 -38 38 0 7 14 -1 30 -17 17 -16 30 -24 30 -18z m-101 -6 c25 -25 50 -41 76
-45 22 -4 51 -14 65 -22 35 -19 109 -87 87 -80 -24 8 -12 -11 28 -44 45 -36
125 -122 125 -133 0 -6 -4 -6 -12 0 -96 75 -143 116 -196 170 -42 44 -68 63
-78 59 -16 -6 -74 22 -74 36 0 4 16 -2 35 -13 43 -26 46 -18 5 11 -25 18 -33
20 -46 9 -10 -8 -14 -9 -12 -1 2 6 -17 29 -42 51 -40 36 -42 40 -22 41 14 0
38 -15 61 -39z m-469 -296 c26 -39 55 -77 65 -85 10 -8 33 -48 51 -88 19 -41
50 -100 69 -132 19 -32 35 -65 35 -75 0 -31 -26 1 -76 94 -69 127 -109 194
-186 308 -37 57 -68 106 -68 110 1 13 58 -57 110 -132z"/>
<path d="M1960 5426 c0 -8 6 -16 14 -19 8 -3 17 -19 21 -35 10 -48 38 -66 98
-63 28 1 60 4 70 7 20 6 23 45 6 93 l-11 31 -99 0 c-78 0 -99 -3 -99 -14z"/>
<path d="M2204 5423 c2 -10 10 -37 17 -60 13 -44 17 -46 78 -27 7 2 34 7 60
10 25 3 50 9 55 14 5 5 14 6 21 4 12 -5 25 24 25 59 0 14 -9 17 -59 17 -38 0
-61 -4 -64 -12 -4 -10 -6 -10 -6 0 -1 8 -21 12 -67 12 -57 0 -65 -2 -60 -17z"/>
<path d="M2860 5423 c0 -10 -3 -29 -7 -42 -5 -22 -4 -23 18 -18 13 4 64 2 112
-4 49 -6 90 -9 92 -7 2 2 8 23 13 46 l10 42 -73 0 c-68 0 -74 -2 -78 -22 l-4
-23 -2 23 c-1 19 -7 22 -41 22 -31 0 -40 -4 -40 -17z"/>
<path d="M3112 5394 c-14 -52 -10 -64 21 -64 12 0 54 -9 92 -20 38 -11 73 -20
76 -20 4 0 10 15 13 33 3 19 13 42 21 53 14 18 14 18 15 -8 0 -15 -4 -30 -10
-33 -5 -3 -10 -20 -10 -36 0 -39 14 -29 39 26 23 53 37 61 15 10 -14 -34 -20
-84 -8 -72 4 3 15 2 26 -4 15 -8 24 -7 37 5 24 22 31 20 31 -9 0 -35 18 -31
34 8 21 50 66 167 66 172 0 3 -100 5 -223 5 l-223 0 -12 -46z"/>
<path d="M3587 5384 c-17 -34 -32 -52 -39 -48 -6 4 -8 3 -5 -3 4 -6 -4 -35
-17 -64 -14 -29 -23 -56 -21 -59 6 -9 55 0 55 10 0 4 11 32 25 61 14 30 23 45
21 34 -14 -67 -17 -97 -7 -90 15 9 14 -18 -1 -33 -9 -9 -9 -12 0 -12 7 0 21
-9 32 -20 26 -26 33 -22 61 38 30 60 39 32 11 -32 l-20 -45 30 -10 c17 -6 40
-11 51 -11 12 0 17 -5 14 -14 -8 -21 23 -29 43 -11 15 13 19 13 29 2 6 -8 10
-25 9 -37 -5 -36 17 -34 61 6 44 39 53 29 21 -24 -24 -40 -25 -49 -3 -31 11
10 14 10 9 2 -11 -20 11 -15 26 5 7 9 22 24 33 32 19 14 20 14 3 -6 -10 -11
-18 -24 -18 -29 0 -17 31 20 70 86 23 39 44 68 47 65 3 -2 -2 -15 -11 -28 -9
-12 -16 -29 -16 -37 0 -8 -9 -24 -19 -35 -22 -24 -71 -110 -71 -125 0 -26 52
-56 115 -65 6 -1 9 -7 8 -13 -1 -6 15 -31 37 -55 33 -36 41 -40 50 -28 6 10
10 11 10 3 0 -7 7 -10 15 -7 17 7 21 -11 5 -21 -16 -10 -12 -25 8 -25 25 -1
57 -26 40 -33 -8 -4 -7 -6 5 -6 20 -1 22 -12 5 -30 -11 -11 -4 -12 34 -9 25 1
44 0 41 -4 -2 -5 4 -8 14 -8 15 0 15 -2 3 -9 -8 -6 -17 -8 -21 -5 -8 5 -3 -55
5 -63 3 -3 11 -1 18 3 22 14 68 12 68 -2 0 -17 10 -18 35 -1 11 7 33 19 50 26
l30 13 -19 -21 c-11 -12 -15 -21 -11 -21 12 0 -26 -40 -39 -40 -6 0 -19 -12
-29 -25 -18 -25 -18 -25 6 -16 31 12 134 78 142 91 3 5 17 10 30 10 13 0 44 9
69 20 30 12 48 15 52 9 8 -14 0 -21 -58 -53 -27 -15 -48 -22 -48 -17 0 26 -36
17 -91 -22 -33 -23 -75 -53 -94 -66 l-34 -24 20 -28 c20 -28 49 -39 49 -19 0
6 -4 10 -8 10 -4 0 -6 16 -4 36 4 29 8 35 23 31 11 -3 16 -1 13 5 -3 5 0 8 7
7 8 -1 45 13 83 30 38 18 86 35 105 37 29 3 16 -5 -58 -42 -100 -48 -151 -80
-151 -94 0 -8 48 1 83 15 9 4 17 3 17 -3 0 -5 -7 -12 -15 -16 -8 -3 -20 -17
-27 -31 -6 -14 -17 -25 -25 -25 -7 0 -13 -9 -13 -20 0 -13 7 -20 20 -20 11 0
20 4 20 8 0 5 12 15 28 23 15 7 44 24 64 37 49 31 65 25 31 -12 -25 -27 -39
-56 -27 -56 3 0 21 7 42 16 44 19 163 58 177 59 6 0 10 -18 10 -40 0 -40 0
-40 35 -37 45 4 75 24 91 62 8 16 17 30 21 30 5 0 8 7 8 15 0 8 5 15 10 15 6
0 10 5 10 11 0 6 6 16 13 23 6 7 23 28 37 46 30 40 73 93 80 100 3 3 17 21 30
40 44 63 100 108 163 130 l37 14 0 338 0 338 -585 0 -584 0 -41 -70 c-22 -38
-44 -71 -48 -74 -10 -6 -8 46 2 64 5 8 -9 -3 -32 -24 -22 -22 -39 -43 -37 -46
3 -4 -7 -18 -20 -30 -14 -13 -25 -29 -25 -35 0 -7 -9 -20 -20 -30 -29 -27 -25
-4 15 75 19 39 32 70 28 70 -5 0 -3 4 3 8 22 15 66 83 59 90 -4 4 -10 0 -13
-8 -3 -8 -25 -35 -49 -61 -43 -47 -58 -73 -25 -48 15 13 16 12 4 -3 -8 -10
-17 -16 -22 -15 -16 4 -92 -94 -92 -119 0 -14 -3 -22 -6 -19 -3 3 -14 -2 -24
-12 -10 -9 -18 -13 -18 -9 0 17 30 76 39 76 5 0 22 28 39 63 16 34 43 79 61
101 17 21 31 43 31 47 0 22 -19 3 -64 -66 -27 -42 -53 -78 -57 -81 -10 -6 3
31 27 78 15 29 15 31 -2 24 -17 -7 -17 -6 0 13 10 11 15 25 11 30 -10 18 -73
13 -83 -6 -14 -24 -42 -25 -42 -2 0 54 -59 -6 -113 -114 -17 -34 -32 -56 -35
-49 -2 7 5 28 17 47 30 52 53 135 37 135 -7 0 -23 -23 -36 -51 -33 -68 -41
-70 -25 -4 l12 55 -56 0 -57 0 -27 -56z m1153 -200 c0 -4 -75 -88 -173 -194
-83 -89 -218 -212 -225 -206 -4 4 2 14 13 22 11 8 21 19 21 24 1 6 2 14 3 18
2 11 117 132 126 132 5 0 0 -10 -11 -22 l-19 -23 23 19 c12 11 20 21 18 23 -2
2 2 20 10 41 10 29 17 37 36 35 17 -1 43 19 93 68 64 63 85 79 85 63z m15
-254 c10 -17 -12 -44 -56 -69 -23 -13 -38 -18 -34 -11 22 36 -85 -49 -173
-137 -41 -40 -78 -71 -83 -68 -16 10 -10 33 10 40 17 5 96 75 85 75 -3 0 2 7
11 16 9 9 14 22 11 29 -6 17 27 47 45 40 8 -3 29 9 47 26 18 17 36 29 39 26 3
-4 22 5 42 18 39 28 47 30 56 15z"/>
<path d="M2621 5281 c-8 -5 -12 -18 -8 -30 5 -20 4 -20 -19 -3 -13 9 -24 21
-24 25 0 5 -4 6 -9 2 -6 -3 -6 -17 0 -35 6 -16 9 -41 6 -57 -4 -25 -4 -24 -6
7 -1 24 -4 31 -10 21 -15 -23 -31 -3 -24 31 4 22 3 29 -5 24 -7 -4 -12 -2 -12
3 0 6 -11 11 -26 11 -19 0 -28 -7 -35 -30 -6 -16 -15 -27 -20 -24 -5 3 -6 -2
-3 -10 3 -8 -4 -24 -15 -35 -28 -28 -28 -91 -1 -116 19 -17 83 -28 73 -13 -2
5 3 18 11 30 l16 22 0 -24 c0 -23 4 -25 60 -28 75 -4 96 2 104 31 l7 22 9 -21
c8 -20 18 -22 142 -27 140 -6 150 -7 238 -31 30 -8 80 -17 111 -21 46 -5 58
-3 70 11 13 16 14 14 19 -16 5 -30 10 -34 58 -49 29 -10 56 -22 60 -28 4 -6
18 -14 32 -18 14 -4 53 -22 87 -41 35 -18 70 -31 78 -27 11 4 18 -1 22 -15 4
-18 46 -43 81 -49 8 -1 20 -9 27 -19 12 -17 13 -17 31 1 19 18 19 18 22 -11 6
-56 11 -59 38 -20 33 48 42 41 13 -9 l-23 -38 92 -88 c64 -63 98 -89 116 -89
19 0 23 -4 19 -19 -3 -10 0 -22 6 -25 10 -7 16 7 11 29 -1 6 2 7 5 3 4 -4 16
-3 26 2 26 15 32 -4 9 -30 -25 -29 -25 -41 1 -47 12 -3 18 -11 15 -19 -4 -11
-2 -11 14 -2 29 18 39 -1 12 -22 l-23 -19 40 -55 c23 -30 53 -61 68 -68 16 -8
27 -22 28 -36 1 -13 8 -28 16 -33 18 -11 69 -12 69 0 0 5 -10 7 -21 4 -19 -5
-20 -4 -10 15 10 18 15 20 30 11 13 -9 25 -8 47 2 37 18 46 75 16 102 -17 16
-21 16 -32 2 -7 -8 -22 -15 -34 -15 -19 0 -19 2 9 26 23 19 26 27 16 33 -7 5
-10 14 -7 20 7 11 -10 79 -24 94 -4 4 -13 1 -20 -8 -11 -13 -10 -15 6 -9 17 6
17 5 4 -9 -20 -21 -82 -12 -78 12 2 9 10 17 18 17 8 1 20 2 27 3 7 0 10 8 7
16 -3 8 -16 13 -27 12 -19 -2 -22 2 -19 34 4 45 -17 66 -47 47 -29 -18 -38 -1
-18 34 22 39 15 47 -24 24 l-31 -18 16 23 c9 15 12 29 7 38 -7 11 -18 7 -55
-18 -25 -18 -46 -29 -46 -26 0 3 -13 -2 -30 -11 -37 -22 -53 -9 -21 17 15 12
31 17 43 13 14 -4 29 3 48 21 34 32 30 59 -12 81 -16 8 -33 26 -38 39 -6 16
-15 23 -25 19 -9 -4 -15 -1 -15 9 0 8 -7 21 -16 28 -14 12 -20 9 -40 -16 -14
-17 -29 -36 -35 -43 -6 -7 -13 -11 -16 -8 -5 5 5 22 42 72 14 19 -9 41 -28 26
-24 -20 -62 -1 -64 32 -4 50 -10 58 -33 46 -12 -6 -20 -7 -20 -1 0 5 -12 8
-27 6 -16 -2 -23 -2 -17 1 6 3 9 15 7 27 -5 24 -53 52 -85 49 -12 -1 -18 5
-18 18 0 39 -47 12 -78 -45 -6 -11 -12 -15 -12 -8 0 7 9 28 20 48 26 46 2 49
-30 4 -27 -37 -34 -33 -19 10 7 21 8 36 2 40 -5 3 -12 14 -16 24 -5 13 -15 18
-36 15 -20 -2 -38 5 -54 20 l-25 23 -16 -22 -16 -23 0 34 c0 42 -17 30 -26
-19 -6 -30 -5 -33 10 -28 15 6 17 3 10 -26 -3 -17 -10 -41 -15 -52 -7 -18 -8
-17 -8 6 -1 37 -13 43 -33 17 -15 -20 -15 -15 3 42 18 56 34 118 22 83 -2 -6
-11 -14 -19 -17 -10 -4 -14 2 -14 19 0 17 -7 25 -27 29 -41 9 -63 14 -112 26
-31 8 -47 8 -57 -1 -11 -9 -15 -7 -20 5 -5 13 -20 17 -68 17 -33 0 -83 2 -109
5 -53 7 -76 -9 -77 -53 0 -44 -19 -32 -26 17 -6 47 -8 50 -35 50 -19 0 -30 -6
-34 -20 -3 -11 -10 -20 -15 -20 -5 0 -12 9 -15 20 -7 21 -39 27 -64 11z"/>
<path d="M2319 5243 c-1 -5 -2 -12 -4 -18 -1 -5 -3 -14 -3 -18 -1 -4 -11 -3
-21 2 -24 13 -38 -2 -44 -49 l-4 -35 -1 38 c-2 25 -7 37 -17 37 -8 0 -15 -9
-15 -21 0 -11 -4 -18 -9 -14 -12 7 -43 -24 -38 -39 2 -6 16 -12 31 -14 18 -2
26 0 21 7 -3 6 -1 11 4 11 6 0 11 -6 11 -14 0 -21 39 -46 70 -46 24 0 26 3 22
29 -2 16 1 37 7 48 10 17 11 16 17 -5 13 -44 21 -2 11 53 -7 34 -15 55 -24 55
-7 0 -14 -3 -14 -7z"/>
<path d="M1940 5070 c0 -16 -4 -30 -10 -30 -5 0 -10 9 -10 20 0 25 -11 25 -40
2 l-22 -18 19 -34 c11 -19 23 -48 27 -65 6 -29 6 -29 -10 -10 -8 11 -25 39
-36 63 -15 32 -26 42 -44 42 -13 0 -24 -4 -24 -10 0 -5 -7 -10 -15 -10 -8 0
-15 -9 -15 -20 0 -12 -7 -20 -16 -20 -23 0 -12 -51 18 -85 13 -15 30 -40 38
-57 25 -52 40 -47 40 14 l1 53 18 -22 c32 -38 72 -26 102 28 8 16 17 19 40 14
28 -6 29 -5 29 28 0 20 6 38 13 40 6 3 2 6 -10 6 -27 1 -53 26 -53 52 0 19
-21 49 -34 49 -3 0 -6 -13 -6 -30z"/>
<path d="M2856 4963 c-4 -4 -33 -6 -65 -5 -44 1 -60 -2 -65 -13 -7 -20 -36
-19 -36 0 0 8 -7 15 -16 15 -14 0 -16 -8 -10 -57 5 -53 4 -56 -9 -39 -8 11
-15 26 -15 32 0 22 -22 64 -31 58 -4 -2 -24 -5 -44 -6 l-36 -1 7 -44 c5 -36 4
-43 -10 -43 -12 0 -16 10 -16 40 0 29 -4 40 -15 40 -9 0 -15 -9 -15 -25 0 -14
-4 -25 -10 -25 -5 0 -10 9 -10 20 0 21 -15 27 -25 10 -4 -6 -10 -8 -14 -5 -14
8 -21 -54 -9 -83 6 -15 10 -39 9 -54 -2 -19 4 -30 20 -38 16 -9 18 -14 9 -20
-9 -6 -4 -13 18 -24 17 -9 38 -16 47 -16 17 0 85 -66 85 -82 0 -27 34 -77 58
-86 15 -5 65 -15 112 -22 104 -15 131 -28 198 -99 121 -128 156 -248 97 -335
-14 -20 -25 -44 -25 -54 0 -9 -18 -41 -39 -72 -45 -63 -66 -150 -37 -150 8 0
23 11 32 25 20 31 44 45 104 60 25 6 45 16 45 21 0 26 35 54 79 64 45 10 96
47 96 70 0 16 28 42 38 36 4 -2 37 2 72 9 36 8 82 14 102 15 20 0 40 5 43 10
3 6 17 10 30 10 13 0 27 5 30 10 3 6 21 10 39 10 19 0 40 7 47 17 8 9 12 17
10 17 -2 1 4 17 13 36 l16 35 -3 -31 c-3 -27 0 -30 26 -32 16 -2 41 -11 55
-22 13 -11 33 -20 43 -20 10 0 20 -4 24 -9 6 -12 77 -2 86 11 3 6 8 8 11 6 3
-1 17 6 32 17 25 19 36 62 19 79 -5 4 -8 11 -8 14 0 4 -10 17 -22 29 -19 19
-23 20 -49 7 -33 -18 -77 -10 -72 12 4 19 23 18 22 -2 -2 -15 6 -18 21 -6 16
12 16 32 0 32 -12 0 -13 4 -5 19 15 28 12 61 -5 67 -8 4 -15 12 -15 19 0 7 -7
19 -16 26 -15 12 -22 8 -59 -34 -24 -26 -48 -47 -53 -47 -5 0 -12 -7 -16 -15
-5 -15 -36 -22 -36 -8 0 3 18 22 40 40 22 19 38 38 35 43 -3 5 6 17 20 28 14
11 25 24 25 29 0 14 -72 78 -102 91 -16 6 -28 16 -28 22 0 5 -7 10 -15 10 -7
0 -18 8 -24 17 -9 16 -12 15 -35 -12 -30 -34 -33 -28 -10 17 16 30 15 31 -5
25 -12 -3 -21 0 -21 5 0 15 -31 37 -51 38 -9 0 -20 7 -23 16 -5 14 -8 14 -22
-1 -14 -13 -19 -14 -25 -3 -5 7 -6 22 -3 33 7 27 -18 49 -76 68 -25 9 -53 18
-62 22 -13 5 -18 2 -18 -9 0 -9 -7 -16 -16 -16 -12 0 -14 7 -9 29 7 32 -1 38
-70 51 -34 7 -44 5 -62 -13 l-23 -20 0 26 c0 23 -11 34 -23 25 -2 -2 -11 3
-20 10 -23 19 -33 9 -47 -48 -12 -49 -35 -84 -26 -38 18 88 17 94 -11 107 -16
7 -53 15 -85 18 -49 5 -57 3 -61 -13 -4 -16 -5 -16 -6 3 -1 24 -14 37 -25 26z"/>
<path d="M1677 4944 c5 -14 1 -16 -23 -11 -31 6 -60 -6 -85 -35 -9 -10 -23
-18 -32 -18 -9 0 -17 -10 -19 -22 -2 -17 -9 -23 -26 -22 -25 1 -122 -96 -122
-122 0 -7 -7 -14 -15 -14 -8 0 -29 -13 -47 -30 l-33 -29 23 -41 c26 -45 22
-49 -18 -20 -32 23 -47 13 -25 -16 21 -28 19 -47 -4 -39 -32 10 -71 -5 -71
-27 0 -10 -4 -17 -8 -14 -11 6 -35 -61 -27 -74 3 -5 -3 -10 -14 -10 -22 0 -22
-19 -1 -46 14 -16 13 -17 -12 -11 -15 4 -30 3 -33 -3 -10 -16 12 -81 36 -106
22 -24 16 -30 -15 -18 -9 3 -16 14 -16 25 0 19 -38 51 -52 43 -4 -3 -8 -12 -8
-21 0 -9 -8 -22 -17 -29 -17 -12 -17 -13 3 -14 12 0 25 -7 28 -16 9 -24 8 -26
-16 -24 -37 3 -50 1 -43 -10 3 -5 -3 -18 -15 -30 -26 -26 -25 -36 4 -65 29
-29 25 -61 -10 -69 -14 -4 -22 -11 -19 -16 3 -6 -1 -10 -9 -10 -9 0 -16 -8
-16 -18 0 -10 -4 -22 -9 -27 -18 -21 -40 -113 -36 -157 2 -32 -1 -50 -11 -59
-10 -8 -14 -34 -14 -93 0 -123 -2 -146 -11 -146 -5 0 -9 -28 -9 -61 l0 -62 40
7 c49 8 50 3 5 -18 -34 -16 -35 -19 -35 -74 0 -68 10 -86 47 -88 15 -1 33 -3
38 -4 6 0 -4 -7 -22 -15 -17 -7 -34 -23 -38 -34 -8 -26 13 -131 26 -131 5 0 9
-9 9 -19 0 -11 4 -22 9 -25 4 -3 7 -18 5 -33 -1 -15 3 -31 9 -35 9 -6 9 -8 -1
-8 -9 0 -9 -5 -3 -17 6 -10 16 -34 24 -53 8 -19 26 -62 40 -95 13 -33 28 -72
31 -87 4 -16 13 -28 22 -28 11 0 13 -6 9 -20 -3 -11 -2 -20 3 -20 5 0 17 -18
28 -40 10 -22 25 -40 32 -40 6 0 12 -7 12 -16 0 -8 4 -13 9 -9 5 3 13 0 16 -6
5 -6 21 -8 41 -4 43 8 43 -5 -1 -44 -19 -17 -35 -33 -35 -36 0 -8 53 -29 67
-26 19 3 24 -16 8 -29 -22 -18 -19 -25 26 -74 47 -51 64 -51 108 0 27 30 30
32 36 14 9 -29 -11 -58 -45 -65 l-30 -7 32 -46 c18 -26 36 -48 41 -50 4 -2 7
-10 7 -19 0 -8 26 -45 58 -81 50 -59 72 -80 104 -102 4 -3 10 -23 12 -44 3
-21 10 -44 16 -50 11 -14 40 -90 46 -121 2 -11 8 -40 13 -65 6 -25 13 -93 16
-152 5 -72 10 -106 18 -101 7 4 8 -5 3 -28 -16 -80 -19 -119 -7 -119 6 0 16 9
23 20 16 25 28 26 28 3 0 -32 -18 -47 -53 -46 -31 1 -36 -2 -41 -29 -8 -43 -8
-50 5 -42 8 4 9 -1 5 -17 -7 -23 -6 -23 19 5 32 35 42 29 21 -13 -20 -38 -20
-47 -1 -31 8 7 15 20 15 29 0 9 9 27 20 41 15 20 20 21 20 8 0 -9 -4 -19 -9
-23 -5 -3 -13 -19 -16 -36 -4 -17 -20 -57 -36 -89 -16 -33 -29 -67 -29 -77 0
-9 -8 -37 -17 -61 -15 -41 -15 -46 -1 -56 9 -7 18 -23 20 -36 2 -18 10 -6 33
50 17 40 36 75 42 78 16 5 30 -27 17 -37 -6 -3 -10 -19 -11 -36 -2 -30 -2 -30
9 -5 6 14 26 56 44 94 19 37 34 78 33 90 0 14 -2 16 -6 6 -4 -8 -12 -20 -19
-27 -7 -7 -14 -18 -17 -25 -2 -7 -8 -10 -12 -6 -7 7 72 177 88 189 5 4 7 15 5
25 -4 16 -7 15 -16 -8 -11 -26 -42 -40 -42 -19 0 12 43 115 51 121 26 20 40
101 25 148 -7 22 -9 23 -27 6 -10 -9 -19 -25 -19 -34 0 -12 -9 -17 -31 -18
-26 -1 -28 2 -18 14 7 8 18 13 25 10 7 -3 18 8 24 25 7 16 22 36 33 44 18 12
19 21 14 97 -12 154 -19 193 -57 293 -54 143 -72 177 -88 170 -8 -3 -12 0 -9
7 4 12 -24 69 -48 94 -5 7 -35 39 -65 71 -74 80 -107 118 -160 183 -51 64 -70
81 -81 74 -5 -3 -20 3 -33 13 -21 16 -22 20 -9 39 12 18 11 23 -2 34 -13 11
-20 10 -43 -7 -53 -38 -59 -40 -41 -12 17 25 16 25 -15 39 l-31 14 43 10 c25
5 42 14 42 23 0 30 -82 171 -103 177 -15 4 -18 8 -10 18 13 17 9 42 -17 101
-17 39 -26 47 -48 48 l-27 1 25 7 c28 8 38 41 18 62 -7 8 -15 38 -17 68 -1 29
-9 69 -17 87 -8 20 -14 69 -14 121 0 66 -4 95 -16 112 -10 14 -13 26 -7 30 16
10 39 214 25 219 -17 5 -15 32 2 32 10 0 17 16 22 45 8 54 1 75 -25 75 -11 0
-23 5 -27 11 -5 8 3 10 25 7 38 -6 55 16 65 83 7 45 6 47 -24 57 -16 6 -30 18
-30 26 0 18 25 12 53 -12 9 -8 19 -13 21 -11 9 11 25 72 20 80 -3 5 3 23 13
40 13 24 15 33 6 36 -23 8 -14 32 14 35 21 2 29 11 41 48 8 24 24 51 34 60 20
16 24 41 12 78 -6 22 -5 23 15 10 27 -16 41 0 33 39 -4 21 -2 25 11 20 16 -6
57 26 57 44 0 4 27 35 60 68 33 34 60 64 60 68 0 4 -12 19 -27 35 -14 15 -24
31 -20 34 8 8 57 -23 57 -35 0 -20 40 3 52 30 8 19 15 24 20 16 6 -9 8 -9 8 1
0 7 4 11 9 7 5 -3 12 4 16 15 3 11 11 20 16 20 5 0 25 15 44 34 19 19 35 30
37 25 4 -13 58 39 58 55 0 8 -11 21 -25 30 -14 9 -33 33 -42 51 -9 19 -20 35
-24 35 -4 0 -9 9 -12 20 -3 11 -10 20 -16 20 -6 0 -8 -7 -4 -16z"/>
<path d="M2117 4823 c5 -12 3 -14 -7 -8 -10 6 -12 4 -7 -9 5 -14 3 -17 -8 -13
-8 4 -21 -1 -30 -9 -16 -17 -21 -69 -6 -78 5 -4 16 -26 25 -51 8 -25 11 -43 5
-40 -13 8 -59 101 -53 107 2 3 -2 18 -11 34 -8 16 -15 23 -15 16 0 -8 -8 -10
-25 -6 -22 5 -25 3 -25 -19 0 -14 7 -27 15 -31 8 -3 15 -14 15 -25 0 -10 -7
-21 -15 -25 -10 -3 -15 1 -15 12 0 25 -33 70 -47 65 -7 -3 -13 -11 -13 -18 0
-7 -13 -16 -29 -20 -37 -8 -111 -65 -111 -85 0 -8 -20 -26 -45 -39 -25 -13
-59 -39 -74 -57 -16 -18 -32 -30 -35 -27 -6 7 -10 -21 -6 -47 1 -8 13 -27 28
-42 14 -15 23 -30 20 -33 -8 -8 -58 53 -58 71 0 25 -19 15 -35 -18 -25 -52
-38 -65 -74 -73 -24 -5 -30 -10 -22 -18 17 -17 13 -25 -20 -43 -27 -13 -30
-20 -25 -45 4 -22 2 -29 -11 -29 -30 0 -78 -88 -68 -127 4 -16 1 -21 -8 -17
-16 6 -42 -21 -33 -34 3 -4 -4 -15 -15 -22 -13 -10 -19 -26 -19 -54 0 -25 -6
-43 -17 -51 -14 -11 -15 -15 -4 -28 14 -18 7 -37 -15 -37 -8 0 -14 -10 -14
-26 0 -14 -4 -34 -10 -44 -8 -16 -5 -20 25 -30 51 -17 54 -32 6 -24 -48 8 -48
8 -59 -98 -7 -70 -6 -78 9 -78 9 0 20 -7 23 -16 5 -13 1 -15 -19 -12 -23 5
-25 2 -25 -34 0 -35 2 -38 24 -32 16 4 25 1 30 -12 8 -20 8 -19 -21 -28 -16
-5 -23 -3 -24 6 0 7 -4 4 -8 -7 -12 -28 -5 -35 32 -36 18 0 41 -4 52 -8 15 -6
5 -10 -38 -15 -52 -7 -57 -9 -40 -21 15 -11 16 -19 8 -52 -6 -21 -8 -51 -5
-68 5 -29 7 -30 75 -36 63 -5 65 -6 20 -7 -79 -3 -93 -9 -88 -40 7 -47 26
-117 34 -128 5 -6 6 -14 3 -17 -12 -12 63 -18 118 -9 32 5 55 6 53 2 -3 -4
-26 -11 -52 -15 -90 -12 -93 -14 -93 -50 0 -20 26 -83 71 -171 39 -76 76 -149
83 -162 7 -15 17 -21 29 -18 14 3 16 0 11 -16 -5 -18 -3 -20 20 -16 26 5 35
-5 16 -17 -16 -10 -12 -30 10 -55 11 -13 20 -26 20 -29 0 -7 27 -38 109 -126
21 -22 44 -50 52 -61 32 -47 132 -149 148 -149 11 0 15 -8 13 -26 -2 -15 15
-58 42 -110 25 -46 46 -93 46 -105 0 -32 24 -58 46 -50 25 10 30 7 26 -17 -2
-12 1 -17 7 -13 16 10 13 -11 -6 -40 -18 -28 -20 -141 -2 -159 5 -5 9 -33 9
-63 0 -49 2 -54 20 -49 26 7 26 -18 0 -40 -21 -18 -26 -43 -11 -58 4 -6 5 -39
2 -74 -5 -46 -3 -67 6 -77 11 -11 10 -22 -7 -66 -25 -65 -27 -123 -5 -114 9 3
15 0 15 -8 0 -8 -5 -16 -11 -18 -5 -2 -14 -20 -19 -41 -9 -40 -3 -80 10 -72 5
3 12 0 15 -6 5 -7 18 -1 36 17 36 34 37 19 4 -46 -31 -61 -31 -72 0 -87 22
-10 25 -9 25 8 0 29 33 129 43 129 9 0 5 -29 -10 -66 -4 -11 -3 -15 4 -11 14
9 23 -15 23 -59 0 -19 4 -34 9 -34 11 0 17 18 26 75 3 22 10 47 16 55 7 11 8
9 5 -10 -3 -14 -7 -45 -11 -69 -6 -44 -5 -45 14 -27 10 9 25 32 32 49 13 31
13 31 19 7 l6 -25 17 32 c9 18 17 44 17 58 0 16 4 24 11 20 7 -5 8 -25 4 -56
-5 -37 -3 -56 9 -74 9 -13 13 -31 10 -39 -4 -11 0 -16 15 -16 12 0 21 3 21 8
4 68 11 115 19 129 7 13 8 3 4 -36 -7 -65 13 -68 33 -5 l13 39 -2 -53 c-1 -28
0 -52 3 -52 3 0 15 22 27 48 l21 47 1 -50 c1 -28 6 -56 13 -63 18 -18 55 -15
62 5 6 15 9 15 16 3 5 -8 6 -18 4 -22 -6 -9 67 -11 89 -2 11 4 14 17 11 47 -4
41 -4 42 6 10 19 -59 30 -36 32 65 l2 97 3 -85 c6 -134 23 -122 24 15 1 148
17 127 19 -25 l2 -105 17 50 c11 32 20 44 24 35 3 -9 6 -10 6 -3 1 7 7 10 14
7 22 -8 50 71 43 119 -4 25 -3 38 2 32 14 -16 41 -97 46 -140 2 -22 8 -48 11
-58 4 -9 3 -17 -2 -17 -11 0 -33 67 -33 100 0 42 -14 11 -17 -37 -2 -49 27
-136 34 -98 3 17 10 20 51 16 26 -2 53 -8 60 -13 7 -6 15 -9 18 -6 7 8 -16 97
-27 104 -5 3 -9 14 -9 25 0 16 10 22 36 18 4 0 10 5 14 11 13 22 26 3 49 -71
21 -66 25 -70 47 -65 14 4 24 2 24 -4 0 -5 5 -10 11 -10 7 0 8 7 4 18 -4 9 -8
37 -11 62 l-3 45 14 -32 c34 -74 53 -46 25 38 -27 79 -21 99 8 25 12 -32 22
-79 22 -106 0 -55 7 -60 79 -60 47 0 48 1 61 41 11 33 11 54 1 117 -7 42 -18
86 -24 97 -17 33 -50 54 -74 48 -27 -6 -30 5 -6 22 15 11 15 13 -6 20 -32 10
-36 1 -17 -36 9 -18 14 -34 11 -37 -10 -10 -35 22 -46 59 -7 21 -19 45 -28 52
-21 18 -96 45 -146 53 -22 3 -57 14 -79 25 -43 20 -56 18 -56 -12 0 -30 -16
-23 -30 14 -20 49 -30 59 -46 46 -8 -6 -14 -22 -14 -35 0 -12 -5 -26 -11 -30
-8 -4 -9 5 -5 33 6 32 3 42 -13 58 -25 22 -23 33 -31 -155 l-3 -85 -8 124 c-5
81 -12 128 -21 136 -7 6 -38 19 -68 30 -30 10 -64 24 -75 32 -27 18 -35 16
-35 -7 0 -11 -5 -20 -10 -20 -7 0 -7 -6 -1 -19 8 -14 7 -20 -4 -25 -21 -8 -26
7 -17 56 10 51 6 69 -14 61 -9 -3 -14 1 -14 11 0 9 -23 39 -51 66 -50 48 -50
48 -59 24 -15 -39 -23 -28 -17 23 4 38 0 57 -21 98 -29 56 -47 77 -56 68 -3
-4 -6 -1 -6 6 0 7 -5 9 -10 6 -18 -11 -23 25 -6 50 19 29 20 48 4 76 -11 17
-10 22 5 33 9 7 17 18 17 25 0 6 4 11 9 11 5 0 12 8 15 18 4 11 19 25 34 33
15 8 32 19 38 25 15 14 99 7 133 -10 34 -18 70 -58 112 -126 38 -63 54 -81 62
-74 3 3 13 -6 23 -21 12 -18 20 -23 27 -16 16 16 27 13 27 -8 0 -18 14 -26 88
-50 19 -6 32 -6 32 0 0 12 27 12 32 0 4 -12 168 -62 180 -55 4 3 8 0 8 -5 0
-6 5 -11 11 -11 5 0 7 5 4 10 -11 18 12 10 26 -9 14 -19 130 -61 168 -61 11 0
44 -9 73 -21 61 -24 128 -34 128 -18 0 5 -7 24 -16 40 -8 17 -13 36 -11 42 3
7 8 4 12 -8 37 -98 42 -105 81 -105 33 0 36 2 31 23 -5 18 -1 15 22 -13 22
-26 42 -37 82 -47 79 -18 207 -17 226 2 10 11 19 12 27 6 27 -23 139 19 144
54 2 12 -12 51 -31 89 l-34 67 33 -32 c19 -18 34 -29 34 -23 0 5 4 2 10 -6 5
-8 11 -12 14 -9 4 3 -12 31 -35 63 -49 68 -46 83 5 26 20 -22 39 -40 42 -40
14 0 -9 57 -33 82 -25 26 -25 27 -5 23 12 -2 26 -6 31 -9 16 -10 19 18 9 82
-9 58 -8 65 11 81 11 10 25 30 31 45 19 51 12 78 -32 123 -48 49 -47 54 2 18
18 -13 36 -22 40 -20 11 7 0 53 -16 66 -18 15 -18 29 0 29 11 0 26 40 26 72 0
5 -17 16 -37 25 -26 12 -33 18 -21 20 9 3 27 -1 38 -7 59 -31 79 85 24 135
l-29 26 39 -16 c31 -12 41 -13 47 -3 4 7 0 17 -9 24 -23 17 -8 29 40 30 22 0
43 5 46 10 4 6 15 13 25 17 10 4 17 17 17 33 0 25 2 25 40 19 43 -7 71 2 49
16 -20 12 -2 24 34 24 l32 0 3 76 c3 69 0 79 -22 106 -17 20 -23 37 -19 54 4
23 0 28 -39 44 l-43 18 28 12 c24 10 26 13 14 23 -8 7 -17 25 -20 41 -5 23
-14 32 -44 42 -21 6 -47 18 -58 25 -19 14 -19 14 1 14 11 0 25 -5 31 -11 7 -7
17 -8 29 -1 16 9 15 11 -5 22 -19 10 -22 17 -17 42 5 23 -5 60 -39 143 -25 62
-45 122 -45 134 0 20 -10 24 -95 34 -17 2 -7 5 23 6 42 1 52 4 52 19 0 33 -12
62 -26 62 -8 0 -14 7 -14 15 0 8 5 15 11 15 6 0 1 9 -12 21 -14 12 -18 19 -8
16 11 -4 21 6 31 29 15 32 14 34 -3 34 -21 0 -26 16 -7 22 8 3 4 10 -10 17
-22 12 -22 14 -8 30 23 26 7 73 -30 86 -50 18 -77 36 -67 46 12 12 45 1 37
-12 -3 -5 2 -6 10 -3 9 3 13 10 10 15 -3 5 2 9 10 9 17 0 22 25 8 34 -5 3 -32
7 -60 8 -27 2 -48 6 -45 10 2 5 10 8 17 8 8 0 19 7 26 15 10 12 8 18 -11 35
-39 33 -64 34 -124 7 -30 -14 -55 -22 -55 -17 0 5 8 11 18 15 9 3 25 16 34 29
18 24 18 25 -15 31 -17 4 -34 11 -37 15 -3 4 -31 10 -62 13 -43 4 -60 2 -69
-10 -14 -16 -13 -104 2 -113 5 -4 18 -43 30 -89 18 -72 19 -89 9 -134 -7 -29
-25 -73 -41 -100 -16 -26 -29 -50 -29 -52 0 -3 -11 -23 -25 -44 -14 -21 -28
-51 -31 -66 -3 -16 -7 -32 -10 -36 -2 -4 4 -12 13 -18 17 -10 17 -10 1 -11
-10 0 -18 5 -18 10 0 25 -22 4 -60 -57 -75 -122 -138 -231 -177 -305 -21 -40
-41 -75 -44 -78 -3 -3 -22 -34 -41 -70 -20 -36 -52 -94 -72 -128 -20 -35 -36
-68 -36 -73 0 -5 -4 -9 -8 -9 -5 0 -23 -30 -41 -67 -35 -71 -126 -213 -145
-225 -8 -5 -7 -8 2 -8 6 0 12 -6 12 -13 0 -15 -50 -20 -210 -21 -87 -1 -111 3
-142 19 -104 57 -228 234 -228 326 0 44 41 137 122 279 29 51 47 100 42 114
-5 13 -22 16 -85 16 -73 0 -159 -17 -159 -31 0 -10 -62 -102 -101 -150 -21
-25 -61 -58 -91 -74 -47 -26 -66 -30 -163 -35 -126 -6 -179 3 -215 36 -17 15
-33 21 -47 18 -24 -7 -42 13 -19 22 22 8 20 30 -5 65 -11 16 -32 57 -46 91
-37 91 -27 149 48 297 32 63 62 117 66 120 5 3 15 20 23 36 8 17 41 72 73 123
31 51 57 100 57 108 0 8 3 14 8 14 4 0 18 21 32 48 14 26 47 85 74 132 27 47
60 105 74 130 13 25 39 70 56 100 46 79 49 91 30 105 -23 16 -9 38 16 25 15
-8 22 -3 41 28 35 57 49 83 49 93 0 5 19 39 42 75 l41 66 -15 42 c-8 23 -24
45 -36 51 -12 5 -24 17 -27 26 -6 19 -162 179 -175 179 -4 0 -11 -11 -14 -25
-6 -25 -7 -24 -61 30 -58 58 -68 65 -58 38z"/>
<path d="M2875 4347 c-81 -99 -164 -290 -153 -352 3 -13 1 -22 -3 -19 -5 3 -9
0 -9 -5 0 -6 4 -11 8 -11 5 0 7 -13 4 -28 -2 -17 2 -35 10 -43 9 -8 15 -34 15
-60 0 -58 8 -72 34 -59 10 6 19 18 19 26 0 9 11 25 24 35 13 10 36 42 51 71
15 29 31 55 35 58 16 11 93 158 96 185 2 11 0 14 -2 8 -10 -23 -36 -15 -32 10
2 14 9 21 21 21 9 -1 17 5 17 13 0 16 -30 84 -40 93 -3 3 -16 20 -29 38 -23
33 -48 40 -66 19z"/>
<path d="M2510 4329 c0 -10 -41 -69 -67 -97 -18 -19 -16 -42 3 -42 8 0 13 -4
10 -9 -3 -5 -16 -7 -27 -4 -15 4 -20 2 -17 -8 2 -7 -7 -26 -21 -42 -28 -31
-52 -82 -44 -91 4 -3 0 -6 -9 -6 -11 0 -88 -126 -88 -146 0 -2 46 -5 103 -7
l102 -3 -108 -2 -107 -2 -43 -67 c-24 -38 -59 -97 -78 -133 -19 -36 -37 -67
-40 -70 -4 -3 -15 -21 -26 -40 -10 -19 -31 -54 -46 -77 -15 -24 -27 -44 -27
-47 0 -2 -16 -30 -35 -62 -19 -32 -35 -67 -35 -78 0 -12 -10 -31 -23 -42 -12
-12 -33 -43 -47 -69 l-25 -46 24 -20 c20 -16 40 -19 137 -19 125 0 111 -7 167
80 50 77 44 89 -38 90 -41 1 -47 3 -32 11 12 7 40 8 71 5 59 -8 59 -8 97 64
38 71 41 73 148 79 60 4 104 11 114 20 14 11 17 11 17 0 0 -12 50 -14 293 -12
160 1 312 2 337 3 25 1 59 -1 75 -4 56 -12 60 4 20 80 -72 137 -96 153 -189
129 -28 -7 -55 -11 -59 -8 -18 11 -247 14 -266 3 -16 -8 -23 -5 -39 14 -17 22
-28 25 -123 30 -57 3 -108 6 -113 6 -16 0 2 56 35 109 33 53 32 65 -6 74 -12
3 -7 5 15 6 38 1 31 16 -10 24 -16 3 -10 5 17 6 37 1 45 5 59 32 9 17 14 42
11 55 -3 16 0 24 9 24 20 0 17 17 -3 29 -16 8 -14 10 10 16 32 8 33 13 10 31
-15 11 -16 15 -4 23 9 6 11 15 6 27 -4 11 -7 49 -6 87 l3 67 -32 6 c-17 4 -34
13 -37 20 -6 17 -23 19 -23 3z"/>
<path d="M4448 3983 c-7 -15 -20 -36 -31 -47 -18 -18 -18 -17 -24 2 -15 57
-57 -29 -44 -90 6 -29 11 -33 37 -32 52 3 141 33 141 49 0 10 -11 15 -31 16
-30 0 -31 0 -10 15 21 15 23 54 3 54 -14 0 -11 28 3 32 8 3 4 9 -10 17 -20 11
-23 9 -34 -16z"/>
<path d="M3591 3939 c-25 -9 -56 -26 -69 -38 -24 -21 -24 -22 -6 -42 17 -19
18 -22 2 -33 -15 -11 -15 -15 2 -53 14 -32 25 -41 50 -47 47 -9 53 -8 47 9 -4
8 -2 17 3 20 6 4 10 -3 10 -14 0 -19 6 -21 60 -21 32 0 71 5 85 12 22 10 25
16 19 42 -4 17 -10 40 -15 51 -12 30 -69 88 -109 111 -33 19 -37 19 -79 3z"/>
<path d="M2563 3828 c-21 -23 -63 -93 -63 -105 0 -10 144 8 158 19 14 12 7 62
-12 88 -18 25 -59 24 -83 -2z"/>
<path d="M4485 3823 c-11 -3 -24 -9 -29 -14 -6 -5 -24 -9 -40 -9 -56 -1 -67
-19 -63 -96 14 -218 18 -244 43 -244 12 0 12 -4 2 -22 -7 -13 -17 -26 -22 -29
-17 -13 2 -36 33 -42 31 -7 44 -27 17 -27 -8 0 -17 -4 -20 -9 -8 -13 22 -81
35 -81 7 0 9 -10 5 -26 -5 -19 5 -50 39 -119 25 -51 45 -96 45 -100 0 -4 14
-35 31 -69 17 -33 31 -62 30 -64 -1 -1 6 -18 14 -38 8 -20 15 -42 15 -48 1
-15 31 -51 55 -64 18 -10 18 -11 3 -17 -10 -4 -14 -13 -11 -23 9 -23 23 -32
55 -32 15 0 30 -5 34 -11 5 -9 -3 -10 -30 -5 -34 6 -36 5 -36 -18 0 -30 16
-40 93 -56 31 -6 57 -15 57 -19 0 -17 -14 -19 -58 -5 -54 16 -92 18 -92 5 0
-5 16 -15 35 -21 57 -19 54 -33 -6 -25 -51 6 -56 5 -83 -24 -19 -19 -40 -31
-56 -31 -14 0 -30 -4 -36 -9 -5 -5 -25 -14 -44 -20 -49 -16 -151 -81 -144 -92
3 -5 1 -9 -4 -9 -14 0 -37 -223 -24 -228 7 -2 12 -8 12 -13 0 -4 -7 -6 -15 -3
-14 6 -19 -5 -16 -34 1 -8 -2 -19 -7 -25 -9 -12 -24 -128 -27 -212 -1 -22 -4
-47 -8 -55 -6 -14 -23 -120 -34 -220 -3 -24 -12 -50 -21 -56 -8 -6 -12 -16 -8
-22 4 -7 -4 -22 -19 -35 l-27 -23 39 -41 c21 -22 48 -46 61 -52 27 -14 30 -51
3 -51 -18 0 -67 47 -104 100 -13 19 -19 22 -26 12 -4 -8 -12 -13 -17 -13 -15
1 -73 -20 -79 -29 -3 -5 0 -21 5 -36 9 -24 9 -25 -5 -14 -8 7 -15 18 -15 26 0
16 -24 22 -70 18 -19 -1 -48 -3 -64 -3 -25 -1 -28 -4 -21 -28 5 -23 4 -25 -9
-14 -9 7 -14 17 -11 21 2 4 -7 12 -21 19 -31 14 -77 15 -69 1 10 -17 23 -110
14 -110 -10 0 -49 50 -49 62 0 6 7 8 14 5 10 -4 13 -1 9 9 -3 7 -13 14 -23 14
-16 0 -18 -6 -14 -38 l4 -37 -19 40 c-11 22 -22 47 -24 55 -4 15 -79 43 -262
98 -38 12 -91 28 -116 36 -26 8 -71 18 -100 21 -30 4 -65 15 -79 24 -14 10
-65 28 -115 41 -49 12 -128 35 -175 51 -78 26 -86 27 -91 11 -6 -15 -8 -14
-15 4 -10 24 -99 107 -126 117 -10 3 -15 13 -12 24 3 11 -7 31 -26 51 -16 18
-30 37 -30 42 0 5 -12 21 -26 35 -28 28 -63 28 -95 -1 -9 -8 -18 -12 -21 -9
-3 3 -8 -6 -10 -20 -4 -19 1 -30 16 -41 17 -12 18 -16 7 -23 -32 -20 42 -189
117 -268 37 -38 88 -73 107 -73 9 0 30 -11 47 -25 16 -13 48 -29 71 -35 23 -6
65 -17 92 -25 101 -29 95 -29 95 -1 0 14 5 28 10 31 16 10 40 -14 40 -40 0
-16 8 -25 25 -29 14 -4 25 -11 25 -16 0 -6 12 -10 26 -10 14 0 35 -5 47 -12
12 -7 32 -14 45 -15 12 -2 53 -20 90 -40 200 -109 261 -209 250 -417 -5 -101
-25 -153 -61 -161 -12 -2 -73 -6 -135 -8 -62 -3 -118 -9 -124 -15 -7 -7 -4
-30 11 -76 11 -36 21 -69 21 -75 0 -9 -54 -7 -90 4 -17 5 -20 2 -20 -24 0 -20
7 -34 19 -41 22 -11 125 -13 183 -4 34 6 37 9 40 43 l4 36 10 -35 10 -35 132
-3 c139 -3 180 7 201 46 11 21 34 132 67 332 14 85 32 180 40 210 9 30 16 63
16 72 -1 14 3 15 18 6 14 -9 21 -8 33 4 10 9 54 19 126 27 121 13 144 18 135
32 -3 6 5 7 20 3 33 -8 33 6 1 44 -38 46 -30 51 14 8 46 -44 73 -45 82 -1 4
17 7 23 8 14 1 -12 8 -15 25 -12 33 7 98 62 92 79 -3 8 1 14 9 14 24 0 57 52
50 80 -3 14 -8 44 -10 68 -5 40 -4 43 15 37 27 -9 25 0 -12 46 -36 45 -31 61
11 36 37 -22 41 -21 41 2 0 11 4 23 10 26 5 3 8 35 6 71 -1 36 1 67 4 69 10 6
20 84 13 101 -2 7 -11 10 -19 7 -8 -3 -22 1 -32 10 -9 8 -32 22 -49 31 -18 9
-33 21 -33 26 0 17 39 11 58 -8 10 -10 23 -17 29 -15 5 2 16 -3 23 -12 7 -8
19 -15 26 -15 21 0 17 44 -6 58 -26 16 -25 26 4 40 19 8 26 21 30 54 4 24 8
54 9 68 2 14 9 38 16 54 12 30 19 60 20 87 1 11 13 19 36 23 19 4 35 10 35 14
0 14 55 39 99 46 54 8 140 47 163 73 23 26 31 69 32 173 0 85 -18 165 -35 155
-9 -6 -10 -2 -13 47 -1 15 -12 41 -24 58 -13 17 -20 35 -17 40 3 5 -16 58 -43
117 -27 60 -56 126 -63 148 -11 31 -22 41 -47 49 -38 10 -44 31 -7 24 16 -3
25 -1 25 7 0 19 -24 25 -91 25 -36 0 -59 4 -59 11 0 7 22 9 68 4 l67 -6 -24
19 c-13 11 -21 24 -17 30 4 6 -7 47 -24 91 -17 45 -29 85 -25 91 3 5 1 27 -4
47 -6 21 -7 41 -2 46 16 16 0 57 -23 58 -17 1 -17 2 -3 6 13 3 17 15 17 48 0
24 -6 50 -13 56 -7 7 -11 25 -9 41 2 15 1 44 -2 63 -6 30 -11 35 -34 34 -15
-1 -36 -3 -47 -6z"/>
<path d="M3355 3810 l-60 -7 58 -1 c31 -1 57 -6 57 -11 0 -11 -86 -22 -117
-14 -24 5 -25 4 -21 -21 4 -22 1 -29 -16 -36 -48 -18 -50 -34 -15 -107 44 -93
78 -143 98 -143 9 0 24 14 33 30 17 30 17 30 -7 30 -13 0 -27 5 -30 10 -3 6 5
10 19 10 32 0 56 10 56 22 0 6 -19 8 -45 6 -27 -2 -44 1 -41 7 2 5 26 9 53 7
51 -2 51 -2 82 46 17 27 31 55 31 64 0 25 -50 118 -63 116 -6 -1 -39 -4 -72
-8z"/>
<path d="M3553 3673 c-28 -5 -173 -227 -173 -265 0 -4 7 -8 15 -8 8 0 15 -4
15 -10 0 -13 -17 -13 -25 1 -5 7 -12 5 -23 -4 -14 -13 -59 -15 -254 -15 -130
0 -243 -4 -250 -8 -7 -5 -56 -9 -108 -9 -52 0 -120 -7 -150 -14 -74 -17 -75
-17 -77 -7 -3 17 -28 26 -71 26 -26 0 -41 4 -37 10 4 6 -10 10 -34 10 -45 0
-48 -5 -27 -53 18 -42 45 -72 74 -81 12 -4 22 -12 22 -17 0 -6 -9 -7 -21 -4
-12 4 -20 3 -17 -1 22 -47 33 -64 42 -63 6 1 20 1 31 -1 l20 -1 -20 -10 c-16
-8 -15 -8 8 -4 19 4 26 2 22 -5 -3 -5 -5 -11 -3 -11 4 -2 245 -19 281 -21 37
-1 44 -33 21 -95 -10 -26 -21 -50 -25 -53 -3 -3 -21 -32 -39 -65 -19 -33 -47
-79 -62 -103 -16 -23 -36 -58 -44 -77 l-14 -35 72 6 c52 5 70 3 63 -4 -5 -6
-41 -12 -80 -14 l-70 -3 2 -50 c3 -47 22 -99 50 -134 7 -9 18 -24 25 -33 7
-10 24 -19 37 -20 25 -3 46 24 147 197 50 86 77 131 109 183 11 19 53 89 93
158 41 70 79 124 87 124 20 0 19 -13 -6 -52 -11 -18 -47 -78 -78 -133 -32 -55
-85 -145 -117 -199 -126 -213 -143 -242 -167 -290 l-19 -39 23 -18 c17 -13 44
-17 113 -18 102 -1 126 4 126 25 0 8 9 14 19 14 20 0 35 22 117 175 26 50 65
117 85 150 72 115 87 141 134 230 26 50 56 102 66 117 11 14 19 28 19 31 0 8
63 110 78 125 6 7 12 18 12 23 0 5 11 32 25 61 14 28 25 55 25 60 0 4 -20 8
-45 8 -25 0 -45 5 -45 10 0 7 13 9 33 5 47 -8 91 7 95 32 2 12 -3 23 -10 26
-7 2 -3 2 9 0 15 -2 26 4 34 19 7 13 15 25 18 28 4 3 23 37 44 77 36 69 39 97
13 115 -11 8 -174 8 -213 1z"/>
<path d="M2280 3333 c0 -5 -18 -37 -40 -71 -22 -33 -40 -64 -40 -67 0 -6 -11
-20 -38 -50 -29 -32 -25 -71 13 -147 45 -89 72 -128 88 -128 22 0 73 55 105
112 18 32 32 59 31 60 -1 2 4 21 10 42 11 42 0 73 -75 200 -27 46 -54 70 -54
49z"/>
<path d="M1948 3062 c-92 -2 -128 -6 -129 -15 -3 -28 4 -49 31 -98 l29 -53 47
47 c26 26 49 45 52 42 3 -3 -13 -25 -36 -48 -59 -60 -55 -84 18 -122 27 -14
52 -16 132 -13 106 4 123 12 113 55 -9 37 -98 194 -115 201 -8 4 -72 6 -142 4z"/>
<path d="M1774 788 c-4 -13 -7 -28 -6 -35 2 -7 -21 -54 -50 -105 -29 -51 -65
-122 -80 -157 -24 -55 -25 -65 -13 -78 12 -11 15 -12 15 -1 0 10 2 10 8 0 13
-19 33 9 90 123 45 90 51 109 55 182 5 82 -4 115 -19 71z"/>
<path d="M2306 597 c-3 -13 -8 -46 -11 -73 -7 -58 -15 -71 -15 -24 0 60 -21
18 -23 -46 l-2 -59 162 -3 c197 -3 198 -3 188 97 -10 95 -13 107 -36 107 -17
0 -20 -6 -17 -26 2 -15 -2 -32 -9 -39 -14 -13 -16 -10 -14 34 1 33 -14 64 -25
52 -4 -4 -9 -47 -11 -95 -3 -48 -7 -94 -9 -102 -11 -33 -24 17 -25 100 l-1 85
-16 -35 c-14 -31 -16 -33 -20 -12 -6 37 -20 25 -28 -25 -11 -76 -19 -74 -24 7
-5 72 -6 75 -31 78 -21 2 -28 -2 -33 -21z"/>
<path d="M1737 504 c-31 -62 -53 -114 -50 -118 10 -9 126 -7 143 3 9 7 15 30
16 72 1 55 0 60 -12 44 -18 -25 -21 -20 -31 50 l-9 60 -57 -111z"/>
<path d="M2168 586 c-13 -7 -29 -11 -35 -9 -7 3 -14 -6 -17 -19 -35 -189 -36
-177 17 -171 73 8 87 13 87 31 0 15 -2 15 -11 2 -9 -12 -10 -12 -5 3 3 10 6
24 6 30 0 7 4 6 10 -3 7 -11 10 5 10 53 0 37 0 70 1 74 1 15 -40 21 -63 9z"/>
</g>
</svg>
