<?xml version="1.0" standalone="no"?>
<!DOCTYPE svg PUBLIC "-//W3C//DTD SVG 20010904//EN"
 "http://www.w3.org/TR/2001/REC-SVG-20010904/DTD/svg10.dtd">
<svg version="1.0" xmlns="http://www.w3.org/2000/svg"
 width="544.000000pt" height="544.000000pt" viewBox="0 0 544.000000 544.000000"
 preserveAspectRatio="xMidYMid meet">
<metadata>
Created by potrace 1.16, written by Peter Selinger 2001-2019
</metadata>
<g transform="translate(0.000000,544.000000) scale(0.100000,-0.100000)"
fill="#000000" stroke="none">
<path d="M0 2720 l0 -2720 2720 0 2720 0 0 2720 0 2720 -2720 0 -2720 0 0
-2720z m2875 2642 c83 -6 195 -21 250 -33 95 -19 404 -116 415 -129 3 -4 47
-28 99 -54 51 -25 116 -61 145 -80 28 -18 62 -39 76 -48 106 -65 366 -308 426
-398 13 -19 43 -62 66 -95 49 -67 144 -234 178 -310 34 -77 78 -217 95 -308 9
-45 21 -98 26 -118 5 -20 9 -62 9 -93 0 -101 21 -249 44 -316 22 -61 40 -104
159 -380 142 -332 161 -394 155 -516 -3 -65 -10 -94 -34 -140 -35 -70 -80
-104 -204 -152 -47 -18 -96 -38 -109 -45 -39 -19 -52 -68 -81 -287 -33 -251
-69 -465 -87 -525 -34 -112 -124 -208 -247 -265 -74 -33 -146 -52 -311 -80
-66 -11 -82 -25 -91 -79 -3 -20 -12 -63 -19 -96 -8 -33 -23 -116 -34 -185 -32
-200 -58 -261 -126 -299 -27 -15 -123 -16 -1070 -16 -1022 0 -1041 0 -1074 20
-19 11 -43 33 -55 48 -31 41 -27 179 8 362 31 155 67 365 86 496 19 130 9 346
-20 429 -25 72 -63 151 -85 178 -8 9 -42 54 -77 98 -35 45 -101 126 -146 180
-46 55 -111 140 -145 189 -59 87 -166 284 -182 335 -4 14 -16 43 -25 65 -26
58 -56 155 -89 285 -22 90 -41 288 -41 435 0 278 49 509 167 785 158 370 484
721 848 913 249 131 497 203 785 227 74 6 139 15 144 20 6 6 12 6 15 2 3 -5
74 -14 156 -20z"/>
<path d="M2507 5280 c-72 -8 -106 -14 -227 -39 -96 -20 -270 -84 -390 -143
-118 -58 -219 -114 -230 -128 -3 -4 -25 -20 -50 -37 -25 -18 -56 -42 -70 -55
-14 -13 -56 -50 -94 -82 -37 -32 -83 -75 -101 -95 -18 -20 -44 -48 -56 -62
-13 -14 -33 -38 -44 -53 -11 -16 -25 -33 -31 -40 -6 -6 -24 -31 -40 -55 -16
-24 -41 -62 -56 -85 -15 -23 -28 -46 -28 -53 0 -6 -4 -13 -8 -15 -10 -4 -82
-141 -112 -213 -40 -98 -93 -302 -111 -430 -30 -218 -22 -538 17 -648 8 -22
14 -50 14 -63 0 -24 47 -170 60 -189 4 -5 17 -41 29 -80 25 -77 81 -193 116
-240 12 -16 30 -45 39 -64 27 -51 144 -201 274 -350 25 -29 51 -61 57 -70 5
-10 26 -39 45 -65 120 -163 175 -388 150 -619 -15 -137 -73 -469 -126 -728
-18 -91 -16 -123 15 -160 l19 -24 459 -3 c252 -2 467 -1 478 2 13 3 21 14 21
31 2 31 9 39 24 30 7 -4 10 -20 8 -35 l-4 -28 125 -5 c69 -2 305 -2 524 0 444
4 457 6 481 65 22 54 59 299 46 312 -13 13 -13 76 0 76 6 0 10 -6 10 -12 1
-21 27 62 40 126 17 83 48 112 126 121 232 25 306 46 394 111 66 48 111 110
134 183 8 25 21 107 30 181 9 74 21 164 26 200 30 204 52 339 61 372 15 57 55
91 144 123 174 61 215 90 236 169 19 71 -2 221 -44 318 -8 18 -25 60 -37 93
-13 33 -36 87 -51 120 -15 33 -48 112 -74 175 -25 63 -52 124 -59 135 -22 33
-66 171 -66 205 0 54 -21 122 -36 116 -19 -7 -18 9 2 25 14 11 16 27 10 99
-11 152 -26 213 -101 415 -45 120 -70 175 -108 238 -52 84 -119 181 -162 232
-75 90 -250 261 -320 313 -38 29 -74 56 -80 60 -60 44 -253 146 -380 200 -94
40 -268 88 -388 107 -119 18 -423 27 -530 15z m202 -221 c316 4 590 -71 879
-243 209 -123 425 -325 527 -492 109 -178 159 -279 188 -384 39 -136 45 -169
52 -270 17 -275 30 -338 100 -500 20 -47 56 -132 80 -190 24 -58 56 -131 73
-163 16 -32 42 -95 57 -141 45 -137 25 -178 -117 -239 -47 -20 -91 -37 -96
-37 -21 0 -70 -35 -90 -64 -24 -36 -45 -146 -72 -376 -16 -134 -16 -134 -35
-250 -31 -201 -45 -263 -67 -294 -28 -39 -40 -48 -108 -83 -53 -26 -61 -27
-190 -26 -114 1 -156 6 -265 33 -71 17 -141 33 -155 36 -14 3 -54 14 -90 24
-36 11 -105 31 -155 45 -49 14 -139 41 -200 60 -60 19 -141 44 -180 55 -112
32 -169 67 -234 139 -32 36 -66 82 -76 101 -29 59 -44 70 -91 70 -53 0 -74
-20 -74 -69 0 -51 35 -145 55 -149 12 -3 16 -11 12 -28 -8 -43 68 -139 158
-199 64 -43 183 -87 340 -125 50 -12 99 -26 110 -30 11 -4 49 -18 85 -31 36
-13 76 -29 90 -36 14 -7 30 -13 36 -13 6 0 22 -9 35 -21 13 -12 43 -35 67 -52
23 -17 51 -46 62 -65 19 -32 35 -36 35 -9 0 7 12 13 28 15 15 2 27 -1 27 -7 0
-6 -9 -11 -20 -11 -18 0 -25 -10 -21 -32 0 -5 -3 -8 -8 -8 -5 0 -2 -26 6 -57
10 -40 14 -90 11 -159 -4 -118 -18 -148 -75 -163 -22 -5 -359 -8 -801 -7
l-764 1 -26 30 c-14 17 -33 28 -41 27 -11 -3 -9 3 7 18 13 13 22 33 22 52 0
17 4 47 10 67 33 127 80 490 80 626 0 41 -7 117 -16 167 -8 51 -17 103 -19
116 -4 25 -59 171 -82 217 -27 55 -78 125 -90 125 -7 0 -13 10 -13 23 0 22
-14 40 -109 142 -26 28 -62 69 -80 92 -18 23 -46 47 -61 53 -20 8 -30 21 -34
43 -8 36 -42 81 -70 91 -11 4 -16 12 -12 21 3 8 -8 39 -25 68 -143 251 -210
517 -210 834 0 90 2 166 5 171 2 4 9 43 15 87 10 71 49 234 70 290 20 52 136
284 157 312 13 17 24 34 24 37 0 12 115 155 173 215 62 63 143 133 211 181 19
14 36 32 36 40 0 12 2 13 9 1 6 -10 10 -10 16 -1 7 11 140 100 150 100 2 0 39
17 82 38 146 71 201 89 408 131 50 11 92 17 94 15 2 -1 10 4 18 12 8 8 19 11
25 8 6 -4 72 -6 147 -5z"/>
<path d="M2500 4949 c-25 -4 -66 -11 -92 -14 -47 -6 -48 -7 -48 -43 l-1 -37
-15 28 c-8 15 -18 27 -22 27 -4 0 -40 -11 -80 -25 -41 -14 -78 -25 -84 -25
-37 0 -327 -165 -389 -221 -14 -13 -48 -42 -74 -64 -68 -56 -115 -102 -115
-112 0 -5 14 -26 31 -48 l32 -40 -38 39 -39 39 -40 -46 c-57 -62 -126 -152
-126 -163 0 -5 -9 -20 -20 -34 -11 -14 -20 -37 -20 -52 0 -14 -6 -28 -12 -31
-10 -3 -10 -9 0 -27 13 -21 12 -22 -11 -16 -36 9 -46 -13 -16 -37 23 -18 23
-19 4 -33 -10 -8 -24 -14 -31 -14 -15 0 -43 -43 -55 -83 -7 -24 -5 -35 8 -49
15 -17 15 -18 -9 -18 -21 0 -27 -7 -36 -39 -10 -40 -2 -61 23 -61 6 0 20 -7
31 -15 17 -13 15 -14 -27 -9 l-46 6 -7 -73 c-3 -41 -9 -117 -12 -171 l-7 -96
49 -15 49 -15 -48 -1 -48 -1 7 -67 c9 -96 9 -97 17 -110 4 -7 30 -10 70 -8
l62 4 -65 -11 c-36 -6 -66 -12 -67 -13 -5 -3 29 -171 37 -184 6 -11 20 -11 73
-1 36 6 72 10 79 7 7 -2 -14 -10 -47 -16 -83 -17 -85 -18 -85 -40 0 -35 134
-321 151 -321 5 0 9 -7 9 -15 0 -13 19 -20 43 -16 4 1 3 -7 -2 -18 -13 -24 -4
-33 21 -20 28 15 33 4 8 -19 -21 -20 -21 -21 -3 -39 10 -10 38 -43 63 -73 25
-29 74 -86 110 -125 96 -105 123 -138 140 -171 8 -16 21 -35 28 -42 6 -7 12
-19 12 -26 0 -7 9 -23 19 -35 23 -26 91 -192 91 -221 0 -25 5 -25 41 1 35 25
36 17 5 -34 -22 -36 -23 -41 -11 -100 34 -162 19 -513 -32 -757 -2 -14 -7 -52
-10 -86 -6 -89 -10 -88 241 -95 116 -3 213 -2 214 3 2 4 7 6 12 3 4 -2 82 -7
173 -9 143 -5 166 -3 171 10 3 9 7 55 8 102 l2 87 3 -75 c5 -119 3 -116 76
-122 35 -3 166 -2 290 2 222 8 227 8 247 31 18 21 19 34 14 99 -9 122 -47 189
-106 190 -29 0 -38 14 -15 23 8 4 5 11 -10 24 -41 32 -106 60 -243 103 -74 23
-146 46 -160 52 -46 19 -69 19 -79 1 -9 -16 -11 -15 -20 10 -6 15 -18 27 -27
27 -20 0 -175 83 -211 113 -49 40 -100 94 -107 113 -7 17 -10 16 -32 -11 l-24
-30 6 47 c5 37 2 57 -16 95 -52 109 -63 176 -44 263 7 36 43 72 90 93 36 17
49 17 96 8 30 -7 64 -20 74 -30 31 -30 64 -71 64 -79 0 -8 61 -91 85 -118 27
-29 100 -65 161 -79 37 -8 72 -20 78 -24 6 -5 25 -11 41 -14 17 -3 66 -17 110
-31 44 -14 94 -30 110 -35 64 -19 244 -73 320 -97 77 -24 111 -31 255 -55 96
-16 211 -4 277 28 67 33 73 53 39 121 -34 68 -33 73 9 32 41 -40 47 -22 10 32
-33 49 -32 58 4 24 46 -44 52 -6 9 56 -26 37 -22 46 7 18 14 -13 26 -22 28
-19 7 8 27 117 38 209 l11 95 -42 37 c-53 47 -48 59 8 18 43 -31 55 -23 27 17
-14 20 -14 23 4 32 15 8 22 34 36 122 l17 111 -29 30 -28 30 33 -16 33 -17 37
40 c35 38 167 121 194 121 6 0 30 12 51 27 38 26 39 29 35 75 -3 28 -13 57
-24 69 -10 12 -18 23 -16 25 1 2 -1 16 -4 32 -8 32 -32 62 -51 62 -7 0 -13 5
-13 10 0 6 8 10 17 10 14 0 13 3 -6 16 -15 11 -19 20 -13 26 6 6 0 33 -20 76
-16 37 -37 85 -47 107 -10 22 -33 74 -50 115 -18 41 -36 82 -41 90 -4 9 -11
30 -15 48 -9 43 -30 62 -67 62 -17 0 -28 3 -25 7 4 3 23 6 42 5 19 -1 37 3 40
8 3 6 -5 10 -19 10 -30 0 -32 7 -9 32 15 17 16 31 5 153 -17 181 -20 195 -46
195 -19 1 -19 2 -4 11 21 12 18 45 -13 131 -24 66 -36 81 -56 73 -43 -17 -47
-15 -22 8 29 27 30 45 6 100 l-17 37 -63 -30 -62 -31 53 49 c52 47 60 73 28
85 -7 3 -16 18 -19 34 -4 15 -27 50 -52 77 -25 26 -45 51 -45 55 0 10 -50 61
-60 61 -5 0 -27 -18 -49 -40 -22 -22 -42 -40 -45 -40 -14 0 -3 15 40 56 l45
44 -38 45 c-20 25 -40 45 -43 45 -4 0 -28 21 -55 47 l-49 46 -44 -49 -44 -49
27 52 c23 44 25 55 13 65 -20 19 -76 58 -83 58 -3 0 -47 25 -98 55 -50 30 -99
55 -107 55 -9 0 -20 4 -26 10 -5 5 -18 11 -29 13 -11 1 -26 6 -34 11 -7 5 -29
12 -48 16 -26 6 -36 5 -40 -6 -8 -23 -23 -16 -23 11 0 18 -7 26 -25 31 -38 9
-53 -1 -61 -43 -12 -68 -23 -72 -24 -7 l0 62 -71 16 c-39 9 -108 16 -153 16
-69 -1 -79 -3 -63 -14 21 -16 22 -26 2 -26 -8 0 -20 9 -27 20 -9 14 -24 20
-52 20 l-38 0 6 -45 c9 -55 2 -58 -15 -7 -6 20 -17 40 -23 44 -14 9 -57 8
-116 -3z m370 -474 c50 -17 90 -56 152 -148 82 -120 92 -184 42 -271 -25 -43
-31 -76 -14 -76 6 0 10 -5 10 -10 0 -6 -8 -10 -17 -8 -21 4 -42 -35 -59 -109
-8 -34 -8 -55 -2 -61 16 -16 130 -3 144 17 16 21 9 31 -22 31 -14 0 -22 4 -19
10 3 6 27 10 51 10 43 0 49 4 120 75 40 41 96 86 124 100 45 23 61 25 171 25
137 0 166 -10 210 -75 13 -19 27 -35 32 -35 4 0 7 -4 7 -9 0 -6 14 -30 30 -54
17 -25 30 -51 30 -58 0 -8 7 -23 16 -34 26 -35 17 -129 -21 -211 -18 -40 -38
-75 -44 -78 -6 -4 -11 -14 -11 -23 0 -9 -22 -49 -49 -88 -27 -40 -52 -82 -56
-94 -3 -11 -10 -21 -14 -21 -4 0 -20 -26 -36 -57 -15 -32 -45 -83 -66 -114
-20 -31 -54 -90 -74 -130 -21 -40 -46 -85 -56 -101 -10 -15 -27 -40 -37 -55
-20 -30 -84 -146 -113 -205 -10 -20 -22 -38 -26 -40 -5 -1 -17 -21 -29 -43
-43 -84 -69 -130 -76 -133 -5 -2 -8 -9 -8 -15 0 -6 -23 -32 -50 -58 -54 -50
-37 -46 -227 -63 -24 -2 -63 2 -87 9 -24 8 -47 11 -50 7 -16 -15 -124 133
-186 257 -41 83 -38 117 23 242 35 71 43 97 34 107 -7 9 -7 16 -1 20 16 11 24
41 13 47 -11 7 -56 17 -79 17 -72 2 -67 5 -182 -119 -29 -32 -72 -64 -112 -83
-61 -30 -69 -32 -180 -31 -63 1 -128 6 -143 12 -49 18 -119 103 -162 194 -54
114 -47 189 29 324 22 39 40 75 40 81 0 5 3 10 8 10 4 0 19 21 32 47 14 26 33
56 43 67 9 11 17 24 17 28 0 5 8 18 18 28 18 20 66 101 132 225 36 66 231 406
271 470 10 17 23 41 29 54 6 13 19 36 30 51 11 16 20 34 20 42 1 7 21 36 46
63 l44 50 78 6 c105 9 209 3 262 -16z"/>
<path d="M2553 4400 c-12 -10 -36 -48 -53 -82 -18 -35 -40 -74 -49 -88 -28
-41 -21 -54 29 -60 42 -5 43 -6 17 -13 -15 -4 -32 -5 -37 -2 -31 19 -100 -53
-100 -106 0 -18 -6 -28 -20 -32 -11 -3 -25 -16 -30 -29 -6 -12 -19 -39 -30
-58 -10 -19 -16 -38 -13 -42 2 -5 22 -8 44 -8 27 0 39 4 39 14 0 10 17 17 55
21 30 4 59 12 64 19 16 19 17 40 2 41 -22 0 -26 25 -4 25 16 0 53 31 53 44 0
3 -10 7 -22 9 -21 4 -20 4 3 6 30 1 56 25 39 36 -16 10 0 26 20 20 13 -4 26 4
47 31 15 20 38 46 51 57 12 11 22 30 22 42 0 12 9 30 20 40 11 10 20 26 20 37
0 10 4 18 10 18 15 0 29 64 16 72 -6 4 -47 8 -92 8 -66 0 -84 -3 -101 -20z"/>
<path d="M2920 4280 c-19 -16 -21 -22 -10 -35 9 -10 9 -15 1 -15 -15 0 -14
-37 2 -43 7 -3 2 -9 -13 -13 l-25 -8 25 -6 c22 -6 21 -8 -17 -16 l-43 -9 15
-29 c19 -36 19 -36 -10 -36 -18 0 -25 -5 -25 -19 0 -10 -9 -30 -20 -44 -20
-25 -20 -25 0 -30 30 -8 15 -35 -16 -29 -25 4 -34 -12 -11 -22 6 -3 3 -4 -8
-3 -15 1 -19 -3 -17 -18 2 -11 3 -27 3 -37 0 -25 38 -30 57 -7 9 10 22 19 28
19 18 0 35 26 41 62 4 29 11 39 33 50 3 2 27 36 54 77 59 90 63 121 25 178
-38 54 -42 56 -69 33z"/>
<path d="M2234 3842 c-28 -35 -115 -182 -108 -182 3 0 -2 -7 -10 -16 -9 -8
-16 -21 -16 -27 0 -7 -16 -34 -35 -61 -19 -27 -35 -58 -35 -67 0 -10 -7 -22
-16 -27 -13 -7 -14 -13 -5 -31 11 -19 19 -22 64 -19 43 2 51 6 49 21 -2 9 2
17 7 17 5 0 38 24 72 54 34 30 74 57 90 60 30 6 41 26 14 26 -8 0 -15 4 -15 9
0 15 22 25 29 13 4 -7 12 -6 24 3 16 11 16 19 6 83 -13 79 -9 102 20 102 13 0
20 9 23 30 5 36 -4 40 -80 39 -50 0 -60 -4 -78 -27z"/>
<path d="M3490 3330 c-14 -17 -34 -33 -44 -36 -17 -6 -16 -8 10 -19 29 -12 29
-12 -26 -20 -65 -9 -130 -47 -130 -75 0 -32 -1 -34 -16 -51 -15 -16 -15 -44 0
-67 4 -7 5 -28 2 -47 -4 -19 -2 -36 4 -40 15 -9 2 -25 -19 -25 -27 0 -34 -36
-8 -37 11 -1 25 -7 31 -13 8 -9 1 -11 -26 -9 -20 2 -40 0 -44 -4 -4 -4 0 -7 9
-7 23 0 21 -12 -4 -34 -17 -14 -19 -20 -9 -26 11 -7 11 -11 1 -24 -12 -14 -10
-16 8 -16 11 0 21 -4 21 -10 0 -5 -17 -10 -37 -10 -47 0 -85 -35 -76 -70 5
-19 3 -21 -16 -15 -15 4 -21 2 -21 -9 0 -8 -6 -21 -12 -28 -20 -21 -68 -93
-68 -102 0 -5 -14 -25 -30 -45 -48 -56 -50 -60 -50 -70 0 -5 -7 -11 -15 -15
-8 -3 -15 -14 -15 -25 0 -38 119 -41 153 -3 8 9 19 29 22 45 4 15 12 27 19 27
6 0 33 44 61 98 27 53 67 124 88 157 21 32 35 65 33 72 -3 7 0 13 7 13 7 1 5
6 -5 14 -10 7 -18 25 -18 40 0 21 4 27 18 24 9 -2 16 -10 14 -16 -1 -7 3 -12
9 -12 5 0 7 -6 4 -12 -4 -7 3 -2 14 12 24 29 26 46 9 53 -7 3 -4 6 7 7 22 1
43 32 130 190 32 58 77 140 100 182 24 42 40 80 37 83 -3 3 -26 5 -51 5 -39 0
-50 -5 -71 -30z"/>
<path d="M1973 2923 c-29 -3 -46 -10 -53 -24 -7 -13 -7 -19 0 -19 5 0 10 -9
10 -20 0 -32 49 -50 140 -50 88 0 103 10 82 55 -20 44 -91 67 -179 58z"/>
</g>
</svg>
