<?xml version="1.0" standalone="no"?>
<!DOCTYPE svg PUBLIC "-//W3C//DTD SVG 20010904//EN"
 "http://www.w3.org/TR/2001/REC-SVG-20010904/DTD/svg10.dtd">
<svg version="1.0" xmlns="http://www.w3.org/2000/svg"
 width="544.000000pt" height="544.000000pt" viewBox="0 0 544.000000 544.000000"
 preserveAspectRatio="xMidYMid meet">
<metadata>
Created by potrace 1.16, written by Peter Selinger 2001-2019
</metadata>
<g transform="translate(0.000000,544.000000) scale(0.100000,-0.100000)"
fill="#000000" stroke="none">
<path d="M0 2720 l0 -2720 2720 0 2720 0 0 2290 0 2290 -50 0 c-41 0 -55 -5
-87 -32 -38 -34 -113 -108 -108 -108 1 0 -15 -19 -36 -42 -22 -24 -39 -46 -39
-50 0 -3 -17 -24 -38 -45 -21 -21 -49 -55 -62 -76 -14 -20 -33 -40 -43 -43 -9
-3 -17 -9 -17 -13 0 -14 -80 -30 -179 -36 -59 -4 -102 -12 -117 -22 -13 -8
-24 -11 -24 -7 0 5 -5 2 -10 -6 -14 -22 -12 -135 5 -215 8 -38 15 -87 15 -107
0 -24 7 -45 19 -57 10 -10 21 -30 25 -45 4 -15 17 -31 31 -36 14 -5 25 -14 25
-19 0 -5 10 -11 23 -13 28 -4 27 -19 -4 -35 -22 -12 -21 -13 23 -13 l47 0 -1
-37 c-1 -30 -6 -38 -30 -47 -29 -11 -36 -34 -17 -53 8 -8 6 -14 -9 -22 -10 -6
-21 -8 -24 -6 -2 2 0 -35 4 -83 8 -91 32 -162 109 -330 22 -46 39 -88 39 -93
0 -6 8 -26 19 -47 10 -20 33 -80 51 -132 28 -82 33 -110 34 -200 1 -90 -2
-112 -22 -155 -13 -27 -33 -61 -45 -74 -23 -25 -152 -88 -227 -111 -54 -16
-90 -46 -90 -75 0 -16 14 -28 60 -50 69 -33 80 -51 19 -30 -23 8 -50 15 -61
15 -17 0 -16 -3 7 -27 14 -16 23 -34 20 -40 -2 -8 16 -23 45 -38 27 -13 55
-33 62 -43 7 -10 23 -24 36 -31 33 -17 27 -31 -14 -31 -21 0 -33 -4 -29 -10 8
-13 4 -13 -41 5 l-39 16 24 -21 c13 -11 32 -20 42 -20 17 0 24 -11 17 -25 -2
-2 6 -11 17 -19 16 -13 17 -17 6 -25 -7 -5 -11 -13 -7 -19 3 -5 0 -12 -8 -15
-20 -8 -13 -64 13 -90 11 -13 21 -26 21 -30 0 -9 -57 -3 -82 8 -10 4 -18 3
-18 -3 0 -6 6 -12 13 -15 6 -2 9 -8 5 -12 -4 -4 -29 5 -55 19 l-48 27 38 -38
c41 -43 45 -53 21 -53 -14 0 -14 -3 -4 -15 10 -13 9 -15 -11 -16 -13 -1 -27
-1 -31 0 -13 2 -9 -16 6 -28 8 -7 16 -8 18 -4 3 4 3 3 2 -4 -2 -6 4 -17 12
-23 20 -17 18 -30 -5 -30 -11 0 -21 -5 -23 -10 -2 -6 -23 -11 -48 -13 -61 -3
-71 -13 -53 -55 14 -33 13 -33 -8 -27 -53 17 -64 13 -90 -37 -68 -125 -247
-214 -492 -244 -87 -10 -105 -29 -122 -137 -8 -48 -16 -91 -19 -95 -2 -4 -14
-61 -25 -127 -43 -246 -69 -292 -173 -315 -38 -8 -333 -10 -1053 -8 -977 3
-1001 3 -1040 23 -59 30 -85 75 -85 149 0 34 18 162 41 286 79 442 101 658 80
804 -14 96 -72 240 -124 304 -21 26 -52 64 -68 85 -34 41 -48 45 -84 21 -30
-20 -33 -5 -9 41 9 18 10 25 3 18 -14 -14 -49 -18 -49 -5 0 4 6 14 13 22 6 7
-1 5 -18 -5 -69 -42 -105 -68 -105 -74 0 -9 -86 -101 -94 -101 -14 0 -4 21 24
53 36 42 40 61 5 23 -30 -32 -104 -51 -88 -23 5 9 34 38 65 64 30 27 78 73
106 103 43 48 48 58 37 73 -7 9 -17 17 -22 17 -6 0 -14 9 -19 21 -9 20 -10 20
-37 -7 -28 -28 -34 -44 -17 -44 6 0 10 5 10 10 0 6 7 10 16 10 25 0 11 -22
-37 -59 -24 -18 -45 -40 -47 -47 -2 -8 -8 -11 -13 -8 -6 3 -43 -26 -84 -65
-69 -67 -105 -87 -105 -58 0 6 37 48 82 91 46 44 72 73 58 66 -14 -7 -44 -32
-66 -56 -23 -23 -58 -50 -79 -58 -40 -17 -57 -14 -37 6 17 17 15 41 -3 34 -22
-8 -18 3 7 25 23 20 23 20 1 7 -29 -16 -36 -7 -23 27 6 15 8 36 4 47 -3 10 0
25 6 33 11 13 7 13 -30 0 -69 -24 -80 -2 -14 30 42 20 38 32 -6 16 -27 -9 -31
-8 -29 7 2 20 -14 64 -24 63 -35 -4 -21 16 39 57 10 7 14 10 7 7 -6 -3 -14 -1
-18 5 -3 5 1 10 9 10 9 0 16 5 16 11 0 6 -7 8 -15 5 -8 -3 -22 -9 -31 -13 -12
-4 -15 -2 -12 8 2 8 28 26 58 42 29 15 46 27 36 27 -9 0 -38 -11 -63 -25 -48
-25 -68 -26 -42 -1 15 15 193 96 209 96 21 0 9 -21 -22 -40 l-33 -20 27 0 c22
0 26 -4 23 -21 -5 -24 -3 -22 -29 -36 -17 -9 -15 -11 12 -9 37 2 81 34 63 45
-8 5 -5 13 9 26 11 10 20 31 20 47 l0 30 -52 -7 -53 -6 27 23 c16 13 29 34 30
48 3 24 1 25 -46 21 -26 -1 -80 -14 -119 -27 -81 -28 -126 -32 -108 -10 6 7
32 21 57 31 54 20 54 27 -1 15 -22 -5 -44 -5 -48 -1 -11 11 0 14 123 41 52 12
103 28 113 37 27 25 2 33 -57 17 -72 -19 -75 -18 -38 16 21 19 44 30 63 30 24
0 29 4 29 23 0 32 -9 38 -34 23 -11 -8 -36 -16 -54 -20 -55 -10 -33 16 29 35
41 13 47 17 27 18 -21 1 -28 6 -28 21 0 11 4 20 9 20 5 0 8 8 7 17 -2 14 -13
17 -57 15 -58 -1 -57 3 3 12 34 6 36 9 34 39 -2 18 -4 40 -5 50 -1 13 -10 17
-36 17 -45 0 -45 16 -1 24 l34 6 -11 43 c-10 41 -12 58 -15 160 l-2 47 -45 0
c-25 0 -45 4 -45 9 0 5 20 12 45 15 25 4 45 11 45 17 0 5 -4 9 -10 9 -5 0 -10
7 -10 16 0 8 -14 20 -30 25 -37 13 -38 26 -5 35 16 4 25 13 25 25 0 16 -8 19
-57 19 -76 0 -133 10 -133 23 0 6 33 8 96 4 73 -5 95 -4 91 6 -2 6 -28 15 -58
18 -66 8 -112 25 -104 39 3 5 50 10 103 11 64 1 88 4 72 9 -14 4 -20 9 -15 10
6 1 -30 12 -79 24 -127 31 -124 46 7 39 l105 -6 12 54 c6 30 15 77 21 104 5
28 18 82 29 120 33 111 35 142 15 165 -16 18 -16 20 -2 20 13 0 15 6 11 30 -5
22 -3 30 7 30 8 1 -7 12 -33 26 -46 24 -62 44 -35 44 8 0 34 -10 59 -23 l46
-23 21 48 c22 51 20 73 -11 89 -15 8 -17 14 -9 22 20 20 12 36 -29 57 -70 36
-103 80 -59 80 11 0 17 5 14 10 -11 17 28 11 69 -11 53 -28 54 -19 2 18 -32
22 -43 37 -42 54 1 21 6 24 41 24 35 0 40 3 38 22 -2 17 4 24 22 29 14 3 25
12 25 19 0 14 22 25 51 25 15 0 17 5 13 29 -6 28 9 51 21 31 10 -16 23 -12 30
10 9 30 29 24 61 -17 15 -20 30 -31 32 -25 2 7 8 10 12 7 5 -3 12 10 16 30 7
38 18 44 32 18 9 -15 17 -12 68 27 33 24 68 53 80 64 48 49 168 153 197 171
18 10 50 34 71 52 22 18 46 33 53 33 7 0 21 4 31 9 9 4 33 16 52 25 49 23 64
51 65 121 0 33 5 84 9 113 l9 52 -937 0 -936 0 0 -2720z"/>
<path d="M1987 5404 c3 -20 19 -50 34 -67 23 -25 35 -30 69 -29 23 1 51 7 63
14 12 6 40 15 62 20 22 5 46 10 52 11 7 2 19 12 27 22 13 18 14 18 20 -2 6
-18 13 -20 64 -16 96 7 110 9 126 22 10 8 27 10 47 6 33 -8 49 4 49 38 0 16
-21 17 -309 17 l-310 0 6 -36z"/>
<path d="M2880 5405 c0 -33 2 -35 35 -35 19 0 54 -4 77 -10 360 -84 456 -114
623 -191 24 -11 49 -18 54 -15 5 4 20 27 32 52 13 25 30 50 38 57 12 10 13 7
7 -27 -4 -21 -14 -51 -22 -65 -14 -24 -14 -24 0 -6 8 11 21 27 28 36 7 10 23
20 36 24 34 10 38 -18 10 -76 -14 -27 -24 -48 -22 -47 2 2 18 15 36 31 63 52
120 97 125 97 3 0 2 -12 -2 -27 -6 -27 -6 -27 14 -9 22 20 43 14 23 -6 -18
-18 -15 -28 8 -28 14 0 20 -7 20 -21 0 -11 -9 -32 -20 -46 -11 -14 -20 -34
-20 -44 0 -25 30 -24 37 1 6 24 43 27 43 3 0 -9 -11 -31 -25 -49 -14 -18 -24
-38 -23 -44 2 -6 19 -28 38 -48 19 -21 66 -70 104 -110 48 -51 72 -70 79 -63
15 15 27 14 27 -4 0 -18 -2 -18 49 0 41 14 41 14 41 -10 0 -28 3 -29 31 -15
24 13 26 -5 4 -34 -8 -11 -15 -35 -15 -54 0 -32 1 -33 30 -27 35 8 41 -8 10
-25 -34 -18 -25 -54 28 -99 33 -29 43 -43 35 -49 -9 -6 -3 -19 25 -48 20 -22
44 -54 53 -70 23 -44 120 -69 234 -60 120 10 140 17 193 67 31 28 107 122 113
138 11 28 182 193 214 207 17 6 52 15 80 20 27 4 55 13 62 20 10 10 13 94 13
378 l0 366 -1280 0 -1280 0 0 -35z"/>
<path d="M2936 5233 c-9 -25 -19 -73 -22 -107 l-6 -61 43 -13 c24 -7 67 -17
94 -21 28 -5 82 -16 120 -25 62 -14 71 -14 81 -1 14 19 38 20 31 1 -10 -25 22
-40 80 -37 17 1 23 10 32 51 6 28 11 73 11 99 0 48 0 49 -47 69 -75 31 -253
74 -308 74 -27 0 -60 4 -72 9 -19 7 -23 3 -37 -38z"/>
<path d="M1891 5065 l-53 -9 5 -63 c4 -51 10 -69 33 -95 34 -38 45 -40 73 -13
11 11 27 26 35 33 9 6 13 19 10 27 -4 9 0 15 7 15 12 0 12 2 1 9 -8 4 -13 11
-13 15 4 28 -2 48 -21 68 -21 21 -27 22 -77 13z"/>
<path d="M2607 4921 c7 -51 -13 -63 -32 -19 -15 32 -15 30 -9 -46 l7 -80 -32
36 c-18 21 -31 47 -31 62 0 38 -27 44 -55 12 -12 -14 -27 -26 -33 -26 -16 0
-20 -22 -10 -50 12 -33 59 -81 71 -73 6 3 7 1 3 -5 -3 -6 -2 -13 4 -17 5 -3
10 0 10 8 0 8 7 20 15 27 21 18 31 -13 16 -48 -10 -20 -14 -23 -21 -12 -5 8
-12 11 -15 8 -11 -10 6 -30 20 -24 15 5 49 -27 38 -37 -3 -4 6 -7 20 -7 22 0
27 -5 27 -24 0 -14 5 -28 10 -31 6 -4 8 -10 5 -15 -3 -5 4 -15 15 -23 11 -7
17 -16 14 -19 -9 -9 24 -16 116 -23 50 -5 100 -15 122 -26 41 -21 124 -105
149 -149 9 -17 21 -36 28 -43 6 -8 18 -36 26 -63 17 -57 7 -119 -28 -168 -12
-17 -22 -35 -22 -41 0 -5 -14 -37 -30 -70 -16 -33 -28 -69 -27 -80 1 -11 -1
-14 -4 -7 -9 20 -23 14 -17 -8 6 -24 48 -27 61 -4 5 9 12 15 15 15 4 0 21 2
37 6 23 4 29 10 25 22 -4 12 5 23 27 35 55 29 73 40 98 63 13 13 40 26 59 29
20 4 61 20 91 35 30 16 63 29 73 29 9 0 17 3 17 8 0 4 21 8 48 9 88 4 155 44
144 87 -3 10 18 36 29 36 5 0 7 -11 3 -24 -9 -38 3 -48 34 -32 15 8 39 12 53
9 22 -4 29 1 43 31 9 19 21 38 27 42 17 10 23 -4 9 -21 -21 -26 -4 -28 29 -4
17 12 34 20 37 16 11 -11 -8 -29 -52 -48 -30 -14 -41 -24 -38 -34 9 -23 72
-18 133 10 42 20 52 29 48 44 -2 10 -1 24 3 32 6 11 0 14 -26 15 -60 2 -64 4
-64 20 0 9 -9 18 -20 21 -29 8 -25 19 10 32 17 5 30 14 30 20 0 5 3 16 6 25 5
12 -1 12 -34 -4 -22 -11 -42 -26 -45 -35 -4 -8 -11 -15 -17 -15 -19 0 -10 29
25 74 39 51 23 52 -40 1 -50 -40 -85 -53 -85 -31 0 9 15 22 33 29 44 19 61 42
62 87 1 37 0 38 -19 24 -28 -19 -39 -18 -33 6 3 13 0 20 -8 20 -8 0 -17 9 -20
21 -9 26 -39 21 -43 -9 -2 -14 -10 -22 -23 -22 -24 0 -24 11 1 59 l19 39 -21
-6 c-11 -3 -23 -13 -25 -23 -3 -11 -10 -16 -15 -12 -6 3 -26 -12 -44 -33 l-33
-39 30 79 c16 43 28 81 25 83 -2 2 -17 -14 -32 -37 -50 -71 -110 -129 -84 -81
5 11 10 24 10 30 0 15 -27 14 -33 -1 -2 -7 -8 -9 -13 -5 -11 11 32 47 56 47
17 0 50 39 50 60 0 15 -36 12 -50 -5 -17 -21 -34 -19 -25 3 4 9 9 23 12 30 9
21 -17 13 -44 -14 -19 -19 -23 -28 -14 -37 14 -14 15 -47 1 -47 -5 0 -10 9
-10 20 0 52 -75 -1 -87 -62 -3 -16 -9 -28 -14 -28 -9 0 3 46 20 79 7 12 31 35
54 52 38 27 39 30 19 36 -12 3 -20 9 -17 13 9 15 -12 20 -38 11 -22 -9 -26 -7
-32 17 -5 15 -8 38 -9 51 -1 15 -9 27 -24 32 -19 7 -24 4 -32 -16 -15 -38 -26
-30 -23 18 l3 42 -29 -55 c-17 -30 -28 -62 -25 -72 3 -9 0 -19 -6 -23 -5 -3
-10 2 -10 12 0 15 -4 14 -21 -7 l-20 -25 3 30 c2 18 -2 30 -9 30 -19 0 -27 14
-16 27 14 18 25 90 16 104 -10 13 -64 32 -79 27 -6 -2 -9 -16 -7 -31 2 -15 -5
-45 -16 -67 l-20 -40 -1 35 c0 19 4 49 9 66 11 39 4 48 -34 51 -16 2 -53 6
-81 9 -58 7 -56 8 -55 -85 1 -48 -10 -81 -28 -81 -4 0 -6 39 -4 86 2 64 0 85
-9 82 -15 -5 -26 -40 -27 -86 -1 -44 -21 -31 -21 14 0 21 -4 33 -10 29 -5 -3
-10 -17 -10 -30 0 -31 -10 -55 -22 -55 -9 0 -5 56 8 123 3 15 1 27 -4 27 -19
0 -36 -33 -38 -72 -2 -41 -13 -62 -21 -40 -8 22 -32 13 -39 -15 -11 -51 -12
-48 -13 24 -1 80 -7 103 -26 103 -9 0 -12 -11 -8 -39z"/>
<path d="M1504 4845 c-4 -8 -12 -15 -18 -15 -19 0 -109 -104 -118 -135 -6 -23
-2 -29 28 -47 19 -11 37 -31 40 -44 3 -13 20 -32 37 -43 31 -20 53 -19 41 1
-4 6 -3 8 3 5 9 -6 58 49 58 65 0 3 3 10 7 13 4 4 0 21 -8 37 -18 35 -11 47
18 29 11 -7 17 -8 13 -2 -3 6 3 15 14 19 19 7 19 9 -10 56 -17 26 -39 51 -50
53 -10 3 -16 9 -13 14 3 5 -4 9 -16 9 -11 0 -23 -7 -26 -15z"/>
<path d="M2117 4807 c-9 -24 23 -75 55 -90 31 -13 44 -35 28 -51 -7 -7 -14 -5
-22 7 -7 9 -26 21 -41 26 -17 7 -33 24 -43 46 -9 23 -21 35 -34 35 -18 0 -18
-2 -5 -47 8 -25 18 -49 23 -52 22 -15 52 -101 34 -101 -4 0 -14 17 -22 37 -11
33 -14 35 -20 18 -7 -18 -9 -18 -19 8 -6 15 -14 40 -17 54 -4 14 -15 28 -25
30 -11 3 -19 9 -19 14 0 5 -4 9 -8 9 -14 0 0 -72 19 -104 11 -17 19 -37 19
-43 0 -26 -17 -12 -38 32 -12 25 -26 45 -30 45 -5 0 -8 10 -8 21 1 12 -5 24
-11 26 -20 7 -16 -38 7 -85 11 -22 20 -46 20 -53 0 -6 -8 -9 -20 -6 -25 6 -26
-7 -2 -30 23 -22 35 -53 22 -53 -6 0 -27 23 -47 51 -35 49 -38 50 -46 30 -6
-11 -14 -21 -19 -21 -4 0 -8 -7 -8 -15 0 -15 -26 -21 -32 -7 -4 11 -86 50 -93
44 -3 -3 -5 -13 -5 -23 0 -13 -10 -20 -35 -25 -28 -5 -35 -11 -35 -30 0 -16
-6 -24 -17 -24 -10 0 -25 -5 -33 -10 -12 -7 -6 -18 34 -55 63 -58 52 -71 -14
-15 -34 29 -50 37 -50 26 0 -9 -11 -18 -25 -22 -32 -8 -33 -37 0 -70 21 -21
30 -23 64 -18 33 5 41 3 50 -14 17 -31 13 -37 -9 -17 -19 18 -20 17 -20 -3 0
-12 -3 -22 -6 -22 -4 0 -33 18 -65 40 -33 22 -59 36 -59 30 0 -5 -8 -7 -17 -4
-13 4 -11 0 5 -12 27 -20 29 -44 2 -44 -11 0 -20 -4 -20 -10 0 -14 26 -13 50
2 15 10 22 10 32 0 16 -16 9 -20 -45 -24 -54 -3 -60 -12 -17 -27 17 -5 30 -17
30 -25 0 -22 -6 -20 -62 15 -27 17 -52 28 -56 25 -4 -4 1 -12 11 -18 13 -7 15
-13 8 -22 -8 -10 -1 -23 27 -51 l37 -39 -44 32 c-58 41 -74 41 -33 -1 35 -36
41 -53 15 -39 -10 5 -31 12 -48 16 l-30 8 29 -31 c32 -33 26 -39 -14 -16 -44
25 -50 20 -48 -42 2 -46 -1 -59 -13 -61 -9 -2 -21 -13 -27 -26 -9 -20 -7 -27
16 -45 l26 -21 -34 0 c-31 -1 -33 -2 -18 -14 28 -21 22 -36 -11 -30 -26 6 -30
3 -36 -26 -8 -37 -11 -34 45 -59 l45 -20 -55 2 -55 2 1 -52 c1 -29 -2 -53 -6
-53 -16 0 -23 -42 -9 -51 11 -7 12 -12 2 -28 -7 -11 -10 -34 -6 -57 4 -27 3
-35 -5 -30 -7 4 -12 3 -12 -1 0 -5 12 -14 28 -20 l27 -10 -27 -8 c-16 -4 -28
-11 -28 -15 0 -9 50 -20 87 -20 22 0 24 -2 13 -16 -10 -11 -23 -14 -50 -9 -34
6 -38 4 -42 -18 -4 -19 1 -28 18 -37 20 -11 21 -15 8 -27 -16 -16 -18 -41 -5
-62 7 -10 23 -12 67 -7 37 3 52 2 39 -3 -17 -7 -13 -10 20 -13 36 -4 34 -5
-15 -7 -30 -1 -64 -8 -74 -16 -10 -8 -22 -13 -25 -10 -4 2 -8 -7 -9 -21 -2
-24 12 -33 23 -14 3 6 17 10 31 10 13 0 24 -4 24 -10 0 -5 -13 -10 -29 -10
-34 0 -58 -24 -44 -42 6 -7 13 -30 17 -51 9 -46 21 -52 69 -32 20 8 40 15 44
15 13 0 -51 -49 -64 -50 -8 0 -13 -14 -13 -35 0 -28 4 -35 20 -35 16 0 19 -5
15 -23 -8 -30 10 -77 30 -77 10 0 15 -9 15 -26 0 -26 1 -27 46 -20 33 4 45 3
42 -6 -3 -9 -28 -27 -46 -34 -4 -1 25 -68 34 -76 4 -4 19 3 35 16 19 16 36 22
53 19 14 -3 26 -8 26 -12 0 -3 -16 -23 -35 -43 -36 -38 -49 -86 -20 -74 8 3
22 9 30 12 10 4 15 0 15 -10 0 -9 -7 -19 -15 -22 -13 -5 -13 -10 2 -34 18 -31
60 -47 76 -31 16 16 30 13 24 -3 -3 -8 2 -16 14 -19 23 -6 16 -35 -9 -33 -23
2 -28 -33 -5 -41 10 -4 24 -16 32 -26 14 -20 14 -20 23 2 12 33 30 15 22 -24
-4 -23 0 -41 12 -61 23 -36 85 -98 106 -106 8 -4 21 -27 28 -52 7 -26 16 -49
21 -52 10 -6 89 -167 89 -182 0 -5 7 -13 16 -16 12 -4 14 -14 9 -38 -5 -26 -4
-29 5 -16 6 10 22 18 35 18 30 0 33 -16 6 -25 -26 -8 -35 -39 -20 -67 7 -13
13 -25 13 -28 1 -3 6 -4 13 -4 8 1 11 -12 8 -40 l-4 -41 29 32 c34 38 55 43
44 11 -15 -50 -35 -87 -48 -95 -11 -6 -12 -13 -5 -23 8 -13 12 -12 27 6 9 12
25 36 34 53 9 17 22 31 28 31 16 0 12 -36 -6 -51 -30 -24 -41 -62 -35 -114 6
-46 8 -50 31 -47 14 2 37 15 53 30 l27 26 0 -33 c0 -24 -5 -34 -20 -38 -23 -6
-27 -23 -6 -23 27 0 25 -29 -5 -70 -17 -23 -28 -47 -26 -53 6 -18 78 102 84
140 6 36 36 47 47 17 5 -14 9 -14 22 -3 14 11 18 10 29 -5 8 -10 11 -24 8 -32
-7 -19 30 -13 55 9 24 22 32 21 32 0 0 -15 2 -15 14 -3 25 27 28 65 6 85 -11
10 -20 24 -20 32 0 15 -26 18 -35 3 -3 -5 -15 -10 -26 -10 -23 0 -25 26 -4 54
23 31 19 61 -12 75 -18 8 -29 9 -37 1 -5 -5 -16 -10 -23 -10 -11 0 -10 6 2 30
20 40 19 43 -10 24 -33 -21 -33 -3 0 40 21 28 25 44 25 104 0 76 -9 92 -35 66
-23 -23 -31 -9 -11 21 18 27 32 32 38 13 3 -7 17 16 33 49 21 45 33 59 41 52
20 -16 58 -20 88 -7 24 10 30 9 38 -5 5 -9 17 -17 26 -18 9 0 42 -12 72 -27
51 -25 55 -30 55 -62 0 -28 5 -37 27 -47 16 -8 29 -25 33 -42 4 -19 12 -28 23
-27 10 0 17 -7 18 -19 2 -37 4 -39 18 -20 15 20 46 15 46 -8 0 -10 9 -13 28
-10 19 3 23 2 14 -5 -11 -7 -9 -10 7 -15 12 -3 22 1 25 9 3 8 1 14 -4 14 -6 0
-10 7 -10 15 0 23 9 18 54 -29 23 -25 55 -48 71 -52 17 -4 40 -14 52 -21 12
-8 37 -16 55 -18 18 -2 58 -12 88 -23 30 -11 75 -25 100 -32 25 -6 74 -20 110
-31 117 -36 125 -38 164 -45 l38 -7 -7 32 c-8 38 6 41 33 6 11 -14 25 -25 31
-25 16 0 14 25 -3 39 -16 14 -28 51 -16 51 15 0 60 -50 60 -66 0 -8 7 -29 16
-46 12 -24 18 -28 25 -17 16 25 10 49 -23 90 -24 30 -29 42 -20 51 8 8 16 0
30 -33 23 -53 37 -65 79 -71 30 -4 32 -2 27 18 -6 22 -4 22 25 11 41 -15 46
-6 21 42 -11 23 -16 41 -12 41 11 0 66 -80 67 -95 0 -5 8 -11 18 -13 15 -3 13
4 -12 39 -41 56 -41 86 1 39 19 -22 32 -30 35 -22 3 6 10 9 15 5 7 -4 9 2 6
15 -8 28 13 29 36 3 17 -18 76 -34 76 -20 0 3 -7 22 -15 42 -12 30 -12 36 -1
40 9 4 12 14 9 28 -5 19 -4 20 16 10 11 -7 21 -9 21 -5 0 22 -48 104 -67 115
-13 7 -23 18 -23 26 0 21 13 15 42 -19 14 -18 30 -29 35 -25 4 5 0 13 -9 18
-10 6 -23 19 -29 31 -10 19 -9 20 14 16 25 -5 25 -4 12 16 -22 30 -18 44 10
45 14 1 36 1 50 2 21 1 24 4 14 15 -6 8 -20 14 -31 14 -28 0 -58 18 -58 36 0
10 6 13 19 9 23 -7 38 33 15 42 -8 3 -14 9 -14 14 0 12 47 12 52 0 2 -5 14 -4
28 1 23 9 24 10 7 22 -9 7 -27 11 -40 9 -12 -2 -31 3 -42 11 -18 14 -18 15 -2
16 9 0 17 4 17 9 0 9 -60 65 -100 93 -19 14 -21 16 -5 11 11 -3 36 -18 55 -32
43 -33 108 -71 121 -71 10 0 0 53 -11 58 -4 1 -16 9 -26 17 -17 13 -15 14 27
9 l46 -6 7 37 c6 30 4 40 -8 47 -22 12 -20 25 4 31 10 3 22 17 26 32 5 21 0
33 -27 61 l-33 34 34 -13 c29 -11 34 -10 44 7 21 37 67 85 87 91 23 8 24 23 3
46 -23 26 1 34 27 8 16 -16 28 -20 55 -14 51 9 122 55 129 83 8 31 -4 89 -21
103 -8 7 -12 20 -9 29 7 23 -29 37 -129 49 -43 5 -83 15 -90 21 -8 9 13 11 94
6 83 -5 100 -4 83 6 -23 11 -31 28 -14 28 5 0 4 10 -2 23 -7 16 -25 27 -56 34
-25 6 -62 18 -81 27 l-35 16 40 -7 c22 -3 54 -7 70 -7 35 -1 36 13 2 84 -19
38 -27 45 -57 48 -42 4 -65 22 -29 22 45 0 48 12 17 68 -17 28 -36 52 -44 52
-19 0 -18 16 1 24 8 3 15 9 15 14 0 11 -65 42 -88 42 -9 0 -24 5 -32 11 -11 7
-3 9 33 7 42 -3 48 -1 53 19 8 31 -4 46 -32 40 -18 -3 -24 0 -24 14 0 12 7 19
18 19 14 0 19 8 19 29 0 26 -2 27 -27 18 -34 -13 -59 -4 -56 20 2 12 13 19 35
21 24 3 31 8 29 20 -2 13 -17 18 -55 22 -48 5 -51 6 -38 23 11 16 16 16 34 5
18 -11 23 -10 38 6 12 13 13 16 3 10 -12 -6 -13 -5 -4 7 6 8 11 29 12 47 2 31
1 33 -13 18 -16 -15 -75 -23 -75 -10 0 13 60 64 75 64 35 0 11 18 -32 25 -51
7 -43 24 12 25 20 0 26 3 17 9 -8 4 -14 12 -15 17 -2 10 -20 10 -102 -1 -62
-8 -67 1 -12 22 23 8 27 12 12 13 -17 1 -15 3 9 17 26 14 27 16 12 25 -14 8
-15 12 -4 25 12 14 11 15 -7 4 -15 -10 -27 -10 -50 -1 -23 9 -26 13 -15 20 9
6 16 6 18 0 6 -16 22 -12 22 5 0 9 -7 18 -15 21 -8 4 -13 10 -10 14 5 8 -51 4
-65 -5 -4 -3 -11 6 -14 20 -5 21 -12 25 -41 25 -61 0 -130 -44 -123 -78 5 -25
34 -26 60 -3 12 12 33 21 47 20 l26 0 -22 -11 c-13 -6 -23 -17 -23 -25 0 -7
-11 -18 -25 -23 -14 -5 -25 -16 -25 -25 0 -11 7 -13 33 -8 17 3 34 9 37 13 10
14 75 50 90 49 13 0 13 -1 0 -6 -8 -3 -33 -24 -55 -46 -27 -27 -48 -40 -65
-39 -25 1 -27 -2 -27 -51 -1 -29 -4 -60 -8 -70 -5 -12 -1 -23 11 -32 18 -14
18 -15 -4 -21 -14 -4 -21 -12 -18 -21 3 -8 -2 -16 -12 -20 -22 -8 -52 -34 -52
-45 0 -4 13 -8 29 -8 52 0 49 -26 -3 -34 -22 -3 -49 -43 -36 -51 21 -13 9 -25
-25 -25 -29 0 -38 -5 -47 -27 -6 -16 -12 -36 -13 -46 -1 -10 -9 -23 -17 -30
-19 -14 -71 -98 -118 -187 -18 -36 -47 -87 -64 -115 -17 -27 -42 -72 -56 -100
-14 -27 -33 -58 -43 -70 -10 -11 -20 -30 -23 -42 -4 -13 -10 -23 -15 -23 -5 0
-9 -4 -9 -10 0 -5 -14 -33 -31 -62 -19 -31 -27 -54 -20 -56 18 -6 13 -22 -7
-22 -11 0 -28 -17 -42 -42 -14 -24 -31 -55 -40 -70 -8 -14 -26 -46 -39 -70
-13 -23 -43 -63 -66 -87 -34 -35 -52 -45 -91 -52 -73 -12 -183 -11 -223 3 -40
13 -106 60 -134 95 -10 13 -27 23 -37 23 -20 0 -35 27 -19 32 6 2 -8 37 -30
78 -28 51 -41 87 -41 114 0 42 45 146 87 204 15 19 23 41 20 52 -3 13 1 21 14
25 10 4 19 13 19 22 0 9 9 30 20 48 30 49 12 59 -98 52 -91 -6 -142 -19 -142
-37 0 -6 -11 -22 -25 -36 -29 -29 -31 -37 -10 -54 21 -17 19 -30 -5 -30 -11 0
-20 6 -20 13 0 6 -12 -3 -26 -21 -34 -43 -130 -107 -181 -121 -58 -16 -240 -5
-280 16 -41 22 -116 138 -144 221 -31 94 -22 146 53 290 33 64 65 120 71 123
5 4 7 18 3 32 -5 20 -2 27 12 31 10 4 29 25 42 49 13 23 29 49 35 57 7 8 16
25 19 37 6 18 2 24 -19 29 -32 8 -20 18 38 34 20 6 37 16 38 23 0 7 31 64 69
127 56 96 102 182 161 302 5 10 6 38 2 63 -4 33 -2 45 7 45 8 0 11 -9 8 -25
-6 -31 8 -43 17 -15 4 11 20 35 36 52 36 40 38 61 5 52 -16 -4 -25 -1 -29 10
-5 12 0 16 18 16 13 0 27 5 30 10 4 6 10 8 15 5 5 -3 14 4 20 16 9 17 8 23 -6
33 -20 15 -11 36 16 36 28 0 38 29 25 68 -6 18 -15 29 -19 25 -4 -5 -6 -1 -5
7 2 8 -11 30 -29 48 -17 18 -32 37 -32 42 0 6 -14 10 -30 10 -23 0 -35 7 -49
31 -10 17 -17 39 -14 49 3 10 0 21 -6 24 -6 4 -11 15 -11 24 0 10 -13 26 -30
35 -22 14 -30 15 -30 5 0 -10 -2 -10 -9 0 -6 11 -10 10 -15 -4 -6 -16 -10 -15
-30 11 -19 24 -24 25 -29 12z"/>
<path d="M2878 4348 c-19 -16 -31 -48 -18 -48 6 0 10 -5 10 -11 0 -6 -7 -8
-16 -5 -17 7 -53 -29 -54 -54 0 -8 -7 -24 -15 -34 -8 -11 -15 -30 -15 -42 0
-18 6 -23 33 -26 24 -2 31 -7 29 -20 -2 -12 4 -18 15 -19 10 0 5 -5 -12 -10
-16 -5 -44 -7 -61 -4 -21 4 -33 1 -37 -8 -8 -22 11 -237 22 -251 11 -14 61
-10 61 4 0 4 16 31 35 60 19 29 35 58 35 66 0 8 4 14 10 14 5 0 17 14 26 32
13 25 14 36 5 50 -13 21 -7 38 14 38 19 0 71 50 79 76 4 14 0 27 -14 39 -21
19 -28 51 -9 39 8 -4 7 0 -1 15 -6 12 -18 25 -26 28 -8 3 -14 11 -14 18 0 18
-39 65 -54 65 -7 0 -19 -6 -28 -12z"/>
<path d="M2521 4313 c0 -7 -7 -13 -15 -13 -8 0 -21 -19 -31 -42 -9 -23 -25
-50 -36 -59 -20 -17 -20 -18 18 -21 52 -4 48 -22 -7 -28 -38 -4 -46 -9 -48
-28 -2 -13 -10 -26 -18 -29 -23 -8 -16 -23 10 -23 28 0 40 -14 32 -36 -5 -12
-10 -13 -27 -3 -16 8 -27 8 -44 -1 -30 -16 -85 -92 -91 -125 -4 -24 -3 -25 51
-25 35 0 54 4 50 10 -3 6 4 10 17 10 18 0 20 -2 8 -10 -11 -7 0 -10 38 -10 28
0 52 -4 52 -9 0 -6 -50 -8 -122 -5 l-123 4 -29 -47 c-16 -27 -42 -73 -59 -103
-16 -30 -39 -68 -51 -85 -11 -16 -37 -61 -56 -100 -19 -38 -38 -73 -42 -76
-11 -7 -88 -160 -88 -173 0 -6 -11 -21 -23 -33 -13 -12 -34 -42 -48 -67 -38
-72 -26 -80 107 -84 88 -3 115 0 142 14 17 9 32 20 32 24 0 3 9 16 21 28 11
13 19 28 17 34 -3 7 4 20 14 30 29 29 22 38 -29 39 -27 1 -61 5 -78 10 -22 6
-11 8 45 7 41 0 80 0 87 1 6 0 27 30 47 65 34 61 39 65 79 70 23 4 245 8 492
10 248 2 451 5 453 5 8 3 -2 33 -35 100 -34 73 -63 110 -87 112 -31 3 -85 -4
-120 -16 -21 -7 -43 -12 -50 -10 -6 2 -39 6 -73 9 -35 3 -72 10 -83 16 -17 9
-26 7 -47 -10 -27 -21 -53 -63 -53 -86 0 -21 -22 -28 -35 -11 -10 14 -14 14
-26 2 -8 -7 -27 -17 -44 -21 l-30 -7 34 31 c18 18 37 32 42 32 5 0 11 11 15
25 5 19 0 30 -22 49 -23 19 -44 25 -111 31 -96 8 -107 20 -73 82 25 46 25 60
3 66 -10 2 -6 3 8 1 32 -4 43 5 28 23 -9 9 -8 13 0 13 23 0 10 18 -21 28 l-33
10 41 1 c47 1 60 12 66 58 3 25 0 33 -15 37 -21 5 -14 26 9 26 12 0 12 4 4 20
-9 17 -8 20 10 20 21 0 27 15 10 25 -8 5 -7 11 0 21 21 24 17 109 -4 133 -17
19 -21 20 -28 6 -9 -16 -38 -21 -38 -7 0 4 5 13 11 19 6 6 9 21 6 34 -2 13 -5
18 -6 12z"/>
<path d="M957 4020 c4 -13 0 -20 -9 -20 -47 0 -102 -283 -64 -332 14 -19 84
-37 158 -42 69 -4 47 10 -60 37 -93 25 -110 32 -99 43 3 3 40 -6 82 -20 89
-30 111 -32 119 -11 3 10 -3 17 -19 21 -14 3 -25 13 -25 20 0 10 7 13 25 8 21
-5 25 -2 30 23 4 15 9 37 13 48 18 65 12 76 -54 106 -34 16 -65 33 -69 39 -8
13 -7 13 59 -10 39 -13 63 -16 79 -10 12 5 16 9 10 9 -7 1 -13 8 -13 16 0 8 6
15 13 15 27 1 -37 39 -98 59 -79 26 -84 26 -78 1z"/>
<path d="M4441 3985 c-18 -7 -38 -20 -44 -31 -5 -10 -18 -28 -28 -39 -22 -26
-29 -124 -10 -154 8 -12 13 -12 36 3 27 18 42 16 30 -3 -3 -6 -13 -11 -21 -11
-27 0 -39 -22 -36 -61 2 -22 8 -39 13 -39 5 0 8 -5 6 -12 -5 -25 129 4 178 38
25 18 12 18 -71 -1 -36 -9 -68 -14 -70 -12 -5 4 7 9 99 42 46 17 49 19 44 49
-12 79 -37 170 -51 185 -9 10 -16 25 -16 33 0 22 -19 26 -59 13z"/>
<path d="M3583 3913 c-24 -8 -43 -21 -43 -29 0 -8 -3 -14 -7 -14 -7 0 -9 -36
-4 -69 1 -12 61 -11 61 1 0 4 9 8 21 8 28 0 17 -13 -30 -36 -46 -22 -50 -30
-20 -39 17 -6 153 -9 217 -6 6 1 12 12 12 26 0 21 -5 25 -29 25 -37 0 -48 16
-21 30 20 11 29 60 10 60 -5 0 -10 -7 -10 -16 0 -12 -6 -15 -22 -10 -13 3 -27
6 -32 6 -6 0 -1 7 10 15 16 12 17 16 4 24 -8 6 -35 8 -60 6 -32 -3 -37 -2 -16
3 30 7 39 26 14 28 -7 1 -32 -5 -55 -13z"/>
<path d="M3355 3803 c83 -9 50 -25 -72 -35 -8 -1 -10 -10 -7 -23 4 -17 -1 -25
-25 -35 -26 -11 -30 -16 -24 -39 19 -79 63 -168 81 -164 6 2 9 -4 6 -11 -3 -9
3 -17 17 -21 17 -6 27 -2 40 16 25 32 24 39 -6 39 -14 0 -25 5 -25 10 0 6 13
10 29 10 40 0 48 16 14 27 -28 10 -28 10 12 16 24 4 44 14 50 25 52 97 51 93
32 107 -10 7 -17 17 -16 21 4 24 -3 34 -23 34 -21 0 -21 0 -2 15 17 13 13 14
-51 13 -44 -1 -55 -3 -30 -5z"/>
<path d="M3529 3664 c-11 -13 -10 -17 4 -25 22 -13 22 -31 0 -28 -10 1 -23 1
-30 0 -13 -1 -97 -133 -108 -171 -5 -14 -15 -35 -23 -48 -15 -22 -15 -22 -258
-21 -133 0 -247 -2 -253 -5 -5 -4 -50 -2 -99 4 -70 9 -102 8 -158 -3 -65 -13
-194 -12 -194 2 0 3 -16 6 -35 7 -19 0 -35 0 -35 -2 0 -1 6 -17 14 -36 18 -43
35 -58 62 -58 4 0 2 -6 -4 -13 -17 -20 2 -40 28 -32 15 5 20 4 16 -4 -4 -6
-14 -11 -22 -11 -17 0 -17 -2 -2 -35 8 -18 19 -25 39 -25 15 0 31 5 34 10 3 6
13 10 21 10 8 0 14 -4 14 -10 0 -5 -8 -10 -17 -10 -10 0 -25 -5 -33 -11 -12
-8 -10 -9 8 -4 12 3 22 2 22 -3 0 -27 122 -40 157 -17 22 15 27 15 58 1 18 -9
40 -16 47 -16 8 0 23 -9 32 -19 17 -18 17 -23 2 -75 -9 -30 -21 -58 -26 -61
-6 -4 -16 -21 -24 -39 -7 -17 -19 -38 -27 -46 -8 -8 -22 -31 -32 -50 -10 -19
-29 -53 -42 -75 -37 -64 -35 -68 40 -60 45 5 65 4 65 -4 0 -7 -27 -11 -76 -11
l-75 0 3 -47 c3 -44 5 -48 33 -54 24 -5 26 -7 13 -13 -9 -4 -22 -5 -28 -1 -19
12 -10 -10 15 -37 14 -15 25 -36 25 -46 0 -18 38 -52 59 -52 9 0 83 110 110
165 8 17 18 32 22 35 3 3 19 29 35 59 16 30 34 61 39 70 6 9 22 34 36 56 14
22 41 67 59 100 56 103 112 185 126 185 23 0 16 -18 -42 -113 -31 -50 -74
-125 -96 -167 -22 -41 -61 -109 -87 -150 -93 -146 -161 -267 -161 -284 0 -17
57 -30 140 -33 81 -4 99 -1 117 14 12 10 31 25 41 33 21 17 132 208 132 227 0
7 5 13 10 13 6 0 10 5 10 11 0 6 29 60 65 120 36 61 65 112 65 114 0 2 14 27
30 55 17 28 30 57 30 64 0 7 14 27 30 44 17 18 30 38 30 45 0 8 9 22 20 32 11
10 20 26 20 35 0 9 19 43 43 76 45 64 77 120 77 135 0 5 -24 10 -52 10 -29 1
-42 4 -28 6 14 3 30 9 37 14 6 6 22 7 35 4 20 -5 27 0 46 37 42 80 70 127 86
143 17 18 19 28 9 63 -5 20 -11 23 -35 20 -19 -3 -32 0 -35 9 -8 20 -156 18
-174 -3z"/>
<path d="M875 3620 c-3 -5 2 -13 11 -18 11 -6 13 -11 5 -16 -6 -4 -11 -14 -11
-22 0 -11 14 -14 60 -14 75 0 80 -20 5 -21 -68 -2 -72 -2 -81 -11 -4 -5 0 -8
9 -8 10 0 17 -4 17 -10 0 -5 -7 -7 -15 -4 -12 5 -15 -3 -15 -39 l0 -44 60 -13
c33 -7 77 -13 97 -14 35 -1 38 1 38 28 0 18 -6 30 -15 31 -8 2 -33 10 -55 20
-38 16 -39 17 -17 26 24 9 52 3 52 -12 0 -5 9 -9 20 -9 21 0 24 8 14 34 -3 8
-12 12 -20 9 -8 -3 -14 0 -14 6 0 6 7 11 15 11 21 0 19 19 -2 26 -80 26 -101
49 -37 41 30 -4 34 -3 23 8 -17 15 -136 28 -144 15z"/>
<path d="M4461 3433 c-16 -3 -20 -7 -12 -13 8 -4 -3 -10 -28 -14 -46 -7 -50
-19 -30 -88 7 -26 16 -38 28 -38 10 0 46 -3 80 -6 43 -5 61 -3 61 5 0 6 -10
11 -22 11 -22 1 -23 1 -4 15 19 14 18 15 -12 15 -38 0 -43 17 -7 26 14 3 22
10 19 15 -2 5 0 18 7 31 10 18 8 24 -7 35 -18 13 -29 14 -73 6z"/>
<path d="M2274 3313 c-9 -15 -30 -47 -45 -70 -30 -43 -36 -63 -19 -63 6 0 10
-4 10 -10 0 -5 -11 -10 -25 -10 -19 0 -28 -8 -40 -37 -20 -46 -14 -68 36 -154
39 -68 64 -99 78 -99 31 0 128 138 135 192 3 18 5 35 6 38 8 20 -40 146 -60
160 -4 3 -15 19 -24 37 -22 45 -33 48 -52 16z"/>
<path d="M857 3314 c-12 -12 6 -34 28 -34 13 0 27 -4 30 -10 5 -9 -16 -14 -52
-13 -20 1 -16 -58 5 -73 16 -12 16 -13 0 -19 -20 -8 -25 -37 -5 -34 33 4 87
-2 87 -10 0 -5 -17 -13 -37 -19 l-38 -10 45 -2 c48 -1 38 -11 -24 -25 -17 -3
-25 -9 -20 -13 6 -4 10 -26 9 -49 -1 -44 6 -50 39 -37 12 5 14 10 6 19 -14 17
18 28 53 20 16 -4 42 1 69 13 43 19 43 19 40 65 -3 38 -8 47 -23 47 -10 0 -19
-4 -19 -9 0 -15 -52 -23 -61 -10 -12 21 1 31 33 27 38 -6 50 16 47 92 l-2 58
-59 7 c-32 4 -58 11 -58 16 0 10 -83 13 -93 3z"/>
<path d="M4450 3200 c0 -6 44 -10 111 -10 84 0 110 -3 107 -12 -3 -9 -36 -14
-106 -16 -57 -1 -102 -7 -102 -12 0 -6 10 -10 23 -10 12 0 29 -5 37 -10 13 -8
12 -11 -5 -24 -20 -14 -20 -15 -2 -67 10 -28 37 -90 60 -138 45 -96 52 -112
91 -225 45 -126 23 -178 -99 -231 -36 -15 -65 -31 -65 -35 0 -4 14 -13 30 -20
35 -14 41 -36 8 -26 -13 4 -39 9 -58 13 -29 5 -33 3 -23 -8 7 -7 27 -18 45
-23 34 -12 50 -36 23 -36 -14 0 -15 -3 -5 -15 10 -13 9 -15 -8 -15 -11 0 -33
5 -48 10 -39 15 -42 4 -8 -32 16 -18 19 -24 7 -14 -24 19 -87 45 -115 46 -30
0 -22 -43 12 -69 33 -24 33 -48 0 -31 -28 15 -30 13 -30 -33 0 -46 30 -89 72
-103 13 -4 37 -17 54 -30 17 -13 34 -21 37 -17 14 14 6 40 -15 51 -21 10 -20
11 14 11 45 1 55 15 26 35 -21 15 -21 16 -3 16 27 0 41 11 49 36 5 16 0 22
-21 31 -28 11 -28 11 10 12 20 1 37 6 37 11 0 6 10 10 23 10 12 0 35 7 51 15
15 8 52 21 80 29 29 7 78 29 109 49 51 33 58 42 72 92 24 82 6 224 -42 335 -8
19 -19 44 -24 55 -4 11 -36 88 -70 170 -33 83 -72 169 -85 191 -13 23 -20 44
-17 48 3 3 -48 6 -115 6 -75 0 -122 -4 -122 -10z"/>
<path d="M1820 3046 c-9 -12 -8 -22 5 -50 9 -19 23 -40 31 -47 8 -6 14 -18 14
-25 0 -22 12 -17 68 32 28 25 52 43 52 40 0 -3 -23 -31 -51 -62 l-51 -56 27
-28 c33 -35 91 -50 188 -50 84 0 115 19 102 62 -9 30 -62 124 -92 166 l-24 32
-128 0 c-100 0 -131 -3 -141 -14z"/>
<path d="M1060 3000 c-14 -4 -19 -8 -11 -9 23 -2 -8 -31 -33 -31 -11 0 -38 -5
-58 -11 -37 -10 -38 -11 -38 -59 l0 -50 38 0 c34 -1 36 -2 18 -15 -10 -8 -24
-16 -30 -18 -7 -3 -4 -12 8 -26 23 -25 67 -28 102 -5 18 12 28 14 36 6 13 -13
2 -32 -19 -32 -9 0 -40 -7 -69 -17 -36 -11 -51 -20 -47 -30 6 -15 68 -8 91 10
7 5 16 6 20 2 4 -4 1 -10 -5 -12 -23 -8 -14 -33 12 -33 33 0 126 20 149 32 18
10 18 11 -7 25 -17 8 -27 22 -27 36 0 34 -15 50 -39 42 -15 -4 -21 -2 -21 9 0
8 5 18 10 21 13 8 4 80 -15 115 -7 14 -16 33 -19 43 -6 19 -9 19 -46 7z"/>
<path d="M1212 2668 c-7 -7 -12 -22 -12 -35 0 -17 -6 -23 -21 -23 -16 0 -20 5
-16 20 5 19 -23 37 -41 26 -5 -3 -27 -6 -49 -7 -36 -2 -41 -6 -38 -25 1 -13
10 -38 19 -57 l16 -35 47 14 c75 23 83 13 24 -30 -41 -29 -51 -40 -40 -47 17
-10 48 -2 72 19 9 8 20 12 25 7 4 -4 1 -10 -6 -12 -11 -4 -48 -63 -38 -63 2 0
19 7 39 15 34 14 35 14 30 -6 -3 -11 -16 -27 -28 -35 -13 -8 -26 -22 -29 -31
-5 -12 -1 -14 21 -8 35 8 103 73 96 91 -3 8 1 14 8 14 11 0 11 3 -1 11 -12 9
-11 10 6 6 17 -3 21 0 20 17 -1 16 -9 22 -36 26 l-35 5 23 16 22 16 -22 62
c-22 61 -34 71 -56 49z"/>
<path d="M1400 2343 c-40 -27 -120 -106 -120 -120 0 -25 22 -13 66 35 24 26
44 41 44 33 0 -19 -38 -78 -61 -95 -19 -13 -19 -15 -3 -30 9 -10 23 -15 30
-12 8 3 14 -1 14 -11 0 -14 4 -13 23 5 13 12 26 22 30 22 15 0 6 -31 -13 -42
-24 -16 -18 -50 19 -94 14 -17 39 -48 54 -68 l29 -37 25 33 c22 29 24 30 18 8
-4 -14 -11 -29 -15 -35 -11 -15 9 -77 22 -69 5 4 19 26 29 50 11 24 24 46 30
49 5 4 3 -10 -7 -32 -38 -87 -38 -116 -2 -193 28 -59 58 -195 58 -261 l0 -40
35 27 35 26 0 -26 c0 -14 5 -26 12 -26 9 0 9 -3 0 -12 -15 -15 -16 -32 -1 -23
12 8 23 36 34 84 5 23 4 31 -4 27 -16 -10 -13 11 5 39 15 23 53 37 39 15 -3
-5 -1 -10 5 -10 7 0 9 7 6 16 -4 9 -1 23 6 31 12 14 12 118 0 137 -3 6 -7 17
-8 26 -1 17 -55 152 -76 190 -7 14 -23 39 -36 54 -22 28 -23 28 -42 11 -28
-25 -36 -12 -21 31 11 31 11 38 -2 51 -13 14 -16 12 -22 -16 -4 -17 -11 -31
-16 -31 -12 0 -11 27 1 51 9 15 5 28 -14 62 -24 40 -86 109 -86 94 0 -3 -11 4
-24 16 -13 12 -31 28 -40 35 -8 6 -13 19 -10 27 8 20 -14 18 -46 -2z"/>
<path d="M4300 2025 c0 -26 4 -30 68 -76 45 -32 51 -49 10 -29 l-23 11 23 -20
c27 -24 28 -34 2 -27 -58 17 -61 15 -20 -12 76 -49 110 -52 75 -6 -25 34 -16
35 27 4 62 -45 59 -26 -5 31 -56 49 -72 79 -43 79 8 0 21 3 29 6 8 3 17 -2 21
-12 5 -14 4 -15 -9 -4 -22 18 -19 -4 3 -23 26 -23 49 -23 31 0 -12 15 -12 16
4 10 11 -4 17 -2 17 8 0 8 -7 15 -15 15 -9 0 -26 7 -39 15 -17 12 -30 13 -49
6 -22 -9 -29 -6 -44 15 -10 13 -28 26 -40 29 -19 3 -23 -1 -23 -20z"/>
<path d="M2427 1863 c-4 -3 -7 -15 -7 -26 0 -11 -9 -21 -21 -24 -22 -6 -22
-17 -3 -127 7 -40 39 -83 49 -66 11 17 35 11 35 -9 0 -29 38 -89 61 -96 21 -7
25 -30 7 -39 -7 -3 -4 -4 7 -1 15 4 24 -3 33 -25 18 -40 32 -29 32 26 0 54 13
57 29 5 6 -21 18 -42 26 -45 8 -3 15 -12 15 -21 0 -31 19 -14 25 23 14 78 25
90 21 20 -2 -39 1 -71 7 -77 15 -15 47 -14 48 2 3 35 -4 93 -12 103 -5 6 -10
32 -11 57 -3 47 -14 57 -36 35 -7 -7 -12 -8 -12 -2 0 6 -6 19 -14 30 -14 18
-15 18 -26 -11 -10 -26 -13 -28 -21 -12 -6 9 -19 17 -29 17 -26 0 -25 16 1 23
30 8 18 35 -46 100 -30 31 -55 62 -55 71 0 24 -50 76 -74 76 -13 0 -26 -3 -29
-7z"/>
<path d="M2816 1443 c-3 -42 -3 -80 1 -84 5 -4 23 -10 41 -14 l32 -7 0 51 c0
49 1 51 28 51 18 0 23 -3 14 -9 -8 -4 -12 -23 -10 -45 2 -31 4 -35 14 -22 6 9
25 16 42 16 24 0 32 6 40 28 10 29 11 28 31 -44 17 -63 77 -121 162 -155 115
-47 190 -113 236 -209 25 -50 27 -66 28 -180 0 -134 -13 -182 -54 -195 -10 -3
-370 -7 -800 -8 l-781 -2 -22 22 c-17 18 -21 32 -19 75 3 71 6 111 16 183 7
58 6 61 -17 72 -15 7 -30 7 -40 2 -23 -13 -43 14 -23 31 23 19 18 31 -10 20
-19 -7 -25 -6 -25 4 0 10 -9 12 -32 7 -27 -6 -34 -14 -50 -61 -11 -30 -30
-113 -44 -185 -13 -71 -31 -165 -40 -208 -22 -102 -11 -147 43 -172 35 -17
102 -18 1017 -16 539 0 995 4 1013 7 18 3 43 17 56 30 27 27 33 52 81 334 45
265 47 270 59 270 6 0 4 6 -5 13 -15 12 -48 101 -48 130 0 18 21 16 46 -3 16
-14 16 -13 -1 17 -10 17 -26 34 -35 36 -9 2 -28 24 -41 47 -20 36 -32 45 -69
55 -104 29 -318 88 -360 100 -25 8 -74 21 -109 30 -60 15 -64 15 -76 -2 -13
-17 -14 -17 -21 2 -10 25 -35 44 -50 38 -7 -2 -15 -19 -18 -37 -6 -30 -9 -33
-34 -28 -37 7 -49 17 -56 53 -5 25 -10 30 -28 27 -20 -3 -22 -8 -19 -38 3 -35
3 -35 -18 -16 -12 11 -21 27 -21 37 0 10 -4 20 -9 23 -4 3 -11 -29 -15 -71z"/>
<path d="M2419 1323 c-31 -37 -54 -124 -29 -108 14 9 12 -34 -4 -88 -8 -26
-12 -56 -9 -67 6 -22 -12 -28 -21 -7 -3 8 -11 5 -24 -10 -11 -12 -22 -20 -24
-17 -8 7 12 114 28 153 9 20 17 43 19 51 6 27 13 75 8 63 -7 -19 -21 -16 -28
7 -9 29 -21 25 -34 -11 -15 -43 -14 -45 9 -24 28 26 43 9 30 -35 -5 -18 -18
-43 -29 -54 -10 -12 -22 -30 -25 -41 -3 -11 -4 -7 -2 9 9 71 -17 73 -40 4 -9
-29 -20 -57 -24 -63 -4 -5 -16 -38 -25 -73 -10 -34 -22 -65 -26 -68 -14 -9
-10 60 6 106 8 24 13 45 11 48 -13 12 -33 -10 -46 -49 -19 -60 -33 -80 -49
-69 -11 6 -11 15 2 51 9 24 18 76 21 114 l6 70 -18 -40 c-10 -22 -22 -52 -26
-67 -3 -16 -13 -28 -20 -28 -23 0 -76 -50 -76 -71 0 -10 -9 -42 -19 -71 -22
-61 -36 -156 -27 -186 10 -31 80 -43 244 -41 81 0 155 -2 164 -6 9 -4 22 -3
29 1 7 4 44 6 83 4 248 -9 266 -8 276 11 12 22 12 256 0 284 -5 11 -9 14 -9 7
-1 -7 -5 -10 -11 -7 -6 3 -10 -4 -10 -17 0 -18 2 -20 10 -8 8 12 10 11 10 -7
0 -15 -5 -21 -14 -17 -8 3 -17 0 -22 -7 -5 -9 -12 -2 -20 22 -10 27 -13 29
-13 12 -2 -48 -18 -20 -32 55 -10 55 -18 77 -29 77 -11 0 -16 15 -18 60 -3 80
-10 105 -27 105 -17 0 -17 -2 -15 -115 1 -44 -3 -91 -8 -105 -9 -23 -10 -22
-17 18 -4 23 -10 42 -14 42 -3 0 -5 35 -4 78 2 77 2 77 -12 37 -7 -22 -14 -52
-14 -67 -1 -44 -20 -42 -27 2 -5 28 -10 37 -15 28 -18 -28 -9 44 10 81 22 42
14 73 -10 44z"/>
<path d="M3980 1234 c20 -31 20 -31 0 -54 -13 -15 -18 -31 -14 -44 3 -12 8
-29 11 -39 4 -14 11 -17 26 -12 12 3 41 11 64 16 41 10 42 11 30 37 -34 80
-74 125 -112 127 l-24 1 19 -32z"/>
<path d="M3039 1135 c-1 -3 -3 -9 -4 -15 -1 -5 -3 -14 -4 -19 0 -6 -13 -16
-28 -23 -25 -12 -28 -18 -25 -56 3 -46 -16 -65 -43 -42 -19 16 -35 4 -35 -26
0 -15 -6 -24 -16 -24 -8 0 -23 -7 -31 -16 -9 -8 -24 -13 -34 -11 -12 3 -19 0
-19 -9 0 -22 -21 -16 -27 7 -4 16 -8 17 -14 7 -10 -15 -12 -158 -3 -182 5 -14
35 -16 233 -16 124 0 256 3 293 6 64 6 68 8 83 40 13 27 14 47 6 108 -5 41
-17 92 -27 113 -16 32 -25 39 -58 43 -22 3 -41 11 -44 18 -2 6 1 12 7 12 6 0
11 4 11 10 0 12 -65 40 -91 40 -21 0 -26 16 -6 23 7 3 6 6 -5 6 -21 1 -29 -11
-19 -28 10 -16 2 -63 -10 -55 -5 3 -18 25 -29 50 -14 30 -27 44 -40 44 -11 0
-21 -2 -21 -5z"/>
</g>
</svg>
