<?xml version="1.0" standalone="no"?>
<!DOCTYPE svg PUBLIC "-//W3C//DTD SVG 20010904//EN"
 "http://www.w3.org/TR/2001/REC-SVG-20010904/DTD/svg10.dtd">
<svg version="1.0" xmlns="http://www.w3.org/2000/svg"
 width="544.000000pt" height="544.000000pt" viewBox="0 0 544.000000 544.000000"
 preserveAspectRatio="xMidYMid meet">
<metadata>
Created by potrace 1.16, written by Peter Selinger 2001-2019
</metadata>
<g transform="translate(0.000000,544.000000) scale(0.100000,-0.100000)"
fill="#000000" stroke="none">
<path d="M0 2720 l0 -2720 2720 0 2720 0 0 2720 0 2720 -2720 0 -2720 0 0
-2720z m3060 2620 c134 -24 237 -48 265 -60 11 -5 54 -21 95 -36 90 -32 307
-139 387 -191 162 -105 450 -370 496 -455 10 -19 36 -58 59 -88 22 -30 74
-118 114 -195 110 -211 168 -409 179 -615 11 -183 32 -297 77 -398 23 -53 43
-99 43 -102 1 -3 9 -23 19 -45 10 -22 25 -58 33 -80 9 -22 20 -45 24 -50 19
-25 138 -338 154 -404 34 -142 0 -295 -78 -355 -36 -27 -185 -96 -209 -96 -7
0 -30 -11 -49 -24 -34 -23 -37 -30 -52 -113 -21 -115 -26 -147 -37 -240 -16
-135 -59 -393 -74 -442 -61 -206 -237 -321 -543 -356 -34 -4 -69 -12 -78 -19
-19 -14 -35 -76 -70 -276 -49 -277 -66 -324 -135 -364 -35 -21 -44 -21 -1075
-21 -1022 0 -1041 0 -1074 20 -65 38 -76 65 -75 173 1 59 12 153 28 237 78
406 96 540 96 691 0 86 -5 142 -19 196 -18 68 -67 182 -92 212 -5 6 -40 50
-77 97 -37 47 -106 133 -154 190 -143 173 -251 343 -314 496 -19 49 -41 102
-49 118 -26 58 -84 302 -99 420 -28 207 -18 464 24 670 40 200 163 497 268
649 90 130 124 175 181 239 43 48 58 72 54 85 -6 14 -4 15 8 5 11 -9 24 -2 66
36 102 94 230 191 250 191 7 0 13 4 13 8 0 5 39 30 88 57 254 143 523 228 807
254 147 14 390 5 525 -19z"/>
<path d="M2508 5280 c-370 -45 -764 -211 -979 -412 -14 -13 -48 -41 -75 -63
-75 -60 -201 -193 -196 -207 1 -5 -13 -22 -31 -38 -19 -16 -42 -47 -52 -70
-18 -41 -18 -41 3 -56 44 -30 19 -41 -41 -19 -9 4 -27 -17 -56 -67 -80 -137
-118 -227 -165 -386 l-15 -52 25 6 c14 4 24 2 24 -5 0 -6 -10 -11 -23 -11 -31
0 -52 -64 -72 -220 -27 -218 -13 -568 24 -639 6 -11 11 -35 11 -53 1 -42 53
-192 74 -214 13 -12 20 -14 29 -5 17 17 33 13 34 -10 2 -18 -2 -19 -29 -14
-30 7 -31 7 -25 -24 8 -37 89 -203 121 -246 12 -16 35 -52 51 -80 15 -27 31
-52 35 -55 11 -8 80 -99 80 -106 0 -3 23 -28 50 -55 28 -27 50 -53 50 -57 0
-4 18 -27 40 -50 22 -22 40 -45 40 -49 0 -5 20 -33 45 -63 48 -58 114 -175
128 -225 5 -16 18 -75 30 -130 11 -55 25 -101 29 -103 12 -5 10 -46 -4 -60 -8
-8 -8 -15 2 -26 12 -16 11 -31 -8 -131 -6 -27 -20 -113 -31 -190 -25 -162 -31
-192 -77 -415 -19 -91 -34 -179 -34 -196 0 -44 32 -81 78 -88 20 -4 478 -7
1017 -8 933 -2 982 -1 1018 16 21 10 42 27 48 37 5 10 21 81 34 156 14 76 30
165 36 198 6 33 17 92 24 131 23 129 35 137 213 159 147 18 222 40 294 86 60
39 112 102 104 127 -4 12 1 25 13 37 31 27 48 87 66 225 9 69 20 154 26 190
49 325 60 385 76 413 21 36 71 63 185 102 66 22 146 69 148 85 0 3 -12 13 -27
23 -28 18 -25 19 27 6 33 -9 49 132 26 236 -20 92 -41 133 -71 141 -24 6 -24
7 -8 19 16 12 15 18 -16 96 -40 98 -63 128 -94 123 -16 -3 -15 -1 5 6 l26 11
-24 55 c-13 30 -24 59 -24 65 0 5 -15 42 -34 82 -66 138 -94 242 -100 360 0
20 -17 22 -34 5 -9 -9 -15 -9 -23 -1 -8 8 -3 16 21 28 31 16 32 18 26 68 -3
29 -6 75 -8 103 -2 32 -10 57 -21 69 -12 11 -15 21 -9 27 12 12 -5 68 -19 68
-5 0 -9 20 -9 45 0 51 -20 99 -45 109 -13 4 -15 13 -10 36 13 59 -149 347
-260 462 -25 27 -45 51 -45 54 0 20 -229 232 -310 287 -89 61 -136 90 -221
135 -94 51 -132 62 -144 42 -12 -20 -27 -10 -21 13 5 22 0 26 -62 49 -37 14
-96 34 -132 46 -61 19 -89 24 -260 53 -84 13 -406 20 -492 9z m507 -245 c141
-28 208 -47 283 -76 149 -59 337 -164 454 -252 107 -81 292 -270 330 -336 17
-31 39 -65 48 -76 10 -11 43 -67 74 -124 50 -94 70 -140 104 -251 23 -71 42
-199 52 -335 13 -183 20 -244 31 -251 5 -3 9 -13 9 -23 0 -25 79 -194 94 -203
7 -4 13 -20 14 -37 1 -30 54 -167 99 -255 15 -28 28 -55 30 -61 1 -5 14 -44
28 -85 48 -142 31 -174 -122 -234 -139 -55 -162 -67 -182 -101 -17 -28 -44
-144 -56 -240 -2 -22 -9 -80 -15 -130 -12 -100 -17 -132 -31 -220 -6 -33 -14
-89 -19 -125 -21 -162 -28 -182 -80 -231 -70 -68 -124 -84 -280 -82 -86 1
-154 8 -217 22 -111 25 -113 25 -113 6 0 -8 -5 -15 -11 -15 -6 0 -9 8 -7 18 6
20 -24 36 -89 47 -18 3 -43 9 -56 14 -13 5 -55 17 -93 26 -38 9 -76 20 -84 24
-9 5 -31 12 -50 16 -19 4 -89 24 -155 45 -66 22 -150 48 -187 60 -37 11 -87
32 -111 45 -48 27 -144 131 -172 185 -29 59 -44 70 -91 70 -53 0 -74 -20 -74
-68 0 -52 31 -134 53 -140 14 -3 17 -11 12 -31 -11 -49 86 -167 179 -221 56
-32 217 -87 336 -115 41 -10 82 -20 90 -23 194 -67 204 -70 227 -61 21 8 24 6
29 -21 4 -16 18 -37 32 -46 14 -9 45 -37 69 -63 24 -25 43 -40 43 -33 0 7 7
12 16 12 11 0 14 -8 12 -27 -2 -16 -8 -27 -15 -26 -8 2 -7 -9 5 -35 12 -27 16
-68 17 -157 0 -145 -10 -173 -70 -191 -45 -13 -1579 -13 -1593 0 -11 12 -8
155 6 216 25 110 63 398 69 524 5 123 0 182 -33 360 -7 37 -76 202 -104 251
-17 28 -33 58 -36 68 -5 12 -13 17 -25 14 -15 -4 -19 0 -19 23 0 19 -13 42
-41 72 -22 23 -66 72 -97 108 -31 35 -75 81 -96 102 -22 21 -47 56 -57 78 -10
22 -22 40 -28 40 -12 0 -135 222 -151 275 -7 22 -22 58 -33 80 -11 22 -27 67
-34 100 -55 233 -56 245 -57 450 -1 110 3 227 8 260 12 84 13 120 1 120 -5 1
-34 5 -62 9 -83 12 -75 27 11 25 42 -1 78 0 79 2 2 2 11 40 22 84 10 44 22 84
27 90 4 5 8 15 8 23 0 21 95 213 135 272 19 29 35 54 35 56 0 10 120 157 179
220 60 63 67 75 63 103 -3 24 -1 31 12 31 9 0 16 -4 16 -10 0 -20 32 -9 85 30
30 22 55 47 55 55 0 8 9 15 20 15 22 0 146 75 143 87 -1 5 5 7 14 5 8 -2 12 1
9 7 -4 5 -1 13 5 17 6 3 14 2 18 -3 3 -7 32 2 71 21 153 74 314 120 521 146
105 13 369 4 464 -15z"/>
<path d="M2453 4942 l-93 -15 0 -36 -1 -36 -15 28 c-8 15 -21 27 -28 27 -24 0
-76 -22 -76 -32 0 -6 -6 -8 -14 -5 -17 7 -127 -32 -176 -62 -19 -11 -41 -21
-48 -21 -19 0 -237 -147 -283 -190 -8 -8 -43 -40 -77 -70 -34 -30 -62 -63 -62
-73 0 -10 -4 -15 -10 -12 -5 3 -25 -11 -45 -32 -51 -53 -165 -227 -165 -251 0
-11 -7 -25 -15 -32 -14 -12 -14 -15 0 -30 21 -23 19 -26 -12 -25 -20 0 -28 -6
-34 -27 -4 -15 -14 -35 -23 -44 -9 -8 -16 -23 -16 -33 0 -9 -4 -21 -9 -26 -18
-21 -21 -63 -4 -76 14 -13 13 -15 -13 -19 -26 -5 -29 -9 -32 -47 -3 -40 -1
-43 32 -57 48 -20 45 -27 -7 -20 l-44 6 -8 -93 c-5 -52 -9 -130 -9 -173 l-1
-79 40 -13 40 -12 -43 -1 -43 -1 7 -67 c3 -38 7 -75 8 -83 4 -33 16 -39 74
-35 43 3 50 2 27 -4 -16 -5 -45 -9 -63 -10 -31 -1 -33 -3 -28 -28 34 -181 34
-181 99 -165 25 7 61 12 79 11 l33 -1 -40 -9 c-130 -31 -131 -32 -96 -111 11
-24 27 -61 36 -83 32 -75 79 -166 92 -177 10 -8 18 -4 34 13 20 23 21 18 3
-26 -4 -10 0 -15 10 -15 13 0 15 -4 7 -19 -13 -24 -4 -32 25 -21 27 11 32 -1
9 -20 -8 -7 -15 -17 -15 -22 0 -10 132 -164 230 -268 29 -30 63 -75 78 -100
14 -25 32 -53 40 -62 8 -10 12 -18 7 -18 -4 0 4 -15 17 -32 38 -52 98 -194 98
-233 0 -21 10 -19 37 7 34 32 38 16 10 -34 -24 -42 -25 -45 -12 -108 20 -98
25 -230 15 -380 -11 -153 -34 -338 -50 -390 -15 -53 -13 -125 6 -140 17 -15
402 -33 419 -19 6 4 64 3 130 -2 142 -10 237 -8 247 6 4 6 9 42 10 80 1 57 2
61 5 20 2 -27 5 -63 8 -80 l5 -30 93 0 c50 1 157 2 237 3 l145 2 17 27 c15 26
16 26 23 4 5 -16 13 -21 36 -19 16 1 29 6 29 10 0 4 7 8 15 8 8 0 16 10 16 23
3 50 -2 115 -13 170 -12 62 -35 88 -85 93 -33 4 -41 13 -23 25 12 8 12 12 2
16 -7 3 -21 13 -30 22 -22 23 -80 51 -104 51 -10 0 -18 5 -18 10 0 6 -9 10
-20 10 -11 0 -37 6 -57 14 -21 8 -65 21 -98 31 -33 9 -75 23 -93 31 -44 19
-70 18 -75 -3 -3 -14 -6 -12 -15 10 -6 15 -17 27 -23 27 -18 0 -173 77 -197
99 -64 55 -120 111 -125 125 -7 16 -27 22 -27 8 0 -5 -7 -17 -15 -28 -13 -17
-14 -14 -8 31 4 41 1 58 -17 90 -63 112 -71 254 -17 315 77 87 213 71 279 -33
18 -29 35 -54 38 -57 3 -3 17 -21 30 -40 14 -19 31 -42 40 -51 20 -22 111 -69
132 -69 9 0 38 -9 64 -20 26 -11 59 -22 73 -24 14 -2 33 -6 41 -9 8 -3 49 -16
90 -28 41 -12 116 -35 165 -51 50 -16 118 -36 153 -44 35 -8 80 -21 100 -29
35 -13 141 -38 242 -56 25 -4 86 -6 135 -5 76 2 99 7 147 32 71 36 79 59 43
127 -14 27 -24 52 -21 54 2 2 16 -10 30 -28 38 -45 43 -29 11 33 l-27 53 30
-28 c46 -44 54 -8 10 55 -26 37 -22 46 7 18 14 -13 26 -22 28 -19 6 7 26 120
37 213 l11 89 -43 44 c-47 48 -44 56 6 18 18 -14 36 -25 39 -25 13 0 7 28 -8
40 -20 17 -19 27 4 33 13 3 20 17 24 48 3 24 11 75 17 112 12 69 12 69 -17 99
l-28 30 33 -16 33 -17 37 40 c37 41 131 99 194 120 48 17 88 55 88 86 0 14 -7
42 -16 63 -10 20 -19 46 -21 56 -7 37 -28 71 -51 81 -26 12 -29 25 -5 25 14 0
13 3 -6 16 -15 11 -19 20 -13 26 6 6 0 33 -20 76 -16 37 -35 81 -43 97 -7 17
-29 65 -49 109 -21 43 -47 110 -59 147 -17 57 -24 69 -41 68 -46 -4 -86 2 -86
12 0 6 9 13 20 16 11 3 18 9 15 13 -2 4 11 16 30 26 33 17 35 22 35 70 0 28
-3 53 -6 57 -3 3 -8 40 -10 82 -5 116 -11 135 -42 135 l-27 1 27 15 c23 12 26
18 18 37 -5 12 -21 55 -35 95 -28 74 -37 82 -78 61 l-22 -12 21 24 c12 13 19
30 17 37 -3 6 1 12 7 12 9 0 9 4 -1 16 -7 9 -15 26 -16 37 -6 38 -19 39 -77 7
-31 -18 -59 -30 -62 -27 -3 3 20 24 51 47 54 40 56 43 39 61 -9 10 -20 16 -25
13 -13 -8 -49 15 -49 31 0 18 1 18 35 5 23 -9 25 -8 16 8 -6 10 -30 41 -55 69
-25 28 -46 55 -46 60 0 12 -53 63 -65 63 -5 0 -29 -19 -54 -42 -25 -24 -39
-34 -31 -23 8 11 27 32 42 47 15 15 28 33 28 41 0 18 -139 157 -157 157 -6 0
-13 5 -15 11 -2 6 -20 -7 -41 -30 -43 -48 -45 -46 -16 10 l22 41 -29 25 c-16
14 -44 32 -62 39 -17 8 -57 30 -88 50 -71 45 -154 81 -176 77 -9 -2 -19 -15
-22 -29 -10 -37 -26 -19 -19 21 5 32 3 34 -28 43 -25 7 -40 6 -56 -5 -20 -12
-23 -12 -23 3 0 21 -29 43 -57 44 -18 0 -24 -9 -35 -57 l-13 -58 -3 60 -3 61
-62 14 c-34 7 -124 15 -201 17 l-138 4 6 -48 6 -48 -19 41 c-28 60 -35 62
-188 36z m423 -458 c43 -18 50 -24 116 -109 102 -130 125 -229 74 -319 -27
-49 -33 -76 -16 -76 6 0 10 -5 10 -11 0 -6 -7 -9 -15 -5 -18 7 -38 -29 -58
-106 -10 -37 -11 -60 -5 -66 15 -15 131 -2 145 17 16 23 7 31 -35 32 -53 1
-12 17 46 18 40 1 49 6 124 82 107 107 136 119 284 119 79 0 123 -4 142 -14
26 -14 112 -99 112 -111 0 -9 44 -69 57 -78 7 -4 10 -14 7 -21 -3 -8 2 -26 11
-40 26 -40 15 -134 -25 -216 -56 -114 -84 -166 -111 -201 -14 -19 -54 -86 -89
-149 -35 -63 -73 -128 -86 -145 -12 -16 -38 -62 -56 -100 -19 -39 -42 -82 -51
-95 -36 -51 -68 -103 -101 -163 -42 -79 -79 -141 -86 -147 -3 -3 -14 -23 -26
-45 -43 -84 -69 -130 -76 -133 -5 -2 -8 -9 -8 -15 0 -6 -23 -33 -51 -59 -41
-38 -59 -48 -88 -49 -20 0 -47 -2 -61 -4 -77 -11 -126 -11 -166 1 -24 7 -44
10 -44 7 0 -18 -76 70 -123 142 -75 114 -101 175 -95 222 5 35 58 160 75 177
8 8 14 31 16 63 1 12 8 28 15 35 29 29 -4 67 -64 70 -57 3 -99 -22 -174 -105
-59 -66 -89 -91 -142 -116 -64 -31 -73 -33 -176 -32 -59 1 -122 5 -139 10 -35
10 -103 67 -103 86 0 7 -7 18 -16 25 -27 23 -62 93 -79 155 -15 56 -14 65 2
128 9 37 25 76 35 87 10 10 18 25 18 31 0 7 6 20 14 28 8 9 26 41 42 71 15 30
31 57 35 60 4 3 13 17 18 30 13 30 30 57 52 82 9 10 22 31 30 46 7 15 23 43
35 62 11 19 36 62 54 95 34 61 53 95 91 163 12 20 41 71 64 112 71 128 87 154
106 182 11 14 19 30 19 36 0 5 6 15 14 21 8 7 17 23 20 37 4 14 16 35 26 47
11 11 20 27 20 35 0 8 21 38 46 67 52 61 47 60 245 63 78 2 117 -2 145 -14z"/>
<path d="M2553 4388 c-29 -33 -122 -183 -140 -226 -8 -20 -24 -49 -34 -64 -11
-14 -19 -40 -19 -58 0 -22 -4 -31 -13 -27 -16 6 -65 -68 -69 -104 -3 -20 2
-24 28 -27 24 -2 33 1 36 16 3 11 17 21 34 25 27 5 66 47 44 47 -5 0 -10 -4
-10 -10 0 -5 -4 -10 -10 -10 -22 0 -9 41 15 50 33 13 42 36 21 59 -15 16 -15
19 -1 31 12 10 18 10 31 -1 14 -12 20 -9 46 21 l29 35 -51 3 c-27 2 -50 8 -50
13 0 7 19 10 49 7 27 -1 53 2 59 7 5 6 24 21 41 34 17 13 31 29 31 35 0 7 8
21 18 32 24 26 62 92 62 109 0 18 -23 25 -79 25 -37 0 -52 -5 -68 -22z"/>
<path d="M2941 4261 c-16 -10 -20 -26 -24 -81 -2 -30 -6 -35 -29 -38 -16 -2
-28 -8 -28 -13 0 -8 15 -13 33 -10 4 0 7 -3 7 -9 0 -5 -4 -10 -10 -10 -5 0
-10 -5 -10 -11 0 -7 -8 -18 -17 -25 -16 -12 -15 -13 10 -14 20 0 27 -5 27 -19
0 -14 -6 -17 -23 -14 -17 3 -24 0 -24 -11 0 -12 10 -16 34 -16 19 0 32 4 29 9
-3 5 1 14 9 21 21 17 19 37 -5 45 -11 3 -20 10 -20 15 0 14 41 23 52 12 18
-18 62 45 61 86 -1 42 -49 97 -72 83z"/>
<path d="M3560 3983 c-69 -5 -75 -9 -58 -34 15 -23 65 -43 133 -53 33 -5 43
-11 38 -22 -4 -10 2 -14 21 -14 24 0 26 3 20 28 -8 32 -60 87 -89 94 -11 2
-40 3 -65 1z"/>
<path d="M2223 3823 c-16 -26 -43 -70 -59 -98 -16 -27 -34 -59 -41 -70 -7 -11
-19 -37 -29 -57 -9 -21 -20 -38 -25 -38 -5 0 -9 -7 -9 -15 0 -8 -5 -15 -11
-15 -7 0 -10 -12 -7 -30 3 -23 0 -31 -14 -36 -15 -4 -38 -40 -38 -57 0 -4 96
2 117 8 15 3 20 10 17 20 -4 8 -1 15 5 15 7 0 32 19 55 43 24 24 65 54 91 67
25 13 52 33 58 44 15 27 10 128 -7 141 -18 14 -30 55 -17 55 6 0 11 -7 11 -15
0 -26 15 -17 29 18 23 54 22 57 -17 57 -21 0 -46 3 -58 6 -17 4 -27 -4 -51
-43z"/>
<path d="M3481 3325 c-18 -19 -38 -35 -44 -35 -7 -1 2 -7 18 -15 l30 -13 -30
-3 c-16 -1 -39 -3 -50 -3 -11 -1 -39 -12 -62 -24 -33 -17 -43 -28 -43 -47 0
-38 0 -39 -16 -56 -15 -16 -15 -44 0 -67 4 -7 5 -28 2 -47 -4 -19 -2 -36 4
-40 15 -9 2 -25 -19 -25 -27 0 -34 -36 -8 -37 11 -1 25 -7 31 -13 8 -9 1 -11
-26 -9 -20 2 -40 0 -44 -4 -4 -4 0 -7 9 -7 23 0 21 -12 -4 -34 -17 -14 -19
-20 -9 -26 11 -7 11 -11 1 -24 -12 -14 -10 -16 8 -16 11 0 21 -4 21 -10 0 -5
-14 -10 -30 -10 -40 0 -94 -38 -79 -56 13 -16 2 -37 -17 -30 -8 3 -19 -4 -25
-17 -7 -12 -15 -24 -18 -27 -14 -12 -51 -70 -65 -104 -8 -20 -19 -36 -24 -36
-6 0 -12 -10 -16 -23 -7 -28 -39 -67 -55 -67 -13 0 -14 -10 -2 -29 13 -21 101
-18 134 4 14 9 29 29 32 45 3 16 13 31 21 34 7 3 27 31 43 63 57 115 86 168
99 181 21 23 43 72 37 82 -3 6 -1 10 5 10 7 0 5 7 -4 16 -23 22 -21 67 2 62 9
-2 16 -9 15 -15 -5 -23 25 -20 38 3 11 21 11 27 -1 34 -12 8 -11 10 5 10 26 1
60 56 228 370 16 30 33 59 38 65 18 19 8 25 -44 25 -47 0 -56 -4 -86 -35z"/>
<path d="M1990 2929 c0 -5 -11 -9 -24 -9 -13 0 -28 -6 -33 -12 -16 -21 4 -73
32 -86 32 -15 181 -16 190 -1 12 18 -5 58 -31 75 -30 20 -134 46 -134 33z"/>
</g>
</svg>
