<?xml version="1.0" standalone="no"?>
<!DOCTYPE svg PUBLIC "-//W3C//DTD SVG 20010904//EN"
 "http://www.w3.org/TR/2001/REC-SVG-20010904/DTD/svg10.dtd">
<svg version="1.0" xmlns="http://www.w3.org/2000/svg"
 width="544.000000pt" height="544.000000pt" viewBox="0 0 544.000000 544.000000"
 preserveAspectRatio="xMidYMid meet">
<metadata>
Created by potrace 1.16, written by Peter Selinger 2001-2019
</metadata>
<g transform="translate(0.000000,544.000000) scale(0.100000,-0.100000)"
fill="#000000" stroke="none">
<path d="M0 3515 c0 -1824 1 -1924 18 -1918 16 6 16 5 0 -14 -15 -16 -18 -40
-18 -146 0 -92 3 -127 12 -127 9 0 9 -3 0 -12 -13 -13 -17 -78 -4 -78 4 0 52
39 106 87 54 47 94 77 88 67 -12 -22 -132 -131 -174 -158 -27 -17 -28 -22 -28
-94 l0 -76 37 35 37 34 -18 -30 c-10 -16 -27 -38 -38 -47 -15 -13 -18 -27 -16
-62 l3 -45 39 35 c56 50 58 42 3 -14 l-47 -48 0 -452 0 -452 399 0 c379 0 400
1 405 18 4 11 18 30 33 43 27 25 24 15 -9 -33 l-19 -28 25 0 c18 0 30 9 41 31
9 17 19 29 22 26 2 -3 -3 -17 -12 -31 l-17 -26 362 0 c333 0 364 2 376 18 13
16 13 16 14 0 0 -17 53 -18 891 -18 784 0 890 2 879 15 -6 8 -10 20 -7 27 3 8
10 2 17 -15 l13 -27 594 0 c428 0 593 3 593 12 0 6 -10 26 -21 45 -12 19 -19
37 -16 40 3 3 17 -18 31 -46 l26 -51 231 0 c219 0 231 1 218 18 -13 16 -13 16
7 0 18 -16 43 -18 178 -18 l157 0 -16 30 c-18 36 -19 40 -1 40 7 0 21 -15 30
-32 14 -31 16 -4 16 398 l0 430 -26 23 c-29 25 -26 38 5 22 20 -11 20 -11 21
391 0 400 0 401 -22 425 l-21 23 21 0 c20 0 22 5 22 66 0 56 -4 70 -22 85
l-21 19 21 0 c22 0 22 2 22 194 l0 193 -37 16 -38 15 38 -5 37 -6 0 983 0 983
-52 -6 -53 -5 53 16 52 17 0 82 c0 56 -4 83 -12 83 -24 0 -115 -50 -138 -77
-30 -34 -114 -167 -100 -158 5 3 10 -1 10 -10 0 -12 -5 -15 -16 -11 -12 5 -15
2 -10 -10 4 -11 2 -15 -8 -11 -8 3 -17 0 -19 -7 -4 -9 -42 -15 -128 -19 -74
-4 -125 -11 -129 -18 -8 -12 -10 -12 -131 -3 -63 5 -82 2 -110 -14 -43 -23
-46 -44 -25 -182 9 -58 17 -117 18 -131 2 -24 4 -26 53 -22 37 2 45 1 30 -6
-11 -5 -30 -10 -43 -10 -13 -1 -20 -5 -17 -11 3 -5 2 -10 -4 -10 -6 0 -6 -11
-1 -31 5 -16 7 -36 4 -42 -4 -11 9 -184 19 -247 9 -54 97 -282 150 -387 38
-73 114 -262 148 -366 36 -107 46 -214 29 -288 -12 -54 -48 -129 -60 -129 -4
0 -17 -9 -29 -19 l-22 -20 21 -11 c12 -6 19 -14 16 -17 -3 -4 -16 -1 -29 6
-19 10 -31 8 -77 -13 -30 -14 -63 -26 -72 -26 -10 0 -36 -8 -57 -17 -64 -28
-79 -68 -105 -279 -3 -23 -10 -62 -17 -88 -10 -41 -9 -49 6 -66 17 -19 17 -21
1 -39 -10 -11 -18 -25 -20 -33 -1 -7 -4 -17 -8 -23 -3 -5 -9 -44 -13 -85 -4
-41 -15 -106 -25 -145 -10 -38 -21 -81 -24 -95 -3 -14 -17 -38 -31 -54 -14
-16 -25 -32 -25 -36 0 -23 -157 -150 -186 -150 -6 0 -17 -7 -24 -15 -7 -8 -23
-15 -36 -15 -15 0 -24 -6 -24 -15 0 -17 -17 -20 -22 -4 -3 8 -37 4 -113 -11
-61 -12 -120 -22 -132 -22 -23 0 -40 -14 -43 -33 0 -5 -3 -19 -5 -30 -20 -101
-37 -195 -41 -220 -24 -182 -59 -300 -101 -341 -46 -46 -99 -54 -356 -54 -225
0 -252 -4 -240 -36 3 -9 -2 -14 -17 -14 -16 0 -20 4 -16 15 3 8 0 15 -7 15 -7
0 -18 -14 -25 -32 -13 -36 -21 -33 -31 14 l-7 33 -322 0 c-276 0 -324 -2 -333
-15 -8 -13 -11 -13 -19 2 -14 23 -89 13 -113 -15 l-18 -20 -6 21 c-6 26 7 25
-347 26 -173 1 -242 -2 -250 -10 -8 -9 -15 -8 -29 4 -18 16 -20 16 -32 -1 -19
-26 -28 -21 -22 12 10 47 -50 86 -85 55 -10 -10 -21 -14 -25 -10 -4 3 2 13 13
20 16 11 18 23 16 71 -4 50 -6 56 -23 52 -28 -8 -23 15 10 47 18 18 31 41 34
64 2 21 10 66 16 102 7 36 19 103 27 150 9 47 22 117 29 155 25 131 26 135 10
135 -20 0 -19 17 1 28 42 23 46 436 5 461 -6 4 -16 34 -21 66 -6 34 -21 75
-37 99 -15 23 -34 53 -41 67 -7 15 -68 84 -135 154 l-123 128 -48 0 c-34 0
-53 -5 -61 -17 -7 -9 -17 -16 -23 -16 -7 0 -14 -12 -18 -27 -25 -110 -41 -157
-80 -232 -50 -98 -88 -134 -173 -164 -31 -11 -60 -23 -65 -28 -6 -5 -16 -9
-23 -9 -8 0 -33 -9 -55 -20 -23 -11 -48 -20 -55 -20 -7 0 -13 -4 -13 -10 0 -5
-10 -10 -22 -10 -70 0 -296 -87 -332 -128 -11 -12 -23 -22 -28 -22 -5 0 -30
-17 -55 -37 -26 -22 -41 -29 -33 -18 7 11 34 38 61 60 31 26 47 46 44 56 -8
26 224 135 435 206 118 39 164 66 168 97 3 25 22 38 22 14 0 -14 11 -4 14 14
6 32 18 57 31 62 8 3 15 17 15 31 0 14 4 25 8 25 15 0 34 87 24 107 -7 12 -7
25 0 37 5 10 8 32 5 49 -6 40 8 67 33 67 11 0 20 5 20 12 0 6 3 8 7 5 11 -12
40 46 47 93 4 29 1 54 -7 70 -14 26 -19 27 -79 15 -26 -5 -38 -4 -38 4 0 6 17
11 39 11 22 0 42 3 44 8 3 4 -12 43 -33 87 -91 188 -162 410 -178 550 -6 52
-10 60 -29 63 -29 4 -30 28 -2 37 16 5 19 12 15 28 -4 12 -9 76 -12 142 -3 66
-10 135 -16 154 -6 18 -6 36 -2 40 12 9 16 26 24 106 4 39 13 99 20 135 17 93
107 374 141 443 17 34 24 57 17 57 -6 0 -2 9 10 20 12 12 32 40 43 63 12 23
44 74 70 114 27 40 49 75 49 79 0 33 266 313 357 376 24 16 43 33 43 38 0 6 5
10 12 10 7 0 47 24 90 53 68 45 78 56 78 82 1 28 1 29 15 11 16 -21 25 -19
107 31 21 13 42 23 48 23 11 0 111 43 152 65 14 8 35 15 46 15 12 0 24 5 27
10 3 6 14 10 24 10 9 0 35 8 57 19 21 10 66 21 99 25 33 4 87 11 120 17 318
49 585 32 895 -57 30 -8 60 -16 65 -17 6 -2 15 -5 20 -8 6 -4 24 -9 40 -13 78
-19 419 -202 479 -258 24 -22 45 -23 52 -3 4 8 14 15 23 15 13 -1 11 -5 -7
-20 -22 -18 -22 -20 -5 -39 10 -12 21 -21 26 -21 12 0 112 -94 211 -197 75
-79 99 -97 93 -71 -1 6 8 17 21 23 12 7 28 20 35 30 8 10 22 15 38 13 l24 -4
-27 -14 c-15 -7 -25 -16 -22 -21 5 -8 -34 -49 -48 -49 -18 0 -6 -33 22 -63 17
-18 51 -67 76 -109 47 -79 66 -92 90 -61 7 10 16 15 20 10 4 -4 -1 -13 -11
-20 -14 -11 -15 -18 -7 -32 9 -17 22 -18 119 -16 91 2 119 -1 164 -18 58 -23
104 -27 114 -11 8 13 72 13 77 0 2 -5 27 -10 56 -11 51 -2 64 4 74 34 2 4 14
9 27 10 12 1 34 13 47 27 13 14 33 34 44 46 11 12 20 26 20 32 0 6 4 12 9 14
5 2 13 15 16 31 7 27 6 27 -41 27 -59 0 -54 7 17 20 64 11 108 54 133 127 8
24 27 54 41 65 23 18 25 25 25 103 l0 84 -47 -20 c-25 -11 -51 -18 -57 -16 -5
2 16 14 47 27 l57 24 0 143 c0 113 -3 143 -12 137 -10 -6 -10 -4 0 7 8 8 12
47 12 116 l0 103 -97 0 c-77 0 -101 -3 -117 -17 -20 -17 -20 -17 -7 0 13 16 9
17 -56 17 -41 0 -74 -5 -82 -12 -10 -9 -12 -10 -7 -1 10 18 -331 18 -352 0
-12 -9 -16 -9 -19 1 -4 9 -40 12 -137 12 -92 0 -136 -4 -145 -12 -11 -10 -12
-10 -7 -1 6 10 -393 13 -1954 13 l-1960 0 16 -25 c21 -33 1 -32 -24 0 l-20 25
-236 0 -236 0 0 -1925z"/>
<path d="M2577 5284 c-3 -3 -36 -8 -73 -10 -72 -4 -112 -14 -182 -45 l-44 -20
44 -38 c32 -29 46 -36 56 -29 19 16 27 2 24 -47 l-1 -43 257 1 c265 2 352 -7
502 -49 157 -45 407 -165 525 -252 39 -28 72 -47 73 -42 2 6 8 10 14 10 6 0 7
-7 4 -15 -11 -30 25 -29 50 1 13 16 23 24 24 17 0 -6 -7 -18 -15 -27 -25 -25
-17 -42 49 -103 35 -32 87 -86 116 -120 28 -35 58 -63 66 -63 8 0 14 -9 14
-19 0 -23 74 -126 143 -198 46 -49 53 -53 96 -53 62 0 91 30 91 93 0 49 -17
69 -51 60 -22 -6 -26 12 -5 20 12 5 13 13 5 39 -11 39 -115 194 -135 202 -8 3
-14 14 -14 25 0 12 -9 21 -25 25 -14 4 -25 13 -25 20 0 20 -105 139 -180 205
-53 46 -68 54 -101 54 -38 0 -40 1 -34 26 5 22 -1 30 -38 54 -24 15 -49 27
-56 27 -6 0 -11 5 -11 10 0 6 -4 10 -9 10 -6 0 -37 16 -70 35 -33 20 -64 34
-68 33 -4 -1 -21 10 -37 24 -15 15 -31 27 -35 26 -15 -3 -69 15 -114 38 -26
14 -55 24 -65 22 -9 -1 -28 5 -42 14 -14 9 -50 21 -80 28 -30 7 -80 19 -110
26 -49 12 -56 12 -67 -3 -12 -16 -14 -16 -25 0 -9 11 -38 20 -88 27 -83 10
-343 14 -353 4z"/>
<path d="M2188 5213 c-10 -2 -18 -8 -18 -12 0 -5 -23 -12 -52 -15 -28 -4 -61
-12 -72 -19 -12 -6 -25 -12 -31 -12 -16 -2 -95 -37 -154 -67 -29 -15 -58 -28
-63 -28 -6 0 -26 -13 -45 -30 -18 -16 -39 -30 -45 -30 -6 0 -33 -16 -59 -35
-27 -19 -53 -35 -57 -35 -8 0 -114 -91 -189 -162 -24 -22 -40 -45 -36 -51 3
-6 1 -7 -5 -3 -6 3 -15 -2 -21 -12 -5 -10 -29 -38 -52 -63 -51 -54 -110 -132
-134 -179 -10 -19 -35 -58 -55 -85 -20 -28 -41 -61 -45 -75 -4 -14 -11 -27
-16 -30 -5 -3 -10 -15 -12 -25 -1 -11 -10 -31 -19 -45 -23 -35 -54 -109 -81
-190 -40 -121 -87 -389 -87 -490 1 -25 -1 -79 -3 -121 -3 -75 7 -231 18 -279
3 -14 7 -37 10 -52 2 -15 6 -36 10 -47 3 -11 8 -30 10 -42 3 -12 10 -26 16
-30 6 -4 8 -12 4 -19 -4 -6 -3 -22 3 -33 5 -12 17 -43 27 -69 9 -26 27 -63 40
-82 13 -19 19 -36 14 -38 -13 -4 25 -90 72 -161 22 -32 39 -62 39 -67 0 -5 13
-17 30 -27 17 -9 30 -20 30 -24 0 -10 40 -18 56 -12 8 3 14 13 14 23 0 10 3
20 8 22 4 2 14 19 23 38 14 31 14 41 2 90 -8 30 -21 62 -29 71 -8 8 -14 20
-14 26 0 6 -11 36 -25 67 -45 102 -82 229 -110 385 -31 173 -14 507 36 698 10
40 16 79 13 87 -4 9 0 18 9 22 9 3 21 22 28 42 6 21 27 69 45 109 19 40 43 92
55 115 11 24 27 57 36 73 9 17 22 45 29 64 6 19 19 36 29 37 9 1 24 13 33 25
15 21 95 117 110 131 73 69 172 152 222 186 48 34 61 48 57 63 -3 10 -1 21 3
24 5 3 10 -2 12 -10 2 -13 17 -9 78 22 41 21 86 46 100 55 14 9 36 19 50 23
14 4 49 23 78 41 28 19 52 31 52 27 0 -9 78 74 90 96 11 22 12 82 1 121 -7 25
-28 33 -63 23z"/>
<path d="M2667 4959 c-14 -8 -16 -18 -11 -51 5 -30 4 -39 -4 -34 -7 4 -12 15
-12 25 0 19 -22 43 -36 40 -5 -1 -17 1 -26 5 -24 11 -115 -12 -122 -30 -3 -8
-12 -14 -21 -14 -8 0 -15 -7 -15 -15 0 -9 -7 -18 -15 -21 -21 -8 -19 -27 4
-44 11 -7 18 -17 16 -21 -3 -3 19 -22 48 -42 28 -19 71 -53 94 -76 23 -23 45
-41 49 -41 10 0 94 -83 89 -88 -9 -9 42 -38 89 -50 105 -27 207 -118 267 -238
40 -80 47 -130 24 -175 -22 -42 -36 -99 -24 -99 23 0 5 -27 -23 -35 -26 -8
-34 -16 -36 -38 -4 -32 18 -57 50 -57 21 0 108 71 108 88 0 12 68 52 89 52 10
0 24 6 30 14 13 15 170 94 199 100 18 3 29 7 80 24 164 59 220 72 293 71 38
-1 67 -4 65 -8 -2 -3 19 -4 47 -2 42 3 48 5 30 12 -25 9 -30 24 -10 36 6 4 18
16 25 25 11 14 10 20 -5 37 -23 25 -33 38 -63 81 -46 66 -45 66 -100 14 -60
-56 -65 -52 -10 8 22 23 40 48 40 54 0 13 -124 134 -138 134 -5 0 -16 10 -25
23 l-15 22 -20 -25 c-11 -14 -30 -36 -42 -50 -19 -22 -18 -19 5 23 l26 48 -28
28 c-31 31 -174 121 -192 121 -6 0 -11 5 -11 10 0 6 -8 10 -17 10 -9 0 -24 7
-33 15 -10 9 -30 17 -46 18 -16 1 -34 8 -39 15 -6 7 -30 18 -54 23 -36 8 -47
7 -62 -7 -18 -16 -19 -16 -19 8 0 22 -6 27 -36 33 -40 7 -54 -3 -54 -41 0 -26
-21 -87 -27 -80 -2 2 1 32 8 66 14 70 8 80 -48 80 -17 0 -35 5 -38 11 -4 6
-19 10 -33 9 -15 -1 -29 -1 -32 0 -19 8 -218 7 -233 -1z"/>
<path d="M2053 4821 c-12 -11 -24 -26 -27 -33 -5 -10 -7 -10 -12 0 -4 9 -13 7
-34 -8 -15 -11 -33 -20 -38 -20 -6 0 -25 -15 -44 -34 -18 -18 -43 -36 -54 -40
-12 -4 -33 -17 -46 -29 -13 -12 -33 -26 -45 -32 -33 -16 -134 -107 -154 -139
l-18 -29 37 -46 37 -46 -33 28 c-19 15 -38 24 -44 21 -6 -4 -14 -1 -18 7 -7
10 -11 10 -24 0 -9 -7 -13 -18 -9 -24 3 -5 1 -7 -5 -3 -11 6 -72 -60 -72 -80
0 -6 -11 -21 -25 -34 -27 -26 -33 -47 -12 -47 16 0 77 -43 77 -54 0 -18 -20
-18 -30 1 -6 12 -21 20 -36 20 -16 0 -28 8 -34 23 -10 22 -10 22 -7 -3 1 -16
-8 -35 -25 -52 -31 -31 -35 -50 -13 -68 19 -16 11 -30 -15 -23 -15 4 -25 -7
-50 -59 -16 -36 -30 -74 -30 -84 0 -11 -5 -25 -12 -32 -9 -9 -7 -16 7 -32 18
-19 18 -20 -3 -20 -22 0 -35 -17 -45 -61 -6 -22 -1 -28 36 -47 l42 -22 -46 6
-46 6 -12 -129 c-6 -70 -14 -147 -16 -170 -4 -40 -3 -43 23 -49 15 -3 36 -9
47 -14 15 -7 10 -9 -22 -9 -41 -1 -55 -12 -33 -26 7 -4 7 -12 0 -25 -13 -24
-13 -86 0 -111 9 -16 23 -19 83 -21 56 -1 61 -2 22 -5 -80 -5 -95 -11 -95 -36
0 -32 36 -157 49 -170 7 -7 30 -7 81 3 38 7 73 11 76 8 3 -3 -27 -12 -66 -19
-40 -7 -74 -18 -77 -25 -9 -25 27 -122 64 -172 36 -49 63 -89 91 -139 7 -12
25 -31 40 -42 26 -18 33 -18 110 -7 46 6 80 15 76 19 -4 4 2 7 13 7 12 0 23 7
27 15 3 8 12 15 21 15 19 0 134 108 145 134 7 21 -7 104 -21 122 -20 25 -59
156 -59 198 0 30 12 72 37 128 21 45 40 85 44 88 3 3 15 23 26 45 11 22 29 56
40 75 139 237 298 516 318 555 11 22 22 42 25 45 3 3 18 25 32 50 107 187 146
270 146 313 0 21 5 44 12 52 7 8 10 25 6 38 -5 21 -11 23 -61 23 -38 -1 -59
-6 -65 -16 -7 -11 -12 -12 -21 -3 -21 21 2 33 67 33 75 0 82 13 26 50 -42 28
-82 66 -97 91 -5 9 -21 36 -34 60 -13 24 -34 51 -47 62 -13 10 -23 21 -23 25
4 23 -6 30 -46 34 -26 2 -45 -1 -45 -7 0 -5 -4 -4 -8 3 -6 9 -13 7 -29 -7z"/>
<path d="M2845 4285 c-49 -105 -48 -115 18 -116 38 0 47 -3 32 -9 -11 -5 -37
-9 -57 -9 -44 -1 -50 -16 -12 -25 17 -5 24 -12 20 -21 -2 -7 0 -16 7 -19 7 -2
4 -5 -5 -5 -27 -1 -68 -23 -62 -33 3 -4 10 -6 15 -3 16 11 31 -5 19 -20 -7 -8
-9 -28 -4 -49 5 -29 11 -36 30 -36 13 0 24 5 24 10 0 6 5 10 11 10 24 0 69 65
69 101 0 11 6 19 14 19 16 0 46 58 46 88 0 10 -11 40 -24 65 -14 25 -22 48
-19 51 10 10 -48 76 -67 76 -14 0 -29 -20 -55 -75z"/>
<path d="M2486 4255 c-15 -19 -34 -35 -42 -35 -8 0 -14 -8 -14 -17 0 -9 -16
-39 -35 -67 -19 -28 -36 -62 -37 -76 -2 -14 -11 -29 -22 -35 -15 -8 -86 -126
-86 -142 0 -2 47 -3 105 -1 101 3 136 12 78 21 -24 3 -22 5 15 12 51 9 54 13
42 54 -7 27 -6 31 11 31 10 0 19 -7 19 -15 0 -8 5 -15 11 -15 7 0 9 10 5 25
-4 14 -2 25 4 25 5 0 10 9 10 20 0 11 -5 20 -12 20 -6 0 -3 9 7 20 17 18 17
20 2 14 -10 -3 -17 -1 -17 5 0 7 7 14 15 17 11 5 12 11 4 25 -9 17 -17 19 -58
13 -30 -4 -51 -2 -55 4 -9 15 30 25 71 17 43 -8 53 3 53 61 0 29 -5 44 -16 48
-24 9 -27 8 -58 -29z"/>
<path d="M3793 4004 c-18 -18 -18 -19 28 -109 40 -76 42 -85 43 -175 1 -70 -3
-103 -15 -125 -9 -16 -33 -64 -55 -105 -21 -41 -44 -81 -50 -88 -7 -6 -23 -32
-35 -57 -12 -25 -26 -45 -31 -45 -4 0 -8 -5 -8 -12 0 -6 -10 -25 -23 -42 -13
-17 -45 -74 -72 -126 -26 -52 -51 -97 -55 -100 -3 -3 -20 -32 -37 -65 -17 -33
-57 -105 -90 -160 -76 -127 -130 -221 -169 -296 -17 -33 -39 -68 -48 -78 -9
-9 -16 -22 -16 -27 0 -20 -87 -95 -120 -104 -47 -13 -185 -13 -235 1 -80 22
-166 104 -220 209 -10 19 -21 37 -25 40 -16 11 -29 108 -20 141 6 19 10 51 10
72 0 30 -5 39 -24 47 -13 5 -30 22 -37 39 -7 16 -23 34 -35 40 -18 8 -25 6
-37 -12 -8 -12 -13 -34 -11 -49 3 -34 -14 -47 -31 -24 -11 15 -13 15 -26 0 -7
-9 -38 -27 -69 -41 -30 -13 -64 -29 -76 -34 -20 -10 -41 -14 -124 -24 -55 -6
-132 -34 -143 -52 -4 -7 -32 -24 -62 -38 -30 -14 -75 -43 -101 -64 -25 -22
-70 -46 -99 -56 -59 -18 -89 -50 -73 -78 6 -11 5 -17 -2 -17 -16 0 -12 -40 5
-46 8 -4 15 -14 15 -24 0 -11 13 -24 30 -32 22 -9 30 -20 30 -38 0 -15 15 -41
38 -66 41 -45 50 -58 92 -129 16 -27 30 -45 30 -40 1 11 18 -32 59 -145 40
-114 41 -115 77 -88 l29 23 -22 -38 c-21 -34 -22 -46 -16 -128 6 -87 14 -110
45 -122 10 -4 8 -10 -5 -21 -16 -12 -20 -38 -28 -183 -5 -92 -14 -195 -19
-228 -6 -33 -16 -122 -22 -198 -13 -159 -10 -167 64 -173 78 -7 716 -6 727 1
7 4 12 56 13 133 l2 127 3 -115 c4 -152 6 -162 41 -156 15 2 91 5 168 5 138 1
142 2 148 23 l7 23 11 -23 c10 -21 17 -22 107 -22 96 0 97 0 125 32 25 29 27
37 21 78 -4 25 -7 50 -8 56 0 6 -7 11 -15 10 -22 -2 -39 31 -25 45 9 9 15 9
26 0 12 -9 13 -7 9 16 -6 33 -40 73 -63 73 -10 0 -25 3 -33 6 -15 6 -15 7 0
18 15 11 12 15 -22 37 -58 36 -106 59 -121 59 -7 0 -21 4 -31 10 -9 5 -86 31
-170 58 -152 49 -153 49 -164 28 -12 -21 -12 -21 -18 3 -6 27 -10 29 -95 66
-72 32 -126 66 -179 114 -21 20 -35 30 -31 23 5 -10 2 -13 -11 -10 -11 2 -18
11 -16 21 1 9 -4 29 -12 44 l-15 28 -11 -32 c-23 -63 -35 -32 -14 35 2 7 -8
38 -22 69 -44 96 -54 133 -54 206 0 70 0 71 44 112 52 51 113 64 168 38 35
-17 108 -81 108 -96 0 -10 62 -94 92 -125 13 -12 40 -28 62 -34 28 -9 34 -14
21 -18 -16 -6 -5 -9 160 -55 33 -9 92 -25 130 -37 39 -11 98 -28 132 -37 35
-10 66 -20 69 -24 12 -12 52 -8 57 6 4 7 8 3 12 -10 5 -15 15 -23 29 -23 12 0
26 -4 31 -8 16 -13 72 -29 197 -57 65 -14 123 -28 130 -30 26 -10 198 -21 198
-13 0 4 9 8 20 8 11 0 20 7 20 15 0 18 5 18 31 4 16 -8 29 -7 54 5 18 9 38 16
44 16 10 0 15 14 12 33 0 4 3 7 8 7 6 0 0 18 -11 40 -21 38 -38 52 -38 30 0
-5 -4 -10 -9 -10 -5 0 -8 18 -7 40 0 22 3 40 5 40 3 0 22 -19 43 -42 25 -30
38 -38 38 -26 0 20 -39 90 -57 101 -18 11 -16 27 2 27 8 0 15 -6 15 -13 0 -11
45 -67 55 -67 11 0 -6 64 -25 90 -22 30 -13 43 10 15 15 -18 32 -20 29 -2 -2
6 3 30 9 52 15 54 23 108 28 181 3 60 2 62 -38 103 -48 48 -45 52 14 12 24
-16 45 -28 47 -26 2 2 -7 17 -19 32 -19 24 -20 28 -6 31 12 3 16 15 16 48 0
24 4 44 9 44 9 0 31 97 31 136 0 13 -12 35 -27 50 l-28 26 33 -16 32 -17 33
37 c17 20 34 40 37 43 3 4 21 14 40 23 107 49 130 58 144 58 9 0 16 4 16 9 0
5 9 12 20 16 29 9 36 64 15 119 -10 26 -22 46 -27 46 -5 0 -6 4 -3 10 11 18
-25 78 -51 84 -29 8 -32 26 -4 26 27 0 25 18 -3 25 -32 8 -50 40 -36 63 9 14
7 30 -6 67 -23 71 -42 97 -67 93 -12 -2 -23 3 -26 11 -3 10 2 13 21 9 15 -3
25 -2 24 1 -2 3 -9 20 -16 36 -8 17 -17 39 -21 50 -4 11 -15 38 -23 60 -9 22
-22 59 -28 83 -10 35 -16 42 -38 43 -26 0 -26 0 -3 9 31 13 28 44 -5 59 l-28
13 22 17 c20 17 21 22 13 123 -12 148 -18 174 -43 186 -22 10 -22 10 3 20 14
6 19 11 13 11 -7 1 -13 11 -13 24 0 22 -32 71 -47 73 -4 0 -15 3 -23 7 -8 3
-26 7 -40 9 -17 2 -24 8 -22 20 3 16 -1 16 -43 -2 -52 -22 -56 -19 -17 15 l27
24 -35 1 c-19 0 -68 7 -109 15 -40 9 -76 13 -79 10 -3 -2 -10 -1 -16 4 -7 6
-16 4 -23 -5z"/>
<path d="M4433 4012 c-14 -2 -20 -8 -16 -18 3 -8 -1 -14 -10 -14 -20 0 -77
-78 -77 -105 0 -18 5 -21 30 -17 18 3 30 0 30 -7 0 -6 -11 -11 -25 -11 -14 0
-25 -4 -25 -10 0 -5 6 -10 13 -10 9 0 9 -2 -1 -8 -8 -6 -10 -22 -6 -56 6 -40
10 -47 25 -42 11 3 28 9 39 12 16 5 20 2 20 -15 0 -17 -6 -21 -36 -21 l-35 0
5 -87 c3 -49 5 -114 5 -146 0 -32 7 -82 15 -111 25 -87 88 -229 96 -216 4 6 7
-2 7 -18 0 -17 7 -46 16 -66 10 -20 24 -52 33 -71 15 -33 20 -35 48 -30 28 5
30 5 13 -9 -19 -15 -20 -57 -2 -101 29 -74 60 -142 71 -155 33 -41 24 -156
-15 -188 -18 -15 -158 -82 -171 -82 -5 0 -31 -10 -59 -22 -34 -15 -56 -33 -66
-53 -21 -43 -57 -259 -54 -330 1 -33 -3 -72 -9 -86 -5 -14 -13 -48 -17 -75
-11 -81 -16 -107 -25 -149 -5 -22 -10 -59 -10 -82 0 -43 -16 -101 -53 -186
-16 -39 -29 -53 -66 -72 -67 -34 -117 -45 -209 -46 -60 -1 -82 -5 -82 -14 0
-7 6 -15 13 -18 9 -3 9 -7 0 -17 -19 -21 -44 -4 -37 24 5 23 3 25 -43 31 -72
10 -182 32 -238 49 -28 8 -75 21 -105 29 -87 24 -298 85 -385 113 -45 14 -107
28 -138 31 -31 3 -57 9 -57 12 0 8 -64 37 -103 46 -30 8 -162 135 -172 166 -4
10 -10 19 -14 19 -5 0 -14 14 -21 30 -27 65 -103 92 -133 47 -24 -38 -29 -81
-13 -128 8 -24 19 -63 26 -86 6 -24 15 -43 20 -43 6 0 10 -7 10 -15 0 -8 4
-15 8 -15 4 0 16 -15 26 -32 29 -50 102 -113 165 -143 31 -15 63 -30 71 -34 8
-5 40 -13 70 -20 30 -7 75 -19 100 -26 25 -7 72 -21 105 -31 82 -23 175 -55
205 -70 14 -6 51 -25 83 -40 86 -41 160 -124 186 -208 38 -122 21 -325 -27
-340 -9 -3 -168 -6 -352 -7 -184 -1 -338 -4 -341 -5 -17 -9 -289 -13 -289 -4
0 5 -110 7 -278 3 -286 -6 -332 -2 -367 34 -17 16 -15 40 10 143 8 30 15 84
16 120 1 36 9 85 16 110 8 25 12 61 9 80 -3 19 1 55 8 80 32 109 28 362 -10
527 -14 65 -78 236 -95 256 -5 7 -28 41 -52 76 -42 65 -182 214 -225 241 -13
8 -34 23 -45 34 -64 54 -118 36 -132 -44 -4 -23 0 -47 11 -70 15 -31 69 -107
85 -120 3 -3 25 -32 48 -65 94 -133 151 -224 151 -240 0 -9 7 -30 17 -48 9
-18 17 -41 19 -52 1 -11 7 -43 13 -71 5 -28 11 -81 12 -117 1 -37 6 -67 11
-67 4 0 8 -7 8 -15 0 -8 -4 -15 -10 -15 -5 0 -10 -20 -10 -44 0 -25 -5 -79
-11 -122 -8 -57 -8 -79 1 -84 17 -11 2 -83 -16 -76 -10 4 -14 -4 -14 -29 0
-19 -4 -54 -10 -77 -5 -24 -15 -81 -21 -128 -7 -46 -21 -104 -31 -128 -11 -23
-18 -50 -17 -60 1 -9 -3 -36 -10 -60 -7 -24 -11 -66 -9 -95 3 -48 6 -53 37
-69 19 -9 37 -22 41 -29 9 -13 50 5 50 21 0 6 5 10 11 10 6 0 9 -9 6 -20 -5
-19 0 -20 259 -19 l264 0 0 22 c1 22 1 22 16 2 14 -19 29 -20 239 -23 123 -2
239 1 257 5 18 5 59 6 91 3 50 -5 60 -3 72 15 11 16 14 17 14 4 1 -20 52 -30
77 -16 11 6 19 6 23 -2 5 -7 98 -10 311 -8 279 3 308 4 345 22 51 26 55 37
106 334 22 130 48 252 57 271 23 48 59 62 182 72 131 10 138 12 115 38 -16 18
-16 19 6 17 13 -1 30 -7 36 -13 7 -7 22 -10 33 -7 15 4 18 11 14 29 -8 29 13
33 24 4 7 -20 8 -20 48 3 60 32 134 120 134 158 0 18 4 28 10 24 6 -4 10 5 10
19 0 14 5 26 11 26 16 0 38 62 40 118 2 38 -2 57 -16 72 -18 20 -18 20 5 18
20 -3 24 2 27 32 2 19 11 77 18 127 8 51 15 114 15 140 0 110 53 294 91 315
40 22 124 58 136 58 7 0 22 9 34 21 11 11 27 18 35 15 22 -9 79 26 105 63 22
31 24 45 24 142 0 105 -1 108 -27 129 -33 25 -37 45 -8 37 19 -5 19 -3 4 32
-14 35 -21 43 -61 68 -17 11 -17 11 3 20 22 8 22 9 -17 88 -21 44 -38 86 -39
94 0 7 -18 56 -41 107 -31 71 -46 94 -60 94 -10 0 -19 7 -19 15 0 8 5 15 10
15 6 0 3 16 -6 38 -9 20 -26 64 -37 97 -11 33 -22 67 -25 75 -3 8 -6 31 -8 50
-2 19 -5 57 -9 83 -3 27 -10 92 -15 144 -12 118 -47 260 -71 294 -20 28 -41
37 -76 31z"/>
<path d="M3553 3948 c-13 -6 -23 -15 -23 -21 0 -5 -6 -15 -14 -21 -8 -6 -17
-21 -21 -33 -5 -18 -3 -22 8 -17 22 8 33 -17 14 -31 -12 -9 -14 -14 -5 -23 7
-7 9 -12 5 -12 -4 0 -1 -13 8 -30 10 -19 24 -30 38 -31 12 0 30 -2 40 -4 11
-2 17 2 15 12 -2 9 3 18 11 21 9 3 11 -1 6 -17 -6 -20 -3 -21 49 -21 80 0 106
12 106 50 0 37 -14 67 -47 97 -12 12 -23 26 -23 31 0 4 -13 20 -28 35 -22 21
-37 27 -73 26 -24 0 -54 -5 -66 -11z"/>
<path d="M2235 3851 c-3 -11 -17 -36 -31 -57 -16 -23 -24 -46 -21 -61 3 -17
-5 -30 -34 -54 -21 -17 -36 -35 -33 -40 3 -5 -2 -12 -10 -15 -9 -3 -16 -12
-16 -20 0 -8 -5 -14 -10 -14 -6 0 -15 -10 -20 -22 -6 -13 -26 -50 -45 -83 -19
-33 -39 -70 -44 -82 -6 -11 -15 -24 -20 -28 -6 -3 -11 -15 -11 -25 0 -10 -6
-25 -12 -32 -16 -17 -42 -61 -63 -105 -8 -18 -20 -33 -25 -33 -6 0 -10 -16 -8
-35 2 -40 -3 -39 143 -36 91 3 102 5 123 26 24 26 29 45 11 45 -8 0 -10 14 -6
40 4 33 2 42 -15 51 -11 6 -26 8 -34 5 -8 -3 -14 -1 -14 4 0 6 11 10 24 10 22
0 24 4 22 47 -1 45 -3 48 -31 54 -29 6 -28 7 10 9 22 2 45 3 52 3 21 -1 37 54
25 85 -18 44 -17 64 2 122 18 53 53 100 76 100 14 0 41 26 38 37 -5 17 28 53
48 53 23 0 48 23 37 33 -3 4 -1 7 5 7 5 0 12 -6 14 -12 3 -9 9 -8 22 5 10 9
23 18 29 18 24 3 -79 18 -125 18 -38 1 -48 -3 -53 -18z"/>
<path d="M3334 3808 c-3 -4 3 -9 13 -10 20 -2 43 -5 58 -8 27 -6 -46 -16 -88
-13 -47 4 -48 4 -45 -24 3 -23 -1 -28 -18 -26 -37 4 -39 -36 -4 -67 26 -23 30
-34 30 -79 0 -45 4 -57 30 -83 25 -25 33 -28 46 -17 8 7 13 18 10 25 -3 7 5
16 17 21 19 6 16 8 -18 13 l-40 7 43 8 c45 8 57 24 20 26 -60 3 -63 4 -64 27
-1 22 11 31 18 11 2 -5 22 -13 44 -16 38 -5 43 -2 67 29 39 50 46 77 30 109
-8 15 -23 31 -34 34 -16 5 -18 10 -8 21 6 8 10 14 8 15 -27 6 -111 4 -115 -3z"/>
<path d="M3529 3659 c-30 -30 -108 -156 -140 -225 -16 -34 -35 -65 -42 -67 -9
-4 -9 -6 1 -6 6 -1 12 -6 12 -12 0 -6 -9 -8 -21 -4 -16 5 -20 3 -18 -12 5 -31
-11 -63 -32 -63 -11 0 -19 -7 -19 -18 0 -30 -33 -43 -66 -26 -41 21 -69 55
-52 65 6 4 16 5 20 3 5 -3 17 -2 28 1 16 5 18 10 10 26 -13 23 -30 25 -30 3 0
-10 -6 -14 -15 -11 -8 4 -17 2 -20 -3 -4 -6 -13 -10 -22 -10 -11 0 -14 7 -11
25 7 35 -11 38 -202 38 -149 0 -171 -3 -218 -23 -28 -12 -52 -28 -52 -35 0 -7
-7 -18 -15 -25 -10 -9 -12 -16 -6 -24 10 -12 4 -56 -8 -56 -4 0 -7 -10 -8 -22
0 -13 1 -17 4 -10 8 21 32 13 39 -12 5 -21 13 -25 70 -31 36 -4 84 -4 107 0
31 4 38 3 27 -4 -15 -11 -8 -15 23 -12 11 2 17 -5 17 -19 0 -19 -4 -21 -27
-16 -23 5 -25 4 -11 -4 10 -6 21 -29 24 -51 8 -51 34 -70 77 -58 17 5 41 6 52
3 18 -4 18 -4 3 6 -24 15 -23 40 2 40 10 0 23 7 27 15 5 8 18 16 29 18 12 1
28 9 37 17 29 26 41 35 71 48 17 8 25 16 19 20 -6 4 -13 17 -17 30 -6 19 -4
22 16 18 13 -3 27 -5 32 -5 4 -1 6 -10 3 -21 -4 -14 2 -25 19 -36 31 -21 31
-34 -1 -34 -14 0 -25 -4 -25 -10 0 -5 9 -10 20 -10 14 0 20 -6 18 -17 -2 -10
3 -17 10 -15 6 1 12 -2 12 -7 0 -11 -25 -21 -51 -21 -20 0 -26 -15 -9 -25 14
-9 0 -68 -20 -85 -9 -8 -20 -23 -23 -32 -4 -10 -15 -18 -25 -18 -10 0 -22 -3
-26 -7 -4 -5 -28 -12 -52 -18 -44 -10 -46 -12 -124 -140 -44 -71 -100 -167
-125 -213 l-47 -82 23 -19 c19 -15 41 -19 118 -20 119 -1 146 13 198 107 21
37 46 81 56 97 9 17 27 50 38 75 12 25 27 52 34 60 7 8 26 38 41 66 16 29 52
89 79 135 28 46 52 89 54 94 2 6 21 39 41 75 21 36 47 81 58 100 11 19 36 64
56 98 20 35 36 68 36 73 0 5 5 9 10 9 6 0 10 9 10 20 0 17 -5 19 -50 14 -32
-4 -50 -2 -50 5 0 7 22 11 53 11 62 0 94 18 83 46 -4 10 -4 15 0 11 13 -13
124 172 124 206 0 26 -50 38 -148 36 -78 -1 -98 -5 -113 -20z"/>
<path d="M2870 3591 c0 -28 -11 -52 -21 -45 -13 8 -11 42 4 47 6 3 -2 6 -19 6
-18 1 -47 -10 -69 -25 -52 -35 -61 -45 -67 -77 -10 -51 14 -57 213 -57 l177 0
17 26 c14 21 22 25 46 20 20 -4 29 -2 29 8 0 17 -103 71 -108 57 -5 -14 -39
-14 -47 -1 -3 6 -1 10 4 10 6 0 11 5 11 10 0 6 -25 10 -55 10 -37 0 -55 4 -55
13 0 6 -5 4 -11 -5 -14 -25 -32 -23 -24 2 5 14 2 20 -9 20 -9 0 -16 -8 -16
-19z"/>
<path d="M1831 3051 c-20 -13 -6 -55 24 -75 14 -9 25 -23 25 -31 0 -16 25 -21
35 -6 10 16 85 73 85 64 0 -4 -20 -28 -45 -53 -51 -52 -58 -71 -16 -41 20 14
45 21 78 21 91 0 121 36 83 98 l-20 32 -117 0 c-65 0 -124 -4 -132 -9z"/>
<path d="M2820 2955 c-6 -14 -15 -23 -20 -20 -6 3 -13 -1 -16 -10 -4 -10 4
-24 22 -40 l28 -24 -20 -23 c-12 -13 -24 -31 -27 -40 -4 -10 -15 -18 -26 -18
-10 0 -21 -7 -25 -15 -3 -9 -12 -12 -22 -8 -11 4 -26 -4 -45 -27 -16 -18 -29
-37 -29 -42 0 -6 24 -7 61 -3 44 5 60 4 55 -4 -4 -6 -35 -11 -72 -11 -70 0
-68 2 -64 -70 1 -19 6 -39 11 -44 5 -6 9 -17 9 -25 0 -9 12 -29 26 -46 14 -16
29 -35 32 -41 4 -6 17 -14 29 -18 18 -6 27 3 66 66 54 87 73 131 58 136 -22 7
-10 22 12 17 19 -5 26 0 40 30 9 20 17 37 17 39 0 2 -15 7 -32 12 l-33 8 42 3
c48 5 67 27 57 67 -4 18 -16 27 -49 35 -43 11 -63 26 -51 39 4 3 19 -1 34 -9
15 -9 33 -14 40 -13 6 1 17 2 23 3 8 1 8 6 -1 16 -7 9 -21 13 -30 10 -13 -4
-19 1 -24 19 -5 19 -11 23 -28 18 -17 -4 -20 -2 -16 14 3 11 -1 25 -9 32 -11
11 -15 8 -23 -13z"/>
</g>
</svg>
