<?xml version="1.0" standalone="no"?>
<!DOCTYPE svg PUBLIC "-//W3C//DTD SVG 20010904//EN"
 "http://www.w3.org/TR/2001/REC-SVG-20010904/DTD/svg10.dtd">
<svg version="1.0" xmlns="http://www.w3.org/2000/svg"
 width="544.000000pt" height="544.000000pt" viewBox="0 0 544.000000 544.000000"
 preserveAspectRatio="xMidYMid meet">
<metadata>
Created by potrace 1.16, written by Peter Selinger 2001-2019
</metadata>
<g transform="translate(0.000000,544.000000) scale(0.100000,-0.100000)"
fill="#000000" stroke="none">
<path d="M0 2720 l0 -2720 2720 0 2720 0 0 2720 0 2720 -2720 0 -2720 0 0
-2720z m3093 2616 c658 -139 1157 -525 1429 -1106 77 -163 127 -375 143 -600
12 -164 29 -237 90 -375 32 -71 66 -150 75 -175 9 -25 29 -71 43 -103 15 -32
27 -60 27 -63 0 -3 16 -42 36 -87 56 -129 75 -195 81 -292 4 -76 2 -100 -17
-155 -12 -36 -34 -78 -48 -93 -30 -33 -103 -71 -208 -111 -39 -15 -79 -32 -88
-39 -17 -13 -47 -129 -61 -237 -46 -363 -80 -548 -116 -626 -37 -79 -188 -214
-240 -214 -6 0 -25 -6 -42 -14 -32 -14 -145 -40 -227 -51 -95 -13 -105 -22
-120 -110 -5 -27 -11 -59 -14 -70 -5 -22 -25 -130 -51 -270 -29 -153 -60 -202
-145 -225 -26 -7 -369 -10 -1057 -8 -1006 3 -1018 3 -1053 24 -19 11 -46 36
-59 55 -21 31 -23 41 -18 129 3 52 10 115 16 140 16 71 88 486 102 587 17 133
7 340 -21 418 -42 117 -107 227 -186 315 -103 114 -209 248 -272 341 -73 109
-172 294 -193 359 -4 14 -17 50 -29 80 -115 301 -143 728 -71 1075 22 106 66
238 125 382 108 260 346 565 581 744 210 160 504 299 746 353 99 22 159 31
319 50 19 2 116 3 215 1 151 -2 201 -6 308 -29z"/>
<path d="M2555 5283 c-99 -9 -210 -28 -275 -45 -41 -11 -88 -24 -105 -28 -108
-27 -388 -154 -485 -220 -207 -141 -373 -304 -535 -527 -31 -43 -85 -132 -123
-203 -32 -61 -45 -93 -94 -230 -98 -276 -127 -724 -63 -978 7 -32 18 -77 23
-102 17 -78 98 -292 144 -380 73 -138 170 -281 268 -394 20 -23 49 -57 64 -76
47 -58 90 -111 117 -144 58 -69 118 -191 144 -291 22 -84 26 -122 26 -235 0
-74 -5 -166 -11 -205 -29 -194 -86 -522 -100 -575 -22 -86 -31 -173 -20 -201
26 -63 -19 -60 1070 -59 544 0 997 3 1007 6 68 22 82 49 108 204 9 52 30 168
47 258 36 189 46 205 140 216 287 34 374 66 459 168 69 82 78 113 114 388 48
359 73 499 96 537 23 37 70 63 179 98 77 25 147 73 167 115 23 46 22 184 -1
260 -24 83 -160 417 -262 644 -45 100 -61 177 -74 351 -13 171 -23 232 -61
355 -75 238 -192 456 -331 612 -18 20 -46 53 -61 73 -37 47 -258 245 -273 245
-7 0 -14 4 -16 9 -6 16 -121 87 -233 144 -177 89 -222 107 -395 156 -158 46
-474 72 -655 54z m530 -261 c177 -38 335 -104 530 -220 52 -31 160 -107 175
-122 3 -3 34 -30 69 -60 35 -30 83 -75 105 -99 23 -24 46 -49 51 -55 19 -20
162 -241 182 -281 11 -22 30 -57 41 -77 23 -40 84 -223 101 -303 6 -27 15
-124 21 -215 13 -218 26 -269 129 -495 10 -22 31 -71 46 -110 15 -38 40 -95
55 -125 56 -112 102 -252 97 -293 -9 -66 -41 -91 -194 -153 -106 -42 -138 -71
-151 -133 -20 -92 -41 -218 -52 -311 -29 -231 -62 -449 -77 -493 -44 -137
-174 -190 -413 -167 -125 12 -370 71 -652 156 -27 8 -72 21 -100 29 -29 8 -62
19 -73 24 -11 5 -62 21 -113 35 -51 14 -112 35 -135 47 -59 29 -164 135 -189
189 -31 68 -45 80 -94 80 -35 0 -47 -5 -60 -25 -47 -72 47 -288 169 -388 85
-69 143 -91 466 -181 133 -37 245 -88 323 -147 56 -42 73 -62 100 -117 29 -61
33 -77 36 -177 4 -133 -9 -183 -53 -205 -26 -13 -136 -15 -806 -15 -736 0
-778 1 -797 18 -31 28 -31 56 -1 235 67 392 80 588 49 755 -12 61 -28 131 -35
154 -24 71 -125 275 -146 293 -3 3 -12 15 -20 27 -12 18 -107 128 -144 167
-100 107 -213 260 -269 366 -127 241 -175 431 -183 730 -7 226 5 319 72 570
16 58 109 259 160 345 38 64 158 216 216 274 143 143 284 244 461 333 149 74
204 95 343 127 191 43 236 48 430 46 171 -1 204 -5 330 -33z"/>
<path d="M2701 4962 l-54 -3 6 -47 6 -47 -19 42 c-20 44 -53 62 -87 48 -10 -4
-44 -9 -75 -12 -96 -8 -112 -15 -119 -54 -4 -19 -7 -29 -8 -23 0 5 -7 18 -14
28 -12 16 -16 16 -52 3 -22 -8 -60 -20 -85 -27 -76 -21 -103 -32 -148 -62 -24
-15 -49 -28 -57 -28 -27 0 -260 -160 -305 -211 -3 -3 -22 -18 -42 -33 -21 -15
-44 -41 -52 -56 -13 -27 -12 -31 22 -72 l36 -43 -40 38 c-22 20 -43 37 -47 37
-12 0 -65 -57 -94 -101 -14 -21 -30 -39 -34 -39 -5 0 -9 -4 -9 -9 0 -5 -16
-33 -35 -62 -19 -30 -35 -61 -35 -70 0 -9 -7 -22 -15 -29 -14 -11 -14 -15 2
-32 17 -19 17 -19 -9 -13 -24 6 -28 4 -37 -32 -6 -21 -18 -48 -26 -60 -9 -12
-22 -42 -31 -65 -14 -41 -14 -44 7 -60 l21 -18 -24 0 c-20 0 -27 -7 -36 -39
-16 -51 -16 -51 18 -62 41 -15 38 -27 -7 -25 l-38 1 -7 -70 c-4 -38 -10 -116
-14 -171 l-7 -101 47 -7 c25 -4 44 -11 41 -16 -3 -4 -23 -6 -45 -3 l-41 6 7
-69 c3 -38 7 -78 8 -89 3 -17 13 -21 72 -26 l69 -5 -62 -2 c-34 -1 -64 -6 -67
-11 -8 -12 19 -154 34 -182 10 -17 18 -20 43 -15 18 4 52 9 77 11 37 4 33 1
-25 -14 -82 -21 -87 -30 -55 -103 48 -111 111 -236 125 -248 8 -7 15 -18 15
-24 0 -6 9 -17 20 -24 11 -7 20 -19 20 -27 0 -18 5 -18 31 -5 25 14 25 -2 0
-24 -18 -16 -18 -19 -3 -35 9 -10 44 -48 77 -85 33 -38 79 -89 103 -115 51
-55 162 -200 162 -213 0 -4 12 -27 26 -49 32 -51 94 -197 94 -221 0 -23 18
-23 42 -1 28 25 33 8 8 -32 -18 -28 -21 -45 -17 -78 4 -23 11 -78 18 -122 10
-71 6 -376 -5 -394 -2 -3 -7 -31 -11 -61 -4 -30 -15 -113 -26 -185 -24 -165
-24 -161 8 -182 23 -15 58 -19 228 -23 114 -3 203 -2 206 4 4 4 11 6 16 3 20
-12 323 -15 331 -3 4 6 10 63 13 126 l5 115 2 -110 c1 -60 6 -116 11 -124 7
-11 50 -14 222 -12 118 0 248 4 290 7 l76 6 16 44 c12 34 14 56 7 106 -16 112
-48 158 -110 158 -11 0 -20 5 -20 10 0 6 9 10 20 10 35 0 22 15 -37 43 -32 15
-65 31 -73 36 -8 5 -55 21 -105 36 -49 15 -124 38 -165 51 -90 29 -120 30
-120 7 0 -22 -17 -5 -22 21 -1 11 -11 20 -21 22 -24 3 -155 71 -197 102 -49
37 -130 120 -130 135 -1 6 -12 -1 -26 -18 l-25 -30 6 45 c5 38 1 56 -24 110
-17 36 -31 73 -31 82 0 9 -4 20 -10 23 -14 9 -12 126 3 151 25 43 53 70 93 88
36 16 49 16 97 6 57 -11 117 -57 117 -87 0 -8 4 -11 10 -8 5 3 10 -1 10 -9 0
-27 132 -166 157 -166 7 0 13 -3 13 -8 0 -8 69 -29 128 -39 17 -3 32 -9 32
-14 0 -5 7 -9 15 -9 8 0 34 -6 57 -14 24 -8 70 -22 103 -31 33 -10 85 -26 116
-36 30 -11 68 -21 85 -23 16 -3 49 -11 74 -19 259 -85 399 -112 516 -102 98 8
115 12 146 35 15 11 32 20 37 20 25 0 24 54 -2 101 -36 63 -34 70 9 28 34 -32
36 -32 29 -9 -4 14 -17 38 -27 53 -24 34 -19 46 7 17 10 -11 24 -20 32 -20 18
0 9 33 -19 73 -21 30 -20 48 2 22 7 -8 16 -15 20 -15 14 0 30 56 44 157 8 56
18 107 21 114 4 6 -12 30 -36 55 -47 48 -45 55 7 23 27 -16 34 -18 34 -6 0 8
-7 20 -15 27 -16 14 -10 34 9 27 9 -4 17 31 30 115 l17 121 -28 30 -28 29 35
-17 c26 -13 35 -15 38 -5 11 31 85 85 188 136 83 41 114 61 118 78 6 25 -7 80
-29 123 -8 15 -15 37 -15 49 0 24 -29 54 -53 54 -9 0 -17 5 -17 10 0 6 10 10
22 10 l22 0 -23 16 c-15 11 -19 20 -13 26 7 7 -1 36 -25 87 -19 42 -53 119
-75 171 -22 52 -45 103 -50 114 -5 10 -16 41 -24 67 -12 41 -19 49 -39 49 -13
0 -27 5 -30 10 -3 6 2 10 12 10 43 1 44 7 28 181 -19 201 -19 205 -47 214 -20
6 -21 8 -5 12 16 4 18 11 12 41 -13 75 -50 172 -65 172 -5 0 -21 -5 -36 -10
l-27 -11 31 29 31 29 -27 51 -27 51 -54 -30 c-29 -17 -55 -28 -57 -26 -2 2 18
23 45 45 57 48 58 38 -17 151 -23 35 -51 70 -62 78 -11 8 -20 20 -20 27 0 7
-11 23 -25 36 -23 22 -25 22 -50 6 -14 -9 -25 -20 -25 -25 0 -5 -12 -17 -27
-26 l-26 -18 20 29 c12 16 30 38 42 48 29 27 27 39 -18 77 -21 19 -60 53 -87
77 -26 23 -51 42 -55 42 -4 0 -21 -17 -38 -37 -36 -44 -39 -38 -11 17 11 22
20 41 20 44 0 6 -89 66 -98 66 -4 0 -29 16 -56 35 -27 19 -55 35 -62 35 -6 0
-32 11 -55 25 -24 14 -56 25 -71 25 -14 0 -28 5 -30 12 -2 6 -24 17 -47 24
-41 12 -45 11 -62 -9 l-18 -22 -1 28 c0 19 -7 31 -24 39 -36 16 -54 4 -62 -39
-12 -69 -23 -71 -24 -5 0 34 -2 62 -4 62 -2 0 -28 5 -57 11 -72 14 -221 25
-288 21z m151 -488 c51 -17 154 -111 184 -167 54 -103 59 -114 57 -157 -1 -50
-5 -69 -16 -87 -5 -8 -4 -13 2 -13 6 0 11 -8 11 -19 0 -27 18 -38 75 -44 28
-4 60 -9 72 -13 32 -9 65 1 99 31 51 45 88 55 206 55 130 0 161 -11 208 -71
19 -24 37 -46 40 -49 7 -5 41 -71 58 -110 29 -67 31 -163 5 -225 -10 -25 -21
-45 -25 -45 -5 0 -8 -4 -8 -10 0 -16 -52 -124 -72 -150 -11 -14 -26 -40 -33
-57 -8 -18 -42 -78 -76 -133 -34 -55 -62 -113 -64 -129 -1 -16 -11 -38 -22
-50 -12 -13 -19 -30 -16 -42 3 -10 1 -19 -4 -19 -5 0 -10 -19 -12 -42 -1 -24
-9 -53 -17 -65 -9 -14 -14 -48 -14 -92 0 -38 -5 -73 -10 -76 -6 -4 -8 -10 -6
-14 3 -4 -10 -23 -29 -41 -19 -19 -35 -38 -35 -43 0 -16 -44 -46 -78 -53 -18
-3 -35 -10 -38 -15 -3 -5 -10 -7 -15 -3 -5 3 -8 0 -7 -7 2 -6 -14 -24 -35 -39
-22 -14 -49 -44 -60 -67 -34 -64 -49 -79 -101 -107 -43 -23 -61 -26 -142 -26
-120 0 -198 20 -244 63 -19 18 -48 40 -65 48 -39 19 -65 41 -59 50 4 8 2 9
-81 29 -27 7 -58 21 -67 32 -10 11 -25 18 -33 15 -8 -4 -17 -2 -20 3 -7 12 12
131 23 142 5 5 33 11 63 13 55 5 99 35 99 69 0 8 3 16 8 18 11 5 57 68 75 105
13 24 14 33 4 36 -8 3 -5 10 10 21 12 9 30 33 39 52 15 32 15 37 2 51 -13 12
-27 13 -79 7 -60 -8 -64 -11 -67 -36 -3 -25 -12 -33 -35 -29 -4 1 -21 -6 -37
-14 -27 -14 -29 -17 -17 -43 6 -15 16 -30 21 -33 5 -4 6 -15 2 -25 -7 -18 -8
-18 -17 -2 -9 16 -12 16 -44 1 -19 -9 -35 -20 -35 -23 0 -10 -44 -60 -53 -60
-5 0 -29 -9 -54 -21 -42 -19 -56 -20 -182 -14 -75 4 -145 11 -156 15 -26 10
-83 67 -101 102 -8 15 -25 43 -38 63 -29 43 -59 164 -50 203 12 50 55 144 99
216 24 39 55 98 70 131 14 33 35 77 46 97 10 20 19 44 19 52 0 24 67 132 110
177 35 37 100 132 100 145 0 4 7 15 16 25 8 9 16 24 18 32 1 8 7 21 14 29 6 8
43 68 82 134 91 153 91 153 110 189 8 17 35 56 58 88 l43 57 138 0 c98 0 150
-4 183 -16z"/>
<path d="M2585 4419 c-35 -10 -55 -34 -96 -112 -17 -33 -43 -77 -60 -99 -16
-23 -29 -49 -29 -60 0 -10 -4 -18 -9 -18 -10 0 -22 -31 -30 -80 -4 -20 -12
-35 -20 -35 -16 0 -45 -87 -31 -95 5 -3 27 -4 49 -2 33 3 44 10 65 43 15 21
33 39 41 39 8 0 15 4 15 10 0 5 12 13 27 16 14 4 46 20 69 36 23 15 47 28 53
28 6 0 11 6 11 14 0 8 11 17 25 20 14 4 32 20 41 39 9 17 39 69 66 113 59 97
62 135 13 145 -44 10 -166 9 -200 -2z"/>
<path d="M2873 4363 c-7 -2 -13 -9 -13 -15 0 -5 -13 -29 -30 -53 -16 -24 -30
-46 -30 -50 0 -3 -10 -22 -23 -43 -13 -20 -29 -51 -35 -69 -13 -38 -5 -43 70
-43 53 0 61 -7 17 -13 -44 -7 -28 -32 21 -32 34 0 45 -4 48 -17 4 -23 6 -23
36 6 32 29 32 34 4 39 -15 3 -13 4 5 2 23 -1 32 6 54 42 23 40 25 48 14 83
-17 58 -59 127 -91 150 -15 11 -30 20 -32 19 -1 0 -9 -3 -15 -6z"/>
<path d="M3435 3987 c-21 -16 -16 -52 17 -105 18 -29 24 -32 49 -27 33 7 38
-5 12 -30 -9 -9 -12 -20 -7 -23 5 -4 16 -22 25 -41 12 -28 21 -34 47 -35 19
-1 32 4 32 12 0 17 17 15 24 -3 4 -11 22 -15 70 -15 68 0 86 12 86 57 0 19
-39 101 -59 124 -6 8 -21 27 -33 43 -12 16 -36 35 -54 42 -44 18 -184 19 -209
1z"/>
<path d="M2785 3890 c-8 -25 -65 -29 -65 -5 0 23 -46 18 -67 -8 -10 -12 -29
-29 -43 -38 -50 -33 -90 -74 -90 -94 1 -20 1 -20 15 -1 12 16 18 17 27 8 15
-15 80 -16 95 -1 8 8 19 5 42 -12 25 -18 36 -21 58 -13 43 15 102 129 87 168
-9 23 -51 20 -59 -4z"/>
<path d="M2445 3806 c-11 -6 -22 -14 -25 -17 -3 -3 -13 -8 -22 -12 -33 -12 -9
-102 25 -93 9 2 17 0 17 -5 0 -5 -6 -9 -12 -9 -9 0 -10 -2 -2 -8 7 -4 13 -16
15 -27 3 -12 14 -21 27 -23 12 -2 20 -7 17 -12 -3 -4 -14 -6 -25 -3 -11 3 -20
0 -20 -6 0 -6 -15 -11 -33 -11 -31 0 -32 1 -32 40 0 26 4 40 12 40 9 0 7 6 -4
20 -18 21 -63 28 -63 9 0 -6 -8 -9 -17 -7 -16 3 -86 -63 -89 -83 -1 -5 -2 -14
-3 -20 0 -5 -5 -8 -10 -4 -5 3 -12 -4 -16 -15 -3 -11 -13 -20 -21 -20 -18 0
-18 -14 1 -30 23 -19 19 -42 -7 -38 -25 4 -72 -36 -65 -56 4 -13 59 -20 93
-12 21 6 22 9 12 31 -16 36 0 45 24 13 l20 -28 106 6 c59 3 232 6 385 7 254 2
279 4 288 20 12 21 29 22 29 2 0 -12 18 -15 100 -15 99 0 100 0 100 24 0 30
-24 50 -50 43 -11 -3 -23 -1 -26 4 -3 5 4 9 15 9 27 0 28 35 2 50 -29 15 -38
12 -45 -12 -6 -23 -7 -23 -21 -4 -19 25 -19 46 0 46 29 0 12 33 -20 39 -11 2
-67 4 -125 5 -67 2 -121 8 -150 19 -28 10 -79 16 -135 17 -137 1 -136 1 -122
-21 9 -14 9 -21 -1 -31 -9 -9 -12 -9 -12 0 0 7 -11 12 -25 12 -13 0 -39 9 -57
20 -18 11 -27 20 -20 20 9 0 10 4 0 19 -9 14 -8 27 5 58 18 47 11 66 -18 49z"/>
<path d="M3553 3670 c-28 -11 -51 -47 -55 -85 -2 -25 1 -31 20 -33 24 -4 29
-17 10 -25 -7 -3 -3 -6 9 -6 12 -1 24 -5 27 -10 9 -13 -18 -20 -58 -15 -22 2
-36 0 -36 -6 0 -6 5 -8 11 -5 6 4 9 0 7 -11 -2 -14 4 -19 22 -20 14 -1 31 -2
38 -3 6 0 12 -14 12 -31 0 -29 2 -30 43 -30 33 0 45 5 57 23 8 12 13 25 12 30
-1 4 4 7 11 7 14 0 81 122 96 177 7 22 6 35 -2 41 -16 11 -196 13 -224 2z"/>
<path d="M2352 3353 c20 -45 80 -133 92 -134 6 -1 16 -2 21 -4 6 -1 21 -3 35
-4 23 -3 22 -4 -8 -12 -46 -14 -30 -32 22 -26 22 3 33 3 24 0 -24 -6 -23 -33
1 -33 11 0 21 -5 23 -10 2 -6 56 -13 126 -17 131 -6 158 -17 147 -54 -12 -36
-13 -74 -3 -86 16 -20 2 -41 -28 -45 -15 -2 -30 -10 -34 -18 -17 -33 -84 -145
-90 -150 -4 -3 -9 -14 -12 -25 -3 -11 -9 -27 -12 -35 -5 -13 6 -15 71 -12 57
2 73 0 61 -8 -9 -6 -46 -11 -82 -11 -61 -1 -66 -3 -66 -23 0 -28 9 -39 44 -54
20 -9 32 -10 40 -2 5 5 20 10 32 10 13 0 26 5 29 10 4 6 11 8 16 5 5 -4 13 5
19 19 7 19 17 26 35 26 32 0 55 41 35 65 -11 13 -8 15 17 15 33 0 53 16 53 41
0 9 7 22 16 29 8 8 33 45 56 84 52 91 129 206 139 206 21 0 17 -37 -8 -74 -49
-75 -93 -158 -88 -167 3 -4 13 -5 21 -2 10 3 17 -1 20 -14 6 -23 42 -29 40 -6
0 9 5 18 12 20 7 3 12 -4 12 -16 0 -17 6 -21 30 -21 31 0 36 6 21 29 -6 9 -11
10 -15 2 -9 -14 -26 -5 -26 15 0 10 9 13 34 10 40 -5 50 2 34 21 -16 20 -3 27
30 15 61 -21 99 41 42 66 -17 8 -28 17 -25 22 3 4 -4 10 -15 13 -23 6 -27 27
-5 27 8 0 15 7 15 15 0 14 28 19 96 18 18 0 -20 66 -41 70 -17 3 -16 5 9 16
27 11 28 13 11 25 -17 12 -16 13 7 19 37 10 43 35 13 49 -27 12 -33 28 -12 29
6 0 1 5 -13 10 -14 6 -46 7 -72 4 -34 -5 -48 -3 -48 5 0 7 9 14 20 17 13 3 20
12 18 22 -3 14 -24 16 -148 19 -80 1 -151 4 -158 7 -8 3 -98 7 -201 10 -150 4
-191 3 -206 -9 -20 -15 -142 -11 -159 5 -6 5 -25 9 -43 9 -32 0 -32 -1 -21
-27z"/>
<path d="M2259 3287 c-15 -24 -32 -60 -40 -80 -11 -32 -11 -39 4 -54 20 -23
17 -49 -9 -67 -17 -13 -17 -15 -2 -21 22 -9 63 -2 61 10 -1 6 -5 18 -8 28 -6
15 0 17 49 17 31 0 56 -4 56 -10 0 -5 -13 -10 -29 -10 -36 0 -60 -45 -26 -48
8 -1 22 -3 30 -4 9 -1 14 -6 12 -12 -5 -15 -57 -20 -57 -5 0 7 -8 9 -22 5 -13
-4 -30 -9 -38 -11 -8 -2 -16 -4 -18 -4 -1 -1 3 -7 10 -15 9 -9 17 -10 29 -3 9
6 24 7 33 4 14 -6 16 -14 11 -38 -5 -22 -4 -29 4 -25 6 4 11 13 11 19 0 15 36
48 44 40 3 -4 6 7 6 24 0 17 6 36 14 42 8 6 16 23 19 37 5 30 -16 44 -67 44
-37 0 -48 13 -20 24 9 3 14 13 10 21 -3 8 2 18 11 23 13 8 14 15 4 43 -9 28
-41 69 -54 69 -1 0 -14 -20 -28 -43z"/>
<path d="M1908 3288 c-34 -46 -78 -124 -78 -139 0 -16 39 -49 58 -49 31 0 80
24 81 39 0 37 13 107 22 118 7 8 4 13 -9 17 -11 4 -19 14 -18 23 2 30 -30 25
-56 -9z"/>
<path d="M1827 3053 c-12 -12 -7 -42 13 -80 11 -21 20 -43 20 -50 0 -29 24
-22 67 20 42 41 45 47 36 73 -7 20 -17 29 -30 29 -12 0 -25 3 -29 8 -9 9 -68
9 -77 0z"/>
<path d="M1944 2932 c-54 -60 -56 -78 -9 -101 50 -24 166 -18 128 7 -6 4 -21
29 -32 55 -12 27 -25 46 -31 42 -6 -4 -7 5 -4 25 4 16 5 30 3 30 -2 -1 -27
-26 -55 -58z"/>
<path d="M3040 2827 c0 -7 -13 -34 -30 -60 -16 -26 -26 -47 -22 -47 4 0 2 -4
-5 -8 -10 -6 -27 -36 -101 -177 -15 -27 -29 -52 -32 -55 -4 -3 -18 -26 -32
-53 l-27 -47 23 -15 c12 -8 60 -18 109 -21 83 -7 88 -6 122 20 19 15 38 38 41
51 3 14 12 25 20 25 26 0 20 87 -7 109 -30 25 -87 149 -81 177 4 21 9 24 40
22 21 -1 37 3 40 10 2 7 12 12 23 12 17 0 18 3 9 20 -6 11 -20 20 -31 20 -13
0 -19 5 -16 13 3 8 -4 14 -19 15 -14 1 -24 -4 -24 -11z"/>
</g>
</svg>
