<?xml version="1.0" standalone="no"?>
<!DOCTYPE svg PUBLIC "-//W3C//DTD SVG 20010904//EN"
 "http://www.w3.org/TR/2001/REC-SVG-20010904/DTD/svg10.dtd">
<svg version="1.0" xmlns="http://www.w3.org/2000/svg"
 width="544.000000pt" height="544.000000pt" viewBox="0 0 544.000000 544.000000"
 preserveAspectRatio="xMidYMid meet">
<metadata>
Created by potrace 1.16, written by Peter Selinger 2001-2019
</metadata>
<g transform="translate(0.000000,544.000000) scale(0.100000,-0.100000)"
fill="#000000" stroke="none">
<path d="M0 5201 c0 -182 3 -241 13 -244 9 -4 9 -6 0 -6 -19 -1 -19 -1007 0
-1014 10 -4 10 -6 0 -6 -19 -1 -19 -1167 0 -1174 10 -4 10 -6 0 -6 -10 -1 -13
-283 -13 -1376 l0 -1375 2315 0 c2286 0 2316 0 2305 19 -15 28 -13 33 10 21
11 -6 20 -17 20 -25 0 -8 4 -15 9 -15 5 0 7 10 5 23 l-5 22 17 -23 16 -22 374
0 374 0 0 2720 0 2720 -1530 0 c-1134 0 -1529 -3 -1528 -11 2 -6 -3 -14 -9
-16 -7 -3 -13 2 -13 11 0 14 -23 16 -190 16 -104 0 -190 -4 -190 -8 0 -35 34
-114 55 -128 28 -18 43 -17 215 15 63 12 144 27 180 33 36 6 169 12 295 12
202 1 244 -2 345 -22 198 -40 333 -85 510 -170 214 -102 366 -207 535 -370 55
-53 109 -101 119 -107 11 -5 23 -23 28 -40 4 -16 13 -34 21 -40 30 -24 207
-305 207 -330 0 -3 15 -38 34 -78 65 -137 96 -258 121 -467 36 -290 45 -352
60 -380 17 -33 55 -118 55 -125 0 -3 8 -24 19 -48 10 -23 24 -58 32 -77 7 -19
31 -73 54 -120 23 -47 59 -132 80 -189 27 -72 44 -105 57 -109 20 -5 23 -13 8
-28 -6 -6 -5 -34 2 -76 17 -95 0 -206 -38 -261 -45 -63 -91 -93 -204 -136 -68
-26 -111 -48 -123 -64 -23 -30 -51 -182 -97 -542 -40 -306 -82 -390 -246 -486
-85 -51 -181 -80 -324 -99 -47 -6 -92 -18 -100 -25 -9 -8 -21 -43 -28 -77 -7
-35 -17 -81 -22 -103 -5 -22 -17 -85 -26 -140 -9 -55 -17 -104 -18 -110 -2 -5
-8 -35 -14 -65 -22 -99 -63 -145 -145 -161 -23 -5 -457 -8 -963 -9 -791 0
-923 -2 -934 -14 -8 -11 -18 -12 -33 -6 -12 5 -46 14 -74 19 -76 15 -138 47
-153 79 -7 15 -15 63 -18 107 -3 53 -9 83 -18 88 -21 12 -17 35 10 53 24 15
35 44 41 107 1 17 14 91 28 162 43 217 58 324 64 463 6 130 6 132 -16 132 -27
0 -29 36 -2 45 16 5 17 11 9 58 -11 63 -22 94 -61 172 -29 59 -99 157 -143
203 -12 12 -32 38 -45 58 -18 26 -30 34 -46 31 -18 -3 -23 1 -23 17 -1 23 -19
52 -35 55 -5 1 -10 9 -11 19 -2 38 -5 42 -28 42 -26 0 -43 30 -30 51 5 9 -1
10 -22 5 -16 -3 -47 -9 -69 -11 l-40 -5 47 23 c58 27 63 41 8 22 -38 -13 -40
-13 -40 5 0 11 -4 20 -10 20 -15 0 -12 37 5 54 22 22 18 27 -11 16 -40 -15
-50 0 -18 26 19 15 24 23 14 24 -26 0 -46 34 -48 80 -1 24 -8 51 -16 59 -7 9
-16 30 -19 47 -3 17 -19 60 -36 96 -38 84 -55 142 -92 313 -26 121 -31 168
-36 346 -6 211 6 348 43 489 22 86 103 331 125 377 10 23 24 52 29 65 13 28
122 206 172 279 36 54 165 191 268 285 86 79 269 213 335 246 33 17 62 34 63
39 2 5 8 9 13 9 6 0 18 8 29 18 14 13 20 36 23 92 3 41 9 96 14 123 l10 47
-944 0 -943 0 0 -239z"/>
<path d="M2433 5270 c-145 -24 -295 -74 -306 -103 -2 -7 0 -27 5 -45 7 -26 20
-38 71 -64 l62 -31 160 14 c88 8 241 14 340 13 167 0 190 -3 320 -33 77 -18
155 -40 174 -48 18 -8 63 -25 100 -38 101 -36 273 -138 425 -253 76 -57 227
-210 277 -280 110 -155 138 -198 138 -210 1 -7 6 -22 13 -35 64 -124 114 -279
133 -410 3 -27 8 -59 11 -70 2 -12 4 -49 4 -82 1 -119 30 -267 66 -338 13 -27
24 -53 24 -59 0 -16 108 -283 153 -378 22 -47 51 -116 64 -154 45 -130 15
-174 -172 -250 -122 -50 -151 -78 -156 -153 -3 -34 1 -45 21 -62 l25 -20 -33
-1 c-30 0 -33 -2 -26 -22 4 -13 14 -28 22 -34 11 -8 12 -15 4 -31 -6 -11 -8
-23 -5 -27 3 -3 -1 -6 -10 -6 -10 0 -17 -4 -17 -10 0 -5 4 -10 9 -10 5 0 9
-11 9 -25 0 -14 -5 -25 -10 -25 -6 0 -8 -6 -5 -13 7 -17 -16 -164 -30 -197 -6
-14 -19 -54 -28 -90 -9 -36 -23 -87 -31 -114 -8 -26 -14 -56 -14 -65 0 -9 -15
-43 -33 -76 -24 -45 -44 -67 -81 -90 l-49 -30 -171 1 c-168 1 -174 2 -351 46
-197 50 -269 70 -360 98 -73 22 -139 38 -182 43 -26 3 -33 -1 -38 -20 -3 -14
-13 -23 -24 -23 -13 0 -25 -16 -39 -50 -12 -27 -26 -50 -31 -50 -6 0 -11 -9
-11 -20 0 -19 41 -36 135 -55 17 -4 39 -10 50 -15 11 -5 61 -23 110 -40 50
-17 110 -43 134 -57 48 -28 155 -129 156 -147 1 -6 10 -29 21 -51 16 -33 19
-61 19 -160 -1 -129 -7 -153 -52 -182 -24 -16 -57 -17 -345 -15 -200 2 -325
-1 -337 -7 -10 -6 -22 -7 -26 -3 -3 4 -198 7 -431 8 -411 0 -425 1 -452 21
-36 27 -38 56 -12 205 12 68 28 168 35 224 8 56 17 114 20 130 17 87 1 403
-26 518 -21 89 -73 222 -99 251 -9 11 -21 33 -24 50 -6 25 -49 87 -91 131 -5
6 -25 28 -43 48 -33 38 -33 38 -55 20 l-21 -19 16 26 c18 29 17 31 -101 154
-31 33 -67 75 -80 92 -12 18 -32 35 -45 39 -12 3 -26 15 -31 27 -15 33 -59 34
-104 3 -20 -14 -42 -26 -47 -26 -6 0 -11 -6 -11 -14 0 -8 6 -12 12 -10 6 3 22
1 36 -5 l24 -9 -27 -11 c-16 -6 -28 -13 -28 -17 0 -10 44 -43 58 -44 7 0 10
-5 7 -10 -4 -6 -1 -26 5 -45 12 -37 37 -46 62 -22 40 40 88 59 88 36 0 -6 -27
-23 -60 -37 -33 -15 -60 -32 -60 -37 0 -6 9 -21 20 -33 20 -21 22 -21 45 -6
24 16 25 15 27 -7 0 -13 1 -29 1 -36 -1 -14 21 -7 62 19 20 14 15 5 -17 -25
-45 -42 -46 -45 -29 -61 10 -9 23 -16 29 -16 7 0 12 -7 12 -16 0 -9 11 -30 26
-48 170 -210 215 -299 245 -489 17 -111 6 -331 -24 -482 -31 -151 -38 -205
-26 -205 5 0 3 -13 -5 -29 -17 -31 -76 -317 -76 -364 0 -42 17 -67 58 -85 33
-15 133 -16 987 -18 523 -1 979 2 1014 7 104 13 110 22 146 254 59 376 78 425
164 425 23 0 31 5 31 17 0 13 3 14 12 5 16 -16 61 -15 154 4 111 23 197 66
263 133 65 65 81 107 106 271 9 58 23 143 30 190 8 47 19 123 25 170 37 302
48 330 151 372 35 15 82 32 105 37 22 6 65 28 94 49 42 29 57 47 66 77 34 110
7 243 -96 485 -11 25 -45 106 -76 180 -31 74 -72 166 -90 204 -19 38 -34 74
-34 79 0 5 -6 23 -14 40 -14 31 -16 52 -37 292 -5 66 -17 152 -25 190 -17 76
-68 239 -84 267 -6 10 -10 23 -10 29 0 18 -110 237 -126 250 -8 6 -14 15 -14
20 0 33 -232 291 -383 426 -118 106 -327 226 -542 312 -211 85 -361 112 -640
116 -165 2 -234 -1 -322 -15z"/>
<path d="M1910 5090 c-8 -5 -36 -14 -62 -22 -48 -12 -58 -24 -37 -45 13 -13 4
-33 -16 -33 -15 0 -28 27 -19 42 12 19 -94 -45 -186 -113 -99 -73 -190 -156
-287 -263 -61 -66 -67 -76 -64 -105 2 -7 -2 -10 -8 -6 -6 3 -11 2 -11 -3 0 -6
7 -12 15 -16 18 -6 20 -36 3 -36 -6 0 -19 7 -29 16 -16 14 -19 13 -42 -18 -74
-97 -193 -327 -229 -443 -85 -269 -103 -397 -95 -670 4 -104 8 -203 10 -220 7
-47 37 -185 52 -235 7 -25 19 -71 26 -102 11 -54 14 -58 45 -64 41 -8 64 -31
40 -40 -25 -10 -19 -21 17 -28 30 -6 30 -8 12 -18 -29 -16 -29 -16 -14 -34 8
-10 14 -20 14 -23 0 -3 4 -5 9 -3 6 2 24 6 40 8 30 5 30 5 11 -10 -47 -38 -55
-47 -55 -60 0 -8 7 -16 15 -20 19 -7 121 27 145 49 24 22 26 72 5 95 -8 9 -17
30 -19 46 -2 16 -15 58 -29 94 -26 66 -67 225 -67 260 0 15 -9 20 -47 22 l-48
4 41 8 40 8 -7 66 c-5 37 -11 93 -14 125 l-6 57 -35 0 c-40 0 -45 18 -13 58
23 30 22 31 -46 48 -29 8 -28 9 15 12 40 3 84 22 51 22 -7 0 -11 9 -9 22 2 16
-4 24 -29 32 -55 19 -51 29 10 24 35 -3 61 0 66 6 5 6 12 38 17 71 4 33 8 62
9 65 2 9 15 84 21 125 3 22 9 45 12 50 11 15 11 115 1 121 -17 10 -9 24 14 24
16 0 28 9 35 25 15 34 17 30 -19 63 l-32 30 27 -5 c24 -5 26 -3 26 29 0 43 42
106 78 114 52 13 74 34 67 65 -6 26 -4 29 19 29 19 0 30 8 38 25 6 14 22 28
35 31 13 4 23 9 23 14 0 6 57 63 169 170 24 23 74 64 112 92 38 27 69 54 69
59 0 6 6 7 13 3 8 -5 7 -2 -2 9 -8 10 -11 21 -7 25 4 4 14 -1 21 -11 13 -18
14 -18 42 -1 15 10 43 31 61 46 18 15 43 28 56 28 48 0 57 75 19 150 -36 71
-48 80 -83 60z"/>
<path d="M2679 4962 l-27 -3 6 -86 c4 -63 2 -84 -6 -79 -7 4 -12 18 -12 32 0
14 -9 34 -20 46 -12 13 -20 36 -20 56 0 29 -3 33 -17 26 -10 -4 -35 -9 -55
-12 -34 -4 -38 -7 -38 -33 0 -34 -17 -39 -23 -6 -3 12 -3 -23 -1 -77 4 -90 7
-103 32 -134 15 -18 34 -45 42 -58 21 -33 30 -30 30 11 0 19 5 35 11 35 8 0
10 -16 6 -47 -9 -81 44 -133 136 -133 45 0 131 -18 160 -34 87 -46 207 -227
207 -310 0 -23 -7 -52 -15 -66 -32 -54 -69 -136 -70 -151 0 -10 -11 -30 -25
-45 -24 -28 -50 -76 -50 -94 0 -16 74 3 120 30 25 15 67 30 94 33 39 6 57 15
86 45 50 51 98 92 109 92 5 0 14 6 20 14 9 11 57 32 121 52 30 10 164 12 188
3 24 -9 102 -80 102 -93 0 -4 11 -22 24 -39 14 -18 28 -44 31 -59 6 -23 10
-26 25 -18 23 12 33 1 17 -19 -11 -13 -12 -31 -2 -96 l12 -80 -58 -118 c-32
-65 -72 -138 -89 -162 -16 -24 -30 -46 -30 -49 0 -3 -18 -34 -40 -68 -22 -35
-40 -69 -40 -75 0 -7 -4 -13 -10 -13 -5 0 -10 -4 -10 -10 0 -5 -24 -51 -53
-102 -29 -51 -61 -109 -71 -128 -9 -19 -27 -51 -39 -71 -45 -75 -113 -192
-159 -272 -99 -174 -124 -213 -169 -259 -55 -55 -90 -63 -227 -55 -131 7 -169
32 -266 177 -97 144 -98 167 -21 317 30 59 55 112 55 117 1 6 14 27 30 46 33
38 37 50 16 50 -7 0 -16 9 -19 20 -6 22 -38 25 -134 11 -50 -7 -109 -44 -98
-61 3 -4 -4 -15 -15 -25 -11 -10 -31 -37 -45 -61 -14 -23 -42 -53 -62 -66 -86
-53 -114 -61 -230 -66 -62 -2 -113 -7 -113 -11 0 -4 -13 -8 -30 -9 -22 -2 -30
2 -30 14 0 9 -12 28 -27 43 -60 57 -132 205 -140 285 -4 40 0 65 21 116 24 59
172 328 187 340 3 3 21 32 39 65 18 33 36 65 40 70 4 6 34 60 65 120 32 61 70
128 85 150 15 22 46 76 70 120 24 44 67 120 97 169 29 50 60 113 69 140 9 28
21 56 26 63 18 22 -4 100 -34 121 -10 7 -18 19 -18 25 -1 13 -35 57 -44 57 -3
0 -20 14 -38 30 -17 17 -35 30 -39 30 -4 0 -15 16 -24 35 -10 19 -25 37 -35
40 -10 3 -25 20 -32 36 -13 31 -13 31 -76 26 -38 -3 -70 -11 -81 -21 -10 -9
-25 -16 -34 -16 -9 0 -17 -4 -17 -10 0 -5 -7 -10 -16 -10 -13 0 -54 -25 -181
-111 -12 -9 -20 -19 -16 -22 3 -4 -1 -7 -11 -7 -9 0 -19 -7 -22 -15 -4 -8 -10
-13 -14 -10 -18 11 -18 -28 0 -47 17 -19 20 -19 20 -5 0 9 4 17 9 17 5 0 14
14 21 30 7 17 18 31 24 31 6 1 18 2 26 3 37 4 54 -40 24 -65 -15 -12 -14 -26
3 -83 5 -16 1 -15 -18 6 -13 14 -30 23 -38 20 -8 -3 -20 3 -28 14 -12 17 -13
17 -14 -2 -3 -42 3 -71 22 -102 25 -43 24 -50 -2 -26 -25 23 -49 66 -49 89 0
23 -30 85 -41 85 -4 0 -29 -20 -54 -45 l-47 -45 20 -27 c11 -16 29 -37 41 -47
12 -11 21 -29 21 -40 -1 -20 -2 -20 -23 5 -12 15 -30 40 -39 58 -22 40 -48 42
-42 2 4 -23 1 -30 -18 -35 -27 -7 -63 -62 -45 -69 7 -3 -3 -10 -20 -17 -18 -7
-33 -18 -33 -25 0 -7 -4 -15 -9 -17 -4 -1 -12 -13 -15 -25 -6 -20 -4 -23 18
-23 14 0 26 -5 26 -11 0 -6 -7 -8 -15 -5 -36 13 -87 -36 -80 -77 4 -24 0 -30
-28 -42 -26 -11 -36 -23 -46 -54 -6 -22 -16 -43 -21 -46 -6 -3 2 -17 18 -31
24 -23 25 -25 5 -19 -16 4 -25 0 -33 -15 -6 -11 -7 -20 -3 -20 4 0 2 -4 -5 -9
-10 -6 -5 -15 20 -36 l33 -28 -35 5 c-26 4 -38 0 -52 -16 -25 -30 -22 -40 18
-60 45 -21 41 -28 -8 -17 -44 10 -46 8 -52 -94 -3 -38 -9 -92 -15 -120 -12
-61 -10 -131 4 -132 5 0 26 -8 45 -16 l35 -16 -44 -1 -44 0 6 -75 c3 -41 8
-79 12 -85 3 -5 22 -10 41 -10 23 0 33 -4 28 -11 -3 -6 -17 -9 -30 -6 -17 3
-24 0 -25 -12 0 -9 -2 -25 -5 -36 -2 -11 0 -29 5 -40 5 -11 12 -36 15 -55 11
-62 14 -63 102 -47 43 8 81 13 83 12 3 -4 -75 -27 -131 -39 -35 -8 -35 -21 2
-106 16 -38 30 -71 30 -75 0 -4 9 -19 20 -35 11 -15 17 -30 14 -33 -3 -3 6
-23 20 -44 14 -20 26 -43 26 -50 0 -6 8 -18 18 -25 9 -7 22 -22 28 -33 6 -11
21 -21 33 -23 22 -4 28 -17 10 -27 -13 -9 10 -45 65 -100 76 -76 186 -200 212
-238 16 -24 36 -40 55 -44 29 -6 39 -27 17 -36 -9 -4 -9 -8 -3 -14 12 -10 105
-196 105 -210 0 -14 30 -72 40 -78 4 -3 22 7 39 21 39 32 39 22 1 -36 -16 -25
-30 -50 -30 -57 0 -25 24 -64 36 -59 17 7 44 -20 44 -44 0 -10 9 -20 19 -23
16 -4 24 7 46 55 l27 60 -22 20 c-25 23 -22 42 8 46 18 3 22 10 22 38 0 19 5
34 11 34 5 0 7 -4 4 -10 -3 -5 -8 -53 -10 -105 -3 -93 -5 -98 -44 -159 -22
-34 -44 -77 -47 -96 -4 -19 -20 -52 -36 -73 -28 -36 -32 -49 -49 -205 -11 -92
-26 -196 -34 -232 -18 -78 -19 -199 -2 -221 7 -9 19 -17 27 -18 8 -1 185 -4
393 -5 l377 -4 5 22 c3 11 6 50 8 86 3 61 3 60 5 -17 l2 -83 293 0 294 0 23
25 c22 23 24 34 22 96 -1 45 -10 90 -24 126 -19 48 -29 58 -58 68 -19 7 -34
16 -33 21 3 16 -26 41 -70 59 -23 10 -60 26 -82 36 -22 9 -67 25 -100 34 -33
9 -69 20 -80 25 -11 5 -48 16 -82 25 -34 8 -69 18 -78 21 -10 4 -15 0 -15 -15
0 -12 -4 -21 -10 -21 -5 0 -10 12 -10 28 0 22 -6 29 -37 40 -21 8 -53 16 -70
19 -19 3 -33 11 -33 19 0 8 -13 17 -30 20 -16 4 -30 10 -30 14 0 20 -74 62
-113 64 -38 2 -43 6 -48 32 l-5 29 -22 -35 c-12 -19 -22 -41 -22 -47 0 -7 -4
-13 -9 -13 -8 0 -21 72 -21 114 1 20 1 20 14 -3 l13 -24 12 33 c16 46 14 74
-7 101 -51 67 -69 197 -37 272 17 40 70 92 84 83 6 -4 11 -3 11 1 0 5 30 6 66
3 58 -5 69 -9 90 -35 14 -17 36 -43 50 -60 13 -16 43 -55 66 -85 23 -30 52
-64 66 -76 32 -29 133 -63 216 -73 40 -4 74 -14 80 -22 6 -8 40 -23 76 -33
102 -29 164 -49 174 -58 6 -4 20 -8 32 -8 12 0 66 -14 120 -31 195 -61 285
-80 399 -84 134 -5 197 6 231 40 14 14 31 25 39 25 28 0 13 66 -27 119 -30 40
-20 47 17 11 43 -42 44 -33 5 37 -16 29 -30 56 -30 60 0 4 20 -13 45 -37 46
-45 62 -40 24 8 -52 68 -89 122 -84 122 3 0 23 -11 45 -25 27 -17 37 -20 34
-10 -5 11 -2 13 11 9 16 -7 16 -5 0 25 -9 18 -32 50 -52 72 -34 38 -40 66 -8
39 25 -20 29 -4 11 41 l-17 41 24 -5 c18 -5 26 0 40 26 22 40 16 57 -24 81
-17 10 -28 21 -25 24 4 3 19 -3 34 -14 34 -25 60 -35 66 -26 7 11 -16 36 -56
60 -24 15 -35 28 -31 38 8 22 29 17 66 -16 19 -17 37 -30 41 -30 14 0 5 44
-11 56 -15 11 -15 13 -3 14 21 0 57 68 61 112 3 30 -2 43 -26 68 -32 33 -28
39 10 14 24 -16 26 -15 47 11 41 53 47 57 178 120 111 53 120 61 120 107 0 40
-75 198 -94 198 -22 0 -20 20 2 20 15 1 15 2 -3 18 -11 9 -21 31 -21 47 -1 17
-15 59 -32 95 -16 36 -40 90 -52 120 -12 30 -26 59 -30 63 -10 11 -52 -11 -45
-24 4 -5 -6 -9 -20 -9 -15 0 -25 5 -24 13 5 42 0 47 -53 48 -45 1 -49 2 -23 9
17 4 49 8 73 9 53 1 55 17 2 26 -48 8 -51 21 -7 31 l32 7 -31 13 c-20 8 -34
23 -38 39 -6 23 -10 26 -36 20 -19 -4 -30 -3 -30 4 0 6 5 11 11 11 17 0 40 28
29 35 -5 3 7 20 26 38 l36 31 -26 9 c-33 11 -29 31 7 35 27 3 27 3 27 90 0
126 -8 160 -39 177 -18 10 -21 14 -9 15 28 0 29 16 8 71 -30 74 -48 94 -93 97
-28 3 -53 -5 -101 -32 -76 -42 -99 -46 -66 -11 13 14 20 25 15 25 -5 0 2 11
15 25 19 20 33 25 72 25 27 0 48 5 48 11 0 5 4 8 9 4 14 -8 23 12 16 36 -5 16
-10 18 -21 8 -11 -9 -14 -8 -14 5 0 20 1 20 -55 -4 -50 -22 -52 -10 -2 16 17
9 37 23 45 31 28 27 3 24 -53 -8 -51 -28 -58 -30 -66 -16 -5 9 -16 14 -24 11
-22 -9 -18 14 4 25 21 12 32 5 24 -15 -8 -21 1 -17 50 17 l44 31 -10 41 c-7
26 -13 35 -15 24 -2 -10 -11 -17 -20 -16 -29 2 -36 0 -66 -26 -49 -42 -47 -31
6 29 17 20 37 36 44 36 20 0 22 23 7 54 -15 28 -15 28 -29 7 -12 -16 -24 -20
-59 -19 l-44 2 34 41 33 41 -21 35 c-33 53 -39 53 -83 4 -57 -64 -75 -56 -20
9 25 29 46 56 46 60 0 9 -74 86 -83 86 -5 0 -24 16 -42 36 -19 20 -38 33 -44
30 -5 -3 -22 -33 -37 -65 -21 -44 -32 -57 -41 -50 -8 7 -18 7 -32 -1 -22 -11
-27 -4 -12 19 5 8 7 20 4 28 -4 11 -11 9 -30 -9 l-25 -23 8 30 c4 17 11 36 17
43 5 7 7 16 3 20 -4 4 -12 0 -16 -9 -10 -18 -60 -15 -60 3 0 22 36 68 64 82
17 9 25 16 18 16 -7 0 -10 5 -7 10 3 6 2 10 -3 10 -5 0 -22 12 -38 26 -34 30
-84 58 -84 47 0 -5 -4 -3 -8 3 -12 17 -93 45 -113 39 -10 -4 -19 -2 -19 4 0 6
-13 17 -28 25 -29 15 -66 12 -89 -7 -10 -7 -13 -3 -13 17 0 18 -5 26 -17 26
-10 0 -28 3 -40 6 -19 5 -23 1 -28 -33 -12 -70 -26 -84 -22 -20 2 33 -1 61 -7
66 -20 16 -276 43 -291 31 -9 -7 -21 -8 -32 -3 -10 5 -30 7 -44 5z"/>
<path d="M2869 4347 c-8 -12 -29 -42 -47 -67 -75 -106 -109 -288 -80 -425 11
-49 17 -61 34 -63 25 -4 64 39 64 69 0 11 18 37 40 59 21 21 48 56 60 77 24
45 38 69 62 105 28 42 23 93 -17 164 -31 55 -76 105 -94 104 -3 0 -13 -11 -22
-23z"/>
<path d="M2479 4283 c-25 -27 -129 -215 -129 -235 0 -5 -11 -19 -24 -31 -20
-19 -76 -116 -76 -132 0 -3 52 -5 117 -5 64 0 113 -3 110 -6 -4 -4 -57 -6
-119 -5 -101 2 -115 0 -130 -18 -19 -22 -121 -195 -151 -256 -11 -22 -32 -58
-47 -80 -31 -47 -56 -105 -52 -122 2 -7 -4 -13 -12 -13 -15 0 -55 -63 -115
-182 -47 -94 -42 -98 108 -98 117 0 117 0 148 30 26 25 48 63 81 133 2 4 -27
7 -65 8 -80 1 -51 16 34 18 51 1 53 2 74 44 41 80 58 93 124 96 104 4 118 9
143 51 12 21 22 41 22 44 0 3 -15 10 -32 15 -32 9 -32 9 15 10 40 1 50 5 54
20 3 14 15 21 37 23 23 2 32 8 34 25 5 34 -31 57 -106 68 -62 10 -67 12 -64
34 1 13 17 49 35 80 41 71 41 94 2 102 -27 6 -26 7 12 8 37 1 44 5 49 26 3 14
4 36 2 50 -3 15 0 26 9 29 9 4 11 14 7 31 -4 15 -1 32 6 40 21 26 25 146 6
183 -9 18 -22 32 -29 32 -6 0 -21 2 -32 5 -13 3 -29 -4 -46 -22z"/>
<path d="M3453 3980 c-39 -23 -40 -32 -9 -85 18 -32 29 -41 54 -43 32 -3 46
-22 17 -22 -20 0 -19 -13 4 -59 17 -31 27 -39 58 -44 60 -10 157 -8 192 4 34
12 37 23 19 66 -6 15 -11 31 -10 34 1 4 -9 18 -21 31 -12 13 -35 42 -52 64
-33 44 -56 64 -67 58 -4 -2 -9 0 -13 6 -12 19 -137 12 -172 -10z"/>
<path d="M3339 3926 c-22 -16 -39 -50 -39 -78 0 -15 -11 -33 -30 -46 -35 -26
-38 -42 -10 -49 21 -6 26 -18 11 -28 -5 -3 -17 3 -27 12 -17 17 -18 17 -11 1
3 -10 2 -18 -3 -18 -35 0 -5 -99 63 -208 29 -44 60 -55 71 -24 3 9 9 23 12 30
4 8 -3 12 -20 12 -13 0 -28 5 -31 10 -4 6 12 10 40 10 51 0 59 18 14 32 -18 6
-16 7 12 4 34 -4 37 -2 73 56 35 56 37 63 25 87 -7 14 -13 31 -14 38 -1 30
-39 53 -89 54 -50 1 -50 1 -16 10 19 4 41 6 49 4 17 -6 8 17 -22 62 -26 39
-38 45 -58 29z"/>
<path d="M3539 3668 c-19 -16 -81 -103 -108 -155 -12 -21 -34 -60 -49 -88
l-28 -50 -229 -2 c-275 -1 -451 -10 -476 -24 -10 -5 -24 -27 -30 -49 -7 -22
-18 -40 -25 -40 -8 0 -15 -21 -19 -55 -5 -35 -13 -59 -24 -64 -24 -14 -4 -19
132 -30 65 -5 124 -14 132 -21 12 -10 12 -18 0 -58 -8 -26 -19 -48 -25 -50 -5
-2 -10 -9 -10 -16 0 -7 -24 -53 -54 -102 -29 -49 -70 -123 -90 -164 l-37 -75
21 -57 c22 -60 79 -142 105 -151 10 -5 23 7 42 36 14 23 36 58 49 77 54 86 80
127 96 158 19 34 19 34 -27 46 -11 2 -2 4 19 3 33 -2 42 2 55 25 9 15 50 86
91 158 90 158 116 192 125 169 4 -10 -13 -47 -43 -96 -27 -44 -64 -109 -83
-144 -18 -35 -49 -89 -69 -119 -20 -30 -51 -82 -69 -115 -18 -33 -39 -67 -46
-75 -23 -27 -86 -161 -80 -170 4 -6 13 -10 21 -10 8 0 14 -4 14 -10 0 -8 26
-10 147 -11 53 0 100 24 121 62 10 16 20 29 25 29 4 0 7 6 7 13 0 7 11 29 25
49 14 20 25 44 25 52 0 9 5 16 10 16 6 0 10 6 10 13 0 7 16 40 36 73 20 32 45
75 56 94 11 19 28 46 38 60 10 14 25 41 34 60 16 36 25 52 61 105 28 40 60
100 91 165 14 30 33 63 41 72 9 10 13 24 10 33 -4 8 -1 15 6 15 11 0 77 98 77
114 0 3 -26 7 -57 9 l-58 3 60 2 c47 2 64 7 78 22 9 11 17 23 17 26 0 3 18 31
39 64 37 56 57 97 53 112 -1 3 5 12 13 18 24 20 18 47 -11 53 -59 11 -219 8
-235 -5z"/>
<path d="M3069 3645 c-17 -17 -235 -31 -253 -16 -21 18 -70 -13 -86 -54 -8
-19 -17 -35 -21 -35 -20 0 -35 -30 -31 -63 l4 -34 81 -5 c45 -3 123 -4 172 -3
107 4 131 4 253 0 72 -3 92 -1 92 10 0 20 -79 156 -106 183 -16 15 -35 22 -62
22 -21 0 -41 -2 -43 -5z"/>
<path d="M2272 3320 c-6 -11 -12 -25 -12 -31 0 -7 -10 -26 -23 -43 -71 -95
-113 -187 -89 -198 4 -1 15 -16 24 -33 13 -24 24 -30 49 -30 37 0 64 29 40 44
-9 6 -10 11 -2 15 6 4 11 18 11 32 0 19 5 24 26 24 21 0 24 -4 19 -20 -10 -32
5 -23 16 10 6 17 15 30 20 30 5 0 9 6 9 14 0 9 -8 12 -24 9 -29 -6 -45 14 -19
24 10 3 26 14 35 24 16 16 16 20 3 46 -8 15 -15 33 -15 39 0 11 -42 64 -50 64
-3 0 -11 -9 -18 -20z"/>
<path d="M1827 3053 c-19 -18 22 -127 52 -138 9 -4 35 14 71 50 30 30 60 55
65 55 5 0 -19 -29 -55 -65 -60 -61 -63 -66 -52 -91 11 -24 16 -25 50 -19 20 4
42 11 48 16 15 12 107 39 113 33 3 -3 13 10 22 28 16 30 12 56 -11 78 -3 3
-11 17 -17 33 l-13 27 -133 0 c-74 0 -137 -3 -140 -7z"/>
<path d="M2386 1849 c-13 -67 -6 -143 18 -194 22 -48 79 -115 97 -115 4 0 10
-12 12 -27 4 -27 4 -26 6 4 1 40 21 54 22 16 1 -15 1 -36 0 -45 -2 -20 93 -98
120 -98 23 0 23 -6 -2 96 -20 82 -20 114 -1 114 15 0 53 -132 50 -175 -3 -34
0 -40 17 -40 15 0 21 8 23 32 2 23 7 30 18 26 10 -4 14 2 14 20 0 17 -7 28
-20 32 -11 3 -20 13 -20 20 0 19 17 28 24 13 3 -7 3 3 0 22 -8 45 -12 50 -28
44 -7 -3 -16 2 -19 10 -4 9 -12 16 -20 16 -7 0 -33 20 -57 45 -24 25 -51 44
-60 42 -9 -1 -16 7 -18 23 -5 36 -30 88 -60 121 -20 23 -34 29 -67 29 -40 0
-43 -2 -49 -31z"/>
</g>
</svg>
