<?xml version="1.0" standalone="no"?>
<!DOCTYPE svg PUBLIC "-//W3C//DTD SVG 20010904//EN"
 "http://www.w3.org/TR/2001/REC-SVG-20010904/DTD/svg10.dtd">
<svg version="1.0" xmlns="http://www.w3.org/2000/svg"
 width="544.000000pt" height="544.000000pt" viewBox="0 0 544.000000 544.000000"
 preserveAspectRatio="xMidYMid meet">
<metadata>
Created by potrace 1.16, written by Peter Selinger 2001-2019
</metadata>
<g transform="translate(0.000000,544.000000) scale(0.100000,-0.100000)"
fill="#000000" stroke="none">
<path d="M0 2720 l0 -2720 2720 0 2720 0 0 2304 0 2305 -22 -3 c-35 -5 -78
-24 -78 -36 0 -5 -6 -10 -14 -10 -7 0 -32 -20 -54 -44 -22 -24 -43 -41 -46
-38 -3 3 -6 -1 -6 -8 0 -7 -15 -29 -34 -49 -92 -98 -116 -127 -133 -160 -43
-85 -119 -121 -257 -121 -88 0 -134 -16 -160 -55 -15 -23 -17 -39 -11 -104 9
-105 14 -121 36 -121 24 0 24 -11 1 -36 -9 -10 -18 -29 -19 -42 -3 -22 -1 -23
60 -17 l62 6 -47 -26 c-38 -20 -48 -31 -48 -50 0 -15 6 -25 14 -25 28 0 27
-19 -1 -34 -15 -8 -22 -15 -14 -16 8 0 11 -7 8 -20 -4 -16 0 -20 19 -20 14 0
24 6 24 14 0 10 15 17 47 20 27 3 80 11 118 17 127 20 155 22 155 11 0 -5 -17
-17 -37 -25 -21 -9 -30 -16 -20 -16 9 -1 17 -5 17 -11 0 -5 18 -10 40 -10 30
0 40 -4 40 -16 0 -34 -22 -54 -75 -69 -64 -19 -75 -30 -37 -40 74 -18 58 -44
-28 -45 -82 -1 -202 -18 -214 -31 -8 -9 -3 -10 20 -6 68 13 180 18 193 8 12
-8 12 -12 2 -25 -9 -11 -29 -15 -64 -14 -65 2 -157 -12 -157 -23 0 -11 101
-11 156 0 22 4 49 4 60 0 20 -7 19 -7 -26 -22 -8 -3 -3 -6 12 -6 35 -1 45 -19
15 -26 -15 -4 -24 -13 -23 -23 1 -14 -9 -17 -59 -16 -52 1 -56 -1 -32 -10 32
-12 35 -22 6 -31 -17 -6 -19 -9 -8 -16 12 -8 12 -11 -1 -19 -13 -9 -13 -11 0
-20 10 -6 11 -10 3 -10 -8 0 1 -29 24 -77 20 -43 46 -105 58 -138 12 -33 30
-78 39 -100 56 -127 70 -188 70 -300 1 -101 -2 -114 -27 -163 -38 -71 -86
-104 -262 -177 -85 -35 -85 -35 -85 -82 0 -24 -4 -43 -10 -43 -5 0 -10 -13
-10 -30 0 -16 5 -30 11 -30 5 0 7 -5 3 -12 -4 -6 -3 -8 3 -5 5 3 29 -1 52 -9
58 -20 62 -11 12 20 -23 15 -41 31 -41 36 0 19 19 10 57 -27 21 -21 56 -45 78
-54 21 -9 41 -22 43 -28 3 -8 -9 -6 -34 5 -22 10 -72 20 -112 23 l-73 6 53
-47 c29 -26 58 -48 63 -48 6 0 42 -15 80 -33 39 -18 77 -31 86 -30 19 5 169
-62 169 -75 0 -19 -14 -21 -48 -7 -19 8 -45 17 -58 19 -35 7 -249 113 -264
131 -20 24 -67 46 -83 39 -9 -3 -18 -17 -22 -31 -7 -28 9 -45 59 -62 24 -9 27
-9 16 4 -17 20 0 19 30 -2 14 -10 27 -17 30 -15 8 3 92 -41 114 -60 11 -10 28
-20 38 -24 10 -3 18 -9 18 -15 0 -5 22 -20 49 -33 66 -34 116 -77 100 -87 -7
-4 -18 -5 -25 -2 -8 3 -16 -6 -20 -24 -4 -15 -13 -38 -21 -49 -13 -20 -11 -24
27 -56 77 -66 40 -73 -95 -17 -87 36 -178 91 -230 138 -22 20 -32 27 -22 15
30 -37 18 -37 -32 0 -54 40 -74 45 -69 19 2 -10 11 -17 21 -17 9 1 14 -2 11
-8 -8 -12 70 -83 131 -118 80 -47 220 -189 202 -206 -3 -3 -19 2 -36 10 -47
25 -47 20 3 -34 43 -46 51 -70 25 -70 -15 0 -206 125 -296 192 -41 32 -79 58
-83 58 -4 0 -10 -10 -13 -22 -5 -16 5 -34 36 -69 46 -51 67 -64 41 -24 -19 30
-12 32 24 7 47 -33 56 -37 47 -21 -4 8 5 2 22 -13 16 -16 33 -28 39 -28 16 -1
107 -87 103 -99 -2 -6 -25 6 -53 30 -28 22 -59 45 -70 51 -19 10 -20 10 -7 -5
26 -32 0 -17 -36 21 -19 20 -28 26 -19 12 19 -29 21 -44 4 -33 -19 11 44 -66
86 -106 35 -34 44 -51 28 -51 -8 0 -68 61 -187 188 -61 64 -93 86 -96 65 0 -5
-2 -18 -3 -30 -1 -12 1 -20 6 -17 4 3 8 1 8 -5 0 -5 29 -37 65 -72 36 -34 65
-68 65 -76 0 -27 -32 -12 -77 37 -41 45 -75 67 -58 40 4 -6 1 -17 -5 -25 -16
-19 -5 -49 16 -41 8 3 12 2 9 -4 -3 -6 3 -23 14 -39 12 -16 21 -32 21 -35 0
-11 -36 -6 -48 6 -25 25 -20 0 8 -45 16 -26 26 -47 23 -47 -4 0 -33 26 -65 57
-64 63 -78 66 -23 4 29 -32 32 -40 19 -45 -18 -7 -63 22 -93 59 -10 14 -22 25
-25 25 -12 0 -5 -45 9 -64 23 -30 18 -42 -7 -19 -57 51 -58 29 -1 -46 33 -44
42 -71 23 -71 -5 0 -27 22 -47 49 -45 59 -58 64 -37 16 34 -81 -6 -54 -51 35
-13 25 -35 56 -49 69 -23 21 -26 22 -26 7 0 -15 -5 -17 -26 -12 -23 6 -25 5
-19 -16 12 -38 11 -43 -7 -42 -10 1 -15 -2 -12 -7 3 -5 1 -9 -5 -9 -6 0 -19
17 -30 38 -17 30 -20 33 -21 15 0 -13 4 -23 9 -23 11 0 48 -77 56 -116 l6 -29
-18 25 c-55 75 -127 152 -131 139 -3 -8 -10 -17 -16 -21 -8 -5 -7 -8 2 -8 6 0
12 -8 12 -18 0 -10 13 -39 30 -65 41 -65 20 -59 -30 8 -22 30 -42 55 -45 55
-9 0 5 -92 16 -106 13 -16 6 -30 -11 -19 -6 3 -24 32 -40 63 -29 55 -30 56
-24 19 4 -25 1 -49 -9 -70 -14 -30 -23 -68 -62 -267 -30 -157 -57 -201 -139
-225 -76 -23 -2008 -22 -2083 0 -60 18 -99 58 -109 111 -10 52 15 341 33 393
12 33 13 46 5 49 -17 5 -15 43 3 68 7 12 15 41 16 65 1 24 6 54 10 67 6 16 5
22 -6 22 -17 0 -21 55 -5 65 5 3 10 20 10 36 0 27 -2 29 -20 19 -33 -18 -24 6
20 53 45 49 59 98 60 198 0 80 -13 152 -42 232 l-22 60 -15 -31 c-18 -39 -36
-42 -27 -5 18 80 19 103 2 103 -9 0 -26 -21 -41 -50 -14 -27 -30 -50 -36 -50
-6 0 1 21 16 46 39 67 37 98 -14 166 -50 66 -63 73 -87 47 -26 -29 -36 -23
-18 12 10 20 12 34 6 38 -6 3 -14 19 -17 34 -4 15 -12 27 -19 27 -30 -2 -196
-187 -180 -203 7 -7 -25 -57 -37 -57 -5 0 -6 7 -3 15 5 11 2 14 -12 8 -11 -3
2 16 29 45 26 28 47 55 47 60 0 5 23 32 50 60 54 54 89 127 47 97 -36 -25 -54
-19 -28 9 l23 25 -37 46 c-21 25 -44 44 -51 41 -8 -3 -11 0 -7 11 5 13 3 13
-15 4 -11 -6 -23 -11 -26 -11 -10 0 -7 40 4 59 7 14 5 23 -9 35 -17 15 -20 14
-47 -11 -33 -31 -74 -40 -74 -16 0 10 6 14 19 10 15 -3 26 5 44 32 23 35 31
80 14 82 -4 0 -46 -13 -94 -31 -47 -17 -91 -29 -97 -27 -6 2 8 16 31 31 24 16
49 26 58 22 20 -7 65 21 65 41 0 27 -34 73 -53 73 -16 0 -17 3 -8 14 20 24 -4
59 -35 52 -14 -4 -24 -2 -24 4 0 5 -12 10 -26 10 -19 0 -25 -4 -21 -14 7 -17
-52 -66 -78 -66 -28 0 -11 24 26 37 19 7 30 12 26 12 -5 1 1 17 13 36 21 34
21 35 2 35 -11 0 -36 -7 -56 -15 -21 -9 -36 -11 -36 -5 0 13 -57 13 -65 0 -7
-12 -25 -4 -25 11 0 5 7 9 15 9 9 0 25 9 37 20 26 24 58 26 58 5 0 -8 -4 -15
-10 -15 -5 0 -10 -4 -10 -10 0 -16 22 -12 87 20 58 27 63 32 63 61 0 18 -10
61 -22 97 l-21 64 -44 -7 c-53 -8 -57 7 -5 28 32 14 34 16 12 17 l-25 1 25 14
c25 14 24 16 -15 18 -34 3 -32 21 4 33 28 9 31 12 15 18 -11 4 -20 3 -22 -3
-4 -13 -82 -15 -82 -2 0 11 35 21 73 21 52 0 17 65 -36 66 -84 1 -120 5 -113
12 4 4 38 8 74 9 37 0 70 1 75 2 8 1 9 57 1 89 -4 12 -13 22 -20 22 -23 0 -16
19 10 26 30 7 24 44 -8 44 -13 0 -17 3 -9 8 6 4 13 33 15 64 4 63 -1 68 -69
68 -22 0 -33 5 -33 15 0 11 10 13 50 8 40 -5 50 -3 50 9 0 23 -22 38 -57 38
-17 0 -36 6 -40 14 -4 7 -32 16 -63 19 -30 3 -66 8 -80 11 l-25 7 24 -11 c42
-18 15 -22 -70 -11 -96 13 -127 30 -59 32 44 1 43 2 -14 10 -71 10 -100 30
-35 23 24 -3 81 -12 126 -21 66 -13 88 -14 111 -4 28 12 139 8 151 -5 3 -3
-13 -5 -36 -2 -24 2 -43 1 -43 -3 0 -10 84 -29 90 -20 3 4 13 10 23 14 32 12
20 41 -23 55 -54 16 -74 16 -66 -3 7 -19 -7 -19 -42 -1 -15 7 -45 16 -67 19
-160 23 -229 37 -239 47 -11 12 26 10 114 -6 l25 -4 -24 10 c-47 20 -13 20 75
-2 49 -12 102 -27 118 -34 21 -9 36 -9 52 -2 15 7 32 7 52 0 23 -8 35 -7 48 2
21 16 10 36 -20 36 -17 0 -25 7 -28 25 -3 13 -2 23 1 23 3 -1 17 2 31 6 29 8
38 32 65 169 15 76 15 79 -5 95 -25 22 -18 66 10 57 24 -7 36 13 19 29 -8 7
-53 25 -101 40 -48 16 -93 35 -100 44 -11 13 -10 15 7 10 11 -3 37 -13 58 -22
45 -20 47 -11 7 31 -17 18 -30 34 -30 37 0 7 73 -35 85 -49 11 -13 98 -65 108
-65 4 0 7 8 7 19 0 23 -40 51 -73 51 -13 0 -50 19 -83 42 -32 23 -86 55 -118
73 -66 35 -87 60 -39 49 24 -6 78 -37 93 -54 10 -11 61 -30 82 -30 11 0 40
-18 64 -40 53 -49 85 -52 101 -11 9 25 8 32 -8 47 -25 23 -24 38 2 31 20 -5
20 -5 3 14 -9 10 -53 40 -98 65 -118 68 -128 75 -122 81 2 3 30 -9 60 -27 64
-36 73 -27 19 21 -21 18 -46 43 -56 56 -18 22 -18 23 0 16 10 -3 27 -13 38
-22 19 -15 19 -15 5 3 -8 11 -27 24 -41 30 -44 19 -128 80 -129 94 0 7 7 15
15 18 10 4 13 13 9 26 -5 18 -4 19 18 7 12 -6 41 -24 63 -39 65 -44 140 -83
126 -66 -8 9 -19 16 -25 17 -15 1 -131 84 -131 95 -1 5 -7 20 -14 32 -17 32
-8 37 40 23 22 -7 44 -10 47 -7 3 3 15 -2 26 -11 18 -15 18 -14 -1 8 -28 30
-29 41 -5 32 14 -5 15 -3 5 8 -19 19 -16 29 7 29 12 0 20 6 19 13 -6 46 10 48
62 6 21 -17 39 -26 39 -20 0 5 -5 13 -10 16 -6 4 -8 10 -5 14 2 5 1 22 -4 38
-12 43 0 60 33 45 28 -12 32 -6 27 46 -3 35 11 26 64 -42 28 -36 59 -70 71
-76 11 -6 28 -24 37 -39 25 -43 106 -125 114 -117 5 4 -3 17 -17 29 -29 26
-64 77 -57 84 3 2 20 -14 38 -36 34 -43 57 -55 39 -21 -9 17 -8 19 7 13 10 -4
22 -11 26 -17 5 -7 7 -5 5 5 -2 9 -39 55 -83 103 -75 82 -105 126 -86 126 4 0
16 -9 26 -20 10 -11 21 -17 25 -15 5 3 41 -31 81 -75 39 -44 76 -80 81 -80 5
0 39 29 76 65 37 35 73 65 80 65 6 0 12 7 12 15 0 8 5 15 10 15 22 0 8 45 -35
111 -44 68 -55 99 -35 99 10 0 22 -12 44 -44 17 -25 40 -12 26 14 -11 20 3 39
15 20 16 -26 25 -7 19 39 -5 41 -3 54 14 75 l20 26 26 -42 26 -43 -6 58 c-11
102 26 63 61 -65 18 -64 54 -119 55 -83 0 11 -7 47 -15 80 -8 33 -14 68 -15
79 0 17 1 17 25 2 35 -23 37 -21 33 31 -5 71 19 68 27 -4 7 -63 23 -101 52
-120 32 -22 42 -2 47 94 3 50 8 107 11 127 l7 36 -936 0 -936 0 0 -2720z
m1010 -448 c0 -10 -96 -101 -151 -144 -65 -50 -85 -70 -66 -64 9 3 17 3 17 0
0 -10 -54 -65 -108 -110 -30 -24 -47 -44 -39 -44 7 0 25 9 38 21 13 12 34 25
47 30 12 5 34 29 49 53 17 29 36 46 52 49 14 3 53 27 86 52 33 26 61 42 63 36
4 -11 -57 -69 -125 -117 -44 -31 -71 -54 -196 -165 -51 -45 -112 -77 -123 -66
-4 3 1 20 9 36 9 17 11 31 6 31 -10 0 -8 28 4 47 6 10 2 11 -19 3 -15 -6 -29
-8 -32 -5 -10 9 33 58 79 92 24 18 57 43 74 55 16 13 32 23 35 24 51 11 76 22
109 50 22 19 46 33 53 32 8 -2 12 5 11 17 -4 30 10 46 48 50 19 2 41 13 49 24
16 21 30 27 30 13z m-250 -32 c-13 -11 -26 -20 -30 -20 -4 0 -20 -11 -36 -25
l-29 -25 32 9 c22 7 33 6 36 -2 2 -7 9 -2 16 11 12 23 69 52 104 52 15 0 10
-8 -24 -34 -24 -18 -55 -36 -67 -41 -17 -5 -22 -12 -19 -26 3 -10 2 -19 -1
-20 -31 -3 -60 -14 -143 -54 -95 -44 -129 -54 -129 -36 0 13 50 51 66 51 22 0
83 32 88 47 8 21 -42 16 -109 -12 -63 -25 -81 -19 -49 17 l19 21 -47 -7 c-27
-4 -48 -4 -48 1 1 4 41 27 91 51 87 42 189 65 189 42 0 -6 14 -4 33 4 17 8 43
15 56 15 l24 1 -23 -20z m126 -249 c-3 -5 1 -11 9 -15 22 -8 18 -23 -7 -30
-13 -3 -41 -21 -62 -41 -22 -19 -45 -35 -51 -35 -6 0 -24 -14 -41 -31 -16 -17
-45 -39 -65 -50 -20 -10 -46 -31 -58 -46 -26 -36 -27 -11 -1 31 27 45 175 170
190 161 4 -2 22 11 40 30 31 32 59 48 46 26z"/>
<path d="M2946 5409 c-3 -17 -4 -35 -1 -39 3 -4 31 -11 62 -15 89 -11 293 -63
445 -114 33 -11 43 8 33 63 -5 25 -2 43 11 65 28 48 42 47 33 -2 -5 -23 -8
-51 -8 -62 0 -35 16 5 23 57 4 26 12 51 18 54 7 5 9 -5 4 -32 -5 -30 -4 -35 4
-21 6 9 16 15 21 11 6 -3 24 6 40 22 16 15 29 24 29 19 0 -4 -22 -50 -50 -101
-58 -107 -67 -164 -24 -147 23 9 51 72 57 131 8 70 26 103 27 48 l0 -39 25 23
c31 30 31 19 -1 -59 -37 -93 -24 -108 18 -20 20 42 52 102 72 133 l36 56 -434
0 -433 0 -7 -31z"/>
<path d="M4070 5420 c0 -19 9 -24 36 -21 20 2 37 -28 30 -53 -3 -13 -24 -47
-46 -75 -48 -61 -50 -70 -8 -40 17 13 28 16 23 8 -5 -7 8 1 29 19 71 62 60 16
-20 -84 -69 -86 -81 -106 -58 -97 22 8 12 -24 -27 -85 -32 -51 -36 -64 -15
-56 8 3 20 19 26 35 7 16 26 44 41 60 31 33 36 32 17 -4 -10 -20 -10 -21 6 -8
14 12 16 12 10 -4 -5 -13 -4 -16 4 -11 18 11 15 -4 -5 -28 -10 -12 -4 -9 13 7
16 15 33 27 37 27 11 0 -22 -60 -54 -100 -32 -39 -36 -55 -15 -76 17 -16 56
-19 56 -4 0 6 4 9 8 8 5 -2 31 24 59 57 59 71 83 93 83 76 0 -19 -20 -52 -61
-102 -42 -51 -46 -59 -26 -59 14 0 54 30 123 93 50 45 63 48 33 6 -20 -29 -20
-31 -3 -21 15 8 23 7 37 -5 16 -15 20 -14 47 12 16 16 33 25 37 22 3 -4 3 -7
-1 -7 -4 0 4 -11 16 -23 21 -22 25 -23 46 -9 39 25 24 1 -49 -80 -39 -43 -66
-78 -60 -78 6 0 11 5 11 11 0 5 5 7 10 4 6 -4 16 -3 23 3 37 28 62 19 31 -12
-21 -22 -8 -20 24 2 58 40 54 30 -16 -36 -72 -69 -73 -71 -45 -74 l28 -3 -38
-42 c-21 -23 -47 -45 -57 -48 -20 -6 -34 -32 -21 -39 4 -3 40 20 81 50 81 60
114 72 60 22 -29 -27 -32 -33 -17 -36 10 -2 36 6 59 18 22 11 42 19 45 17 8
-8 -100 -87 -118 -87 -11 0 -19 -5 -19 -11 0 -6 11 -9 25 -7 13 2 25 -1 26 -7
0 -5 5 -18 11 -29 6 -11 6 -16 0 -13 -10 7 -59 -40 -50 -48 3 -3 18 5 33 17
16 13 25 16 20 8 -8 -13 -6 -13 8 -2 15 13 87 34 87 26 0 -1 -11 -15 -25 -30
-30 -32 -32 -44 -7 -44 30 0 33 -11 9 -30 -31 -26 -15 -35 37 -21 25 6 52 11
61 11 21 0 9 -19 -19 -30 -14 -6 11 -9 77 -9 88 -1 103 2 145 25 49 27 61 39
139 139 26 32 62 75 81 94 18 19 45 50 60 70 57 76 109 111 191 131 l51 12 0
359 0 359 -685 0 c-678 0 -685 0 -685 -20z"/>
<path d="M2542 5213 c4 -38 10 -79 13 -92 10 -41 25 -4 26 64 1 53 2 56 10 29
5 -17 10 -57 11 -89 3 -58 3 -59 33 -60 27 0 30 3 29 30 -3 61 -17 136 -24
125 -8 -14 -20 10 -20 41 0 21 -27 23 -43 4 -6 -6 -10 -6 -14 3 -2 6 -10 12
-17 12 -9 0 -11 -16 -4 -67z"/>
<path d="M2713 5273 c-17 -2 -34 -11 -37 -19 -5 -14 10 -151 20 -184 4 -12 6
-13 14 0 5 8 12 11 16 8 4 -4 15 -3 25 3 16 8 19 21 19 73 0 69 -9 127 -19
124 -3 0 -20 -3 -38 -5z"/>
<path d="M2827 5266 c-4 -10 -7 -34 -7 -55 0 -20 -4 -41 -9 -46 -9 -10 -14
-42 -12 -81 1 -20 8 -22 84 -26 45 -3 89 -8 97 -12 11 -4 20 6 33 37 9 23 17
50 17 60 0 9 4 17 9 17 17 0 21 -32 6 -60 -8 -16 -12 -36 -9 -44 8 -20 43 -31
56 -18 11 11 38 0 66 -25 7 -7 19 -13 25 -13 7 0 21 -3 33 -6 17 -5 24 1 37
34 9 22 14 48 11 58 -3 11 2 41 10 69 9 27 12 52 8 56 -4 3 -36 13 -72 22
-182 46 -257 48 -277 7 -9 -17 -13 -20 -13 -8 0 25 -39 49 -61 38 -12 -7 -19
-6 -21 2 -3 7 -7 5 -11 -6z"/>
<path d="M2309 5218 c-1 -13 0 -35 1 -50 2 -41 -17 -34 -24 8 -11 58 -31 36
-29 -32 4 -101 4 -102 64 -90 l51 10 -7 70 c-8 73 -21 106 -42 106 -7 0 -13
-10 -14 -22z"/>
<path d="M3332 5177 c-13 -16 -48 -114 -55 -155 -6 -29 -5 -32 12 -22 22 11
41 60 41 106 0 18 4 36 10 39 13 8 3 -75 -16 -133 -18 -54 -19 -49 15 -66 25
-13 31 -14 41 -1 14 17 4 55 -16 55 -18 0 -18 11 1 36 13 16 16 17 24 4 6 -8
7 -26 4 -40 -6 -24 -6 -24 18 5 36 43 59 82 59 98 0 33 -120 97 -138 74z"/>
<path d="M1866 5059 c-8 -12 -19 -18 -25 -15 -19 12 -2 -34 35 -95 40 -65 54
-79 54 -55 0 10 6 13 15 10 18 -7 20 7 3 24 -7 7 -9 12 -5 12 4 0 0 14 -8 31
-30 57 -11 67 20 10 30 -54 30 -54 36 -25 4 16 7 23 8 15 0 -8 4 -12 7 -9 8 9
-35 98 -49 99 -6 1 -22 3 -33 4 -12 1 -26 5 -32 9 -6 3 -17 -3 -26 -15z"/>
<path d="M3575 5049 c-11 -4 -16 -8 -11 -8 5 -1 0 -11 -11 -23 -12 -13 -24
-39 -28 -58 l-7 -35 26 29 c34 38 34 17 1 -23 -14 -16 -28 -40 -30 -52 -4 -21
-4 -21 23 4 33 32 62 24 43 -12 -16 -29 -6 -41 34 -41 26 0 39 7 57 32 33 47
48 77 48 99 0 19 -1 19 -29 -2 -17 -12 -39 -44 -51 -70 -11 -27 -26 -49 -33
-48 -9 0 -9 2 1 6 6 2 12 12 12 20 0 9 8 30 19 47 25 41 37 94 19 79 -7 -5
-23 -13 -36 -16 -21 -5 -23 -3 -17 23 9 39 -4 60 -30 49z"/>
<path d="M2833 4963 c-7 -3 -13 -14 -14 -26 0 -20 -1 -20 -8 -3 -7 17 -8 17
-24 2 -10 -11 -17 -33 -17 -57 0 -21 -4 -39 -10 -39 -6 0 -7 23 -3 61 6 60 6
61 -18 57 -20 -2 -25 -10 -27 -40 -4 -50 -32 -53 -32 -4 0 32 -11 52 -22 41
-3 -3 -1 -33 4 -67 12 -87 5 -94 -18 -18 -18 62 -21 65 -53 68 -28 3 -32 1
-27 -15 3 -10 1 -25 -4 -33 -9 -13 -11 -13 -20 0 -7 12 -10 8 -10 -15 l0 -30
-13 25 c-7 14 -20 26 -29 28 -15 3 -15 -1 -7 -34 11 -40 4 -88 -11 -79 -6 3
-10 31 -10 61 0 33 -4 54 -11 54 -6 0 -9 -9 -6 -19 3 -13 -1 -21 -14 -24 -11
-3 -19 -14 -19 -26 0 -39 49 -120 92 -151 46 -34 58 -37 58 -15 0 8 9 15 20
15 13 0 20 -7 20 -20 0 -11 -4 -20 -10 -20 -15 0 -11 -41 8 -80 20 -40 55 -60
115 -65 90 -6 144 -18 182 -40 43 -25 123 -111 141 -153 7 -16 14 -21 18 -13
4 6 12 9 17 5 6 -4 6 -10 0 -18 -8 -9 -6 -23 6 -47 26 -52 21 -130 -11 -172
-14 -19 -26 -43 -26 -55 0 -11 -7 -28 -16 -37 -29 -28 -55 -89 -52 -120 2 -22
-2 -29 -12 -27 -10 1 -9 -2 4 -13 22 -16 40 -10 32 12 -3 8 -1 11 4 8 6 -3 10
-2 10 4 0 6 19 16 43 23 27 8 56 27 83 56 32 35 45 43 62 38 17 -6 25 -1 41
26 31 53 39 58 71 51 21 -4 30 -2 30 7 0 8 3 10 7 7 3 -4 13 -1 22 7 17 14 52
23 136 32 28 3 59 9 70 13 86 35 104 46 108 62 3 11 11 19 17 19 7 0 10 -8 7
-20 -6 -24 2 -25 29 -5 10 8 31 15 46 15 15 0 30 5 33 10 10 16 22 12 28 -10
12 -46 139 -53 177 -10 24 28 27 79 5 81 -8 1 -19 3 -25 4 -5 1 -14 3 -20 4
-5 0 -10 13 -10 27 0 14 -4 23 -9 20 -10 -7 -36 22 -28 31 10 10 -13 43 -29
43 -13 0 -15 7 -10 34 9 45 -8 55 -38 23 -28 -30 -75 -62 -82 -55 -11 12 17
57 43 70 15 7 29 21 31 30 4 20 -64 98 -85 98 -8 0 -11 5 -7 13 4 6 -6 0 -23
-16 -33 -30 -50 -27 -28 7 9 13 11 27 6 35 -10 16 -31 6 -31 -14 0 -8 -5 -17
-12 -21 -8 -5 -9 0 -5 17 6 22 4 21 -23 -9 -31 -34 -39 -24 -15 18 24 43 18
56 -13 27 -34 -33 -39 -33 -38 -4 1 17 -5 23 -26 25 -27 3 -38 25 -19 36 5 3
11 15 14 26 8 30 -19 25 -35 -7 -16 -33 -36 -40 -45 -17 -4 11 1 23 13 33 11
9 18 23 16 31 -2 14 -68 50 -90 50 -5 0 -18 11 -30 25 -12 14 -29 26 -37 26
-25 2 -29 4 -58 23 -24 16 -30 17 -38 5 -5 -8 -9 -19 -9 -26 0 -18 -22 -63
-30 -63 -4 0 -6 18 -5 40 2 35 0 40 -16 35 -15 -5 -19 -1 -19 20 0 24 -3 26
-40 23 -38 -2 -41 -4 -51 -42 -20 -80 -27 -84 -26 -14 1 36 -1 69 -5 73 -8 9
-31 -13 -41 -37 -13 -34 -28 -19 -25 25 3 38 1 42 -21 45 -12 2 -34 1 -47 -2
-22 -6 -24 -11 -24 -67 0 -38 -4 -58 -10 -54 -5 3 -10 32 -10 63 0 61 -8 82
-27 75z"/>
<path d="M3886 4785 c-22 -30 -48 -64 -58 -75 -18 -19 -18 -20 1 -42 11 -13
29 -34 40 -48 16 -20 22 -23 32 -12 19 18 28 15 22 -7 -4 -16 0 -19 32 -18 31
1 44 9 81 51 40 46 57 86 36 86 -5 0 -15 11 -22 25 -17 31 -23 31 -55 0 -26
-27 -33 -19 -15 16 14 24 5 24 -31 -2 -33 -23 -37 -15 -12 20 9 14 11 21 5 17
-6 -3 -13 -2 -16 3 -4 5 -2 12 4 16 5 3 10 10 10 16 0 20 -17 6 -54 -46z"/>
<path d="M1406 4753 c-26 -26 -46 -55 -46 -64 0 -9 -9 -19 -20 -22 -12 -3 -20
-14 -20 -25 0 -11 -6 -23 -12 -25 -9 -4 -10 -8 -3 -14 16 -12 75 -108 75 -121
0 -6 -19 9 -42 34 -69 75 -116 88 -61 17 39 -49 63 -93 42 -77 -8 6 -27 14
-43 18 -16 4 -41 16 -54 27 -31 24 -37 19 -24 -20 11 -32 5 -74 -9 -65 -5 3
-9 1 -9 -4 0 -10 20 -30 68 -68 17 -14 32 -32 32 -40 0 -22 27 -17 44 8 22 31
21 34 -24 59 -45 25 -55 42 -34 59 16 14 44 -2 44 -25 0 -6 9 -20 20 -30 20
-18 20 -17 20 15 0 25 3 30 13 22 19 -16 46 3 29 20 -19 19 -14 28 15 28 18 0
38 13 65 42 40 44 45 57 26 76 -18 18 -4 24 25 11 21 -9 29 -9 40 2 39 39 47
85 21 124 -15 23 -43 37 -29 15 3 -5 0 -10 -7 -10 -8 0 -27 17 -43 38 -17 20
-35 38 -42 39 -7 2 -32 -18 -57 -44z"/>
<path d="M2004 4744 c6 -23 4 -26 -13 -21 -17 4 -19 2 -11 -13 12 -23 13 -60
2 -60 -5 0 -14 11 -20 25 -6 14 -18 25 -26 25 -8 0 -17 8 -19 18 -3 9 -4 -4
-3 -30 2 -38 -1 -48 -14 -48 -9 0 -21 5 -27 11 -14 14 -50 -7 -57 -34 -2 -10
-9 -16 -14 -13 -21 13 -18 -32 4 -64 13 -19 24 -38 24 -42 0 -15 -21 -8 -27
10 -10 25 -36 42 -49 31 -7 -6 -15 0 -24 16 l-13 24 -41 -31 c-23 -17 -51 -41
-63 -54 l-22 -22 27 -38 c25 -38 16 -37 -26 4 -19 18 -30 15 -59 -14 -20 -20
-24 -32 -19 -55 5 -27 4 -29 -27 -29 l-32 0 26 -23 c30 -25 43 -53 28 -63 -6
-3 -8 -12 -5 -20 3 -8 -1 -14 -8 -14 -20 0 -37 25 -30 44 9 23 -18 21 -33 -3
-10 -15 -9 -22 2 -31 23 -19 18 -33 -10 -28 -18 4 -29 -1 -42 -21 -9 -14 -16
-34 -14 -44 1 -10 -3 -16 -11 -15 -7 2 -14 -7 -16 -19 -2 -13 -9 -23 -16 -23
-7 0 -18 -11 -24 -24 -10 -21 -8 -25 14 -30 36 -9 29 -26 -11 -26 -21 0 -35
-5 -35 -12 0 -7 -3 -23 -6 -34 -5 -17 1 -24 27 -33 33 -11 33 -11 11 -26 -14
-10 -31 -13 -48 -9 -24 6 -26 5 -21 -15 3 -11 1 -24 -4 -27 -14 -8 -11 -23 11
-41 27 -24 25 -33 -7 -33 -27 -1 -27 -1 10 -21 20 -11 37 -22 37 -24 0 -3 -21
-4 -47 -2 l-48 2 -8 -60 c-4 -33 -9 -99 -11 -147 -2 -47 -7 -91 -11 -97 -12
-21 16 -41 59 -41 67 0 75 -16 11 -24 -31 -3 -61 -4 -66 -1 -5 4 -9 -5 -9 -19
0 -19 4 -24 16 -19 14 5 16 1 10 -28 -16 -81 -8 -91 74 -97 80 -6 77 -22 -5
-22 -53 0 -65 -3 -65 -16 0 -9 9 -18 20 -21 24 -6 26 -19 4 -27 -13 -5 -15
-15 -10 -47 10 -65 23 -82 57 -77 16 3 29 1 29 -4 0 -5 10 -6 23 -4 12 3 40 7
62 11 54 7 24 -10 -32 -20 -24 -4 -46 -12 -50 -18 -5 -7 -15 -12 -23 -12 -20
0 -25 -39 -6 -54 8 -7 12 -19 9 -28 -5 -12 -1 -14 16 -8 20 6 22 4 16 -14 -4
-15 9 -53 45 -126 50 -103 51 -105 85 -105 34 0 46 -12 25 -25 -20 -13 -10
-35 16 -35 26 0 26 -1 10 -25 -12 -18 -14 -29 -6 -38 6 -6 20 -27 31 -46 15
-24 25 -32 39 -28 24 6 43 -15 34 -37 -4 -11 9 -32 42 -66 26 -27 53 -58 59
-69 5 -10 34 -45 63 -76 30 -32 63 -74 74 -94 40 -69 95 -186 109 -231 11 -34
15 -40 17 -22 2 12 8 22 13 22 5 0 9 6 9 14 0 7 7 19 15 26 12 10 16 9 21 -4
3 -9 1 -22 -5 -30 -9 -10 -8 -15 4 -20 13 -5 12 -11 -7 -47 -25 -48 -26 -128
-2 -142 9 -5 14 -25 14 -58 l0 -49 30 32 c37 41 39 20 4 -40 -26 -44 -26 -45
-5 -39 23 6 30 -16 10 -29 -8 -4 -9 -27 -5 -69 3 -34 3 -64 0 -68 -3 -3 -8
-23 -10 -44 -2 -21 -5 -56 -8 -78 l-4 -40 14 28 c8 15 19 27 24 27 15 0 11
-42 -5 -64 -26 -34 -19 -44 19 -32 37 11 46 27 46 89 0 20 4 37 10 37 6 0 8
-29 6 -74 l-4 -75 39 36 c21 20 39 43 39 50 0 8 5 23 11 35 10 19 11 19 25 -7
19 -36 18 -59 -1 -51 -20 7 -19 -18 1 -39 15 -15 16 -24 5 -86 -8 -40 -22 -82
-37 -101 -13 -18 -30 -42 -38 -53 -9 -11 -18 -47 -20 -80 -3 -33 -3 -52 0 -42
5 16 7 16 22 -3 16 -19 32 -20 232 -25 123 -3 221 -2 229 3 29 20 -8 96 -48
97 -10 0 -17 10 -19 28 -3 22 1 30 17 34 15 4 21 13 21 35 0 26 -2 28 -20 18
-17 -9 -20 -8 -20 8 0 12 11 21 33 27 27 9 33 16 38 50 3 22 7 29 8 16 1 -20
3 -21 16 -11 8 7 15 21 15 31 0 24 20 35 31 18 12 -19 29 6 29 43 0 20 -4 26
-15 22 -18 -7 -19 2 -3 78 15 71 4 91 -37 64 -26 -17 -45 -14 -45 8 0 22 -103
87 -126 79 -6 -2 -14 9 -18 24 -4 18 -23 40 -56 63 -30 21 -50 43 -51 55 -1
16 -3 15 -12 -8 -18 -44 -29 -31 -22 23 5 35 3 55 -6 66 -10 12 -14 12 -20 2
-6 -8 -9 2 -9 27 0 44 -35 156 -52 166 -7 5 -5 15 6 30 20 29 21 59 1 59 -22
0 -18 18 8 31 28 16 46 39 47 62 0 22 19 22 36 0 13 -17 14 -17 20 5 3 12 11
22 16 22 6 0 7 -7 4 -15 -5 -13 0 -15 28 -10 46 9 112 -24 161 -82 22 -26 53
-61 69 -78 15 -16 32 -40 37 -53 7 -18 14 -22 30 -17 19 6 21 4 16 -14 -4 -16
-1 -21 16 -21 11 0 28 -6 36 -14 21 -17 79 -28 86 -16 3 6 1 10 -5 10 -6 0 -8
4 -5 10 4 6 13 5 25 -2 14 -9 16 -16 9 -30 -8 -15 -6 -18 11 -18 13 0 20 7 20
20 0 11 5 20 10 20 6 0 10 -11 10 -25 0 -20 7 -26 41 -35 23 -6 52 -16 66 -21
21 -8 23 -7 13 10 -12 24 -13 51 -2 51 5 0 16 -15 25 -32 15 -32 16 -32 17 -8
1 24 1 24 15 6 8 -11 15 -28 15 -38 0 -10 10 -22 23 -27 35 -14 111 -35 119
-33 5 1 48 -12 98 -28 50 -17 95 -30 100 -30 6 0 10 16 10 35 0 36 11 44 34
23 10 -9 11 -20 5 -37 -12 -30 -9 -32 42 -41 l41 -8 -5 34 c-6 33 8 48 19 20
3 -8 13 -12 25 -9 25 7 49 -14 49 -43 0 -29 20 -32 27 -4 5 19 6 19 22 -1 14
-17 30 -22 83 -24 91 -3 98 4 60 56 -29 39 -30 43 -14 55 21 16 24 14 63 -47
21 -31 38 -48 47 -44 7 3 22 5 32 5 27 0 30 40 6 67 -11 13 -16 26 -13 30 6 5
18 1 69 -25 3 -2 5 8 4 21 -3 29 -39 91 -74 130 -14 15 -23 27 -19 27 4 0 29
-24 57 -52 37 -40 52 -50 60 -42 9 9 -1 26 -39 68 -66 72 -66 95 -1 31 48 -48
72 -56 51 -18 -5 11 -30 38 -55 61 -53 49 -52 53 4 16 34 -23 44 -25 65 -16
22 10 24 14 13 37 -6 13 -22 32 -35 40 -25 17 -32 41 -9 32 8 -3 19 5 26 19 8
13 20 23 29 22 19 -4 28 30 9 36 -7 2 -25 7 -40 10 -46 10 -31 24 22 22 56 -3
61 0 25 14 -24 9 -26 40 -2 40 6 0 -15 23 -46 51 -32 28 -56 53 -54 56 3 2 24
-9 48 -26 24 -16 55 -33 69 -37 24 -7 24 -6 7 19 -21 32 -21 37 -2 37 8 0 15
5 15 10 0 6 -4 10 -10 10 -5 0 -10 4 -10 9 0 5 7 8 17 7 13 -1 20 17 33 86 16
86 16 87 -4 109 l-21 21 27 -6 c24 -5 28 -2 38 32 15 44 37 72 58 72 8 0 30
12 49 26 19 14 52 28 74 31 21 3 39 10 39 14 0 5 8 9 18 9 19 0 62 35 62 50 0
5 -26 23 -57 40 -32 17 -49 28 -38 26 24 -7 39 3 43 27 2 12 -4 17 -21 17 -29
0 -62 33 -53 55 4 12 14 14 42 9 35 -6 36 -6 25 15 -7 11 -16 21 -22 21 -6 0
-7 5 -4 10 3 6 -3 10 -14 10 -23 0 -37 16 -19 23 17 6 -36 27 -70 27 -39 0
-72 11 -72 23 0 9 42 6 108 -7 14 -3 25 0 28 8 7 19 -24 122 -41 136 -8 7 -15
18 -15 25 0 7 -9 10 -24 8 -13 -3 -27 0 -30 6 -5 7 2 11 18 11 l25 0 -19 44
c-10 24 -30 62 -44 85 -15 23 -29 55 -33 71 -3 17 -9 33 -13 35 -5 3 -6 23 -3
45 4 25 2 40 -5 40 -6 0 -12 25 -14 58 -2 39 -7 56 -15 54 -16 -3 -16 7 2 38
8 14 14 35 15 47 0 20 -4 21 -54 17 -32 -3 -57 -1 -61 5 -4 7 8 11 33 11 22 0
44 6 49 13 18 22 22 57 8 70 -9 9 -10 19 -3 30 11 21 1 25 -67 29 -49 3 -49 4
-22 16 16 6 26 16 23 21 -3 5 1 12 10 15 24 9 -1 36 -35 37 -24 1 -24 1 7 10
18 6 30 14 26 20 -3 6 -9 8 -12 5 -3 -3 -25 6 -50 20 l-44 26 -71 -35 c-40
-20 -74 -33 -77 -30 -3 3 3 10 14 17 10 6 32 22 49 36 l30 25 -34 7 c-19 4
-45 4 -58 1 -13 -3 -26 -1 -30 6 -4 6 -21 13 -37 14 -28 2 -29 1 -30 -48 -1
-32 5 -59 16 -75 9 -14 23 -62 30 -108 l13 -83 -58 -112 c-31 -62 -60 -114
-64 -117 -20 -15 -41 -64 -41 -95 0 -27 -4 -35 -18 -35 -18 0 -70 -77 -129
-190 -16 -30 -34 -65 -41 -77 -35 -66 -35 -66 -18 -78 9 -7 16 -15 16 -19 0
-11 -28 -6 -33 7 -3 10 -97 -121 -97 -137 0 -3 -32 -60 -72 -128 -39 -68 -80
-141 -90 -163 -40 -84 -114 -187 -156 -215 -26 -18 -51 -24 -126 -28 -144 -7
-186 7 -266 87 -76 77 -150 207 -150 264 0 40 43 139 122 277 29 52 47 100 42
114 -11 29 -244 15 -244 -15 0 -19 -109 -165 -144 -193 -62 -50 -110 -64 -222
-67 -131 -3 -175 5 -210 42 -15 16 -36 29 -47 29 -14 0 -17 5 -12 21 5 14 -6
45 -32 97 -34 67 -38 83 -37 146 0 67 4 78 62 189 34 65 69 125 77 133 8 9 15
20 15 26 0 5 25 50 55 99 30 49 55 92 55 95 0 3 8 18 18 32 11 15 35 56 54 92
20 36 53 94 73 130 21 36 51 90 68 120 16 30 40 74 53 97 17 29 23 50 18 68
-5 21 -3 25 15 25 11 0 25 9 31 19 14 27 13 31 -7 31 -13 0 -14 3 -5 12 7 7
12 26 13 42 1 30 1 30 14 -9 l12 -40 13 30 c26 61 70 150 81 166 15 21 -16
106 -41 114 -10 3 -23 19 -28 35 -6 17 -28 40 -54 56 -24 15 -44 30 -46 34 -1
4 -9 15 -16 25 -13 18 -14 17 -36 -3 -19 -18 -21 -24 -10 -37 7 -8 10 -18 7
-21 -8 -8 -50 33 -79 75 -29 43 -68 52 -68 16 0 -14 -4 -25 -10 -25 -14 0 -4
-73 14 -108 18 -36 19 -42 7 -42 -10 0 -61 86 -61 104 0 6 4 4 10 -4 5 -8 12
-11 16 -7 4 4 1 15 -7 24 -8 10 -23 35 -33 56 -22 43 -41 50 -32 11z m351
-3777 c7 -121 8 -130 6 -154 -1 -29 -28 -20 -34 10 -3 18 -5 16 -12 -10 -14
-61 -28 -37 -22 39 6 64 -4 84 -16 33 -3 -11 -5 -1 -6 23 -1 27 3 41 9 37 6
-3 10 -1 10 4 0 21 -27 10 -39 -15 -20 -45 -23 -19 -6 48 18 73 35 97 36 53
l1 -30 15 35 c33 76 50 55 58 -73z"/>
<path d="M2873 4345 c-7 -8 -13 -24 -13 -35 0 -12 -4 -19 -9 -16 -12 8 -29
-14 -62 -82 -40 -79 -39 -92 11 -92 23 0 40 -5 40 -11 0 -8 -14 -10 -44 -6
-40 6 -46 4 -53 -16 -10 -29 -10 -207 0 -207 5 0 5 -5 2 -11 -7 -11 31 -59 47
-59 18 0 66 57 87 103 12 26 25 47 30 47 5 0 16 15 25 34 8 18 22 39 30 45 12
10 12 18 4 36 -14 32 -3 59 22 52 28 -7 39 52 16 85 -9 12 -16 30 -16 40 0 9
-6 23 -13 30 -7 7 -23 28 -36 46 -24 34 -48 40 -68 17z"/>
<path d="M2510 4317 c0 -9 -13 -31 -28 -49 -47 -55 -74 -105 -61 -114 8 -5 7
-9 -5 -16 -9 -5 -16 -18 -16 -28 0 -11 -6 -20 -12 -20 -9 0 -8 -4 2 -10 13 -9
13 -10 -1 -10 -24 0 -138 -150 -139 -182 0 -5 55 -9 123 -9 73 -1 110 -4 92
-9 -16 -4 -73 -5 -125 -3 -83 4 -97 2 -111 -14 -9 -10 -51 -79 -94 -153 -43
-74 -111 -192 -151 -261 -41 -69 -74 -135 -74 -147 0 -11 -6 -25 -14 -29 -25
-15 -78 -112 -71 -132 8 -25 33 -31 143 -31 118 0 139 10 180 89 18 34 32 66
32 71 0 6 -19 11 -42 11 -24 1 -56 5 -73 10 -20 6 -3 7 52 4 l82 -4 30 50 c17
27 31 52 31 55 0 3 7 13 16 21 11 12 44 18 113 22 60 4 104 11 114 20 15 12
17 11 17 -3 0 -14 29 -16 285 -16 191 0 292 4 309 11 17 8 40 9 73 3 66 -13
95 -8 83 14 -5 9 -23 46 -40 82 -18 36 -42 76 -53 89 -20 21 -27 23 -87 16
-79 -8 -89 -9 -215 -7 -150 3 -143 6 -160 -73 -6 -29 -7 -29 -21 -11 -8 11
-14 37 -14 58 0 54 -26 68 -136 73 -105 4 -109 10 -69 87 21 41 24 53 13 60
-9 6 -8 8 7 6 12 -2 20 3 20 12 0 8 4 20 8 27 5 8 -3 15 -25 22 l-33 9 32 1
c49 2 62 10 69 47 5 27 2 38 -11 48 -16 11 -16 14 -2 19 9 3 13 13 10 25 -3
14 2 21 19 26 22 6 22 7 4 17 -13 8 -15 13 -6 19 6 4 14 34 17 66 4 49 2 63
-15 84 -11 14 -28 25 -39 25 -10 0 -18 7 -18 17 0 9 -4 20 -8 24 -4 4 -7 0 -7
-9z"/>
<path d="M1061 4269 l-24 -10 34 -36 c25 -26 29 -34 14 -29 -11 4 -33 10 -50
13 l-30 6 19 -21 c19 -22 19 -22 -2 -22 -20 0 -33 -20 -14 -20 4 0 18 -10 32
-21 l25 -21 -39 6 c-53 7 -74 -13 -43 -42 12 -11 38 -23 57 -27 54 -11 88 -33
92 -57 2 -13 11 -24 21 -26 13 -3 18 2 16 15 -1 10 1 26 6 36 5 11 2 24 -9 36
-21 23 -20 33 2 30 32 -3 40 1 45 22 4 16 -1 28 -19 41 -13 11 -24 26 -24 35
0 8 -13 31 -30 50 -16 18 -30 38 -30 43 0 12 -17 12 -49 -1z"/>
<path d="M942 4037 c3 -16 0 -28 -8 -31 -28 -11 -12 -32 46 -60 33 -16 60 -33
60 -37 0 -5 -29 3 -65 16 -76 29 -78 29 -72 13 2 -7 -2 -30 -9 -52 -8 -21 -14
-53 -14 -71 0 -17 -3 -35 -7 -39 -13 -13 -14 -56 -1 -56 7 0 24 -10 38 -21
l25 -20 -42 6 c-48 7 -56 -4 -20 -28 l22 -16 -22 0 c-31 -1 -37 -18 -12 -32
18 -9 19 -13 8 -21 -10 -6 -7 -8 11 -7 14 1 31 1 38 0 17 -1 15 -21 -3 -21 -8
0 -15 -5 -15 -11 0 -6 -8 -8 -17 -5 -10 3 -25 1 -33 -4 -13 -9 -13 -12 3 -24
21 -16 22 -26 2 -26 -12 0 -15 -15 -14 -85 l2 -85 76 -1 c113 -1 146 -17 37
-17 -48 0 -90 -3 -92 -5 -3 -3 -8 -37 -11 -76 -7 -85 2 -102 53 -94 40 7 48
-13 9 -23 -29 -7 -36 -24 -33 -82 1 -47 2 -47 77 -16 40 17 41 17 41 3 0 -5
-13 -15 -30 -20 -16 -6 -28 -16 -27 -22 1 -6 -8 -13 -21 -15 -20 -3 -22 -7
-17 -34 10 -42 34 -98 43 -98 4 0 8 -14 9 -31 1 -17 6 -36 11 -43 4 -6 9 -24
11 -41 2 -16 10 -43 18 -59 12 -24 19 -27 41 -21 52 13 108 17 92 6 -8 -5 -11
-13 -7 -17 4 -4 2 -13 -4 -21 -13 -15 -63 -18 -54 -3 7 11 -28 14 -38 3 -9 -8
18 -51 49 -79 13 -12 24 -28 24 -36 0 -8 7 -23 15 -34 8 -10 15 -27 15 -36 0
-17 15 -22 53 -19 22 3 22 -15 0 -28 -21 -11 -11 -26 12 -18 8 4 15 15 15 26
0 26 46 54 76 47 13 -4 24 -10 24 -15 0 -11 -25 -32 -36 -30 -21 4 -32 -3 -53
-32 -21 -29 -22 -32 -6 -49 22 -25 72 -35 90 -20 8 7 15 27 15 44 0 23 3 27
10 16 7 -12 12 -12 22 -2 6 6 21 12 33 12 16 -1 9 -10 -33 -48 -55 -50 -67
-86 -37 -116 8 -8 15 -19 15 -25 0 -12 28 -41 40 -41 4 0 24 16 44 36 20 20
40 34 44 30 4 -4 -3 -15 -14 -24 -12 -9 -29 -29 -39 -45 -20 -31 -23 -25 67
-128 111 -128 186 -309 188 -454 1 -78 10 -93 41 -71 24 16 69 22 69 8 0 -4
-6 -16 -13 -27 -21 -32 -38 -77 -27 -70 22 14 8 -15 -17 -35 -24 -19 -26 -23
-11 -31 10 -5 15 -19 13 -34 -3 -33 5 -32 40 5 16 16 31 28 33 25 3 -3 11 3
18 13 17 23 32 6 16 -18 -14 -23 -16 -40 -3 -40 7 0 19 33 25 72 1 3 4 10 9
14 4 4 7 29 7 55 0 42 -3 48 -22 51 l-23 3 24 22 c19 18 24 35 28 98 4 58 2
80 -9 93 -20 23 -29 60 -15 65 13 4 -33 139 -72 210 -59 110 -108 187 -119
187 -4 0 -27 27 -52 60 -25 34 -52 60 -62 60 -10 0 -18 8 -18 18 0 9 -12 25
-26 35 -23 17 -27 18 -43 3 -26 -24 -58 -17 -34 8 13 12 14 50 2 79 -9 22 -18
28 -38 27 -44 -3 -61 0 -61 9 0 5 9 13 20 16 11 3 20 11 20 16 0 6 -3 8 -8 5
-4 -2 -18 2 -32 9 -18 9 -28 10 -41 2 -26 -16 -32 -4 -14 29 17 33 20 80 5 89
-5 3 -10 18 -10 32 0 16 -7 27 -20 30 -11 3 -17 10 -14 15 4 5 -1 24 -9 41 -9
18 -24 57 -35 87 -11 30 -28 77 -37 103 -11 30 -25 52 -39 57 -17 7 -18 9 -3
9 20 1 23 32 6 80 -10 27 -16 32 -36 28 -33 -6 -38 9 -8 29 32 21 32 38 -2 50
-23 8 -25 11 -12 24 13 14 21 130 9 130 -3 0 -2 39 1 88 3 48 4 90 2 95 -2 4
-13 7 -23 7 -10 0 -22 5 -25 10 -4 6 7 10 24 10 21 0 31 5 31 15 0 8 -7 15
-15 15 -8 0 -15 5 -15 11 0 6 7 9 15 5 21 -8 19 14 -2 30 -17 13 -17 13 2 14
18 0 23 12 38 93 22 121 34 178 42 198 4 12 -1 18 -18 23 -14 3 -27 13 -31 21
-7 20 8 19 39 -1 21 -14 25 -14 25 -2 0 14 -23 29 -64 42 -10 4 -16 9 -12 13
8 8 -74 60 -110 69 -25 6 -26 5 -22 -19z"/>
<path d="M4465 3936 c-11 -12 -31 -35 -45 -50 -20 -22 -22 -30 -13 -45 13 -21
0 -41 -28 -41 -9 0 -20 -7 -23 -16 -9 -22 3 -184 15 -215 5 -14 9 -30 8 -35
-7 -41 2 -53 44 -56 l42 -3 -43 -13 c-23 -7 -40 -17 -36 -23 3 -5 0 -16 -6
-24 -10 -12 -10 -18 0 -30 7 -9 14 -29 15 -45 2 -17 9 -37 16 -46 7 -9 13 -26
14 -38 0 -18 9 -23 60 -32 41 -8 50 -12 29 -13 -38 -1 -43 -16 -31 -88 8 -50
10 -53 45 -59 34 -7 35 -8 12 -14 -30 -8 -29 -15 13 -102 33 -71 56 -88 118
-88 15 0 31 -4 34 -10 4 -6 -14 -10 -45 -10 -44 0 -51 -3 -46 -16 3 -9 9 -26
12 -39 4 -16 18 -28 40 -35 40 -13 45 -30 9 -30 l-24 0 15 -47 c9 -27 18 -69
21 -94 5 -44 4 -47 -38 -81 -45 -35 -106 -68 -131 -68 -7 0 7 -18 32 -40 25
-22 40 -40 33 -40 -7 0 -28 14 -47 30 -30 27 -39 30 -76 24 -56 -9 -120 -66
-120 -106 0 -16 -4 -37 -9 -47 -12 -21 -16 -139 -6 -163 5 -13 2 -18 -9 -18
-20 0 -20 -14 0 -45 15 -22 14 -23 -5 -18 -17 4 -21 1 -21 -16 0 -22 45 -70
66 -71 6 0 19 -9 29 -20 16 -18 16 -20 2 -20 -34 0 -11 -29 53 -65 13 -8 13
-7 0 9 -13 17 -12 17 25 2 l40 -16 -45 41 c-34 30 -39 39 -22 35 12 -3 32 -9
45 -12 17 -5 19 -4 7 5 -12 9 -13 11 -1 11 8 0 11 3 8 7 -4 3 -2 12 5 20 6 7
9 15 7 16 -2 2 -25 16 -51 31 -50 28 -62 42 -29 33 14 -3 18 -1 14 9 -3 8 -11
14 -18 14 -6 0 -20 9 -30 20 -16 17 -16 20 -2 20 26 0 71 -20 95 -43 27 -26
39 -16 44 38 3 38 1 40 -50 70 -35 19 -48 31 -37 33 9 2 33 -8 54 -22 43 -30
61 -33 62 -8 0 9 2 27 5 39 3 18 -7 28 -62 59 -87 49 -73 57 18 11 39 -21 74
-33 77 -29 3 5 12 11 20 13 8 3 -4 13 -28 23 -40 19 -53 35 -28 37 6 0 -10 11
-38 25 -40 19 -44 23 -20 19 17 -3 64 -9 105 -14 110 -14 138 -30 88 -51 l-23
-9 23 0 c12 -1 22 4 22 9 0 6 11 10 25 10 28 0 136 53 155 74 16 20 40 121 40
170 0 24 -7 62 -15 85 -8 23 -14 43 -14 46 -2 34 -58 182 -121 318 -16 36 -30
70 -30 76 0 6 -8 26 -17 46 -12 25 -23 35 -40 35 -13 0 -22 4 -18 9 3 6 -3 14
-12 20 -17 10 -17 10 0 11 27 0 16 20 -22 41 -20 11 -28 20 -21 24 17 10 -8
25 -42 25 -35 0 -59 10 -52 21 3 5 16 9 29 9 30 0 37 12 39 61 2 42 2 42 -68
54 l-38 6 21 20 c24 23 27 35 9 42 -9 3 -7 10 7 21 18 14 18 15 3 16 -25 0
-22 13 5 25 12 6 23 21 25 33 4 23 3 24 -65 18 -68 -5 -68 -5 -28 9 22 7 52
14 68 14 38 1 34 21 -5 21 l-33 0 22 18 c38 29 58 106 26 96 -16 -5 -16 -4 -2
8 14 12 14 20 2 83 -14 65 -46 136 -61 134 -4 0 -16 -10 -27 -23z"/>
<path d="M3557 3915 c-28 -9 -32 -14 -32 -48 0 -21 -6 -41 -12 -45 -10 -6 -8
-18 8 -49 l20 -40 90 -5 c79 -5 152 2 165 15 2 2 -1 19 -7 38 -32 98 -61 126
-121 116 l-33 -6 30 14 c25 12 27 14 10 16 -50 6 -89 4 -118 -6z"/>
<path d="M3350 3803 c30 -2 59 -8 65 -14 9 -9 -16 -12 -100 -14 -38 0 -40 -2
-37 -27 2 -19 -1 -28 -10 -28 -8 0 -24 -9 -36 -20 l-21 -20 35 -76 c59 -130
88 -154 125 -103 l20 29 -30 0 c-47 0 -46 18 0 22 49 3 64 25 22 31 -20 3 -16
4 15 6 26 0 42 6 42 14 0 7 11 29 25 49 28 42 32 66 10 74 -8 4 -12 10 -9 16
3 5 0 22 -6 39 -12 29 -13 29 -89 27 -66 -1 -69 -2 -21 -5z"/>
<path d="M3542 3673 c-17 -7 -97 -130 -138 -214 -19 -37 -43 -73 -55 -80 -14
-7 -69 -10 -153 -8 -237 4 -595 -2 -626 -11 -37 -11 -162 -1 -154 11 3 5 -13
9 -36 9 -38 0 -41 -2 -34 -22 18 -59 73 -126 94 -113 5 3 10 -1 10 -10 0 -11
-5 -15 -15 -11 -18 7 -20 -22 -2 -44 14 -18 53 -23 77 -10 10 5 20 6 24 2 4
-3 -10 -12 -31 -19 -24 -8 -27 -11 -10 -7 16 3 26 1 23 -4 -3 -6 4 -12 17 -16
33 -9 150 -7 166 3 8 5 24 3 40 -5 14 -8 36 -14 48 -14 33 0 47 -33 32 -78
-12 -38 -102 -205 -124 -232 -15 -18 -48 -77 -58 -104 -7 -17 -3 -18 65 -11
51 5 70 4 63 -3 -5 -6 -41 -12 -80 -14 l-70 -3 3 -40 c3 -58 11 -85 23 -85 6
0 8 4 4 9 -8 14 35 25 47 13 14 -14 1 -32 -23 -32 -25 0 -24 -6 8 -53 37 -53
62 -65 82 -40 24 31 89 139 190 318 13 22 29 47 35 55 7 8 34 53 61 100 75
133 106 180 121 180 19 0 18 -13 -7 -52 -11 -18 -47 -78 -78 -133 -32 -55 -85
-145 -117 -199 -126 -213 -143 -242 -167 -290 l-19 -39 23 -18 c19 -14 42 -17
124 -16 93 2 101 4 110 24 6 15 16 21 26 18 13 -4 27 10 53 53 37 61 44 82 26
82 -23 0 -8 33 19 43 18 6 38 27 52 51 12 23 49 85 81 139 32 54 76 131 97
172 22 41 51 94 66 119 14 25 27 56 29 70 1 14 14 34 28 45 14 11 31 34 38 51
7 16 15 30 19 30 10 0 33 59 26 69 -3 6 4 15 15 21 34 18 22 30 -30 30 -27 0
-50 5 -50 10 0 6 26 10 58 10 l57 0 30 52 c17 28 38 63 47 77 46 68 62 110 52
138 -9 28 -10 28 -114 30 -58 1 -111 -1 -118 -4z"/>
<path d="M2280 3332 c0 -4 -19 -37 -42 -73 -23 -35 -41 -72 -40 -81 2 -11 -3
-18 -12 -18 -17 0 -46 -49 -46 -77 1 -25 91 -194 111 -206 37 -23 125 89 157
199 10 35 9 48 -4 80 -27 66 -98 183 -111 184 -7 0 -13 -4 -13 -8z"/>
<path d="M1823 3049 c-7 -7 -8 -21 -3 -38 10 -36 52 -101 65 -101 6 0 28 18
49 39 35 36 37 40 19 50 -15 9 -13 10 15 11 l33 0 -19 -27 c-11 -16 -34 -41
-51 -57 -36 -35 -39 -61 -10 -87 36 -31 86 -42 181 -37 128 6 132 19 50 168
l-47 85 -135 3 c-91 2 -139 -1 -147 -9z"/>
<path d="M4287 1903 c-3 -5 -8 -29 -12 -55 -6 -39 -4 -49 9 -54 9 -3 16 -12
16 -20 0 -7 -6 -11 -14 -8 -20 8 -9 -30 15 -52 22 -20 25 -36 5 -28 -8 3 -17
1 -20 -4 -7 -11 153 -157 162 -148 3 3 -2 14 -11 24 -14 15 -15 23 -5 50 7 18
17 32 22 32 6 0 -12 23 -39 50 -27 28 -46 50 -42 50 4 0 3 9 -3 20 -12 23 2
27 19 6 7 -8 21 -14 31 -13 16 1 17 3 6 17 -7 8 -15 20 -17 26 -7 19 -96 114
-107 114 -6 0 -13 -3 -15 -7z"/>
<path d="M2414 1856 c-8 -9 -9 -18 -1 -31 8 -15 6 -22 -11 -33 -29 -19 -28
-45 5 -134 22 -61 39 -86 102 -150 74 -77 111 -97 111 -59 0 11 5 23 10 26 6
4 10 -5 10 -20 0 -44 17 -62 70 -75 28 -7 54 -10 57 -6 3 3 13 0 21 -7 12 -10
16 -9 20 1 3 10 7 10 18 1 12 -9 14 -6 14 22 0 19 3 45 7 57 9 37 23 6 23 -55
0 -33 6 -57 16 -67 17 -17 25 -20 23 -8 -1 4 -1 18 1 32 1 23 3 22 18 -11 14
-31 20 -36 38 -29 17 7 27 3 45 -16 22 -24 24 -24 37 -7 8 12 15 14 20 7 7
-11 51 -29 64 -26 3 1 11 -5 18 -13 6 -7 18 -11 25 -9 7 3 18 -3 24 -13 5 -11
34 -31 63 -45 64 -32 149 -111 176 -164 32 -65 45 -139 40 -238 -5 -95 -23
-148 -55 -161 -10 -4 -94 -9 -188 -11 -93 -2 -214 -8 -268 -13 -55 -5 -110 -6
-127 -1 -17 5 -30 5 -30 1 0 -4 -26 -4 -57 1 -32 6 -239 9 -461 9 -250 -1
-417 2 -441 9 -49 13 -66 49 -56 117 l7 48 -43 -58 c-44 -59 -69 -72 -69 -35
l0 21 -22 -20 c-18 -15 -30 -18 -50 -13 -15 5 -29 5 -32 2 -3 -3 -6 1 -6 8 0
13 -14 5 -16 -8 0 -4 -5 -19 -11 -33 -21 -50 -36 -172 -25 -201 25 -63 -27
-60 1081 -59 912 2 1008 3 1031 18 33 22 47 42 55 78 15 72 64 376 70 435 4
36 16 86 27 112 l20 47 -28 48 -27 48 45 -50 c25 -27 49 -47 52 -44 3 3 -14
47 -39 97 -24 51 -40 92 -34 92 5 0 2 11 -8 25 -22 29 -90 37 -79 9 14 -36 18
-64 9 -64 -16 0 -41 33 -45 60 -3 22 -12 27 -78 44 -53 14 -75 16 -78 7 -6
-18 -32 -13 -32 7 0 17 -10 21 -205 80 -27 8 -67 21 -88 28 -20 7 -35 9 -32 4
3 -5 1 -11 -5 -15 -5 -3 -10 -22 -10 -42 0 -30 -2 -34 -15 -23 -18 15 -21 55
-4 44 9 -5 10 1 5 22 -4 16 -8 29 -9 30 -5 3 -122 24 -134 24 -19 0 -36 -49
-22 -66 6 -7 17 -10 25 -7 8 3 16 -3 20 -13 3 -11 10 -27 15 -36 5 -10 9 -28
8 -40 0 -17 -5 -12 -20 21 -11 24 -22 41 -26 38 -3 -4 -11 3 -17 16 -6 12 -22
23 -34 25 -27 4 -30 37 -5 51 14 8 15 12 4 25 -17 20 -41 21 -41 1 0 -22 -28
-18 -35 5 -10 31 -74 67 -113 65 -23 -1 -36 3 -40 14 -3 9 -42 52 -86 95 -45
44 -80 86 -78 93 2 7 -2 13 -8 13 -5 0 -10 6 -10 13 0 37 -72 62 -96 33z"/>
<path d="M4230 1395 c11 -13 9 -15 -13 -15 -14 0 -29 5 -32 10 -14 22 -35 10
-35 -20 0 -16 -4 -30 -10 -30 -21 0 -9 -27 29 -64 46 -45 69 -43 96 7 17 32
17 35 -1 62 -11 16 -18 30 -16 32 7 9 0 22 -14 27 -14 5 -15 4 -4 -9z"/>
<path d="M2195 1100 c-3 -11 -12 -20 -19 -20 -8 0 -16 -13 -19 -30 -4 -16 -15
-38 -25 -48 -24 -24 -33 -48 -25 -69 6 -15 7 -15 14 3 15 38 10 -18 -6 -61 -8
-22 -14 -33 -15 -25 0 27 -18 -4 -39 -69 -26 -78 -26 -81 -3 -81 21 0 48 71
36 92 -4 7 -3 8 5 4 7 -5 13 3 17 23 4 17 11 31 16 31 6 0 8 10 5 23 -3 12 1
33 8 47 11 19 14 21 15 8 0 -10 4 -18 8 -18 11 0 30 56 37 110 3 25 8 57 10
73 5 31 -11 37 -20 7z"/>
<path d="M3144 1080 l6 -45 -16 30 c-9 17 -22 33 -28 37 -13 9 -26 -11 -19
-29 5 -12 7 -12 14 -2 5 9 11 5 20 -14 7 -15 15 -27 19 -27 9 0 19 -47 12 -55
-3 -3 -13 6 -22 21 -15 23 -18 23 -24 8 -6 -16 -10 -15 -31 11 -31 39 -31 21
0 -80 14 -44 25 -97 25 -118 0 -36 -1 -37 -27 -31 -16 4 -28 7 -29 8 0 1 -8
26 -17 56 l-15 55 -1 -86 -1 -86 63 -9 c34 -5 105 -8 159 -7 84 1 99 4 122 24
30 26 33 56 14 155 -14 79 -57 137 -93 128 -23 -6 -49 16 -27 24 22 7 12 21
-23 33 -19 7 -35 17 -35 22 0 5 -6 7 -14 4 -7 -3 -19 0 -26 6 -9 9 -10 2 -6
-33z"/>
</g>
</svg>
