<?xml version="1.0" standalone="no"?>
<!DOCTYPE svg PUBLIC "-//W3C//DTD SVG 20010904//EN"
 "http://www.w3.org/TR/2001/REC-SVG-20010904/DTD/svg10.dtd">
<svg version="1.0" xmlns="http://www.w3.org/2000/svg"
 width="544.000000pt" height="544.000000pt" viewBox="0 0 544.000000 544.000000"
 preserveAspectRatio="xMidYMid meet">
<metadata>
Created by potrace 1.16, written by Peter Selinger 2001-2019
</metadata>
<g transform="translate(0.000000,544.000000) scale(0.100000,-0.100000)"
fill="#000000" stroke="none">
<path d="M0 5403 c0 -28 8 -46 33 -72 17 -20 23 -28 12 -20 -44 35 -44 34 -44
-70 l0 -101 44 -30 c58 -40 58 -50 0 -16 l-44 26 0 -69 c0 -57 4 -71 17 -76 9
-3 28 -15 42 -26 25 -20 25 -20 -17 1 l-43 20 0 -169 c0 -151 2 -171 17 -181
17 -11 17 -11 1 -6 -17 5 -18 -8 -18 -169 0 -96 4 -175 8 -175 5 0 17 -7 28
-15 18 -15 18 -15 -8 -9 l-28 6 0 -650 c0 -512 3 -651 12 -655 10 -4 10 -6 1
-6 -10 -1 -13 -160 -13 -761 l0 -761 23 11 22 11 -22 -19 -23 -20 0 -701 0
-701 678 0 679 0 18 35 c11 19 21 33 23 31 2 -2 -4 -18 -13 -35 l-16 -31 118
0 118 0 30 76 c31 79 48 79 21 -1 -20 -57 -20 -61 -1 -45 13 10 15 9 15 -9 0
-20 5 -21 79 -21 l78 0 11 33 11 32 -5 -33 -6 -32 171 0 170 0 4 52 3 53 2
-52 2 -53 114 0 c111 0 115 1 119 23 l4 22 2 -22 c1 -23 3 -23 135 -23 l135 0
4 38 4 37 1 -37 2 -38 256 0 c189 0 253 3 248 11 -15 25 -32 146 -27 192 6 51
18 66 36 48 9 -9 8 -15 -5 -22 -14 -8 -17 -21 -13 -75 2 -37 12 -86 22 -110
l18 -43 517 -1 c447 0 518 2 518 14 0 8 -4 18 -10 21 -5 3 -10 14 -10 23 1 10
10 0 21 -21 l20 -37 133 1 132 1 -19 56 c-10 31 -30 81 -43 110 -14 30 -23 56
-21 59 3 2 20 -26 38 -64 19 -37 47 -89 63 -115 l29 -48 199 0 200 0 -23 38
c-13 20 -29 47 -37 60 -8 12 -10 22 -6 22 5 0 27 -27 48 -60 30 -46 45 -60 64
-60 l24 0 -26 31 c-14 17 -26 35 -26 42 0 6 16 -8 36 -31 l36 -42 139 0 c76 0
139 3 139 8 0 8 -77 107 -157 201 -29 34 -53 67 -53 72 0 15 90 -85 168 -188
37 -48 75 -89 85 -91 15 -3 17 6 17 74 0 74 -2 80 -32 113 -20 21 -23 27 -7
13 14 -12 28 -22 32 -22 4 0 7 177 7 393 l0 393 -30 22 c-31 23 -39 42 -18 42
6 0 20 -7 30 -17 17 -16 18 -8 18 236 0 250 0 253 -22 272 l-23 18 23 1 22 0
0 819 c0 646 -3 820 -12 824 -10 4 -10 6 0 6 8 1 12 23 12 75 0 63 -3 75 -17
79 -16 4 -16 5 -1 6 15 1 17 22 18 226 0 208 -1 225 -17 225 -17 1 -17 1 0 14
16 12 17 40 17 330 0 174 -2 316 -4 316 -2 0 -33 -7 -68 -16 -69 -18 -95 -36
-141 -104 -17 -25 -33 -47 -36 -50 -3 -3 -12 -13 -20 -22 -15 -19 7 -13 162
46 37 14 67 22 67 17 0 -5 -19 -16 -42 -25 -140 -51 -173 -66 -138 -62 19 2
62 11 95 20 33 8 74 15 90 15 18 -1 -1 -8 -45 -18 -99 -22 -200 -54 -200 -63
0 -4 7 -5 16 -1 29 11 10 -21 -20 -36 -21 -10 -30 -10 -35 -2 -6 8 -37 7 -122
-4 -63 -8 -173 -15 -245 -15 l-132 0 -6 -31 c-9 -48 -7 -85 10 -173 20 -107
29 -123 78 -139 23 -8 41 -20 41 -28 0 -16 -54 -26 -56 -10 -1 6 -2 16 -3 21
0 6 -4 10 -8 10 -5 0 -12 0 -16 0 -4 0 -5 -39 -1 -87 4 -49 10 -129 14 -180 5
-75 13 -110 45 -189 22 -54 40 -101 40 -105 0 -5 15 -41 34 -81 19 -40 51
-113 71 -163 21 -49 45 -108 55 -130 9 -22 22 -52 28 -67 8 -20 19 -28 37 -28
14 0 25 -4 25 -10 0 -5 -9 -10 -20 -10 -11 0 -20 -4 -20 -10 0 -5 6 -7 13 -5
17 7 41 -11 33 -24 -4 -6 -13 -11 -21 -11 -12 0 -12 -6 0 -41 8 -22 18 -75 21
-117 9 -105 -15 -191 -68 -244 -38 -38 -163 -108 -195 -108 -10 0 -37 -9 -60
-20 -31 -14 -46 -29 -58 -57 -18 -42 -34 -134 -39 -228 -2 -33 -11 -98 -20
-145 -9 -47 -21 -121 -27 -165 -5 -44 -14 -89 -19 -100 -5 -11 -11 -38 -14
-60 -11 -86 -19 -114 -36 -132 -29 -32 -45 -66 -31 -71 6 -2 11 -10 11 -19 0
-11 -7 -13 -30 -8 -17 4 -30 2 -30 -3 0 -5 -26 -27 -57 -48 -32 -22 -60 -41
-63 -44 -8 -8 -69 -27 -130 -40 -30 -7 -66 -16 -80 -20 -43 -14 -140 -33 -170
-33 -20 0 -41 -17 -34 -28 3 -5 1 -9 -4 -9 -6 0 -12 -16 -14 -35 -2 -19 -2
-32 1 -30 2 3 10 0 18 -7 11 -8 12 -7 7 5 -10 27 7 43 23 22 21 -30 15 -42
-22 -49 -19 -4 -35 -11 -35 -15 0 -5 -14 -82 -31 -172 -63 -340 -78 -355 -352
-361 l-118 -2 5 -26 c4 -24 4 -24 -7 3 l-11 27 -553 0 c-514 -1 -553 -2 -553
-18 0 -11 -3 -13 -8 -6 -11 17 -70 23 -76 8 -3 -7 -8 -41 -12 -76 -3 -35 -11
-70 -16 -78 -10 -15 -5 65 8 128 9 45 -12 41 -26 -5 -19 -63 -20 -66 -24 -62
-2 2 -1 25 3 51 10 61 6 62 -154 53 -112 -6 -124 -9 -133 -28 l-11 -22 0 23
c-1 23 -15 30 -26 12 -9 -15 -25 -12 -25 4 0 11 -19 16 -72 19 -101 6 -128 15
-165 55 -38 40 -49 84 -34 137 7 26 7 43 0 51 -6 8 -3 28 11 64 11 28 29 111
40 183 11 73 24 157 30 187 11 55 19 109 26 165 2 17 8 57 13 90 5 33 8 128 7
210 -3 131 -6 160 -29 225 -38 113 -102 214 -193 307 -45 45 -105 112 -135
148 -47 57 -58 65 -82 62 -30 -4 -46 13 -46 49 -1 37 -4 53 -11 49 -10 -6 -62
95 -56 110 3 9 -6 19 -25 27 -32 14 -36 23 -15 31 12 5 10 15 -9 54 -54 109
-121 280 -135 343 -23 107 -54 206 -66 216 -18 15 -18 34 1 34 22 0 18 27 -5
33 -23 6 -27 37 -6 37 10 0 13 7 10 23 -9 37 -21 342 -14 347 12 9 12 110 1
110 -6 0 -11 7 -11 16 0 8 4 13 9 9 5 -3 12 -2 15 3 5 8 23 107 31 172 3 26
39 130 95 280 18 47 39 105 48 130 9 25 24 51 34 58 13 9 16 21 11 42 -4 25
-2 30 14 30 11 0 24 11 31 28 6 15 43 70 82 122 39 52 76 107 83 123 6 15 14
27 17 27 3 0 57 49 120 110 63 60 118 110 122 110 20 0 78 64 78 85 0 22 26
43 32 25 4 -11 70 12 104 36 28 20 47 32 77 50 15 8 16 15 8 37 -12 32 3 46
19 17 15 -28 29 -26 120 20 l80 40 -15 30 c-14 26 -12 80 2 80 8 0 43 -44 53
-67 10 -23 40 -22 61 3 6 8 22 14 35 14 21 0 24 5 24 35 0 41 12 45 28 10 8
-17 20 -25 36 -25 30 0 46 25 47 72 1 31 2 30 10 -11 5 -24 10 -46 12 -48 3
-2 25 2 51 9 37 10 46 16 46 34 0 33 18 39 26 8 l7 -26 101 8 c55 4 165 7 242
5 137 -2 142 -1 147 20 6 22 27 18 27 -6 0 -8 14 -16 33 -19 17 -3 66 -10 109
-16 72 -11 217 -49 322 -86 38 -13 50 -14 56 -4 10 16 31 4 24 -13 -3 -8 17
-22 53 -37 32 -13 108 -49 169 -80 97 -48 113 -54 122 -40 9 12 11 11 11 -10
1 -32 94 -104 123 -96 14 3 18 0 14 -9 -3 -9 41 -55 119 -125 68 -61 134 -123
148 -139 13 -16 33 -34 46 -40 12 -7 19 -16 16 -21 -3 -4 2 -16 11 -24 8 -9
12 -16 9 -16 -4 0 7 -15 25 -32 17 -18 50 -64 72 -101 31 -54 44 -68 59 -64
14 4 19 0 19 -14 0 -62 57 -84 238 -92 6 0 12 -3 12 -7 0 -3 27 -7 60 -8 33 0
68 -6 79 -12 14 -7 28 -7 47 1 16 5 40 9 54 8 63 -3 70 0 70 31 0 26 5 31 39
40 43 11 73 45 85 94 l7 28 -46 -6 c-25 -4 -45 -3 -45 2 0 9 66 32 94 32 16 0
43 23 75 63 8 10 22 41 31 70 13 40 25 58 54 77 21 13 32 26 25 29 -8 2 -3 11
12 23 l24 20 -30 -5 c-16 -3 -39 -8 -50 -11 -11 -4 12 10 50 29 39 20 62 33
51 30 -60 -18 -107 -27 -112 -22 -7 7 50 37 70 37 8 0 27 5 41 12 24 11 25 13
25 116 0 95 -2 104 -17 98 -17 -6 -17 -5 0 8 16 12 17 30 15 160 l-3 146 -75
-50 c-41 -28 -79 -57 -85 -64 -21 -26 -140 -116 -154 -116 -10 0 -8 7 9 25 13
14 28 25 35 25 6 0 26 14 45 31 23 20 28 28 15 24 -17 -5 -17 -3 4 19 26 28
52 37 31 11 -11 -13 -10 -14 4 -9 9 3 16 11 16 18 0 6 36 34 80 61 113 71 110
85 -21 85 l-101 0 -76 -70 c-43 -38 -81 -70 -87 -70 -5 0 20 29 58 63 37 35
67 66 67 70 0 4 -44 7 -99 7 -94 0 -100 -1 -136 -30 -44 -35 -64 -30 -22 6
l28 24 -230 0 c-222 0 -231 -1 -231 -19 0 -21 -17 -37 -28 -27 -3 4 -1 16 6
26 12 19 9 20 -66 20 -43 0 -82 -4 -87 -9 -6 -5 -21 -12 -35 -16 -22 -7 -23
-6 -11 8 12 15 -23 16 -423 17 -426 0 -436 0 -436 -19 0 -11 -5 -23 -11 -27
-8 -5 -10 1 -7 20 l5 26 -108 0 c-76 0 -109 -4 -112 -12 -4 -10 -6 -10 -6 0
-1 9 -43 12 -175 12 -130 0 -176 -3 -179 -12 -4 -10 -6 -10 -6 0 -1 9 -61 12
-266 12 -258 0 -265 -1 -265 -20 0 -11 -2 -20 -5 -20 -3 0 -14 9 -25 20 -18
18 -33 20 -149 20 -94 0 -131 -3 -134 -12 -4 -10 -6 -10 -6 0 -1 6 -7 12 -15
12 -8 0 -17 -6 -19 -12 -4 -10 -6 -10 -6 0 -1 9 -55 12 -235 12 l-234 0 6 -22
c3 -14 2 -19 -6 -14 -7 4 -12 14 -12 22 0 12 -27 14 -160 14 -173 0 -182 -3
-139 -51 22 -25 22 -26 2 31 -3 8 2 5 12 -8 9 -12 15 -28 12 -35 -2 -6 5 -24
15 -39 11 -16 17 -28 14 -28 -10 0 -57 56 -78 93 l-22 37 -340 0 c-264 0 -337
-3 -328 -12 22 -22 12 -32 -11 -10 -20 19 -35 22 -110 22 -48 0 -87 -3 -87 -6
0 -4 24 -29 53 -57 59 -56 37 -44 -37 20 -47 42 -50 43 -120 43 l-71 0 66 -65
c74 -72 75 -89 1 -22 -107 98 -132 108 -132 50z"/>
<path d="M2535 5282 c-11 -2 -23 -9 -27 -16 -5 -8 -11 -7 -20 2 -13 13 -60 16
-72 5 -3 -4 -17 -8 -29 -10 -12 -1 -40 -8 -62 -14 -117 -32 -151 -42 -165 -49
-9 -4 -36 -11 -60 -15 -25 -4 -76 -22 -115 -40 -38 -17 -101 -45 -138 -61 -47
-20 -72 -37 -80 -54 -15 -35 -15 -34 -33 -19 -14 11 -18 11 -28 -1 -12 -16
-97 -74 -108 -75 -9 0 -206 -166 -240 -202 -14 -16 -28 -37 -30 -48 -2 -10
-14 -22 -27 -25 -13 -3 -25 -13 -27 -23 -1 -9 -21 -38 -43 -63 -23 -26 -41
-51 -41 -57 0 -6 -7 -19 -17 -29 -15 -17 -15 -19 1 -37 19 -21 8 -36 -28 -36
-13 0 -34 -21 -60 -59 -31 -45 -41 -69 -42 -105 -1 -30 -7 -46 -16 -47 -7 -1
-18 -2 -24 -3 -7 0 -14 -11 -17 -23 -3 -13 -15 -48 -27 -78 -73 -181 -136
-542 -100 -565 15 -10 12 -35 -5 -35 -13 0 -15 -21 -15 -132 0 -159 7 -208 28
-208 13 0 13 -2 -1 -18 -15 -16 -15 -24 -1 -85 9 -37 20 -67 25 -67 6 0 8 -8
4 -19 -3 -11 0 -21 9 -24 8 -3 12 -14 10 -24 -12 -44 112 -345 180 -438 12
-16 27 -41 34 -55 20 -38 34 -55 64 -74 20 -13 28 -15 28 -6 0 7 11 28 25 46
14 18 29 44 35 58 12 34 -5 125 -36 191 -53 112 -112 274 -123 340 -7 38 -15
74 -19 79 -4 6 -7 20 -8 31 0 11 -6 57 -13 102 -25 158 0 501 48 663 50 167
174 432 234 497 9 11 17 25 17 31 0 6 6 15 13 19 6 4 25 26 42 48 56 77 216
221 310 280 33 21 62 41 65 44 3 3 21 14 40 24 86 43 111 61 105 75 -4 12 -2
12 8 3 11 -9 17 -8 27 4 7 8 19 15 27 15 7 0 35 11 61 24 26 13 91 39 145 57
57 19 97 38 97 46 0 7 5 13 10 13 6 0 10 -9 10 -19 0 -17 4 -18 39 -10 21 5
51 13 67 19 51 20 354 33 461 21 117 -14 393 -79 393 -93 0 -6 8 -7 17 -4 9 4
19 3 22 -2 3 -5 67 -41 141 -79 132 -68 158 -84 250 -151 29 -22 53 -32 67
-29 19 4 23 0 23 -23 0 -21 12 -38 49 -69 27 -23 56 -41 65 -41 9 0 16 -8 16
-17 0 -28 89 -123 115 -123 18 0 22 -6 23 -32 0 -17 8 -35 16 -40 9 -5 16 -14
16 -19 0 -17 59 -98 109 -148 63 -66 96 -77 128 -45 8 8 23 19 33 24 22 12 35
68 25 107 -5 21 -8 24 -16 12 -5 -8 -9 -9 -9 -2 0 6 -10 24 -23 40 -13 15 -24
41 -25 58 -1 17 -15 42 -32 60 -17 17 -30 36 -30 43 0 20 -52 92 -61 86 -5 -3
-9 6 -9 20 0 27 -15 43 -25 26 -7 -11 -55 -14 -55 -3 0 3 7 14 15 23 14 15 12
20 -15 49 -17 17 -35 29 -40 26 -6 -4 -10 2 -10 13 0 22 -82 102 -105 102 -8
0 -17 6 -19 13 -16 52 -15 51 -36 32 -20 -18 -23 -15 -21 21 1 13 -8 25 -26
34 -15 8 -44 27 -64 42 -20 15 -42 28 -48 28 -6 0 -38 18 -71 41 -33 22 -72
42 -87 43 -15 2 -29 8 -31 15 -2 6 -25 22 -51 36 l-48 24 -21 -22 c-25 -24
-38 -18 -23 12 10 18 7 21 -36 33 -27 8 -49 10 -51 6 -7 -16 -32 -7 -32 12 0
12 -8 22 -22 25 -13 3 -70 16 -128 29 -109 25 -130 23 -130 -15 0 -10 -4 -21
-10 -24 -6 -4 -10 8 -10 28 l0 35 -66 11 c-61 11 -365 13 -409 3z"/>
<path d="M2530 4960 c-8 -5 -32 -15 -53 -20 -20 -6 -53 -20 -72 -31 -28 -17
-35 -27 -35 -52 0 -25 11 -42 57 -84 31 -29 61 -53 65 -53 5 0 30 -20 56 -44
63 -58 87 -69 145 -67 l49 1 -7 -49 -7 -49 59 -13 c32 -7 65 -17 73 -24 8 -6
28 -17 44 -25 41 -21 153 -165 176 -227 16 -44 18 -61 10 -103 -5 -28 -17 -61
-25 -73 -18 -25 -20 -64 -3 -69 6 -2 9 -10 6 -18 -3 -11 -7 -11 -18 2 -12 13
-16 13 -32 -1 -10 -8 -18 -22 -18 -30 0 -8 -7 -22 -15 -31 -11 -12 -13 -29 -9
-63 4 -26 10 -47 14 -47 3 0 36 27 71 60 35 33 70 60 77 60 7 0 11 4 7 10 -3
5 7 17 22 27 15 10 31 23 36 29 4 7 22 16 40 20 17 3 37 15 44 24 19 27 318
140 371 140 13 0 45 7 72 16 44 14 56 14 145 -1 54 -9 103 -14 110 -11 8 3 15
0 17 -5 4 -13 58 -1 58 12 0 5 -4 9 -10 9 -5 0 -10 11 -10 26 0 19 -7 28 -30
35 -35 13 -38 25 -10 34 19 6 19 7 -3 38 -12 18 -24 34 -28 37 -3 3 -16 23
-29 45 -43 70 -43 70 -96 15 -26 -28 -50 -48 -53 -45 -2 3 14 25 37 48 23 24
42 47 42 53 0 6 -22 35 -50 64 -27 29 -50 57 -50 62 0 4 -4 8 -10 8 -5 0 -10
-9 -10 -20 0 -13 -7 -20 -20 -20 -21 0 -26 16 -11 39 11 18 3 41 -14 41 -8 0
-32 -21 -56 -47 l-42 -48 27 48 27 48 -28 28 c-15 16 -50 41 -78 56 -27 16
-55 34 -60 41 -16 18 -164 86 -178 81 -7 -2 -17 3 -22 10 -6 8 -30 19 -54 24
-36 8 -47 7 -62 -7 -18 -16 -19 -16 -19 8 0 27 -16 38 -55 38 -24 0 -35 -17
-35 -53 0 -12 -5 -29 -11 -37 -7 -11 -9 0 -4 41 l6 55 -55 17 c-56 18 -287 31
-334 20 -22 -5 -23 -9 -18 -52 5 -44 5 -44 -7 -16 -6 17 -16 37 -22 47 -12 20
-74 32 -95 18z"/>
<path d="M2172 4854 c-6 -11 -17 -15 -31 -11 -34 9 -91 -12 -102 -37 -7 -15
-19 -23 -37 -23 -32 0 -100 -41 -108 -65 -3 -11 -14 -17 -27 -16 -26 2 -77
-29 -77 -47 0 -6 -17 -20 -38 -29 -34 -15 -145 -118 -166 -154 -5 -8 6 -29 29
-57 46 -57 33 -59 -16 -2 l-38 42 -40 -45 c-22 -25 -41 -49 -41 -54 0 -5 -8
-14 -17 -21 -15 -11 -15 -15 -4 -29 18 -22 8 -31 -12 -11 -14 14 -19 11 -44
-32 -15 -27 -26 -54 -25 -61 2 -7 -8 -22 -21 -32 -34 -27 -39 -54 -13 -76 l21
-19 -32 -3 c-33 -3 -38 -12 -33 -56 1 -14 -3 -17 -14 -13 -19 8 -39 -33 -30
-58 4 -8 -1 -26 -9 -39 -14 -21 -14 -25 1 -40 15 -15 14 -16 -11 -16 -23 0
-27 -4 -27 -29 0 -17 -4 -33 -10 -36 -19 -11 -10 -25 25 -39 46 -20 44 -28 -3
-20 l-39 6 -12 -83 c-6 -46 -12 -124 -13 -174 l-1 -90 41 -9 c54 -11 56 -30 2
-21 l-40 7 0 -79 c0 -48 5 -84 12 -91 7 -7 43 -13 83 -14 56 -1 60 -2 20 -5
-108 -7 -107 -5 -73 -131 l23 -84 38 6 c98 16 120 15 52 -2 -50 -12 -71 -22
-73 -35 -6 -29 18 -88 69 -172 27 -44 49 -84 49 -88 0 -15 74 -107 86 -107 7
0 14 -5 16 -10 2 -7 26 -7 75 2 39 6 70 15 67 20 -3 4 4 8 16 8 12 0 18 5 15
10 -3 6 4 10 17 10 13 0 29 9 36 20 7 11 17 20 23 20 5 0 24 13 42 30 18 16
35 30 40 30 4 0 7 6 7 14 0 8 6 16 14 19 16 6 39 67 25 67 -5 0 -9 15 -9 33 0
19 -17 66 -40 111 -33 64 -40 87 -40 135 0 67 30 134 167 371 11 19 40 69 64
110 24 41 47 77 51 78 4 2 8 7 8 11 0 8 65 128 125 231 21 36 51 90 68 120 16
30 44 80 62 110 18 30 45 80 61 110 16 30 31 57 34 60 14 13 30 64 30 94 0 19
7 39 15 46 8 7 15 20 15 29 0 11 -3 12 -8 4 -4 -7 -8 11 -7 40 0 43 -3 54 -21
61 -11 5 -28 22 -37 38 -19 33 -53 37 -62 8 -4 -11 -11 -18 -16 -15 -12 8 -12
45 0 45 11 0 0 42 -23 85 -9 17 -16 51 -16 76 0 50 -9 62 -52 73 -19 4 -30 2
-36 -10z"/>
<path d="M2845 4285 c-50 -106 -48 -115 21 -115 34 0 53 -4 49 -10 -3 -5 -31
-10 -61 -10 -56 0 -73 -15 -29 -26 14 -3 22 -11 19 -16 -4 -6 0 -14 7 -19 11
-7 9 -9 -6 -9 -11 0 -31 -7 -45 -15 l-25 -15 22 -6 c21 -6 21 -7 6 -30 -14
-22 -14 -24 1 -30 17 -6 18 -34 2 -45 -17 -13 3 -41 26 -37 13 2 22 8 21 13 0
6 5 16 13 23 11 10 14 10 14 0 1 -7 8 -1 16 15 8 15 19 27 24 27 5 0 19 21 31
48 13 26 29 54 36 63 7 8 16 37 19 63 6 43 5 48 -15 53 -15 4 -20 11 -16 24 7
20 -18 84 -42 111 -31 35 -50 22 -88 -57z"/>
<path d="M2505 4291 c3 -5 -3 -12 -14 -16 -13 -4 -17 -12 -14 -24 5 -19 -28
-47 -39 -35 -3 3 -8 -7 -12 -21 -3 -13 -20 -44 -36 -67 -16 -24 -31 -54 -32
-68 -2 -14 -12 -30 -23 -35 -14 -8 -85 -125 -85 -142 0 -2 61 -3 136 -3 87 0
133 4 129 10 -3 6 -18 10 -33 11 l-27 1 30 10 c39 14 40 15 28 30 -6 7 -14 23
-17 36 -11 32 12 28 25 -5 9 -24 12 -26 20 -11 15 27 24 143 11 134 -7 -4 -12
-1 -12 8 0 9 4 16 9 16 8 0 31 105 31 142 0 8 -11 20 -25 26 -31 14 -58 16
-50 3z"/>
<path d="M3785 3996 c-4 -20 -3 -42 3 -49 5 -6 24 -40 41 -74 24 -47 33 -80
38 -143 l6 -81 -58 -117 c-33 -64 -62 -119 -65 -122 -10 -7 -80 -119 -80 -127
0 -3 -10 -20 -23 -37 -13 -17 -43 -69 -67 -116 -23 -47 -46 -87 -50 -90 -3 -3
-21 -34 -39 -70 -18 -36 -57 -103 -85 -150 -29 -47 -66 -110 -82 -140 -16 -30
-39 -71 -52 -90 -13 -19 -37 -61 -53 -95 -39 -77 -80 -135 -123 -173 -41 -36
-105 -47 -221 -40 -124 8 -182 49 -273 193 -54 86 -57 93 -57 155 0 57 5 75
45 153 41 81 43 89 28 98 -10 6 -18 18 -18 28 0 18 -30 52 -30 35 0 -5 -4 -4
-8 3 -13 20 -101 -9 -134 -46 -24 -27 -27 -37 -22 -72 l7 -40 -35 6 c-22 4
-38 3 -42 -4 -7 -10 -87 -51 -101 -51 -4 0 -21 -6 -38 -14 -37 -16 -104 -30
-130 -27 -24 3 -117 -28 -117 -40 0 -10 -61 -44 -72 -41 -5 1 -8 -2 -8 -8 0
-5 -8 -10 -19 -10 -10 0 -24 -7 -31 -15 -14 -16 -165 -95 -184 -95 -19 -1 -48
-49 -41 -69 3 -11 1 -22 -4 -25 -12 -8 -6 -42 11 -61 7 -8 18 -20 23 -27 6 -7
39 -48 73 -91 35 -43 74 -98 88 -123 14 -24 35 -60 48 -78 12 -19 28 -49 35
-67 7 -19 22 -55 32 -81 10 -26 19 -53 19 -61 0 -8 7 -20 15 -27 12 -10 20 -9
42 5 l27 18 -21 -35 c-18 -31 -20 -47 -16 -122 4 -54 10 -86 17 -85 26 3 35
-2 30 -16 -4 -8 -11 -15 -18 -15 -7 0 -12 -44 -14 -143 -2 -78 -9 -191 -17
-252 -8 -60 -14 -128 -14 -150 1 -22 -8 -83 -19 -135 -19 -83 -20 -96 -7 -110
37 -41 505 -55 527 -16 15 26 31 19 24 -11 -3 -16 -3 -22 0 -15 4 9 40 12 130
12 68 0 125 1 125 3 1 1 5 61 8 132 l8 130 1 -128 c2 -123 3 -128 25 -136 13
-5 31 -4 45 2 16 8 26 7 34 -1 21 -21 226 -13 213 9 -3 4 -1 10 4 13 5 3 11
-1 15 -9 4 -12 28 -15 126 -15 l120 0 26 42 c22 35 25 48 20 87 -4 27 -14 52
-25 61 -21 16 -38 60 -24 60 5 0 14 -5 21 -12 19 -19 14 -1 -10 37 -17 25 -30
35 -50 35 -32 0 -43 14 -25 32 12 10 7 17 -30 40 -24 15 -48 28 -53 28 -6 0
-18 4 -28 9 -9 5 -39 16 -67 24 -27 9 -88 29 -135 45 -169 58 -181 61 -187 46
-8 -21 -23 -17 -23 6 0 11 -8 23 -17 26 -96 31 -189 84 -249 142 -28 26 -54
42 -69 42 -22 0 -24 3 -19 33 5 30 5 31 -10 13 -9 -11 -16 -26 -16 -33 0 -7
-5 -13 -10 -13 -9 0 -8 20 6 72 3 9 -4 31 -14 50 -45 80 -64 154 -60 229 4 70
5 73 46 109 51 46 112 58 164 33 34 -16 108 -81 108 -95 0 -4 18 -33 41 -65
35 -50 45 -58 72 -58 28 0 32 -4 35 -28 2 -19 11 -31 29 -38 14 -5 28 -7 31
-4 3 3 16 -2 29 -11 13 -8 39 -16 56 -17 18 -2 37 -5 42 -8 6 -4 24 -9 40 -13
17 -4 75 -21 130 -37 55 -17 138 -42 185 -56 47 -14 94 -29 105 -33 51 -20 86
-30 155 -45 41 -9 103 -23 138 -32 115 -28 323 -22 347 11 6 8 24 16 39 18 45
5 49 35 16 102 -31 60 -25 75 10 26 12 -17 25 -30 30 -30 13 0 -6 46 -30 78
-30 37 -24 50 8 19 46 -45 56 -29 23 36 -19 38 -14 50 10 20 12 -14 15 -12 22
23 16 86 29 182 31 229 2 46 -2 54 -39 94 l-40 44 46 -27 c58 -33 66 -33 39 1
-16 21 -18 29 -8 32 22 7 28 24 21 64 -3 21 -1 37 4 37 10 0 33 86 33 125 0
13 -12 36 -27 51 l-28 26 35 -17 c33 -17 35 -17 45 0 13 22 62 75 70 75 3 0
42 18 86 40 43 21 79 37 79 35 0 -5 30 19 56 43 8 7 14 26 14 41 0 38 -27 100
-46 108 -11 4 -12 9 -3 19 9 11 7 15 -7 20 -35 13 -45 25 -33 40 6 8 8 14 3
14 -4 0 1 6 11 14 18 13 17 14 -13 21 -32 7 -42 20 -20 27 9 3 9 13 -2 39 -18
46 -84 199 -120 279 -16 36 -34 84 -40 106 -7 28 -17 43 -30 47 -23 6 -27 35
-6 43 8 3 12 13 9 24 -4 13 -16 20 -41 22 -26 2 -38 8 -40 21 -3 14 4 17 32
17 l36 0 -4 101 c-3 83 -7 103 -22 114 -14 10 -16 16 -7 27 15 17 6 55 -13 62
-8 3 -11 12 -8 21 5 13 2 15 -20 9 -16 -4 -26 -2 -26 5 0 6 6 11 14 11 23 0
29 33 10 47 -10 7 -14 13 -10 13 5 0 3 7 -4 15 -7 8 -16 13 -20 10 -5 -3 -11
-1 -15 5 -3 5 -22 10 -42 10 -26 0 -34 4 -30 14 5 13 0 13 -36 0 l-41 -15 24
26 c13 14 21 27 19 29 -5 5 -66 20 -149 35 -30 6 -65 13 -77 17 -19 5 -23 1
-28 -30z"/>
<path d="M4456 4021 c-4 -5 0 -12 6 -15 7 -3 2 -3 -12 0 -45 9 -110 -78 -110
-145 0 -49 19 -153 31 -168 7 -7 5 -13 -3 -15 -18 -6 -12 -137 8 -159 18 -20
18 -27 -2 -47 -33 -32 -13 -102 88 -320 21 -45 38 -85 38 -89 0 -3 14 -38 31
-77 17 -39 40 -93 51 -121 22 -54 63 -144 84 -186 25 -48 27 -120 5 -162 l-19
-38 24 -9 c13 -5 24 -14 24 -20 0 -15 -42 -2 -57 18 -7 9 -13 11 -13 5 0 -6
-22 -16 -50 -23 -27 -7 -50 -16 -50 -20 0 -5 -12 -10 -27 -12 -19 -2 -29 -10
-31 -23 -6 -31 -22 -43 -33 -23 -11 21 -40 14 -69 -17 -23 -25 -51 -148 -70
-305 -5 -41 -14 -115 -21 -164 -9 -67 -9 -93 -1 -107 16 -24 15 -29 -3 -29
-17 0 -23 -22 -29 -110 -4 -65 -36 -175 -63 -217 -8 -12 -14 -25 -13 -29 2
-10 -97 -64 -125 -68 -5 -1 -14 -4 -20 -8 -8 -4 -83 -12 -225 -23 -14 -1 -28
2 -31 7 -4 6 -49 18 -101 28 -52 11 -114 26 -139 34 -24 8 -60 17 -79 21 -19
4 -89 24 -155 45 -101 32 -258 78 -416 120 -21 6 -44 7 -53 4 -11 -4 -16 -1
-16 10 0 15 -33 28 -92 35 -9 1 -140 137 -151 158 -6 10 -13 20 -16 23 -3 3
-13 18 -21 34 -24 47 -62 70 -104 62 -20 -4 -35 -10 -34 -14 1 -4 -4 -20 -10
-35 -14 -33 -16 -74 -3 -81 4 -3 14 -33 21 -67 7 -34 24 -74 37 -89 12 -15 23
-33 23 -38 0 -22 119 -128 171 -153 102 -50 219 -84 219 -65 0 6 7 2 15 -8 11
-15 28 -20 62 -20 27 -1 53 -6 58 -12 6 -6 26 -17 45 -23 28 -9 35 -9 42 4 13
23 28 18 28 -9 0 -20 8 -25 48 -36 26 -7 51 -17 57 -21 15 -15 25 -10 25 11 0
11 5 20 11 20 7 0 9 -10 7 -25 -4 -20 -1 -26 19 -31 14 -4 58 -39 98 -78 67
-65 75 -77 95 -144 19 -62 22 -90 18 -178 -4 -87 -8 -110 -26 -134 -12 -16
-22 -34 -22 -40 0 -13 -13 -13 -27 1 -8 8 -64 9 -198 4 l-187 -7 -10 -29 c-13
-39 -32 -38 -24 1 7 36 -11 41 -20 5 -7 -28 -19 -32 -28 -9 -9 22 -8 24 9 24
8 0 15 5 15 10 0 13 -232 1 -241 -13 -4 -5 -16 -4 -30 4 -19 10 -114 12 -436
11 -234 -1 -413 2 -413 7 0 4 -16 19 -35 32 -41 28 -42 36 -13 92 12 23 25 62
29 87 4 25 13 76 20 113 9 50 9 71 1 79 -8 8 -14 4 -23 -18 -9 -22 -13 -25
-16 -11 -3 10 8 30 26 48 17 17 31 36 32 42 0 17 7 85 20 210 6 59 8 125 4
146 -4 22 -7 70 -7 108 -1 58 -3 64 -11 41 -12 -30 -37 -46 -37 -23 0 8 4 15
9 15 5 0 11 12 13 28 2 15 8 26 14 25 17 -3 -10 103 -57 220 -22 56 -45 104
-50 105 -5 2 -9 9 -9 16 0 11 -45 76 -105 151 -55 69 -145 154 -181 171 -21
10 -45 26 -52 37 -9 11 -23 17 -40 15 -22 -2 -26 -8 -24 -26 1 -13 -2 -31 -8
-40 -7 -13 -9 -10 -10 18 l0 35 -25 -30 c-24 -30 -34 -85 -15 -85 6 0 10 -4
10 -10 0 -5 30 -49 68 -96 88 -113 112 -145 168 -229 27 -38 52 -73 56 -76 5
-3 10 -19 12 -36 2 -17 11 -44 20 -61 9 -17 15 -35 14 -39 -1 -4 4 -32 10 -61
7 -29 12 -73 12 -97 0 -33 4 -45 15 -45 19 0 19 -17 2 -51 -19 -36 -32 -236
-15 -241 16 -6 -9 -68 -25 -65 -16 3 -21 -41 -7 -58 13 -15 0 -50 -22 -57 -8
-3 -6 -14 7 -36 18 -30 18 -32 0 -52 -20 -22 -48 -123 -47 -170 0 -14 -4 -31
-10 -37 -6 -7 -8 -20 -4 -28 3 -8 0 -15 -6 -15 -7 0 -9 -16 -5 -49 4 -37 2
-53 -9 -61 -15 -13 -19 -52 -7 -64 4 -4 14 8 23 25 16 35 40 50 40 26 0 -8 -8
-25 -18 -38 -25 -33 -33 -57 -21 -65 6 -3 16 -1 22 5 19 19 27 12 27 -25 0
-31 2 -35 15 -24 8 6 17 22 21 33 9 31 56 109 61 103 3 -2 -5 -26 -16 -51 -12
-26 -21 -58 -21 -71 0 -21 5 -24 34 -24 19 0 38 5 41 10 4 7 12 7 18 2 7 -5
38 -9 69 -10 57 -2 58 -2 72 33 8 19 22 35 31 35 14 0 14 -3 0 -30 -20 -39
-20 -40 14 -40 42 0 61 9 61 30 0 10 7 21 16 24 14 5 16 1 11 -29 -6 -39 -4
-41 37 -20 22 12 32 12 42 4 11 -9 18 -8 29 1 12 10 21 10 41 1 20 -9 30 -9
41 1 9 7 17 8 21 2 12 -17 52 -12 52 6 0 10 6 23 14 29 11 9 15 7 19 -9 6 -24
29 -26 62 -4 23 15 24 15 30 -8 6 -24 8 -24 137 -26 137 -3 157 3 159 42 1 15
3 12 8 -9 l6 -30 149 -3 c113 -2 151 1 158 10 5 8 8 9 8 2 0 -8 80 -11 278
-10 254 2 280 3 317 21 31 15 43 29 53 59 22 67 84 449 79 488 -4 28 -2 35 9
31 9 -3 14 2 14 14 0 42 79 83 162 83 68 1 141 15 146 29 2 7 9 7 22 -1 30
-19 159 49 227 119 58 62 71 84 84 148 4 22 13 61 20 88 12 44 11 49 -9 70
-12 13 -22 28 -22 34 0 6 -12 25 -26 42 -29 35 -25 42 6 9 11 -12 20 -18 20
-14 0 4 10 -2 22 -14 27 -24 29 -22 35 32 2 24 9 77 15 118 6 41 14 102 18
135 5 33 11 76 15 95 3 19 10 61 15 94 13 82 39 127 88 152 22 11 48 26 56 33
9 8 33 15 55 16 21 2 47 8 57 13 11 6 34 16 51 22 20 8 44 30 63 58 28 42 30
52 29 131 -1 118 -6 131 -62 160 -26 14 -47 29 -47 33 0 13 18 9 34 -8 40 -40
45 42 5 97 -10 14 -16 28 -14 31 5 4 -9 39 -50 133 -7 17 -39 91 -70 165 -31
74 -67 154 -80 178 -14 24 -28 60 -32 80 -4 20 -8 40 -9 45 -1 4 -2 14 -3 22
0 8 -8 15 -16 15 -8 0 -15 7 -15 16 0 9 5 12 12 8 8 -5 9 9 5 56 -4 35 -7 76
-7 91 0 19 -5 29 -15 29 -16 0 -21 25 -6 34 4 3 9 28 10 56 l1 51 -38 -6 c-34
-6 -36 -5 -18 9 10 8 24 17 30 19 8 3 7 22 -2 67 -22 106 -74 187 -96 151z"/>
<path d="M3563 3951 c-18 -8 -33 -20 -33 -27 0 -7 -10 -20 -22 -28 -12 -9 -18
-16 -13 -16 6 0 3 -5 -5 -10 -12 -8 -11 -10 7 -10 29 0 40 -20 20 -35 -14 -10
-14 -15 3 -52 20 -45 29 -48 149 -52 92 -3 121 9 121 51 0 39 -21 76 -79 140
-48 52 -92 64 -148 39z"/>
<path d="M2232 3858 c-6 -6 -12 -16 -12 -21 0 -5 -10 -22 -21 -39 -12 -17 -22
-44 -21 -60 0 -22 -5 -32 -18 -35 -16 -4 -100 -122 -100 -139 0 -3 -18 -32
-40 -65 -22 -33 -40 -62 -40 -64 0 -2 -18 -35 -40 -74 -22 -39 -40 -75 -40
-80 0 -10 -35 -66 -65 -106 -17 -22 -18 -34 -5 -55 7 -12 32 -14 131 -12 112
3 125 5 143 25 27 29 76 124 68 131 -3 3 -24 6 -46 7 -78 1 -86 18 -9 18 72 1
72 1 98 38 14 21 25 41 25 45 0 5 -22 8 -49 8 -28 0 -53 5 -56 10 -4 6 11 10
39 10 58 0 102 26 98 57 -2 13 9 46 24 74 26 47 27 52 12 63 -15 11 -13 13 13
23 24 9 30 17 27 35 -2 15 2 23 12 24 41 3 43 4 31 17 -12 15 -5 27 16 27 19
0 36 19 52 57 7 18 17 30 22 27 5 -3 9 -1 9 5 0 14 -22 26 -42 23 -10 -2 -18
2 -18 7 0 6 19 11 42 11 23 0 39 2 36 5 -2 3 -63 7 -134 10 -95 4 -133 2 -142
-7z"/>
<path d="M3360 3810 c-61 -6 -56 -9 22 -15 9 0 20 -3 23 -7 10 -9 -64 -20 -96
-13 -26 6 -29 4 -29 -18 0 -30 -10 -40 -27 -26 -10 9 -13 8 -13 -1 0 -8 -7
-21 -16 -31 -14 -15 -11 -25 31 -107 50 -97 59 -108 90 -114 14 -2 21 3 23 20
2 12 9 22 15 23 7 0 -4 6 -23 13 l-35 13 43 7 c23 4 42 12 42 16 0 5 -19 10
-42 12 -37 3 -43 6 -44 26 -1 12 3 22 7 22 5 0 9 -4 9 -10 0 -5 18 -14 40 -20
37 -10 43 -9 60 12 11 13 28 40 39 61 l19 39 -28 51 c-15 28 -32 52 -37 52 -4
1 -37 -2 -73 -5z"/>
<path d="M3530 3660 c-26 -26 -75 -103 -125 -195 -53 -98 -49 -95 -123 -95
-72 0 -142 -17 -142 -35 0 -6 5 -16 11 -22 9 -9 2 -21 -26 -48 -36 -33 -40
-34 -59 -20 -12 8 -31 20 -44 25 -24 10 -22 30 4 30 8 0 14 3 14 8 0 15 -16
28 -58 46 -38 17 -50 18 -120 8 -42 -7 -92 -12 -110 -12 -35 0 -81 -20 -100
-43 -21 -25 -19 -102 2 -126 12 -13 14 -21 7 -21 -7 0 -9 -5 -5 -11 5 -8 40
-10 111 -7 57 3 106 1 109 -4 3 -5 -5 -17 -17 -27 -20 -16 -21 -21 -10 -35 7
-9 27 -16 43 -16 25 0 29 3 25 20 -3 11 -1 22 3 25 5 3 7 25 4 48 -5 40 -3 43
32 60 33 16 38 17 46 3 7 -12 14 -13 33 -6 17 7 28 5 38 -5 8 -7 22 -13 33
-12 11 1 20 -6 22 -17 3 -15 -1 -18 -20 -14 -19 4 -23 0 -25 -24 -1 -18 3 -31
12 -35 17 -6 20 -43 4 -43 -13 0 -33 -20 -42 -43 -8 -22 -54 -40 -87 -34 -14
3 -33 1 -43 -5 -12 -6 -29 -6 -49 1 -28 10 -33 8 -63 -22 -32 -31 -169 -231
-182 -264 -6 -14 1 -15 55 -10 38 4 62 3 62 -3 0 -6 -31 -10 -71 -10 l-71 0 7
-52 c4 -29 11 -59 15 -68 4 -8 14 -28 21 -44 20 -43 66 -88 85 -84 17 3 106
137 119 179 5 14 2 24 -6 30 -7 4 -10 11 -6 15 3 4 13 2 20 -5 12 -9 30 15 98
131 46 78 92 160 101 182 9 23 17 37 18 31 0 -5 14 13 30 41 37 63 57 83 65
62 3 -8 -18 -54 -46 -104 -29 -49 -82 -141 -119 -204 -36 -63 -90 -152 -119
-198 -28 -46 -66 -110 -82 -143 l-31 -60 24 -19 c25 -21 78 -27 78 -8 0 9 3 9
12 0 12 -12 104 -17 132 -6 9 3 16 12 16 20 0 8 9 14 19 14 13 0 30 18 49 53
17 28 40 70 53 92 12 22 33 62 46 88 13 27 38 70 56 97 40 59 84 135 166 285
18 33 37 65 41 70 4 6 21 35 37 65 17 30 47 84 67 118 20 35 36 68 36 73 0 5
5 9 11 9 6 0 9 8 7 17 -3 14 -12 17 -51 14 -29 -1 -47 2 -47 8 0 7 22 11 54
11 36 0 60 5 70 16 18 18 20 30 6 37 -6 3 -5 4 2 3 21 -5 128 169 128 207 0
25 -49 37 -145 37 -82 0 -98 -3 -115 -20z"/>
<path d="M3160 3620 c0 -11 -5 -20 -11 -20 -5 0 -8 -4 -5 -9 11 -18 -6 -42
-25 -36 -14 5 -19 1 -19 -14 0 -11 5 -23 10 -26 6 -3 10 -15 10 -26 0 -17 3
-18 20 -9 17 9 22 7 30 -15 7 -19 17 -25 39 -25 56 0 61 7 45 51 -7 22 -23 52
-34 66 -11 14 -20 31 -20 37 0 6 -9 19 -20 29 -19 16 -20 16 -20 -3z"/>
<path d="M1827 3054 c-19 -19 -5 -53 28 -73 23 -14 33 -25 29 -36 -10 -26 20
-17 52 16 29 31 64 55 64 44 0 -4 -23 -31 -51 -61 -29 -30 -49 -54 -45 -54 3
0 23 9 43 20 21 11 57 20 81 20 38 0 102 22 102 36 0 2 -6 19 -13 37 -8 18
-15 37 -15 42 -2 11 -264 20 -275 9z"/>
</g>
</svg>
