<?xml version="1.0" standalone="no"?>
<!DOCTYPE svg PUBLIC "-//W3C//DTD SVG 20010904//EN"
 "http://www.w3.org/TR/2001/REC-SVG-20010904/DTD/svg10.dtd">
<svg version="1.0" xmlns="http://www.w3.org/2000/svg"
 width="544.000000pt" height="544.000000pt" viewBox="0 0 544.000000 544.000000"
 preserveAspectRatio="xMidYMid meet">
<metadata>
Created by potrace 1.16, written by Peter Selinger 2001-2019
</metadata>
<g transform="translate(0.000000,544.000000) scale(0.100000,-0.100000)"
fill="#000000" stroke="none">
<path d="M0 5190 c0 -214 2 -251 15 -256 8 -4 15 -11 15 -16 0 -6 -7 -8 -15
-4 -13 4 -14 -130 -15 -1084 l0 -1088 22 4 23 5 -23 -12 -22 -12 1 -726 c0
-526 4 -720 11 -703 6 12 15 22 20 22 4 0 8 6 8 13 0 7 15 28 34 47 18 19 42
53 54 75 20 40 64 85 82 85 6 0 10 5 10 10 0 6 6 10 13 10 18 0 67 24 67 33 0
4 7 7 15 7 8 0 31 11 51 25 20 14 40 23 44 20 9 -6 58 9 117 36 24 10 49 19
57 19 8 0 18 5 21 10 3 6 17 10 30 10 13 0 27 5 30 10 3 6 17 10 31 10 30 0
104 45 104 64 0 8 4 16 8 18 4 2 21 29 36 61 16 31 33 57 38 57 4 0 8 5 8 11
0 6 7 26 16 45 13 27 14 37 4 49 -7 8 -8 20 -3 27 4 7 10 40 13 73 4 53 8 60
28 63 12 2 22 8 22 13 0 5 6 9 13 9 22 0 55 70 59 126 2 19 -24 74 -34 74 -5
0 -8 6 -6 12 3 7 -7 33 -22 58 -29 49 -132 317 -150 390 -26 106 -31 129 -40
200 -6 41 -13 89 -16 105 -3 17 -8 95 -11 175 -11 290 39 553 157 830 17 41
36 82 41 90 5 8 14 25 19 38 5 13 40 69 77 125 37 56 74 114 81 129 8 15 25
39 38 53 13 14 24 29 24 32 0 9 219 222 259 253 69 52 90 72 88 78 -1 4 1 8 6
9 17 6 126 66 187 103 36 22 76 44 90 50 100 44 209 102 214 116 3 8 10 13 15
9 16 -9 31 29 38 95 l6 60 -292 0 c-270 0 -291 -1 -291 -17 -1 -17 -1 -17 -14
0 -11 14 -31 17 -135 17 -87 0 -121 -3 -121 -12 0 -9 -3 -9 -12 0 -9 9 -162
12 -625 12 l-613 0 0 -250z"/>
<path d="M2301 5432 c0 -4 8 -20 18 -37 l18 -30 304 0 c167 0 325 -4 352 -9
45 -8 47 -8 48 15 l1 24 7 -25 c6 -22 17 -27 103 -46 53 -12 119 -29 148 -39
38 -13 55 -14 63 -6 16 16 29 13 25 -6 -3 -14 16 -26 87 -54 124 -50 189 -79
195 -87 3 -4 30 -20 60 -36 50 -27 102 -61 155 -101 137 -104 194 -154 291
-252 63 -63 114 -119 114 -124 0 -24 37 1 63 44 10 15 24 27 32 27 26 0 17
-16 -30 -54 -25 -21 -45 -43 -45 -50 0 -7 11 -23 24 -35 13 -13 46 -56 72 -97
26 -41 50 -74 54 -74 3 0 15 -8 26 -17 25 -23 53 -25 141 -7 40 8 99 14 133
14 47 0 60 3 60 15 0 8 9 15 20 15 11 0 20 -7 20 -15 0 -8 10 -17 23 -19 110
-23 206 -21 270 6 38 17 58 35 97 91 28 39 50 79 50 88 0 10 9 20 19 24 11 3
23 15 26 26 4 10 11 19 17 19 6 0 26 17 44 37 l34 37 0 333 0 334 -22 -12 -23
-12 23 25 c12 13 22 36 22 51 l0 27 -1570 0 c-863 0 -1570 -3 -1569 -8z"/>
<path d="M2532 5279 c-114 -13 -113 -12 -111 -131 l2 -101 64 6 c36 4 72 12
79 18 9 8 18 8 27 1 6 -5 86 -12 177 -15 221 -7 406 -43 540 -104 30 -14 75
-33 100 -43 62 -25 235 -124 295 -169 28 -21 59 -43 70 -48 11 -6 68 -60 126
-120 164 -167 175 -180 188 -210 6 -16 49 -66 96 -111 82 -81 84 -82 134 -82
60 0 81 17 81 67 0 40 -45 134 -102 209 -21 28 -38 54 -38 57 0 14 -50 78 -79
103 -18 14 -38 38 -46 53 -23 44 -199 219 -226 226 -41 9 -59 19 -64 34 -10
32 -208 151 -375 225 -263 117 -635 170 -938 135z"/>
<path d="M2004 5135 c-4 -10 -13 -13 -26 -9 -18 5 -121 -37 -188 -77 -8 -5
-33 -18 -55 -30 -22 -12 -75 -46 -118 -76 -61 -43 -75 -58 -67 -68 8 -10 8
-15 -1 -20 -6 -4 -15 -1 -20 6 -6 11 -16 6 -45 -21 -21 -19 -53 -49 -71 -66
-18 -17 -33 -39 -33 -48 0 -10 -9 -20 -20 -23 -11 -3 -20 -12 -20 -20 0 -8 -4
-12 -9 -9 -5 4 -32 -21 -60 -55 -36 -43 -50 -67 -46 -80 5 -13 1 -19 -10 -19
-19 0 -47 -30 -71 -75 -9 -16 -34 -56 -55 -87 -22 -32 -39 -64 -39 -72 0 -8
-4 -16 -8 -18 -5 -1 -20 -28 -34 -60 -26 -55 -26 -56 -6 -61 11 -3 17 -10 13
-17 -4 -6 -15 -8 -26 -5 -13 4 -21 1 -25 -12 -3 -10 -12 -31 -19 -48 -24 -54
-73 -267 -89 -386 -15 -108 -23 -446 -12 -480 3 -8 8 -34 11 -59 15 -112 26
-159 35 -165 5 -3 11 -24 15 -48 4 -23 17 -69 30 -102 13 -33 29 -78 36 -100
11 -35 28 -72 85 -175 29 -54 112 -130 142 -130 7 0 16 8 19 18 4 9 17 32 30
51 38 56 32 80 -65 279 -53 108 -66 144 -67 186 -1 29 -5 58 -9 64 -15 24 -36
229 -37 363 -2 151 17 319 52 459 12 48 15 78 9 84 -16 16 -11 28 9 21 16 -5
21 2 32 45 7 27 16 50 21 50 4 0 8 7 8 15 0 9 6 26 14 38 7 12 26 51 42 87 16
36 32 68 37 71 15 11 14 44 -2 56 -9 6 -13 15 -9 19 4 4 15 1 23 -6 14 -11 20
-10 38 11 34 38 137 178 136 185 0 4 5 11 13 15 10 7 9 9 -4 9 -23 0 -33 19
-18 33 9 9 15 8 25 -6 12 -17 18 -14 82 40 103 88 128 114 125 130 -3 11 2 14
13 9 15 -5 77 23 95 43 5 6 37 24 140 78 133 70 144 80 168 147 12 33 22 73
22 89 0 23 -4 27 -29 27 -17 0 -33 5 -36 10 -10 16 -65 12 -71 -5z"/>
<path d="M2745 4964 c-102 -14 -97 -10 -90 -62 l5 -47 -19 43 c-19 39 -23 42
-60 42 -22 0 -54 -8 -73 -17 -18 -9 -40 -19 -48 -23 -8 -4 -16 -22 -17 -41 -3
-31 1 -38 52 -77 31 -23 60 -53 65 -67 5 -13 18 -28 28 -34 10 -5 38 -35 61
-66 23 -30 49 -55 59 -56 11 0 13 -2 4 -6 -21 -8 20 -32 83 -49 110 -28 228
-142 284 -274 34 -81 34 -80 66 -98 17 -9 31 -20 33 -24 2 -4 18 -4 36 -1 25
4 39 0 52 -13 16 -16 28 -18 78 -13 54 6 81 16 234 85 29 13 63 24 77 24 13 0
26 4 30 9 11 19 115 41 190 41 68 0 77 2 82 20 3 11 9 20 14 20 5 0 9 14 9 30
0 17 -4 30 -9 30 -5 0 -12 9 -16 20 -8 26 -56 80 -72 80 -6 0 -18 -8 -25 -17
-7 -10 -27 -29 -42 -43 l-30 -25 23 32 c12 18 26 35 31 38 6 3 14 15 20 25 8
15 -1 29 -57 84 -37 36 -70 66 -73 66 -4 0 -15 9 -25 20 -17 19 -18 19 -52
-25 -43 -57 -52 -58 -19 -1 29 49 32 66 13 66 -7 0 -18 9 -25 20 -6 11 -31 29
-54 41 -24 12 -45 25 -48 28 -3 4 -29 19 -58 34 -49 24 -55 25 -76 12 -20 -13
-23 -13 -23 0 0 8 4 15 9 15 20 0 5 17 -27 32 -24 10 -36 12 -39 4 -3 -7 -5
-6 -5 2 -1 13 -39 31 -82 38 -18 3 -29 0 -32 -11 -10 -23 -27 -18 -27 9 0 24
-16 36 -50 36 -22 0 -40 -28 -40 -62 0 -13 -5 -30 -11 -38 -8 -11 -9 2 -4 47
6 68 10 64 -70 79 -22 5 -46 7 -53 5 -8 -1 -21 4 -30 11 -13 11 -14 11 -7 -1
6 -11 4 -13 -11 -7 -24 10 -99 15 -139 10z"/>
<path d="M2063 4799 c-22 -7 -31 -14 -27 -24 7 -18 0 -19 -24 -4 -13 8 -26 6
-57 -13 -79 -45 -90 -56 -75 -72 7 -9 9 -24 5 -33 -6 -17 -7 -17 -21 2 -8 11
-12 25 -10 32 9 23 -145 -89 -203 -147 -121 -123 -176 -189 -176 -212 0 -17
-6 -23 -23 -23 -26 0 -53 -44 -45 -75 4 -14 1 -20 -11 -20 -9 0 -22 -11 -28
-25 -6 -14 -14 -25 -18 -25 -17 0 -19 -45 -3 -62 15 -17 14 -18 -10 -18 -28 0
-54 -29 -60 -65 -2 -11 -8 -30 -15 -42 -7 -12 -12 -31 -12 -42 0 -11 -4 -23
-10 -26 -14 -9 -12 -21 6 -39 14 -15 14 -16 -4 -16 -24 0 -38 -16 -45 -56 -5
-28 -2 -32 36 -52 l42 -21 -46 6 -46 5 -12 -123 c-6 -68 -14 -145 -16 -171 -5
-45 -4 -48 22 -54 16 -3 39 -10 53 -14 21 -7 17 -9 -22 -9 -44 -1 -61 -12 -39
-25 6 -4 5 -21 -1 -43 -13 -47 -3 -93 25 -116 21 -18 22 -19 1 -14 -20 4 -20
2 -12 -42 12 -65 18 -82 42 -114 l21 -29 90 5 90 6 -55 -19 c-32 -10 -49 -20
-40 -23 77 -27 111 -42 128 -57 11 -11 23 -16 26 -13 3 4 6 1 6 -5 0 -7 12
-12 28 -12 29 0 85 -30 116 -62 10 -11 24 -17 32 -14 8 3 13 0 11 -6 -1 -7 15
-15 35 -18 21 -4 46 -14 56 -23 24 -22 38 -21 62 3 18 18 19 23 6 43 -8 12
-18 40 -22 62 -3 22 -10 45 -15 51 -5 6 -18 39 -29 74 -27 84 -26 169 1 223
12 23 22 44 21 47 0 3 4 10 9 16 5 7 12 34 15 60 5 43 3 52 -20 77 -33 36 -33
52 2 83 15 13 36 33 48 44 12 11 29 20 38 20 9 0 16 5 16 10 0 6 8 10 18 10
23 1 56 26 43 34 -5 4 -13 2 -16 -4 -5 -8 -39 -9 -85 -1 -3 1 2 5 10 11 12 7
12 11 -3 28 -14 15 -16 29 -11 61 4 23 13 48 20 55 10 11 10 17 -2 35 -10 13
-11 21 -4 21 6 0 8 5 5 10 -15 24 7 50 46 56 27 5 46 15 56 30 18 28 31 30 71
7 41 -23 58 -13 64 41 3 24 12 52 21 60 9 9 18 25 22 35 7 22 28 33 70 36 17
1 33 3 37 4 11 2 107 169 129 223 10 27 19 64 19 83 0 18 7 40 15 49 16 16 20
48 8 60 -8 8 -9 13 -12 41 0 8 -6 15 -11 15 -6 0 -21 11 -33 23 -12 13 -35 32
-52 43 -33 20 -152 143 -147 151 2 2 -7 13 -19 24 -24 21 -46 22 -96 8z"/>
<path d="M5418 4367 c-11 -9 -14 -18 -8 -27 6 -10 -8 -29 -48 -67 -108 -100
-160 -113 -463 -113 -207 0 -223 -1 -250 -21 -27 -19 -29 -24 -29 -93 0 -40 5
-98 10 -127 11 -58 12 -61 36 -314 16 -177 26 -215 93 -375 32 -75 39 -86 53
-76 25 15 34 -1 14 -23 -16 -18 -15 -23 28 -115 26 -54 46 -101 46 -107 0 -5
11 -9 25 -9 14 0 25 -4 25 -10 0 -5 -7 -10 -15 -10 -20 0 -19 -9 10 -66 13
-27 30 -73 36 -104 7 -30 17 -61 23 -69 7 -8 11 -62 11 -130 0 -125 -17 -184
-65 -229 -28 -26 -152 -92 -174 -92 -8 0 -40 -11 -71 -24 -40 -18 -58 -33 -66
-53 -17 -45 -27 -110 -18 -124 4 -7 1 -22 -6 -33 -11 -18 -25 -81 -42 -196 -2
-14 -8 -70 -14 -126 -5 -55 -13 -114 -18 -130 -7 -24 -4 -32 18 -51 26 -22 26
-22 4 -23 -13 0 -23 6 -24 13 -1 19 -29 -85 -29 -111 0 -47 -117 -180 -202
-231 -49 -30 -57 -38 -52 -58 7 -27 -2 -29 -28 -6 -17 15 -22 15 -71 1 -74
-23 -217 -50 -259 -50 -26 1 -32 -11 -47 -94 -5 -27 -14 -68 -20 -90 -5 -21
-13 -59 -16 -84 -43 -302 -77 -376 -185 -399 -32 -7 -201 -11 -461 -11 -355 0
-410 -2 -415 -15 -8 -19 -34 -19 -34 0 0 23 -488 23 -496 0 -8 -19 -34 -20
-34 0 0 12 -39 14 -277 12 l-276 -3 -15 -32 c-20 -42 -29 -41 -24 3 3 29 1 34
-11 29 -16 -6 -76 48 -120 107 -12 16 -20 20 -23 12 -3 -7 -10 -13 -15 -13
-12 0 -12 43 0 56 10 10 41 162 65 319 9 55 23 136 31 180 41 210 54 341 52
497 -1 86 -6 160 -10 164 -4 4 -16 -1 -27 -11 -11 -10 -23 -16 -26 -12 -3 3 6
13 20 22 29 19 32 41 11 69 -8 11 -15 27 -15 35 0 20 -98 169 -142 218 -176
194 -213 220 -289 199 -21 -5 -39 -16 -39 -24 0 -7 -4 -10 -10 -7 -5 3 -11 0
-12 -7 0 -7 -2 -17 -2 -23 -1 -5 -4 -14 -7 -20 -4 -5 -12 -35 -20 -65 -7 -30
-19 -62 -26 -71 -7 -8 -13 -21 -13 -27 0 -24 -74 -154 -100 -176 -16 -13 -72
-38 -126 -56 -55 -18 -139 -52 -189 -76 -49 -24 -104 -47 -122 -50 -17 -3 -40
-14 -52 -25 -11 -10 -29 -19 -40 -19 -11 0 -23 -4 -26 -10 -3 -5 -16 -10 -28
-10 -12 0 -29 -6 -37 -13 -16 -13 -70 -83 -70 -91 0 -17 -108 -178 -140 -209
l-40 -38 0 -564 0 -565 2720 0 2720 0 0 32 c0 17 -8 41 -17 52 -17 20 -17 20
0 7 16 -13 17 70 17 1697 0 1359 -3 1711 -12 1715 -9 4 -9 6 -1 6 8 1 12 77
13 290 1 270 -1 290 -17 294 -17 4 -17 5 0 6 16 1 18 13 16 141 0 77 -2 140
-2 140 -1 0 -10 -6 -19 -13z"/>
<path d="M2869 4344 c-7 -8 -14 -39 -17 -68 -4 -55 4 -70 38 -71 8 0 15 -5 15
-12 0 -18 32 -53 49 -53 7 0 21 11 29 24 17 26 13 61 -11 88 -8 10 -12 23 -9
31 7 19 -40 77 -63 77 -9 0 -23 -7 -31 -16z"/>
<path d="M3806 4007 c-17 -12 -17 -18 -6 -52 7 -22 24 -60 37 -87 18 -35 25
-70 29 -140 l6 -93 -41 -79 c-22 -43 -38 -82 -35 -87 2 -4 -5 -13 -16 -19 -11
-6 -20 -17 -20 -25 0 -8 -4 -15 -8 -15 -5 0 -14 -10 -20 -22 -30 -62 -52 -119
-52 -137 0 -13 -8 -21 -22 -23 -12 -2 -28 -14 -35 -28 -20 -41 -43 -98 -43
-105 0 -3 -11 -21 -25 -39 -14 -18 -25 -40 -25 -49 0 -8 -5 -17 -10 -19 -13
-4 -23 -44 -21 -84 0 -18 -6 -37 -14 -44 -13 -11 -11 -15 10 -32 17 -13 24
-26 20 -38 -3 -10 -1 -21 5 -25 42 -26 -51 -174 -137 -219 -18 -9 -48 -16 -68
-16 -30 0 -44 -8 -86 -52 -28 -29 -57 -64 -64 -78 -19 -37 -99 -108 -129 -116
-53 -13 -239 1 -281 22 -22 10 -42 23 -44 27 -9 22 -121 122 -161 144 -79 43
-137 78 -154 92 -17 15 -21 56 -7 93 27 75 19 102 -19 56 l-18 -23 -7 28 c-7
27 -28 36 -40 16 -4 -6 -13 -8 -21 -5 -8 3 -17 0 -20 -8 -3 -7 -31 -19 -62
-25 -31 -7 -73 -17 -93 -22 -20 -5 -50 -9 -67 -9 -33 0 -77 -16 -102 -38 -24
-22 -140 -92 -150 -92 -6 0 -10 -4 -10 -10 0 -14 -69 -47 -117 -55 -24 -4 -45
-14 -49 -23 -11 -24 -15 -112 -5 -112 7 0 35 -51 31 -58 0 -2 10 -12 24 -23
15 -11 26 -26 26 -34 0 -7 4 -15 8 -17 13 -5 102 -119 102 -130 0 -6 10 -25
23 -42 23 -31 80 -159 92 -206 3 -14 11 -35 17 -47 l11 -22 31 22 31 22 -23
-39 c-23 -39 -23 -41 -11 -175 7 -75 14 -130 17 -123 6 18 34 15 30 -4 -2 -8
-7 -14 -13 -14 -16 2 -24 -33 -24 -121 -1 -48 -10 -154 -21 -235 -17 -119 -27
-222 -32 -324 -2 -38 25 -60 74 -60 31 0 41 4 45 20 7 26 23 26 30 0 6 -23 -1
-23 228 -20 193 2 211 4 218 31 8 29 44 24 51 -6 6 -25 8 -26 84 -23 l77 3 5
115 4 115 6 -119 5 -120 210 3 c116 1 215 6 220 11 6 4 19 4 30 -1 42 -17 103
-10 132 15 30 26 34 54 20 175 -6 53 -12 68 -37 92 -17 17 -41 29 -56 29 -20
0 -24 3 -16 13 8 10 3 19 -23 40 -37 29 -123 71 -170 81 -35 8 -250 74 -282
86 -17 7 -22 4 -28 -13 -7 -22 -7 -22 -14 2 -3 13 -13 28 -21 32 -27 15 -109
49 -117 49 -29 0 -163 117 -205 178 l-16 25 -17 -33 c-22 -42 -29 -33 -15 20
10 36 9 46 -8 74 -38 65 -62 145 -62 211 0 80 12 107 62 140 48 32 105 39 152
20 33 -14 106 -81 106 -98 0 -22 106 -147 124 -147 5 0 18 -7 28 -17 19 -17
75 -37 203 -73 83 -23 257 -74 311 -90 17 -6 40 -10 52 -10 11 0 24 -4 27 -10
3 -5 16 -10 29 -10 12 0 26 -4 31 -9 10 -9 103 -35 280 -77 108 -26 272 -26
338 -1 26 10 45 23 41 28 -3 5 4 9 15 9 38 0 41 30 9 93 -16 33 -27 61 -25 63
3 3 16 -9 30 -26 14 -16 28 -30 31 -30 13 0 4 30 -19 64 -37 54 -30 67 11 21
l35 -40 -5 33 c-3 19 -15 47 -27 63 -24 34 -15 38 18 7 l23 -21 0 35 c0 20 3
43 6 51 3 8 -2 21 -11 30 -9 10 -11 18 -5 22 5 3 10 3 10 -2 2 -28 30 67 30
99 0 22 5 48 11 59 9 17 4 26 -36 61 -53 47 -53 64 0 24 44 -34 64 -30 36 6
-24 30 -27 42 -7 35 10 -4 16 4 19 26 3 18 12 59 21 92 22 87 20 114 -11 148
l-28 29 33 -16 32 -17 33 37 c17 20 34 40 37 43 5 7 38 23 125 60 109 47 125
60 125 103 0 36 -36 118 -52 118 -11 0 -11 2 0 8 24 16 -21 82 -55 82 -21 0
-15 17 10 24 21 6 21 7 -8 20 -26 12 -27 15 -12 21 11 5 14 11 9 19 -5 6 -19
40 -32 76 -13 36 -31 83 -41 105 -51 117 -79 186 -95 238 -17 55 -19 57 -53
58 l-36 1 33 9 c31 9 32 11 32 64 0 29 -4 56 -8 59 -4 2 -9 35 -11 73 -5 106
-6 115 -15 156 -6 25 -16 41 -30 47 -21 8 -21 8 4 18 14 6 20 11 13 11 -6 1
-14 14 -18 30 -4 17 -25 45 -50 67 -24 20 -42 41 -39 45 7 11 -60 3 -85 -11
-13 -6 -25 -9 -28 -7 -2 3 5 10 16 17 43 22 28 32 -83 55 -88 18 -117 19 -140
2z"/>
<path d="M4440 3963 c-14 -2 -42 -8 -62 -15 -50 -15 -55 -43 -34 -195 18 -138
30 -272 28 -328 -2 -54 19 -120 88 -270 23 -52 75 -182 94 -238 3 -11 15 -21
25 -24 14 -3 19 -13 19 -32 -1 -36 20 -98 48 -141 28 -43 47 -123 39 -162 -13
-59 -92 -113 -234 -158 -24 -8 -58 -28 -75 -45 -28 -27 -34 -43 -45 -111 -7
-43 -17 -95 -22 -114 -5 -19 -9 -56 -9 -82 0 -26 -5 -59 -10 -73 -6 -15 -12
-61 -14 -103 -3 -43 -7 -88 -11 -102 -4 -14 -13 -69 -20 -123 -15 -110 -27
-151 -62 -223 -22 -43 -34 -54 -87 -80 -60 -29 -63 -29 -221 -28 -206 2 -193
-1 -865 195 -58 17 -141 45 -185 61 -44 16 -88 30 -97 30 -22 -1 -146 123
-178 178 -42 72 -74 100 -114 100 -29 0 -38 -5 -51 -30 -19 -37 -19 -79 -1
-127 8 -21 20 -57 26 -80 6 -24 15 -43 20 -43 6 0 10 -4 10 -10 0 -30 134
-164 192 -192 62 -30 143 -58 171 -58 10 0 33 -6 50 -14 18 -8 75 -27 127 -41
223 -64 309 -103 391 -182 76 -73 100 -132 106 -268 6 -115 -7 -178 -40 -200
-19 -12 -139 -15 -792 -19 -714 -5 -773 -4 -805 12 l-35 17 -1 75 c0 41 3 82
7 91 15 31 40 214 34 247 -3 19 -2 39 4 45 28 35 47 284 32 427 -31 292 -110
471 -286 644 -93 92 -121 116 -134 116 -4 0 -21 12 -36 26 -23 21 -34 25 -61
19 -19 -3 -34 -11 -34 -17 0 -6 -3 -8 -7 -5 -11 11 -33 -14 -33 -37 1 -11 9
-35 18 -52 52 -95 63 -113 82 -135 21 -25 82 -109 141 -194 19 -27 42 -67 52
-87 9 -21 24 -53 32 -70 8 -18 18 -44 20 -58 21 -101 25 -134 26 -212 0 -48 5
-88 10 -88 12 0 12 -37 0 -42 -10 -3 -29 -138 -40 -288 -4 -56 -14 -107 -24
-125 -9 -16 -20 -73 -26 -125 -5 -52 -14 -106 -19 -120 -30 -75 -44 -145 -39
-192 8 -65 29 -88 79 -88 21 0 38 -5 38 -11 0 -8 5 -7 15 1 12 10 21 10 38 1
33 -17 1441 -9 1479 9 24 11 31 11 45 -2 15 -12 51 -15 198 -14 159 1 185 3
220 21 51 26 55 37 106 334 22 130 48 252 57 271 22 45 58 61 157 71 98 9 225
35 239 49 5 5 18 10 28 10 27 0 68 30 79 57 5 13 14 20 22 17 8 -3 26 11 42
33 16 21 32 40 36 43 14 11 51 150 65 250 16 109 50 362 60 440 11 84 34 172
53 199 13 17 46 38 90 55 54 21 71 32 71 47 0 20 34 27 44 10 15 -24 106 31
131 79 24 47 29 147 10 235 -9 44 -22 87 -29 95 -6 8 -20 40 -30 70 -34 101
-98 242 -109 241 -16 -2 -17 0 -9 15 10 18 -9 73 -70 204 -16 36 -37 83 -46
105 -8 22 -22 49 -31 59 -10 13 -11 17 -2 11 10 -5 12 -3 7 11 -4 15 -26 181
-26 205 0 4 -6 6 -12 5 -7 0 -14 4 -15 9 -1 6 4 9 11 8 15 -4 5 122 -19 223
-14 63 -43 105 -70 102 -5 0 -21 -2 -35 -5z"/>
<path d="M3550 3947 c-41 -34 -77 -103 -47 -91 21 8 29 -24 9 -35 -14 -8 -13
-10 11 -16 15 -4 37 -5 50 -2 12 2 33 1 47 -3 23 -7 22 -8 -10 -9 -55 -2 -80
-12 -80 -31 0 -30 66 -43 76 -15 8 21 36 19 32 -2 -2 -14 5 -19 31 -21 82 -8
120 16 112 73 -3 27 -45 90 -87 131 -29 29 -40 34 -81 34 -26 0 -55 -6 -63
-13z"/>
<path d="M3103 3922 c-13 -2 -23 -8 -23 -13 0 -5 -7 -9 -15 -9 -8 0 -15 5 -15
10 0 33 -109 -72 -111 -107 -1 -13 -2 -29 -3 -35 -2 -29 89 1 97 31 6 23 83
61 123 61 36 0 46 16 17 27 -10 3 -25 13 -33 22 -8 10 -25 15 -37 13z"/>
<path d="M2240 3795 c0 -9 -7 -27 -16 -41 -15 -22 -15 -26 -1 -42 15 -17 21
-112 7 -112 -4 0 -15 9 -25 20 -12 13 -29 20 -44 18 -35 -4 -38 -26 -5 -38 36
-14 26 -22 -14 -11 -33 10 -35 8 -33 -20 1 -8 -9 -20 -21 -26 -21 -9 -78 -106
-78 -131 0 -5 10 -13 23 -17 20 -7 18 -8 -12 -12 -62 -8 -85 -73 -33 -91 l27
-10 -30 -7 c-39 -10 -49 -16 -39 -24 5 -3 14 -15 20 -26 7 -13 22 -20 40 -20
42 0 45 -30 4 -39 -46 -9 -27 -26 29 -26 34 0 53 5 62 17 9 11 10 14 2 9 -7
-4 -21 -2 -30 3 -17 10 -17 10 0 11 21 0 23 28 2 36 -11 5 -12 11 -4 25 11 22
4 39 -17 39 -8 0 -14 4 -14 8 0 4 32 6 71 4 44 -3 75 0 82 7 8 8 3 11 -18 11
-34 0 -29 9 8 12 33 3 59 44 37 58 -8 6 -32 10 -53 10 -23 0 -36 4 -32 10 3 6
22 10 41 10 33 0 46 14 22 23 -10 3 -10 8 -2 17 9 9 17 9 35 -2 13 -7 27 -17
30 -22 4 -4 16 -3 27 3 11 6 30 11 41 11 11 0 27 10 36 23 15 21 14 22 -12 27
-17 3 -29 13 -31 24 -3 13 0 17 9 14 56 -21 60 -21 53 6 -5 22 -3 25 27 28 54
5 48 28 -8 29 -49 1 -132 5 -146 8 -5 0 -6 5 -2 10 3 5 34 8 70 6 51 -3 67 0
73 12 7 11 11 12 16 4 9 -13 46 -15 46 -2 0 6 -5 13 -11 17 -8 4 -7 9 2 15 19
12 -10 21 -53 17 -34 -3 -41 3 -71 64 -10 22 -16 25 -25 16 -10 -10 -15 -10
-22 2 -5 8 -10 23 -10 33 0 9 -7 17 -15 17 -8 0 -15 -7 -15 -15z"/>
<path d="M3558 3673 c-38 -6 -142 -169 -136 -213 4 -23 0 -31 -15 -36 -19 -6
-19 -7 -3 -16 23 -13 3 -38 -30 -38 -18 0 -22 -4 -17 -17 4 -11 3 -14 -5 -9
-7 4 -12 3 -12 -2 0 -20 28 -20 33 -1 6 24 37 25 37 1 0 -10 -7 -28 -16 -40
-13 -19 -13 -22 -1 -22 8 0 19 -6 25 -12 8 -10 -2 -14 -43 -16 -30 -1 -56 2
-60 8 -6 9 9 14 41 13 7 0 11 7 9 16 -1 11 -12 16 -35 16 -18 0 -35 6 -37 13
-3 6 -1 12 5 12 5 0 9 7 9 15 0 8 -5 15 -11 15 -6 0 -22 3 -36 6 -20 5 -22 4
-10 -6 12 -9 10 -10 -10 -4 -41 13 -419 16 -490 4 -81 -14 -102 -25 -133 -71
-22 -32 -23 -39 -10 -51 12 -13 12 -16 -1 -28 -11 -8 -16 -9 -16 -1 0 6 -8 11
-17 10 -10 0 -13 -3 -6 -5 8 -4 9 -14 3 -35 -5 -16 -8 -29 -7 -30 1 0 13 -3
27 -5 13 -3 29 -9 34 -14 6 -6 51 -10 102 -10 92 0 92 0 102 -28 7 -20 6 -40
-5 -73 -9 -24 -18 -46 -22 -49 -4 -3 -20 -32 -37 -65 -28 -53 -31 -67 -27
-122 5 -58 7 -63 29 -63 17 0 24 6 24 20 0 11 7 20 15 20 17 0 20 -31 4 -47
-8 -8 -8 -17 1 -33 9 -16 14 -19 20 -11 5 9 9 6 13 -8 8 -32 31 -25 55 18 27
48 27 51 2 51 -11 0 -20 4 -20 8 0 5 13 7 29 4 30 -4 45 12 92 99 41 76 55
100 102 172 46 69 77 96 77 66 0 -6 -24 -50 -52 -98 -29 -47 -65 -112 -79
-145 -15 -32 -33 -66 -40 -75 -20 -24 -69 -100 -69 -107 0 -6 -27 -53 -110
-189 -51 -85 -52 -89 -22 -107 19 -11 57 -16 123 -17 94 -1 97 -1 125 28 43
42 52 56 60 85 3 15 10 29 15 32 5 3 -2 19 -15 35 -14 16 -28 44 -31 62 -7 35
8 87 25 87 5 0 10 14 10 30 0 24 -4 30 -21 30 -18 0 -19 2 -9 15 15 18 42 19
58 3 7 -7 12 -8 12 -2 0 5 -5 15 -11 21 -9 9 -5 14 17 19 16 4 34 14 39 21 6
8 15 14 20 13 22 -5 35 1 35 14 0 19 -26 40 -35 26 -3 -5 -22 -10 -41 -10 -21
0 -33 4 -29 10 3 6 19 10 36 10 20 0 29 5 29 16 0 11 6 14 21 9 15 -5 19 -4
15 4 -9 14 0 14 24 -1 23 -15 57 1 52 23 -8 33 8 58 41 61 27 2 33 8 35 31 3
22 0 27 -20 27 -13 0 -30 5 -38 10 -11 7 0 10 38 10 56 0 71 18 33 42 -10 6
-17 17 -14 25 5 13 -13 36 -37 46 -15 6 51 -1 81 -9 30 -8 43 24 47 124 2 53
8 104 12 113 12 21 3 29 -32 29 -15 0 -28 5 -28 10 0 6 10 8 24 4 13 -3 27 -1
30 5 13 20 51 11 84 -19 39 -35 82 -41 82 -11 0 11 11 31 24 45 34 37 86 140
86 170 0 15 -8 30 -19 36 -19 10 -146 12 -203 3z"/>
<path d="M2868 3640 c-16 -5 -28 -6 -28 -3 0 3 -6 0 -14 -6 -7 -6 -25 -12 -40
-13 -14 -1 -26 -8 -26 -16 0 -8 -13 -19 -29 -25 -17 -6 -32 -21 -35 -33 -3
-12 -16 -24 -30 -28 -23 -6 -24 -7 -10 -35 8 -16 21 -32 29 -35 13 -4 195 -8
372 -6 59 0 61 1 72 30 11 34 30 39 38 10 4 -15 14 -20 38 -20 36 0 50 19 39
52 -7 24 -63 108 -71 108 -9 0 -43 -42 -43 -52 0 -5 -5 -6 -11 -2 -6 3 -8 15
-6 26 3 11 3 26 0 34 -8 21 -44 17 -50 -6 -8 -29 -26 -25 -21 5 5 25 5 25 -71
24 -42 0 -88 -4 -103 -9z"/>
<path d="M2550 2966 c-5 -13 -14 -27 -19 -31 -6 -3 -11 -14 -11 -25 0 -13 5
-17 20 -13 28 7 26 -18 -3 -45 -13 -12 -27 -22 -31 -22 -12 0 -57 -53 -53 -63
6 -18 49 -18 63 0 10 14 15 15 25 6 18 -18 39 -4 39 28 0 36 16 65 58 105 30
28 32 34 21 58 -11 22 -18 26 -56 26 -37 0 -45 -4 -53 -24z"/>
<path d="M1297 2883 c-13 -3 -16 -10 -12 -21 4 -10 14 -37 22 -62 8 -25 30
-67 48 -95 18 -27 40 -64 50 -82 19 -33 52 -53 86 -53 32 0 130 52 147 78 15
23 14 25 -3 38 -10 8 -23 14 -28 14 -5 0 -7 9 -4 20 3 11 0 20 -6 20 -6 0 -18
6 -26 14 -15 14 -248 137 -253 135 -2 -1 -11 -3 -21 -6z"/>
</g>
</svg>
