<?xml version="1.0" standalone="no"?>
<!DOCTYPE svg PUBLIC "-//W3C//DTD SVG 20010904//EN"
 "http://www.w3.org/TR/2001/REC-SVG-20010904/DTD/svg10.dtd">
<svg version="1.0" xmlns="http://www.w3.org/2000/svg"
 width="544.000000pt" height="544.000000pt" viewBox="0 0 544.000000 544.000000"
 preserveAspectRatio="xMidYMid meet">
<metadata>
Created by potrace 1.16, written by Peter Selinger 2001-2019
</metadata>
<g transform="translate(0.000000,544.000000) scale(0.100000,-0.100000)"
fill="#000000" stroke="none">
<path d="M0 4334 c0 -679 4 -1103 9 -1099 5 3 12 1 16 -5 3 -6 -1 -13 -9 -16
-14 -5 -16 -32 -16 -181 0 -136 3 -173 13 -169 6 3 20 9 30 12 9 4 17 10 17
15 0 5 8 9 18 9 10 0 21 2 24 5 3 3 72 8 154 11 l149 5 64 -31 c54 -26 72 -30
114 -26 95 11 117 17 117 36 0 13 10 21 33 25 48 11 67 51 25 57 -12 2 -23 9
-26 17 -3 10 3 11 28 6 l33 -7 -6 43 c-4 24 -11 69 -17 99 -18 94 -16 450 4
565 18 107 19 111 66 283 17 62 28 121 25 132 -8 24 4 48 15 31 4 -7 17 12 33
46 49 112 57 128 76 158 27 41 51 86 51 96 0 4 11 20 25 35 14 15 25 33 25 39
0 7 7 16 16 19 9 4 14 9 11 12 -5 5 11 28 44 63 8 9 30 35 48 59 51 66 274
267 355 320 39 26 73 50 76 53 5 6 114 66 167 93 13 6 23 14 23 19 0 4 5 7 12
7 6 0 44 16 85 35 40 19 84 37 98 41 24 6 27 11 40 77 2 12 -3 17 -21 17 -22
0 -23 2 -12 20 7 11 21 23 30 26 11 3 18 15 18 30 l0 24 -1040 0 -1040 0 0
-1106z"/>
<path d="M2289 5423 c36 -62 12 -58 359 -58 309 0 320 -1 444 -28 122 -26 241
-59 283 -76 11 -5 48 -19 83 -31 199 -71 468 -241 639 -402 22 -21 38 -29 52
-25 26 7 35 -7 16 -23 -13 -11 -8 -20 37 -65 66 -65 137 -155 219 -280 62 -92
79 -107 127 -109 15 -1 22 4 22 17 0 14 5 18 19 14 11 -2 32 4 48 15 58 39
140 70 198 75 33 3 67 9 76 14 9 5 46 0 90 -12 97 -26 305 -40 381 -25 l58 11
0 502 0 503 -1580 0 c-1503 0 -1580 -1 -1571 -17z"/>
<path d="M2555 5284 c-98 -20 -128 -30 -141 -48 -8 -11 -15 -16 -15 -11 -1 6
-5 -24 -9 -65 -10 -108 -10 -108 107 -103 54 2 108 9 120 15 17 8 48 8 120 0
54 -7 141 -17 193 -23 101 -12 296 -57 352 -82 18 -8 69 -29 113 -47 93 -38
158 -69 165 -81 3 -4 28 -13 55 -20 79 -18 94 -27 116 -64 12 -19 27 -35 35
-35 8 0 14 -5 14 -11 0 -5 51 -61 113 -122 117 -118 177 -182 177 -192 0 -4
18 -26 41 -49 22 -24 46 -52 53 -61 12 -17 14 -17 27 2 30 42 97 34 85 -10 -7
-29 11 -47 49 -47 66 0 80 23 53 87 -6 15 -11 31 -10 36 1 4 -2 7 -7 7 -5 0
-14 14 -21 30 -7 17 -16 30 -21 30 -5 0 -16 14 -25 32 -16 31 -26 45 -55 77
-9 10 -18 23 -20 29 -6 15 -86 109 -135 157 -90 88 -111 103 -139 97 -26 -4
-26 -3 -15 18 11 20 9 26 -21 51 -18 15 -35 26 -37 24 -3 -2 -13 6 -22 18 -10
12 -35 31 -56 42 -22 10 -59 33 -84 51 -108 76 -394 194 -565 233 -135 31
-502 52 -590 35z"/>
<path d="M2020 5141 c-8 -6 -17 -8 -22 -5 -7 4 -47 -11 -144 -57 -22 -10 -44
-19 -48 -19 -4 0 -22 -11 -40 -25 -18 -14 -36 -25 -40 -25 -7 0 -62 -38 -84
-57 -7 -7 -17 -13 -21 -13 -4 0 -16 -8 -27 -17 -10 -10 -37 -31 -59 -48 -74
-54 -149 -125 -222 -209 -32 -36 -41 -54 -37 -71 5 -18 0 -24 -25 -33 -17 -6
-31 -15 -31 -20 0 -8 -38 -61 -112 -156 -27 -33 -32 -43 -87 -156 -23 -47 -41
-90 -41 -97 0 -6 -4 -13 -8 -15 -9 -4 -65 -177 -86 -268 -33 -144 -41 -240
-41 -480 1 -189 1 -197 28 -261 15 -36 27 -71 27 -78 0 -7 6 -18 13 -24 65
-63 115 -73 153 -31 29 30 30 63 8 184 -8 47 -14 121 -13 165 1 52 -2 80 -10
83 -14 5 -15 42 -1 42 6 0 10 7 10 15 0 8 -9 15 -19 15 -29 0 -33 15 -17 54
14 34 14 36 -7 51 -12 8 -30 15 -40 15 -35 0 -5 20 31 21 45 1 66 9 71 29 22
83 62 345 59 380 -3 22 1 25 30 28 21 2 32 9 33 20 1 9 3 28 4 42 2 14 -4 32
-12 42 -20 22 -3 81 31 113 32 29 32 38 4 65 l-22 20 32 -11 c34 -12 42 -10
46 13 4 27 18 38 51 38 25 0 35 5 40 20 3 11 10 20 15 20 5 0 40 30 79 68 99
95 221 206 237 215 8 4 14 17 14 27 0 13 7 20 20 20 26 0 113 46 148 78 7 6
20 12 28 12 15 0 104 48 114 61 3 3 15 9 28 13 12 4 22 12 22 17 0 5 8 17 19
28 11 11 21 41 26 75 5 47 4 61 -11 77 -18 20 -68 25 -94 10z"/>
<path d="M2881 4929 c11 -21 10 -32 -11 -174 -5 -38 -12 -94 -14 -123 -3 -29
-8 -62 -11 -73 -10 -30 -27 -11 -20 22 8 33 0 50 -19 43 -19 -7 -29 -69 -17
-93 6 -11 28 -25 48 -32 21 -6 43 -16 49 -20 13 -11 39 15 30 29 -6 11 25 97
42 114 9 9 12 9 13 -2 2 -27 -2 -43 -17 -57 -8 -8 -14 -22 -14 -31 0 -9 -3
-27 -6 -40 -5 -18 -3 -21 11 -16 15 6 17 3 11 -21 -6 -22 -2 -33 17 -54 42
-45 103 -144 115 -187 16 -54 15 -90 -1 -122 -8 -15 -21 -42 -30 -60 -9 -19
-17 -40 -17 -47 0 -8 -6 -18 -13 -22 -8 -4 -22 -24 -33 -43 -10 -19 -25 -42
-32 -52 -23 -28 -42 -104 -29 -117 6 -6 47 -11 97 -11 l87 0 33 41 c26 33 30
43 19 50 -19 12 -36 11 -59 -3 -24 -15 -37 -4 -18 15 8 9 26 12 46 9 42 -6 82
5 82 22 0 7 7 19 15 26 8 7 13 16 10 20 -3 5 -1 11 5 15 5 3 10 15 10 27 0 11
19 46 41 79 23 32 39 65 36 73 -3 8 3 22 14 32 19 17 20 17 26 -4 3 -12 12
-22 20 -22 24 0 72 29 84 51 9 18 18 21 60 17 40 -4 47 -3 38 8 -9 10 -9 14 0
14 6 0 11 5 11 10 0 6 -7 10 -16 10 -15 0 -15 2 0 24 9 14 13 32 10 40 -4 10
-1 16 7 16 7 0 9 3 6 7 -4 3 1 12 11 19 9 7 12 14 6 14 -6 0 -29 -16 -52 -36
-23 -19 -42 -32 -42 -29 0 4 -9 -3 -21 -16 l-20 -24 5 38 c2 20 2 37 -1 37
-19 0 -83 -65 -83 -84 0 -22 -17 -46 -32 -46 -4 0 -8 13 -8 29 0 35 38 97 63
104 9 3 17 12 17 21 0 23 -37 20 -45 -4 -12 -39 -26 -21 -19 25 8 57 -10 88
-33 55 -18 -25 -33 -26 -33 -2 0 42 -61 81 -74 47 -3 -8 -10 -15 -15 -15 -14
0 -22 31 -11 45 5 6 9 29 9 51 -1 63 8 137 20 167 6 16 11 32 11 36 0 13 36
42 43 34 4 -3 7 -18 7 -32 1 -25 1 -26 16 -6 8 11 16 18 17 15 5 -13 47 29 42
42 -7 17 -54 43 -72 39 -7 -1 -13 2 -13 8 0 5 -21 16 -46 25 -45 15 -47 15
-65 -7 l-18 -22 -1 32 c0 27 -4 32 -30 38 -38 8 -60 -8 -60 -44 0 -36 -11 -71
-21 -71 -5 0 -7 10 -5 23 3 12 7 40 10 63 6 40 5 41 -33 52 -21 7 -64 12 -95
12 -55 0 -56 -1 -45 -21z"/>
<path d="M2031 4598 c-1 -16 4 -28 9 -28 6 0 10 -13 10 -30 0 -16 8 -45 17
-65 13 -28 14 -38 4 -48 -10 -9 -15 -8 -25 6 -13 17 -36 23 -36 9 0 -4 5 -13
11 -19 10 -10 21 -103 12 -103 -8 0 -45 43 -53 63 -7 17 -9 18 -9 5 -1 -10 -6
-18 -11 -18 -15 0 0 -50 21 -71 17 -17 17 -49 -1 -49 -4 0 -22 17 -39 38 -23
28 -30 32 -31 19 0 -25 -31 -18 -46 11 -14 28 -44 62 -56 62 -4 0 -8 -7 -8
-15 0 -35 -60 -3 -85 46 -14 26 -5 43 10 19 3 -5 18 -10 32 -10 20 0 24 3 18
18 -4 9 -10 27 -12 39 -7 30 -33 37 -85 22 -24 -7 -48 -12 -55 -10 -7 1 -17
-8 -23 -19 -10 -18 -4 -28 46 -80 31 -32 66 -60 77 -62 13 -2 23 -11 25 -24 3
-19 0 -20 -42 -14 -25 4 -52 13 -61 20 -14 12 -16 12 -14 -1 2 -7 -2 -24 -9
-37 -13 -22 -8 -47 8 -37 4 3 8 -1 7 -8 -1 -36 5 -57 24 -81 16 -21 24 -24 30
-15 5 8 7 2 7 -17 -1 -30 -2 -31 -30 -20 -18 6 -27 17 -26 27 2 9 -3 23 -11
32 -15 19 -41 23 -41 7 0 -5 -13 -7 -32 -3 -47 9 -28 -9 46 -46 36 -18 68 -36
71 -41 9 -15 -22 -12 -54 4 -47 25 -60 3 -35 -58 6 -16 4 -18 -14 -14 -17 5
-22 2 -22 -12 0 -17 7 -26 45 -58 8 -7 15 -17 15 -22 0 -17 -25 -11 -55 15
-68 56 -109 85 -121 85 -22 0 -16 -36 9 -53 21 -15 21 -16 2 -16 -11 0 -31 6
-45 14 -30 17 -40 18 -40 6 0 -5 8 -12 18 -15 34 -11 20 -53 -22 -69 -15 -6
-17 -10 -8 -19 23 -23 12 -28 -25 -13 -45 19 -54 13 -17 -11 16 -11 46 -18 77
-19 31 0 52 -5 54 -13 3 -8 -1 -10 -14 -6 -15 6 -16 4 -5 -7 22 -24 13 -30
-23 -15 -19 8 -35 11 -35 7 0 -5 7 -11 15 -15 8 -3 15 -10 15 -15 0 -13 -63
13 -68 28 -2 6 2 11 9 11 7 0 -10 12 -38 26 -57 30 -83 27 -83 -9 0 -13 -5
-28 -12 -35 -8 -8 -4 -14 18 -22 67 -24 71 -30 19 -27 l-50 2 -3 -47 c-3 -44
-2 -47 25 -50 20 -2 29 -9 31 -25 2 -14 14 -25 35 -33 l32 -11 -32 -20 c-40
-25 -35 -37 17 -45 57 -9 38 -26 -21 -18 -34 5 -49 3 -49 -5 0 -6 13 -11 29
-11 27 0 47 -20 34 -34 -4 -3 -24 -6 -45 -6 -31 0 -38 -4 -38 -19 0 -22 71
-61 109 -61 20 0 22 -2 10 -16 -10 -12 -28 -15 -77 -12 l-64 3 -2 -42 c-1 -22
4 -49 11 -58 11 -16 15 -16 35 -3 31 20 68 29 68 16 0 -5 -9 -12 -20 -15 -40
-11 -6 -25 54 -22 34 2 63 -1 65 -6 4 -11 -53 -24 -111 -24 -31 -1 -38 -5 -38
-21 0 -17 7 -20 40 -20 22 0 40 5 40 10 0 6 10 10 23 9 12 0 16 -3 10 -6 -7
-2 -13 -9 -13 -14 0 -6 20 -7 50 -3 53 7 68 -6 31 -26 -25 -13 -81 -13 -81 0
0 17 -30 11 -53 -10 -18 -18 -20 -22 -7 -30 8 -5 23 -10 32 -10 10 0 26 -10
37 -21 16 -17 27 -21 56 -16 44 7 47 -10 5 -26 -22 -9 -30 -17 -28 -32 2 -15
9 -19 28 -17 14 2 30 7 35 12 6 4 20 10 33 13 33 8 25 -25 -8 -34 l-25 -7 27
-1 c15 -1 30 4 33 9 4 6 15 1 26 -14 11 -13 32 -27 48 -31 16 -3 35 -13 42
-21 6 -8 18 -14 26 -14 8 0 28 -8 44 -17 22 -13 35 -15 55 -8 30 11 50 55 38
83 -4 9 -7 20 -6 23 1 4 -8 40 -19 79 -12 46 -17 85 -13 104 11 53 62 162 119
253 30 48 55 95 55 105 0 10 4 18 9 18 5 0 13 10 17 22 4 13 20 39 35 58 22
28 28 43 25 73 -2 21 -6 40 -10 44 -18 19 -2 23 17 5 l24 -22 14 27 c12 25 27
50 77 128 6 11 18 31 24 45 7 14 27 49 45 78 18 29 33 59 33 67 0 7 4 16 9 19
19 12 18 56 -2 73 -19 17 -20 17 -14 -2 3 -11 9 -31 12 -45 6 -23 5 -24 -8 -7
-8 9 -20 17 -26 17 -13 0 -42 60 -34 73 2 4 11 3 20 -2 9 -4 23 -6 33 -4 9 2
22 -3 29 -11 8 -9 20 -16 27 -16 17 0 38 46 35 78 -2 14 3 22 13 22 25 0 67
52 61 75 -2 11 -8 30 -11 43 -5 19 -3 22 20 22 25 0 27 3 24 33 -2 18 3 36 10
42 7 6 10 18 7 27 -8 19 -118 63 -139 55 -8 -3 -20 -31 -26 -61 -6 -31 -16
-54 -21 -51 -5 4 -9 12 -9 19 0 11 -63 86 -72 86 -6 0 -2 -105 5 -117 4 -7 -6
-6 -31 2 -38 13 -53 43 -18 37 17 -3 16 -1 -3 19 -12 13 -21 27 -21 33 0 9 -9
31 -53 126 -15 34 -16 35 -16 8z"/>
<path d="M2878 4329 c-17 -18 -21 -69 -6 -69 4 0 8 -4 8 -10 0 -5 -11 -10 -25
-10 -16 0 -25 -6 -25 -15 0 -8 -4 -15 -8 -15 -5 0 -14 -17 -20 -37 -12 -40 -5
-53 32 -53 12 0 16 -5 13 -14 -3 -8 -1 -17 6 -20 7 -2 0 -5 -15 -5 -15 -1 -29
-5 -33 -11 -3 -5 -12 -7 -19 -4 -17 7 -30 -28 -21 -56 3 -11 15 -20 26 -20 19
0 25 -11 12 -23 -3 -4 -13 -1 -22 6 -13 10 -14 10 -5 -3 5 -8 9 -25 8 -37 0
-13 3 -23 7 -23 5 0 9 7 9 15 0 14 27 20 71 16 20 -2 89 79 89 103 0 10 5 27
12 39 6 12 10 39 9 60 -1 21 2 44 8 50 14 17 -6 71 -43 120 -32 41 -43 44 -68
16z"/>
<path d="M5396 4253 c-4 -4 -71 -12 -149 -17 -136 -9 -204 -9 -382 -5 -69 2
-86 -1 -121 -22 -47 -28 -99 -84 -114 -123 -11 -30 -13 -108 -4 -143 5 -17 14
-23 35 -23 16 0 29 -4 29 -10 0 -5 -12 -10 -26 -10 l-26 0 7 -77 c8 -93 13
-136 22 -183 3 -19 5 -40 4 -47 -4 -29 20 -176 39 -232 18 -55 58 -150 81
-193 5 -10 9 -22 9 -28 0 -5 23 -57 50 -115 28 -58 50 -109 50 -113 0 -5 8
-24 17 -43 50 -97 93 -244 100 -340 7 -107 -20 -203 -69 -244 -37 -31 -145
-86 -208 -105 -25 -8 -47 -17 -50 -20 -3 -3 -14 -10 -25 -16 -11 -6 -25 -30
-31 -55 -14 -50 -50 -251 -58 -319 -6 -43 -12 -94 -22 -170 -21 -165 -63 -328
-90 -350 -8 -7 -14 -17 -14 -23 0 -10 -53 -63 -100 -101 -67 -53 -152 -87
-300 -116 -134 -27 -158 -38 -170 -75 -13 -43 -14 -145 -1 -178 6 -16 11 -38
11 -51 0 -36 51 -106 77 -106 28 0 32 -34 6 -48 -12 -7 -14 -18 -9 -43 l6 -34
-24 41 c-13 23 -40 60 -61 82 l-38 40 -22 -22 c-12 -12 -30 -51 -40 -91 -36
-141 -69 -183 -156 -205 -29 -7 -351 -11 -964 -13 l-920 -2 -5 -29 c-7 -42
-28 -44 -32 -4 l-3 33 -58 1 c-78 2 -145 36 -174 90 -24 43 -39 200 -20 207 5
1 14 32 18 67 8 57 21 124 60 315 24 113 47 328 48 450 1 129 -8 187 -43 282
-15 42 -99 179 -120 198 -6 6 -29 31 -50 58 -48 58 -107 118 -164 165 -31 26
-53 36 -75 35 -47 -2 -81 -18 -93 -44 -35 -76 -44 -103 -44 -135 0 -20 -15
-68 -35 -110 -19 -40 -35 -78 -35 -84 0 -5 -4 -10 -9 -10 -5 0 -13 -9 -16 -21
-15 -45 -110 -129 -138 -121 -5 1 -6 -2 -2 -7 3 -6 -7 -13 -22 -17 -33 -7 -58
-15 -133 -43 -30 -12 -66 -21 -80 -22 -26 -1 -103 -27 -85 -29 16 -1 -55 -30
-76 -30 -11 0 -19 -4 -19 -10 0 -5 -5 -10 -10 -10 -10 0 -120 -69 -130 -81 -3
-3 -16 -21 -30 -39 -14 -18 -35 -43 -47 -56 -12 -13 -24 -31 -27 -41 -3 -10
-20 -24 -36 -32 -21 -9 -33 -22 -37 -42 -3 -16 -9 -29 -14 -29 -5 0 -9 -255
-9 -580 l0 -580 2720 0 2720 0 0 1920 c0 1637 -2 1920 -14 1920 -8 0 -16 7
-20 15 -4 10 1 15 14 15 19 0 20 8 20 195 0 182 -1 195 -18 195 -10 0 -22 -3
-26 -7z"/>
<path d="M2422 4148 c-6 -6 -12 -19 -12 -27 0 -14 -1 -14 -10 -1 -7 11 -10 5
-10 -22 0 -26 4 -38 14 -38 7 0 19 -7 26 -15 10 -12 10 -18 0 -30 -11 -14 -15
-14 -38 1 -20 13 -26 14 -33 3 -5 -8 -9 -18 -9 -22 0 -5 -8 -7 -17 -5 -19 4
-68 -66 -57 -83 3 -5 0 -9 -5 -9 -6 0 -11 -4 -11 -10 0 -5 23 -10 50 -10 35 0
49 4 48 13 -2 7 9 12 26 13 27 1 28 0 11 -12 -17 -12 -11 -14 46 -14 58 1 62
2 40 14 -20 11 -21 14 -6 19 9 4 28 7 41 7 29 0 32 16 4 23 -25 6 -37 34 -21
50 9 9 13 6 17 -11 10 -36 21 -26 29 25 4 26 13 52 20 58 9 7 10 19 3 43 -8
31 -10 32 -67 32 -33 0 -61 5 -63 10 -2 7 -8 6 -16 -2z"/>
<path d="M4350 3980 c-20 -20 -21 -29 -15 -98 3 -42 7 -90 9 -107 6 -45 27
-229 36 -320 11 -98 29 -170 64 -255 15 -36 48 -117 72 -180 25 -63 59 -144
76 -180 107 -232 117 -284 63 -340 -30 -32 -53 -44 -135 -74 -85 -31 -135 -58
-153 -83 -23 -30 -37 -119 -37 -241 0 -60 -5 -104 -14 -120 -20 -40 -35 -113
-29 -148 3 -18 -2 -47 -10 -65 -8 -19 -23 -77 -32 -130 -9 -53 -18 -103 -19
-110 -17 -90 -71 -164 -143 -194 -21 -9 -74 -19 -118 -23 -109 -10 -348 4
-410 24 -27 9 -80 19 -117 22 -59 4 -68 2 -68 -12 0 -22 72 -89 138 -127 28
-17 52 -34 52 -39 0 -13 57 -70 70 -70 6 0 20 -16 31 -35 12 -19 24 -35 29
-35 4 0 14 -13 22 -30 l14 -29 47 38 c52 44 102 58 217 65 142 8 267 54 344
129 82 78 107 143 136 354 22 164 38 290 39 313 4 57 7 79 14 86 13 14 7 33
-13 39 -26 8 -25 18 2 30 16 7 25 22 30 54 13 74 47 114 125 146 37 15 75 28
83 30 29 6 93 37 122 58 41 30 55 61 63 137 8 77 -18 203 -64 309 -16 36 -34
84 -41 106 -7 22 -28 69 -46 105 -18 36 -36 77 -39 93 -3 15 -14 36 -25 47
-11 11 -20 30 -20 41 0 12 -16 57 -36 101 -56 124 -74 200 -84 348 -9 142 -33
287 -50 304 -5 5 -10 16 -10 23 0 6 -10 22 -23 35 -34 33 -117 38 -147 8z"/>
<path d="M4086 3965 c-44 -16 -76 -42 -76 -64 0 -9 -6 -26 -13 -37 -47 -80
-55 -102 -46 -111 7 -7 4 -15 -10 -25 -14 -10 -19 -21 -15 -31 4 -11 -2 -20
-20 -28 -17 -8 -29 -25 -36 -49 -6 -21 -22 -54 -36 -75 -27 -41 -31 -59 -19
-89 7 -16 5 -18 -8 -13 -9 3 -23 -1 -32 -9 -24 -24 -95 -131 -95 -143 0 -6 -4
-11 -9 -11 -5 0 -17 -17 -26 -37 -10 -21 -23 -45 -31 -53 -7 -8 -30 -49 -52
-90 -54 -105 -79 -147 -117 -205 -18 -28 -54 -91 -80 -140 -26 -50 -60 -110
-75 -135 -16 -25 -32 -57 -35 -73 -7 -24 -4 -28 24 -33 38 -8 47 -20 31 -39
-13 -16 -50 -21 -50 -7 0 5 -6 16 -13 26 -12 16 -19 9 -72 -72 -68 -102 -106
-133 -179 -144 -165 -24 -213 -51 -169 -95 10 -10 36 -40 58 -68 55 -67 70
-82 81 -78 6 2 23 -10 39 -27 16 -16 35 -30 42 -30 7 0 13 -7 13 -15 0 -9 16
-31 35 -51 19 -19 38 -46 41 -59 3 -14 10 -25 15 -25 5 0 9 -7 9 -15 0 -8 4
-15 8 -15 12 0 38 -64 53 -133 11 -50 19 -63 65 -102 29 -25 58 -45 66 -45 7
0 51 -14 98 -31 128 -46 159 -56 235 -73 84 -19 91 -20 227 -13 103 6 159 21
155 42 -1 6 8 11 21 13 31 5 28 35 -8 101 -17 30 -29 56 -27 58 2 1 16 -11 32
-27 16 -17 32 -30 36 -30 13 0 -4 44 -28 73 -12 16 -23 34 -23 40 1 7 16 -6
35 -28 27 -32 35 -37 40 -23 8 19 -6 47 -49 103 -26 34 -27 37 -6 20 14 -11
31 -28 38 -37 23 -31 34 -21 26 27 -4 31 -3 45 5 45 15 0 4 49 -15 70 -10 10
-17 11 -25 3 -8 -8 -8 -13 0 -17 6 -4 11 -15 11 -24 0 -12 -13 -4 -41 26 -45
46 -55 52 -39 22 12 -23 6 -40 -14 -40 -7 0 -35 19 -61 42 l-48 42 18 -34 c10
-19 27 -42 39 -53 19 -17 18 -17 -16 1 l-37 21 9 -24 c9 -23 8 -24 -43 -24
-29 0 -60 -1 -69 -2 -19 -2 -31 -45 -26 -89 3 -23 0 -25 -37 -25 -37 0 -40 2
-43 30 -3 24 -1 28 9 18 7 -7 17 -13 22 -13 5 0 -9 18 -32 40 -39 38 -65 46
-56 17 2 -7 6 -36 10 -64 7 -63 -6 -69 -50 -23 -33 35 -55 38 -62 10 -3 -11
-14 -20 -24 -20 -42 0 -77 113 -45 145 9 9 16 25 16 35 0 13 5 17 19 13 14 -3
21 3 29 26 6 17 8 31 4 31 -4 0 1 5 12 11 14 9 20 8 27 -2 6 -10 9 -5 9 15 0
16 -11 41 -25 58 -14 16 -25 37 -25 45 0 14 3 13 22 -3 43 -37 48 -43 48 -57
0 -8 11 -22 25 -31 14 -9 25 -12 25 -7 0 5 -4 13 -10 16 -17 10 -11 25 10 25
15 0 20 7 20 25 0 14 -5 25 -10 25 -14 0 -31 46 -24 65 9 23 29 18 42 -10 6
-14 18 -25 27 -25 17 0 20 16 5 25 -17 11 -29 41 -21 54 6 9 14 3 29 -21 17
-27 22 -30 28 -15 11 30 -5 61 -56 102 -27 22 -50 46 -50 53 0 16 15 15 30 -3
18 -21 37 -19 43 6 5 18 8 19 28 8 34 -18 59 -52 53 -71 -4 -12 2 -19 21 -24
30 -8 39 -1 40 29 0 15 5 21 18 19 9 -2 17 1 17 6 0 12 -24 22 -51 22 -30 0
-79 28 -79 45 0 23 35 18 67 -9 29 -25 61 -37 62 -23 1 4 1 11 1 16 0 4 -20
21 -45 37 -52 33 -62 53 -11 23 47 -28 81 -32 97 -13 10 13 10 17 -2 25 -8 5
-19 9 -25 9 -6 0 -17 7 -24 15 -18 22 11 20 58 -4 47 -23 112 -36 112 -21 0
18 25 11 57 -17 17 -16 43 -36 58 -46 19 -14 23 -22 16 -31 -6 -7 -8 -16 -5
-19 10 -10 44 39 44 62 0 11 -14 36 -32 56 l-31 36 37 -22 c36 -21 37 -21 51
-3 8 11 15 23 15 28 0 13 29 33 80 57 133 62 196 94 202 103 14 20 8 67 -13
109 -11 23 -22 54 -24 69 -4 30 -29 60 -60 73 -18 7 -18 9 -2 12 23 6 22 20
-4 28 -16 5 -18 9 -8 21 13 16 -3 66 -61 189 -48 101 -70 153 -70 164 0 6 -7
11 -15 11 -8 0 -15 5 -15 10 0 6 -22 10 -50 10 -53 0 -69 -16 -22 -22 18 -3 7
-7 -33 -12 -33 -4 -74 -11 -92 -16 -23 -6 -35 -4 -43 5 -8 10 1 16 41 25 l52
13 -36 14 c-37 15 -49 33 -23 33 7 0 20 7 27 16 11 14 11 18 -4 29 -23 17 -21
25 6 25 12 0 29 5 37 10 11 7 -5 10 -52 10 -57 0 -69 3 -78 20 -9 17 -17 20
-46 14 -22 -4 -34 -2 -34 5 0 6 -9 11 -20 11 -26 0 -26 -15 0 -33 27 -19 16
-26 -33 -20 -55 7 -67 19 -28 28 22 5 31 12 31 26 0 13 7 19 23 19 13 0 29 6
36 13 11 10 12 8 6 -10 -5 -19 -3 -23 17 -23 13 0 29 4 37 9 11 7 10 11 -5 20
-11 6 -13 11 -6 11 6 0 12 6 12 13 0 16 -30 19 -48 4 -7 -5 -15 -7 -18 -4 -13
13 44 29 119 32 45 2 102 10 127 18 l45 14 1 84 c1 104 -5 122 -42 130 l-29 5
35 16 c19 9 29 17 23 17 -7 1 -13 10 -13 21 0 29 -21 70 -37 70 -7 0 -14 5
-14 10 -4 29 -19 58 -33 63 -6 3 -29 -1 -50 -8z"/>
<path d="M3531 3919 c-27 -10 -50 -37 -51 -56 0 -9 16 -13 50 -13 39 0 50 -4
50 -16 0 -11 -8 -14 -32 -12 -29 3 -33 0 -36 -24 -4 -38 29 -68 74 -68 21 0
33 4 29 10 -3 6 -1 10 4 10 6 0 11 -4 11 -10 0 -22 49 -9 68 18 31 45 34 62
11 62 -11 0 -17 -4 -14 -10 9 -15 -4 -12 -21 5 -9 8 -31 15 -51 15 -30 0 -34
2 -23 15 7 8 10 21 7 30 -4 8 3 21 14 29 12 8 16 17 11 20 -6 3 -18 -1 -27
-11 -16 -16 -18 -16 -27 0 -10 19 -13 20 -47 6z"/>
<path d="M3303 3868 c-11 -13 -37 -58 -58 -101 l-37 -78 17 -42 c10 -23 22
-51 27 -63 11 -24 87 -114 96 -114 4 0 12 11 19 25 10 23 9 25 -12 25 -13 0
-30 3 -39 6 -18 7 -22 34 -5 34 5 0 7 -5 3 -12 -5 -8 5 -9 36 -4 74 12 78 30
9 41 -23 4 -37 11 -32 16 4 4 28 3 52 -3 41 -10 44 -10 67 18 13 16 23 37 24
46 0 9 5 20 10 23 18 11 11 36 -20 66 -17 17 -27 36 -23 44 4 12 -4 15 -36 15
-30 0 -41 4 -41 15 0 8 9 15 20 15 23 0 25 8 6 33 -18 24 -59 21 -83 -5z"/>
<path d="M2237 3848 c-21 -21 -97 -142 -97 -154 0 -3 -9 -17 -20 -31 -11 -14
-20 -34 -20 -44 0 -11 -3 -19 -8 -19 -4 0 -13 -15 -21 -32 -7 -18 -25 -51 -40
-73 -14 -22 -26 -45 -26 -50 0 -6 -14 -28 -30 -49 -31 -41 -60 -89 -116 -194
-33 -62 -33 -64 -15 -78 14 -10 50 -14 126 -14 l106 0 37 36 c22 21 37 46 37
59 0 13 7 30 15 39 23 23 19 26 -39 26 -30 0 -58 5 -61 10 -4 6 20 10 64 10
69 0 71 1 87 32 9 17 20 36 25 42 42 54 57 67 78 71 12 2 30 10 38 17 8 7 22
13 31 14 8 2 24 12 35 23 16 16 18 23 8 34 -6 8 -21 13 -31 10 -14 -4 -20 0
-20 12 0 13 6 16 21 12 27 -7 49 1 49 19 0 9 -11 14 -32 14 -18 0 -40 5 -48
10 -12 8 -10 10 9 10 19 0 23 4 19 25 -3 14 -1 25 3 25 5 0 9 -12 9 -26 0 -22
3 -25 23 -20 12 3 27 6 32 6 6 0 3 5 -5 10 -12 8 -9 10 12 10 20 0 26 4 22 15
-4 8 -12 15 -20 15 -7 0 -18 9 -24 20 -9 17 -6 30 14 67 14 25 26 58 26 74 l0
29 -84 0 c-46 0 -97 3 -114 6 -24 5 -36 1 -55 -18z"/>
<path d="M3549 3663 c-20 -3 -38 -25 -86 -106 -67 -111 -79 -142 -63 -152 18
-11 11 -24 -17 -27 -20 -2 -29 -9 -31 -25 -4 -27 -20 -30 -29 -7 -7 19 -68 11
-95 -13 -18 -16 -22 -12 -19 20 2 16 -14 17 -206 17 -287 0 -372 -15 -399 -67
-6 -13 -18 -31 -26 -40 -22 -26 -39 -81 -27 -89 6 -3 5 -12 -3 -22 -8 -10 -9
-13 -1 -9 6 4 14 3 18 -3 4 -6 51 -10 111 -10 l105 0 -3 40 c-3 51 6 59 33 29
11 -13 18 -19 15 -12 -4 6 -2 14 3 17 26 16 25 -312 -1 -354 -10 -15 -9 -23 6
-39 15 -17 16 -23 6 -35 -10 -13 -8 -16 12 -20 62 -14 88 -10 88 13 0 11 9 23
20 26 18 6 35 31 79 114 34 67 115 181 127 181 16 0 19 -26 5 -35 -5 -3 -24
-31 -42 -63 -59 -106 -151 -276 -198 -367 -25 -49 -50 -93 -55 -96 -4 -4 -12
-26 -17 -50 -13 -59 -13 -62 -23 -77 -15 -25 17 -42 95 -48 111 -10 130 2 203
128 32 55 61 110 64 122 3 11 23 46 46 77 23 31 59 91 81 133 34 66 38 78 25
87 -13 9 -12 10 3 5 20 -6 42 25 115 163 25 48 65 117 89 156 24 38 43 75 43
81 0 6 7 17 15 24 8 7 15 19 15 27 0 12 -9 14 -49 8 -31 -4 -51 -3 -56 4 -4 7
13 11 54 11 l59 0 38 51 c43 59 36 74 -31 64 -32 -5 -38 -4 -27 7 11 11 23 13
94 17 24 1 29 8 47 64 17 54 18 63 5 74 -14 10 -154 15 -215 6z"/>
<path d="M2988 3654 c-3 -2 -49 -6 -104 -9 -126 -6 -152 -12 -159 -36 -4 -10
-13 -19 -21 -19 -13 0 -19 -18 -15 -48 1 -7 -6 -15 -16 -18 -10 -3 -25 -8 -33
-11 -13 -4 -12 -6 3 -14 9 -6 17 -18 17 -28 0 -27 25 -31 268 -37 186 -5 227
-3 276 11 55 16 57 18 51 43 -11 44 -62 126 -92 148 -22 17 -43 21 -100 22
-39 0 -73 -2 -75 -4z"/>
<path d="M1847 3053 c-4 -3 -7 -19 -7 -35 0 -29 38 -78 60 -78 6 0 30 18 54
40 68 63 79 51 16 -20 -21 -24 -37 -46 -36 -48 2 -1 15 2 30 7 16 7 26 7 26 1
0 -5 7 -7 16 -3 8 3 13 11 10 18 -3 8 2 16 10 19 8 3 14 0 14 -6 0 -9 3 -9 12
0 7 7 18 12 26 12 7 0 20 6 27 14 11 11 11 18 -5 43 -15 25 -26 31 -71 36 -71
9 -174 9 -182 0z"/>
<path d="M2485 2969 c-35 -39 -38 -59 -9 -59 17 0 19 -26 3 -36 -6 -3 -15 -1
-19 6 -10 17 -45 -2 -67 -38 -10 -15 -22 -30 -28 -34 -6 -5 -6 -8 2 -8 17 0
-3 -56 -23 -64 -8 -3 -14 -16 -14 -29 0 -17 -6 -23 -25 -25 -20 -1 -25 2 -23
16 3 14 -4 17 -42 14 -56 -4 -210 -51 -283 -88 -16 -8 -35 -14 -43 -14 -8 0
-14 -4 -14 -10 0 -5 -4 -10 -10 -10 -5 0 -35 -17 -65 -37 -53 -36 -73 -73 -40
-73 13 0 81 52 97 75 4 5 10 6 14 2 11 -10 -63 -83 -103 -102 -30 -14 -46 -45
-24 -45 12 0 26 -124 16 -147 -6 -16 -8 -15 -17 7 -6 14 -14 58 -19 99 -5 41
-13 79 -19 85 -7 7 -10 6 -10 -2 0 -7 -11 -17 -25 -22 -30 -11 -33 -36 -5 -43
29 -8 24 -27 -10 -40 -33 -13 -37 -29 -15 -67 8 -14 19 -35 24 -47 6 -13 22
-32 36 -45 14 -12 25 -26 25 -31 0 -5 15 -30 33 -56 18 -25 48 -75 66 -111 19
-36 40 -72 47 -81 8 -8 14 -25 14 -37 0 -11 5 -24 10 -27 6 -3 10 -18 10 -33
0 -15 5 -34 10 -42 7 -12 13 -11 34 10 30 27 32 19 8 -27 -15 -29 -16 -47 -6
-175 11 -152 3 -415 -15 -471 -10 -32 -26 -159 -38 -292 -7 -83 0 -93 73 -101
74 -7 721 -7 733 1 7 3 12 50 13 108 l2 102 5 -110 6 -110 122 0 c68 0 123 2
123 5 0 3 75 5 166 5 146 0 167 2 178 17 7 10 16 15 19 12 10 -10 20 63 14
103 -10 72 -20 98 -45 125 -14 16 -22 28 -16 28 5 0 0 6 -11 13 -22 13 -26 14
-55 16 -16 1 -19 6 -14 26 5 20 0 28 -26 44 -38 22 -314 120 -360 126 -8 1
-28 7 -43 14 -37 15 -47 14 -47 -4 0 -23 -18 -18 -22 7 -2 16 -14 25 -43 33
-100 27 -180 82 -267 183 l-53 62 -18 -33 -18 -32 6 53 c5 43 3 52 -10 52 -8
0 -16 3 -16 8 -1 4 -3 16 -5 27 -13 80 -51 123 -88 101 -14 -8 -20 -8 -23 2
-7 19 -28 14 -52 -15 -21 -23 -24 -24 -33 -9 -5 9 -21 21 -34 26 -18 7 -24 17
-24 42 0 17 -8 50 -19 72 -43 95 -44 99 -19 142 56 94 70 111 102 111 16 0 31
4 33 10 2 6 10 19 18 29 20 28 31 8 16 -32 -11 -32 -11 -37 6 -49 26 -20 36
-14 46 29 6 24 14 35 22 32 7 -2 17 6 24 20 7 16 19 24 36 24 18 0 25 5 25 20
0 24 37 63 50 55 6 -4 11 -16 11 -28 1 -15 3 -17 6 -6 3 11 11 15 24 12 12 -4
19 0 19 10 0 17 28 43 37 34 3 -4 0 -14 -8 -23 -12 -15 -11 -16 19 -10 27 6
32 5 33 -11 0 -10 2 -35 5 -55 5 -39 0 -44 -25 -29 -8 5 -11 16 -7 29 5 13 1
22 -11 27 -33 15 -44 14 -61 -5 -18 -21 -42 -11 -42 19 -1 10 -7 5 -16 -12
-19 -35 -12 -66 11 -47 13 10 15 9 15 -12 0 -31 23 -63 39 -54 6 4 8 13 4 19
-12 19 -13 51 -3 67 9 13 11 13 20 0 6 -8 8 -27 6 -42 -4 -21 0 -30 14 -38 15
-8 19 -19 17 -43 -2 -28 1 -32 25 -35 22 -3 30 2 37 21 22 57 57 41 52 -23 -1
-24 2 -40 8 -40 6 0 11 -7 11 -16 0 -32 28 5 32 44 6 49 0 66 -18 51 -11 -9
-14 -6 -14 15 0 16 5 26 15 26 8 0 15 5 15 10 0 6 -4 10 -10 10 -5 0 -7 6 -5
13 6 14 -30 77 -44 77 -18 0 -34 60 -23 84 20 44 25 116 11 144 -8 15 -18 30
-22 33 -4 3 -10 28 -13 55 -2 27 -13 68 -24 91 -26 56 -26 114 0 138 11 10 20
23 20 30 0 7 8 27 17 46 10 19 21 57 25 84 4 28 10 66 14 86 7 42 0 49 -56 54
-35 3 -43 -1 -75 -36z"/>
<path d="M170 2823 c-41 -2 -89 -10 -107 -19 -68 -31 -63 23 -62 -717 0 -370
3 -665 6 -657 3 8 12 19 19 23 8 4 14 14 14 22 0 7 9 16 19 20 11 3 21 12 24
19 7 17 130 86 154 86 10 0 32 8 48 18 17 10 41 21 55 24 160 36 397 129 384
149 -4 8 8 13 27 11 3 -1 6 6 6 14 0 8 -9 14 -19 14 -26 0 -22 12 10 34 36 24
54 64 53 119 0 60 -5 78 -24 89 -19 10 -23 38 -6 38 6 0 31 20 55 45 23 25 46
45 51 45 5 0 15 9 23 20 8 11 18 20 23 20 9 0 52 48 79 89 26 38 20 108 -12
131 -4 3 -26 46 -50 95 -51 104 -106 194 -120 196 -19 3 -25 5 -47 17 -16 9
-51 10 -123 6 -84 -6 -111 -4 -160 12 -33 10 -60 22 -60 25 0 4 -23 2 -50 -3
-41 -7 -53 -6 -66 7 -8 8 -27 14 -42 13 -15 -1 -61 -3 -102 -5z"/>
<path d="M1013 2783 c-30 -20 -29 -54 1 -82 13 -12 26 -39 30 -59 8 -52 41
-103 62 -95 10 4 14 14 11 30 -2 14 0 43 5 65 13 59 4 78 -35 75 -27 -2 -31 1
-29 18 2 11 8 23 14 26 14 9 12 20 -4 30 -18 12 -30 10 -55 -8z"/>
<path d="M1325 2243 c-14 -11 -16 -17 -7 -20 6 -3 12 -14 12 -24 0 -28 12 -49
95 -158 115 -154 159 -229 195 -335 55 -166 56 -338 4 -641 -15 -88 -28 -171
-29 -185 0 -14 -4 -32 -7 -40 -4 -8 -9 -33 -12 -55 -13 -93 -19 -124 -37 -194
-24 -90 -22 -145 5 -170 25 -22 72 -35 81 -21 10 16 25 12 19 -5 -5 -13 38
-15 358 -15 201 0 399 3 440 6 l75 7 -2 29 c-1 16 2 31 8 35 15 9 27 -19 16
-38 -6 -12 -5 -20 2 -25 18 -11 977 -14 1044 -4 93 14 118 59 131 230 3 36 7
71 9 78 3 7 1 20 -4 30 -5 9 -24 52 -42 95 -18 43 -41 89 -51 103 -11 13 -17
28 -13 34 3 5 0 7 -9 4 -9 -3 -20 3 -28 15 -7 12 -18 21 -25 21 -7 0 -13 5
-13 10 0 6 -8 10 -19 10 -26 0 -31 -26 -35 -180 -3 -141 -15 -188 -54 -209
-11 -6 -326 -12 -787 -14 -836 -6 -827 -6 -841 48 -3 14 2 77 12 140 16 106
16 116 1 133 -15 17 -15 20 8 53 26 36 34 77 56 289 17 171 -18 466 -67 561
-7 15 -19 45 -27 67 -16 45 -91 161 -136 210 -17 18 -31 37 -31 43 0 5 -3 9
-8 9 -4 0 -27 18 -51 41 -36 35 -48 40 -73 35 -18 -3 -27 -2 -23 4 3 6 1 10
-5 10 -6 0 -13 -6 -16 -14 -5 -14 -70 -12 -89 4 -6 5 -18 2 -30 -7z"/>
<path d="M2494 1704 c-4 -17 -13 -24 -29 -24 -37 0 -51 -25 -36 -67 7 -19 21
-45 30 -56 45 -57 103 -115 128 -127 15 -8 40 -23 55 -34 15 -11 35 -20 45
-21 10 0 24 -4 30 -8 6 -4 47 -16 90 -28 43 -11 103 -27 133 -36 30 -8 83 -18
118 -20 34 -3 62 -9 62 -14 0 -14 28 -11 33 4 4 10 6 10 6 0 2 -22 31 -14 31
7 0 11 -5 20 -10 20 -6 0 -15 11 -22 25 -6 13 -15 22 -19 19 -5 -3 -9 2 -9 11
0 9 -12 36 -26 61 -18 31 -32 44 -48 44 -12 0 -26 4 -32 10 -10 10 -182 58
-242 67 -21 3 -39 15 -50 32 -24 37 -36 48 -48 44 -5 -2 -20 6 -33 18 -14 14
-31 19 -47 16 -14 -2 -24 0 -24 7 0 20 -44 71 -63 72 -10 1 -19 -7 -23 -22z"/>
</g>
</svg>
