<?xml version="1.0" standalone="no"?>
<!DOCTYPE svg PUBLIC "-//W3C//DTD SVG 20010904//EN"
 "http://www.w3.org/TR/2001/REC-SVG-20010904/DTD/svg10.dtd">
<svg version="1.0" xmlns="http://www.w3.org/2000/svg"
 width="544.000000pt" height="544.000000pt" viewBox="0 0 544.000000 544.000000"
 preserveAspectRatio="xMidYMid meet">
<metadata>
Created by potrace 1.16, written by Peter Selinger 2001-2019
</metadata>
<g transform="translate(0.000000,544.000000) scale(0.100000,-0.100000)"
fill="#000000" stroke="none">
<path d="M0 2720 l0 -2720 2720 0 2720 0 0 2720 0 2720 -2720 0 -2720 0 0
-2720z m2981 2640 c188 -27 425 -99 594 -180 152 -73 372 -212 420 -264 6 -6
45 -42 89 -80 186 -165 365 -425 466 -675 62 -155 87 -267 114 -512 l25 -227
56 -138 c32 -76 75 -175 96 -220 21 -45 39 -84 39 -88 0 -4 8 -26 19 -49 29
-65 81 -205 103 -277 17 -53 19 -83 16 -160 -6 -112 -26 -167 -75 -210 -31
-28 -148 -90 -168 -90 -27 0 -124 -55 -134 -76 -16 -35 -68 -347 -87 -518 -10
-90 -46 -258 -64 -302 -39 -89 -127 -178 -220 -221 -65 -30 -155 -55 -265 -73
-75 -12 -124 -25 -130 -34 -6 -8 -17 -45 -24 -83 -7 -37 -21 -111 -31 -163
-10 -52 -23 -126 -30 -165 -28 -158 -68 -214 -162 -235 -38 -8 -334 -10 -1059
-8 l-1005 3 -42 27 c-94 63 -96 127 -12 543 42 207 69 422 70 542 0 153 -40
310 -102 397 -16 23 -36 52 -45 66 -9 14 -42 54 -73 90 -290 335 -417 545
-518 860 -56 174 -82 357 -82 584 0 171 16 330 44 431 77 277 163 484 259 624
29 42 35 57 26 67 -12 14 -7 17 21 15 9 -1 23 11 32 26 9 16 29 44 44 63 30
37 232 240 274 275 187 155 454 294 705 367 85 25 245 56 360 71 64 8 393 6
456 -3z"/>
<path d="M2550 5283 c-116 -9 -354 -56 -374 -74 -6 -5 -17 -9 -25 -9 -29 0
-220 -79 -329 -136 -184 -97 -344 -221 -509 -397 -29 -30 -53 -58 -53 -61 0
-3 -11 -16 -24 -31 -22 -23 -79 -106 -118 -171 -10 -16 -22 -36 -27 -44 -96
-147 -174 -357 -222 -595 -39 -192 -36 -550 6 -715 7 -30 21 -86 30 -125 9
-38 27 -95 40 -125 13 -30 33 -82 46 -115 23 -60 116 -236 129 -245 4 -3 11
-15 14 -28 4 -13 33 -55 65 -95 31 -40 68 -86 82 -103 13 -17 76 -96 140 -176
64 -79 133 -175 153 -212 106 -197 115 -490 26 -921 -6 -27 -17 -86 -25 -130
-8 -44 -24 -124 -35 -178 -11 -55 -20 -112 -20 -127 0 -34 36 -63 90 -74 63
-12 1983 -7 2019 5 52 18 64 58 116 384 38 239 59 278 148 289 211 25 266 37
347 76 86 42 130 88 172 176 21 45 38 93 38 107 0 28 32 271 55 412 8 50 17
116 20 147 8 80 33 169 53 191 21 24 98 61 179 86 68 20 136 68 157 110 43 83
27 212 -51 401 -30 74 -62 153 -70 174 -13 35 -37 94 -63 151 -54 117 -101
233 -114 279 -9 31 -25 140 -36 243 -21 205 -31 264 -57 351 -9 31 -18 62 -19
69 -1 7 -9 27 -18 44 -9 18 -16 37 -16 43 0 23 -111 227 -174 323 -157 237
-350 419 -616 579 -72 44 -317 150 -422 183 -162 51 -489 81 -708 64z m380
-234 c163 -22 340 -71 467 -129 24 -11 48 -20 53 -20 6 0 23 -8 38 -19 15 -10
65 -42 112 -71 180 -113 255 -176 433 -366 26 -28 47 -56 47 -62 0 -6 16 -33
36 -59 66 -89 158 -267 178 -347 8 -31 17 -60 20 -64 15 -24 37 -178 50 -347
18 -220 28 -256 182 -602 8 -17 14 -34 14 -37 0 -4 20 -48 44 -99 88 -185 104
-262 65 -311 -22 -28 -91 -76 -109 -76 -11 0 -79 -28 -140 -58 -40 -20 -78
-71 -84 -116 -3 -17 -14 -94 -25 -171 -12 -77 -28 -189 -36 -250 -8 -60 -19
-137 -25 -170 -6 -33 -15 -94 -20 -135 -26 -188 -143 -250 -428 -228 -106 8
-164 21 -517 113 -49 13 -103 28 -120 34 -28 10 -110 35 -250 76 -160 47 -201
66 -264 123 -35 31 -84 89 -109 127 -53 80 -86 102 -126 84 -30 -14 -40 -38
-37 -95 3 -88 69 -223 142 -290 52 -49 136 -102 171 -109 18 -4 39 -11 48 -16
23 -12 136 -46 225 -68 77 -18 148 -41 190 -60 146 -67 180 -87 228 -134 44
-43 57 -64 76 -126 20 -63 23 -90 19 -187 -3 -108 -4 -115 -30 -141 l-28 -27
-789 -1 c-930 0 -837 -14 -827 128 4 48 11 111 16 140 17 95 20 111 29 172 27
172 31 217 31 367 0 214 -30 353 -107 503 -17 33 -92 147 -102 155 -4 3 -11
16 -17 30 -7 14 -45 61 -86 105 -158 170 -246 289 -317 433 -38 75 -72 148
-76 162 -4 14 -11 30 -16 36 -15 19 -57 192 -73 305 -18 122 -21 389 -6 488
24 152 56 279 96 379 47 119 154 313 194 352 8 8 35 42 60 75 52 71 177 194
240 238 25 17 56 42 70 55 39 37 317 192 344 192 4 0 32 12 61 26 66 31 344
91 475 103 100 9 186 7 310 -10z"/>
<path d="M2536 4952 c-3 -3 -27 -6 -53 -8 -27 -1 -61 -8 -78 -15 -16 -7 -34
-11 -39 -10 -4 1 -5 -15 -2 -36 l7 -38 -22 33 c-26 39 -24 39 -159 -11 -130
-48 -170 -66 -170 -76 0 -5 -11 -12 -25 -15 -49 -12 -154 -83 -298 -200 -108
-87 -126 -115 -95 -143 11 -10 29 -31 41 -48 14 -22 6 -16 -30 18 l-50 48 -34
-39 c-73 -84 -100 -123 -134 -189 -19 -37 -35 -74 -35 -80 0 -7 -7 -13 -16
-13 -15 0 -15 -3 1 -26 17 -27 17 -27 -7 -21 -22 6 -26 0 -65 -96 -36 -90 -39
-104 -26 -119 16 -18 4 -32 -20 -22 -12 4 -14 0 -10 -14 2 -11 0 -29 -7 -41
-10 -19 -7 -24 25 -42 43 -26 45 -33 4 -25 -40 8 -59 -7 -59 -48 0 -17 -4 -47
-10 -66 -13 -48 -19 -191 -9 -211 5 -9 28 -20 51 -25 l43 -8 -48 -4 -48 -3 6
-77 c4 -42 8 -83 10 -89 3 -9 29 -13 77 -14 l73 -2 -70 -11 c-79 -13 -84 -19
-66 -95 26 -104 39 -117 100 -102 65 16 102 21 97 12 -3 -5 -23 -12 -43 -15
-21 -4 -53 -12 -71 -18 -31 -9 -33 -13 -28 -43 6 -29 52 -131 119 -263 12 -23
32 -53 45 -67 12 -13 22 -31 22 -40 0 -18 13 -19 41 -5 23 13 26 -2 4 -20 -8
-7 -15 -16 -15 -21 0 -7 141 -172 184 -215 12 -11 35 -37 51 -59 17 -21 37
-46 46 -54 14 -14 34 -44 76 -116 35 -60 85 -170 90 -200 3 -19 12 -40 19 -46
8 -6 14 -18 14 -27 0 -12 5 -11 23 6 35 33 39 27 15 -23 -21 -43 -21 -48 -9
-142 7 -54 13 -159 13 -233 0 -119 -6 -190 -43 -450 -26 -181 -24 -191 27
-210 11 -5 160 -9 330 -10 421 -3 382 -5 378 28 -3 25 -3 25 4 3 8 -27 43 -44
54 -27 4 6 9 58 10 116 l1 105 6 -107 c3 -58 9 -110 13 -113 9 -9 409 -7 493
2 33 3 66 12 73 20 7 7 19 13 27 13 36 0 29 123 -12 212 -24 52 -29 57 -66 64
-36 6 -39 8 -24 19 21 15 22 25 2 25 -8 0 -15 4 -15 8 0 18 -144 76 -300 122
-41 12 -95 28 -120 36 -40 13 -46 13 -56 -1 -15 -20 -22 -19 -26 6 -2 16 -19
27 -66 44 -85 31 -165 85 -235 159 l-58 61 -20 -25 -20 -25 6 46 c5 32 2 57
-10 85 -64 152 -76 257 -35 314 35 49 84 68 157 61 71 -8 92 -23 153 -111 62
-89 111 -133 192 -173 42 -20 82 -37 89 -37 7 0 26 -4 43 -10 216 -66 337
-103 416 -125 52 -15 124 -36 160 -47 164 -50 225 -61 340 -62 117 0 238 23
225 45 -4 5 1 9 9 9 9 0 16 3 17 8 0 4 2 17 5 28 2 12 -8 43 -21 68 -33 63
-32 66 11 25 34 -32 36 -32 29 -9 -4 14 -16 37 -26 52 -29 41 -22 52 10 16 16
-18 32 -30 35 -27 10 10 -14 76 -34 94 -33 30 -22 39 12 10 l32 -27 7 25 c4
15 9 50 12 79 3 29 11 86 17 127 l12 73 -43 44 c-48 49 -45 57 7 18 41 -31 53
-27 28 11 -16 25 -16 26 4 32 17 4 22 13 22 42 0 20 6 56 14 81 28 96 28 97
-5 135 -34 39 -32 44 8 18 25 -17 26 -17 42 7 27 43 62 68 171 123 135 69 139
77 104 183 -36 106 -37 107 -70 123 l-29 15 25 6 25 6 -22 12 c-13 7 -19 18
-17 29 4 15 -56 164 -141 349 -8 18 -20 55 -27 83 -10 46 -14 51 -39 51 -15 0
-31 5 -34 10 -3 6 2 10 12 10 40 0 41 8 26 185 -8 94 -15 177 -15 187 1 9 -10
19 -25 23 -23 5 -24 7 -8 18 15 12 16 17 0 75 -17 69 -44 132 -56 132 -4 0
-20 -5 -36 -10 l-28 -10 28 23 c33 28 33 36 4 92 l-23 43 -53 -30 c-29 -17
-54 -28 -57 -26 -2 3 16 22 41 42 48 40 56 65 28 94 -10 9 -23 28 -29 42 -6
14 -27 45 -47 70 -102 128 -97 125 -136 82 -14 -15 -35 -34 -45 -42 -18 -14
-19 -13 -10 2 5 9 26 34 47 57 41 45 44 51 22 51 -8 0 -15 4 -15 9 0 14 -63
71 -78 71 -7 0 -15 6 -18 13 -3 8 -19 24 -35 36 l-31 23 -29 -28 c-33 -31 -36
-27 -13 18 13 25 13 32 3 39 -7 4 -17 5 -21 3 -4 -3 -8 1 -8 8 0 14 -65 57
-150 100 -25 13 -47 25 -50 28 -14 14 -109 52 -118 46 -5 -3 -12 0 -15 8 -3 7
-25 18 -48 24 -36 9 -45 9 -52 -3 -11 -20 -27 -19 -27 1 0 20 -28 43 -52 44
-20 0 -38 -29 -38 -62 0 -13 -5 -30 -11 -38 -8 -11 -9 0 -6 42 3 32 1 60 -4
64 -23 14 -193 34 -293 34 l-109 0 6 -52 c6 -53 3 -50 -23 19 -11 28 -16 32
-50 31 -22 0 -41 -3 -44 -6z m315 -479 c109 -35 248 -226 237 -325 -5 -41 -65
-179 -80 -186 -5 -2 -8 -12 -8 -22 0 -9 -7 -23 -16 -30 -18 -15 -74 -125 -74
-146 0 -31 193 -33 223 -2 9 9 21 18 25 20 5 1 12 15 16 31 6 26 5 27 -41 28
l-48 2 60 7 c46 6 63 13 75 31 24 36 102 111 148 143 39 27 52 30 147 34 132
6 163 0 208 -43 20 -19 37 -37 37 -40 0 -3 9 -16 21 -28 11 -12 34 -51 52 -86
28 -57 32 -75 32 -150 0 -79 -3 -92 -35 -156 -43 -84 -84 -155 -122 -212 -15
-23 -28 -47 -28 -53 0 -7 -13 -29 -28 -49 -16 -20 -46 -67 -67 -106 -34 -63
-71 -128 -154 -276 -14 -25 -35 -61 -45 -80 -10 -19 -22 -36 -25 -39 -3 -3
-13 -18 -21 -35 -8 -16 -41 -76 -75 -133 -33 -56 -76 -130 -96 -164 -24 -42
-52 -74 -84 -95 -46 -32 -50 -33 -155 -33 -154 0 -190 17 -282 131 -48 60
-105 165 -113 210 -7 37 8 72 90 219 16 28 21 48 15 54 -6 6 -1 13 13 20 25
13 61 81 53 102 -4 11 -30 14 -107 14 l-103 0 -44 -47 c-24 -27 -52 -64 -62
-83 -34 -66 -144 -145 -217 -156 -25 -4 -87 -4 -139 -2 -132 7 -164 31 -236
177 -32 65 -42 98 -45 150 -5 77 7 111 107 286 33 59 60 109 60 111 0 3 7 12
15 20 8 9 15 24 15 35 0 10 4 19 9 19 8 0 149 241 196 335 11 22 22 42 26 45
7 6 40 62 72 120 69 127 150 267 162 280 7 8 20 31 28 50 8 19 33 54 56 78
l41 42 129 0 c95 0 143 -5 182 -17z"/>
<path d="M2615 4424 c-11 -3 -29 -7 -41 -9 -17 -4 -94 -102 -94 -121 0 -3 -14
-26 -32 -52 -36 -52 -98 -174 -98 -192 0 -7 -9 -19 -19 -28 -16 -14 -81 -122
-81 -135 0 -2 46 -5 102 -5 55 -1 103 -4 106 -7 3 -3 -43 -5 -102 -5 -73 0
-111 -4 -119 -12 -11 -12 -66 -102 -114 -188 -11 -19 -36 -60 -55 -90 -28 -43
-169 -299 -237 -427 -10 -21 -8 -24 23 -37 47 -20 199 -20 236 -1 18 9 39 36
55 70 15 30 31 58 36 61 25 15 1 24 -68 24 -101 0 -85 18 20 22 l79 3 28 54
c16 30 33 58 37 62 14 14 137 19 557 20 225 0 415 3 422 6 21 8 17 34 -11 75
-14 20 -25 44 -25 52 0 22 -82 104 -87 88 -3 -6 -9 -9 -14 -6 -6 3 -75 8 -154
10 -88 2 -154 8 -167 15 -14 8 -80 14 -173 16 -82 2 -156 5 -163 8 -18 7 -8
37 34 107 19 31 34 59 34 62 0 3 -12 6 -27 7 -16 0 -21 3 -13 6 42 14 44 17
10 24 -31 7 -30 8 12 5 l47 -3 26 51 c27 54 47 88 55 96 12 12 80 129 80 138
0 5 15 32 33 58 44 63 78 141 71 159 -4 10 -20 15 -48 15 -22 0 -63 2 -91 4
-27 3 -59 3 -70 0z"/>
<path d="M2843 4313 c-35 -51 -75 -117 -141 -233 -10 -19 -50 -87 -87 -150
-113 -191 -116 -198 -98 -204 8 -3 66 -6 129 -6 134 0 132 -1 208 130 20 36
42 74 49 85 45 73 57 97 52 104 -2 5 1 11 9 14 8 3 25 29 39 58 23 49 24 56
12 95 -7 24 -22 56 -34 72 -11 17 -21 35 -21 41 0 10 -57 51 -71 51 -3 0 -24
-26 -46 -57z"/>
<path d="M3485 3993 c-11 -2 -30 -6 -42 -9 -39 -8 -26 -61 35 -144 1 -2 11 1
22 8 13 8 21 8 26 1 3 -6 -3 -13 -15 -16 -12 -3 -21 -9 -21 -14 0 -21 45 -82
67 -90 38 -14 195 -11 216 5 20 16 22 51 3 86 -7 14 -23 43 -35 66 -43 82
-101 115 -196 113 -22 -1 -49 -3 -60 -6z"/>
<path d="M3322 3902 c-15 -15 -36 -54 -47 -85 -10 -31 -24 -57 -31 -57 -24 0
-44 -97 -22 -105 7 -3 14 -17 15 -31 0 -15 10 -39 22 -55 12 -15 21 -32 21
-37 0 -4 13 -20 28 -35 32 -31 67 -28 57 4 -4 13 -1 19 9 19 9 0 16 5 16 10 0
6 -11 8 -25 4 -15 -4 -25 -2 -25 4 0 6 15 12 33 14 39 4 43 22 5 26 -44 5 -33
21 13 19 39 -2 41 0 75 54 l35 56 -27 57 c-27 54 -30 56 -69 58 -38 1 -38 1
-7 5 38 5 37 14 -1 70 -27 40 -40 41 -75 5z"/>
<path d="M3527 3661 c-26 -31 -90 -135 -124 -200 -19 -36 -42 -72 -51 -79 -14
-10 -90 -12 -371 -9 -289 4 -362 2 -395 -9 -33 -12 -58 -13 -139 -4 -55 6
-101 9 -103 7 -7 -6 62 -145 94 -192 22 -32 33 -39 54 -37 14 2 32 -4 41 -12
12 -12 38 -16 114 -16 128 0 171 -8 178 -31 7 -23 -14 -95 -32 -110 -7 -6 -13
-20 -13 -30 0 -11 -4 -19 -8 -19 -5 0 -17 -17 -28 -37 -10 -21 -21 -40 -24
-43 -13 -12 -47 -70 -77 -130 -31 -61 -33 -68 -23 -115 6 -27 28 -78 50 -112
46 -73 71 -81 98 -32 9 17 32 53 50 80 17 27 32 53 32 58 0 5 10 22 23 38 13
15 27 37 31 48 4 11 27 52 53 90 25 39 80 128 122 199 72 123 101 158 101 122
0 -15 -18 -47 -108 -194 -12 -20 -26 -46 -31 -57 -5 -12 -35 -63 -66 -115 -32
-52 -67 -111 -78 -130 -10 -19 -37 -64 -58 -100 -21 -36 -41 -79 -45 -96 -5
-27 -3 -32 23 -41 40 -15 181 -16 215 -2 37 15 92 95 167 244 20 39 49 90 64
115 16 25 47 74 69 109 22 35 51 87 64 115 14 28 37 71 53 96 16 25 30 51 30
58 1 7 14 32 29 55 16 23 43 68 61 100 17 32 38 65 46 74 8 8 15 20 15 27 0
15 -52 29 -74 20 -8 -3 -17 -1 -21 5 -4 7 14 11 55 11 56 0 61 2 73 28 6 15
29 51 49 81 48 69 83 160 68 175 -7 7 -57 11 -125 12 -94 1 -117 -2 -128 -15z"/>
<path d="M2244 3268 c-26 -40 -61 -98 -78 -129 l-30 -56 21 -51 c29 -69 91
-162 109 -162 20 0 77 57 79 78 0 10 11 28 23 40 12 12 24 34 28 49 3 16 8 35
11 43 13 33 -1 77 -49 162 -28 49 -54 91 -59 93 -4 3 -29 -27 -55 -67z"/>
<path d="M1833 3053 c-21 -8 -15 -45 18 -102 l31 -53 47 46 c62 62 76 59 17
-4 -25 -27 -46 -58 -46 -69 0 -12 15 -28 36 -42 30 -18 55 -23 138 -26 86 -3
104 -1 123 14 l22 18 -30 60 c-17 33 -45 84 -62 113 l-31 52 -126 -1 c-69 0
-131 -3 -137 -6z"/>
</g>
</svg>
