<?xml version="1.0" standalone="no"?>
<!DOCTYPE svg PUBLIC "-//W3C//DTD SVG 20010904//EN"
 "http://www.w3.org/TR/2001/REC-SVG-20010904/DTD/svg10.dtd">
<svg version="1.0" xmlns="http://www.w3.org/2000/svg"
 width="544.000000pt" height="544.000000pt" viewBox="0 0 544.000000 544.000000"
 preserveAspectRatio="xMidYMid meet">
<metadata>
Created by potrace 1.16, written by Peter Selinger 2001-2019
</metadata>
<g transform="translate(0.000000,544.000000) scale(0.100000,-0.100000)"
fill="#000000" stroke="none">
<path d="M0 2720 l0 -2720 2720 0 2720 0 0 2720 0 2720 -2720 0 -2720 0 0
-2720z m3040 2632 c19 -6 85 -22 147 -36 261 -61 535 -190 753 -356 176 -134
388 -372 485 -545 69 -124 89 -164 125 -254 56 -140 87 -267 105 -436 32 -299
31 -298 91 -443 31 -75 74 -174 95 -219 21 -46 39 -85 39 -89 0 -3 7 -20 15
-37 34 -75 95 -244 111 -308 20 -83 15 -212 -11 -277 -10 -23 -35 -58 -57 -77
-38 -32 -137 -85 -160 -85 -29 0 -127 -54 -136 -75 -18 -40 -68 -337 -88 -525
-9 -82 -44 -237 -66 -295 -24 -63 -88 -141 -152 -184 -69 -46 -174 -82 -315
-107 -74 -13 -139 -28 -144 -33 -9 -9 -25 -77 -57 -251 -38 -210 -41 -225 -57
-273 -8 -26 -26 -61 -40 -77 -51 -61 -26 -60 -1117 -60 -545 0 -1008 4 -1028
9 -88 21 -132 81 -130 177 0 59 32 261 51 334 12 43 49 257 57 325 3 28 9 67
14 87 12 58 12 270 0 340 -25 143 -73 233 -205 391 -133 158 -233 285 -276
352 -232 356 -329 681 -329 1103 0 359 80 657 265 987 25 45 120 182 170 245
31 39 226 232 268 265 21 17 52 42 70 56 49 40 182 121 282 172 211 107 403
167 645 202 109 16 523 14 580 -3z"/>
<path d="M2486 5275 c-120 -15 -296 -53 -310 -66 -6 -5 -17 -9 -25 -9 -24 0
-198 -70 -271 -109 -36 -19 -87 -45 -113 -58 -44 -21 -145 -88 -157 -102 -3
-4 -16 -14 -30 -23 -22 -14 -90 -71 -170 -143 -35 -31 -150 -153 -150 -159 0
-3 -11 -16 -24 -31 -49 -52 -189 -279 -237 -385 -36 -78 -98 -278 -124 -403
-43 -203 -45 -582 -4 -720 6 -18 14 -54 19 -82 14 -72 51 -187 66 -210 8 -11
14 -27 14 -35 0 -9 14 -44 30 -78 17 -34 30 -64 30 -66 0 -7 84 -151 91 -156
3 -3 10 -15 13 -28 7 -21 63 -96 166 -222 309 -377 337 -432 359 -697 10 -112
-7 -314 -38 -468 -11 -55 -22 -116 -25 -135 -7 -45 -41 -224 -61 -320 -8 -41
-15 -87 -15 -102 0 -32 38 -62 90 -72 63 -12 1983 -7 2019 5 52 18 65 60 116
384 29 183 49 244 88 270 14 9 63 20 114 25 197 21 286 51 382 128 64 52 110
155 128 286 7 55 23 169 34 251 11 83 24 184 30 225 14 105 37 191 57 213 20
23 117 69 190 91 60 17 126 65 146 105 23 44 28 106 16 188 -12 78 -17 93 -85
258 -20 50 -47 117 -60 150 -12 33 -52 126 -88 207 -86 192 -94 224 -117 445
-20 197 -29 253 -55 343 -9 30 -18 63 -20 73 -2 10 -11 32 -20 49 -8 17 -15
35 -15 40 0 5 -22 55 -50 112 -102 210 -266 423 -445 579 -135 117 -301 228
-415 276 -30 13 -68 29 -85 36 -108 48 -254 98 -335 113 -178 35 -492 48 -654
27z m474 -231 c155 -24 252 -51 384 -103 128 -52 318 -162 436 -254 103 -80
300 -284 300 -310 0 -9 5 -19 11 -23 37 -23 180 -287 203 -378 8 -31 17 -60
21 -65 14 -24 36 -175 50 -346 13 -166 18 -200 45 -270 16 -44 30 -83 30 -87
0 -4 15 -39 34 -78 19 -39 40 -86 46 -106 7 -20 18 -48 26 -62 8 -15 14 -30
14 -34 0 -4 19 -46 41 -95 58 -123 89 -212 89 -252 0 -64 -49 -111 -160 -152
-19 -7 -39 -15 -45 -19 -5 -4 -22 -10 -36 -13 -35 -9 -76 -43 -95 -79 -9 -17
-22 -74 -30 -127 -7 -53 -20 -143 -29 -201 -8 -58 -21 -152 -30 -210 -38 -271
-46 -314 -64 -344 -67 -108 -177 -143 -398 -124 -154 12 -498 99 -851 214 -40
13 -79 24 -87 24 -7 0 -45 11 -83 25 -85 32 -181 116 -236 206 -21 35 -46 70
-54 77 -18 14 -70 16 -90 3 -28 -17 -31 -77 -9 -167 9 -36 50 -118 67 -134 3
-3 16 -20 29 -38 30 -43 143 -128 189 -142 20 -6 46 -15 57 -20 33 -14 146
-48 220 -65 65 -15 154 -44 200 -64 134 -60 176 -85 226 -134 46 -46 59 -66
78 -126 19 -61 22 -89 19 -186 -3 -110 -4 -116 -31 -142 l-27 -28 -789 0
c-924 0 -838 -12 -827 115 3 41 21 179 41 305 28 185 35 259 35 379 0 197 -13
272 -82 456 -32 86 -116 215 -202 311 -189 210 -280 335 -350 476 -36 73 -66
136 -66 140 0 5 -8 24 -19 43 -24 46 -56 177 -76 311 -17 122 -20 395 -5 485
44 253 67 331 147 494 52 105 117 218 133 230 3 3 33 39 65 80 67 86 179 197
245 243 25 17 58 43 73 57 32 28 186 119 262 155 170 79 210 91 495 151 43 9
232 19 300 16 36 -1 108 -10 160 -18z"/>
<path d="M2536 4953 c-3 -4 -28 -8 -55 -9 -26 -2 -61 -9 -77 -15 -16 -7 -33
-11 -38 -10 -4 1 -5 -15 -2 -36 l7 -38 -22 33 c-16 25 -27 32 -43 29 -42 -10
-219 -77 -232 -88 -8 -6 -14 -8 -14 -3 0 4 -13 -5 -30 -21 -16 -16 -30 -26
-30 -22 0 10 -115 -50 -147 -77 -16 -13 -36 -27 -47 -33 -36 -20 -194 -158
-210 -184 -15 -25 -14 -27 5 -45 12 -11 30 -32 42 -49 14 -21 6 -16 -30 18
l-50 49 -37 -44 c-79 -94 -116 -143 -116 -154 0 -6 -6 -17 -13 -23 -8 -6 -19
-30 -26 -53 -7 -24 -18 -46 -25 -50 -8 -5 -7 -13 2 -29 13 -20 12 -21 -7 -16
-17 4 -25 -2 -41 -33 -11 -22 -20 -46 -20 -55 0 -9 -11 -37 -24 -64 -24 -46
-24 -48 -6 -61 23 -17 16 -33 -11 -25 -15 5 -19 1 -19 -15 0 -12 -5 -30 -10
-41 -9 -16 -6 -22 25 -40 44 -26 44 -33 1 -25 -22 4 -37 2 -43 -6 -14 -18 -25
-113 -27 -233 l-1 -99 45 -11 45 -10 -48 -3 -48 -3 6 -77 c4 -42 8 -83 10 -89
3 -9 29 -13 77 -14 l73 -2 -70 -11 c-62 -10 -70 -14 -73 -34 -5 -34 35 -159
53 -166 9 -3 48 1 87 9 39 9 73 13 75 11 5 -5 -44 -20 -112 -33 -64 -14 -62
-28 40 -233 53 -107 63 -124 83 -145 10 -11 21 -28 25 -37 5 -14 11 -16 32 -8
28 10 33 -1 10 -20 -16 -13 -10 -30 22 -65 10 -11 34 -40 54 -65 20 -25 54
-63 75 -85 104 -108 241 -306 259 -375 9 -37 39 -111 46 -115 5 -4 9 -16 9
-27 l0 -21 23 21 c35 33 40 27 16 -21 -21 -41 -22 -45 -8 -137 20 -142 17
-348 -9 -540 -12 -91 -27 -201 -33 -244 -10 -74 -9 -80 11 -100 20 -20 32 -21
343 -26 177 -3 338 -3 358 -2 32 3 36 6 33 30 -4 26 -3 26 4 3 8 -27 43 -44
54 -27 4 6 9 61 10 121 l1 110 6 -112 c3 -61 9 -115 13 -118 7 -7 391 -7 468
0 19 1 51 3 71 4 51 1 71 35 72 118 1 49 -5 76 -28 122 -26 55 -31 60 -68 67
-36 6 -39 8 -24 19 21 15 22 25 2 25 -8 0 -15 4 -15 9 0 12 -123 65 -210 91
-41 12 -93 28 -115 36 -109 37 -146 44 -152 29 -8 -22 -21 -18 -25 7 -2 15
-15 25 -43 35 -109 37 -219 112 -280 191 l-33 42 -22 -27 -21 -28 6 38 c7 43
-9 107 -46 179 -19 37 -30 115 -24 162 6 38 15 56 45 86 43 43 61 48 143 39
68 -8 80 -17 155 -119 31 -41 68 -86 83 -100 34 -33 139 -84 214 -105 33 -10
92 -26 130 -37 39 -11 79 -24 90 -28 11 -4 47 -15 80 -25 90 -25 195 -55 245
-72 88 -29 236 -65 305 -75 127 -18 264 4 317 51 32 29 30 61 -8 128 l-27 48
36 -34 c55 -52 56 -33 2 54 l-19 30 35 -32 c42 -39 51 -41 45 -9 -6 31 -21 59
-40 76 -9 7 -16 17 -16 23 0 6 10 1 23 -11 41 -39 46 -31 62 98 1 8 8 50 14
94 l13 78 -43 44 c-48 49 -45 57 7 18 40 -31 53 -27 30 8 -17 26 -13 40 10 31
11 -4 14 5 14 35 0 35 15 110 35 173 4 11 -6 31 -26 53 -34 40 -32 45 8 19 25
-17 27 -17 37 2 22 39 69 75 149 115 45 22 85 39 88 38 11 -5 51 35 60 59 5
15 0 46 -17 100 -33 102 -36 105 -70 122 l-29 15 25 6 25 6 -22 12 c-13 7 -19
18 -17 29 4 15 -56 164 -141 349 -8 18 -20 55 -27 83 -10 46 -14 51 -39 51
-38 0 -45 16 -10 23 34 7 33 -12 10 232 -6 66 -11 127 -11 137 0 9 -10 19 -25
23 -23 5 -24 7 -9 18 12 9 16 22 12 40 -6 36 -46 150 -56 161 -5 5 -23 4 -41
-3 l-33 -11 28 29 28 29 -23 50 -23 50 -53 -30 c-68 -38 -79 -30 -19 14 53 38
58 63 21 106 -14 17 -25 35 -25 41 0 6 -4 11 -10 11 -5 0 -10 6 -10 13 0 8
-12 24 -26 38 -14 13 -34 38 -46 56 -31 51 -49 56 -84 25 -16 -15 -38 -34 -48
-42 -18 -14 -19 -14 -8 5 6 11 26 36 45 55 l34 35 -45 48 c-25 26 -52 47 -59
47 -8 0 -16 6 -19 13 -3 8 -19 24 -35 36 l-31 23 -29 -28 c-33 -31 -36 -27
-13 18 13 25 13 32 3 39 -7 4 -17 5 -21 3 -4 -3 -8 1 -8 8 0 16 -65 57 -208
129 -85 44 -105 50 -113 39 -7 -13 -9 -12 -9 2 0 24 -74 46 -101 30 -25 -16
-29 -15 -29 7 0 11 -9 21 -22 25 -47 12 -57 7 -64 -31 -11 -64 -26 -74 -21
-16 2 28 1 56 -2 62 -11 18 -179 41 -294 41 l-110 0 6 -52 c5 -43 4 -48 -4
-28 -30 70 -34 75 -71 77 -19 1 -38 -1 -42 -4z m316 -480 c6 -7 20 -13 30 -13
31 0 130 -110 171 -190 49 -99 48 -126 -8 -237 -25 -48 -45 -92 -45 -97 0 -5
-11 -23 -24 -40 -24 -32 -66 -117 -66 -134 0 -15 38 -22 113 -22 52 0 77 5
107 23 22 12 40 27 40 34 0 6 3 18 6 27 5 13 -3 16 -42 17 l-49 2 60 7 c46 6
63 13 75 31 24 36 102 111 149 143 40 28 50 30 160 34 98 4 123 1 151 -13 92
-47 180 -198 188 -319 3 -55 0 -82 -13 -112 -37 -83 -85 -174 -129 -245 -25
-40 -46 -77 -46 -82 0 -5 -13 -26 -28 -46 -16 -20 -37 -54 -47 -76 -10 -21
-32 -62 -50 -90 -18 -27 -44 -72 -59 -100 -30 -57 -75 -136 -125 -222 -19 -32
-42 -71 -51 -88 -9 -16 -38 -67 -66 -113 -27 -45 -65 -110 -85 -145 -22 -37
-53 -74 -78 -92 -40 -28 -49 -30 -154 -33 -157 -5 -198 14 -289 129 -49 61
-105 166 -113 210 -7 37 -2 48 92 223 14 25 19 44 13 50 -6 6 -1 14 13 20 25
13 61 81 53 102 -4 11 -30 14 -108 14 l-102 0 -48 -52 c-26 -29 -48 -57 -48
-64 0 -22 -78 -99 -136 -134 -58 -35 -59 -35 -179 -35 -66 0 -132 3 -146 7
-74 21 -178 198 -187 317 -5 77 11 119 112 294 31 54 56 102 56 107 0 4 4 10
8 12 5 2 15 15 23 30 8 15 49 87 91 160 42 74 89 158 105 188 15 30 31 57 34
60 8 7 43 67 153 266 27 49 52 91 55 94 10 9 31 43 50 85 11 22 38 60 61 83
l42 44 148 -4 c102 -2 153 -7 162 -15z"/>
<path d="M2615 4423 c-11 -2 -29 -6 -41 -8 -21 -5 -53 -47 -101 -133 -14 -26
-29 -49 -33 -52 -11 -8 -90 -169 -90 -184 0 -8 -7 -16 -15 -20 -8 -3 -21 -18
-27 -33 -7 -15 -15 -30 -18 -33 -3 -3 -13 -19 -22 -36 -18 -31 -18 -32 5 -37
12 -3 58 -6 101 -6 43 0 81 -3 84 -6 3 -3 -43 -5 -102 -5 -73 0 -111 -4 -119
-12 -17 -17 -87 -137 -87 -148 0 -5 -6 -15 -13 -22 -21 -21 -120 -191 -221
-378 l-95 -175 31 -16 c43 -22 212 -24 245 -2 12 8 34 39 49 69 15 30 30 57
35 60 25 15 2 24 -61 24 -40 0 -70 4 -70 10 0 6 33 10 79 10 l80 0 33 63 c31
59 35 62 78 69 25 4 194 7 377 8 289 1 334 3 348 17 14 14 17 14 34 -1 13 -12
37 -16 88 -16 79 0 103 6 103 25 0 25 -63 137 -97 173 -28 29 -36 33 -43 22
-6 -8 -10 -10 -10 -4 0 7 -11 9 -31 5 -41 -8 -267 6 -299 18 -22 9 -149 18
-283 20 -33 1 -49 6 -53 16 -4 8 12 46 35 84 49 83 52 108 14 114 -16 2 -9 3
13 2 39 -2 43 0 61 34 44 82 75 135 108 184 19 28 35 57 35 63 0 7 15 34 33
60 52 76 80 145 65 160 -13 11 -165 25 -203 17z"/>
<path d="M2843 4313 c-35 -51 -72 -112 -141 -233 -32 -56 -141 -244 -152 -260
-5 -8 -18 -32 -29 -52 l-19 -37 33 -7 c18 -3 79 -4 135 -2 88 3 103 6 115 23
8 11 18 25 23 30 5 6 21 35 36 64 14 29 35 65 46 78 11 14 20 31 20 39 0 7 4
14 8 16 17 7 102 173 102 200 0 45 -65 165 -99 183 -17 8 -32 15 -34 15 -2 0
-22 -26 -44 -57z"/>
<path d="M3485 3995 c-5 -2 -22 -6 -37 -9 -22 -5 -28 -12 -28 -32 0 -27 46
-114 60 -114 5 0 11 -13 15 -30 4 -16 19 -43 35 -60 28 -29 30 -30 127 -30 84
0 103 3 116 18 24 26 21 47 -15 119 -56 110 -108 143 -218 142 -25 0 -49 -2
-55 -4z"/>
<path d="M3320 3900 c-17 -17 -30 -38 -30 -46 0 -21 -29 -75 -51 -97 -13 -12
-19 -32 -19 -62 0 -50 12 -81 52 -142 15 -23 28 -46 28 -51 0 -5 11 -17 24
-25 20 -14 26 -14 35 -3 6 7 9 21 5 30 -4 11 -1 16 10 16 9 0 16 3 16 8 0 4
-15 7 -34 6 -18 -1 -40 2 -47 7 -9 6 2 9 33 9 53 0 80 8 72 21 -3 5 -16 9 -30
9 -13 0 -24 4 -24 9 0 6 15 8 33 5 29 -4 35 -1 63 43 46 70 45 69 32 100 -27
62 -48 83 -86 85 l-37 1 33 4 c38 5 37 14 -1 70 -27 41 -40 41 -77 3z"/>
<path d="M3548 3673 c-16 -2 -28 -8 -28 -12 0 -4 -24 -45 -54 -92 -29 -46 -63
-105 -75 -131 -12 -26 -30 -52 -40 -58 -19 -10 -239 -12 -566 -6 -103 2 -164
-1 -195 -10 -35 -11 -64 -11 -142 -2 -54 6 -100 9 -104 6 -10 -11 73 -170 114
-220 11 -13 19 -15 33 -7 11 5 19 6 19 2 0 -19 60 -33 144 -33 121 0 164 -8
171 -31 7 -23 -14 -95 -32 -110 -7 -6 -13 -20 -13 -30 0 -11 -4 -19 -9 -19 -5
0 -19 -21 -31 -46 -12 -25 -32 -57 -44 -72 -12 -15 -37 -57 -54 -93 -30 -61
-32 -69 -22 -115 6 -27 29 -78 50 -112 51 -79 71 -80 115 -5 27 47 62 105 122
202 28 45 28 49 1 54 -18 3 -17 4 4 3 31 -1 44 16 132 174 71 126 114 190 126
190 20 0 9 -35 -30 -97 -37 -57 -57 -91 -88 -149 -6 -11 -63 -108 -126 -216
-114 -193 -136 -236 -136 -262 0 -21 48 -33 134 -35 93 -2 134 13 164 62 11
17 36 59 56 91 20 33 50 88 67 122 16 35 34 66 39 69 5 3 23 33 40 66 17 34
37 68 45 76 8 8 31 47 51 86 19 40 48 92 64 117 16 25 29 51 29 58 1 7 14 32
29 55 16 23 43 68 61 100 17 32 38 65 46 74 22 21 18 43 -7 45 -95 7 -101 11
-23 17 66 6 70 7 80 36 5 16 20 40 33 54 25 27 78 131 87 172 6 23 3 27 -26
33 -33 6 -165 6 -211 -1z"/>
<path d="M2233 3249 c-108 -169 -108 -167 -47 -274 39 -69 68 -105 83 -105 17
0 80 71 75 85 -3 7 6 19 20 28 16 11 27 30 32 54 4 21 9 42 12 48 13 21 -1 72
-34 128 -19 32 -34 61 -34 65 0 4 -10 20 -23 36 l-23 29 -61 -94z"/>
<path d="M1833 3053 c-19 -7 -16 -32 10 -83 39 -78 34 -77 93 -19 65 65 72 55
9 -12 -55 -59 -57 -80 -9 -109 27 -17 56 -24 124 -28 97 -5 150 8 150 37 0 17
-32 83 -83 169 l-31 52 -126 -1 c-69 0 -131 -3 -137 -6z"/>
</g>
</svg>
