<?xml version="1.0" standalone="no"?>
<!DOCTYPE svg PUBLIC "-//W3C//DTD SVG 20010904//EN"
 "http://www.w3.org/TR/2001/REC-SVG-20010904/DTD/svg10.dtd">
<svg version="1.0" xmlns="http://www.w3.org/2000/svg"
 width="544.000000pt" height="544.000000pt" viewBox="0 0 544.000000 544.000000"
 preserveAspectRatio="xMidYMid meet">
<metadata>
Created by potrace 1.16, written by Peter Selinger 2001-2019
</metadata>
<g transform="translate(0.000000,544.000000) scale(0.100000,-0.100000)"
fill="#000000" stroke="none">
<path d="M0 5305 c0 -111 3 -137 15 -141 19 -8 19 -24 0 -24 -13 0 -15 -131
-15 -1120 0 -1097 0 -1120 19 -1120 27 0 104 -34 192 -86 l76 -44 164 10 c178
10 176 10 264 35 33 9 70 19 83 22 25 6 27 21 12 85 -14 65 -30 150 -33 179
-1 15 -8 34 -15 42 -7 8 -9 17 -3 19 5 2 7 81 4 201 -6 185 -7 197 -25 197
-11 0 -16 5 -13 10 4 6 14 9 23 8 12 -2 17 4 17 22 0 20 -6 26 -28 28 -15 2
-27 8 -27 13 0 12 17 12 40 -1 20 -11 24 -2 36 95 14 118 97 397 146 490 8 17
18 43 22 59 4 17 20 46 35 65 24 32 47 69 101 163 19 33 41 63 107 146 29 35
53 68 53 73 0 5 7 9 15 9 9 0 20 11 25 25 5 14 13 25 18 25 5 0 24 14 43 31
19 17 58 52 88 77 93 80 87 70 69 119 -9 23 -9 36 -1 44 7 7 12 0 17 -26 6
-31 10 -35 29 -29 12 3 29 12 37 19 37 30 214 126 305 166 122 52 123 53 117
84 -5 31 13 33 29 4 l11 -22 24 25 c21 20 25 36 28 91 l3 67 -488 0 c-451 0
-488 -1 -482 -17 5 -12 3 -14 -7 -8 -10 6 -11 2 -6 -19 9 -36 0 -33 -20 9
l-16 35 -180 0 -179 0 21 -32 22 -33 -29 33 -29 32 -330 0 -329 0 50 -45 c66
-58 44 -58 -24 0 -80 68 -81 67 -81 -90z"/>
<path d="M2260 5430 c0 -5 12 -17 28 -27 15 -10 35 -27 44 -39 15 -18 23 -20
70 -13 29 4 112 8 185 8 77 1 134 5 138 11 3 6 17 7 29 4 13 -3 74 -9 137 -14
182 -14 301 -39 477 -101 65 -23 72 -23 73 -1 1 12 3 11 7 -5 5 -17 49 -43
167 -103 88 -44 189 -99 225 -121 54 -35 67 -39 83 -29 25 15 46 -2 28 -24
-10 -12 -6 -21 27 -51 22 -20 53 -45 69 -57 15 -12 40 -35 54 -50 14 -15 31
-28 37 -28 7 0 12 -6 12 -12 0 -9 4 -8 10 2 10 15 12 11 14 -21 1 -16 80 -89
95 -89 5 0 16 -18 26 -40 28 -62 77 -100 128 -100 23 0 69 -7 102 -16 33 -9
69 -17 81 -18 11 -1 26 -6 33 -10 7 -4 42 -5 79 -1 37 3 94 8 127 10 33 2 71
7 85 10 14 4 43 9 65 12 22 3 60 17 85 31 25 14 56 31 68 38 33 17 56 51 39
57 -8 3 0 17 22 41 l35 36 -35 -10 -34 -9 25 17 c13 9 35 27 49 38 l25 21 -22
12 c-16 8 -28 9 -41 1 -11 -5 -28 -10 -38 -10 -42 1 182 98 235 102 l32 2 0
278 0 278 -110 0 c-110 0 -162 -12 -182 -44 -4 -6 -8 -7 -8 -2 0 5 7 18 17 28
15 17 12 18 -81 18 l-98 0 -51 -45 c-63 -55 -85 -59 -34 -7 20 21 37 41 37 45
0 4 -340 7 -755 7 -644 -1 -755 -3 -755 -15 0 -7 -5 -17 -11 -21 -8 -4 -9 0
-4 15 l6 21 -537 0 c-499 0 -538 -1 -550 -17 -13 -17 -13 -17 -14 0 0 11 -8
17 -25 17 -14 0 -25 -4 -25 -10z"/>
<path d="M2553 5283 c-22 -3 -33 -10 -33 -21 0 -12 -3 -13 -12 -4 -7 7 -26 12
-43 12 -37 0 -125 -28 -125 -40 0 -5 -9 -7 -21 -5 -14 3 -30 -6 -50 -28 -51
-55 -33 -121 41 -155 48 -21 58 -21 173 -1 100 19 439 15 532 -5 141 -30 199
-48 292 -86 53 -22 108 -40 124 -40 16 0 29 -4 29 -9 0 -8 161 -111 175 -111
4 0 22 -12 39 -27 66 -56 91 -73 103 -69 7 3 21 -10 32 -28 11 -18 32 -38 46
-44 14 -6 25 -16 25 -21 0 -17 31 -21 46 -6 17 17 34 20 34 6 0 -5 -6 -14 -14
-20 -22 -19 8 -71 41 -71 19 0 24 -4 19 -16 -4 -10 12 -33 46 -67 29 -29 52
-55 50 -59 -3 -11 29 -25 76 -33 41 -7 46 -5 78 29 19 20 34 43 34 52 0 20
-25 45 -42 42 -7 -2 -12 9 -13 28 0 18 -8 41 -17 51 -10 11 -18 25 -18 32 0 8
-5 9 -19 1 -11 -5 -22 -10 -25 -10 -12 0 -5 28 9 40 16 14 10 31 -25 68 -16
17 -25 21 -33 13 -6 -6 -16 -11 -22 -11 -5 0 -1 7 10 16 19 15 18 17 -36 67
-31 29 -58 57 -60 63 -2 7 -34 33 -71 58 -51 36 -73 46 -90 41 -18 -5 -20 -4
-8 4 13 10 11 14 -10 31 -14 11 -28 20 -31 20 -4 0 -35 19 -70 43 -82 54 -266
146 -304 152 -59 8 -80 15 -90 28 -14 19 -96 45 -180 57 -38 5 -97 14 -130 20
-65 11 -409 21 -462 13z"/>
<path d="M2015 5150 c-4 -6 -10 -8 -15 -5 -5 3 -11 1 -15 -5 -4 -6 -10 -8 -15
-5 -4 3 -10 -5 -13 -16 -4 -14 -11 -20 -21 -16 -20 8 -72 -8 -69 -21 2 -6 -13
-14 -31 -18 -19 -3 -42 -15 -52 -25 -9 -10 -23 -19 -31 -19 -20 0 -70 -31
-108 -67 -8 -7 -18 -13 -24 -13 -6 0 -11 -4 -11 -10 0 -5 -6 -10 -13 -10 -15
0 -206 -155 -257 -209 -19 -21 -46 -52 -60 -70 -14 -18 -31 -39 -37 -46 -26
-28 -183 -270 -183 -282 0 -7 -7 -13 -15 -13 -9 0 -15 -9 -15 -22 1 -21 2 -22
14 -5 17 22 26 22 26 -3 0 -11 -6 -20 -13 -20 -22 0 -53 -41 -77 -100 -12 -30
-26 -63 -31 -72 -5 -10 -9 -26 -9 -36 0 -10 -4 -22 -9 -27 -15 -16 -69 -234
-76 -310 -19 -200 -23 -489 -6 -530 5 -11 16 -63 26 -115 19 -99 54 -184 81
-194 9 -3 35 -6 60 -6 33 0 47 5 56 20 7 11 21 20 30 20 23 0 23 19 -1 151
-10 57 -22 142 -25 189 -10 129 -17 175 -27 178 -14 6 -10 22 5 22 11 0 16 20
21 78 11 129 35 280 54 342 20 63 19 70 -12 70 -10 0 -17 5 -14 13 2 6 15 12
28 12 18 0 27 8 36 35 7 19 10 41 8 48 -3 6 0 12 5 12 6 0 24 30 42 68 17 37
40 78 50 91 13 17 17 33 13 53 -4 16 -2 28 4 28 5 0 21 11 35 24 27 24 33 50
16 61 -21 13 -10 27 16 21 27 -7 33 -3 101 80 44 54 124 135 159 161 86 64
103 80 104 96 0 11 8 17 25 17 14 0 36 11 48 24 12 13 33 27 47 31 14 4 36 17
50 27 21 17 73 43 90 46 3 0 32 15 64 34 50 28 60 38 63 63 5 42 -11 111 -25
108 -7 -2 -18 12 -26 31 -16 38 -31 51 -41 36z"/>
<path d="M2653 4919 c5 -47 4 -50 -6 -26 -8 21 -16 27 -30 23 -13 -3 -21 1
-24 15 -3 10 -13 20 -22 21 -45 5 -57 4 -69 -5 -7 -6 -15 -7 -18 -4 -6 6 -33
-20 -50 -49 -13 -22 1 -74 20 -74 14 0 105 -90 106 -105 1 -5 8 -34 16 -63 22
-75 3 -115 -24 -53 -7 16 -27 43 -45 59 -65 62 -88 82 -94 82 -4 0 -14 6 -22
13 -9 7 -36 22 -61 32 -25 10 -57 27 -72 37 -32 22 -120 25 -137 4 -7 -8 -26
-18 -42 -21 -21 -5 -34 -16 -43 -38 -12 -31 -13 -31 -20 -9 -6 18 -12 21 -34
16 -39 -10 -42 -12 -42 -43 0 -36 -9 -44 -27 -26 -19 20 -39 19 -61 -2 -9 -10
-64 -54 -122 -97 -58 -44 -112 -88 -120 -98 -8 -10 -32 -37 -53 -60 -21 -23
-50 -61 -65 -85 -14 -23 -34 -44 -44 -46 -20 -6 -41 -51 -39 -84 0 -13 -4 -23
-10 -23 -15 0 -48 -42 -49 -62 0 -9 -6 -18 -12 -21 -9 -3 -7 -11 7 -27 l20
-23 -22 5 c-18 5 -27 -2 -47 -36 -16 -27 -23 -51 -19 -65 4 -15 2 -20 -8 -16
-10 4 -17 -8 -25 -40 -8 -36 -7 -47 5 -60 14 -13 12 -15 -12 -15 -24 0 -27 -4
-27 -35 0 -19 -5 -35 -11 -35 -18 0 1 -20 39 -39 l37 -19 -41 5 c-49 6 -54 1
-61 -75 -3 -31 -9 -61 -13 -67 -4 -5 -6 -53 -6 -105 l1 -95 50 -12 50 -12 -47
2 c-50 2 -64 -7 -27 -16 12 -3 18 -10 15 -16 -4 -6 -13 -8 -21 -4 -12 4 -15
-4 -15 -33 0 -65 12 -114 26 -114 8 0 14 -4 14 -10 0 -5 -7 -10 -15 -10 -8 0
-15 -1 -15 -3 0 -12 34 -114 40 -122 4 -5 10 -21 12 -35 3 -23 7 -25 53 -25
28 0 62 3 78 8 15 4 27 4 27 -1 0 -4 -24 -15 -52 -23 -32 -9 -53 -21 -53 -30
0 -8 6 -13 14 -11 22 5 94 -28 109 -50 8 -11 35 -33 60 -49 36 -23 58 -29 101
-29 31 0 63 -5 71 -10 10 -7 -10 -10 -65 -10 l-81 0 -53 51 c-31 30 -59 48
-67 45 -8 -3 -21 -9 -29 -12 -10 -4 -15 0 -15 10 0 9 -4 16 -10 16 -5 0 -10
-7 -10 -15 0 -8 5 -15 10 -15 6 0 10 -20 10 -45 0 -102 81 -147 205 -114 22 5
49 14 60 19 11 5 40 14 65 21 79 19 119 48 131 93 15 55 14 69 -10 160 -27
103 -26 135 4 202 14 30 25 57 25 59 0 3 28 51 61 107 34 57 75 128 92 158 16
30 38 67 49 82 10 14 18 28 18 31 0 4 39 73 191 337 23 41 62 108 86 148 24
40 43 75 43 77 0 3 18 31 39 63 21 31 44 76 51 98 7 23 33 65 58 93 43 49 47
51 98 51 46 0 54 3 54 18 0 18 29 52 43 52 15 0 6 -40 -10 -49 -27 -15 -15
-18 79 -24 118 -8 168 -35 247 -135 83 -106 110 -202 74 -267 -9 -16 -36 -68
-60 -115 -24 -46 -48 -87 -52 -90 -17 -11 -52 -92 -49 -113 3 -21 8 -22 88
-20 46 1 99 4 118 8 30 5 33 9 28 30 -5 19 -2 24 16 27 39 5 25 23 -22 28
l-45 5 54 6 c42 5 59 12 72 30 45 61 79 93 143 136 l69 46 116 -2 c64 -1 120
-6 126 -12 5 -5 18 -9 28 -9 11 0 28 -11 39 -25 47 -60 132 -73 173 -29 14 15
25 33 25 40 0 8 4 14 9 14 5 0 12 11 15 25 3 13 17 35 31 49 14 14 25 30 25
36 0 6 5 18 11 29 14 22 4 84 -16 104 -8 8 -11 18 -7 21 3 4 -2 4 -12 0 -21
-8 -38 13 -30 38 4 14 0 16 -26 13 -27 -3 -30 -1 -24 13 26 61 -8 92 -54 50
-15 -13 -36 -31 -46 -39 -18 -12 -19 -12 -11 1 4 8 21 32 38 53 16 20 24 37
18 37 -6 0 -13 11 -17 25 -12 47 -98 113 -138 106 -5 -1 -12 3 -16 9 -4 7 -16
1 -33 -16 -31 -30 -33 -27 -13 21 13 31 13 33 -2 28 -9 -4 -29 -20 -44 -37
-35 -40 -36 -27 -1 25 l27 40 -30 25 c-16 13 -49 36 -74 51 -25 15 -49 33 -53
40 -4 7 -24 13 -42 13 -22 0 -35 5 -35 13 0 8 -22 19 -50 27 -27 7 -50 17 -50
20 0 10 -48 30 -72 30 -12 0 -30 -8 -41 -17 -19 -17 -20 -17 -15 8 4 25 2 27
-35 33 -44 7 -56 -2 -58 -44 0 -14 -5 -34 -10 -45 -6 -14 -8 -1 -4 43 3 45 1
64 -8 66 -6 2 -28 8 -47 14 -19 6 -107 13 -194 17 l-159 7 6 -53z"/>
<path d="M5384 4606 c-17 -12 -29 -27 -26 -34 2 -7 -3 -12 -12 -12 -9 0 -16
-7 -16 -15 0 -8 7 -15 15 -15 30 0 1 -32 -50 -56 -29 -13 -55 -30 -58 -38 -5
-13 0 -13 41 0 75 23 102 27 102 16 0 -6 -21 -18 -47 -28 -27 -9 -52 -21 -57
-26 -6 -4 -18 -8 -27 -8 -9 0 -43 -12 -75 -27 -32 -14 -72 -26 -89 -25 -74 3
-176 -10 -191 -26 -18 -18 -121 -21 -218 -7 -49 7 -64 5 -92 -10 -43 -23 -48
-65 -17 -160 9 -27 17 -57 18 -65 2 -24 26 -122 37 -155 20 -58 31 -75 52 -75
21 0 21 -1 -1 -18 -22 -17 -22 -19 -12 -152 8 -118 12 -137 30 -151 18 -14 19
-17 5 -28 -27 -23 -19 -83 24 -176 82 -178 91 -194 106 -188 12 5 15 0 13 -23
-1 -16 4 -42 11 -59 6 -16 25 -66 40 -110 16 -44 38 -101 50 -128 11 -26 18
-51 15 -57 -3 -5 0 -12 7 -17 7 -4 19 -19 26 -33 18 -37 52 -141 52 -160 0
-28 32 -47 88 -52 74 -7 93 -28 25 -28 -32 0 -53 5 -56 13 -2 6 -7 9 -11 5 -4
-3 6 -20 23 -36 17 -16 31 -34 31 -41 0 -28 54 -68 167 -122 68 -32 125 -59
128 -59 3 0 5 279 5 619 0 486 -3 620 -12 624 -10 4 -10 6 0 6 8 1 12 23 12
75 0 50 -4 76 -12 79 -10 4 -10 6 0 6 9 1 12 108 12 501 0 394 -3 500 -12 499
-7 0 -27 -11 -44 -23z"/>
<path d="M2675 4422 l-110 -3 -50 -67 c-27 -37 -57 -80 -65 -97 -8 -16 -17
-32 -21 -35 -3 -3 -9 -17 -12 -32 -4 -15 -13 -33 -21 -40 -20 -20 -56 -94 -49
-101 3 -3 -6 -16 -20 -29 -13 -13 -36 -46 -51 -75 -24 -48 -25 -53 -8 -62 15
-9 15 -10 -5 -11 -13 0 -24 -8 -28 -20 -4 -11 -11 -18 -16 -15 -5 4 -9 1 -9
-5 0 -6 -18 -39 -39 -73 -50 -80 -84 -138 -121 -209 -16 -31 -34 -59 -40 -63
-5 -3 -10 -13 -10 -22 0 -9 -8 -26 -19 -37 -10 -12 -38 -57 -61 -101 -24 -44
-53 -96 -65 -115 -55 -89 -38 -106 108 -103 87 1 113 5 128 19 11 9 17 19 15
22 -3 2 8 15 25 29 16 14 29 33 29 43 0 10 5 22 10 25 25 15 5 25 -49 25 -33
0 -63 5 -66 10 -4 6 22 10 70 10 67 0 79 3 96 23 10 12 18 26 19 31 0 5 11 24
25 42 31 41 55 44 330 48 135 1 214 6 243 16 38 12 42 16 42 46 0 42 -9 64
-26 64 -8 0 -14 4 -14 9 0 10 -41 27 -87 36 -41 8 -46 36 -5 30 15 -2 48 -6
75 -9 30 -4 57 -14 73 -29 18 -17 33 -22 55 -19 26 4 30 8 27 31 -3 23 -9 27
-53 33 -84 12 -119 20 -134 32 -9 7 -76 12 -173 15 -115 2 -161 7 -164 16 -3
6 7 34 22 61 111 201 184 327 205 350 10 11 32 45 47 75 16 30 45 84 66 122
59 106 51 114 -119 109z"/>
<path d="M2878 4362 c-26 -30 -118 -180 -223 -362 -22 -38 -62 -107 -88 -152
-73 -126 -75 -122 69 -126 105 -2 124 0 143 16 21 16 64 82 93 142 6 14 18 32
25 41 12 14 59 101 97 176 6 13 14 23 19 23 12 0 8 84 -5 113 -8 16 -21 27
-34 27 -28 0 -36 10 -22 27 12 15 -4 63 -21 63 -5 0 -16 7 -24 15 -13 12 -17
12 -29 -3z"/>
<path d="M4335 4144 c-57 -61 -60 -91 -26 -226 20 -82 33 -114 45 -116 20 -4
21 -21 1 -28 -8 -4 -13 -9 -10 -13 6 -10 16 -156 19 -276 3 -87 7 -108 32
-160 16 -33 32 -61 37 -63 4 -2 7 -15 7 -28 0 -31 35 -106 65 -139 14 -14 30
-43 36 -65 7 -22 15 -37 20 -35 8 5 13 -8 24 -62 4 -18 10 -33 14 -33 3 0 11
-12 17 -28 8 -20 18 -28 39 -30 38 -3 58 -22 24 -22 -39 0 -41 -9 -8 -56 24
-35 36 -44 59 -44 32 0 43 -26 15 -36 -11 -5 -12 -9 -2 -19 6 -7 19 -22 27
-34 8 -11 20 -21 28 -21 7 0 15 -6 18 -13 4 -11 28 -14 72 -9 14 2 16 32 2 32
-7 0 -7 6 -2 18 5 9 6 26 2 37 -4 11 -5 26 -2 34 3 8 -2 19 -11 26 -21 15 -47
76 -47 110 0 40 -139 382 -181 445 -23 35 -45 144 -58 285 -7 66 -14 144 -18
173 l-6 54 -32 -6 c-19 -4 -36 -2 -40 4 -3 5 3 10 14 10 31 0 51 11 51 28 0
40 -81 286 -109 330 -4 8 -23 15 -42 16 -28 2 -41 -5 -74 -40z"/>
<path d="M3500 3992 c-47 -6 -80 -24 -80 -44 0 -11 14 -40 31 -64 25 -37 33
-43 45 -33 11 9 18 9 26 1 14 -14 0 -35 -19 -28 -8 3 -11 1 -8 -4 9 -15 67
-21 105 -11 34 9 30 11 -29 14 -13 1 -26 8 -28 15 -3 8 10 12 49 12 41 0 58 5
71 20 9 11 12 20 7 20 -6 0 -10 7 -10 15 0 8 7 15 15 15 22 0 18 24 -7 47 -23
20 -105 33 -168 25z"/>
<path d="M4123 3933 c-13 -2 -23 -10 -23 -17 0 -6 -13 -20 -30 -29 -16 -10
-30 -22 -30 -26 0 -5 -13 -14 -30 -21 -16 -7 -30 -19 -30 -26 0 -8 -7 -14 -15
-14 -8 0 -15 -4 -15 -10 0 -5 -7 -10 -15 -10 -17 0 -34 -35 -44 -90 -5 -25 -3
-39 9 -48 13 -11 13 -12 -4 -10 -20 3 -23 -1 -58 -77 -13 -27 -26 -52 -29 -55
-4 -3 -17 -30 -30 -60 -12 -30 -26 -57 -30 -60 -12 -9 -28 -80 -18 -80 6 0 8
-4 5 -9 -3 -5 1 -11 9 -15 8 -3 15 -14 15 -25 0 -23 67 -45 161 -54 55 -5 126
-34 162 -65 9 -8 17 -12 17 -8 0 3 15 0 33 -7 18 -7 72 -12 127 -12 102 0 115
8 78 49 -11 12 -15 28 -12 41 3 12 -1 37 -9 56 -7 19 -17 51 -21 72 -6 34 -9
37 -42 37 -41 0 -38 15 5 23 28 6 29 8 20 39 -5 18 -9 58 -9 89 0 31 -3 59 -7
62 -3 4 -5 35 -4 70 3 86 -6 116 -38 129 l-26 10 25 10 c15 6 20 12 12 15 -6
3 -10 9 -7 13 7 12 -21 79 -42 102 -16 18 -20 19 -60 11z"/>
<path d="M3342 3910 c-35 -21 -53 -50 -49 -77 1 -10 -2 -19 -7 -20 -15 -3 -39
-67 -26 -71 5 -2 10 -14 10 -27 0 -45 10 -55 55 -55 24 0 47 5 50 10 3 6 21
10 40 10 21 0 35 6 39 16 8 22 -4 40 -15 23 -7 -12 -9 -12 -9 0 0 7 -6 11 -15
7 -18 -7 -45 3 -45 16 0 6 17 8 45 4 36 -6 45 -4 45 8 0 8 -14 17 -32 21 l-32
7 30 13 29 12 -25 6 c-14 4 -34 8 -45 10 -15 3 -13 6 12 12 29 7 31 9 21 29
-6 11 -19 31 -28 43 -17 22 -17 22 -48 3z"/>
<path d="M2350 3372 c0 -5 10 -8 23 -8 20 1 22 -4 23 -49 2 -58 15 -95 51
-147 21 -30 32 -38 57 -38 18 0 36 -4 42 -9 5 -5 64 -11 131 -13 152 -4 161
-9 138 -86 -9 -29 -20 -52 -26 -52 -5 0 -7 -11 -3 -25 4 -15 2 -25 -4 -25 -6
0 -24 -21 -39 -47 -15 -27 -39 -64 -54 -83 -15 -19 -31 -51 -34 -72 l-7 -36
63 5 c45 5 60 3 55 -5 -4 -7 -31 -12 -59 -12 -40 0 -57 -5 -70 -20 -9 -11 -17
-24 -17 -29 0 -21 61 -139 85 -164 33 -34 36 -32 101 66 26 40 59 90 74 112
25 38 78 125 110 183 103 183 168 282 185 282 8 0 15 -3 15 -6 0 -7 -20 -45
-32 -58 -15 -18 -79 -128 -111 -191 -17 -33 -47 -85 -67 -115 -40 -60 -139
-234 -165 -291 -16 -34 -16 -38 0 -63 13 -19 26 -27 44 -25 14 1 34 -2 44 -6
10 -4 42 -5 72 -3 65 5 118 41 136 93 7 19 17 35 22 35 4 0 5 5 2 11 -4 6 -9
8 -12 5 -8 -7 -43 13 -43 24 0 15 37 12 54 -5 17 -18 26 -19 26 -4 0 17 59
137 95 191 75 116 178 300 190 338 4 14 13 31 19 39 20 25 55 146 44 152 -6 4
-38 10 -72 14 -33 3 -72 13 -85 22 -25 16 -100 30 -226 42 -44 4 -90 13 -101
19 -12 6 -24 9 -27 5 -3 -3 -14 -2 -24 2 -25 11 -26 11 -148 34 -119 22 -210
27 -220 11 -3 -5 -17 -10 -31 -10 -13 0 -24 5 -24 10 0 14 -27 12 -33 -2 -4
-10 -6 -10 -6 0 -1 14 -161 18 -161 4z"/>
<path d="M2270 3302 c-27 -41 -36 -56 -74 -125 -14 -26 -26 -52 -26 -57 0 -5
26 -6 58 -3 112 12 147 10 146 -9 -2 -22 31 -24 39 -4 6 16 -68 179 -84 184
-5 2 -9 9 -9 17 0 7 -6 17 -13 23 -9 8 -18 1 -37 -26z"/>
<path d="M3596 3123 c-26 -26 -96 -127 -96 -138 0 -3 -20 -38 -44 -78 -24 -39
-56 -94 -71 -122 -16 -27 -45 -78 -64 -112 -20 -34 -65 -113 -100 -174 -69
-121 -125 -191 -169 -207 -29 -11 -160 -24 -229 -23 -37 1 -43 -2 -43 -19 0
-29 38 -100 56 -107 9 -3 26 -15 39 -27 56 -51 71 -61 150 -100 28 -14 60 -34
72 -44 21 -19 63 -101 88 -172 1 -3 4 -12 7 -20 3 -8 12 -37 19 -65 7 -27 18
-61 25 -74 7 -13 10 -29 8 -36 -6 -15 68 -81 99 -88 12 -3 60 -19 107 -37 100
-37 314 -84 347 -75 14 3 23 1 23 -6 0 -13 141 -6 163 8 7 4 23 9 36 11 13 2
30 9 37 17 8 7 23 16 33 20 29 9 23 59 -7 63 -18 3 -21 6 -12 17 8 9 8 15 0
20 -15 9 -12 35 4 35 8 0 21 -9 29 -20 8 -11 16 -17 20 -14 7 7 -2 34 -17 51
-33 38 -37 45 -31 51 4 4 18 -6 31 -21 15 -17 31 -27 39 -23 22 8 19 18 -22
77 -33 48 -27 52 17 10 13 -13 15 -11 18 15 1 16 7 38 12 49 5 11 11 45 14 75
3 30 8 76 12 101 6 45 5 49 -35 92 -53 57 -53 68 1 23 46 -39 59 -40 38 -1
-12 22 -11 27 4 38 9 7 19 28 21 47 2 19 11 70 20 113 l17 79 -23 24 c-23 24
-14 35 10 12 11 -11 15 -9 25 7 18 31 76 83 114 101 52 25 107 79 110 108 1
14 -2 26 -6 26 -17 0 -52 69 -55 108 -3 24 -7 45 -11 49 -3 3 -6 16 -6 28 0
28 -27 52 -64 57 -16 1 -31 9 -34 17 -3 9 2 11 17 6 25 -8 26 3 7 48 -16 38
-82 77 -131 77 -19 0 -70 20 -126 49 -82 42 -104 49 -174 54 -103 8 -145 15
-159 26 -6 5 -38 12 -71 16 -58 6 -62 5 -89 -22z"/>
<path d="M1838 3052 c-14 -6 -15 -11 -3 -45 7 -21 24 -49 38 -63 l25 -25 24
23 c79 79 94 80 31 1 -28 -35 -31 -42 -16 -45 33 -7 62 4 102 39 31 26 41 42
41 64 0 16 -5 29 -11 29 -5 0 -8 4 -5 9 11 17 -186 29 -226 13z"/>
<path d="M2567 3029 c-10 -6 -28 -8 -40 -5 -12 2 -31 -2 -41 -10 -11 -8 -16
-14 -12 -14 4 0 -12 -24 -36 -53 -24 -29 -54 -69 -67 -88 -31 -46 -83 -85
-140 -105 -25 -9 -55 -20 -66 -24 -11 -5 -54 -16 -95 -25 -41 -9 -88 -22 -105
-29 -62 -28 -138 -56 -151 -56 -7 0 -21 -8 -31 -19 -10 -10 -38 -22 -63 -26
-25 -4 -58 -13 -74 -21 -16 -8 -35 -14 -42 -14 -29 0 -64 -25 -74 -53 -18 -52
-12 -77 27 -118 33 -35 39 -37 45 -22 7 14 7 12 4 -5 -3 -17 6 -35 34 -65 73
-80 85 -95 110 -137 14 -23 32 -50 40 -59 31 -36 92 -157 131 -258 l23 -62 21
19 c33 31 38 24 14 -19 l-22 -40 22 -138 c29 -178 29 -191 6 -346 -6 -37 -3
-48 19 -74 14 -17 23 -33 19 -37 -3 -3 5 -6 19 -6 28 0 108 38 108 52 0 4 7 8
15 8 8 0 15 4 15 9 0 5 9 11 19 14 22 5 61 79 61 114 0 13 5 23 10 23 13 0 13
141 0 245 -5 44 -11 116 -13 160 -4 90 12 139 71 212 18 23 32 46 32 52 0 6
12 24 28 40 105 111 105 111 107 276 2 117 6 147 19 160 17 18 18 23 20 130 1
62 6 81 48 165 45 91 46 95 27 108 -30 21 -23 32 21 32 35 0 42 4 65 40 14 22
25 49 25 60 0 17 -7 20 -39 20 -28 0 -41 -5 -46 -17 -6 -17 -7 -17 -16 0 -11
19 -26 21 -52 6z"/>
<path d="M0 2475 c0 -358 0 -365 19 -355 28 14 36 12 21 -5 -7 -8 -19 -15 -26
-15 -10 0 -14 -13 -14 -40 0 -24 5 -40 12 -40 9 0 9 -3 0 -12 -7 -7 -12 -27
-12 -45 0 -25 4 -33 18 -33 16 -1 16 -1 0 -13 -15 -12 -17 -38 -18 -216 l0
-203 32 23 c18 12 41 31 51 41 12 12 32 18 60 18 32 0 50 7 77 30 44 38 71 42
34 6 -14 -15 -13 -16 15 -16 16 0 37 7 46 16 11 11 20 13 26 7 7 -7 19 -3 37
14 14 13 33 22 42 20 11 -3 21 6 30 26 11 25 11 46 -3 135 -16 103 -34 142
-49 102 -7 -20 -48 -47 -48 -32 0 5 14 23 31 41 18 19 29 41 28 54 -3 33 15
70 56 115 20 22 42 49 48 60 7 11 27 41 45 67 17 25 32 51 32 57 0 6 7 20 17
30 15 17 15 18 -5 18 -13 0 -22 6 -22 15 0 8 9 15 20 15 24 0 37 27 21 43 -20
20 -12 29 19 22 24 -5 31 -3 36 12 10 26 45 63 61 63 8 0 16 6 19 14 3 8 22
17 42 22 20 4 44 9 52 11 8 2 20 5 27 5 7 1 10 5 7 9 -2 4 0 10 6 14 13 8 13
82 0 90 -5 3 -10 15 -10 26 0 10 -4 19 -9 19 -5 0 -16 16 -23 36 -12 35 -13
36 -63 31 -27 -2 -75 -9 -105 -15 -30 -6 -116 -16 -191 -21 -74 -6 -146 -15
-160 -20 -17 -7 -19 -10 -6 -10 30 -1 18 -21 -13 -21 -16 0 -30 4 -30 9 0 5
-13 14 -30 21 -16 7 -41 22 -56 35 -36 31 -145 85 -172 85 l-21 0 -1 -365z"/>
<path d="M1042 2800 c-29 -12 -44 -50 -26 -68 16 -16 18 -38 4 -47 -16 -10 26
-82 52 -89 36 -9 87 -7 109 5 41 21 43 57 7 152 -18 48 -88 70 -146 47z"/>
<path d="M4683 2484 c-7 -3 -9 -12 -6 -20 5 -14 -6 -18 -39 -15 -9 1 -22 -8
-28 -19 -10 -19 -17 -21 -55 -16 -43 7 -95 0 -93 -13 4 -37 -2 -43 -41 -36
-38 6 -40 5 -60 -32 -10 -22 -25 -67 -31 -102 -11 -59 -10 -63 12 -81 l23 -19
-22 -1 c-27 0 -38 -34 -52 -170 -17 -153 -31 -274 -35 -285 -1 -5 3 -16 11
-23 18 -19 16 -29 -8 -35 -12 -3 -18 -10 -15 -15 3 -5 -1 -27 -8 -48 -7 -22
-19 -57 -26 -79 -18 -56 -47 -91 -102 -125 -54 -34 -107 -42 -253 -41 -109 0
-150 6 -330 46 -165 36 -176 37 -186 2 -7 -25 -1 -34 49 -82 30 -30 63 -55 72
-55 8 0 33 -18 55 -40 22 -21 44 -39 48 -40 4 0 22 -14 40 -30 18 -17 43 -33
57 -37 14 -3 32 -11 40 -18 46 -38 88 -38 126 0 9 8 23 15 32 15 146 3 344 46
402 88 67 49 112 101 105 122 -5 16 -2 20 18 20 21 0 28 9 47 62 23 64 46 209
36 234 -3 8 -14 14 -24 14 -23 0 -46 25 -38 39 4 6 19 4 41 -5 19 -8 35 -13
35 -10 0 2 5 27 10 56 13 67 6 90 -26 90 -19 0 -25 5 -22 18 2 11 13 17 33 17
25 0 30 5 33 25 15 144 37 264 55 303 22 51 64 83 140 107 39 12 66 44 47 55
-17 10 -2 24 20 18 11 -3 20 -14 20 -25 0 -16 3 -17 22 -7 31 17 48 35 40 43
-3 4 4 9 16 13 16 4 22 13 22 32 -1 26 -30 71 -48 71 -5 0 -22 7 -38 14 -33
17 -103 28 -121 20z"/>
<path d="M1208 2407 c-16 -6 -28 -15 -28 -21 0 -21 34 -101 47 -109 7 -4 13
-15 13 -22 0 -8 6 -15 14 -15 8 0 17 -9 21 -20 8 -24 44 -69 113 -136 28 -28
52 -57 52 -65 0 -7 17 -33 38 -58 101 -122 160 -252 177 -389 12 -93 4 -399
-11 -423 -2 -4 -2 -20 2 -34 6 -24 7 -24 20 -8 12 16 13 17 14 1 0 -9 -4 -20
-10 -23 -5 -3 -14 -23 -20 -45 -6 -21 -17 -46 -25 -54 -9 -8 -18 -36 -22 -62
-5 -42 -4 -47 11 -41 21 8 35 -21 15 -34 -8 -5 -10 -9 -5 -9 5 0 2 -8 -7 -17
-8 -10 -19 -31 -23 -48 -4 -16 -10 -34 -14 -40 -15 -21 -20 -65 -9 -83 9 -14
7 -27 -9 -62 -28 -62 -37 -131 -17 -124 8 3 17 14 20 25 4 10 10 19 15 19 5 0
11 8 15 19 3 11 15 19 30 19 21 0 23 -3 14 -15 -10 -11 -14 -11 -20 -1 -6 9
-10 7 -14 -7 -4 -11 -11 -28 -16 -37 -13 -26 -11 -88 4 -93 6 -2 55 -5 109 -7
l96 -4 7 56 c7 62 24 112 35 105 4 -3 10 4 13 15 3 13 0 20 -8 20 -8 0 -17 9
-20 20 -3 11 -11 20 -16 20 -5 0 -9 8 -9 18 0 9 -9 30 -20 47 -16 24 -20 26
-26 12 -11 -29 -20 -19 -16 19 4 31 64 138 73 129 2 -2 5 17 6 41 1 25 -2 42
-7 39 -5 -3 -12 0 -15 6 -4 6 7 31 25 55 31 43 31 46 15 70 -16 25 -16 27 4
41 16 10 21 25 21 56 0 23 7 86 15 141 10 67 13 130 8 198 l-6 98 -23 -15
c-32 -20 -44 -19 -44 6 0 12 5 19 12 17 28 -10 41 21 35 81 -8 72 -68 240
-101 284 -14 18 -27 43 -29 54 -3 22 -85 120 -223 267 -46 48 -84 92 -84 98 0
5 -4 6 -10 3 -5 -3 -10 -2 -10 3 0 28 -136 41 -192 19z"/>
<path d="M881 2344 c-52 -18 -51 -18 -120 -109 -29 -38 -67 -88 -84 -109 -35
-44 -57 -88 -57 -117 0 -11 -6 -22 -14 -25 -8 -3 -14 -21 -14 -45 -1 -21 -4
-43 -7 -49 -3 -5 -2 -10 4 -10 14 0 18 -140 8 -240 -4 -35 -10 -48 -31 -60
-14 -8 -26 -20 -26 -26 0 -6 -36 -16 -80 -23 -44 -6 -92 -18 -107 -26 -16 -8
-41 -15 -58 -15 -35 0 -74 -24 -106 -64 -20 -25 -26 -27 -66 -21 -35 5 -48 2
-69 -14 -15 -12 -33 -21 -40 -21 -10 0 -14 -14 -14 -50 l0 -51 48 27 c26 14
64 40 85 56 20 16 37 25 37 19 0 -12 -90 -81 -137 -105 l-33 -17 0 -624 0
-625 545 0 545 0 9 23 c9 24 71 105 71 93 0 -4 -13 -27 -30 -51 -16 -24 -30
-48 -30 -54 0 -19 17 -12 34 14 9 14 20 24 25 22 12 -3 77 83 113 147 15 28
28 46 28 41 0 -13 -96 -183 -116 -206 -22 -25 -17 -29 36 -29 46 0 53 3 68 30
9 17 34 49 56 72 38 41 86 132 86 162 0 9 5 15 12 14 7 -2 16 17 21 45 7 37 6
54 -7 81 -9 19 -16 40 -16 48 0 10 -3 9 -10 -2 -12 -18 -12 -3 -1 25 5 11 5
25 0 31 -6 7 -3 27 5 51 22 62 5 75 -37 30 -25 -26 -33 -31 -30 -16 3 11 16
28 28 38 13 9 36 46 51 82 29 67 66 246 53 255 -4 2 -1 17 7 32 7 15 14 35 14
45 0 14 -4 16 -19 8 -15 -8 -20 -7 -25 6 -7 16 6 37 24 39 6 1 18 2 28 4 9 1
12 4 6 6 -9 4 -8 13 2 34 12 23 13 33 2 49 -10 17 -9 23 6 40 15 16 19 44 23
178 5 138 3 168 -15 240 -27 106 -71 191 -143 280 -33 39 -59 75 -59 80 -1 4
-18 26 -40 47 -32 34 -41 38 -54 27 -10 -9 -20 -10 -33 -3 -16 9 -15 11 9 17
22 6 26 11 19 24 -15 27 -121 136 -130 134 -5 -1 -11 11 -15 27 -3 19 -17 37
-36 48 -16 10 -27 22 -23 25 19 20 -10 3 -33 -18 -34 -32 -50 -27 -46 13 3 29
1 32 -25 32 -15 -1 -48 -8 -72 -16z"/>
<path d="M4955 2269 c-38 -22 -103 -52 -145 -66 -41 -13 -79 -29 -84 -34 -6
-5 -16 -9 -23 -9 -17 0 -44 -26 -65 -60 -9 -14 -23 -67 -33 -118 -15 -89 -15
-95 1 -113 16 -18 16 -19 -2 -19 -16 0 -20 -9 -22 -57 -2 -32 -8 -76 -13 -98
-22 -86 -22 -89 8 -107 l28 -18 -32 6 c-32 6 -33 6 -33 -29 0 -19 -7 -70 -15
-112 -15 -78 -10 -107 17 -119 7 -3 4 -4 -7 -3 -14 1 -20 -4 -19 -15 1 -10 -4
-18 -12 -18 -8 0 -14 -5 -14 -11 0 -5 -4 -7 -10 -4 -5 3 -10 -1 -10 -9 0 -9
-4 -16 -9 -16 -5 0 -12 -11 -15 -25 -4 -14 -14 -29 -24 -32 -31 -12 -82 -66
-82 -86 0 -15 -3 -17 -13 -9 -10 9 -19 8 -33 -2 -28 -20 -163 -63 -236 -76
-188 -33 -176 -24 -185 -130 -8 -106 -6 -115 57 -205 33 -47 60 -93 60 -101 0
-30 33 -116 40 -104 4 6 13 -9 20 -36 10 -36 11 -49 2 -52 -19 -6 -14 -23 25
-86 41 -67 79 -105 105 -106 9 0 26 -12 37 -26 l21 -27 1 24 c1 13 1 28 0 32
-1 5 3 6 9 2 5 -3 10 -11 10 -16 0 -6 7 -17 15 -25 8 -9 15 -12 15 -8 0 4 12
-3 27 -17 23 -21 25 -22 18 -4 -12 31 -19 81 -9 72 4 -4 20 -29 34 -55 25 -47
44 -59 69 -43 11 7 11 13 0 32 -12 23 -12 23 -19 4 -6 -17 -8 -15 -15 13 -9
44 -1 50 22 17 10 -15 49 -58 87 -96 l68 -69 145 1 144 0 -21 32 c-27 41 -72
138 -67 144 3 2 22 -24 42 -59 21 -35 49 -75 63 -91 24 -25 31 -27 109 -27 46
0 83 3 83 6 0 17 -97 138 -169 212 -44 45 -81 87 -81 92 0 18 179 -170 232
-243 l50 -67 54 0 c30 0 54 2 54 5 0 3 -8 18 -17 33 -17 26 -17 26 0 13 17
-13 24 -4 10 15 -5 5 7 -8 25 -28 l34 -38 89 0 89 0 0 131 0 131 -43 51 c-70
85 -74 95 -14 37 l57 -54 0 71 0 71 -47 42 -48 42 45 -31 45 -32 3 86 3 86
-68 76 c-37 41 -90 90 -118 108 -58 38 -109 85 -101 92 3 3 22 -10 43 -28 21
-19 59 -49 85 -68 26 -19 68 -60 94 -92 26 -33 51 -59 56 -59 14 0 9 33 -9 52
-16 18 -16 18 0 12 31 -12 17 15 -28 52 -24 21 -42 40 -40 43 3 2 23 -13 45
-34 l40 -39 0 91 c0 64 -4 93 -12 96 -10 4 -10 6 0 6 8 1 12 23 12 75 0 73 -1
74 -32 95 -33 21 -23 30 13 11 18 -10 19 -6 19 93 0 67 -4 107 -12 115 -9 9
-9 12 0 12 16 0 15 47 0 53 -10 4 -10 6 0 6 9 1 12 29 12 104 l0 102 -51 18
c-28 10 -49 21 -46 23 3 3 22 -2 42 -10 21 -9 41 -16 46 -16 5 0 9 106 9 235
l0 235 -50 39 c-28 22 -59 43 -70 46 -11 4 -20 11 -20 16 0 5 -7 9 -16 9 -8 0
-65 25 -126 55 -60 30 -115 55 -122 55 -6 0 -42 -19 -81 -41z"/>
<path d="M2590 2044 c0 -8 5 -14 10 -14 6 0 10 -4 10 -10 0 -5 -9 -10 -21 -10
-11 0 -17 5 -14 10 3 6 2 10 -3 10 -6 0 -13 -7 -16 -16 -9 -24 -7 -54 3 -54 5
0 15 -16 21 -36 21 -63 94 -160 137 -182 12 -7 25 -21 28 -32 4 -11 11 -18 16
-15 5 4 9 2 9 -3 0 -5 18 -14 40 -20 22 -5 38 -6 35 -2 -3 5 -1 11 5 15 6 3
24 -8 41 -25 28 -28 37 -31 83 -28 l51 3 9 47 c13 68 -16 118 -106 183 -39 28
-85 64 -103 80 -38 36 -69 55 -89 55 -8 0 -22 7 -31 16 -8 9 -38 22 -65 29
-43 11 -50 11 -50 -1z"/>
<path d="M2447 1813 c-3 -5 -8 -37 -12 -73 -6 -54 -3 -74 15 -119 12 -30 33
-69 48 -86 15 -18 34 -41 43 -51 43 -52 165 -121 244 -139 17 -4 50 -16 73
-27 36 -17 56 -20 108 -15 50 5 66 3 70 -7 7 -17 46 -28 68 -20 25 9 20 69 -9
112 -34 51 -51 72 -60 72 -4 0 -16 11 -27 25 -12 16 -40 31 -76 40 -31 9 -73
23 -93 31 -20 9 -45 14 -55 13 -28 -4 -105 53 -212 159 -87 85 -114 104 -125
85z"/>
<path d="M2405 1415 c-21 -24 -25 -37 -25 -91 0 -57 -2 -64 -20 -64 -11 0 -20
-6 -20 -14 0 -7 -17 -32 -39 -54 -21 -23 -33 -43 -28 -45 6 -2 -7 -14 -29 -27
-21 -13 -40 -28 -42 -32 -2 -4 -10 -8 -17 -8 -19 0 -85 -66 -85 -85 0 -17 -20
-57 -35 -67 -5 -4 -7 -10 -3 -13 3 -3 0 -26 -7 -50 -21 -69 -1 -118 49 -122
16 -1 32 -6 35 -11 3 -5 33 -9 66 -10 33 -1 103 -4 155 -7 52 -3 89 -2 82 1
-6 3 -10 10 -6 15 8 14 24 11 24 -6 0 -22 179 -21 221 0 16 9 34 13 39 10 12
-8 11 -19 19 205 l7 185 2 -202 c2 -154 5 -203 15 -204 6 0 80 -3 163 -5 l151
-5 -4 26 c-7 33 23 34 38 1 15 -33 56 -40 71 -12 11 20 11 20 19 1 4 -11 8
-14 8 -7 1 6 6 12 12 12 5 0 8 -3 6 -7 -3 -5 20 -6 50 -5 l54 4 -6 39 c-7 41
3 50 26 23 12 -15 14 -14 19 1 10 29 -7 122 -31 171 -15 33 -32 50 -55 60 -44
18 -54 18 -54 -3 0 -12 -3 -14 -8 -7 -4 7 -16 13 -27 16 -16 3 -20 11 -20 39
0 42 -19 69 -44 62 -10 -2 -25 3 -34 12 -9 9 -33 19 -52 22 -19 3 -35 10 -35
14 0 5 -13 9 -29 9 -16 0 -34 7 -41 15 -19 23 -40 18 -40 -9 0 -14 -4 -28 -10
-31 -10 -6 -23 32 -18 56 2 10 -8 14 -42 14 -25 0 -48 4 -52 10 -10 14 -20 0
-28 -42 -7 -36 -8 -34 -9 18 -1 57 -1 57 -36 63 -19 4 -35 11 -35 16 0 6 -7
10 -15 10 -31 0 -121 49 -153 83 -9 9 -21 17 -26 17 -5 0 -17 9 -27 21 l-18
21 -26 -27z"/>
<path d="M3496 903 c-2 -10 -8 -54 -11 -98 -9 -108 -22 -152 -48 -169 -12 -8
-61 -18 -109 -22 -82 -6 -87 -8 -77 -26 6 -10 8 -27 6 -36 -3 -12 -8 -8 -17
16 -6 17 -16 32 -21 32 -5 0 -12 0 -16 1 -5 0 -11 -10 -14 -23 l-6 -23 -11 26
c-9 22 -19 28 -61 34 -27 4 -59 4 -70 0 -23 -7 -178 -11 -185 -4 -2 2 -56 0
-119 -5 l-115 -9 -8 -36 -7 -36 -10 43 -10 43 -136 -2 c-166 -2 -199 -6 -204
-28 -4 -14 -5 -14 -6 2 -1 15 -11 17 -88 16 -116 -2 -120 -4 -143 -50 -22 -42
-28 -90 -15 -128 6 -21 12 -23 47 -18 52 7 61 17 61 67 0 22 4 43 8 46 5 3 9
-7 9 -23 1 -31 23 -67 34 -56 4 4 11 1 17 -7 8 -13 13 -11 29 9 21 25 26 51
10 51 -5 0 -10 7 -10 16 0 10 6 14 14 11 10 -4 16 2 19 16 2 12 2 -8 0 -45 -4
-47 -1 -71 8 -81 12 -12 16 -10 31 15 10 15 18 42 18 58 0 16 5 41 12 57 16
41 20 11 10 -76 -5 -39 -6 -74 -3 -76 4 -2 24 5 45 16 47 22 62 24 69 6 4 -10
36 -16 109 -21 124 -8 168 -1 168 25 0 25 17 24 25 0 9 -30 108 -45 118 -18 3
9 11 9 33 1 16 -5 48 -8 72 -6 35 3 42 8 42 26 0 20 1 19 13 -4 l13 -25 154 0
155 0 -2 40 -1 40 6 -35 c9 -43 26 -47 189 -40 150 6 157 11 173 118 14 90 2
173 -33 229 -13 21 -34 59 -46 86 -13 26 -27 47 -32 47 -6 0 -8 4 -5 8 3 5
-11 16 -30 25 -43 21 -42 21 -48 0z"/>
<path d="M3784 448 c-48 -107 -106 -135 -287 -140 -80 -2 -106 -6 -102 -15 2
-7 0 -13 -6 -13 -5 0 -12 7 -15 15 -7 18 -34 20 -34 3 0 -7 7 -22 15 -32 18
-24 20 -69 3 -64 -13 5 -26 28 -47 81 -10 26 -15 28 -54 25 -41 -3 -42 -4 -39
-35 2 -24 -1 -33 -17 -38 -20 -6 -29 -25 -13 -25 10 0 37 -109 29 -116 -4 -4
-57 128 -57 142 0 2 6 3 13 2 7 -2 13 10 15 30 3 31 -6 39 -33 32 -5 -2 -70
-3 -143 -2 l-134 1 5 -47 c2 -26 2 -39 0 -29 -3 11 -10 16 -18 13 -9 -3 -16 5
-20 24 -9 40 -24 48 -75 41 l-45 -6 4 -74 c2 -58 0 -72 -10 -69 -10 3 -14 25
-15 70 -1 36 -5 71 -9 78 -11 17 -144 8 -156 -11 -5 -8 -9 -25 -9 -39 0 -14
-5 -32 -10 -40 -7 -10 -8 3 -4 43 7 56 6 57 -18 57 -21 0 -26 -7 -36 -47 -7
-27 -14 -75 -18 -108 -7 -84 -14 -109 -23 -99 -5 5 -5 34 0 64 5 30 12 83 15
117 l7 61 -46 7 c-65 10 -80 4 -89 -33 -8 -31 -26 -45 -25 -20 1 46 -4 58 -25
58 -46 0 -52 -13 -56 -119 -3 -56 -8 -101 -13 -101 -5 0 -9 49 -9 109 l0 110
-27 -5 c-45 -7 -50 -11 -57 -39 -5 -19 -2 -31 9 -39 10 -7 13 -18 10 -29 -12
-30 -35 7 -35 57 l0 46 -49 0 c-39 0 -56 -6 -80 -26 -28 -23 -31 -32 -31 -80
0 -36 -7 -64 -20 -86 -11 -18 -20 -50 -20 -70 0 -37 1 -38 39 -38 33 0 40 4
44 23 l4 22 2 -22 c1 -22 4 -23 110 -23 l108 0 11 43 11 42 -5 -43 -6 -42 201
0 200 0 4 87 3 88 2 -88 2 -88 28 3 c24 3 28 8 33 48 l6 45 1 -47 c2 -54 28
-69 35 -20 l4 27 2 -27 c1 -27 3 -28 61 -28 60 0 60 0 60 29 0 17 5 33 10 36
6 4 10 -8 10 -29 0 -35 13 -48 23 -23 4 9 6 9 6 0 1 -17 28 -17 34 0 4 9 6 9
6 0 1 -10 26 -13 91 -13 86 0 90 1 91 23 l0 22 11 -22 c18 -36 42 -30 35 10
l-6 32 15 -33 14 -32 501 0 502 0 -26 20 c-14 11 -44 28 -66 38 -22 10 -53 33
-68 51 -29 32 -97 160 -129 241 -19 48 -75 140 -85 140 -3 0 -15 -19 -25 -42z"/>
<path d="M1491 305 c-5 -5 -28 -48 -51 -95 -23 -47 -50 -96 -59 -110 -10 -14
-28 -42 -40 -62 l-23 -38 35 0 c34 0 37 3 56 55 20 54 70 139 78 132 6 -6 -26
-89 -52 -133 -14 -24 -25 -45 -25 -48 0 -3 51 -6 113 -6 105 0 115 2 134 23
28 30 40 56 57 119 8 29 22 73 31 97 18 50 15 57 -14 41 -16 -8 -21 -8 -21 1
0 9 -3 9 -14 0 -10 -9 -15 -8 -19 1 -5 15 -109 40 -150 36 -16 -1 -32 -7 -36
-13z"/>
</g>
</svg>
