<?xml version="1.0" standalone="no"?>
<!DOCTYPE svg PUBLIC "-//W3C//DTD SVG 20010904//EN"
 "http://www.w3.org/TR/2001/REC-SVG-20010904/DTD/svg10.dtd">
<svg version="1.0" xmlns="http://www.w3.org/2000/svg"
 width="544.000000pt" height="544.000000pt" viewBox="0 0 544.000000 544.000000"
 preserveAspectRatio="xMidYMid meet">
<metadata>
Created by potrace 1.16, written by Peter Selinger 2001-2019
</metadata>
<g transform="translate(0.000000,544.000000) scale(0.100000,-0.100000)"
fill="#000000" stroke="none">
<path d="M0 5426 c0 -8 5 -18 10 -21 6 -4 8 -10 6 -14 -6 -8 33 -47 74 -74 44
-30 6 -18 -43 13 -65 41 -59 20 8 -31 30 -23 55 -43 55 -46 0 -6 -70 36 -93
56 -17 14 -18 13 -15 -12 2 -14 15 -39 28 -54 18 -20 19 -23 4 -10 -11 9 -24
17 -27 17 -4 0 -7 -26 -7 -57 0 -54 2 -59 31 -75 17 -10 41 -18 54 -18 16 0
24 -7 27 -25 6 -28 1 -31 -21 -12 -9 8 -33 24 -53 36 l-38 23 0 -34 c0 -31 6
-38 60 -73 33 -21 58 -40 56 -43 -3 -2 -29 12 -60 32 l-56 36 0 -30 c0 -17 4
-30 8 -30 4 0 23 -14 42 -30 l35 -31 -42 21 -43 20 0 -41 c0 -30 6 -46 23 -60
l22 -20 -22 11 -23 11 1 -113 c0 -64 5 -118 11 -125 7 -9 7 -13 -1 -13 -16 0
-15 -147 2 -153 10 -4 10 -6 0 -6 -7 -1 -13 -12 -13 -26 0 -17 9 -29 30 -40
16 -9 30 -17 30 -20 0 -2 -13 0 -30 5 l-30 9 0 -45 c0 -37 4 -46 23 -54 l22
-9 -22 0 -23 -1 0 -654 c0 -615 1 -655 18 -659 16 -4 16 -5 0 -6 -10 -1 -18
-9 -18 -20 0 -15 10 -19 56 -25 31 -4 69 -15 85 -26 45 -33 140 -80 159 -80
10 0 20 -5 22 -11 2 -7 27 -5 78 7 41 9 116 18 165 19 102 3 140 14 140 41 0
13 7 19 25 20 14 0 35 4 48 8 22 7 23 11 17 64 -13 122 -29 207 -38 214 -7 4
-7 11 0 20 16 21 4 368 -13 375 -21 8 -17 23 6 23 30 0 27 46 -2 56 -23 7 -23
7 3 16 24 8 28 16 42 106 9 53 19 109 23 123 5 22 3 26 -18 25 -14 -1 -23 5
-23 14 0 9 9 15 25 15 20 0 28 9 42 45 9 25 17 57 17 72 1 15 6 30 12 34 6 3
8 16 5 29 -4 16 -1 25 10 29 11 4 14 13 10 30 -4 18 -1 26 12 30 10 4 29 31
41 61 13 30 33 70 45 88 12 17 33 52 46 77 14 25 27 47 30 50 3 3 13 19 22 36
15 28 16 33 2 52 -17 24 -12 27 16 12 15 -8 23 -4 40 21 12 16 35 44 51 62 16
17 29 35 29 39 0 4 13 15 30 25 16 9 29 24 27 32 -1 8 8 20 21 26 12 7 44 32
70 56 26 24 70 65 98 91 36 32 49 50 43 60 -5 7 -9 19 -9 27 0 10 5 10 25 -3
20 -13 28 -14 45 -4 11 7 20 18 20 25 0 7 6 13 13 13 17 0 129 60 140 74 4 6
5 19 3 29 -5 21 -2 21 18 1 14 -14 19 -14 43 0 16 8 44 22 63 31 19 9 50 23
68 31 27 12 31 18 22 29 -7 8 -9 18 -6 23 8 13 45 22 51 13 2 -4 17 -6 34 -3
35 5 45 38 35 114 l-7 47 -78 0 -79 -1 6 -25 c5 -18 3 -24 -5 -19 -6 4 -11 16
-11 27 0 18 -9 19 -195 19 l-195 0 5 -27 6 -28 -16 28 -16 27 -156 0 c-135 0
-154 -2 -143 -15 6 -8 10 -22 8 -32 -3 -14 -7 -10 -18 14 l-15 33 -369 0 -370
0 32 -33 c18 -18 32 -39 32 -47 -1 -8 -20 7 -43 33 -38 43 -47 48 -76 45 l-34
-3 39 -39 c44 -44 29 -39 -33 11 -32 27 -49 34 -75 31 l-33 -3 75 -79 75 -80
-60 46 c-34 25 -67 53 -75 62 -7 10 -27 26 -44 38 l-31 21 29 -31 c41 -44 28
-50 -14 -7 -29 30 -41 35 -78 35 l-45 0 109 -105 109 -105 -65 40 c-36 23 -95
70 -131 106 -65 62 -99 79 -99 50z"/>
<path d="M2260 5432 c0 -17 32 -52 42 -46 5 4 23 -3 39 -15 26 -20 37 -21 99
-15 57 5 71 10 76 26 5 17 7 18 18 3 16 -22 203 -29 215 -8 6 12 12 11 36 -1
19 -10 56 -15 107 -15 43 0 82 -2 87 -5 5 -3 37 -10 72 -15 35 -5 79 -13 97
-17 26 -5 32 -3 32 10 0 25 28 19 32 -6 2 -18 12 -25 45 -32 51 -10 73 -3 73
24 0 11 5 20 11 20 7 0 9 -11 6 -30 -5 -23 -2 -33 16 -45 28 -20 47 -19 47 3
0 13 3 11 13 -7 8 -17 46 -38 126 -73 63 -26 121 -54 129 -60 15 -13 47 -33
72 -44 8 -4 34 -20 58 -36 23 -16 50 -28 58 -26 9 2 53 -33 101 -79 47 -47 93
-83 104 -83 11 0 19 -6 17 -13 -3 -11 86 -107 99 -107 2 0 11 7 19 15 23 23
37 18 30 -10 -5 -18 -2 -25 9 -25 20 0 19 -16 -1 -24 -12 -5 2 -25 63 -91 43
-46 86 -84 95 -85 9 0 20 -4 23 -10 3 -5 26 -10 51 -10 24 0 44 5 44 10 0 6 8
10 18 10 16 -1 16 -1 -1 -14 -11 -9 -15 -20 -11 -31 6 -15 17 -17 88 -11 45 4
115 8 157 10 42 1 82 7 90 12 8 4 19 9 24 9 25 2 65 30 63 44 -2 11 6 17 27
19 25 3 109 53 125 74 3 4 18 13 33 21 47 25 15 26 -35 2 -75 -36 -112 -40
-48 -5 30 17 69 42 85 56 l30 25 -30 -5 c-16 -4 -46 -9 -65 -12 l-35 -5 28 16
c15 9 57 25 95 36 83 25 122 42 122 51 0 5 10 8 23 8 13 0 27 4 33 9 5 5 29
16 54 24 l45 15 3 286 2 286 -126 0 -127 0 -56 -52 c-31 -29 -70 -65 -86 -79
-17 -15 -58 -56 -93 -93 -34 -36 -66 -66 -70 -66 -9 0 100 122 195 218 53 53
66 72 52 72 -10 0 -19 -4 -19 -9 0 -5 -21 -24 -47 -43 -96 -67 -108 -70 -45
-9 l63 61 -58 0 -58 -1 -76 -72 c-88 -85 -159 -147 -166 -147 -7 0 105 127
157 177 l45 43 -61 0 c-61 0 -62 0 -118 -57 -31 -31 -58 -54 -61 -51 -3 3 18
28 47 56 l53 52 -35 0 c-21 0 -44 -9 -59 -22 -14 -13 -20 -16 -13 -8 20 23 14
30 -25 30 -24 0 -46 -8 -62 -22 l-26 -23 19 23 19 22 -46 0 c-37 0 -49 -5 -65
-25 -11 -14 -23 -25 -27 -25 -4 0 0 11 9 25 14 21 14 25 2 25 -8 0 -18 -4 -21
-10 -3 -5 -11 -10 -16 -10 -6 0 -7 5 -4 10 9 15 -78 12 -94 -2 -11 -10 -13
-10 -7 0 5 9 -4 12 -32 12 -30 0 -42 -5 -51 -22 l-12 -23 5 23 c4 21 1 22 -68
22 -60 0 -76 -4 -91 -20 -23 -26 -39 -26 -25 0 10 19 6 19 -204 20 -162 0
-216 -3 -219 -13 -4 -9 -6 -9 -6 1 -1 19 -81 15 -104 -5 -18 -17 -19 -17 -28
0 -14 25 -125 25 -132 0 -4 -17 -5 -17 -6 0 -1 16 -24 17 -326 17 -210 0 -325
-4 -325 -10 0 -5 6 -10 13 -11 6 0 3 -4 -8 -8 -25 -10 -38 -4 -31 15 5 12 -29
14 -209 14 -118 0 -215 -3 -215 -8z"/>
<path d="M2630 5290 c-19 -3 -46 -13 -59 -21 -18 -11 -25 -11 -28 -1 -3 6 -11
12 -19 12 -10 0 -14 -13 -14 -45 0 -33 4 -45 15 -45 8 0 15 -7 15 -15 0 -13
-4 -13 -26 2 -22 14 -25 22 -21 50 5 29 3 34 -18 39 -34 8 -125 -15 -125 -31
0 -22 -20 -28 -33 -10 -11 14 -15 13 -35 -14 -39 -54 -45 -81 -25 -117 19 -37
72 -70 97 -61 9 4 16 18 16 34 1 27 1 27 16 8 8 -11 12 -25 10 -31 -5 -14 118
-8 146 7 22 12 232 11 368 -2 123 -11 124 -11 174 -28 23 -8 54 -11 79 -7 34
6 38 5 28 -7 -9 -12 -5 -16 23 -21 19 -4 68 -22 108 -40 40 -18 91 -39 113
-46 22 -7 58 -25 80 -40 22 -15 60 -37 84 -50 24 -12 73 -46 109 -76 36 -30
71 -54 78 -54 7 0 21 -11 32 -25 11 -14 23 -25 26 -25 20 0 86 -55 86 -72 0
-11 5 -16 10 -13 6 3 10 -1 10 -9 0 -9 5 -16 10 -16 6 0 10 7 10 15 0 9 9 15
21 15 21 0 22 -5 8 -46 -2 -6 31 -48 73 -93 63 -66 83 -81 107 -81 76 0 123
117 77 191 -25 40 -42 46 -67 23 -14 -13 -22 -14 -33 -5 -7 6 -22 8 -31 4 -13
-4 -16 -3 -11 5 4 7 13 12 20 12 7 0 22 10 34 23 20 22 21 24 4 49 -45 69
-270 278 -299 278 -8 0 -23 -5 -35 -11 -26 -14 -38 -1 -15 15 25 19 21 32 -15
47 -18 7 -55 29 -83 49 -53 39 -209 120 -230 120 -7 0 -15 6 -18 14 -4 11 -43
26 -82 31 -5 0 -19 6 -30 12 -75 40 -336 96 -343 73 -5 -15 -22 -12 -22 4 0
10 -30 15 -131 21 -125 7 -132 6 -150 -14 -25 -26 -39 -27 -39 -2 0 26 -8 29
-50 21z"/>
<path d="M1983 5132 c-20 -10 -33 -25 -33 -37 -1 -19 -1 -19 -15 -1 -14 18
-15 18 -52 1 -21 -10 -40 -22 -43 -26 -3 -5 -17 -10 -30 -12 -14 -2 -29 -14
-35 -26 -6 -14 -16 -20 -27 -18 -20 6 -54 -16 -86 -54 -13 -15 -30 -25 -37
-23 -7 3 -15 -4 -18 -15 -3 -14 -13 -21 -31 -21 -16 0 -31 -9 -42 -25 -9 -14
-23 -25 -30 -25 -8 0 -14 -4 -14 -8 0 -4 -12 -15 -28 -24 -42 -25 -167 -157
-235 -246 -33 -44 -36 -54 -27 -77 10 -26 9 -27 -14 -21 -29 7 -41 -13 -18
-30 13 -10 10 -14 -21 -29 -42 -20 -77 -63 -77 -94 0 -12 -7 -24 -15 -27 -8
-4 -15 -14 -15 -24 0 -10 -7 -23 -15 -30 -8 -7 -15 -18 -15 -24 0 -6 -7 -24
-15 -40 -9 -16 -24 -49 -35 -73 l-19 -43 21 -20 22 -20 -26 0 c-30 0 -36 -12
-72 -145 -13 -49 -24 -114 -25 -143 0 -29 -4 -58 -7 -64 -12 -19 -15 -107 -5
-127 8 -15 8 -23 -3 -34 -12 -12 -14 -43 -10 -168 3 -85 9 -158 14 -164 4 -5
10 -37 13 -69 3 -33 10 -62 14 -65 4 -3 9 -14 11 -24 4 -24 42 -89 61 -104 8
-7 36 -13 63 -13 39 0 52 5 73 27 28 31 29 37 15 114 -5 30 -12 71 -15 91 -3
21 -9 37 -13 37 -19 -3 -32 2 -32 12 0 7 9 9 21 6 17 -5 20 -2 15 21 -3 15 -8
74 -11 132 -5 85 -1 139 20 285 14 99 33 200 41 225 8 24 13 54 9 67 -3 14 1
29 12 41 16 16 47 80 77 157 6 17 23 52 39 79 15 27 27 55 27 63 0 8 11 24 24
34 33 26 43 69 20 86 -24 17 -11 27 16 13 19 -10 25 -8 51 22 15 18 29 44 29
58 1 14 4 19 7 13 9 -24 31 11 26 42 -6 26 -4 28 23 22 25 -4 37 2 84 46 30
29 70 63 89 77 19 14 49 37 67 51 18 14 80 56 138 94 58 38 106 73 106 78 0 4
5 5 10 2 6 -3 32 6 59 20 l49 27 -2 51 c-2 60 -12 81 -33 73 -12 -5 -14 -1
-10 15 6 21 -10 70 -22 68 -3 0 -21 -8 -38 -17z"/>
<path d="M2654 4916 c4 -31 5 -56 3 -56 -3 0 -13 23 -22 51 l-17 52 -61 -7
c-103 -10 -129 -71 -61 -142 66 -70 111 -208 92 -279 -4 -18 -3 -32 3 -36 6
-3 58 -7 117 -8 90 -1 114 -5 157 -26 80 -38 152 -117 200 -219 23 -48 27 -67
22 -108 -4 -28 -13 -58 -20 -67 -8 -9 -29 -47 -48 -86 -18 -38 -51 -97 -72
-130 -24 -37 -37 -69 -35 -85 3 -25 4 -25 88 -23 46 1 99 4 118 8 30 6 33 9
27 32 -5 20 -3 24 9 20 16 -6 40 16 29 26 -3 4 -27 8 -52 8 -45 2 -45 2 14 9
45 6 63 13 75 30 26 39 98 108 120 115 11 3 20 11 20 16 0 5 15 18 33 29 27
17 50 20 154 20 70 0 124 -4 128 -10 3 -5 20 -10 37 -10 17 0 29 -3 25 -6 -12
-12 69 -74 97 -74 31 0 64 23 87 61 13 21 27 39 32 39 4 0 7 8 7 18 0 9 14 32
31 50 16 17 27 32 23 32 -3 0 -1 6 5 14 26 31 6 136 -26 136 -10 0 -12 6 -8
19 4 13 -1 24 -16 35 -26 18 -37 13 -49 -20 -5 -13 -16 -24 -25 -24 -19 0 -20
19 -1 34 8 6 17 25 21 42 5 28 3 32 -20 36 -20 4 -29 0 -36 -16 -10 -22 -69
-62 -69 -47 0 15 43 63 74 82 29 18 30 19 7 19 -16 0 -21 4 -18 14 3 8 -17 36
-52 69 -55 53 -58 54 -84 41 -26 -14 -27 -14 -27 11 0 24 -1 24 -35 -13 -35
-37 -35 -37 -23 -7 7 17 19 40 26 53 26 41 -12 26 -42 -17 -29 -41 -76 -89
-76 -77 0 14 23 51 51 84 16 18 29 37 29 41 0 5 -33 30 -72 57 -40 26 -78 54
-85 62 -11 13 -15 13 -37 -1 -27 -18 -38 -11 -40 25 -1 23 -76 56 -76 33 0 -7
-7 -18 -15 -25 -16 -13 -18 -6 -6 25 15 37 -65 60 -105 30 -28 -21 -35 -18
-24 9 8 23 6 25 -32 31 -48 8 -52 3 -64 -69 l-9 -51 -3 68 -3 68 -29 -6 c-23
-5 -30 -3 -30 9 0 8 -4 17 -9 21 -5 3 -82 8 -172 11 l-162 6 7 -56z"/>
<path d="M2120 4796 c0 -30 -24 -35 -39 -9 -8 14 -12 15 -25 4 -9 -7 -16 -25
-16 -38 0 -22 -2 -24 -15 -13 -8 7 -15 19 -15 27 0 15 -15 13 -73 -9 -22 -8
-26 -15 -21 -32 4 -11 14 -26 22 -32 8 -6 12 -16 8 -22 -11 -18 -22 -14 -34
13 -13 27 -62 36 -62 12 0 -8 -11 -19 -25 -25 -14 -7 -31 -17 -38 -23 -7 -5
-43 -34 -82 -62 -70 -53 -135 -113 -135 -125 0 -4 -18 -27 -40 -50 -22 -24
-37 -48 -34 -53 9 -15 -25 -60 -43 -57 -10 2 -21 -9 -29 -29 -12 -28 -11 -34
2 -47 14 -15 14 -16 -4 -16 -30 0 -74 -40 -69 -61 3 -12 0 -19 -9 -19 -18 0
-18 -9 3 -32 15 -17 15 -18 -2 -18 -17 0 -28 -10 -62 -58 -12 -18 -13 -25 -3
-37 10 -13 9 -15 -10 -15 -20 0 -22 -4 -17 -34 3 -18 1 -38 -5 -44 -8 -8 -7
-16 2 -27 11 -13 9 -15 -14 -15 -22 0 -26 -4 -26 -29 0 -16 -3 -36 -6 -45 -4
-10 6 -21 32 -34 l37 -19 -44 1 -44 1 -8 -60 c-5 -33 -13 -69 -19 -80 -15 -26
-18 -183 -4 -194 6 -5 25 -13 41 -18 32 -10 48 -43 21 -43 -9 0 -16 7 -16 15
0 9 -9 15 -21 15 -21 0 -22 -3 -16 -86 3 -47 9 -89 12 -92 3 -4 36 -6 73 -5
l67 1 -70 -12 c-61 -10 -70 -14 -67 -31 2 -11 8 -24 13 -29 5 -6 9 -20 9 -31
0 -12 9 -30 20 -40 11 -10 20 -26 20 -37 0 -16 9 -18 73 -19 65 -1 69 -2 40
-11 -40 -13 -42 -25 -7 -38 23 -9 80 -50 127 -91 10 -10 46 -19 87 -23 42 -4
83 -14 102 -26 49 -30 78 -26 112 16 32 41 32 51 -4 183 -28 105 -24 141 29
245 31 61 38 83 29 93 -6 7 -8 17 -4 20 4 4 11 2 15 -5 8 -13 47 44 111 163
18 33 41 72 51 87 11 14 19 28 19 31 0 3 41 76 91 163 201 348 229 398 229
402 0 3 11 19 24 36 30 40 76 131 76 151 0 9 6 23 13 30 16 19 36 42 73 87 22
26 30 44 27 61 -7 34 -110 139 -158 161 -22 10 -48 26 -59 35 -10 9 -21 15
-25 15 -3 -1 -17 3 -31 8 -14 5 -37 12 -52 15 -16 3 -28 9 -28 13 0 3 -6 7
-12 8 -7 1 -25 4 -40 8 -25 6 -28 4 -28 -20z"/>
<path d="M5406 4629 c-14 -9 -15 -13 -6 -19 16 -10 4 -30 -19 -30 -9 0 -32
-11 -51 -25 -20 -15 -41 -23 -52 -19 -14 4 -18 0 -18 -16 0 -16 -5 -20 -15
-16 -10 3 -15 -1 -15 -12 -1 -21 -44 -72 -63 -72 -7 0 -14 -7 -14 -14 0 -11 5
-12 18 -5 22 11 59 12 59 0 0 -11 -45 -41 -60 -41 -7 0 -44 -14 -83 -31 -45
-20 -85 -31 -107 -29 -64 4 -125 1 -145 -8 -53 -24 -78 -32 -105 -32 -15 0
-30 -4 -32 -9 -1 -4 -32 -11 -67 -14 -65 -7 -86 -19 -75 -47 9 -22 12 -42 13
-69 1 -21 4 -23 39 -18 35 6 36 5 10 -6 -30 -12 -35 -33 -18 -83 5 -16 14 -48
20 -71 9 -36 15 -43 35 -43 14 0 25 -4 25 -10 0 -5 -9 -10 -20 -10 -11 0 -20
-6 -20 -14 0 -8 -3 -21 -6 -29 -3 -8 2 -21 11 -30 8 -9 11 -18 6 -21 -5 -3 -7
-14 -5 -24 2 -9 8 -68 14 -131 6 -68 15 -118 22 -122 9 -6 9 -11 1 -21 -17
-20 1 -98 41 -178 20 -39 33 -70 31 -70 -2 0 7 -21 20 -46 14 -26 25 -53 25
-60 0 -8 3 -14 8 -14 4 0 12 -15 18 -32 7 -18 33 -83 59 -144 40 -96 50 -112
78 -123 31 -12 32 -13 9 -22 -18 -7 -21 -13 -14 -26 22 -41 52 -113 52 -122 0
-6 14 -14 32 -19 43 -11 51 -34 9 -26 l-31 6 16 -45 c10 -30 22 -47 37 -51 20
-5 20 -6 4 -24 -11 -12 -15 -26 -11 -38 11 -28 101 -110 143 -130 120 -55 186
-89 189 -96 2 -4 10 -8 17 -8 7 0 16 -6 18 -12 3 -7 6 199 6 458 l1 471 -42
11 -43 11 43 -2 c40 -2 42 -1 42 24 0 15 -6 30 -12 32 -10 4 -10 6 0 6 9 1 12
31 12 116 l0 115 -67 0 c-47 0 -63 3 -53 10 8 5 39 7 68 3 l52 -6 0 75 0 75
-76 -5 c-56 -3 -75 -2 -70 7 4 6 35 11 77 11 l69 0 0 64 0 65 -32 4 -33 3 33
8 32 9 0 433 c0 239 -3 434 -7 434 -5 0 -16 -5 -27 -11z"/>
<path d="M2560 4394 c0 -15 -5 -22 -12 -19 -7 3 -22 -8 -33 -25 -11 -16 -23
-30 -27 -30 -5 0 -8 -5 -8 -11 0 -6 -10 -25 -23 -42 -13 -18 -32 -52 -42 -77
-11 -25 -22 -47 -26 -50 -12 -10 -48 -88 -42 -93 3 -3 -6 -16 -20 -29 -13 -13
-36 -46 -51 -75 -24 -48 -25 -53 -8 -62 15 -9 15 -10 -5 -11 -13 0 -23 -4 -23
-9 0 -5 -6 -16 -13 -23 -24 -24 -121 -182 -177 -290 -16 -31 -34 -59 -40 -63
-5 -3 -10 -14 -10 -24 0 -10 -7 -24 -15 -31 -8 -7 -42 -61 -74 -120 -33 -59
-65 -117 -72 -127 -19 -31 -4 -70 28 -77 40 -8 222 9 235 22 8 8 8 15 -2 26
-10 13 -9 17 6 22 48 14 72 44 37 44 -14 1 -11 4 10 16 42 23 32 34 -32 34
-33 0 -63 5 -66 10 -4 6 23 10 74 10 45 0 81 4 81 10 0 5 11 26 25 47 53 81
41 76 190 81 113 4 138 8 157 23 11 11 29 19 39 19 9 0 19 5 21 12 3 7 18 2
43 -15 45 -31 54 -32 124 -15 37 8 51 16 51 29 0 9 7 20 16 23 8 3 12 11 9 16
-8 13 29 48 63 61 28 11 40 38 21 50 -8 5 -30 9 -49 9 -19 0 -70 11 -113 25
-67 22 -96 25 -213 25 -154 0 -158 3 -121 71 97 175 129 233 145 257 60 88 92
142 108 177 10 22 24 47 30 55 27 34 74 139 68 154 -5 13 -26 15 -135 15 -128
-1 -129 -1 -129 -25z"/>
<path d="M2858 4338 c-14 -18 -40 -60 -58 -93 -18 -33 -39 -67 -45 -75 -7 -8
-24 -36 -39 -62 -58 -106 -81 -145 -111 -193 -49 -76 -96 -175 -90 -185 4 -6
59 -10 124 -10 99 0 122 3 141 18 20 16 62 81 92 142 7 14 22 39 34 55 11 17
33 54 48 84 40 78 50 95 59 102 14 10 12 76 -2 102 -9 16 -19 23 -31 20 -21
-6 -37 14 -22 29 15 15 -10 68 -39 84 -33 18 -34 18 -61 -18z"/>
<path d="M4412 4174 c-12 -8 -22 -10 -22 -5 0 6 -7 11 -15 11 -8 0 -15 -5 -15
-11 0 -6 -9 -8 -22 -3 -13 3 -20 3 -15 -1 4 -5 1 -15 -7 -24 -8 -9 -18 -29
-21 -44 -7 -28 -7 -28 30 -21 44 8 41 -7 -6 -31 -36 -19 -38 -53 -5 -78 16
-12 22 -25 19 -37 -3 -11 -9 -17 -13 -15 -5 3 -5 -9 1 -27 5 -18 9 -45 9 -60
0 -23 4 -28 25 -28 28 0 33 -17 9 -34 -12 -9 -14 -22 -8 -65 7 -52 8 -53 35
-47 36 7 48 -10 13 -18 -21 -6 -23 -10 -14 -21 9 -11 7 -16 -10 -25 -17 -9
-19 -14 -9 -26 6 -8 8 -14 3 -14 -5 0 0 -6 10 -12 18 -10 18 -11 -3 -27 -19
-14 -21 -22 -13 -56 6 -30 13 -41 30 -43 14 -2 22 -10 22 -23 0 -16 -5 -19
-20 -14 -21 7 -25 -4 -12 -33 35 -71 52 -113 63 -149 7 -23 20 -51 30 -62 10
-10 28 -40 40 -65 12 -26 25 -49 30 -52 5 -3 9 -13 9 -22 0 -32 52 -120 79
-133 21 -10 23 -13 9 -16 -16 -4 -16 -7 2 -44 11 -21 25 -39 30 -39 6 0 19 -9
30 -20 11 -11 17 -20 13 -20 -3 0 1 -8 10 -18 10 -10 14 -22 10 -26 -8 -7 53
-66 68 -66 6 0 8 -3 6 -7 -3 -5 14 -8 36 -8 35 0 42 3 42 20 0 11 -6 25 -13
31 -11 8 -12 15 -4 31 9 17 8 25 -8 43 -22 25 -26 35 -10 25 19 -12 23 26 5
45 -10 11 -15 20 -11 20 4 0 -2 9 -12 21 -11 11 -22 38 -25 61 -3 22 -19 69
-36 103 -17 34 -31 67 -31 73 0 6 -6 17 -13 24 -7 7 -21 37 -31 67 -9 29 -24
60 -32 68 -8 8 -11 19 -8 25 4 6 3 13 -2 17 -14 10 -56 119 -59 153 -1 16 -7
33 -14 37 -6 4 -10 23 -9 42 1 18 1 76 0 127 -2 86 -4 95 -28 117 -26 24 -27
58 -2 53 18 -4 12 46 -18 157 -24 89 -82 235 -94 235 -3 0 -16 -7 -28 -16z"/>
<path d="M3447 3975 c-8 -8 -17 -11 -21 -8 -3 4 -6 -4 -6 -16 0 -12 14 -42 30
-67 27 -39 33 -42 50 -32 22 14 35 6 26 -18 -3 -9 -12 -14 -21 -10 -8 3 -15 3
-15 0 0 -12 52 -22 87 -16 l38 6 -34 6 c-49 7 -51 28 -4 32 28 2 41 9 48 25 5
12 20 25 33 28 33 8 38 32 12 61 -22 22 -31 24 -116 24 -68 0 -96 -4 -107 -15z"/>
<path d="M4100 3935 c-13 -14 -20 -25 -15 -25 4 0 -11 -14 -33 -30 -23 -17
-42 -35 -42 -40 0 -6 -7 -10 -15 -10 -8 0 -15 -7 -15 -15 0 -8 -5 -15 -10 -15
-11 0 -28 -12 -60 -43 -26 -26 -31 -105 -7 -113 24 -7 11 -26 -16 -22 -16 2
-24 -5 -32 -27 -5 -16 -16 -36 -22 -43 -7 -7 -13 -22 -13 -33 0 -10 -4 -19 -8
-19 -5 0 -19 -26 -32 -57 -13 -32 -26 -60 -29 -63 -18 -15 -29 -52 -25 -77 10
-59 85 -103 176 -103 35 0 71 -12 143 -46 68 -33 104 -45 125 -42 17 3 35 -1
41 -8 7 -9 19 -9 53 1 31 9 47 10 54 3 6 -6 19 -8 29 -4 15 6 15 8 3 16 -11 7
-12 10 -2 10 10 0 10 4 -2 16 -9 8 -16 19 -16 23 0 4 -16 15 -35 24 -36 17
-43 31 -23 43 6 4 17 -1 24 -11 19 -26 30 -11 16 20 -7 14 -12 39 -12 55 0 48
-9 60 -47 60 -40 0 -36 15 6 23 28 6 29 8 20 39 -5 18 -9 56 -9 85 0 28 -4 54
-10 58 -6 4 -5 16 1 33 10 27 4 107 -12 149 -4 12 -17 24 -28 28 -12 3 -21 11
-21 17 0 5 7 8 15 5 8 -4 17 -2 20 3 4 6 -2 10 -12 11 -10 0 -13 3 -5 6 16 6
15 23 -5 64 -20 39 -30 51 -60 67 -28 15 -26 16 -53 -13z"/>
<path d="M3337 3903 c-37 -23 -40 -28 -41 -70 -1 -13 -5 -24 -11 -25 -8 -2
-45 -64 -45 -75 0 -1 7 0 15 3 12 5 15 -2 15 -28 0 -19 5 -39 12 -46 17 -17
73 -15 88 3 7 8 25 15 41 15 15 0 31 5 35 11 8 14 -14 29 -42 29 -29 0 -50 25
-29 34 9 3 25 1 35 -4 27 -14 50 -12 50 4 0 8 -14 18 -32 21 l-32 7 30 13 29
12 -25 6 c-14 4 -38 8 -55 10 -28 3 -27 4 12 11 39 8 42 10 31 30 -6 11 -18
30 -27 42 l-16 21 -38 -24z"/>
<path d="M2346 3371 c-8 -12 52 -139 84 -181 17 -22 25 -24 79 -22 40 2 61 -1
61 -8 0 -6 6 -10 13 -8 6 1 22 -3 34 -10 12 -7 59 -19 105 -28 106 -20 112
-25 93 -89 -9 -28 -21 -54 -28 -60 -6 -5 -12 -14 -13 -20 0 -5 -9 -28 -19 -50
-10 -22 -20 -66 -23 -98 -4 -49 -1 -64 17 -88 19 -26 20 -33 10 -73 -6 -24 -9
-54 -6 -67 4 -22 4 -22 6 4 0 15 6 27 11 27 6 0 8 -21 4 -56 l-7 -56 27 25
c14 13 26 27 26 31 0 4 7 14 15 23 9 8 19 28 22 44 3 16 11 29 18 29 7 0 32
33 55 73 64 111 70 123 143 247 76 127 90 146 106 136 11 -7 -1 -43 -18 -56
-8 -6 -141 -239 -141 -246 0 -3 -13 -24 -29 -47 -61 -89 -198 -347 -183 -347
4 0 12 -10 17 -22 12 -27 74 -41 153 -34 63 6 105 33 132 86 11 21 25 44 32
51 7 8 26 43 43 79 16 36 41 83 55 104 22 35 41 67 92 156 88 154 108 191 108
203 0 8 8 25 19 38 22 29 54 136 47 155 -3 8 -17 14 -31 14 -35 0 -115 19
-140 33 -23 13 -86 24 -200 37 -90 10 -161 23 -238 44 -57 16 -219 32 -282 27
-22 -1 -45 -9 -51 -17 -6 -8 -20 -14 -30 -14 -16 0 -16 2 -4 10 26 16 0 25
-90 28 -56 3 -90 0 -94 -7z"/>
<path d="M2242 3259 c-30 -43 -55 -85 -56 -93 -1 -9 -5 -19 -9 -22 -4 -4 -7
-15 -7 -25 0 -19 7 -19 105 2 66 14 100 9 99 -14 -2 -21 15 -18 30 6 8 12 0
36 -33 101 -24 47 -51 94 -60 105 -16 18 -18 16 -69 -60z"/>
<path d="M3625 3140 c-11 -4 -31 -19 -44 -34 -20 -21 -22 -28 -11 -41 15 -18
7 -29 -22 -30 -15 0 -29 -14 -48 -51 -14 -29 -40 -74 -57 -100 -17 -27 -43
-71 -59 -99 -130 -234 -230 -398 -266 -440 -46 -53 -71 -62 -178 -68 -161 -9
-185 -47 -87 -141 51 -49 147 -116 166 -116 6 0 21 -10 34 -23 13 -12 35 -32
50 -45 16 -12 25 -27 22 -31 -3 -5 8 -23 25 -39 18 -18 30 -41 30 -56 0 -14 6
-43 14 -63 17 -46 48 -143 50 -160 6 -39 78 -80 231 -131 131 -44 266 -68 251
-44 -2 4 -1 14 3 21 7 10 13 10 30 2 28 -15 27 -31 -1 -32 -22 0 -22 -1 2 -10
30 -12 190 -14 199 -2 3 4 13 9 21 11 8 2 22 10 31 18 8 8 25 14 37 14 11 0
23 4 27 10 3 5 12 7 20 3 21 -7 19 27 -2 72 -10 21 -24 35 -35 35 -23 0 -35
27 -19 43 8 8 19 3 42 -22 16 -18 32 -31 34 -29 6 6 -32 85 -45 93 -5 3 -10
10 -10 16 0 18 15 9 35 -21 11 -16 25 -30 32 -30 22 0 20 25 -5 75 l-24 50 24
-22 c31 -30 41 -29 36 2 -3 14 -2 25 3 25 13 0 27 62 33 154 l6 90 -51 49
c-63 60 -57 75 8 17 47 -41 65 -41 43 -1 -8 17 -7 24 10 41 13 13 20 32 19 52
-1 18 5 64 14 102 15 67 15 70 -4 98 -11 15 -16 28 -10 28 6 0 11 -4 11 -10 0
-21 26 -9 43 20 10 16 39 44 65 61 42 28 115 96 118 109 0 3 4 13 8 22 5 12
-3 31 -28 64 -20 26 -36 56 -37 68 -1 52 -11 101 -20 107 -6 3 -9 10 -7 15 1
5 -12 13 -29 19 -29 8 -33 13 -33 45 0 39 -29 80 -56 80 -8 0 -13 4 -10 9 3 5
-18 11 -47 13 -57 6 -81 15 -142 52 -87 54 -99 58 -199 62 -109 5 -119 6 -126
15 -9 11 -94 17 -115 9z"/>
<path d="M1839 3053 c-24 -6 -12 -56 25 -98 l32 -36 49 45 c28 24 52 43 54 41
2 -2 -15 -26 -38 -53 -22 -28 -41 -52 -41 -55 0 -2 16 -2 36 0 59 6 125 60
116 96 -1 4 3 7 10 7 6 0 3 9 -7 20 -14 16 -15 20 -4 21 8 1 -4 5 -26 10 -41
8 -178 10 -206 2z"/>
<path d="M2670 3040 c-19 -4 -58 -4 -86 -2 -38 3 -60 0 -82 -14 -17 -10 -29
-21 -27 -24 2 -4 -13 -27 -33 -52 -20 -25 -46 -59 -57 -74 -63 -91 -149 -138
-309 -170 -42 -8 -86 -26 -86 -35 0 -5 -14 -9 -32 -9 -35 0 -188 -58 -188 -71
0 -5 -10 -8 -22 -8 -26 2 -105 -24 -160 -52 -47 -24 -76 -79 -60 -115 7 -13
16 -24 22 -24 5 0 10 -6 10 -14 0 -8 12 -24 26 -35 15 -12 23 -21 19 -21 -4 0
8 -15 27 -34 18 -19 45 -47 59 -63 33 -35 129 -186 129 -201 0 -6 6 -15 13
-19 7 -4 27 -42 45 -83 18 -41 40 -89 49 -107 9 -18 12 -40 9 -50 -5 -13 1
-10 21 10 42 39 49 33 20 -15 -17 -30 -22 -49 -17 -64 5 -11 11 -47 15 -80 4
-32 13 -85 21 -118 9 -32 12 -72 9 -88 -4 -16 -7 -68 -7 -115 -1 -74 2 -86 20
-99 12 -8 19 -21 16 -28 -3 -8 0 -17 6 -21 17 -10 110 27 144 57 11 10 27 20
36 23 9 3 23 21 30 40 8 19 18 35 22 35 16 0 7 271 -12 365 -15 77 -16 93 -4
112 17 28 17 33 1 33 -9 0 -12 10 -9 30 2 16 8 27 13 25 4 -3 20 13 35 36 14
23 35 52 45 63 11 11 19 23 19 28 0 12 77 123 96 139 33 27 47 96 48 239 1 71
6 103 19 128 14 26 16 45 11 96 -6 61 -4 68 37 155 23 50 46 91 50 91 8 0 22
40 20 58 -1 6 3 12 8 12 16 0 50 41 68 80 9 19 18 38 20 41 5 11 -30 15 -67 9z"/>
<path d="M0 2725 l0 -114 33 4 32 5 -33 -12 -32 -11 0 -434 c0 -345 3 -433 12
-427 10 6 10 5 1 -7 -17 -21 -16 -172 0 -163 8 5 7 2 0 -7 -7 -7 -13 -19 -13
-26 0 -14 54 9 110 46 14 9 47 18 75 19 27 2 54 7 60 12 6 5 23 11 38 14 15 3
49 21 76 40 50 37 76 38 41 1 -16 -17 -17 -22 -5 -22 8 0 15 7 15 14 0 8 17
21 38 29 35 14 37 18 36 57 0 23 -4 71 -8 107 -4 36 -8 77 -9 93 -2 30 -18 35
-37 12 -15 -18 -37 -20 -43 -2 -2 6 9 20 25 29 29 18 39 42 13 32 -19 -8 -19
10 0 30 19 19 19 26 0 26 -8 0 -15 4 -15 10 0 14 40 32 61 27 12 -3 24 4 35
22 10 14 26 33 36 42 10 9 18 26 18 37 0 11 8 23 19 27 10 3 22 13 25 23 3 9
17 37 31 61 14 25 27 63 29 85 3 35 7 41 27 41 17 0 25 7 29 25 3 14 18 31 35
40 17 8 33 20 37 25 4 6 26 15 49 20 49 12 69 36 53 63 -6 9 -21 18 -33 20
-12 2 -25 10 -28 18 -3 8 -17 14 -32 15 -18 1 -13 4 19 11 40 9 42 11 23 19
-25 9 -29 19 -12 36 16 16 1 35 -21 28 -10 -3 -21 -2 -24 3 -3 5 -27 5 -53 1
-26 -5 -86 -14 -133 -20 -47 -7 -87 -15 -90 -20 -8 -12 -60 -22 -60 -12 0 5
-42 7 -95 5 -90 -4 -96 -3 -125 22 -18 14 -41 26 -53 26 -26 0 -42 10 -49 29
-2 8 -24 20 -49 27 -82 25 -79 29 -79 -101z"/>
<path d="M1025 2750 c-8 -57 9 -122 36 -138 11 -7 19 -8 19 -3 0 6 16 4 38 -3
32 -12 41 -11 64 2 36 21 40 43 14 94 -32 66 -58 86 -115 91 l-49 5 -7 -48z"/>
<path d="M4680 2483 c-19 -9 -37 -17 -40 -18 -48 -18 -90 -43 -90 -53 0 -9
-10 -11 -35 -6 -19 3 -43 3 -52 -2 -18 -7 -27 -10 -40 -13 -5 -1 -23 -14 -41
-30 -28 -25 -35 -41 -47 -106 -8 -42 -12 -81 -9 -86 3 -6 1 -15 -4 -22 -16
-21 -42 -212 -43 -324 0 -18 -5 -33 -10 -33 -12 0 -12 -30 1 -31 6 -1 16 -2
23 -3 17 -1 36 -28 30 -44 -4 -9 -15 -11 -34 -7 -33 7 -49 -15 -49 -69 0 -55
-20 -136 -47 -194 -24 -48 -56 -81 -108 -107 -13 -7 -19 -19 -17 -33 4 -28
-11 -28 -30 0 -17 26 -38 17 -38 -18 0 -31 -14 -31 -28 1 -12 25 -14 26 -119
25 -60 -1 -133 4 -163 10 -30 7 -73 16 -95 20 -22 4 -76 15 -120 25 -121 27
-129 26 -133 -13 -3 -29 3 -40 39 -74 23 -22 58 -47 76 -55 19 -7 42 -27 51
-43 9 -17 20 -30 23 -30 3 0 23 -14 45 -30 21 -17 53 -38 71 -47 18 -8 43 -28
54 -44 30 -43 59 -34 50 15 -1 5 4 4 12 -2 18 -15 50 -4 43 14 -3 8 -9 21 -12
29 -9 22 14 18 28 -4 7 -12 16 -17 23 -12 5 5 51 11 100 15 137 9 165 15 165
37 0 11 5 19 10 19 6 0 10 -4 10 -10 0 -5 19 -10 43 -10 47 0 87 30 87 64 0
13 5 16 20 11 23 -7 76 18 88 43 5 9 8 27 6 40 -3 19 0 22 13 18 14 -4 22 4
35 37 24 60 32 107 19 107 -6 0 -11 8 -11 18 0 13 2 14 9 3 12 -18 17 -4 21
54 2 28 4 61 5 75 1 14 6 37 12 51 15 35 25 132 16 144 -14 18 -52 35 -79 35
-16 0 -24 5 -22 12 5 14 72 12 100 -3 21 -11 22 -8 37 155 15 157 37 201 121
241 43 21 56 32 53 45 -4 14 2 17 34 16 34 -1 38 1 35 22 -2 16 2 22 15 23 10
0 13 3 6 6 -15 5 -18 33 -4 33 4 0 21 -10 36 -21 l27 -22 24 28 c29 34 29 37
2 55 -12 8 -32 25 -44 37 -13 11 -37 24 -54 28 -16 4 -28 11 -24 16 9 14 -38
10 -76 -8z"/>
<path d="M1215 2391 c-12 -13 -15 -13 -15 -1 0 9 -3 11 -10 4 -11 -11 26 -114
41 -114 5 0 9 -7 9 -15 0 -8 7 -15 15 -15 8 0 17 -11 21 -25 7 -29 37 -68 112
-141 28 -29 52 -58 52 -65 0 -7 17 -33 38 -58 122 -147 170 -273 183 -481 4
-74 8 -139 9 -145 2 -31 -10 -125 -19 -148 -13 -33 -14 -77 -3 -77 14 0 32 23
32 41 0 20 26 33 36 18 3 -6 -3 -20 -14 -32 -11 -12 -23 -32 -27 -44 -8 -27
-34 -31 -36 -5 -2 22 -17 -64 -18 -102 -1 -20 3 -27 13 -23 18 7 14 -20 -9
-65 -8 -18 -18 -45 -21 -61 -2 -17 -9 -38 -14 -47 -7 -13 -5 -21 5 -30 12 -10
11 -19 -11 -60 -28 -53 -30 -110 -4 -118 8 -3 12 -1 8 2 -3 4 2 16 12 26 10
10 22 26 28 36 18 33 24 7 6 -28 -13 -26 -14 -30 -2 -21 17 15 29 7 21 -13 -3
-9 -13 -12 -23 -9 -15 5 -25 -8 -51 -60 -17 -36 -30 -68 -27 -71 3 -2 11 9 18
26 7 16 17 30 22 30 10 0 7 -24 -8 -76 -5 -19 -1 -21 59 -23 65 -2 65 -2 72
28 3 16 13 32 21 35 18 7 18 -8 -2 -45 -14 -28 -14 -30 3 -27 28 5 39 26 58
110 14 63 15 84 5 113 -6 19 -16 35 -21 35 -5 0 -9 11 -9 25 0 14 -4 25 -9 25
-9 0 -8 19 5 74 l7 29 -32 -24 c-22 -16 -34 -20 -42 -12 -15 15 4 49 38 65 17
8 40 37 61 78 29 56 32 70 27 111 -5 36 -3 48 9 52 8 3 17 21 20 39 27 177 29
200 15 209 -10 6 -10 9 -1 9 6 0 12 7 12 17 0 15 -2 14 -20 -2 -10 -9 -18 -27
-17 -38 1 -12 -5 -23 -14 -24 -12 -3 -14 4 -11 32 5 41 49 85 64 63 10 -16 10
28 1 140 -4 60 -10 82 -20 82 -7 0 -18 12 -24 26 -7 21 -6 31 7 45 15 17 15
22 -2 76 -10 32 -29 68 -41 79 -15 13 -21 28 -17 38 9 24 -3 61 -30 93 -14 16
-26 42 -28 57 -3 29 -114 156 -136 156 -7 0 -12 8 -12 18 0 11 -15 32 -32 49
-18 16 -50 49 -71 73 -21 24 -55 56 -74 72 -32 25 -43 28 -104 26 -46 -1 -73
-7 -84 -17z"/>
<path d="M980 2362 c0 -5 -17 -12 -37 -15 -49 -6 -64 -11 -85 -22 -26 -16 -87
-116 -81 -133 5 -11 2 -14 -9 -9 -14 5 -58 -32 -58 -49 0 -4 -10 -15 -22 -26
-15 -13 -22 -29 -21 -53 1 -26 -4 -34 -21 -39 -18 -4 -22 -12 -22 -50 0 -24 4
-42 8 -40 4 3 8 0 8 -7 0 -10 3 -10 12 -1 16 16 28 15 28 -2 0 -8 -7 -17 -16
-20 -8 -3 -13 -10 -10 -15 4 -5 2 -11 -3 -13 -6 -2 -6 -21 0 -51 l11 -47 30
21 30 22 -15 -29 c-26 -50 -76 -99 -61 -59 4 8 2 15 -4 15 -6 0 -9 -29 -8 -70
l1 -69 48 47 c55 54 62 47 12 -13 -45 -55 -96 -81 -177 -90 -65 -7 -65 -7 -99
-58 -38 -56 -68 -77 -48 -33 7 14 16 26 21 26 4 0 8 5 8 10 0 15 -77 12 -109
-4 -15 -8 -40 -31 -55 -50 -16 -21 -36 -36 -48 -36 -13 0 -52 -32 -104 -85
-83 -84 -84 -85 -84 -136 0 -48 1 -50 17 -38 17 13 17 13 0 -7 -16 -19 -17
-62 -17 -577 l0 -557 543 2 542 3 0 37 c0 20 9 49 20 65 11 15 36 59 55 96 19
37 47 82 62 100 l28 32 -16 -40 c-9 -22 -25 -57 -35 -77 -59 -116 72 49 147
186 7 12 15 36 19 55 9 43 -9 34 -30 -15 -14 -34 -43 -50 -31 -16 14 36 52 82
65 79 25 -4 77 85 108 187 6 19 5 19 -18 3 -26 -19 -43 -22 -34 -7 3 5 0 18
-7 29 -10 17 -10 23 0 33 10 10 14 8 19 -10 5 -22 7 -21 30 17 22 37 62 166
63 200 0 11 -4 11 -18 -2 -33 -30 -34 -18 -5 35 17 29 33 68 36 86 6 30 5 32
-13 22 -16 -9 -20 -8 -20 5 0 8 11 20 24 26 16 8 22 17 19 30 -5 17 -7 17 -29
2 -35 -23 -29 -4 12 38 l35 36 6 152 c5 124 3 165 -12 228 -19 87 -71 197
-119 258 -17 22 -39 51 -48 65 -13 21 -61 73 -107 115 -24 22 -71 83 -71 92 0
14 -42 51 -70 61 -16 6 -33 6 -48 -1 -15 -7 -26 -7 -33 0 -7 7 -1 12 20 16 37
8 41 32 10 71 -15 19 -28 26 -42 22 -14 -3 -29 5 -48 26 -16 16 -29 26 -29 20z"/>
<path d="M5019 2304 c-6 -8 -18 -14 -25 -14 -8 0 -43 -18 -78 -40 -35 -22 -78
-43 -97 -47 -19 -3 -49 -15 -67 -25 -18 -10 -40 -18 -50 -18 -26 -1 -50 -23
-67 -64 -22 -53 -46 -186 -39 -218 3 -16 2 -28 -3 -28 -5 0 -9 -8 -9 -17 0
-10 -4 -54 -8 -99 -6 -67 -4 -83 8 -94 23 -18 20 -30 -6 -27 -18 2 -24 -4 -26
-26 -2 -16 2 -35 9 -43 9 -11 8 -14 -3 -14 -11 0 -18 -19 -25 -70 -8 -63 -7
-72 9 -87 10 -9 18 -21 18 -26 0 -6 -8 -3 -18 6 -20 19 -32 13 -32 -14 0 -25
-35 -89 -68 -126 -15 -17 -39 -45 -55 -62 -15 -17 -34 -31 -42 -31 -8 0 -15
-3 -15 -8 0 -7 -16 -15 -92 -47 -45 -18 -215 -61 -280 -70 -46 -6 -59 -17 -38
-30 6 -3 10 -14 10 -23 0 -13 -5 -12 -20 8 -18 23 -20 23 -20 5 0 -17 -2 -17
-10 -5 -7 11 -10 3 -10 -31 0 -25 -5 -50 -11 -56 -14 -14 10 -153 28 -160 7
-3 13 -11 13 -19 0 -7 8 -19 18 -26 10 -7 28 -33 41 -58 25 -50 43 -83 52 -90
3 -3 10 -39 16 -80 11 -68 15 -78 50 -107 20 -17 40 -30 44 -27 4 2 10 -2 13
-8 3 -7 5 2 3 20 -5 50 7 38 37 -35 14 -38 35 -79 46 -93 l20 -25 -10 28 c-5
16 -10 43 -9 60 0 30 1 29 14 -13 7 -25 16 -55 20 -66 4 -14 17 -24 36 -26 36
-6 38 12 8 61 -11 18 -18 40 -15 48 4 8 -8 44 -25 80 -17 35 -29 67 -26 69 2
3 10 -9 17 -25 6 -16 20 -37 31 -47 13 -12 19 -29 18 -58 -2 -49 54 -149 86
-154 11 -2 25 -10 31 -18 6 -8 14 -14 17 -14 7 0 -28 92 -63 161 -17 32 -28
59 -26 59 4 0 116 -183 125 -205 7 -16 25 -32 58 -48 17 -9 33 -23 36 -32 5
-12 25 -15 101 -15 l94 0 -52 98 c-29 53 -63 114 -76 135 -12 20 -20 37 -17
37 6 0 111 -163 147 -228 22 -38 27 -42 63 -42 27 0 37 4 34 13 -2 6 -10 11
-16 9 -7 -1 -10 2 -7 7 4 5 -17 40 -46 78 -105 138 -169 253 -93 167 31 -36
34 -37 35 -16 0 23 1 22 26 -8 29 -34 25 -52 -8 -31 -25 15 74 -131 114 -171
16 -14 28 -31 28 -37 0 -8 82 -11 275 -11 l275 0 0 224 0 224 -65 61 c-67 63
-89 74 -79 44 5 -15 3 -15 -10 1 -12 15 -13 22 -4 27 13 8 38 -10 105 -72 23
-21 44 -39 47 -39 3 0 6 31 6 69 l0 69 -66 63 c-85 82 -101 111 -42 72 24 -15
58 -38 76 -51 29 -22 32 -23 32 -6 0 11 -23 35 -56 59 -60 43 -95 77 -59 58
11 -6 40 -27 65 -47 59 -47 67 -35 10 15 -49 41 -45 51 8 19 l32 -20 0 47 c0
40 -5 51 -32 76 -29 26 -30 27 -6 13 37 -22 38 -21 38 24 0 38 -2 40 -53 65
-47 22 -113 75 -93 75 11 0 87 -40 119 -62 l27 -19 0 58 0 58 -66 35 c-36 19
-60 36 -55 38 6 2 36 -10 66 -26 l55 -30 0 26 c0 14 -8 34 -17 45 -17 19 -17
20 0 14 20 -7 25 18 5 26 -10 4 -10 6 0 6 21 2 13 31 -15 57 l-28 24 28 -10
27 -10 0 390 0 389 -22 23 c-28 28 -119 88 -173 112 -22 10 -79 38 -127 62
-74 36 -88 40 -99 28z m-161 -1606 c33 -48 69 -84 77 -76 3 3 -9 25 -26 49
-19 27 10 2 78 -67 60 -61 115 -123 122 -138 16 -30 4 -51 -13 -22 -10 17 -32
46 -112 143 -24 30 -44 36 -44 12 0 -5 16 -26 35 -47 19 -21 48 -65 65 -97 17
-33 56 -90 86 -127 31 -38 54 -74 52 -80 -4 -12 -67 66 -128 157 -18 28 -44
62 -58 78 -14 15 -27 37 -29 49 -2 12 -22 42 -46 68 -53 60 -107 127 -107 134
0 18 23 1 48 -36z"/>
<path d="M2616 2026 c7 -28 -24 -46 -38 -21 -16 27 -28 16 -24 -20 8 -65 131
-245 168 -245 6 0 23 -14 38 -30 32 -35 90 -58 90 -34 0 19 7 18 38 -7 23 -18
27 -19 30 -5 5 24 21 19 34 -9 8 -17 19 -25 37 -25 45 0 50 10 47 85 l-4 70
-63 58 c-35 32 -78 65 -96 73 -18 8 -37 23 -42 33 -6 10 -35 29 -66 42 -30 12
-55 26 -55 29 0 11 -49 30 -76 30 -21 0 -23 -4 -18 -24z"/>
<path d="M2455 1790 c-4 -6 -7 -43 -7 -83 0 -54 5 -83 22 -117 28 -56 101
-149 118 -150 6 0 12 -4 12 -9 0 -5 10 -13 23 -17 12 -3 29 -12 37 -19 16 -14
105 -46 130 -47 8 0 23 3 33 7 10 4 17 3 17 -5 0 -17 28 -42 40 -35 6 3 17 0
25 -8 8 -8 40 -18 72 -21 32 -4 77 -9 101 -13 36 -4 42 -3 43 13 4 59 -10 101
-43 138 -10 11 -18 25 -18 30 -1 17 -85 64 -127 72 -21 4 -62 15 -90 26 -29
11 -62 17 -73 13 -11 -3 -20 -2 -20 3 0 5 -24 26 -54 46 -30 21 -70 53 -88 72
-18 18 -38 34 -45 34 -6 0 -15 9 -18 21 -4 11 -21 29 -38 40 -37 22 -43 23
-52 9z"/>
<path d="M2418 1412 c-28 -32 -41 -81 -34 -125 6 -37 5 -40 -7 -24 -12 18 -15
16 -41 -23 -15 -22 -35 -48 -46 -57 -10 -9 -16 -21 -14 -27 5 -13 -56 -56 -80
-56 -9 0 -14 -4 -11 -10 3 -5 3 -10 -2 -10 -17 0 -64 -49 -68 -70 -6 -33 -34
-72 -46 -64 -8 4 -8 1 -1 -13 7 -13 7 -32 -1 -60 -17 -64 -1 -105 48 -122 84
-29 151 -36 172 -20 15 12 16 12 10 -3 -3 -10 -2 -18 4 -18 5 0 12 7 15 15 4
8 10 12 15 9 5 -3 7 -10 4 -15 -4 -5 10 -9 29 -9 33 0 36 2 36 30 0 17 5 30
11 30 7 0 9 -12 7 -31 l-5 -30 70 6 c87 7 89 8 105 23 21 19 32 14 32 -14 0
-21 4 -25 23 -22 12 2 26 13 32 26 5 12 17 22 26 22 12 0 18 15 24 63 20 165
23 169 20 27 -2 -80 -2 -136 1 -125 8 27 24 43 24 23 0 -20 23 -39 37 -30 6 4
13 18 14 31 5 31 25 38 24 9 0 -33 19 -38 23 -5 4 29 22 38 22 11 0 -14 3 -14
15 -4 17 14 17 14 32 -14 6 -11 23 -20 39 -21 16 -2 59 -6 96 -10 l67 -8 14
34 c15 35 16 34 32 -16 6 -22 26 -18 32 5 5 20 23 28 23 11 0 -17 51 -18 85
-2 29 14 35 23 41 59 15 96 -22 203 -79 227 -27 11 -33 11 -40 0 -13 -24 -34
-6 -41 35 -5 31 -9 37 -25 33 -13 -3 -23 2 -31 17 -7 12 -18 19 -26 16 -8 -3
-14 -1 -14 5 0 6 -7 8 -16 5 -8 -3 -13 -2 -10 3 3 5 -6 12 -22 15 -15 4 -35 9
-44 12 -12 4 -15 0 -11 -16 6 -23 -24 -29 -33 -6 -3 8 -17 17 -31 21 -19 4
-23 9 -14 18 16 16 14 27 -5 27 -13 0 -14 -10 -8 -70 5 -52 3 -70 -6 -70 -6 0
-10 6 -7 13 2 6 -4 40 -14 75 -10 34 -15 62 -12 62 3 0 0 6 -6 14 -6 7 -22 11
-35 9 -13 -3 -27 0 -30 6 -4 6 -16 11 -26 11 -27 0 -33 -33 -28 -141 3 -49 1
-92 -3 -95 -5 -3 -9 54 -9 125 l0 131 -34 0 c-19 0 -36 6 -39 13 -2 6 -35 23
-72 37 -40 15 -70 32 -72 42 -7 23 -32 31 -39 13 -10 -25 -24 -17 -24 14 0 34
-22 46 -42 23z"/>
<path d="M3486 823 c-12 -178 -28 -201 -141 -211 -36 -2 -65 -5 -65 -6 0 0 9
-30 20 -66 21 -68 26 -115 11 -106 -4 3 -6 -5 -4 -18 5 -22 11 -25 67 -28 33
-2 107 -1 164 2 123 7 136 16 153 105 18 96 -3 235 -40 265 -3 3 -17 29 -31
58 -19 40 -36 59 -69 77 -24 14 -47 25 -51 25 -4 0 -10 -44 -14 -97z"/>
<path d="M2425 598 c-2 -7 -8 -26 -13 -43 l-10 -30 -1 38 c-1 34 -3 37 -30 37
-28 0 -29 -2 -38 -67 -6 -41 -6 -82 -1 -110 9 -42 11 -43 45 -40 20 2 47 14
60 27 21 20 23 21 25 4 0 -11 4 1 8 26 l7 45 1 -47 2 -48 105 0 c97 0 105 1
105 20 0 27 21 70 31 64 5 -3 9 -22 9 -42 0 -28 3 -33 10 -22 8 13 10 12 10
-4 0 -14 5 -17 24 -12 14 3 28 2 31 -4 11 -19 23 -10 35 25 13 40 30 41 46 4
9 -20 21 -28 51 -31 47 -6 63 -1 64 21 0 12 3 10 11 -6 13 -28 24 -29 30 -5 7
25 49 26 55 1 11 -39 26 -19 19 27 -3 26 -2 43 3 39 5 -3 11 1 14 7 2 7 12 -5
21 -27 11 -25 13 -41 6 -43 -27 -9 8 -22 62 -22 54 0 59 2 52 18 -4 9 -8 33
-9 52 -1 61 -51 160 -81 160 -8 0 -14 -9 -14 -20 0 -16 -4 -18 -22 -11 -17 6
-26 4 -35 -8 -10 -14 -12 -13 -18 9 l-6 25 -232 -1 -232 -1 -3 -32 c-4 -42
-22 -40 -22 4 l0 35 -85 0 c-60 0 -87 -4 -90 -12z"/>
<path d="M2034 578 c-12 -15 -27 -48 -34 -74 -11 -40 -11 -51 1 -73 19 -34 57
-37 71 -5 6 12 16 20 23 18 18 -7 22 14 15 81 l-7 60 -14 -32 c-18 -44 -27
-41 -31 9 l-3 43 -21 -27z"/>
<path d="M3772 435 c-49 -100 -89 -119 -282 -130 -63 -4 -118 -9 -122 -12 -5
-2 -8 1 -8 6 0 7 -24 11 -60 11 -51 0 -60 -3 -60 -17 1 -23 36 -157 48 -180
14 -28 23 -73 14 -73 -6 0 -41 103 -88 258 -2 8 -10 12 -17 9 -18 -6 -12 -41
27 -136 29 -73 33 -111 11 -111 -15 0 -24 28 -45 135 -17 83 -22 90 -69 90
-32 0 -40 -3 -36 -15 17 -54 55 -224 55 -245 l0 -25 155 0 c174 0 171 -1 140
74 -8 20 -12 36 -8 36 5 0 17 -24 28 -52 l21 -53 342 -3 c365 -2 367 -2 323
44 -10 11 -34 26 -52 33 -19 7 -41 16 -49 20 -17 9 -108 174 -116 211 -6 29
-44 119 -59 138 -21 29 -45 52 -53 52 -4 0 -22 -29 -40 -65z"/>
<path d="M1404 456 c-3 -14 -12 -30 -20 -37 -8 -6 -14 -27 -14 -45 0 -32 -63
-167 -95 -204 -7 -8 -27 -38 -43 -67 -17 -29 -38 -64 -48 -78 l-16 -25 45 0
45 0 42 73 c22 39 59 103 81 140 22 38 38 71 35 75 -9 9 -43 -27 -56 -59 -7
-16 -19 -29 -27 -29 -20 0 -5 25 53 85 35 37 48 59 50 85 1 19 5 42 9 51 3 8
-3 25 -14 38 l-20 23 -7 -26z"/>
<path d="M1539 282 c-6 -21 -17 -46 -23 -57 -7 -11 -20 -40 -28 -65 -9 -25
-28 -71 -42 -103 l-26 -58 46 3 47 3 26 65 c26 64 50 111 51 99 0 -3 -13 -39
-30 -79 -16 -40 -30 -77 -30 -81 0 -5 40 -9 89 -9 107 0 108 2 134 132 17 84
17 87 -2 118 l-19 32 -21 -47 c-27 -61 -21 -70 8 -13 25 52 26 44 4 -45 -14
-61 -34 -90 -49 -74 -3 3 0 42 6 87 6 46 8 86 3 91 -4 4 -36 15 -70 23 l-62
14 -12 -36z"/>
<path d="M2475 310 c-16 -5 -21 -19 -25 -65 -3 -36 -10 -60 -18 -63 -10 -3
-13 9 -11 53 2 52 0 59 -19 66 -26 10 -122 0 -122 -13 0 -5 -7 -2 -16 7 -20
19 -44 4 -44 -29 0 -11 -5 -28 -10 -36 -9 -13 -11 -13 -20 0 -5 8 -10 25 -10
38 0 13 -4 20 -10 17 -5 -3 -10 -1 -10 4 0 15 -55 14 -68 -1 -9 -12 -21 -98
-22 -160 0 -16 -5 -28 -11 -28 -8 0 -10 21 -5 74 5 61 4 75 -9 79 -10 5 -16
-2 -20 -21 -4 -15 -15 -49 -25 -77 -21 -56 -40 -123 -40 -142 0 -10 27 -13
103 -13 l104 0 16 63 c15 57 16 38 1 -33 l-6 -30 130 0 131 0 5 32 c3 18 9 60
14 93 8 50 10 53 10 20 0 -22 -3 -64 -7 -93 l-7 -52 78 0 78 0 0 86 c0 48 -5
115 -12 150 -10 56 -14 64 -33 64 -16 0 -24 -8 -28 -27 -3 -16 -13 -37 -22
-48 -16 -19 -16 -19 -10 10 3 17 9 40 11 51 6 24 -11 35 -41 24z"/>
<path d="M2709 310 c-1 -8 -2 -26 -3 -40 -1 -14 -4 -41 -5 -60 l-3 -35 -8 30
c-6 23 -8 14 -10 -40 -1 -38 -5 -90 -9 -115 -6 -34 -9 -10 -12 97 -4 141 -11
170 -38 154 -12 -8 -12 -24 -1 -102 7 -52 11 -118 9 -147 l-4 -52 38 0 37 0 1
78 c1 56 3 69 9 47 4 -16 8 -51 9 -77 l1 -48 56 0 55 0 -1 63 c-1 34 -1 67 0
72 4 22 18 -43 19 -87 1 -29 6 -48 12 -48 13 0 6 81 -16 187 -8 38 -15 78 -15
90 0 28 -12 35 -45 27 -18 -4 -25 -13 -25 -31 0 -31 -16 -21 -34 20 -8 18 -15
25 -17 17z"/>
<path d="M2923 272 c-43 -37 -46 -96 -8 -134 14 -14 29 -43 34 -64 7 -31 9
-34 11 -14 2 19 5 15 15 -20 l14 -45 -6 50 c-3 28 -12 77 -18 110 -14 66 -12
89 3 29 5 -22 14 -59 21 -84 7 -25 15 -57 18 -73 4 -18 11 -27 25 -27 16 0 19
5 13 28 -3 16 -10 60 -15 98 -5 38 -15 92 -23 119 -17 60 -38 67 -84 27z"/>
</g>
</svg>
