<?xml version="1.0" standalone="no"?>
<!DOCTYPE svg PUBLIC "-//W3C//DTD SVG 20010904//EN"
 "http://www.w3.org/TR/2001/REC-SVG-20010904/DTD/svg10.dtd">
<svg version="1.0" xmlns="http://www.w3.org/2000/svg"
 width="544.000000pt" height="544.000000pt" viewBox="0 0 544.000000 544.000000"
 preserveAspectRatio="xMidYMid meet">
<metadata>
Created by potrace 1.16, written by Peter Selinger 2001-2019
</metadata>
<g transform="translate(0.000000,544.000000) scale(0.100000,-0.100000)"
fill="#000000" stroke="none">
<path d="M15 5428 c29 -17 71 -58 60 -58 -6 0 -25 9 -42 20 l-33 20 0 -255 c0
-251 0 -254 22 -269 12 -9 18 -16 12 -16 -5 0 -15 5 -22 12 -9 9 -12 -211 -12
-990 l0 -1002 26 -6 c14 -4 66 -33 115 -65 l90 -59 147 0 c81 -1 174 4 207 9
98 17 255 63 255 76 0 26 -23 75 -35 75 -10 0 -11 7 -4 28 7 19 5 55 -9 127
-15 82 -21 99 -35 97 -19 -3 -24 14 -6 20 8 3 13 68 14 218 1 118 5 244 9 280
13 128 90 384 169 563 16 36 18 50 9 59 -18 18 -14 31 8 25 14 -4 26 3 40 23
11 15 20 31 20 34 0 11 80 136 143 223 35 48 66 96 70 106 3 9 12 17 20 17 7
0 56 42 110 93 53 52 111 104 130 117 18 13 38 32 43 44 5 11 29 27 54 36 25
9 65 29 89 44 53 34 306 161 339 171 12 3 22 11 22 16 0 5 7 9 15 9 9 0 25 8
36 19 17 16 19 26 13 85 l-7 66 -68 0 c-39 0 -69 -4 -69 -10 0 -5 -7 -10 -15
-10 -8 0 -15 5 -15 10 0 7 -215 10 -625 10 -479 0 -625 -3 -625 -12 0 -9 -3
-9 -12 0 -7 7 -42 12 -85 12 -50 0 -73 -4 -73 -12 0 -9 -3 -9 -12 0 -9 9 -80
12 -257 12 -191 -1 -242 -3 -226 -12z"/>
<path d="M2259 5408 c6 -27 13 -33 56 -46 43 -12 70 -13 190 -2 146 13 511 10
535 -5 7 -4 38 -14 69 -21 31 -6 92 -22 136 -34 44 -12 100 -23 124 -24 26 0
46 -6 49 -14 2 -6 56 -37 119 -67 155 -74 419 -237 431 -267 2 -4 9 -8 15 -8
7 -1 39 -28 72 -60 45 -45 69 -62 98 -66 41 -7 41 -7 27 -34 -8 -15 -4 -24 21
-47 49 -44 119 -115 119 -119 0 -3 13 -18 30 -34 34 -34 83 -46 123 -31 35 14
178 14 277 0 104 -14 201 -14 209 0 4 6 43 19 87 28 43 8 88 22 99 29 11 8 25
14 32 14 7 0 22 9 33 20 11 11 30 20 43 20 27 0 47 17 47 41 0 10 6 20 13 22
8 4 6 6 -4 6 -9 1 -43 -12 -75 -29 -32 -16 -66 -30 -74 -29 -16 0 13 17 125
73 77 39 151 99 140 115 -3 6 -1 11 4 11 7 0 11 23 11 56 l0 57 -32 -7 -33 -6
25 20 c14 11 28 20 33 20 4 0 7 5 7 11 0 7 -9 9 -22 6 l-23 -6 22 18 c20 16
22 28 22 105 l0 87 -35 -21 c-18 -12 -34 -19 -34 -17 0 3 16 15 35 27 l35 22
0 89 c0 49 -2 89 -4 89 -3 0 -24 -13 -48 -28 -39 -27 -78 -45 -78 -39 0 2 29
23 65 46 36 24 65 47 65 52 0 14 -194 11 -209 -3 -11 -10 -13 -10 -7 0 6 9
-145 12 -738 12 -586 0 -745 -3 -749 -12 -4 -10 -6 -10 -6 0 -1 9 -156 12
-740 12 l-738 0 6 -32z"/>
<path d="M2545 5284 c-93 -11 -210 -35 -213 -44 -2 -5 -10 -10 -19 -10 -8 0
-28 -9 -44 -21 -35 -24 -38 -62 -9 -99 11 -14 20 -29 20 -35 0 -5 15 -17 33
-26 36 -18 111 -16 212 5 63 13 284 7 447 -12 53 -7 70 -5 82 6 18 18 42 6 26
-13 -14 -17 -6 -21 55 -30 44 -6 161 -46 263 -91 18 -8 39 -14 46 -14 8 0 19
-7 27 -16 7 -9 42 -31 78 -49 36 -19 86 -48 111 -64 25 -17 49 -31 53 -31 5 0
20 -11 35 -25 136 -125 163 -144 186 -135 13 4 29 4 37 0 14 -10 13 -12 -13
-26 -15 -8 -12 -14 22 -52 22 -24 40 -47 40 -52 0 -17 55 -60 77 -60 24 0 32
-25 11 -33 -9 -3 -8 -10 6 -26 15 -16 30 -21 72 -21 63 0 86 19 103 84 9 37 8
49 -10 87 -20 41 -68 106 -106 144 -10 11 -25 14 -44 10 -32 -7 -36 0 -14 25
14 16 8 25 -77 108 -114 110 -160 152 -170 152 -3 0 -13 6 -20 13 -45 43 -295
178 -413 224 -186 72 -223 83 -330 104 -83 15 -160 21 -315 24 -113 2 -223 1
-245 -1z"/>
<path d="M1978 5138 c-20 -7 -28 -17 -28 -35 0 -22 -1 -23 -16 -9 -17 18 -24
19 -42 8 -7 -5 -10 -16 -6 -25 8 -22 -5 -22 -22 1 -12 16 -14 15 -41 -10 -16
-16 -34 -28 -41 -28 -6 0 -43 -20 -82 -45 -39 -25 -74 -45 -79 -45 -5 0 -11
-7 -15 -15 -3 -8 -12 -15 -20 -15 -9 0 -18 -11 -22 -25 -4 -15 -13 -25 -24
-25 -9 0 -26 -8 -37 -17 -11 -10 -46 -40 -77 -68 -55 -48 -180 -193 -240 -279
-16 -22 -32 -42 -37 -44 -5 -2 -9 -8 -9 -14 0 -5 -11 -24 -24 -41 -22 -30
-116 -201 -116 -212 0 -3 7 -5 15 -5 8 0 15 -5 15 -11 0 -7 -9 -9 -21 -6 -17
5 -24 -2 -41 -40 -11 -25 -21 -51 -22 -57 -3 -17 -16 -59 -26 -81 -17 -42 -60
-244 -70 -330 -16 -142 -13 -458 5 -540 9 -39 18 -85 20 -103 7 -46 92 -306
114 -351 11 -20 33 -52 49 -69 27 -29 36 -32 86 -32 47 0 61 4 81 25 29 29 30
30 9 108 -21 81 -48 133 -74 140 -18 5 -19 8 -9 24 9 15 7 37 -10 105 -73 298
-58 720 36 977 12 33 13 46 5 49 -21 7 -13 33 9 30 16 -2 24 5 33 32 29 78
127 268 152 291 14 13 41 47 59 74 35 52 201 219 268 269 20 16 37 35 37 43 0
9 6 13 15 9 17 -6 91 40 145 89 19 18 51 36 70 39 19 4 60 22 90 40 l55 33 -2
58 c-1 32 -5 66 -9 74 -4 9 -8 20 -8 24 -1 4 -8 12 -16 17 -8 5 -10 10 -5 10
6 0 3 5 -5 10 -18 12 -37 11 -72 -2z"/>
<path d="M2565 4963 c-11 -2 -27 -7 -35 -10 -8 -3 -28 -8 -45 -10 -16 -3 -36
-10 -42 -16 -18 -18 -28 -77 -14 -77 7 0 9 -4 6 -10 -3 -5 16 -31 43 -57 47
-46 102 -114 102 -125 0 -3 -7 -8 -15 -12 -9 -3 -31 8 -53 27 -37 33 -107 83
-141 102 -10 6 -27 17 -36 25 -10 8 -20 14 -22 12 -2 -1 -17 5 -34 14 -17 8
-40 14 -50 11 -11 -3 -17 -2 -14 3 16 25 -145 -13 -170 -40 -14 -15 -14 -18 0
-30 8 -7 15 -27 15 -46 0 -18 5 -36 10 -39 6 -3 10 -12 10 -18 0 -7 -8 0 -18
14 -9 14 -29 38 -44 54 -21 23 -31 26 -55 20 -15 -4 -37 -9 -47 -11 -26 -5
-37 -24 -25 -45 13 -25 12 -29 -11 -29 -11 0 -20 5 -20 10 0 12 -27 14 -32 2
-1 -4 -25 -21 -53 -37 -49 -28 -135 -103 -135 -117 0 -5 7 -8 15 -8 8 0 15 -7
15 -15 0 -20 -38 -20 -42 0 -4 18 -67 -38 -114 -101 -16 -21 -31 -41 -35 -44
-3 -3 -6 -17 -6 -32 -1 -41 -2 -42 -18 -28 -12 10 -18 6 -35 -22 -11 -18 -20
-38 -20 -45 0 -6 -16 -30 -35 -53 -38 -45 -42 -59 -23 -78 9 -9 8 -12 -7 -12
-19 0 -65 -57 -65 -80 0 -5 -11 -35 -25 -66 l-25 -56 23 -19 22 -18 -26 -1
c-30 0 -39 -16 -39 -64 0 -26 5 -34 27 -43 l28 -11 -36 -1 -36 -1 -17 -102
c-18 -111 -26 -223 -16 -237 3 -5 25 -12 50 -16 62 -9 65 -18 5 -14 l-50 4 3
-75 c5 -106 15 -117 94 -114 47 2 56 1 33 -5 -16 -5 -47 -9 -67 -10 -36 -1
-38 -3 -38 -35 0 -53 22 -134 40 -151 14 -13 25 -13 91 -1 81 16 105 14 40 -3
-23 -6 -59 -16 -81 -21 -45 -12 -47 -16 -22 -60 13 -24 22 -30 40 -27 18 4 22
1 16 -12 -17 -40 -13 -59 23 -114 55 -84 87 -88 268 -34 103 30 195 89 195
124 0 7 6 13 13 13 9 0 8 3 -2 9 -7 5 -10 14 -7 20 4 6 -3 44 -16 84 -15 47
-23 94 -22 137 1 73 9 92 130 303 41 70 74 131 74 134 0 4 6 14 14 22 7 9 25
36 39 61 13 25 51 88 82 140 32 52 71 122 87 155 16 33 47 89 70 125 22 36 50
84 63 107 13 22 34 58 48 80 44 70 77 134 77 148 0 7 14 29 30 47 17 18 33 41
36 50 8 27 40 31 195 25 128 -6 144 -8 185 -32 45 -26 134 -110 134 -126 0 -4
14 -32 32 -61 47 -79 44 -121 -16 -243 -27 -55 -63 -122 -81 -150 -38 -59 -62
-121 -51 -132 11 -11 200 -4 204 7 2 6 9 10 15 10 7 0 21 7 32 16 17 13 18 16
5 24 -13 8 -12 10 3 10 9 0 17 7 17 15 0 11 -12 15 -42 16 -25 1 -32 3 -18 6
88 13 91 14 121 56 66 91 176 157 263 157 15 0 30 8 36 20 14 26 32 25 48 -1
9 -14 20 -19 34 -15 22 5 147 -60 181 -95 48 -50 126 -18 149 60 7 24 30 62
51 84 27 29 37 48 37 73 0 18 -4 35 -10 39 -5 3 -7 12 -4 20 5 12 1 12 -26 -1
-17 -9 -34 -13 -38 -9 -8 8 26 35 45 35 22 0 15 15 -39 86 -75 95 -79 97 -129
49 l-41 -40 36 48 c20 27 36 52 36 57 0 12 -162 170 -174 170 -5 0 -18 -8 -28
-17 -19 -17 -19 -16 -12 11 4 19 3 27 -3 23 -6 -4 -13 -1 -16 7 -3 7 -23 22
-45 33 -28 13 -38 15 -35 6 3 -8 -2 -13 -15 -13 -11 0 -22 7 -26 15 -3 10 1
15 12 15 12 0 5 11 -23 35 -45 38 -57 42 -75 20 -15 -18 -32 -10 -29 13 1 10
1 22 0 28 -1 12 -80 39 -89 30 -3 -3 -11 3 -19 13 -18 27 -93 39 -105 17 -13
-23 -26 -20 -30 6 -4 27 -52 48 -69 31 -6 -6 -17 -35 -25 -64 l-13 -54 4 67 5
66 -67 15 c-87 20 -248 31 -303 22 l-42 -7 6 -40 c7 -44 -8 -45 -19 -1 -12 49
-23 57 -70 46z"/>
<path d="M5408 4532 c-28 -17 -36 -32 -18 -32 6 0 3 -8 -7 -18 -31 -31 -80
-62 -100 -62 -11 0 -28 -7 -39 -15 -10 -8 -39 -15 -62 -15 -49 0 -121 -29
-102 -40 17 -10 2 -17 -44 -21 -25 -3 -41 1 -44 9 -4 12 8 16 38 13 8 -1 5 5
-8 12 -13 7 -40 13 -60 12 -347 -17 -372 -21 -404 -59 -21 -25 -24 -76 -4 -76
10 0 12 -11 9 -42 -4 -30 6 -83 31 -177 39 -144 44 -165 45 -197 1 -17 6 -20
34 -18 l32 3 -28 -11 c-27 -12 -28 -15 -26 -68 2 -30 5 -59 7 -63 2 -5 6 -31
8 -59 13 -198 22 -227 136 -468 57 -121 60 -126 88 -200 12 -30 32 -80 45
-110 61 -146 74 -178 86 -217 7 -24 17 -43 23 -43 6 0 5 -4 -3 -9 -11 -7 -11
-13 3 -32 9 -13 16 -31 16 -39 0 -9 11 -26 25 -38 14 -12 25 -27 25 -34 0 -19
89 -98 111 -98 10 0 19 -4 19 -10 0 -5 6 -10 13 -10 7 0 32 -9 55 -20 22 -11
48 -20 57 -20 8 0 15 -5 15 -11 0 -6 7 -8 16 -5 8 3 13 2 10 -2 -3 -4 4 -13
15 -20 19 -12 19 3 19 1158 0 643 -1 1170 -2 1169 -2 0 -15 -8 -30 -17z"/>
<path d="M2574 4420 c-27 -11 -123 -155 -190 -287 -29 -56 -60 -112 -68 -125
-40 -56 -65 -98 -71 -119 -4 -13 -13 -31 -20 -39 -6 -8 -23 -35 -36 -60 -13
-25 -27 -47 -30 -50 -3 -3 -17 -25 -31 -50 -54 -95 -95 -167 -120 -205 -14
-22 -37 -63 -52 -90 -14 -28 -30 -57 -35 -65 -33 -54 -96 -178 -96 -190 -1
-29 38 -39 146 -40 l106 0 42 45 c22 24 41 53 41 64 0 10 7 24 15 31 26 22 16
30 -34 30 -28 0 -53 5 -56 10 -4 6 17 10 57 10 62 0 64 1 88 38 14 20 31 49
38 64 8 14 23 28 35 30 12 3 124 4 249 4 126 -1 228 2 228 7 0 4 17 7 38 7 64
0 82 9 82 41 0 20 8 33 28 45 74 46 95 64 98 87 3 31 -36 45 -128 46 -38 0
-78 6 -90 13 -15 7 -81 13 -183 15 -88 2 -164 8 -168 12 -10 10 -1 27 128 256
15 28 51 84 80 126 29 42 57 90 63 108 6 17 24 50 39 73 41 62 65 117 58 138
-4 12 -20 19 -58 24 -71 8 -168 7 -193 -4z"/>
<path d="M2872 4352 c-24 -21 -132 -198 -132 -217 0 -7 -3 -15 -8 -17 -8 -3
-72 -101 -72 -111 0 -3 -24 -44 -54 -90 -30 -46 -66 -107 -80 -134 -32 -63
-32 -63 117 -63 131 0 148 4 163 33 20 41 76 141 125 225 27 45 49 86 49 90 0
4 12 24 26 45 34 50 29 70 -44 203 -7 13 -26 31 -42 39 -25 13 -30 13 -48 -3z"/>
<path d="M4400 4183 c-28 -9 -65 -28 -77 -40 -7 -6 -18 -13 -23 -15 -25 -8
-22 -86 5 -195 15 -59 32 -111 37 -114 5 -3 21 -4 35 -1 18 3 24 1 19 -7 -4
-6 -19 -11 -33 -11 -24 0 -25 -2 -18 -46 8 -57 14 -74 27 -74 5 0 6 -5 2 -12
-4 -6 -7 -78 -7 -159 1 -113 4 -152 16 -170 8 -13 27 -53 42 -89 15 -36 33
-68 40 -72 7 -5 11 -17 8 -28 -3 -11 0 -20 6 -20 6 0 11 -6 11 -14 0 -7 14
-38 30 -69 17 -31 30 -64 30 -73 0 -10 11 -32 25 -50 14 -18 25 -35 25 -38 0
-4 8 -25 19 -49 10 -23 24 -58 31 -77 7 -19 18 -39 24 -45 6 -5 19 -23 29 -38
10 -16 35 -35 55 -43 20 -8 49 -21 64 -29 14 -8 37 -15 50 -15 24 0 26 6 19
68 0 6 -10 12 -20 12 -28 0 -35 17 -11 25 11 3 20 14 20 23 0 30 -52 167 -92
245 -5 10 -22 57 -38 105 -17 48 -39 94 -50 102 -13 10 -18 22 -14 36 6 23
-10 41 -21 24 -8 -13 -65 -13 -65 0 0 6 14 13 30 17 17 3 30 6 30 8 0 1 -9 28
-21 61 -31 89 -49 172 -49 237 0 74 -13 101 -40 87 -14 -7 -20 -7 -20 0 0 5 7
10 15 10 18 0 28 35 23 81 -2 24 -10 37 -25 44 -28 12 -30 25 -3 25 18 0 20 5
15 43 -14 106 -72 278 -109 320 -13 15 -25 27 -27 26 -2 0 -11 -3 -19 -6z"/>
<path d="M3485 3993 c-11 -2 -30 -6 -42 -9 -17 -3 -23 -12 -23 -29 0 -14 10
-41 23 -60 20 -32 34 -40 64 -36 21 3 25 -19 4 -27 -34 -12 -9 -36 36 -33 79
4 118 16 115 34 -2 10 4 17 14 17 11 0 15 6 11 19 -3 12 1 22 9 25 8 3 14 11
14 18 0 19 -48 68 -77 79 -24 9 -110 11 -148 2z"/>
<path d="M4125 3917 c-30 -33 -82 -71 -100 -73 -5 -1 -15 -2 -20 -3 -6 0 -32
-20 -57 -43 -37 -35 -48 -53 -58 -98 -7 -30 -40 -111 -73 -180 -34 -69 -61
-129 -61 -133 -1 -4 -6 -11 -12 -15 -22 -13 -19 -56 6 -89 45 -61 95 -86 193
-94 75 -6 100 -13 169 -48 75 -38 86 -41 164 -41 82 0 108 10 85 33 -6 6 -11
21 -11 34 0 12 -12 47 -27 77 -24 49 -30 55 -51 49 -18 -4 -23 -2 -20 8 3 8
13 13 22 13 11 -1 16 6 16 22 0 23 -12 29 -47 25 -7 -1 -13 3 -13 9 0 5 11 10
25 10 28 0 29 5 15 80 -11 59 -12 61 -32 64 -33 5 -54 36 -24 36 8 0 22 7 31
16 14 14 15 30 10 93 -9 100 -12 111 -38 111 -22 0 -21 1 3 20 14 11 19 20 13
20 -8 0 -13 12 -13 29 0 28 -36 92 -55 97 -5 2 -23 -11 -40 -29z"/>
<path d="M3316 3899 c-32 -35 -38 -46 -35 -65 0 -3 -6 -15 -13 -27 -22 -34
-29 -57 -16 -54 7 1 14 -6 16 -15 4 -21 -23 -25 -31 -5 -5 12 -9 -5 -9 -38 0
-34 3 -38 15 -20 15 19 37 13 37 -11 0 -8 10 -14 24 -14 13 0 30 -2 38 -5 17
-6 39 40 26 53 -6 6 -6 12 0 16 6 3 13 -3 17 -14 8 -26 45 -26 73 1 29 26 20
40 -16 27 -18 -7 -40 -8 -58 -3 l-29 9 30 3 c71 8 73 9 61 47 -10 33 -13 35
-61 39 l-50 3 52 2 53 2 -30 49 c-17 27 -37 51 -45 54 -8 4 -28 -10 -49 -34z"/>
<path d="M2340 3369 c0 -20 81 -178 107 -209 18 -22 33 -30 58 -30 19 0 37 -5
41 -11 5 -8 32 -10 85 -6 44 3 79 2 79 -1 0 -4 24 -8 52 -10 29 -2 56 -8 59
-14 13 -21 -29 -135 -66 -178 -29 -33 -114 -196 -115 -217 0 -9 16 -11 60 -6
44 4 60 3 60 -6 0 -9 -20 -12 -66 -10 -48 2 -68 -1 -75 -12 -14 -22 -11 -29
13 -26 15 1 23 -4 26 -16 3 -15 0 -18 -16 -13 -18 6 -19 4 -13 -26 16 -67 67
-141 101 -143 25 -2 73 57 115 142 14 28 30 55 36 58 10 7 28 45 25 56 0 3 14
22 31 43 18 20 43 56 54 79 31 61 150 259 165 276 11 13 14 12 19 -1 4 -10
-11 -44 -36 -85 -23 -37 -61 -102 -84 -143 -22 -41 -57 -101 -78 -133 -20 -31
-37 -59 -37 -61 0 -2 -18 -34 -40 -70 -54 -88 -100 -180 -100 -197 0 -8 7 -22
15 -32 11 -15 32 -20 108 -24 l95 -5 41 38 c46 41 161 225 161 257 0 7 13 28
28 47 16 19 36 51 45 70 10 19 35 64 57 98 59 94 136 252 144 296 4 20 9 43
12 49 6 16 -64 46 -116 51 -22 2 -49 11 -59 20 -14 13 -49 19 -133 26 -108 8
-219 31 -244 51 -30 24 -327 41 -392 23 -17 -5 -60 -7 -95 -5 -55 4 -58 5 -27
12 l35 6 -37 2 c-21 0 -38 -3 -38 -9 0 -6 -9 -6 -26 0 -32 13 -34 12 -34 -1z"/>
<path d="M2285 3341 c-3 -6 -3 -11 0 -11 4 0 -7 -18 -25 -39 -38 -49 -110
-185 -110 -209 0 -14 9 -17 50 -16 77 2 80 3 81 22 0 9 5 4 10 -13 6 -20 6
-44 -2 -71 -6 -23 -9 -52 -7 -65 l3 -24 23 23 c12 12 27 22 32 22 6 0 14 8 17
18 4 9 15 24 25 32 11 8 20 27 22 43 1 15 6 30 9 34 13 13 7 36 -32 113 -50
100 -87 155 -96 141z"/>
<path d="M3611 3144 c-18 -13 -88 -113 -130 -186 -10 -18 -54 -96 -98 -173
-44 -77 -104 -180 -133 -230 -29 -49 -62 -107 -74 -128 -32 -60 -86 -118 -123
-133 -20 -9 -91 -17 -173 -21 -125 -5 -140 -8 -140 -24 0 -28 82 -118 102
-112 4 2 10 -6 13 -17 4 -11 10 -20 15 -20 5 0 42 -22 82 -48 40 -27 89 -55
108 -62 50 -19 59 -28 66 -66 3 -19 9 -34 13 -34 4 0 16 -26 26 -57 10 -32 21
-67 25 -78 5 -11 18 -54 31 -95 12 -41 27 -81 33 -89 22 -28 131 -83 194 -98
23 -6 37 -10 107 -31 148 -46 285 -58 419 -38 23 4 43 5 46 4 3 -2 25 12 48
30 46 37 56 63 20 55 -22 -4 -22 -4 -4 11 19 16 19 16 -2 55 -31 55 -27 60 13
21 41 -40 44 -31 10 29 -33 58 -32 61 10 21 l35 -34 0 30 c0 17 -7 39 -15 50
-17 23 -20 43 -3 26 19 -19 25 -15 33 21 18 87 24 163 13 194 -9 26 -9 34 5
48 10 9 17 19 17 23 0 3 -19 26 -42 49 -48 49 -40 57 12 13 19 -17 38 -30 42
-30 14 0 9 27 -7 40 -19 16 -19 30 0 30 16 0 17 5 34 120 6 41 14 85 17 97 5
17 -2 30 -27 53 -36 33 -33 40 6 14 27 -18 49 -9 60 24 2 10 29 33 57 52 29
19 77 52 106 74 62 46 63 57 9 173 -5 12 -7 33 -5 47 3 15 1 24 -6 23 -6 -1
-12 9 -14 22 -5 33 -31 71 -56 81 -17 7 -18 9 -3 9 18 1 24 36 9 57 -12 19
-102 64 -133 68 -16 1 -32 6 -36 9 -3 4 -17 7 -29 7 -13 0 -58 18 -100 40 -60
31 -89 40 -128 40 -73 0 -206 24 -242 43 -36 19 -86 19 -113 1z"/>
<path d="M1836 3041 c-17 -19 -17 -21 0 -56 9 -20 28 -44 42 -53 24 -15 25
-15 56 19 18 18 41 41 51 49 17 14 17 14 8 -5 -6 -11 -22 -32 -35 -46 -53 -58
-53 -57 -3 -48 53 10 83 28 119 71 28 35 33 60 14 75 -7 6 -63 11 -123 12 -99
2 -113 0 -129 -18z"/>
<path d="M2492 3028 c-13 -7 -47 -48 -76 -92 -30 -45 -68 -96 -86 -114 -35
-37 -122 -82 -157 -82 -12 0 -25 -4 -28 -10 -3 -5 -20 -10 -37 -10 -35 0 -127
-25 -166 -46 -15 -8 -32 -14 -38 -14 -6 0 -28 -9 -50 -19 -21 -11 -42 -17 -45
-15 -4 2 -12 -3 -19 -11 -7 -8 -20 -15 -30 -15 -25 0 -201 -59 -227 -76 -17
-11 -23 -24 -23 -50 0 -40 10 -62 48 -105 59 -67 80 -87 101 -99 13 -6 20 -18
17 -25 -3 -8 -1 -17 4 -20 18 -11 100 -126 100 -140 0 -8 4 -15 9 -15 5 0 20
-17 33 -37 37 -58 46 -77 50 -98 1 -11 6 -22 9 -25 3 -3 18 -35 34 -72 15 -38
30 -68 33 -68 3 0 16 10 29 22 29 27 29 14 2 -32 -26 -42 -27 -108 -2 -178 18
-50 20 -201 7 -367 -6 -71 -4 -82 13 -97 16 -15 24 -16 54 -6 76 26 109 43
109 56 0 7 4 11 9 8 10 -7 61 38 83 74 21 33 23 288 4 436 -10 70 -11 114 -5
125 5 10 10 29 11 43 1 15 6 26 10 26 4 0 8 7 8 15 0 7 6 18 13 22 7 4 23 25
36 46 13 21 29 43 36 50 7 8 15 22 17 33 2 10 10 19 18 19 8 0 15 6 15 13 0 7
5 16 11 20 17 12 68 83 71 101 4 19 4 19 -3 142 -5 89 -4 101 20 153 22 48 25
65 20 111 -6 52 -4 59 38 132 58 102 80 151 73 162 -3 5 3 12 14 16 22 7 65
91 57 111 -7 17 -189 19 -224 2z"/>
<path d="M0 2180 c0 -374 3 -680 7 -680 4 0 16 9 28 20 13 12 52 26 96 35 41
9 85 20 99 27 31 14 44 18 98 25 23 3 42 9 42 14 0 4 9 10 19 14 28 9 37 84
15 127 -9 18 -24 39 -33 46 -15 11 -14 13 2 26 23 18 22 67 -3 113 l-20 37 23
26 c35 39 74 101 88 144 8 21 20 41 26 43 7 3 13 20 13 39 0 29 4 34 33 42 24
6 37 18 53 49 12 23 24 39 28 36 3 -4 6 1 6 10 0 37 52 100 91 112 13 3 39 13
57 22 18 8 40 12 47 9 8 -3 17 -1 20 5 4 5 10 7 15 4 4 -3 13 2 20 10 7 8 16
12 21 9 9 -5 29 36 29 62 0 8 -7 17 -15 19 -51 16 -49 14 -30 35 15 17 16 25
6 67 -7 27 -16 55 -21 62 -11 18 -66 16 -145 -5 -120 -31 -223 -44 -358 -44
l-139 0 -92 60 c-51 33 -100 60 -109 60 -16 0 -17 -53 -17 -680z"/>
<path d="M4688 2483 c-16 -2 -28 -9 -28 -14 0 -5 -7 -9 -15 -9 -8 0 -29 -8
-47 -19 -19 -10 -47 -21 -63 -24 -17 -3 -39 -8 -50 -10 -11 -3 -28 -6 -37 -6
-9 -1 -24 -8 -32 -17 -9 -8 -16 -12 -16 -8 0 4 -11 -4 -24 -17 -26 -27 -41
-69 -51 -144 -4 -27 -8 -59 -10 -70 -2 -11 -18 -123 -34 -250 -55 -418 -73
-479 -160 -535 -65 -41 -100 -50 -198 -51 -71 0 -82 -3 -86 -20 -6 -24 -22
-24 -46 0 -11 11 -41 23 -68 26 -26 4 -112 23 -191 41 -193 46 -230 45 -192
-4 11 -13 20 -29 20 -35 0 -5 24 -31 53 -59 28 -27 66 -63 84 -79 18 -17 36
-28 42 -25 5 4 16 -2 23 -11 7 -10 25 -24 41 -32 15 -8 27 -18 27 -22 0 -4 13
-4 30 1 34 10 48 -3 29 -26 -10 -12 -8 -19 11 -39 32 -34 62 -31 102 9 36 36
35 36 203 51 98 9 231 49 265 80 9 8 21 15 27 15 5 0 29 21 53 47 55 60 110
198 110 275 0 45 -4 57 -32 85 -32 33 -21 48 13 17 17 -16 19 -15 28 7 4 13
12 49 16 79 4 30 9 64 12 75 2 11 8 56 13 100 33 279 47 317 133 358 60 29
129 60 138 61 3 1 27 15 54 31 26 17 51 29 56 28 5 -2 12 9 15 24 5 20 2 31
-16 45 -12 10 -28 18 -35 18 -8 0 -17 9 -20 20 -4 11 -11 18 -16 15 -5 -4 -9
-2 -9 3 0 5 -6 9 -12 10 -56 8 -87 9 -110 5z"/>
<path d="M1245 2422 c-11 -2 -30 -8 -43 -15 -19 -9 -23 -17 -18 -41 5 -25 66
-127 86 -146 44 -40 272 -336 297 -385 9 -16 19 -32 24 -35 5 -3 22 -60 40
-125 l31 -120 -6 -215 c-4 -165 -10 -237 -26 -310 -12 -52 -19 -108 -17 -125
2 -16 1 -40 -4 -52 -5 -14 -5 -23 1 -23 5 0 7 -7 4 -15 -4 -8 -12 -15 -19 -15
-15 0 -25 -22 -25 -53 0 -12 -7 -42 -16 -67 -10 -28 -17 -82 -18 -143 -1 -87
1 -100 18 -113 11 -8 25 -14 30 -14 6 0 27 35 48 78 20 42 48 91 62 107 l26
30 0 -27 c0 -18 -4 -26 -13 -22 -12 4 -23 -17 -63 -121 -7 -20 -7 -39 1 -62 5
-15 66 3 78 24 4 7 15 13 23 13 8 0 12 -5 9 -10 -4 -6 -3 -9 2 -8 4 1 18 -2
31 -6 29 -10 51 15 52 57 0 15 5 27 10 27 14 0 12 63 -2 91 -7 14 -24 35 -37
48 -23 23 -23 27 -16 125 4 55 11 109 16 118 7 13 4 18 -11 23 -11 3 -20 10
-20 14 0 15 39 43 49 36 15 -9 14 37 -1 71 -10 22 -10 28 5 39 10 7 19 31 22
56 2 24 11 89 20 143 40 261 -3 501 -132 741 -31 56 -120 170 -198 250 -42 44
-93 99 -112 122 -46 56 -97 71 -188 55z"/>
<path d="M808 2332 c-44 -17 -68 -32 -68 -43 0 -8 -9 -25 -20 -37 -11 -12 -20
-25 -20 -31 0 -5 -6 -11 -13 -14 -7 -2 -22 -24 -34 -48 -12 -24 -38 -62 -58
-84 -35 -39 -53 -80 -41 -92 3 -4 -2 -15 -11 -25 -14 -16 -17 -44 -18 -191 -1
-128 -5 -178 -15 -197 -8 -14 -14 -32 -15 -39 0 -18 -98 -40 -200 -46 -38 -2
-86 -7 -105 -10 -19 -4 -41 -7 -47 -7 -7 -1 -13 -5 -13 -9 0 -4 -12 -6 -27 -5
-14 2 -44 -4 -65 -13 l-38 -16 0 -80 0 -79 70 69 c38 38 72 66 75 63 3 -3 -28
-36 -70 -74 l-75 -69 0 -118 c0 -92 3 -117 13 -111 9 6 9 5 0 -7 -10 -12 -13
-137 -13 -517 l0 -502 566 0 c528 0 568 1 580 18 13 16 14 16 8 -1 -6 -15 3
-17 98 -17 99 0 106 1 117 23 l11 22 -6 -22 -5 -23 200 0 201 0 0 69 c0 74
-13 126 -30 116 -13 -8 -23 38 -15 67 4 13 4 20 0 16 -5 -4 -13 0 -20 9 -8 10
-28 16 -55 17 -38 1 -45 -2 -51 -24 -6 -21 -7 -22 -8 -4 -2 31 -20 45 -44 33
-13 -7 -17 -8 -13 -1 7 12 -13 62 -26 62 -5 0 -20 11 -33 25 -23 22 -25 32
-25 116 0 71 -4 97 -16 110 -19 21 -11 54 11 45 10 -4 17 6 24 32 5 20 16 62
24 92 9 34 11 64 6 78 -5 12 -5 22 0 22 21 0 73 281 52 288 -6 2 -11 15 -11
29 0 18 4 24 14 20 21 -8 23 3 25 169 3 161 -12 274 -35 274 -10 0 -12 8 -8
28 11 53 -96 221 -218 345 -21 21 -38 40 -38 43 0 7 -125 161 -186 227 -51 57
-53 57 -67 37 l-15 -22 -7 21 c-10 32 -109 28 -197 -7z"/>
<path d="M5040 2289 c0 -22 -5 -29 -20 -29 -14 0 -20 7 -20 21 0 16 -4 19 -22
14 -42 -12 -66 -27 -71 -46 -3 -12 -18 -22 -36 -25 -17 -4 -31 -10 -31 -14 0
-4 -11 -11 -25 -14 -14 -4 -25 -11 -25 -17 0 -6 -9 -8 -21 -4 -12 4 -32 2 -45
-4 -13 -6 -36 -17 -51 -23 -44 -21 -64 -94 -83 -302 -8 -85 -8 -116 2 -134 10
-20 9 -26 -14 -47 -20 -19 -28 -38 -33 -82 -11 -101 -44 -253 -65 -300 -11
-24 -33 -62 -50 -83 -39 -49 -165 -133 -224 -150 -25 -7 -46 -17 -46 -22 0 -6
-6 -8 -14 -5 -8 3 -50 -3 -93 -14 -43 -10 -90 -19 -105 -19 -38 0 -78 -37 -78
-71 0 -38 17 -79 33 -79 7 0 22 -7 33 -15 19 -14 19 -15 -3 -32 -13 -10 -27
-32 -32 -50 -8 -27 -5 -36 20 -65 15 -18 28 -39 29 -46 0 -7 6 -15 14 -18 9
-4 17 -27 21 -62 7 -62 46 -186 76 -242 28 -52 57 -82 82 -85 12 -1 25 -3 30
-4 11 -2 9 -51 -3 -51 -5 0 -2 -9 7 -20 11 -12 20 -16 24 -9 4 6 14 0 27 -15
15 -19 29 -26 56 -26 20 0 36 -4 36 -8 0 -5 30 -14 66 -21 36 -8 84 -24 107
-37 84 -48 89 -46 53 22 -14 27 -26 55 -26 63 0 24 34 -14 61 -69 l24 -49 394
0 395 -1 -35 38 c-64 67 -66 75 -18 48 24 -14 51 -37 59 -52 40 -70 40 -71 40
848 0 693 -3 887 -12 897 -10 11 -10 13 0 7 9 -6 12 29 12 157 l0 165 -62 40
c-35 22 -90 52 -123 67 -33 15 -76 35 -96 46 -20 10 -39 16 -42 13 -3 -3 -10
3 -16 14 -6 11 -22 22 -36 24 -22 5 -25 2 -25 -23z"/>
<path d="M2592 2057 c-14 -6 -22 -19 -22 -34 0 -13 -3 -22 -7 -20 -5 3 -6 -15
-4 -39 1 -24 6 -44 11 -44 4 0 24 -27 45 -59 20 -33 43 -62 51 -65 8 -3 14
-12 14 -20 0 -21 36 -39 61 -31 26 9 49 -11 49 -42 0 -13 6 -25 13 -27 6 -2
36 -11 66 -20 68 -20 144 -21 161 -1 19 23 -5 145 -29 145 -6 0 -45 31 -94 75
-41 38 -126 90 -178 111 -30 12 -50 27 -58 45 -13 30 -46 41 -79 26z"/>
<path d="M2434 1778 c-28 -54 -6 -146 53 -224 13 -17 23 -34 23 -39 0 -17 98
-98 152 -126 61 -31 236 -83 333 -100 33 -5 74 -12 91 -15 18 -3 34 -1 38 4 9
15 -14 70 -40 99 -13 14 -24 37 -24 50 0 29 -53 83 -81 83 -10 0 -19 4 -19 9
0 5 -12 11 -27 14 -77 14 -134 32 -200 64 -46 22 -81 53 -211 186 -36 37 -67
35 -88 -5z"/>
<path d="M2380 1401 c0 -11 -4 -23 -10 -26 -5 -3 -10 -24 -10 -46 0 -45 -51
-149 -97 -197 -7 -7 -13 -17 -13 -21 0 -4 -9 -7 -19 -8 -10 -1 -36 -19 -57
-40 -22 -21 -51 -46 -65 -55 -18 -11 -33 -38 -52 -98 -32 -96 -33 -115 -9
-139 39 -42 87 -51 276 -53 100 -1 190 1 201 4 11 3 23 18 27 36 7 25 14 32
33 32 20 0 25 -5 25 -24 0 -14 -4 -28 -10 -31 -26 -16 -3 -25 65 -25 l75 0 1
83 c1 70 2 76 10 42 4 -22 8 -61 8 -87 1 -43 3 -48 24 -48 13 0 27 3 31 7 3 4
93 7 199 7 l192 1 -2 35 -2 35 14 -32 c15 -32 17 -33 73 -33 l59 0 13 39 c16
50 9 131 -16 168 -18 27 -20 32 -23 52 -2 19 -33 41 -57 41 -15 0 -24 6 -24
15 0 8 5 15 11 15 6 0 4 7 -5 15 -8 8 -17 15 -20 15 -3 0 -28 14 -56 30 -28
17 -58 30 -66 30 -8 0 -35 9 -58 20 -24 11 -82 31 -130 44 -47 14 -95 30 -105
36 -31 16 -51 12 -51 -11 0 -11 -4 -17 -10 -14 -5 3 -10 15 -10 26 0 11 -8 22
-17 25 -61 20 -167 72 -224 110 -71 48 -119 58 -119 25z"/>
<path d="M3497 923 c-2 -5 -8 -57 -12 -117 -8 -131 -29 -185 -73 -188 -60 -3
-105 -4 -279 -6 -175 -2 -182 -3 -188 -23 l-7 -21 -15 21 c-15 23 -52 26 -288
23 -130 -2 -156 -6 -149 -27 4 -10 0 -15 -15 -15 -12 0 -21 6 -21 15 0 23 -61
28 -229 21 -197 -9 -189 -7 -210 -42 -17 -28 -40 -146 -25 -131 4 4 13 -2 20
-12 11 -15 32 -20 106 -26 82 -7 93 -5 105 11 12 17 13 17 13 -4 0 -17 6 -22
24 -22 13 0 26 4 28 8 2 5 37 5 78 1 41 -4 125 -5 185 -2 61 2 160 4 222 3
104 -1 112 0 118 19 3 12 3 25 0 31 -3 5 -2 10 4 10 5 0 12 -13 16 -29 4 -20
14 -31 30 -35 38 -10 604 -5 659 5 69 13 82 29 97 112 17 105 -7 220 -58 275
-7 7 -13 20 -13 27 0 7 -11 27 -25 43 -13 16 -22 32 -19 35 4 3 -9 15 -27 26
-37 23 -46 25 -52 14z"/>
<path d="M3770 430 c-13 -27 -34 -59 -46 -71 -48 -45 -84 -47 -719 -49 -330
-1 -616 -3 -635 -4 -78 -5 -80 -6 -80 -25 0 -11 -5 -23 -11 -27 -7 -4 -9 2 -7
17 3 23 1 24 -74 27 -65 2 -78 0 -78 -13 0 -8 -5 -14 -12 -13 -6 2 -15 -8 -19
-22 -6 -22 -7 -20 -8 13 l-1 37 -54 0 c-63 0 -86 -7 -86 -25 0 -7 -7 -15 -15
-19 -8 -3 -15 -14 -15 -24 0 -10 -7 -27 -15 -38 -8 -11 -15 -41 -15 -71 0 -28
-4 -55 -10 -58 -5 -3 -10 -19 -10 -36 l0 -29 178 0 179 0 11 25 c7 14 12 32
12 40 0 8 5 17 11 21 9 5 10 -6 5 -40 l-7 -46 391 0 390 0 -6 25 c-3 14 -2 25
4 25 12 0 24 -29 16 -41 -3 -5 84 -9 211 -9 l216 0 -6 23 c-14 48 -14 61 0 32
8 -16 14 -36 15 -42 0 -10 74 -13 335 -13 184 0 335 3 335 8 -1 17 -17 31 -55
47 -28 11 -55 36 -87 79 -27 35 -48 66 -48 71 0 4 -9 19 -20 34 -10 16 -26 50
-35 77 -9 27 -20 57 -26 67 -6 11 -8 21 -5 24 3 3 0 11 -7 18 -7 7 -20 22 -29
34 -27 32 -42 26 -68 -29z"/>
</g>
</svg>
