<?xml version="1.0" standalone="no"?>
<!DOCTYPE svg PUBLIC "-//W3C//DTD SVG 20010904//EN"
 "http://www.w3.org/TR/2001/REC-SVG-20010904/DTD/svg10.dtd">
<svg version="1.0" xmlns="http://www.w3.org/2000/svg"
 width="544.000000pt" height="544.000000pt" viewBox="0 0 544.000000 544.000000"
 preserveAspectRatio="xMidYMid meet">
<metadata>
Created by potrace 1.16, written by Peter Selinger 2001-2019
</metadata>
<g transform="translate(0.000000,544.000000) scale(0.100000,-0.100000)"
fill="#000000" stroke="none">
<path d="M1 5043 l0 -398 67 -33 c37 -18 78 -42 92 -53 14 -11 -17 1 -68 26
l-92 45 0 -409 0 -408 38 -16 37 -15 -37 -1 -36 -1 -2 -164 c-1 -156 0 -164
18 -159 10 2 34 0 53 -5 l34 -10 -37 -1 c-60 -2 -92 -23 -51 -34 17 -4 17 -5
1 -6 -17 -1 -18 -19 -18 -231 l0 -230 48 -1 47 -1 -48 -10 -47 -10 0 -249 c0
-137 3 -249 8 -249 4 0 16 6 27 13 11 8 29 17 39 21 16 5 17 4 6 -8 -6 -9 -27
-21 -46 -28 -22 -8 -34 -18 -34 -31 0 -20 7 -20 75 0 36 10 2 -14 -37 -27 -36
-11 -38 -14 -38 -52 0 -34 3 -39 18 -34 16 6 16 5 -1 -8 -11 -8 -17 -27 -17
-50 l0 -37 28 19 c29 20 72 37 72 28 0 -3 -23 -17 -50 -31 -46 -23 -50 -28
-50 -60 0 -40 -1 -40 64 -20 27 8 51 14 52 12 2 -2 -23 -16 -56 -33 l-59 -29
-1 -77 0 -76 40 5 c52 7 52 -7 0 -60 -35 -34 -40 -46 -38 -78 l2 -38 26 19
c15 11 33 26 40 35 7 8 17 15 23 15 5 0 2 -9 -8 -20 -12 -13 -14 -20 -5 -20
18 0 185 98 206 121 17 18 50 28 40 11 -3 -5 -44 -32 -90 -61 -47 -29 -94 -63
-104 -76 -11 -14 -45 -45 -76 -70 -45 -37 -56 -52 -56 -75 l0 -30 62 40 c33
22 68 40 77 40 9 0 36 14 61 30 25 16 49 30 54 30 16 0 -25 -39 -75 -71 -58
-37 -65 -58 -11 -30 20 10 40 20 44 20 4 1 24 9 44 17 20 8 38 13 40 11 3 -2
-62 -49 -143 -103 -145 -97 -148 -100 -151 -138 -3 -37 -2 -39 16 -25 11 8 61
43 111 78 50 35 91 67 91 72 0 17 67 59 84 53 15 -6 15 -9 -6 -31 -13 -14 -36
-31 -53 -38 -16 -7 -64 -44 -105 -82 -41 -38 -90 -79 -108 -92 l-32 -22 0
-675 0 -674 640 0 640 0 14 32 c30 71 72 156 103 208 32 53 43 87 24 76 -5 -4
-7 3 -4 14 3 11 1 20 -4 20 -5 0 -19 -28 -31 -63 -19 -53 -62 -134 -62 -117 0
11 72 175 81 185 5 5 9 23 9 40 0 28 -3 25 -36 -32 -19 -35 -37 -73 -39 -84
-4 -22 -107 -199 -134 -232 -34 -40 -18 0 50 130 77 147 63 153 -25 11 -26
-43 -52 -78 -58 -78 -5 0 -8 7 -4 15 3 8 1 15 -5 15 -6 0 -8 9 -4 23 15 49 86
190 110 218 29 35 32 31 9 -12 -8 -17 -13 -33 -11 -36 8 -7 73 107 112 197 21
47 45 94 54 104 9 11 10 16 4 12 -7 -4 -13 -2 -13 4 0 6 -5 8 -10 5 -23 -14
-7 24 24 58 21 23 32 44 29 55 -2 10 3 24 11 31 28 24 17 48 -18 42 -5 -1 -6
5 -2 14 3 9 6 19 6 21 0 14 30 1 31 -13 0 -14 2 -15 6 -3 3 8 12 29 19 45 14
31 14 162 0 195 -4 9 2 25 14 37 25 28 25 36 0 28 -28 -9 -25 11 6 42 37 37
41 54 43 199 2 135 -9 222 -39 302 -16 41 -18 43 -34 27 -22 -23 -29 -14 -16
20 8 21 8 37 -2 59 -15 38 -80 125 -145 194 -26 28 -52 58 -58 65 -54 76 -130
169 -160 197 -20 19 -41 45 -46 58 -7 19 -12 21 -29 12 -25 -14 -37 8 -21 39
9 17 4 33 -33 94 -37 64 -156 356 -156 384 0 6 -9 18 -20 28 -12 11 -17 22
-11 28 8 8 -1 73 -13 85 -4 3 -11 1 -17 -5 -12 -12 -39 -7 -39 7 0 5 12 10 28
12 26 3 27 5 24 48 -4 62 -11 80 -29 80 -13 0 -13 3 -3 15 10 11 11 45 5 138
-4 67 -7 157 -6 200 0 45 -3 77 -9 77 -5 0 -10 5 -10 10 0 6 7 10 15 10 8 0
15 5 15 10 0 6 -5 10 -10 10 -6 0 -8 10 -4 24 4 18 1 27 -15 36 -27 14 -16 33
15 27 21 -4 24 1 30 32 38 219 74 350 129 476 44 100 44 101 24 116 -27 19
-34 43 -9 29 11 -6 20 -15 20 -20 0 -26 27 -5 48 37 23 47 17 68 -15 56 -7 -3
-21 -2 -30 3 -10 4 -21 8 -25 8 -5 1 -8 6 -8 11 0 6 3 10 8 9 18 -1 69 -16 85
-25 11 -6 20 -9 21 -7 1 2 10 19 20 38 19 38 55 92 87 129 11 13 18 30 15 38
-4 8 -1 11 5 8 6 -4 13 2 16 14 3 12 11 21 18 21 7 0 20 10 28 23 9 12 31 39
51 59 l35 38 -26 20 c-14 11 -24 23 -21 26 3 3 17 -6 32 -20 l25 -26 43 41
c24 22 56 52 71 67 36 34 31 64 -31 185 -2 4 2 5 10 2 7 -3 29 -32 48 -65 32
-55 57 -81 44 -45 -4 8 -1 15 6 15 9 0 7 7 -4 25 -9 13 -16 27 -16 30 0 13 22
3 42 -20 12 -14 26 -25 31 -25 18 0 58 52 53 67 -4 9 1 17 14 20 11 3 20 13
20 22 0 12 4 11 18 -7 l18 -23 22 21 c26 24 26 28 8 70 -7 18 -11 41 -8 52 4
18 6 18 23 2 20 -18 26 -40 9 -29 -6 4 -8 -3 -6 -17 3 -13 5 -26 5 -30 1 -4
10 -6 20 -5 26 2 34 34 16 66 -21 41 -46 113 -41 119 3 2 10 -8 17 -24 26 -65
62 -134 70 -134 4 0 10 4 14 10 3 5 12 7 20 3 8 -3 15 0 15 5 0 6 7 18 16 27
14 14 14 21 3 60 -7 25 -17 45 -22 45 -5 0 -7 27 -5 60 l4 60 -123 0 c-68 0
-123 -2 -123 -4 0 -2 11 -34 25 -71 14 -37 23 -70 21 -73 -3 -3 -21 29 -41 71
-34 75 -35 77 -71 77 -31 0 -35 -2 -24 -15 6 -8 10 -20 7 -27 -3 -8 -10 -2
-17 15 -12 23 -19 27 -58 27 -31 0 -43 -4 -39 -12 3 -7 13 -30 22 -51 22 -53
5 -40 -24 17 -15 31 -29 46 -42 46 -27 0 -24 -10 17 -71 86 -128 77 -144 -11
-19 -58 82 -84 108 -45 45 12 -19 19 -43 16 -53 -8 -25 47 -111 70 -109 9 1
19 -5 22 -13 5 -13 3 -13 -13 0 -17 14 -18 13 -12 -3 11 -29 -10 -10 -44 39
-34 50 -49 53 -25 5 9 -17 16 -32 16 -33 -1 -2 2 -11 6 -21 8 -21 0 -32 -15
-22 -6 3 -11 18 -11 33 0 15 -22 64 -49 109 -26 45 -51 89 -54 97 -6 14 -37
16 -242 16 -186 0 -235 -3 -229 -12 4 -7 28 -42 53 -78 l46 -65 -64 57 c-35
32 -70 66 -78 78 -12 17 -25 20 -84 20 l-70 0 20 -27 c11 -16 41 -50 65 -78
66 -72 46 -69 -31 6 l-66 64 58 -80 c32 -44 65 -89 74 -101 9 -11 -28 25 -81
80 -54 56 -100 109 -103 119 -6 16 -27 17 -261 17 l-254 0 1 -397z m521 302
c36 -45 67 -74 75 -71 7 3 12 2 10 -3 -2 -8 93 -110 185 -199 25 -23 56 -63
69 -89 35 -69 148 -183 181 -183 14 0 28 -7 32 -15 7 -20 -10 -19 -61 4 -22
11 -44 28 -47 38 -4 11 -38 50 -76 87 -39 37 -70 74 -70 83 0 19 -91 119 -104
115 -5 -2 -42 29 -82 69 -96 95 -90 50 7 -55 30 -34 34 -42 19 -42 -10 0 -17
4 -14 7 2 4 -19 27 -48 51 -71 58 -178 165 -178 177 0 6 8 8 18 4 16 -6 16 -5
0 14 -10 11 -18 27 -18 37 0 15 4 15 33 -6 l32 -23 -22 29 c-13 16 -23 33 -23
37 0 23 25 3 82 -66z m32 -207 c101 -99 132 -138 69 -88 -14 11 -32 20 -40 20
-8 0 -33 15 -56 32 -45 35 -168 148 -161 148 2 0 -2 10 -11 23 -8 13 -12 26
-9 30 11 11 93 -54 208 -165z m-224 77 c182 -157 217 -186 246 -200 32 -15
124 -107 124 -124 0 -24 -61 17 -161 108 -27 24 -49 40 -49 36 0 -5 -10 1 -22
12 -13 11 -44 32 -70 47 -66 37 -106 75 -90 85 9 5 0 18 -28 43 -37 34 -51 58
-32 58 4 0 41 -29 82 -65z m-126 -60 c24 -14 50 -23 59 -19 10 4 42 -21 97
-75 46 -45 76 -81 67 -81 -9 0 -19 5 -22 10 -4 6 -10 8 -15 5 -5 -3 -19 -1
-31 5 -19 11 -20 10 -11 -7 14 -25 144 -135 223 -187 36 -24 69 -51 72 -60 9
-23 2 -20 -60 24 -31 22 -61 40 -68 40 -6 0 -24 14 -40 30 -16 17 -25 30 -21
30 7 0 -52 45 -141 108 -14 10 -15 14 -5 18 9 4 -9 19 -45 41 -79 48 -153 103
-153 114 0 5 13 3 30 -6 38 -20 51 -19 22 1 -23 16 -29 34 -11 34 6 0 30 -11
53 -25z"/>
<path d="M1955 5418 c4 -13 12 -27 19 -33 6 -5 17 -22 25 -37 16 -32 19 -31
25 3 2 13 5 25 5 27 2 9 29 -27 35 -46 9 -26 50 -39 71 -22 8 6 19 9 25 5 5
-3 19 -3 30 0 16 5 20 16 21 48 l1 42 12 -35 c14 -39 30 -46 72 -30 28 11 28
12 10 26 -19 14 -19 14 2 34 l21 20 15 -22 c9 -12 16 -28 16 -34 0 -13 53 -17
111 -8 32 5 38 10 43 37 l7 32 14 -30 c9 -19 14 -24 14 -12 1 23 18 22 26 -3
7 -21 22 -24 74 -14 21 4 31 12 31 25 0 10 5 21 10 24 6 3 10 -1 10 -10 0 -25
44 -40 77 -26 15 6 38 9 50 7 17 -4 24 2 32 22 l9 27 1 -32 c1 -30 3 -32 49
-38 26 -3 70 -10 99 -14 56 -8 72 -1 74 33 1 12 4 6 8 -13 6 -32 8 -34 96 -56
133 -34 147 -35 162 -5 7 14 13 21 13 16 0 -5 9 -1 20 9 24 22 25 16 3 -29
-13 -29 -14 -38 -3 -51 7 -8 21 -15 32 -15 10 0 40 -11 66 -24 27 -13 65 -27
85 -31 36 -7 38 -6 52 29 8 20 20 36 25 36 15 0 12 -15 -10 -54 l-21 -34 22
-16 c13 -9 32 -13 46 -10 18 5 25 1 32 -19 10 -26 57 -57 85 -57 9 0 21 -9 28
-21 7 -11 45 -42 83 -68 64 -44 72 -47 85 -32 14 14 15 12 19 -19 3 -30 16
-46 89 -108 70 -61 90 -72 111 -68 14 3 20 3 14 0 -7 -3 -13 -13 -13 -23 0
-22 61 -81 83 -81 19 0 22 -11 6 -27 -7 -7 -2 -20 18 -44 15 -19 33 -38 40
-42 7 -4 13 -14 13 -21 0 -7 11 -23 24 -35 18 -17 32 -22 50 -17 38 9 41 -11
4 -30 -18 -10 -27 -19 -21 -21 7 -3 20 -19 28 -38 16 -31 18 -32 53 -23 75 19
82 20 82 10 0 -6 -13 -16 -30 -24 -16 -7 -30 -17 -30 -21 0 -5 -4 -6 -9 -2 -5
3 -12 1 -16 -5 -4 -6 16 -10 55 -10 44 0 59 -3 54 -12 -5 -8 2 -9 25 -5 21 5
40 2 55 -9 21 -13 28 -13 67 0 24 9 53 16 65 16 11 0 41 21 66 48 38 39 58 51
122 70 69 20 78 26 107 69 18 26 50 65 71 87 21 23 38 45 38 50 0 5 8 16 18
25 9 9 33 36 53 61 20 25 58 56 83 69 l46 24 0 329 0 328 -602 0 -603 -1 -52
-60 c-51 -57 -67 -64 -40 -16 6 12 23 34 36 50 18 20 21 27 10 27 -8 0 -21 -6
-28 -12 -11 -10 -13 -10 -7 0 5 8 0 12 -16 12 -17 0 -31 -14 -53 -51 -16 -28
-38 -58 -49 -67 -15 -14 -14 -7 7 34 14 28 23 55 19 59 -4 5 -2 5 4 2 7 -4 14
0 18 8 9 24 -149 22 -164 -2 -11 -17 -11 -17 -6 0 4 14 -1 17 -34 17 -32 0
-39 -4 -43 -22 l-4 -23 -2 23 c-1 22 -2 23 -118 20 l-118 -3 -37 -74 c-20 -40
-40 -76 -43 -79 -10 -10 11 41 40 97 14 28 25 53 25 56 0 3 -38 5 -85 5 -69 0
-86 -3 -94 -17 -10 -17 -10 -17 -11 0 0 10 -8 17 -20 17 -15 0 -20 -7 -20 -27
0 -16 -4 -35 -9 -42 -6 -10 -8 0 -4 27 l6 42 -116 0 c-83 0 -117 -4 -120 -12
-4 -10 -6 -10 -6 0 -1 9 -123 12 -577 12 l-575 0 6 -22z m2933 -147 c-29 -32
-57 -59 -63 -59 -5 0 -16 0 -22 -1 -7 0 -48 -37 -91 -81 -78 -80 -115 -103
-91 -57 6 12 21 30 33 40 11 10 14 15 6 11 -13 -7 -13 -6 0 12 8 10 23 30 35
43 11 13 14 21 6 16 -9 -5 -7 1 4 19 10 14 20 26 24 26 4 0 27 17 51 37 46 39
75 52 66 27 -9 -23 4 -17 48 23 34 31 41 34 44 19 2 -10 -17 -40 -50 -75z"/>
<path d="M2582 5277 c-9 -10 -24 -12 -59 -7 -63 10 -133 -18 -133 -52 -1 -28
-28 -89 -30 -68 -1 8 -1 30 0 48 1 17 -3 32 -8 32 -12 0 -22 -24 -23 -53 0
-16 -4 -12 -12 13 -10 26 -17 34 -32 32 -11 -2 -24 -10 -28 -18 -5 -8 -12 -12
-17 -9 -10 6 -50 -14 -62 -30 -5 -6 -15 -5 -29 3 -19 12 -21 12 -15 -3 3 -9 6
-25 6 -36 0 -26 41 -43 56 -23 16 20 44 17 44 -5 0 -38 54 -42 73 -5 l14 26
12 -30 c15 -35 32 -45 68 -36 15 4 28 2 32 -5 8 -12 91 -5 89 8 0 3 0 15 1 25
1 20 16 13 16 -7 0 -14 113 -27 135 -16 49 24 553 -54 611 -94 26 -19 65 -22
74 -7 3 6 13 10 21 10 12 0 13 -4 4 -21 -7 -11 -10 -22 -8 -24 11 -10 128 -64
128 -59 0 3 14 -6 32 -21 l31 -26 20 31 c13 21 23 28 30 21 7 -7 5 -18 -6 -34
-15 -23 -14 -25 69 -88 46 -35 111 -85 144 -111 34 -27 67 -48 75 -48 7 0 32
-28 56 -61 49 -69 95 -119 109 -119 6 0 10 -11 10 -25 0 -14 3 -25 8 -25 4 0
18 -17 32 -37 52 -77 80 -103 106 -97 18 5 24 2 24 -11 0 -13 -6 -16 -27 -12
l-28 5 23 -15 c12 -9 22 -21 22 -28 0 -11 89 -61 94 -53 1 2 16 21 32 43 17
23 31 55 32 75 2 27 0 31 -7 20 -6 -8 -11 -11 -11 -6 0 5 -7 3 -15 -4 -9 -7
-19 -10 -23 -6 -4 4 3 16 16 26 25 21 30 60 7 60 -8 0 -15 5 -15 10 0 6 -7 10
-17 10 -15 0 -15 1 1 19 9 10 14 25 10 34 -5 14 -10 13 -39 -9 -37 -28 -55
-18 -25 14 27 29 25 36 -14 69 -26 21 -36 38 -39 66 -3 35 -11 51 -25 53 -4 0
-15 4 -25 8 -10 5 -23 3 -32 -4 -8 -6 -20 -10 -27 -7 -8 4 -5 8 10 12 14 5 22
15 22 29 0 17 2 18 10 6 5 -8 10 -10 10 -5 0 10 -164 180 -209 218 -21 17 -22
16 -54 -19 -17 -20 -38 -47 -45 -60 -13 -24 -22 -31 -22 -16 0 4 16 32 35 61
27 43 32 58 24 73 -5 10 -14 16 -18 13 -5 -3 -11 1 -14 9 -3 7 -27 28 -53 46
-39 26 -52 30 -66 21 -25 -16 -28 -14 -28 13 0 29 -26 52 -54 48 -13 -3 -28 6
-42 24 -19 23 -25 26 -38 15 -13 -11 -16 -11 -16 2 0 14 -39 36 -135 77 -41
17 -80 18 -97 3 -16 -14 -19 -12 -34 21 -18 37 -24 41 -85 51 -34 6 -37 5 -47
-24 -16 -45 -25 -38 -20 14 l6 45 -35 0 c-26 0 -34 -4 -30 -14 3 -8 -1 -20 -8
-26 -15 -13 -15 -13 -29 34 -5 16 -131 26 -208 16 -26 -4 -51 -3 -55 1 -5 3
-51 10 -104 13 -76 6 -98 4 -107 -7z"/>
<path d="M1940 5101 c0 -5 -14 -17 -32 -25 -25 -13 -33 -14 -40 -4 -4 7 -5 -2
-2 -22 l5 -35 -19 22 c-11 12 -22 20 -25 17 -2 -3 -17 -7 -33 -10 -16 -3 -38
-13 -48 -24 -18 -17 -18 -20 -2 -59 14 -36 14 -41 1 -41 -17 0 -55 35 -55 50
0 30 -46 -3 -49 -35 0 -5 -12 -11 -27 -12 -40 -3 -41 -11 -6 -43 18 -16 32
-34 32 -39 0 -21 -24 -11 -52 22 -19 21 -31 28 -34 20 -3 -7 -12 -13 -20 -13
-22 0 -16 -28 11 -52 24 -21 34 -48 17 -48 -12 0 -42 34 -42 48 0 20 -21 24
-45 8 -13 -9 -56 -47 -95 -84 -51 -49 -72 -76 -74 -98 -2 -17 -9 -29 -17 -29
-8 0 -27 -16 -44 -35 -16 -19 -32 -37 -35 -40 -13 -12 -80 -111 -80 -117 0 -4
12 -17 28 -29 15 -12 23 -26 19 -30 -4 -5 -18 5 -31 21 l-23 29 -18 -34 c-9
-18 -26 -42 -36 -53 -24 -27 -24 -35 4 -57 27 -22 15 -40 -15 -21 -19 12 -23
10 -39 -10 -10 -13 -21 -36 -24 -51 -4 -16 -12 -28 -20 -28 -17 0 -28 -46 -16
-68 6 -11 6 -24 0 -33 -12 -19 -11 -66 1 -74 6 -3 10 -11 10 -18 0 -8 -3 -8
-12 1 -34 34 -48 10 -77 -136 -30 -151 -34 -212 -16 -212 21 0 19 -13 -5 -28
-26 -16 -28 -77 -2 -91 16 -9 16 -10 -1 -17 -17 -6 -18 -19 -16 -147 2 -91 7
-144 15 -151 6 -6 9 -26 7 -46 -4 -30 -1 -54 18 -130 2 -8 6 -17 9 -20 3 -3
11 -30 19 -60 18 -78 105 -333 109 -320 4 10 52 15 52 5 0 -3 -10 -15 -22 -27
-14 -14 -18 -23 -10 -26 7 -2 12 -10 12 -18 0 -8 5 -14 10 -14 6 0 10 -5 10
-10 0 -27 88 -110 107 -103 13 5 12 1 -2 -21 -18 -27 -18 -27 18 -64 21 -21
37 -42 37 -47 1 -22 71 -85 95 -85 25 0 27 -3 29 -51 1 -30 82 -127 89 -107 2
7 8 9 13 5 4 -4 3 -16 -3 -25 -8 -14 -2 -27 37 -72 25 -30 57 -75 71 -100 13
-25 28 -52 34 -60 13 -18 37 -87 41 -115 1 -11 7 -40 13 -65 6 -25 11 -91 11
-147 0 -83 3 -103 14 -103 13 0 13 -5 2 -33 -8 -17 -16 -71 -19 -119 -4 -83
-4 -88 15 -88 26 0 20 -34 -7 -36 -11 -1 -25 -2 -31 -3 -15 -1 -24 -49 -15
-75 7 -18 9 -16 22 12 14 33 29 42 29 19 0 -7 -9 -29 -20 -49 -12 -23 -16 -39
-10 -43 6 -4 20 14 31 39 21 48 35 62 24 24 -15 -49 -38 -88 -48 -81 -5 3 -7
1 -3 -5 3 -6 0 -30 -8 -54 -8 -24 -17 -70 -19 -103 -3 -42 -16 -85 -41 -139
-19 -43 -33 -82 -30 -87 6 -11 24 -2 24 12 0 6 -5 7 -12 3 -7 -5 -8 -3 -4 5 5
7 11 10 14 7 7 -8 42 24 42 39 0 6 7 20 16 31 8 10 13 15 11 9 -2 -5 -11 -26
-20 -45 -29 -65 -47 -113 -44 -117 2 -1 21 35 43 82 21 46 42 84 47 85 17 1 4
-43 -29 -100 -23 -38 -37 -75 -38 -98 -1 -37 -1 -37 42 -40 25 -2 40 -7 36
-13 -4 -7 8 -9 32 -7 l38 3 42 105 c40 101 41 106 26 135 -10 19 -15 56 -15
100 0 39 -3 59 -6 45 -10 -42 -65 -119 -84 -120 -12 0 -17 6 -15 18 2 9 10 16
16 14 7 -1 17 10 24 25 6 16 19 46 30 69 10 22 18 45 18 51 0 6 7 14 16 17 10
4 13 13 9 27 -4 12 -3 24 1 28 16 11 40 75 36 93 -3 15 -7 16 -24 7 -28 -15
-33 -5 -18 41 16 48 30 61 30 28 0 -13 4 -29 9 -36 9 -15 21 38 27 128 2 30 6
62 10 70 36 90 -17 566 -67 600 -4 3 -10 17 -13 30 -8 41 -27 90 -36 90 -4 0
-10 9 -13 21 -3 12 -10 18 -16 14 -7 -3 -11 2 -11 15 0 20 -59 109 -98 147
-10 10 -43 47 -73 82 -30 35 -69 80 -86 100 -18 20 -33 39 -33 43 0 3 -16 26
-35 50 -20 23 -43 53 -53 65 -9 12 -23 22 -31 23 -8 0 -11 6 -7 17 4 9 3 19
-2 22 -10 7 -103 199 -134 275 -10 27 -24 58 -30 70 -7 12 -11 30 -10 42 2 11
-4 40 -12 65 -8 24 -17 64 -21 88 -5 31 -13 45 -26 48 -22 6 -25 23 -4 23 12
0 14 14 9 88 -3 48 -7 92 -9 98 -2 6 0 28 5 48 4 21 4 34 -1 30 -5 -3 -9 -16
-9 -30 0 -17 -5 -24 -20 -24 -24 0 -27 25 -4 34 11 4 14 13 10 30 -3 13 1 38
11 56 9 18 17 43 18 54 12 104 39 263 46 271 5 5 9 17 9 27 0 26 41 138 89
244 22 51 41 99 41 108 0 9 3 16 8 16 8 0 52 62 52 73 0 4 -9 7 -20 7 -20 0
-58 46 -47 57 4 3 15 -5 25 -17 17 -22 21 -22 50 -9 18 8 33 17 33 21 1 5 2
16 3 25 0 10 20 36 43 58 23 22 43 49 45 60 2 12 12 21 25 23 13 2 48 29 78
60 31 31 65 67 76 78 16 17 20 29 14 53 -5 24 -3 31 9 31 8 0 17 -4 20 -9 17
-27 49 -17 122 40 42 32 104 72 137 88 65 32 97 53 97 65 0 4 -3 5 -7 3 -5 -3
-23 8 -42 23 -25 21 -32 34 -27 47 7 17 8 17 20 1 7 -10 18 -18 25 -18 6 0 16
-9 23 -20 20 -31 38 -24 38 15 0 44 -19 85 -39 85 -9 0 -27 12 -40 25 -24 26
-41 32 -41 16z"/>
<path d="M2878 4965 c-2 -2 -54 -5 -116 -6 l-112 -3 6 -35 c3 -20 7 -45 10
-56 2 -11 -9 6 -24 38 -25 54 -51 73 -67 47 -3 -5 -12 -7 -20 -3 -9 3 -15 -1
-15 -10 0 -12 -8 -14 -35 -10 -31 5 -40 1 -70 -30 -24 -25 -35 -45 -35 -66 0
-40 20 -81 39 -81 13 0 13 -2 2 -9 -15 -10 -16 -8 59 -49 40 -21 100 -103 100
-137 0 -32 17 -42 80 -48 179 -19 230 -44 315 -151 104 -129 124 -223 67 -303
-12 -17 -22 -37 -22 -45 0 -8 -8 -23 -17 -34 -47 -53 -86 -180 -58 -190 6 -2
25 9 43 26 18 16 39 30 46 30 7 0 25 9 39 20 14 11 35 20 47 20 11 0 19 4 16
8 -6 11 41 47 74 57 31 9 86 48 123 87 32 34 72 48 141 48 80 0 269 67 274 97
7 32 22 39 22 10 0 -24 2 -26 19 -17 29 15 54 2 47 -25 -5 -20 -1 -24 27 -28
17 -4 46 -9 62 -12 44 -9 115 43 115 85 0 17 -5 30 -11 30 -6 0 -8 7 -5 15 3
9 -1 18 -9 21 -8 3 -17 15 -20 25 -4 11 -13 18 -20 17 -8 -2 -15 2 -16 7 -4
14 -21 30 -42 38 -14 5 -15 10 -6 26 10 16 8 23 -17 50 l-30 32 -52 -57 c-29
-31 -55 -54 -59 -50 -4 3 1 12 10 19 9 6 23 29 32 49 8 20 24 39 35 43 11 3
20 10 20 14 0 7 -43 49 -148 143 -27 24 -36 27 -48 18 -7 -7 -14 -18 -14 -25
0 -16 -48 -75 -61 -75 -13 0 1 32 26 60 26 28 41 70 27 70 -6 0 -20 11 -33 25
-17 17 -31 22 -46 18 -14 -3 -23 -1 -23 7 0 6 -8 9 -18 6 -13 -4 -21 2 -29 24
-9 23 -26 37 -75 59 -95 43 -107 46 -123 24 -13 -17 -14 -16 -15 13 0 17 -6
31 -12 32 -22 2 -43 7 -54 15 -7 4 -23 -3 -38 -14 l-26 -20 0 25 c0 22 -11 33
-23 24 -2 -2 -12 4 -22 12 -15 13 -19 12 -31 -5 -8 -10 -14 -27 -14 -36 0 -21
-19 -73 -24 -68 -3 2 0 28 6 57 11 65 3 74 -87 92 -33 7 -65 13 -72 15 -6 2
-13 2 -15 0z"/>
<path d="M2132 4833 c-6 -2 -10 -9 -6 -14 3 -5 -3 -9 -13 -10 -10 0 -13 -3 -5
-6 14 -5 16 -23 3 -23 -5 0 -16 6 -23 13 -23 21 -38 18 -38 -7 0 -33 -15 -41
-42 -22 -33 23 -40 20 -33 -14 5 -23 3 -30 -9 -30 -8 0 -20 8 -25 18 -10 15
-12 15 -23 2 -7 -9 -27 -22 -44 -28 -16 -7 -43 -25 -58 -39 -25 -22 -26 -27
-12 -35 17 -9 22 -38 7 -38 -5 0 -14 6 -21 14 -10 13 -15 13 -39 -2 -16 -9
-47 -34 -71 -54 -23 -21 -46 -38 -49 -38 -4 0 -17 -17 -28 -37 l-21 -38 24
-18 c13 -10 29 -28 35 -40 8 -14 -6 -6 -36 22 -44 41 -48 42 -58 25 -6 -10
-13 -21 -16 -24 -16 -14 -81 -99 -81 -107 0 -5 -9 -16 -20 -26 -12 -10 -18
-21 -16 -26 3 -5 -1 -14 -9 -21 -19 -16 -19 -30 0 -30 27 0 16 -18 -19 -30
-40 -13 -68 -66 -41 -77 26 -9 16 -20 -14 -15 -24 3 -29 0 -33 -22 -3 -15 0
-31 8 -37 21 -18 17 -29 -11 -29 -27 0 -47 -32 -37 -58 2 -7 -4 -19 -14 -27
-15 -11 -17 -16 -6 -26 18 -19 15 -29 -8 -29 -15 0 -20 -7 -20 -29 0 -17 -5
-33 -10 -36 -13 -8 6 -35 24 -35 7 0 21 -7 32 -15 17 -13 15 -14 -27 -9 l-46
6 -8 -58 c-15 -120 -14 -198 2 -223 14 -22 14 -25 -1 -33 -28 -16 -19 -38 17
-39 17 0 41 -4 52 -9 15 -6 8 -9 -27 -9 -27 -1 -48 -2 -48 -3 -11 -104 -11
-161 1 -169 8 -5 43 -9 78 -9 84 0 75 -9 -12 -11 -58 -2 -67 -4 -61 -18 4 -9
6 -27 5 -39 -1 -16 6 -26 19 -29 16 -4 18 -8 9 -19 -9 -11 -8 -25 1 -60 13
-46 13 -46 49 -40 20 4 56 8 81 11 l45 4 -45 -10 c-83 -20 -100 -29 -100 -56
0 -26 65 -179 84 -199 6 -6 27 -43 46 -83 27 -55 39 -71 53 -67 14 3 16 0 11
-16 -5 -18 -3 -20 20 -16 27 5 35 -9 16 -28 -14 -14 68 -131 150 -213 15 -15
38 -42 53 -61 14 -19 54 -64 87 -100 33 -36 60 -70 60 -76 0 -6 18 -47 40 -90
23 -43 46 -99 52 -124 16 -64 30 -75 63 -48 l27 21 -17 -33 c-13 -25 -14 -34
-5 -40 10 -6 10 -16 1 -43 -9 -27 -10 -57 -2 -114 15 -116 22 -233 13 -233 -4
0 -7 -43 -7 -95 0 -52 3 -95 8 -95 4 0 7 -7 7 -15 0 -9 -6 -12 -15 -9 -8 4
-15 1 -15 -5 0 -6 5 -11 10 -11 15 0 12 -21 -7 -55 -12 -23 -17 -58 -18 -147
0 -64 2 -115 6 -112 4 2 14 -3 22 -11 9 -8 23 -15 31 -15 11 0 16 -9 16 -30 0
-34 -3 -33 56 -19 33 9 48 8 58 0 15 -13 143 -10 164 3 11 7 16 1 13 -17 -1
-5 9 -7 21 -5 16 2 25 12 29 33 l7 30 1 -30 c2 -28 3 -29 16 -12 13 18 14 18
25 -2 10 -19 19 -21 121 -21 84 0 111 3 115 14 3 8 13 12 25 9 16 -5 18 -8 7
-15 -9 -7 -8 -8 5 -4 10 3 23 6 28 6 5 0 9 41 9 90 0 53 4 90 10 90 6 0 10
-37 10 -91 l0 -91 33 7 c17 4 39 13 47 20 8 7 21 10 28 8 7 -3 12 5 12 21 0
14 5 26 10 26 6 0 10 -18 10 -40 l0 -40 60 0 c33 0 60 2 60 4 0 3 -4 16 -10
31 -8 20 -7 27 6 32 19 7 34 -13 34 -45 0 -16 5 -22 18 -20 25 4 41 38 35 73
-3 21 -2 26 5 16 7 -10 11 -10 14 -1 2 7 16 -15 32 -49 15 -33 33 -61 41 -61
15 0 14 15 -4 103 -7 32 -11 61 -8 63 2 3 9 -22 16 -54 7 -36 20 -67 32 -78
21 -19 21 -19 14 21 l-6 40 20 -42 c25 -54 56 -57 102 -12 31 31 32 32 25 102
-6 70 -33 143 -64 180 -11 13 -24 16 -44 12 -23 -6 -28 -3 -28 13 0 11 -9 22
-20 25 -11 3 -20 12 -20 19 0 15 -40 41 -56 37 -5 -2 -23 5 -41 14 -18 9 -39
17 -48 17 -24 0 -114 31 -121 41 -13 22 -24 5 -24 -37 0 -53 -16 -51 -26 4
-10 56 -24 69 -44 42 l-17 -23 -6 30 c-6 28 -42 52 -57 37 -3 -3 -7 -56 -10
-117 l-5 -112 -5 123 -5 124 -70 27 c-73 29 -107 46 -139 71 -14 11 -20 12
-23 3 -8 -22 -26 -14 -20 9 5 16 -3 30 -29 55 -31 29 -92 70 -72 48 9 -9 -9
-35 -25 -35 -6 0 -7 18 -3 48 5 38 2 55 -16 87 -12 22 -29 65 -38 95 -13 41
-23 56 -39 58 -25 4 -26 10 -5 33 8 9 17 34 20 55 12 96 116 160 208 128 50
-18 79 -44 122 -112 45 -69 130 -157 139 -142 4 7 12 3 23 -10 12 -14 59 -31
155 -55 77 -19 144 -38 150 -42 7 -4 18 -8 27 -9 8 -1 40 -11 70 -22 30 -11
75 -25 100 -32 25 -6 99 -29 165 -50 66 -21 141 -41 167 -44 26 -4 50 -11 53
-16 7 -12 36 -1 58 22 21 22 27 22 53 4 19 -14 19 -15 0 -22 -28 -11 54 -34
119 -34 73 0 87 13 43 40 -20 11 -39 28 -42 37 -10 26 0 26 22 -1 23 -30 47
-33 61 -8 8 15 11 14 20 -10 11 -31 21 -34 39 -16 7 7 12 8 12 3 0 -4 9 0 20
10 13 12 20 14 20 5 0 -10 3 -10 15 0 24 20 17 39 -20 54 -35 15 -44 29 -24
41 5 4 19 -1 30 -11 19 -17 19 -17 3 22 -9 21 -21 46 -27 54 -6 8 5 0 25 -18
49 -46 56 -25 11 32 -43 56 -38 73 7 22 18 -20 36 -33 41 -30 13 8 -16 71 -51
110 -47 54 -35 53 21 -1 39 -38 50 -45 44 -27 -4 13 -2 29 4 36 10 12 27 108
37 211 5 44 3 53 -20 74 -33 31 -34 46 -1 25 14 -9 28 -15 30 -12 7 7 -7 48
-16 48 -5 0 -9 5 -9 10 0 6 6 10 14 10 9 0 16 17 20 45 8 48 3 65 -19 65 -8 0
-17 5 -20 11 -5 7 4 8 28 4 32 -6 34 -5 41 25 12 61 7 83 -26 118 l-33 34 40
-20 40 -20 20 36 c11 20 29 39 40 41 26 4 77 40 71 50 -3 4 5 8 17 8 12 1 23
7 25 13 2 5 10 10 18 10 17 0 17 1 4 34 -7 21 -6 26 5 26 8 0 15 -7 15 -16 0
-12 7 -15 25 -12 13 3 26 1 28 -5 1 -5 8 -3 15 5 9 12 8 19 -9 36 -18 20 -18
22 -2 22 10 0 24 9 31 21 11 17 11 24 0 37 -20 26 -47 84 -51 111 -2 15 -16
31 -38 42 -21 11 -27 18 -16 19 20 0 23 16 5 23 -10 4 -10 8 -1 14 18 13 -10
69 -43 85 -33 16 -44 39 -16 33 20 -3 20 -2 6 33 -9 20 -27 62 -41 92 -15 30
-41 98 -58 150 -29 88 -33 95 -59 98 -16 2 -33 -1 -39 -7 -6 -6 -17 -11 -25
-11 -11 0 -11 3 2 15 8 8 31 15 52 15 l37 0 -8 63 c-4 34 -6 78 -6 97 1 45 -7
57 -44 62 -29 4 -29 4 14 17 38 11 41 14 26 25 -10 7 -19 32 -22 60 -4 32 -11
49 -22 53 -9 3 -23 7 -31 10 -12 3 -10 7 8 17 12 7 19 15 16 19 -4 4 -2 7 4 7
23 0 -1 29 -29 35 -32 7 -33 9 -19 35 22 40 -79 72 -142 46 -51 -22 -54 -20
-18 10 l31 27 -30 18 c-37 22 -161 29 -184 11 -18 -15 -13 -80 11 -132 26 -59
40 -144 31 -198 -4 -30 -28 -85 -58 -140 -28 -49 -51 -102 -51 -116 0 -16 -7
-29 -17 -33 -22 -7 -49 -38 -68 -78 -8 -16 -19 -37 -25 -45 -5 -8 -24 -40 -41
-70 -18 -30 -41 -71 -52 -90 -11 -19 -38 -69 -60 -110 -22 -41 -51 -93 -66
-115 -29 -46 -56 -93 -107 -185 -19 -36 -48 -87 -63 -114 -16 -26 -26 -57 -24
-67 4 -13 0 -19 -10 -19 -21 0 -40 -36 -32 -60 5 -16 2 -20 -14 -20 -13 0 -30
-13 -43 -34 -12 -18 -38 -44 -57 -57 -32 -22 -44 -24 -155 -24 -137 0 -170 11
-240 81 -24 24 -41 34 -43 27 -3 -7 -9 -13 -14 -13 -13 0 -11 28 2 32 7 2 -3
26 -24 59 -46 72 -67 124 -67 164 0 36 42 136 84 204 15 23 24 46 21 51 -3 5
4 19 15 30 26 26 42 67 35 90 -4 14 -20 17 -87 19 -115 2 -135 -7 -183 -82
-59 -93 -132 -160 -196 -180 -63 -19 -259 -25 -301 -9 -57 23 -165 209 -175
303 -7 60 13 120 78 234 28 50 64 113 79 140 14 28 46 82 70 120 44 71 64 106
117 205 17 30 47 84 68 120 21 36 51 90 68 120 16 30 44 80 62 110 18 30 45
78 60 105 14 28 37 68 50 90 13 22 24 45 24 52 1 14 43 81 67 105 16 17 16 41
-2 97 -6 20 -4 23 9 18 29 -11 19 9 -19 38 -34 26 -36 26 -29 6 9 -29 -25 -29
-44 0 -12 20 -11 21 11 16 21 -5 20 -4 -7 18 -16 14 -34 25 -39 25 -14 0 -63
58 -76 90 -11 28 -45 49 -57 36 -3 -3 -17 1 -32 8 -36 18 -64 25 -79 19z"/>
<path d="M5411 4638 c-13 -4 -40 -24 -60 -43 -19 -19 -39 -35 -44 -35 -4 0 -6
-4 -3 -9 3 -5 -1 -11 -9 -15 -8 -3 -15 -10 -15 -16 0 -9 -19 -35 -47 -65 -7
-8 -13 -21 -13 -30 0 -9 -4 -13 -10 -10 -5 3 -10 -1 -10 -9 0 -8 -18 -34 -40
-56 -22 -22 -50 -60 -61 -83 -25 -47 -66 -87 -91 -87 -9 0 -20 -4 -23 -10 -3
-5 -1 -10 4 -10 6 0 11 -4 11 -9 0 -15 -81 -48 -135 -55 -27 -3 -54 -11 -59
-16 -22 -22 -28 -8 -7 14 21 23 22 24 4 30 -35 10 -154 -2 -180 -19 -24 -16
-25 -20 -19 -77 12 -101 9 -100 112 -64 79 27 165 44 149 28 -5 -5 -44 -19
-85 -31 -127 -36 -151 -44 -156 -53 -10 -16 29 -21 78 -11 31 6 51 6 55 0 8
-14 -13 -24 -67 -31 -53 -7 -52 -5 -39 -111 5 -38 13 -129 18 -202 9 -114 22
-175 41 -193 6 -6 32 -76 71 -190 16 -46 42 -100 58 -120 15 -19 31 -46 35
-60 24 -80 60 -160 82 -179 14 -12 50 -27 80 -33 30 -6 54 -14 54 -18 0 -4
-29 -2 -65 5 -36 6 -65 10 -65 8 0 -2 7 -20 16 -41 9 -20 17 -46 19 -57 1 -11
3 -23 4 -27 0 -3 15 -9 31 -13 38 -8 39 -25 2 -25 -26 0 -28 -3 -24 -30 2 -17
12 -32 23 -35 25 -8 24 -25 -1 -25 -11 0 -20 -4 -20 -9 0 -9 31 -38 37 -33 13
9 14 -1 1 -12 -9 -7 -26 -37 -37 -67 -45 -119 -93 -160 -240 -205 -76 -23 -83
-28 -63 -37 35 -16 26 -28 -16 -21 -53 8 -61 -6 -78 -133 -8 -59 -16 -114 -19
-121 -2 -7 6 -17 19 -22 13 -4 26 -16 29 -24 7 -19 3 -20 -25 -5 -27 14 -35 1
-43 -71 -4 -30 -7 -62 -8 -70 -1 -8 6 -15 17 -15 11 0 21 -6 24 -13 3 -9 -3
-13 -19 -10 -19 2 -23 -1 -21 -17 2 -11 7 -22 10 -25 15 -11 12 -32 -3 -27
-17 7 -22 -28 -5 -38 17 -11 11 -28 -9 -22 -16 4 -21 -4 -31 -55 -11 -56 -10
-62 9 -82 28 -30 26 -38 -5 -30 -29 7 -28 -1 4 -39 15 -16 14 -17 -2 -11 -19
7 -48 -23 -41 -43 2 -7 -4 -14 -13 -17 -9 -4 -27 -24 -40 -46 -18 -32 -21 -44
-12 -61 16 -28 5 -36 -19 -15 -11 10 -27 16 -36 14 -15 -3 -14 -6 5 -31 28
-36 21 -45 -10 -12 -13 14 -27 25 -32 25 -15 0 -8 -23 14 -47 28 -30 15 -43
-16 -14 -21 19 -28 21 -67 12 -24 -5 -45 -15 -47 -20 -2 -6 -18 -11 -35 -11
-18 0 -66 -9 -107 -20 -41 -11 -87 -20 -102 -20 -15 0 -33 -7 -42 -15 -8 -8
-21 -12 -29 -9 -10 4 -18 -5 -26 -28 -9 -27 -7 -43 10 -88 l20 -55 -25 29
c-15 16 -26 39 -26 50 0 16 -2 18 -9 7 -6 -9 -4 -23 6 -38 14 -21 11 -27 -9
-24 -11 1 -14 -12 -54 -239 -34 -193 -67 -247 -161 -269 -37 -8 -262 -21 -376
-21 -21 0 -22 -35 -2 -70 8 -14 14 -31 15 -37 0 -22 -30 -14 -40 10 l-9 22 0
-22 c-1 -25 -16 -39 -26 -23 -4 6 -11 7 -17 4 -6 -4 -8 2 -3 17 5 19 4 21 -4
9 -6 -8 -11 -27 -11 -42 0 -31 -16 -38 -23 -10 -2 9 -3 6 -2 -8 2 -21 12 -67
31 -138 3 -9 239 -12 1139 -12 l1135 0 0 320 c0 222 -3 320 -11 320 -18 0
-242 216 -284 275 -22 30 -53 60 -70 67 -29 12 -60 35 -93 71 -9 9 -23 17 -32
17 -18 0 -80 49 -62 50 15 0 84 -43 130 -82 18 -15 42 -28 52 -28 11 0 20 -4
20 -9 0 -15 116 -122 173 -161 29 -19 79 -55 110 -78 32 -24 60 -42 62 -40 4
4 -78 72 -208 174 -100 77 -126 109 -46 56 72 -47 88 -45 34 4 -59 54 -112 93
-100 74 5 -9 4 -11 -3 -6 -17 10 -15 36 3 36 7 0 18 -6 22 -14 4 -8 36 -33 69
-57 103 -73 211 -163 222 -184 9 -17 11 -13 11 22 1 37 -3 46 -35 70 -20 15
-74 60 -120 98 -46 39 -93 78 -106 88 -16 12 -9 10 22 -5 25 -12 88 -55 140
-95 l95 -72 3 32 c3 25 -3 37 -30 60 -18 15 -55 38 -83 51 -48 23 -137 86
-119 86 10 -1 65 -28 167 -84 75 -41 88 -34 27 14 -49 39 -45 51 5 20 34 -21
37 -21 33 -4 -2 10 -12 23 -23 29 -53 27 -246 165 -231 165 3 0 28 -13 55 -29
48 -29 121 -55 129 -47 2 3 -26 28 -63 56 -36 29 -63 55 -61 58 5 4 47 -22
150 -95 37 -26 46 -28 46 -8 0 8 -32 36 -70 61 -39 26 -69 49 -67 51 2 2 21
-4 42 -12 20 -9 39 -15 41 -13 1 2 -24 21 -56 43 -33 22 -56 41 -51 43 5 2 41
-13 80 -32 39 -20 73 -36 76 -36 3 0 5 23 5 52 0 35 -6 58 -17 71 -17 19 -17
20 0 14 9 -4 17 -2 17 4 0 5 -24 21 -52 34 -59 28 -53 33 11 10 l41 -14 0 77
0 78 -50 29 c-27 16 -48 31 -46 33 4 3 52 -16 89 -35 4 -2 7 340 7 761 l0 766
-87 1 -88 2 85 10 c83 11 84 11 40 18 -25 4 -79 8 -120 8 -85 1 -81 20 5 21
39 1 46 3 32 11 -31 18 -8 29 64 29 l69 0 0 39 c0 35 -2 39 -21 34 -16 -4 -17
-8 -7 -14 8 -5 -9 -8 -42 -8 -30 1 -47 3 -37 6 9 2 17 9 17 14 0 6 -36 8 -92
5 -66 -4 -83 -3 -58 3 19 5 81 13 137 16 82 6 103 11 103 22 0 12 -8 14 -36 9
-44 -9 -309 5 -274 14 14 4 40 10 57 14 18 5 30 12 27 17 -3 5 0 9 6 9 7 0 9
-8 5 -20 -6 -19 -2 -20 104 -20 123 0 148 14 44 26 -76 8 -64 22 20 23 35 1
47 5 47 16 0 15 1 15 -165 20 -106 2 -124 8 -55 15 108 11 220 33 220 42 0 8
-125 2 -160 -8 -9 -2 -8 2 4 11 11 8 25 15 30 16 6 0 -5 7 -24 14 -28 11 -30
14 -12 14 39 2 24 21 -16 21 -70 0 -54 14 30 28 46 7 92 15 103 17 11 2 26 4
33 4 7 1 12 15 12 35 l0 33 -52 -3 -53 -4 48 14 c27 8 51 16 53 19 2 2 3 195
2 429 l-3 425 -24 -9z"/>
<path d="M2725 4403 c-22 -7 -42 -19 -46 -25 -4 -6 -1 -32 7 -57 8 -25 14 -62
14 -81 0 -26 3 -31 10 -20 9 13 10 13 10 0 0 -17 99 139 100 157 0 15 -28 43
-43 42 -7 -1 -30 -8 -52 -16z"/>
<path d="M2564 4355 c-4 -8 -16 -15 -28 -15 -25 -1 -109 -121 -88 -128 22 -7
14 -35 -9 -29 -13 4 -22 0 -26 -11 -4 -9 -16 -30 -29 -47 -12 -16 -25 -41 -29
-54 -4 -14 -16 -34 -27 -45 -15 -17 -78 -131 -78 -143 0 -1 46 -4 103 -5 l102
-2 -110 -5 -110 -6 -32 -55 c-18 -30 -36 -59 -40 -65 -5 -5 -32 -53 -62 -105
-29 -52 -64 -111 -76 -130 -37 -57 -74 -121 -105 -185 -17 -33 -41 -78 -55
-100 -51 -82 -52 -85 -25 -107 21 -17 35 -19 134 -14 l111 5 33 38 c36 41 65
100 56 114 -3 5 -35 9 -72 10 -62 1 -65 2 -32 11 19 5 56 8 83 4 47 -5 48 -4
73 35 14 22 28 48 32 57 13 35 34 45 105 49 115 6 135 11 143 35 6 19 7 19 16
5 5 -10 16 -17 23 -17 17 0 20 16 5 25 -13 8 -3 25 15 25 7 0 15 -10 17 -22 2
-19 10 -24 46 -26 28 -2 47 2 58 12 25 26 119 18 185 -14 14 -7 158 -11 284
-8 22 1 49 -1 60 -4 11 -3 31 -2 44 1 l23 6 -42 79 c-62 119 -77 135 -125 134
-38 0 -104 -15 -78 -17 7 -1 12 -6 10 -13 -1 -7 17 -15 42 -20 52 -9 70 -23
53 -40 -8 -8 -15 -8 -25 1 -8 6 -21 9 -30 6 -9 -4 -26 7 -45 30 l-30 37 -108
4 c-59 3 -113 9 -120 15 -7 6 -32 12 -56 13 -24 2 -96 7 -161 11 l-119 8 5 27
c3 15 20 50 38 79 33 53 32 65 -6 74 -13 3 -8 5 13 6 39 1 34 20 -6 23 -17 0
-11 3 16 7 44 6 57 19 82 81 6 14 19 40 30 59 16 25 18 36 10 46 -8 10 -8 19
-1 33 15 28 2 180 -18 215 -17 30 -38 35 -47 12z"/>
<path d="M2858 4328 c-61 -80 -188 -319 -188 -354 0 -7 -15 -28 -33 -46 -45
-46 -137 -183 -137 -205 0 -9 169 6 191 17 12 7 16 16 12 28 -4 12 -1 11 14
-5 27 -30 50 -29 77 4 27 34 146 233 146 245 0 4 4 8 9 8 5 0 12 13 16 29 3
16 13 32 21 35 8 3 14 14 14 25 0 11 5 23 10 26 14 9 2 95 -16 116 -8 8 -14
21 -14 27 0 7 -4 12 -10 12 -5 0 -10 6 -10 13 0 18 -42 57 -62 57 -9 0 -27
-15 -40 -32z"/>
<path d="M4379 3971 c-22 -21 -39 -49 -40 -62 -4 -86 0 -119 15 -134 20 -20
20 -20 0 -39 -17 -18 -12 -47 13 -72 12 -12 13 -20 5 -37 -23 -48 -24 -65 -2
-77 20 -11 20 -13 6 -35 -20 -31 -20 -97 -1 -135 9 -17 15 -32 14 -35 -2 -14
14 -65 21 -65 10 0 21 -26 25 -61 5 -39 44 -117 61 -123 10 -4 13 -13 9 -26
-3 -11 -2 -20 3 -20 5 0 15 -19 22 -42 12 -38 39 -105 60 -148 4 -8 24 -17 44
-20 45 -6 44 -26 -1 -22 l-33 3 19 -43 c12 -28 25 -44 39 -46 11 -2 42 -14 69
-28 26 -14 37 -22 23 -18 -14 3 -38 8 -54 11 -28 6 -28 5 -22 -28 3 -19 9 -60
12 -91 6 -48 4 -59 -10 -64 -9 -4 -23 -19 -31 -35 -11 -20 -25 -30 -50 -35
-19 -3 -38 -10 -41 -15 -3 -5 -14 -9 -25 -9 -40 0 -117 -32 -149 -61 -30 -28
-34 -39 -51 -142 -11 -62 -21 -117 -23 -124 -3 -6 2 -14 10 -17 17 -7 19 -27
2 -24 -9 2 -18 -35 -30 -117 -20 -131 -18 -187 6 -214 24 -26 20 -34 -13 -28
-28 6 -29 5 -35 -41 -6 -55 -7 -69 -10 -137 -2 -31 -7 -49 -14 -48 -18 4 -26
-45 -11 -64 9 -10 9 -14 2 -10 -17 11 -83 -19 -83 -37 0 -10 -15 -17 -43 -21
-62 -10 -75 -19 -59 -45 15 -24 9 -26 -13 -4 -12 13 -19 14 -30 4 -11 -9 -19
-9 -28 -2 -16 13 -176 33 -204 26 -12 -3 -50 3 -86 14 -43 13 -69 16 -75 10
-7 -7 -28 -2 -64 15 -29 14 -107 42 -173 62 -66 20 -141 43 -166 51 -59 18
-56 18 -63 -11 -4 -14 -11 -23 -16 -20 -7 4 -6 13 0 26 9 16 7 21 -17 30 -29
12 -108 33 -178 49 -22 5 -67 19 -99 30 -55 20 -60 20 -69 5 -8 -15 -11 -13
-25 14 -8 18 -24 37 -36 43 -12 6 -29 20 -39 32 -13 15 -20 17 -24 9 -2 -7
-11 -13 -18 -13 -23 0 -28 21 -9 35 18 13 18 14 2 20 -10 4 -16 10 -13 14 2 4
-7 19 -19 32 -13 14 -27 35 -30 47 -10 29 -63 72 -90 72 -34 0 -76 -43 -76
-79 0 -16 6 -32 13 -34 8 -4 8 -6 0 -6 -12 -1 13 -99 35 -137 10 -17 11 -17
12 9 0 17 5 27 15 27 19 0 19 -27 0 -46 -13 -14 -12 -20 15 -57 43 -61 50 -69
100 -109 58 -46 120 -74 223 -99 45 -11 100 -29 123 -40 22 -10 49 -19 60 -19
36 0 199 -51 259 -82 195 -101 264 -216 253 -422 -5 -94 -23 -148 -53 -160 -9
-3 -46 -6 -81 -6 -62 0 -64 -1 -64 -26 0 -14 -4 -23 -10 -19 -13 8 -13 4 5
-38 8 -20 15 -42 15 -49 0 -22 -26 14 -44 62 -24 61 -33 70 -73 70 -34 0 -34
0 -27 -37 3 -21 15 -63 26 -93 11 -30 22 -62 25 -72 7 -24 34 -28 232 -29 263
-2 251 -13 302 295 32 190 36 243 24 290 -5 18 -4 31 3 35 8 5 4 19 -13 43
-14 21 -25 43 -25 50 1 7 10 -4 21 -24 11 -21 24 -38 29 -38 12 0 13 43 1 56
-4 5 -11 24 -14 42 -6 30 -5 32 13 22 27 -14 40 -12 34 5 -4 8 -2 15 4 15 13
0 22 -25 22 -63 l0 -31 -20 22 c-21 22 -40 29 -40 14 0 -25 34 -73 49 -69 9 2
15 7 14 13 -1 5 15 9 35 9 43 0 164 13 201 21 53 12 53 11 36 50 -8 20 -15 39
-15 43 1 12 40 -42 40 -55 0 -22 56 -17 95 9 40 26 43 47 13 89 -12 17 -17 29
-12 27 5 -3 25 -13 46 -23 l36 -19 26 26 c31 32 32 40 5 83 -30 48 -5 42 28
-7 l27 -40 12 23 c8 13 13 35 14 51 0 15 6 36 12 47 10 15 10 26 0 52 -10 27
-9 34 3 41 20 11 19 30 -5 57 -25 29 -25 33 -1 21 15 -8 20 -7 25 5 11 28 6
45 -15 63 -21 17 -21 17 7 16 23 0 29 5 36 33 5 19 8 50 6 70 -3 31 -9 40 -40
55 -21 10 -38 25 -38 33 0 22 21 17 52 -13 15 -14 29 -25 31 -22 10 11 15 79
6 84 -15 10 -10 28 5 22 11 -5 17 6 21 41 4 26 9 61 11 77 10 69 28 131 43
149 9 10 51 36 94 57 l78 40 -7 35 c-6 34 -6 36 14 25 12 -6 28 -21 36 -32 14
-20 15 -20 49 -4 46 21 73 52 84 95 17 62 4 83 -59 100 -81 22 -84 34 -8 28
l65 -5 -2 41 c-1 22 -2 45 -2 49 -1 4 -20 16 -43 26 l-43 19 43 -5 c39 -5 53
3 35 21 -5 4 -15 28 -24 54 -12 37 -22 49 -45 56 -64 19 -71 25 -31 25 20 1
37 5 37 11 0 5 -20 58 -45 117 -26 59 -56 132 -68 162 -12 30 -30 56 -40 58
-10 3 -16 11 -14 17 3 6 -4 26 -15 44 -21 34 -67 199 -68 240 0 18 -6 22 -30
22 -40 0 -40 26 1 35 28 6 30 10 25 38 -3 18 -11 79 -17 136 -10 86 -16 105
-31 109 -10 2 -16 8 -13 12 3 5 1 11 -5 15 -6 4 -5 11 4 20 12 13 12 22 -2 67
-19 59 -55 97 -91 98 -14 0 -38 -15 -62 -39z"/>
<path d="M3590 3970 c0 -6 -11 -15 -25 -20 -14 -5 -28 -17 -31 -25 -4 -8 -12
-15 -19 -15 -7 0 -18 -13 -23 -29 -9 -24 -8 -29 4 -24 18 7 31 -26 15 -37 -10
-5 -8 -17 8 -47 15 -31 28 -42 52 -47 45 -9 49 -8 43 8 -3 8 -1 17 5 21 7 3
11 -2 11 -14 0 -19 6 -21 54 -21 29 0 67 5 83 10 30 11 30 12 22 56 -12 66
-45 102 -89 99 -22 -2 -25 -1 -7 2 15 2 27 8 27 12 0 4 -18 24 -40 44 -39 35
-90 50 -90 27z"/>
<path d="M3315 3809 l-30 -7 32 -1 c17 0 35 -5 38 -11 8 -12 -26 -15 -80 -7
-5 1 -8 -13 -6 -32 2 -29 0 -33 -17 -29 -14 4 -24 -2 -33 -18 -11 -21 -8 -32
25 -96 77 -149 96 -165 128 -108 17 30 17 30 -7 30 -13 0 -27 5 -30 10 -3 6 5
10 19 10 13 0 31 3 40 6 31 12 16 24 -29 24 -26 0 -45 5 -45 11 0 8 17 9 54 5
l53 -7 30 48 c43 67 43 72 12 128 -27 49 -28 50 -76 50 -26 1 -61 -2 -78 -6z"/>
<path d="M3538 3668 c-23 -19 -91 -124 -133 -206 -21 -39 -42 -75 -49 -80 -6
-5 -95 -12 -197 -15 -107 -3 -195 -10 -207 -16 -12 -6 -33 -33 -48 -60 -28
-49 -28 -49 -103 -64 -64 -13 -78 -13 -90 -2 -17 17 -7 45 16 45 16 0 63 45
63 59 -1 40 -120 56 -180 23 -19 -10 -39 -29 -45 -41 -11 -23 -42 -36 -72 -28
-13 3 -9 7 15 12 28 7 30 9 16 20 -10 6 -14 17 -10 23 5 9 -8 12 -42 12 -27 0
-63 7 -78 15 -44 23 -55 20 -48 -12 7 -27 32 -73 45 -83 4 -3 17 -29 29 -58
12 -29 28 -52 34 -51 6 1 20 1 31 0 17 -1 18 -3 5 -12 -12 -8 -10 -9 8 -4 13
4 28 1 36 -8 18 -17 149 -32 172 -19 10 5 32 6 53 1 20 -5 43 -9 51 -9 13 0
13 1 0 11 -12 9 -12 10 -1 7 24 -7 31 -55 15 -100 -13 -37 -102 -193 -130
-228 -16 -19 -64 -107 -64 -116 0 -3 29 -3 65 1 44 4 65 3 65 -4 0 -7 -28 -11
-76 -11 l-76 0 7 -52 c4 -29 11 -59 15 -68 4 -8 14 -28 21 -43 11 -24 18 -28
41 -23 29 6 33 0 22 -29 -6 -14 -8 -14 -26 2 -16 15 -18 15 -13 1 4 -9 14 -20
23 -24 41 -18 52 -14 78 29 14 23 37 58 49 77 28 42 42 90 26 90 -6 0 -11 7
-11 15 0 8 5 15 10 15 6 0 10 -7 10 -15 0 -30 19 -14 51 43 17 31 43 74 57 94
13 21 59 97 101 170 44 77 84 134 94 136 22 5 21 -9 -4 -50 -25 -41 -113 -191
-163 -278 -39 -69 -51 -90 -77 -130 -9 -14 -26 -42 -38 -62 -11 -21 -31 -55
-43 -75 -12 -21 -30 -55 -40 -76 -19 -38 -19 -38 3 -56 17 -14 42 -18 113 -19
101 -2 126 3 126 23 0 7 10 15 21 17 16 2 40 36 90 123 38 66 69 125 69 130 0
6 17 35 38 66 41 63 49 76 137 234 113 201 147 258 157 266 5 3 6 14 2 24 -5
11 -4 16 3 12 8 -5 45 53 47 75 1 4 7 13 14 20 22 22 13 28 -38 28 -27 0 -50
5 -50 10 0 8 61 15 118 13 6 -1 12 3 12 7 0 5 3 15 6 23 3 10 -2 17 -13 20
-12 3 -8 5 10 6 16 1 30 8 34 19 4 9 10 19 13 22 4 3 24 38 44 78 39 78 40
106 3 116 -42 11 -203 6 -219 -6z"/>
<path d="M2237 3253 c-31 -48 -59 -93 -64 -99 -18 -23 -33 -55 -33 -70 0 -19
62 -144 92 -186 11 -16 25 -28 31 -28 23 0 75 56 97 103 12 26 26 50 31 53 15
9 10 34 -8 34 -21 0 -11 11 14 14 29 5 17 60 -34 156 -67 127 -61 126 -126 23z"/>
<path d="M1923 3063 c-105 -4 -108 -5 -104 -45 3 -27 51 -108 65 -108 6 0 29
18 51 40 56 57 57 40 1 -20 -45 -48 -47 -52 -34 -73 26 -39 76 -57 159 -57
161 0 171 13 107 137 -54 106 -78 134 -115 131 -15 -1 -74 -4 -130 -5z"/>
<path d="M1917 602 c-8 -9 -21 -39 -28 -67 -6 -27 -20 -68 -30 -89 -23 -48
-23 -46 -1 -46 11 0 27 16 40 43 14 26 21 33 17 17 -18 -79 -18 -83 -7 -76 6
4 19 24 29 44 9 20 26 51 36 67 l19 30 -6 -42 c-3 -23 -9 -48 -12 -57 -5 -13
3 -15 50 -13 40 2 56 -1 56 -10 0 -7 4 -13 9 -13 8 0 51 142 51 166 0 5 -9 -9
-19 -31 l-19 -40 -1 51 c-1 60 -5 66 -37 52 -18 -9 -28 -8 -36 0 -19 19 -44
14 -61 -10 l-16 -23 0 27 c-1 34 -14 42 -34 20z"/>
<path d="M2565 613 c-32 -2 -65 -9 -72 -15 -9 -7 -13 -40 -13 -107 1 -82 3
-93 14 -79 7 10 16 15 19 12 3 -4 10 9 16 27 l9 34 1 -33 c1 -20 5 -31 11 -27
6 3 13 0 16 -9 9 -22 45 -15 55 12 l9 23 25 -28 24 -28 2 55 2 55 6 -47 c4
-26 10 -50 14 -54 9 -9 9 133 0 166 -7 24 -8 23 -20 -15 l-12 -40 6 53 6 52
-29 -2 c-16 -1 -56 -3 -89 -5z"/>
<path d="M2903 613 c-45 -4 -50 -13 -44 -80 2 -23 31 -85 31 -68 1 6 7 -3 14
-20 11 -26 18 -30 52 -30 43 0 63 17 64 53 0 33 15 27 34 -16 10 -21 24 -39
33 -39 13 0 14 9 10 49 -4 28 -2 46 3 43 5 -3 -1 15 -13 39 -27 57 -57 68 -57
23 -1 -27 -2 -29 -11 -15 -5 10 -9 24 -8 30 5 43 -17 53 -27 13 -7 -28 -24
-24 -24 6 0 10 -3 18 -7 17 -5 -1 -27 -3 -50 -5z"/>
<path d="M2433 602 c-33 -21 -60 -81 -65 -146 l-6 -67 41 3 41 3 13 75 c19
111 11 155 -24 132z"/>
<path d="M1435 234 c-26 -53 -60 -117 -75 -142 -16 -26 -31 -57 -35 -69 -5
-19 -2 -23 17 -23 20 0 31 16 73 100 27 55 51 97 53 95 3 -3 -16 -48 -41 -101
-35 -72 -43 -95 -31 -92 11 2 27 31 44 78 14 41 36 97 48 124 12 27 20 51 17
54 -3 3 -5 0 -5 -6 0 -7 -4 -12 -10 -12 -6 0 -7 18 -3 45 3 25 3 45 1 45 -3 0
-27 -43 -53 -96z"/>
<path d="M1579 303 c-15 -17 -73 -133 -125 -251 l-24 -52 49 0 49 0 32 82 c17
46 34 97 37 113 3 17 10 35 14 41 9 12 5 45 -8 69 -8 14 -11 14 -24 -2z"/>
<path d="M2270 239 c-12 -39 -24 -69 -26 -66 -5 4 4 48 22 110 3 10 0 17 -9
17 -9 0 -20 -23 -30 -67 -16 -68 -16 -68 -12 -17 5 63 -13 84 -71 84 -51 0
-64 -14 -64 -66 0 -24 -5 -46 -11 -50 -7 -4 -9 10 -4 50 4 33 3 56 -2 56 -14
0 -51 -85 -73 -170 -10 -41 -22 -85 -26 -97 l-6 -23 451 0 451 0 0 48 c0 89
-13 211 -21 206 -5 -3 -7 -42 -5 -87 2 -45 2 -62 0 -37 -3 25 -9 54 -14 65 -5
11 -11 34 -12 50 -3 27 -7 30 -42 33 -45 4 -56 -7 -55 -58 0 -30 2 -32 10 -15
6 13 7 -13 3 -75 -3 -52 -10 -102 -14 -110 -16 -28 -23 18 -17 113 4 73 3 86
-6 65 -6 -16 -14 -28 -19 -28 -4 0 -9 12 -10 28 -1 15 -4 0 -8 -33 l-7 -60 -2
65 -3 65 -13 -40 -13 -40 -1 75 -1 76 -40 -4 c-33 -3 -40 -8 -41 -26 -1 -20
-1 -20 -7 2 -13 45 -27 26 -42 -55 -16 -85 -40 -133 -40 -80 0 16 6 40 14 55
18 37 29 102 17 102 -5 0 -20 -27 -32 -60 -12 -33 -27 -63 -32 -67 -6 -4 -8 0
-4 10 16 41 28 100 23 113 -3 9 -21 14 -49 14 -42 0 -45 -2 -51 -31 -3 -17 -6
-42 -6 -55 0 -12 -5 -26 -10 -29 -7 -4 -8 12 -4 48 10 83 -11 81 -36 -4z"/>
<path d="M1646 278 c-8 -13 -22 -49 -31 -82 -10 -32 -30 -89 -45 -127 l-29
-69 198 0 199 0 22 98 c13 53 31 114 41 134 24 48 24 48 -8 48 -42 -1 -58 -19
-75 -90 -21 -86 -57 -180 -69 -180 -11 0 -14 -12 25 113 45 141 38 175 -31
152 -7 -2 -19 -30 -28 -62 -32 -118 -47 -165 -52 -160 -2 3 3 34 12 69 28 108
34 156 18 162 -22 9 -40 -4 -53 -35 -7 -16 -16 -29 -21 -29 -10 0 -24 40 -20
63 3 25 -35 22 -53 -5z"/>
</g>
</svg>
