<?xml version="1.0" encoding="UTF-8"?>
<svg version="1.1" xmlns="http://www.w3.org/2000/svg" width="100" height="100">
<path d="M0 0 C7.48050207 5.80236662 11.4203686 14.21601772 12.7421875 23.46875 C12.86464844 24.45101562 12.98710938 25.43328125 13.11328125 26.4453125 C13.93724385 30.84356803 15.73916995 34.6571438 17.65625 38.6796875 C18.80686383 41.81532976 18.95636751 44.15327936 18.6796875 47.46875 C16.82625975 50.02824546 15.74212357 50.44793798 12.6796875 51.46875 C12.44185547 53.00595703 12.44185547 53.00595703 12.19921875 54.57421875 C11.96458808 55.93507666 11.7288522 57.29574435 11.4921875 58.65625 C11.39099609 59.32978516 11.28980469 60.00332031 11.18554688 60.69726562 C10.27680783 65.73217115 8.68762746 68.31965432 4.6796875 71.46875 C0.8671875 72.28125 0.8671875 72.28125 -2.3203125 72.46875 C-2.36929688 73.08363281 -2.41828125 73.69851562 -2.46875 74.33203125 C-2.54351562 75.14027344 -2.61828125 75.94851562 -2.6953125 76.78125 C-2.76492187 77.58175781 -2.83453125 78.38226563 -2.90625 79.20703125 C-3.3203125 81.46875 -3.3203125 81.46875 -5.3203125 84.46875 C-8.34767302 84.7602099 -11.16718006 84.86452171 -14.1953125 84.83203125 C-15.51571533 84.83277901 -15.51571533 84.83277901 -16.86279297 84.83354187 C-18.72560888 84.83119932 -20.58842782 84.82146012 -22.45117188 84.80493164 C-25.30888047 84.78134436 -28.16565637 84.78436848 -31.0234375 84.79101562 C-32.83073475 84.78543891 -34.63802806 84.77832907 -36.4453125 84.76953125 C-37.73284424 84.77089836 -37.73284424 84.77089836 -39.04638672 84.77229309 C-45.08929442 84.69976808 -45.08929442 84.69976808 -47.3203125 82.46875 C-47.078125 79.78125 -47.078125 79.78125 -46.4453125 76.46875 C-44.44619289 66.17033996 -44.44619289 66.17033996 -46.9453125 56.34375 C-47.7290625 55.395 -48.5128125 54.44625 -49.3203125 53.46875 C-56.66251989 44.47749069 -60.08806246 36.75117376 -59.703125 24.93359375 C-58.54404053 14.44269657 -53.75181039 5.83322713 -45.5703125 -0.78125 C-30.42028296 -11.4531518 -15.01864468 -9.91129413 0 0 Z M-46.3203125 10.46875 C-50.85368886 17.2214509 -53.12076659 25.02382706 -51.921875 33.109375 C-50.37400981 39.18022289 -47.43805064 44.44993924 -43.1953125 49.03125 C-38.21454405 54.5126627 -36.95047943 60.88101125 -37.1171875 68.1328125 C-37.38900645 71.25873048 -37.87657274 74.36257168 -38.3203125 77.46875 C-29.4103125 77.46875 -20.5003125 77.46875 -11.3203125 77.46875 C-10.85843122 72.82290601 -10.85843122 72.82290601 -12.44921875 70.7734375 C-14.92897815 69.04433596 -17.35084927 68.4058312 -20.2578125 67.59375 C-24.01554119 66.39872866 -26.09000296 65.672888 -29.0703125 63.03125 C-30.42736733 60.2492876 -30.66945366 58.52373514 -30.3203125 55.46875 C-29.0003125 55.46875 -27.6803125 55.46875 -26.3203125 55.46875 C-25.3047958 56.79030348 -24.30604002 58.12483072 -23.3203125 59.46875 C-21.10580599 60.56436446 -21.10580599 60.56436446 -18.57421875 61.20703125 C-17.65447266 61.46935547 -16.73472656 61.73167969 -15.78710938 62.00195312 C-14.82869141 62.25912109 -13.87027344 62.51628906 -12.8828125 62.78125 C-11.92826172 63.05775391 -10.97371094 63.33425781 -9.99023438 63.61914062 C-4.17861717 65.3596375 -4.17861717 65.3596375 1.6796875 64.46875 C1.91042969 63.20417969 2.14117187 61.93960938 2.37890625 60.63671875 C2.70722899 58.97634375 3.03671713 57.31619889 3.3671875 55.65625 C3.59051758 54.40618164 3.59051758 54.40618164 3.81835938 53.13085938 C5.08780234 46.9329908 5.08780234 46.9329908 8.32421875 44.39453125 C9.10152344 44.08902344 9.87882812 43.78351562 10.6796875 43.46875 C8.82152475 37.64137471 8.82152475 37.64137471 6.5546875 31.96875 C5.7126766 29.56300458 5.5298646 27.80054673 5.3671875 25.28125 C4.63115371 17.90864491 1.38407028 11.71521025 -3.9453125 6.59375 C-9.8220295 1.90346454 -17.59109015 -1.3951965 -25.2265625 -0.91015625 C-33.66920546 0.61771011 -40.67825899 3.91969971 -46.3203125 10.46875 Z " fill="#414141" transform="translate(73.3203125,9.53125)"/>
<path d="M0 0 C3.25 0.375 3.25 0.375 6.125 2.625 C8.25 5.375 8.25 5.375 8.25 9.375 C6.75 12.125 6.75 12.125 5.25 14.375 C6.57 14.375 7.89 14.375 9.25 14.375 C9.683125 13.446875 9.683125 13.446875 10.125 12.5 C11.25 10.375 11.25 10.375 13.25 8.375 C16.1875 8 16.1875 8 19.25 8.375 C21.65340847 10.457954 22.17287551 11.82600629 22.61328125 14.9609375 C22.09924744 19.79174984 19.97874415 23.22111645 17.5625 27.375 C17.12744141 28.15617187 16.69238281 28.93734375 16.24414062 29.7421875 C13.62134094 34.35831494 10.89242313 38.50034184 7.25 42.375 C4.6875 43 4.6875 43 2.25 42.375 C-0.34374745 40.42968941 -1.52393635 38.96276548 -2.6875 35.9375 C-2.76823249 32.62746784 -1.64423446 31.02692824 0.25 28.375 C-1.97655661 29.37311158 -3.51254312 30.08100576 -5.0625 32 C-6.75 33.375 -6.75 33.375 -10.25 33.8125 C-13.75 33.375 -13.75 33.375 -15.75 31.8125 C-17.14414409 28.41427377 -16.75870425 25.81089884 -15.75 22.375 C-13.96849984 18.61805778 -11.87799787 15.06954482 -9.75 11.5 C-8.91082031 10.05753906 -8.91082031 10.05753906 -8.0546875 8.5859375 C-3.29699273 0.44958992 -3.29699273 0.44958992 0 0 Z " fill="#2C2C2B" transform="translate(48.75,16.625)"/>
<path d="M0 0 C2.6875 -0.3125 2.6875 -0.3125 5 0 C5.47400705 5.27031572 3.9855083 8.60417307 1.3125 13 C0.80299805 13.88558594 0.80299805 13.88558594 0.28320312 14.7890625 C-2.12603689 18.87801565 -4.78593616 22.50234229 -8 26 C-10.5625 26.625 -10.5625 26.625 -13 26 C-15.66380423 24.00214683 -16.79769128 22.59247555 -17.875 19.4375 C-18 17 -18 17 -16 14 C-15.34 14 -14.68 14 -14 14 C-14 13.34 -14 12.68 -14 12 C-16.33165034 11.66501699 -16.33165034 11.66501699 -19 12 C-19.66 12.66 -20.32 13.32 -21 14 C-23 16 -23 16 -25.625 16.4375 C-26.40875 16.293125 -27.1925 16.14875 -28 16 C-30 13 -30 13 -30 10 C-28.906875 9.71125 -27.81375 9.4225 -26.6875 9.125 C-22.95986155 8.18106796 -22.95986155 8.18106796 -20 6 C-16.37561221 5.77891234 -12.78973056 5.68211715 -9.16015625 5.69726562 C-6.61774589 5.6794607 -6.61774589 5.6794607 -3 5 C-1.08502907 2.58634824 -1.08502907 2.58634824 0 0 Z " fill="#1B1B1B" transform="translate(64,33)"/>
<path d="M0 0 C0.33 0 0.66 0 1 0 C1.20818303 5.93321622 0.73620116 8.92329596 -1 15 C7.91 15 16.82 15 26 15 C24.75673545 9.13840814 24.75673545 9.13840814 21.7578125 7.609375 C20.88898437 7.32578125 20.02015625 7.0421875 19.125 6.75 C15.94670517 5.66843101 12.97017546 4.57488373 10 3 C13.2827744 1.3586128 16.0814116 2.90988895 19.4453125 3.9921875 C23.26796894 5.50020793 25.29214201 6.86458548 28 10 C28 12.31 28 14.62 28 17 C17.77 17 7.54 17 -3 17 C-3 11.84082603 -2.50539587 8.7818457 -1 4 C-0.65864073 2.66869885 -0.32074044 1.33641852 0 0 Z " fill="#888888" transform="translate(36,72)"/>
<path d="M0 0 C3.0625 0.375 3.0625 0.375 4.9375 2 C6.35857814 5.00005385 6.41935017 7.09197841 6.0625 10.375 C5.4025 11.035 4.7425 11.695 4.0625 12.375 C4.0625 11.055 4.0625 9.735 4.0625 8.375 C2.0825 8.705 0.1025 9.035 -1.9375 9.375 C-2.5975 7.725 -3.2575 6.075 -3.9375 4.375 C-4.5975 5.695 -5.2575 7.015 -5.9375 8.375 C-8.5775 8.375 -11.2175 8.375 -13.9375 8.375 C-13.9375 7.715 -13.9375 7.055 -13.9375 6.375 C-11.6275 6.375 -9.3175 6.375 -6.9375 6.375 C-6.64875 5.75625 -6.36 5.1375 -6.0625 4.5 C-4.38771127 1.33651017 -3.61553467 0.46155762 0 0 Z " fill="#686868" transform="translate(64.9375,24.625)"/>
<path d="M0 0 C6.40882917 -0.48368522 6.40882917 -0.48368522 9.0625 1.6875 C10 4 10 4 9.25 6.5625 C8.8375 7.366875 8.425 8.17125 8 9 C7.67 9.99 7.34 10.98 7 12 C6.34 12 5.68 12 5 12 C5 12.66 5 13.32 5 14 C3.02 14 1.04 14 -1 14 C-0.49697411 9.59852343 1.02445801 7.24604581 4 4 C4.66 3.67 5.32 3.34 6 3 C4.02 2.34 2.04 1.68 0 1 C0 0.67 0 0.34 0 0 Z " fill="#181817" transform="translate(46,19)"/>
<path d="M0 0 C0.53625 0.309375 1.0725 0.61875 1.625 0.9375 C4.3984957 2.17827439 7.00042837 2.5909675 10 3 C9.67 3.66 9.34 4.32 9 5 C8.0925 4.9175 7.185 4.835 6.25 4.75 C2.24531998 5.05805231 1.69801965 6.21494746 -1 9 C-3.625 9.4375 -3.625 9.4375 -6 9 C-8 6 -8 6 -8 3 C-6.865625 2.690625 -5.73125 2.38125 -4.5625 2.0625 C-1.21224901 1.37075469 -1.21224901 1.37075469 0 0 Z " fill="#222222" transform="translate(42,40)"/>
<path d="M0 0 C1 3 1 3 0 5.3125 C-1.22421513 8.60257815 -0.78395182 10.62900718 0 14 C2.31 14 4.62 14 7 14 C7.66 12.68 8.32 11.36 9 10 C10.98 10 12.96 10 15 10 C14.01 11.485 14.01 11.485 13 13 C13 12.34 13 11.68 13 11 C10.77344339 11.99811158 9.23745688 12.70600576 7.6875 14.625 C6 16 6 16 2.5 16.4375 C-1 16 -1 16 -3 14.4375 C-4.44081415 10.92551552 -3.89656164 8.65028668 -3 5 C-1.4375 2.0625 -1.4375 2.0625 0 0 Z " fill="#AEAEAD" transform="translate(36,34)"/>
<path d="M0 0 C-0.33 0.99 -0.66 1.98 -1 3 C-6.61 3 -12.22 3 -18 3 C-18.33 3.66 -18.66 4.32 -19 5 C-19.99 5.33 -20.98 5.66 -22 6 C-21.34 4.35 -20.68 2.7 -20 1 C-17.04170322 0.832662 -14.08336635 0.66609948 -11.125 0.5 C-9.86236328 0.42845703 -9.86236328 0.42845703 -8.57421875 0.35546875 C-7.76855469 0.31035156 -6.96289062 0.26523437 -6.1328125 0.21875 C-5.38918457 0.17685547 -4.64555664 0.13496094 -3.87939453 0.09179688 C-2.58744125 0.0286929 -1.29349349 0 0 0 Z " fill="#5B5B5A" transform="translate(62,36)"/>
<path d="M0 0 C0.94875 0.04125 1.8975 0.0825 2.875 0.125 C3.535 1.445 4.195 2.765 4.875 4.125 C2.235 3.795 -0.405 3.465 -3.125 3.125 C-3.455 3.95 -3.785 4.775 -4.125 5.625 C-6.125 8.125 -6.125 8.125 -8.10546875 8.45703125 C-10.11495058 8.43924822 -12.1221564 8.28916751 -14.125 8.125 C-14.125 7.465 -14.125 6.805 -14.125 6.125 C-11.815 6.125 -9.505 6.125 -7.125 6.125 C-6.83625 5.50625 -6.5475 4.8875 -6.25 4.25 C-4.49257947 0.93042788 -3.84628281 0.15385131 0 0 Z " fill="#A4A4A3" transform="translate(65.125,24.875)"/>
<path d="M0 0 C0.66 0 1.32 0 2 0 C0.62394084 4.76551013 -1.46778066 8.7248553 -4.125 12.875 C-4.49753906 13.46796875 -4.87007812 14.0609375 -5.25390625 14.671875 C-6.16365 16.1181343 -7.08103798 17.55958046 -8 19 C-9 16 -9 16 -8.28735352 14.19067383 C-7.90506592 13.53607178 -7.52277832 12.88146973 -7.12890625 12.20703125 C-6.71962891 11.49482422 -6.31035156 10.78261719 -5.88867188 10.04882812 C-5.45103516 9.31083984 -5.01339844 8.57285156 -4.5625 7.8125 C-4.12873047 7.06291016 -3.69496094 6.31332031 -3.24804688 5.54101562 C-2.17442769 3.68872757 -1.08837319 1.8436575 0 0 Z " fill="#AFAFAE" transform="translate(67,37)"/>
<path d="M0 0 C2.97 0.495 2.97 0.495 6 1 C6 1.99 6 2.98 6 4 C4.35 3.67 2.7 3.34 1 3 C0.67 2.01 0.34 1.02 0 0 Z " fill="#040404" transform="translate(63,27)"/>
</svg>
