<?xml version="1.0" encoding="UTF-8"?>
<svg version="1.1" xmlns="http://www.w3.org/2000/svg" width="318" height="318">
<path d="M0 0 C5.42601201 -0.04964329 10.85189015 -0.08583447 16.27807617 -0.10986328 C18.12184962 -0.11988642 19.96560731 -0.13350852 21.80932617 -0.15087891 C24.4679759 -0.17528995 27.12641443 -0.18652017 29.78515625 -0.1953125 C30.60210464 -0.20563507 31.41905304 -0.21595764 32.26075745 -0.22659302 C37.22748454 -0.22755457 41.2889491 0.40854037 46 2 C46 2.66 46 3.32 46 4 C46.721875 3.95875 47.44375 3.9175 48.1875 3.875 C51.20729369 4.00921305 53.26935729 4.75170619 56 6 C56 6.66 56 7.32 56 8 C57.32 8 58.64 8 60 8 C60 8.66 60 9.32 60 10 C60.61875 10.144375 61.2375 10.28875 61.875 10.4375 C64 11 64 11 66 12 C66 12.66 66 13.32 66 14 C66.61875 14.144375 67.2375 14.28875 67.875 14.4375 C70 15 70 15 72 16 C72 16.66 72 17.32 72 18 C72.66 18 73.32 18 74 18 C74 18.66 74 19.32 74 20 C74.66 20 75.32 20 76 20 C76 20.66 76 21.32 76 22 C76.66 22 77.32 22 78 22 C78 22.66 78 23.32 78 24 C78.66 24 79.32 24 80 24 C80 24.66 80 25.32 80 26 C80.66 26 81.32 26 82 26 C82 26.66 82 27.32 82 28 C82.66 28 83.32 28 84 28 C84 28.66 84 29.32 84 30 C84.66 30 85.32 30 86 30 C88 33 88 33 88 36 C88.66 36 89.32 36 90 36 C90 37.32 90 38.64 90 40 C90.66 40 91.32 40 92 40 C94.1519437 43.22791555 94.20086443 44.28400809 94 48 C94.66 48 95.32 48 96 48 C96 49.32 96 50.64 96 52 C96.66 52 97.32 52 98 52 C99.51807391 56.75663159 100.34054268 61.20245268 100.75390625 66.1796875 C100.81510058 68.01709988 100.81510058 68.01709988 102 69 C102.07258946 71.18639453 102.08373783 73.37500389 102.0625 75.5625 C102.05347656 76.76003906 102.04445312 77.95757812 102.03515625 79.19140625 C102.01775391 80.58166016 102.01775391 80.58166016 102 82 C102.66 82 103.32 82 104 82 C105.60355101 85.50776784 106.22036864 88.14354879 106 92 C106.66 92 107.32 92 108 92 C109.60355101 95.50776784 110.22036864 98.14354879 110 102 C110.66 102 111.32 102 112 102 C112 103.32 112 104.64 112 106 C112.66 106 113.32 106 114 106 C114 107.98 114 109.96 114 112 C114.66 112 115.32 112 116 112 C118.17812141 116.35624282 118.50037739 120.22716951 118 125 C117 128 117 128 116 130 C115.34 130 114.68 130 114 130 C114 130.66 114 131.32 114 132 C113.34 132 112.68 132 112 132 C112 132.66 112 133.32 112 134 C108.49223216 135.60355101 105.85645121 136.22036864 102 136 C102 136.66 102 137.32 102 138 C101.34 138 100.68 138 100 138 C100 140.64 100 143.28 100 146 C99.34 146 98.68 146 98 146 C98.01160156 146.92683594 98.02320313 147.85367188 98.03515625 148.80859375 C98.04417969 150.00613281 98.05320313 151.20367187 98.0625 152.4375 C98.07990234 154.22994141 98.07990234 154.22994141 98.09765625 156.05859375 C98 159 98 159 97 160 C96.71351121 162.71027491 96.55164579 165.42089608 96.37890625 168.140625 C95.99335524 171.05014395 95.20149422 173.3343367 94 176 C93.34 176 92.68 176 92 176 C91.67 177.32 91.34 178.64 91 180 C90.01 180 89.02 180 88 180 C88 180.66 88 181.32 88 182 C84.77208445 184.1519437 83.71599191 184.20086443 80 184 C80 184.66 80 185.32 80 186 C76.04 186 72.08 186 68 186 C68 187.98 68 189.96 68 192 C67.34 192 66.68 192 66 192 C66 195.3 66 198.6 66 202 C65.34 202 64.68 202 64 202 C64 205.3 64 208.6 64 212 C63.34 212 62.68 212 62 212 C62 212.66 62 213.32 62 214 C61.34 214 60.68 214 60 214 C60 214.66 60 215.32 60 216 C29.64 216 -0.72 216 -32 216 C-32 215.34 -32 214.68 -32 214 C-32.66 214 -33.32 214 -34 214 C-34.02684312 211.18743719 -34.04676188 208.37512759 -34.0625 205.5625 C-34.07087891 204.76005859 -34.07925781 203.95761719 -34.08789062 203.13085938 C-34.0965143 201.08704779 -34.0522815 199.04316098 -34 197 C-33.67 196.67 -33.34 196.34 -33 196 C-32.76712992 194.31816052 -32.58735834 192.6287584 -32.4375 190.9375 C-32.35371094 190.01839844 -32.26992187 189.09929687 -32.18359375 188.15234375 C-32.09271484 187.08693359 -32.09271484 187.08693359 -32 186 C-31.34 186 -30.68 186 -30 186 C-30.01160156 184.97519531 -30.02320313 183.95039063 -30.03515625 182.89453125 C-30.04454022 181.533856 -30.05363977 180.17317876 -30.0625 178.8125 C-30.07087891 178.13896484 -30.07925781 177.46542969 -30.08789062 176.77148438 C-30.10614342 173.02966233 -29.76339658 169.65192418 -29 166 C-29.33 165.67 -29.66 165.34 -30 165 C-30.07179964 163.48071962 -30.08392007 161.95832518 -30.0625 160.4375 C-30.05347656 159.61121094 -30.04445312 158.78492188 -30.03515625 157.93359375 C-30.02355469 157.29550781 -30.01195312 156.65742188 -30 156 C-30.66 156 -31.32 156 -32 156 C-32 154.68 -32 153.36 -32 152 C-32.66 152 -33.32 152 -34 152 C-36 149 -36 149 -36 146 C-36.66 146 -37.32 146 -38 146 C-38 145.34 -38 144.68 -38 144 C-38.66 144 -39.32 144 -40 144 C-40 143.34 -40 142.68 -40 142 C-40.66 142 -41.32 142 -42 142 C-42 141.34 -42 140.68 -42 140 C-42.66 140 -43.32 140 -44 140 C-44 139.34 -44 138.68 -44 138 C-44.66 138 -45.32 138 -46 138 C-46 136.68 -46 135.36 -46 134 C-46.66 134 -47.32 134 -48 134 C-48 133.34 -48 132.68 -48 132 C-48.66 132 -49.32 132 -50 132 C-52 129 -52 129 -52 126 C-52.66 126 -53.32 126 -54 126 C-54 124.68 -54 123.36 -54 122 C-54.66 122 -55.32 122 -56 122 C-56 120.68 -56 119.36 -56 118 C-56.66 118 -57.32 118 -58 118 C-58 116.68 -58 115.36 -58 114 C-58.66 114 -59.32 114 -60 114 C-60 112.02 -60 110.04 -60 108 C-60.66 108 -61.32 108 -62 108 C-62.22786458 105.94921875 -62.45572917 103.8984375 -62.68359375 101.84765625 C-62.81886614 99.98859771 -62.81886614 99.98859771 -64 99 C-64.1007812 96.63601532 -64.13973215 94.30188689 -64.1328125 91.9375 C-64.13376923 91.23101318 -64.13472595 90.52452637 -64.13571167 89.79663086 C-64.13639333 88.30029207 -64.13454005 86.80395033 -64.13037109 85.30761719 C-64.12502257 83.00969843 -64.13031651 80.71197514 -64.13671875 78.4140625 C-64.13605797 76.96354123 -64.1347768 75.51302009 -64.1328125 74.0625 C-64.13483673 73.3708374 -64.13686096 72.6791748 -64.13894653 71.96655273 C-64.11495224 67.11495224 -64.11495224 67.11495224 -63 66 C-62.76924918 64.65252916 -62.58846937 63.29622435 -62.4375 61.9375 C-62.2209375 59.9884375 -62.2209375 59.9884375 -62 58 C-61.34 58 -60.68 58 -60 58 C-60.04125 57.278125 -60.0825 56.55625 -60.125 55.8125 C-59.99078695 52.79270631 -59.24829381 50.73064271 -58 48 C-57.34 48 -56.68 48 -56 48 C-56 46.68 -56 45.36 -56 44 C-55.34 44 -54.68 44 -54 44 C-54 42.68 -54 41.36 -54 40 C-53.34 40 -52.68 40 -52 40 C-52 38.68 -52 37.36 -52 36 C-51.34 36 -50.68 36 -50 36 C-50 35.34 -50 34.68 -50 34 C-49.34 34 -48.68 34 -48 34 C-47.855625 33.38125 -47.71125 32.7625 -47.5625 32.125 C-47 30 -47 30 -46 28 C-45.34 28 -44.68 28 -44 28 C-44 27.34 -44 26.68 -44 26 C-43.34 26 -42.68 26 -42 26 C-42 25.34 -42 24.68 -42 24 C-41.34 24 -40.68 24 -40 24 C-40 23.34 -40 22.68 -40 22 C-39.34 22 -38.68 22 -38 22 C-38 21.34 -38 20.68 -38 20 C-37.34 20 -36.68 20 -36 20 C-36 19.34 -36 18.68 -36 18 C-35.34 18 -34.68 18 -34 18 C-34 17.34 -34 16.68 -34 16 C-32.68 16 -31.36 16 -30 16 C-30 15.34 -30 14.68 -30 14 C-29.34 14 -28.68 14 -28 14 C-28 13.34 -28 12.68 -28 12 C-26.68 12 -25.36 12 -24 12 C-24 11.34 -24 10.68 -24 10 C-23.34 10 -22.68 10 -22 10 C-22 9.34 -22 8.68 -22 8 C-18.49223216 6.39644899 -15.85645121 5.77963136 -12 6 C-12 5.34 -12 4.68 -12 4 C-7.8794254 2.00214565 -4.54805635 1.82164485 0 2 C0 1.34 0 0.68 0 0 Z M9 15 C7.72125 15.0825 6.4425 15.165 5.125 15.25 C0.01506988 15.74133943 -4.04190189 17.6017297 -8.6171875 19.84375 C-11 21 -11 21 -14 22 C-14 22.66 -14 23.32 -14 24 C-14.825 24.20625 -15.65 24.4125 -16.5 24.625 C-20.89143822 26.35020787 -24.54681549 28.77469061 -28 32 C-28 32.66 -28 33.32 -28 34 C-28.66 34 -29.32 34 -30 34 C-30 34.66 -30 35.32 -30 36 C-30.66 36 -31.32 36 -32 36 C-34.96235695 39.63323689 -34.96235695 39.63323689 -36 44 C-36.66 44 -37.32 44 -38 44 C-39.29673602 46.53919006 -40.58747837 49.08114238 -41.875 51.625 C-42.42220703 52.69427734 -42.42220703 52.69427734 -42.98046875 53.78515625 C-45.9801868 59.73005202 -48.13034821 65.09116053 -48.5625 71.8125 C-48.89884393 76.89884393 -48.89884393 76.89884393 -50 78 C-50.09851171 79.83115883 -50.12972629 81.66619933 -50.125 83.5 C-50.12757812 84.5003125 -50.13015625 85.500625 -50.1328125 86.53125 C-50.27870382 88.94399622 -50.27870382 88.94399622 -49 90 C-48.84084321 91.53851559 -48.72293375 93.08137761 -48.625 94.625 C-48.2022061 99.26912671 -47.06834762 102.78375294 -45 107 C-44.525625 108.134375 -44.05125 109.26875 -43.5625 110.4375 C-41.83794115 114.36949418 -39.94672561 118.17367724 -38 122 C-37.34 122 -36.68 122 -36 122 C-35.731875 122.57234375 -35.46375 123.1446875 -35.1875 123.734375 C-33.95867364 126.07884634 -32.57477824 128.12404938 -31 130.25 C-30.2265625 131.30960938 -30.2265625 131.30960938 -29.4375 132.390625 C-28.7259375 133.18726563 -28.7259375 133.18726563 -28 134 C-27.34 134 -26.68 134 -26 134 C-26 134.66 -26 135.32 -26 136 C-25.34 136 -24.68 136 -24 136 C-23.34 137.98 -22.68 139.96 -22 142 C-21.34 142 -20.68 142 -20 142 C-19.87625 142.556875 -19.7525 143.11375 -19.625 143.6875 C-19.04149038 146.03148368 -19.04149038 146.03148368 -18.0625 148.3125 C-15.01456548 156.02198144 -14.7228321 162.60667582 -14.8125 170.875 C-14.81314453 172.02742187 -14.81378906 173.17984375 -14.81445312 174.3671875 C-14.85951856 182.85951856 -14.85951856 182.85951856 -16 184 C-16.20837419 185.82906235 -16.36749659 187.66388134 -16.5 189.5 C-16.88888889 194.88888889 -16.88888889 194.88888889 -18 196 C-18 197.98 -18 199.96 -18 202 C4.44 202 26.88 202 50 202 C50 194.24451765 49.4503863 189.86874493 44.4375 184 C42.2678088 181.78856113 42.2678088 181.78856113 40 182 C40 181.34 40 180.68 40 180 C36.8151249 178.83480179 33.93631503 177.99189464 30.5625 177.5625 C26.64175071 176.94343432 23.6264563 175.59055101 20 174 C17.34751577 173.23414188 14.69358857 172.61432722 12 172 C12 171.34 12 170.68 12 170 C11.236875 169.4225 10.47375 168.845 9.6875 168.25 C6.70305031 165.75139096 5.52819035 163.53896713 4 160 C3.34 160 2.68 160 2 160 C1.77754607 158.39773045 1.57253331 156.79303233 1.375 155.1875 C1.25898438 154.29417969 1.14296875 153.40085938 1.0234375 152.48046875 C1 150 1 150 3 147 C6.5 146.625 6.5 146.625 10 147 C10.66 147.99 11.32 148.98 12 150 C12.66 150 13.32 150 14 150 C14.20625 150.721875 14.4125 151.44375 14.625 152.1875 C16.36405301 155.74465389 18.61138484 158.02589851 22 160 C25.44579041 160.67084112 25.44579041 160.67084112 29 161 C30.62385286 161.71449526 32.24679771 162.43163731 33.85546875 163.1796875 C37.72594073 164.66019591 41.80739946 165.36214295 45.84765625 166.24609375 C49.74786481 167.17885738 53.27475739 168.52274862 57 170 C64.6275758 172.54252527 70.47205548 172.45810433 78 170 C78 169.34 78 168.68 78 168 C78.66 168 79.32 168 80 168 C81.87621056 162.49644902 82.40141915 157.27461563 82.75390625 151.4765625 C83 149 83 149 84 148 C84.20837419 146.17093765 84.36749659 144.33611866 84.5 142.5 C84.88888889 137.11111111 84.88888889 137.11111111 86 136 C86.19313021 134.00432121 86.38320963 132.00790481 86.5234375 130.0078125 C87.13307274 127.43934928 87.91666921 126.60714089 90 125 C92.41015625 123.90234375 92.41015625 123.90234375 95.0625 122.9375 C98.89193066 121.55476645 98.89193066 121.55476645 102 119 C101.67386719 118.29875 101.34773437 117.5975 101.01171875 116.875 C98.75962277 111.98549368 96.59113651 107.11494456 94.75390625 102.0546875 C93.83188219 99.54181365 92.85874828 97.05184152 91.875 94.5625 C91.54242188 93.71816406 91.20984375 92.87382813 90.8671875 92.00390625 C90.163717 90.0410114 90.163717 90.0410114 89 89 C88.68076508 86.9427083 88.48838648 84.88386479 88.28125 82.8125 C88.18001957 80.9832467 88.18001957 80.9832467 87 80 C86.83988958 77.81478928 86.72249071 75.62639854 86.625 73.4375 C86.24486849 67.57515929 85.38823911 63.32761033 83 58 C82.47059482 56.58651425 81.94976733 55.1697866 81.4375 53.75 C80.43748074 51.07626431 79.36222212 48.51487161 78 46 C77.34 46 76.68 46 76 46 C75.71125 45.236875 75.4225 44.47375 75.125 43.6875 C74.03730987 40.84970692 74.03730987 40.84970692 72 38 C71.34 38 70.68 38 70 38 C70 37.34 70 36.68 70 36 C69.34 36 68.68 36 68 36 C68 35.34 68 34.68 68 34 C67.34 34 66.68 34 66 34 C66 33.34 66 32.68 66 32 C65.34 32 64.68 32 64 32 C64 31.34 64 30.68 64 30 C50.47949215 19.58920895 36.10023289 13.55906441 19 13.8125 C18.14277344 13.81314453 17.28554687 13.81378906 16.40234375 13.81445312 C12.38122581 13.4471807 12.38122581 13.4471807 9 15 Z " fill="#F2F2F2" transform="translate(139,35)"/>
<path d="M0 0 C1.22332031 -0.02835937 2.44664062 -0.05671875 3.70703125 -0.0859375 C8.40068828 0.53566916 10.64967579 2.44500858 13.55078125 6.0859375 C15.86121341 10.13632474 16.68462343 12.76683336 16.1875 17.375 C14.98129266 19.91925594 13.77905449 22.18505786 12.3125 24.5625 C11.94769531 25.17802734 11.58289063 25.79355469 11.20703125 26.42773438 C9.59977436 29.12500366 7.92926243 31.76235636 6.1875 34.375 C10.8075 34.375 15.4275 34.375 20.1875 34.375 C20.5175 33.055 20.8475 31.735 21.1875 30.375 C22.23828125 28.3046875 22.23828125 28.3046875 23.5 26.25 C23.90863281 25.56679687 24.31726563 24.88359375 24.73828125 24.1796875 C26.48261642 22.00749653 27.53986584 21.26207059 30.1875 20.375 C33.640625 20.1796875 33.640625 20.1796875 37.4375 20.25 C38.70078125 20.26804687 39.9640625 20.28609375 41.265625 20.3046875 C42.22984375 20.32789062 43.1940625 20.35109375 44.1875 20.375 C44.1875 21.035 44.1875 21.695 44.1875 22.375 C44.8475 22.375 45.5075 22.375 46.1875 22.375 C49.25050767 26.87379251 51.01686543 30.41120244 50.7734375 35.92578125 C49.78726377 40.04798743 47.43614657 43.18270436 45.046875 46.6328125 C43.37204462 49.10283545 42.03583505 51.50133774 40.75 54.1875 C38.75081264 58.33055276 36.54874358 62.32991196 34.25 66.3125 C30.06002695 73.57321347 25.89619072 80.85363658 22.1875 88.375 C21.5275 88.375 20.8675 88.375 20.1875 88.375 C20.043125 88.99375 19.89875 89.6125 19.75 90.25 C19.1875 92.375 19.1875 92.375 18.1875 94.375 C15.79097472 94.45639142 13.39724564 94.51567009 11 94.5625 C10.32646484 94.58763672 9.65292969 94.61277344 8.95898438 94.63867188 C4.48220311 94.70418575 1.74565972 94.11664173 -1.8125 91.375 C-3.54773928 88.73082586 -3.8125 87.59034057 -3.8125 84.375 C-4.4725 84.375 -5.1325 84.375 -5.8125 84.375 C-5.99192163 80.42772412 -5.90600689 77.7769487 -3.8125 74.375 C-3.1525 74.375 -2.4925 74.375 -1.8125 74.375 C-1.709375 73.859375 -1.60625 73.34375 -1.5 72.8125 C-0.56986134 69.51473565 0.80145512 66.50866668 2.1875 63.375 C-1.4425 63.045 -5.0725 62.715 -8.8125 62.375 C-11.54138277 66.27499087 -11.54138277 66.27499087 -13.6875 70.5 C-15.57618188 73.64780313 -17.51830915 74.75680099 -20.8125 76.375 C-24.64002862 77.09728252 -28.00050936 77.23029062 -31.8125 76.375 C-35.64967064 73.58640272 -37.93260059 69.67191293 -39.8125 65.375 C-40.50917182 59.40352726 -39.69359169 56.45014184 -36.30078125 51.56640625 C-34.64139058 49.12305149 -33.26415962 46.60604878 -31.875 44 C-29.92430429 40.3737067 -27.89999349 36.82415603 -25.75 33.3125 C-22.80716524 28.4695672 -20.28068953 23.47234795 -17.8125 18.375 C-17.14765545 17.04075716 -16.48159864 15.70711457 -15.8125 14.375 C-15.1525 14.375 -14.4925 14.375 -13.8125 14.375 C-13.68746094 13.80007812 -13.56242187 13.22515625 -13.43359375 12.6328125 C-12.79941142 10.32742014 -11.9495025 8.3827861 -10.875 6.25 C-10.53597656 5.56679687 -10.19695312 4.88359375 -9.84765625 4.1796875 C-7.29065627 -0.27817662 -4.8703969 0.05099892 0 0 Z " fill="#F8F8F8" transform="translate(156.8125,70.625)"/>
<path d="M0 0 C6.08722746 -0.04934154 12.1743392 -0.08569167 18.26171875 -0.10986328 C20.33367947 -0.11993712 22.40562593 -0.13359666 24.47753906 -0.15087891 C27.45120764 -0.17506664 30.4246887 -0.18646908 33.3984375 -0.1953125 C34.32868744 -0.20563507 35.25893738 -0.21595764 36.21737671 -0.22659302 C37.07811798 -0.22674408 37.93885925 -0.22689514 38.82568359 -0.22705078 C39.58513275 -0.231492 40.34458191 -0.23593323 41.12704468 -0.24050903 C43 0 43 0 45 2 C42.69179492 3.15410254 41.39215724 3.1210297 38.82568359 3.11352539 C37.53457169 3.11341209 37.53457169 3.11341209 36.21737671 3.11329651 C35.28712677 3.10813522 34.35687683 3.10297394 33.3984375 3.09765625 C32.44683746 3.0962413 31.49523743 3.09482635 30.51480103 3.09336853 C27.46816903 3.08776012 24.42160987 3.07520619 21.375 3.0625 C19.31250106 3.05748608 17.25000097 3.05292299 15.1875 3.04882812 C10.12497183 3.03778796 5.06249827 3.02051767 0 3 C0 2.01 0 1.02 0 0 Z " fill="#888888" transform="translate(140,116)"/>
<path d="M0 0 C0.99 0 1.98 0 3 0 C3 0.99 3 1.98 3 3 C2.34 3 1.68 3 1 3 C1 3.66 1 4.32 1 5 C0.34 5 -0.32 5 -1 5 C-1 5.66 -1 6.32 -1 7 C-1.66 7 -2.32 7 -3 7 C-3 7.66 -3 8.32 -3 9 C-3.66 9 -4.32 9 -5 9 C-5 9.66 -5 10.32 -5 11 C-5.66 11 -6.32 11 -7 11 C-7 11.66 -7 12.32 -7 13 C-7.66 13 -8.32 13 -9 13 C-9 13.66 -9 14.32 -9 15 C-9.66 15 -10.32 15 -11 15 C-11 15.66 -11 16.32 -11 17 C-11.99 17 -12.98 17 -14 17 C-13.34 15.35 -12.68 13.7 -12 12 C-11.34 12 -10.68 12 -10 12 C-10 11.34 -10 10.68 -10 10 C-9.34 10 -8.68 10 -8 10 C-8 9.34 -8 8.68 -8 8 C-7.34 8 -6.68 8 -6 8 C-6 7.34 -6 6.68 -6 6 C-5.34 6 -4.68 6 -4 6 C-4 5.34 -4 4.68 -4 4 C-3.34 4 -2.68 4 -2 4 C-2 3.34 -2 2.68 -2 2 C-1.34 2 -0.68 2 0 2 C0 1.34 0 0.68 0 0 Z " fill="#B9B9B9" transform="translate(105,51)"/>
<path d="M0 0 C1.93627769 -0.10807131 3.87427756 -0.1856225 5.8125 -0.25 C7.43091797 -0.31960937 7.43091797 -0.31960937 9.08203125 -0.390625 C12 0 12 0 13.88671875 2.015625 C14.25410156 2.67046875 14.62148437 3.3253125 15 4 C13.68 4.33 12.36 4.66 11 5 C11 4.34 11 3.68 11 3 C7.37 3 3.74 3 0 3 C0 2.01 0 1.02 0 0 Z " fill="#828282" transform="translate(152,71)"/>
<path d="M0 0 C2 1.375 2 1.375 4 3 C4 3.66 4 4.32 4 5 C4.66 5 5.32 5 6 5 C6 5.66 6 6.32 6 7 C6.66 7 7.32 7 8 7 C8.66 8.65 9.32 10.3 10 12 C9.01 12 8.02 12 7 12 C7 11.34 7 10.68 7 10 C6.34 10 5.68 10 5 10 C5 9.34 5 8.68 5 8 C4.34 8 3.68 8 3 8 C3 7.34 3 6.68 3 6 C2.34 6 1.68 6 1 6 C0.67 4.02 0.34 2.04 0 0 Z " fill="#A6A6A6" transform="translate(107,164)"/>
<path d="M0 0 C0.99 0 1.98 0 3 0 C3 0.66 3 1.32 3 2 C3.66 2 4.32 2 5 2 C5 2.66 5 3.32 5 4 C5.66 4 6.32 4 7 4 C7 4.66 7 5.32 7 6 C7.66 6 8.32 6 9 6 C9 6.99 9 7.98 9 9 C8.01 9 7.02 9 6 9 C6 8.34 6 7.68 6 7 C5.34 7 4.68 7 4 7 C4 6.34 4 5.68 4 5 C3.34 5 2.68 5 2 5 C2 4.34 2 3.68 2 3 C1.34 3 0.68 3 0 3 C0 2.01 0 1.02 0 0 Z " fill="#C4C4C4" transform="translate(93,170)"/>
<path d="M0 0 C0.99 0 1.98 0 3 0 C1.77472971 4.05281712 0.30119506 7.44360764 -2 11 C-2.66 10.67 -3.32 10.34 -4 10 C-4 8.68 -4 7.36 -4 6 C-3.34 6 -2.68 6 -2 6 C-2 4.68 -2 3.36 -2 2 C-1.34 2 -0.68 2 0 2 C0 1.34 0 0.68 0 0 Z " fill="#898989" transform="translate(98,80)"/>
<path d="M0 0 C0.99 0 1.98 0 3 0 C3 0.66 3 1.32 3 2 C3.66 2 4.32 2 5 2 C5 2.66 5 3.32 5 4 C5.66 4 6.32 4 7 4 C7 4.66 7 5.32 7 6 C7.66 6 8.32 6 9 6 C9 6.99 9 7.98 9 9 C8.01 9 7.02 9 6 9 C6 8.34 6 7.68 6 7 C5.34 7 4.68 7 4 7 C4 6.34 4 5.68 4 5 C3.34 5 2.68 5 2 5 C2 4.34 2 3.68 2 3 C1.34 3 0.68 3 0 3 C0 2.01 0 1.02 0 0 Z " fill="#CBCBCB" transform="translate(203,64)"/>
<path d="M0 0 C0.99 0 1.98 0 3 0 C3.28571429 8.57142857 3.28571429 8.57142857 1 12 C0 11 0 11 -0.09765625 8.49609375 C-0.08605469 7.48675781 -0.07445312 6.47742188 -0.0625 5.4375 C-0.05347656 4.42558594 -0.04445312 3.41367188 -0.03515625 2.37109375 C-0.02355469 1.58863281 -0.01195312 0.80617188 0 0 Z " fill="#848484" transform="translate(225,104)"/>
<path d="M0 0 C3 3 6 6 9 9 C8.01 9.33 7.02 9.66 6 10 C6 9.34 6 8.68 6 8 C4.68 8 3.36 8 2 8 C2 6.68 2 5.36 2 4 C1.34 4 0.68 4 0 4 C0 2.68 0 1.36 0 0 Z " fill="#969696" transform="translate(152,186)"/>
<path d="M0 0 C0.66 0 1.32 0 2 0 C2 0.66 2 1.32 2 2 C2.66 2 3.32 2 4 2 C4 2.66 4 3.32 4 4 C4.66 4 5.32 4 6 4 C6 4.66 6 5.32 6 6 C6.66 6 7.32 6 8 6 C7.67 6.99 7.34 7.98 7 9 C4.36 7.02 1.72 5.04 -1 3 C-0.67 2.01 -0.34 1.02 0 0 Z " fill="#7E7E7E" transform="translate(180,214)"/>
<path d="M0 0 C0.99 0 1.98 0 3 0 C3 0.99 3 1.98 3 3 C2.34 3 1.68 3 1 3 C1 3.66 1 4.32 1 5 C0.34 5 -0.32 5 -1 5 C-1 5.66 -1 6.32 -1 7 C-1.66 7 -2.32 7 -3 7 C-3.33 7.66 -3.66 8.32 -4 9 C-4 7.35 -4 5.7 -4 4 C-3.34 4 -2.68 4 -2 4 C-2 3.34 -2 2.68 -2 2 C-1.34 2 -0.68 2 0 2 C0 1.34 0 0.68 0 0 Z " fill="#BFBFBF" transform="translate(105,51)"/>
<path d="M0 0 C3.375 -0.1875 3.375 -0.1875 7 0 C7.66 0.99 8.32 1.98 9 3 C5.7 3 2.4 3 -1 3 C-0.67 2.01 -0.34 1.02 0 0 Z " fill="#9C9C9C" transform="translate(142,181)"/>
<path d="M0 0 C0.66 0.33 1.32 0.66 2 1 C2 3.64 2 6.28 2 9 C1.01 9 0.02 9 -1 9 C-1.09765625 2.84765625 -1.09765625 2.84765625 -1 1 C-0.67 0.67 -0.34 0.34 0 0 Z " fill="#8A8A8A" transform="translate(255,151)"/>
<path d="M0 0 C3.48331435 3.01887244 4.79157144 5.56909529 6 10 C5.01 10 4.02 10 3 10 C3 9.34 3 8.68 3 8 C2.34 8 1.68 8 1 8 C0.67 5.36 0.34 2.72 0 0 Z " fill="#959595" transform="translate(95,146)"/>
<path d="M0 0 C1.32 0.33 2.64 0.66 4 1 C3.67 1.66 3.34 2.32 3 3 C2.34 3 1.68 3 1 3 C1 3.66 1 4.32 1 5 C0.34 5 -0.32 5 -1 5 C-1 5.66 -1 6.32 -1 7 C-1.99 7 -2.98 7 -4 7 C-4 6.01 -4 5.02 -4 4 C-3.34 4 -2.68 4 -2 4 C-2 3.34 -2 2.68 -2 2 C-1.34 2 -0.68 2 0 2 C0 1.34 0 0.68 0 0 Z " fill="#B8B8B8" transform="translate(110,64)"/>
<path d="M0 0 C0.99 0 1.98 0 3 0 C3 2.64 3 5.28 3 8 C2.01 8 1.02 8 0 8 C0 5.36 0 2.72 0 0 Z " fill="#848484" transform="translate(122,210)"/>
<path d="M0 0 C0.99 0 1.98 0 3 0 C3 0.99 3 1.98 3 3 C2.34 3 1.68 3 1 3 C1 3.66 1 4.32 1 5 C0.34 5 -0.32 5 -1 5 C-1 5.66 -1 6.32 -1 7 C-1.99 7 -2.98 7 -4 7 C-4 6.01 -4 5.02 -4 4 C-3.34 4 -2.68 4 -2 4 C-2 3.34 -2 2.68 -2 2 C-1.34 2 -0.68 2 0 2 C0 1.34 0 0.68 0 0 Z " fill="#BCBCBC" transform="translate(252,162)"/>
<path d="M0 0 C0.66 0.33 1.32 0.66 2 1 C2 3.64 2 6.28 2 9 C1.01 9 0.02 9 -1 9 C-1.09765625 2.84765625 -1.09765625 2.84765625 -1 1 C-0.67 0.67 -0.34 0.34 0 0 Z " fill="#8A8A8A" transform="translate(239,103)"/>
<path d="M0 0 C0.99 0 1.98 0 3 0 C3 2.97 3 5.94 3 9 C2.01 9.495 2.01 9.495 1 10 C-0.60725635 6.78548731 -0.05748185 3.56387464 0 0 Z " fill="#A3A3A3" transform="translate(204,100)"/>
<path d="M0 0 C0.99 0 1.98 0 3 0 C3 1.32 3 2.64 3 4 C3.66 4 4.32 4 5 4 C4.67 5.65 4.34 7.3 4 9 C1.18167487 7.59083743 0.97406539 5.92219617 0 3 C0 2.01 0 1.02 0 0 Z " fill="#989898" transform="translate(235,140)"/>
<path d="M0 0 C0.99 0 1.98 0 3 0 C3 0.66 3 1.32 3 2 C3.66 2 4.32 2 5 2 C5.66 3.65 6.32 5.3 7 7 C6.01 7 5.02 7 4 7 C4 6.34 4 5.68 4 5 C3.34 5 2.68 5 2 5 C2 4.34 2 3.68 2 3 C1.34 3 0.68 3 0 3 C0 2.01 0 1.02 0 0 Z " fill="#BDBDBD" transform="translate(220,63)"/>
<path d="M0 0 C2.475 0.99 2.475 0.99 5 2 C5 2.66 5 3.32 5 4 C5.66 4 6.32 4 7 4 C7 4.99 7 5.98 7 7 C6.01 7 5.02 7 4 7 C4 6.34 4 5.68 4 5 C3.34 5 2.68 5 2 5 C2 4.34 2 3.68 2 3 C1.34 3 0.68 3 0 3 C0 2.01 0 1.02 0 0 Z " fill="#BABABA" transform="translate(206,49)"/>
<path d="M0 0 C0.66 0.33 1.32 0.66 2 1 C2 3.31 2 5.62 2 8 C1.01 8 0.02 8 -1 8 C-1.125 2.25 -1.125 2.25 0 0 Z " fill="#7C7C7C" transform="translate(123,192)"/>
<path d="M0 0 C0.66 0.33 1.32 0.66 2 1 C2 3.31 2 5.62 2 8 C1.01 8 0.02 8 -1 8 C-1.125 2.25 -1.125 2.25 0 0 Z " fill="#7C7C7C" transform="translate(89,124)"/>
<path d="M0 0 C0.66 0 1.32 0 2 0 C2 0.99 2 1.98 2 3 C1.34 3 0.68 3 0 3 C0 4.32 0 5.64 0 7 C-1.98 7.99 -1.98 7.99 -4 9 C-4 5 -4 5 -2.5625 3.375 C-2.046875 2.92125 -1.53125 2.4675 -1 2 C-0.67 1.34 -0.34 0.68 0 0 Z " fill="#E3E3E3" transform="translate(158,83)"/>
<path d="M0 0 C0.99 0 1.98 0 3 0 C3 1.98 3 3.96 3 6 C2.01 6 1.02 6 0 6 C0 4.02 0 2.04 0 0 Z " fill="#A0A0A0" transform="translate(109,194)"/>
<path d="M0 0 C0.99 0 1.98 0 3 0 C3 1.98 3 3.96 3 6 C2.01 6 1.02 6 0 6 C0 4.02 0 2.04 0 0 Z " fill="#9C9C9C" transform="translate(234,188)"/>
<path d="M0 0 C0.66 0 1.32 0 2 0 C3.4606285 2.64738916 4 3.89448334 4 7 C3.01 7 2.02 7 1 7 C1 5.68 1 4.36 1 3 C0.34 3 -0.32 3 -1 3 C-0.67 2.01 -0.34 1.02 0 0 Z " fill="#C4C4C4" transform="translate(117,177)"/>
<path d="M0 0 C0.66 0.33 1.32 0.66 2 1 C2 2.98 2 4.96 2 7 C1.01 7 0.02 7 -1 7 C-1.04254356 5.00045254 -1.04080783 2.99958364 -1 1 C-0.67 0.67 -0.34 0.34 0 0 Z " fill="#8A8A8A" transform="translate(224,171)"/>
<path d="M0 0 C0.99 0 1.98 0 3 0 C3 1.98 3 3.96 3 6 C2.01 6 1.02 6 0 6 C0 4.02 0 2.04 0 0 Z " fill="#999999" transform="translate(75,128)"/>
<path d="M0 0 C0.66 0.33 1.32 0.66 2 1 C2 2.98 2 4.96 2 7 C1.01 7 0.02 7 -1 7 C-1.04254356 5.00045254 -1.04080783 2.99958364 -1 1 C-0.67 0.67 -0.34 0.34 0 0 Z " fill="#9C9C9C" transform="translate(76,101)"/>
<path d="M0 0 C0.66 0 1.32 0 2 0 C2 1.98 2 3.96 2 6 C0.68 6.33 -0.64 6.66 -2 7 C-2 6.01 -2 5.02 -2 4 C-1.34 4 -0.68 4 0 4 C0 2.68 0 1.36 0 0 Z " fill="#E4E4E4" transform="translate(188,108)"/>
<path d="M0 0 C-5.75 3.875 -5.75 3.875 -8 5 C-7.67 3.35 -7.34 1.7 -7 0 C-3.86650268 -1.04449911 -3.01031744 -0.93423645 0 0 Z " fill="#6F6F6F" transform="translate(123,60)"/>
<path d="M0 0 C0.99 0 1.98 0 3 0 C3 0.66 3 1.32 3 2 C3.66 2 4.32 2 5 2 C5 2.99 5 3.98 5 5 C4.01 5 3.02 5 2 5 C2 4.34 2 3.68 2 3 C1.34 3 0.68 3 0 3 C0 2.01 0 1.02 0 0 Z " fill="#C6C6C6" transform="translate(105,246)"/>
<path d="M0 0 C1.65 0 3.3 0 5 0 C5.33 0.99 5.66 1.98 6 3 C4.02 3 2.04 3 0 3 C0 2.01 0 1.02 0 0 Z " fill="#989898" transform="translate(190,203)"/>
<path d="M0 0 C0.99 0 1.98 0 3 0 C3 0.66 3 1.32 3 2 C3.66 2 4.32 2 5 2 C4.67 3.32 4.34 4.64 4 6 C2.62437146 4.71034824 1.29233607 3.37310707 0 2 C0 1.34 0 0.68 0 0 Z " fill="#A2A2A2" transform="translate(143,196)"/>
<path d="M0 0 C2.31 0.33 4.62 0.66 7 1 C6.67 1.66 6.34 2.32 6 3 C4.02 3 2.04 3 0 3 C0 2.01 0 1.02 0 0 Z " fill="#7B7B7B" transform="translate(142,48)"/>
</svg>
