<?xml version="1.0" standalone="no"?>
<!DOCTYPE svg PUBLIC "-//W3C//DTD SVG 20010904//EN"
 "http://www.w3.org/TR/2001/REC-SVG-20010904/DTD/svg10.dtd">
<svg version="1.0" xmlns="http://www.w3.org/2000/svg"
 width="544.000000pt" height="544.000000pt" viewBox="0 0 544.000000 544.000000"
 preserveAspectRatio="xMidYMid meet">
<metadata>
Created by potrace 1.16, written by Peter Selinger 2001-2019
</metadata>
<g transform="translate(0.000000,544.000000) scale(0.100000,-0.100000)"
fill="#000000" stroke="none">
<path d="M0 2720 l0 -2720 2720 0 2720 0 0 2720 0 2720 -2720 0 -2720 0 0
-2720z m3129 2611 c151 -34 307 -86 427 -142 97 -45 294 -159 349 -202 22 -18
45 -35 50 -39 42 -30 212 -189 251 -235 122 -143 207 -271 284 -428 112 -228
143 -348 175 -665 18 -174 29 -222 77 -335 17 -38 34 -79 38 -90 11 -26 41
-95 74 -166 14 -31 26 -59 26 -63 0 -5 6 -22 14 -39 106 -237 131 -328 124
-450 -7 -99 -28 -157 -75 -197 -33 -29 -130 -80 -183 -95 -55 -16 -108 -47
-118 -69 -19 -41 -66 -320 -87 -511 -12 -112 -48 -273 -72 -325 -36 -76 -131
-168 -213 -207 -74 -35 -117 -46 -272 -72 -61 -11 -116 -25 -123 -33 -6 -7
-16 -40 -22 -73 -6 -33 -21 -114 -33 -180 -59 -324 -81 -371 -186 -395 -51
-12 -2007 -12 -2058 0 -45 10 -81 34 -109 73 -28 36 -25 135 8 307 14 74 30
155 34 180 32 169 40 221 46 270 4 30 10 73 15 95 5 21 8 109 6 195 -2 144 -4
161 -33 246 -18 50 -46 111 -63 135 -17 24 -38 55 -47 69 -10 14 -54 68 -98
120 -45 52 -95 113 -111 134 -16 22 -39 51 -51 64 -55 60 -229 349 -248 412
-4 14 -11 30 -15 35 -4 6 -13 26 -18 45 -6 19 -22 67 -37 105 -31 83 -50 159
-76 315 -32 196 -22 541 22 715 23 90 27 120 17 126 -5 4 1 17 14 32 14 15 31
52 38 84 8 32 47 123 86 203 74 148 122 224 231 370 27 36 233 243 268 270
111 85 153 114 232 162 50 31 101 59 112 63 12 3 21 11 21 16 0 5 5 9 11 9 5
0 73 25 150 55 165 66 287 99 452 125 101 16 159 19 342 15 200 -4 232 -7 354
-34z"/>
<path d="M2560 5283 c-158 -15 -364 -55 -384 -74 -6 -5 -18 -9 -29 -9 -27 0
-218 -80 -332 -140 -136 -71 -203 -119 -379 -270 -61 -52 -176 -176 -176 -190
0 -4 5 -10 11 -12 5 -2 7 -11 4 -21 -10 -24 -24 -21 -18 3 9 34 -11 22 -47
-31 -19 -27 -47 -66 -62 -86 -16 -20 -28 -40 -28 -46 0 -6 -7 -18 -16 -28 -38
-42 -111 -193 -149 -309 -16 -47 -32 -94 -37 -105 -5 -11 -10 -29 -12 -40 -3
-11 -14 -60 -25 -109 -12 -48 -25 -123 -30 -165 -13 -114 -13 -344 -1 -451 13
-113 62 -321 96 -406 13 -33 24 -65 24 -70 0 -24 145 -291 170 -314 3 -3 6
-11 8 -19 3 -16 98 -138 217 -281 207 -249 262 -353 285 -535 17 -140 17 -167
4 -305 -13 -129 -24 -204 -59 -390 -9 -47 -20 -107 -25 -135 -5 -27 -18 -94
-30 -148 -28 -136 -27 -151 13 -179 l32 -23 455 -5 c250 -3 710 -3 1022 0 555
5 567 5 595 26 30 22 37 52 92 384 27 157 45 222 69 242 25 22 79 38 126 38
42 0 167 22 221 39 171 53 268 171 289 351 11 95 36 282 51 375 8 50 17 113
20 140 9 78 30 162 49 190 18 28 84 61 182 93 101 33 139 62 164 129 21 54 22
64 11 148 -11 95 -74 275 -164 477 -9 18 -32 71 -52 118 -20 47 -47 108 -60
137 -40 90 -55 158 -75 350 -24 234 -29 259 -66 391 -2 7 -3 13 -3 15 0 5 -84
203 -91 212 -4 6 -27 48 -52 95 -46 88 -114 189 -168 250 -17 19 -47 55 -67
80 -31 38 -94 98 -221 209 -87 76 -271 186 -417 248 -239 102 -357 132 -595
153 -109 9 -264 11 -340 3z m228 -195 c-3 -22 2 -23 82 -31 278 -27 540 -120
774 -276 178 -119 264 -192 361 -311 28 -33 56 -60 63 -60 6 0 12 -10 12 -22
0 -11 18 -44 39 -72 89 -116 192 -355 220 -511 6 -33 15 -127 21 -210 17 -249
15 -243 180 -620 5 -11 21 -49 36 -85 14 -36 36 -85 49 -110 23 -44 57 -139
69 -191 4 -18 -1 -37 -17 -60 -23 -34 -92 -88 -115 -89 -7 0 -31 -8 -55 -19
-23 -10 -57 -24 -75 -31 -67 -26 -91 -74 -112 -225 -6 -44 -19 -136 -30 -205
-10 -69 -23 -161 -29 -205 -6 -44 -13 -90 -15 -103 -3 -13 -10 -57 -16 -98
-16 -120 -59 -183 -153 -224 -38 -17 -68 -21 -155 -22 -182 -1 -222 6 -527 88
-82 22 -157 44 -175 51 -8 3 -22 7 -30 8 -14 2 -130 37 -381 115 -86 27 -103
36 -158 87 -34 32 -83 89 -109 128 -54 80 -87 102 -126 84 -56 -26 -56 -123 1
-237 43 -87 105 -159 180 -209 58 -38 260 -111 368 -133 68 -13 270 -90 330
-125 22 -13 63 -46 91 -73 73 -72 97 -152 92 -308 -3 -109 -4 -115 -31 -141
l-27 -28 -773 -2 c-718 -3 -774 -2 -807 15 -30 14 -35 23 -38 55 -3 38 24 248
43 333 35 159 47 515 20 634 -33 150 -38 165 -108 305 -33 67 -99 163 -149
217 -40 42 -118 130 -136 152 -8 9 -35 42 -60 74 -69 84 -102 129 -102 141 0
5 -6 16 -12 23 -7 7 -39 69 -71 138 -33 69 -63 133 -69 144 -5 10 -20 60 -33
110 -77 299 -75 634 7 931 32 117 128 325 199 431 81 123 257 312 345 372 21
14 51 37 67 51 52 47 349 201 452 234 84 28 285 68 385 79 152 15 157 17 163
38 3 12 14 20 27 20 16 0 21 -5 18 -22z"/>
<path d="M2696 4963 l-48 -4 5 -52 c5 -42 4 -47 -4 -27 -31 74 -32 75 -79 74
-64 -1 -131 -13 -146 -24 -6 -6 -16 -10 -20 -9 -38 7 -47 -1 -41 -38 l6 -38
-20 33 c-24 37 -32 38 -91 16 -24 -9 -68 -25 -98 -37 -82 -30 -138 -56 -142
-64 -1 -5 -38 -25 -81 -47 -43 -21 -88 -47 -100 -57 -12 -10 -41 -33 -63 -51
-126 -99 -165 -133 -179 -155 -16 -23 -15 -26 19 -64 50 -55 45 -62 -8 -10
l-44 43 -36 -38 c-19 -22 -36 -43 -36 -47 0 -4 -13 -22 -30 -40 -16 -17 -35
-45 -42 -62 -6 -16 -17 -33 -23 -37 -6 -4 -18 -26 -25 -50 -8 -24 -20 -47 -28
-51 -11 -7 -10 -13 5 -29 18 -21 18 -21 -5 -15 -19 4 -26 -2 -44 -36 -11 -23
-21 -43 -20 -44 0 -1 -10 -29 -23 -62 -20 -51 -21 -62 -9 -72 18 -15 7 -31
-15 -24 -14 4 -18 0 -17 -17 1 -13 -2 -32 -7 -42 -7 -13 -5 -21 4 -27 8 -4 23
-15 34 -24 19 -16 19 -16 -7 -11 -40 9 -58 -2 -58 -35 0 -15 -4 -50 -10 -76
-11 -55 -19 -190 -12 -215 3 -11 14 -18 31 -19 14 0 35 -4 46 -9 15 -6 8 -9
-28 -9 l-48 -1 6 -77 c4 -43 8 -84 10 -90 3 -9 28 -13 76 -13 88 0 86 -9 -2
-15 -61 -3 -64 -5 -67 -31 -5 -35 27 -151 45 -166 13 -10 70 -3 147 19 12 3
16 1 12 -6 -4 -5 -23 -13 -44 -16 -20 -4 -52 -11 -71 -17 -30 -9 -33 -13 -28
-42 3 -18 25 -75 50 -127 25 -52 46 -98 48 -104 9 -25 72 -115 80 -115 5 0 9
-9 9 -20 0 -22 12 -25 41 -10 23 13 26 -2 4 -20 -23 -19 -19 -29 32 -80 27
-26 57 -60 68 -76 11 -16 38 -49 61 -74 23 -25 50 -56 60 -69 10 -13 26 -31
34 -40 54 -59 162 -254 176 -320 3 -14 13 -41 21 -59 l15 -34 22 21 c34 32 40
25 15 -19 -22 -39 -23 -43 -10 -143 20 -156 20 -249 4 -407 -9 -80 -16 -152
-18 -160 -1 -8 -5 -42 -9 -75 -4 -33 -11 -85 -17 -115 -14 -70 -2 -121 32
-137 17 -8 113 -12 319 -13 433 -2 390 -5 391 28 1 26 1 26 8 3 7 -27 42 -44
53 -27 4 6 9 58 10 116 l1 105 7 -110 c4 -60 8 -112 9 -114 0 -2 126 -2 279 1
275 4 278 4 305 28 21 18 27 33 27 62 0 42 -16 51 -26 14 -4 -18 -11 -23 -27
-20 -55 10 -44 61 12 56 30 -2 31 -1 31 42 0 25 -4 48 -10 51 -5 3 -10 14 -10
24 0 25 -30 49 -69 57 -26 6 -30 9 -17 16 14 8 13 11 -4 28 -23 23 -101 63
-155 79 -22 7 -49 16 -60 21 -38 16 -154 50 -173 50 -10 0 -22 4 -28 9 -5 4
-21 11 -36 15 -20 4 -30 1 -37 -11 -9 -16 -11 -15 -19 8 -8 19 -22 29 -57 39
-48 13 -157 74 -163 91 -2 5 -8 9 -14 9 -12 0 -113 101 -120 121 -3 9 -10 3
-22 -18 -9 -18 -18 -33 -20 -33 -2 0 -3 31 -2 68 0 39 -4 75 -11 83 -24 29
-53 139 -53 201 0 109 54 163 159 159 80 -3 124 -32 175 -115 42 -68 115 -135
183 -167 69 -32 100 -43 238 -79 44 -12 84 -25 90 -29 5 -4 33 -14 60 -21 28
-7 95 -26 150 -42 108 -32 194 -57 308 -88 39 -11 117 -22 172 -26 85 -6 111
-3 174 14 117 34 137 63 96 143 -14 29 -24 54 -22 56 3 2 16 -10 30 -27 14
-16 29 -30 32 -30 10 0 -6 42 -26 72 -29 40 -23 54 7 18 33 -39 51 -27 31 21
-8 19 -21 40 -30 48 -10 7 -17 18 -17 24 0 6 10 1 23 -11 42 -39 50 -29 62 78
3 25 10 78 16 119 l11 73 -43 44 c-50 51 -44 58 12 13 40 -31 54 -22 24 17
-20 26 -19 37 3 32 16 -5 20 7 35 93 9 53 20 104 23 112 3 8 -8 30 -26 51 -35
39 -33 45 6 19 25 -16 26 -16 62 26 21 23 66 56 102 74 36 19 76 40 90 47 14
8 31 15 37 16 24 4 47 37 46 68 0 17 -13 67 -29 111 -24 64 -36 83 -60 94 -29
15 -29 15 -5 21 21 5 22 7 7 19 -9 7 -16 21 -16 31 0 10 -25 76 -56 147 -31
70 -63 142 -71 160 -7 18 -17 35 -22 37 -5 3 -14 35 -21 71 -12 62 -14 65 -41
65 -15 0 -31 5 -34 10 -3 6 2 10 12 10 41 1 42 7 26 185 -8 94 -14 178 -14
188 0 10 -8 17 -19 17 -10 0 -22 5 -25 10 -3 6 1 10 9 10 9 0 16 8 16 18 0 47
-54 192 -71 192 -4 0 -20 -5 -36 -10 l-28 -10 28 23 c33 28 33 36 4 92 l-23
43 -52 -30 c-61 -35 -70 -22 -12 19 23 16 40 36 40 47 0 17 -42 89 -61 106 -3
3 -8 12 -11 20 -11 25 -98 131 -114 137 -9 3 -26 -6 -42 -23 -15 -16 -36 -36
-46 -44 -18 -14 -19 -13 -10 2 5 9 26 35 47 57 l38 42 -47 44 c-26 25 -52 45
-57 45 -5 0 -24 16 -43 35 -18 19 -36 35 -40 35 -4 0 -21 -12 -36 -27 -30 -28
-38 -20 -13 13 16 22 20 58 5 49 -5 -3 -10 -1 -10 5 0 6 -4 9 -9 6 -5 -4 -11
-2 -13 3 -6 17 -146 94 -330 183 -10 4 -35 12 -57 17 -31 7 -41 5 -45 -5 -8
-20 -26 -17 -26 4 0 22 -42 47 -64 39 -8 -3 -18 -19 -21 -34 -17 -81 -24 -89
-23 -25 1 34 -1 65 -5 68 -19 19 -258 44 -351 37z m155 -490 c39 -13 68 -32
109 -73 65 -66 130 -187 130 -242 0 -32 -24 -102 -40 -118 -12 -12 -30 -51
-30 -65 0 -8 -4 -15 -10 -15 -5 0 -10 -8 -10 -19 0 -10 -7 -24 -16 -32 -25
-21 -77 -136 -70 -155 5 -14 20 -16 109 -12 112 4 137 16 151 72 6 25 5 26
-41 27 l-48 2 60 7 c46 6 63 13 75 31 23 35 102 111 150 144 39 27 49 29 156
33 127 5 173 -7 209 -54 10 -14 27 -35 37 -47 34 -39 75 -121 88 -175 24 -102
-2 -199 -89 -337 -32 -50 -48 -78 -77 -134 -13 -24 -34 -58 -47 -75 -13 -17
-42 -65 -65 -106 -69 -126 -210 -374 -219 -385 -5 -5 -19 -32 -32 -60 -13 -27
-38 -73 -57 -102 -19 -28 -34 -54 -34 -57 0 -4 -18 -33 -40 -65 -22 -32 -40
-62 -40 -67 -1 -16 -44 -61 -84 -88 -35 -24 -48 -26 -140 -26 -113 0 -188 20
-228 62 -79 80 -154 199 -170 268 -11 48 -11 48 46 152 32 56 58 112 59 123 1
11 13 30 28 42 14 12 26 28 27 35 1 7 3 24 4 38 l3 25 -104 3 -104 3 -45 -48
c-24 -26 -52 -64 -63 -84 -21 -42 -86 -102 -144 -131 -29 -16 -65 -22 -136
-26 -135 -6 -187 8 -240 65 -59 64 -111 181 -116 263 -6 77 11 119 126 319 39
68 71 130 71 138 0 7 4 13 9 13 7 0 104 164 219 370 14 25 36 62 49 82 12 21
23 41 23 45 0 3 6 14 14 22 8 9 38 61 67 116 29 55 59 107 67 115 8 8 25 37
38 65 12 27 41 69 63 93 l41 42 129 0 c95 0 143 -5 182 -17z"/>
<path d="M2587 4423 c-20 -3 -38 -20 -67 -63 -22 -32 -40 -62 -40 -65 0 -4
-13 -25 -28 -48 -16 -23 -39 -62 -52 -87 -13 -25 -29 -56 -36 -70 -8 -14 -14
-32 -14 -40 0 -8 -8 -20 -18 -27 -14 -8 -82 -123 -82 -137 0 -2 46 -4 102 -4
55 -1 103 -4 106 -7 3 -3 -45 -5 -106 -5 l-111 0 -20 -29 c-12 -16 -21 -32
-21 -36 0 -3 -15 -29 -33 -58 -18 -29 -40 -65 -49 -82 -9 -16 -44 -78 -79
-137 -95 -160 -219 -384 -219 -397 0 -14 86 -31 160 -31 104 0 130 13 165 85
15 30 31 58 36 61 25 15 1 24 -66 24 -43 0 -75 4 -75 10 0 6 35 10 84 10 l84
0 36 64 35 63 133 7 c73 4 296 7 496 7 l362 1 0 22 c0 12 -11 38 -25 58 -14
20 -25 41 -25 46 0 5 -7 15 -15 22 -8 7 -13 16 -10 20 2 4 -7 17 -20 30 -23
22 -34 23 -192 27 -96 3 -176 9 -187 16 -12 6 -88 12 -176 14 -85 2 -159 8
-163 12 -9 9 19 75 54 128 l21 33 -23 8 -23 9 25 8 c23 7 22 8 -11 16 -32 7
-31 8 12 5 l47 -3 26 51 c28 55 47 88 55 96 11 10 70 106 101 165 80 152 90
172 84 187 -9 22 -146 35 -238 21z"/>
<path d="M2848 4322 c-19 -26 -43 -61 -52 -78 -9 -16 -27 -47 -39 -69 -13 -22
-35 -60 -49 -85 -13 -25 -62 -108 -107 -185 -110 -187 -103 -172 -85 -179 9
-3 69 -6 134 -6 l118 0 25 33 c24 31 46 70 134 225 17 31 29 60 27 64 -3 5 1
8 8 8 18 0 62 99 60 134 -5 60 -92 186 -130 186 -4 0 -24 -22 -44 -48z"/>
<path d="M3485 3993 c-11 -2 -30 -6 -42 -9 -32 -6 -30 -49 4 -99 14 -22 29
-42 33 -45 3 -3 12 -18 18 -35 30 -71 41 -78 147 -83 154 -7 173 16 113 135
-39 77 -79 120 -126 133 -37 10 -108 12 -147 3z"/>
<path d="M3323 3908 c-11 -13 -34 -53 -51 -89 -17 -36 -38 -72 -47 -79 -19
-16 -20 -79 -1 -86 8 -3 12 -13 9 -22 -2 -10 7 -34 21 -55 14 -21 26 -41 26
-45 0 -4 11 -20 23 -36 28 -34 45 -31 76 13 21 29 21 30 2 28 -11 0 -17 -5
-14 -11 4 -5 -1 -7 -11 -3 -10 4 -27 7 -38 7 -37 0 -10 13 35 17 70 7 73 24 7
37 -14 2 -4 4 21 3 l46 -2 37 61 37 62 -28 56 c-25 51 -30 56 -61 56 -20 0
-31 4 -27 10 4 6 16 8 27 4 17 -5 20 -3 14 12 -14 37 -51 84 -67 84 -8 0 -25
-10 -36 -22z"/>
<path d="M3558 3673 c-20 -3 -37 -19 -62 -56 -59 -90 -113 -182 -120 -205 -14
-42 -29 -44 -422 -38 -206 3 -372 1 -369 -3 10 -17 -45 -21 -132 -11 -110 12
-103 13 -103 -5 0 -20 55 -131 88 -180 22 -32 33 -39 54 -37 14 2 32 -3 40
-11 11 -11 47 -16 140 -18 126 -4 158 -13 158 -45 0 -22 -39 -102 -94 -192
-57 -93 -72 -120 -81 -142 -3 -8 -14 -30 -25 -48 -16 -26 -19 -43 -14 -70 4
-21 8 -44 9 -52 2 -9 21 -43 43 -76 50 -76 73 -79 110 -14 14 25 36 59 48 75
12 17 25 40 29 53 3 12 10 22 15 22 4 0 15 17 25 38 9 20 37 69 62 107 25 39
79 128 121 199 43 72 83 132 90 134 23 7 12 -29 -30 -99 -57 -93 -75 -124
-111 -189 -17 -30 -35 -64 -41 -75 -6 -11 -28 -46 -49 -78 -20 -31 -37 -59
-37 -62 0 -4 -63 -108 -70 -115 -11 -11 -40 -82 -40 -99 0 -26 41 -38 134 -40
99 -2 127 9 169 68 34 47 42 62 106 186 20 39 49 90 64 115 16 25 47 74 69
109 22 35 49 82 60 105 10 22 35 66 53 96 19 30 35 61 35 68 0 7 13 32 28 55
16 23 43 68 61 100 17 32 38 65 46 74 8 8 15 20 15 28 0 13 -64 30 -79 20 -6
-3 -12 -1 -16 5 -4 6 16 10 55 10 59 0 61 1 75 33 7 17 22 41 33 53 24 25 81
143 84 174 2 18 -3 25 -22 31 -27 7 -157 9 -202 2z"/>
<path d="M2244 3268 c-26 -40 -61 -98 -78 -129 l-30 -56 21 -50 c30 -74 90
-163 109 -163 21 0 84 66 84 88 0 9 12 28 25 41 23 21 30 44 26 79 -1 6 2 12
7 12 20 0 0 60 -48 148 -29 50 -55 94 -60 97 -5 3 -30 -27 -56 -67z"/>
<path d="M1832 3048 c-7 -7 -12 -18 -12 -26 0 -22 52 -112 65 -112 6 0 28 18
50 40 53 54 58 42 6 -15 -45 -48 -49 -65 -25 -89 30 -31 58 -38 158 -43 87 -4
104 -2 123 14 l22 18 -30 60 c-17 33 -45 84 -62 113 l-31 52 -126 0 c-85 0
-130 -4 -138 -12z"/>
</g>
</svg>
