<?xml version="1.0" standalone="no"?>
<!DOCTYPE svg PUBLIC "-//W3C//DTD SVG 20010904//EN"
 "http://www.w3.org/TR/2001/REC-SVG-20010904/DTD/svg10.dtd">
<svg version="1.0" xmlns="http://www.w3.org/2000/svg"
 width="544.000000pt" height="544.000000pt" viewBox="0 0 544.000000 544.000000"
 preserveAspectRatio="xMidYMid meet">
<metadata>
Created by potrace 1.16, written by Peter Selinger 2001-2019
</metadata>
<g transform="translate(0.000000,544.000000) scale(0.100000,-0.100000)"
fill="#000000" stroke="none">
<path d="M0 4950 c0 -455 1 -490 18 -499 16 -10 16 -10 0 -11 -17 0 -18 -115
-18 -2220 l0 -2220 2720 0 2720 0 0 203 c0 145 -3 206 -12 215 -9 9 -9 12 0
12 18 0 17 1886 -1 1893 -9 4 -9 6 1 6 9 1 12 319 12 1556 l0 1555 -2105 0
c-1631 0 -2105 -3 -2105 -12 0 -9 -3 -9 -12 0 -9 9 -159 12 -615 12 l-603 0 0
-490z m3100 386 c144 -32 172 -40 291 -81 144 -50 433 -202 511 -269 12 -11
36 -29 53 -40 86 -59 250 -224 329 -331 33 -44 72 -97 88 -117 15 -20 28 -42
28 -47 0 -6 4 -11 9 -11 5 0 14 -15 22 -32 7 -18 20 -44 29 -58 34 -51 119
-258 143 -350 32 -119 43 -191 67 -410 14 -139 24 -189 45 -240 15 -36 42
-101 60 -145 18 -44 51 -119 74 -168 22 -48 41 -92 41 -97 0 -6 4 -18 10 -28
23 -40 83 -201 102 -271 15 -58 19 -96 15 -161 -8 -162 -55 -217 -245 -290
-88 -34 -117 -50 -127 -70 -20 -39 -44 -165 -75 -400 -52 -397 -82 -481 -202
-584 -80 -69 -168 -101 -370 -135 -60 -11 -115 -24 -120 -29 -10 -10 -25 -75
-58 -252 -48 -264 -60 -307 -97 -350 -51 -62 -28 -60 -1105 -60 -538 0 -997 3
-1020 6 -24 4 -55 13 -70 20 -38 19 -78 76 -78 109 0 27 -1 27 -13 10 -8 -10
-19 -15 -25 -11 -20 12 -13 36 13 46 20 8 25 16 25 44 0 19 12 97 26 173 15
76 30 158 34 183 4 25 15 79 23 120 8 41 18 100 22 130 4 30 10 75 15 98 12
66 12 260 0 338 -15 100 -54 200 -105 269 -83 114 -104 140 -137 175 -33 36
-72 83 -125 152 -123 160 -164 222 -234 358 -55 107 -53 102 -135 337 -18 52
-29 103 -54 263 -45 273 -11 685 71 885 5 11 16 47 25 80 9 33 47 120 85 195
90 180 173 303 292 436 20 22 37 49 37 57 0 9 11 19 24 23 14 3 32 14 42 25
16 17 16 19 1 19 -10 0 -17 5 -17 11 0 6 10 9 23 7 13 -2 28 0 35 6 6 6 17 16
24 21 143 116 282 205 413 266 151 70 196 89 208 89 7 0 17 4 23 9 17 16 241
72 365 91 185 29 507 22 669 -14z"/>
<path d="M2550 5284 c-127 -12 -355 -58 -374 -75 -6 -5 -18 -9 -28 -9 -22 0
-180 -60 -255 -97 -38 -18 -53 -31 -53 -45 0 -17 -5 -19 -26 -15 -43 8 -157
-65 -325 -208 -115 -98 -238 -227 -221 -233 7 -2 12 -12 12 -22 0 -22 -22 -39
-28 -22 -6 18 -32 14 -32 -4 0 -9 -9 -26 -21 -38 -33 -34 -79 -98 -79 -111 0
-6 -8 -19 -18 -29 -24 -21 -124 -223 -150 -301 -80 -243 -102 -361 -109 -590
-4 -115 -1 -218 6 -285 15 -125 75 -372 102 -418 10 -18 19 -39 19 -47 0 -35
128 -282 166 -319 8 -9 13 -16 9 -16 -13 0 91 -136 227 -297 43 -51 78 -95 78
-98 0 -3 22 -33 48 -68 108 -139 150 -261 165 -482 4 -58 -16 -269 -39 -400
-8 -49 -19 -119 -24 -155 -5 -36 -14 -81 -19 -100 -5 -19 -17 -73 -26 -120 -9
-47 -21 -104 -26 -127 -22 -100 -6 -136 68 -154 57 -13 1994 -12 2029 2 16 5
36 18 44 27 16 17 39 115 65 282 53 337 61 353 180 366 80 8 213 31 250 43
171 53 271 174 289 349 4 35 13 107 21 160 8 53 17 117 20 142 3 25 10 68 15
95 5 28 12 77 15 110 8 83 29 169 49 200 19 28 89 65 181 93 99 31 140 62 165
129 21 54 22 64 11 149 -13 112 -56 228 -251 679 -68 158 -78 194 -90 317 -18
186 -22 222 -35 304 -22 128 -103 356 -165 461 -21 36 -28 41 -51 36 -15 -3
-30 0 -33 6 -4 6 -4 11 1 11 4 0 16 7 27 15 17 13 16 17 -26 72 -24 32 -51 69
-60 83 -8 14 -28 37 -43 52 -15 15 -41 47 -58 71 -29 40 -66 76 -222 216 -158
141 -501 311 -755 375 -111 28 -488 52 -620 40z m230 -214 c0 -5 3 -9 8 -8 41
10 369 -47 437 -76 17 -7 75 -30 130 -51 89 -34 117 -48 190 -92 219 -132 299
-197 462 -376 28 -31 56 -57 61 -57 5 0 13 -11 16 -25 4 -14 26 -54 50 -89 53
-77 127 -227 156 -316 12 -36 27 -71 33 -79 6 -7 10 -25 9 -40 -2 -14 3 -56
11 -92 8 -36 15 -99 16 -140 6 -223 19 -279 108 -484 49 -114 48 -110 93 -220
23 -55 52 -118 63 -140 30 -57 67 -174 67 -212 0 -46 -46 -94 -122 -127 -79
-34 -96 -41 -134 -56 -46 -17 -81 -59 -93 -110 -12 -52 -43 -253 -66 -425 -8
-66 -20 -145 -25 -175 -5 -30 -14 -88 -20 -128 -16 -118 -59 -181 -152 -222
-38 -17 -68 -21 -161 -21 -179 -1 -202 3 -547 95 -74 20 -142 39 -150 43 -8 3
-20 7 -26 8 -7 2 -65 19 -130 39 -66 20 -150 46 -189 57 -138 41 -160 51 -212
96 -29 24 -79 82 -111 126 -66 92 -96 114 -136 96 -56 -26 -56 -120 2 -238 33
-69 106 -156 176 -209 43 -34 294 -123 386 -137 25 -4 102 -29 172 -57 93 -36
143 -63 190 -100 35 -28 67 -58 72 -67 5 -9 12 -18 15 -21 4 -3 17 -36 30 -73
21 -60 23 -81 19 -183 -4 -109 -6 -116 -31 -142 l-27 -27 -773 -3 c-719 -2
-774 -1 -807 15 l-35 18 1 75 c1 41 11 131 23 200 12 69 29 168 36 220 19 126
19 435 0 515 -24 106 -47 182 -63 211 -6 10 -24 48 -40 84 -31 67 -99 165
-160 228 -47 49 -110 120 -147 167 -16 21 -51 63 -77 94 -26 31 -56 72 -65 91
-10 19 -20 37 -23 40 -3 3 -31 61 -63 130 -33 69 -63 133 -68 143 -18 35 -59
208 -74 314 -8 59 -15 177 -15 263 0 146 3 182 31 330 16 85 51 212 66 244 8
16 12 39 8 53 -4 19 -1 26 12 30 10 2 35 39 58 86 22 45 43 84 46 87 3 3 18
27 32 54 14 27 39 65 56 85 16 20 45 55 64 78 43 52 190 191 237 223 19 14 48
36 63 50 16 14 59 42 95 62 75 42 239 126 250 129 9 2 37 13 84 33 66 28 350
87 451 93 54 3 100 10 103 15 7 11 54 10 54 -2z"/>
<path d="M2736 4962 l-88 -3 6 -47 5 -47 -21 49 -22 48 -55 -6 c-69 -7 -94
-12 -148 -24 -23 -5 -45 -7 -49 -3 -4 3 -4 -14 -1 -39 l6 -44 -21 33 c-25 39
-30 39 -168 -12 -98 -35 -160 -66 -160 -79 0 -5 -8 -8 -18 -8 -9 0 -48 -18
-86 -40 -37 -22 -72 -40 -77 -40 -5 0 -9 -4 -9 -10 0 -5 -15 -20 -33 -32 -78
-53 -217 -179 -217 -196 0 -5 12 -19 26 -33 14 -13 30 -33 36 -44 6 -11 -10 0
-35 24 l-46 44 -28 -34 c-15 -18 -36 -41 -45 -51 -10 -10 -15 -18 -12 -18 3 0
-11 -19 -30 -42 -20 -23 -36 -50 -36 -60 0 -10 -5 -18 -10 -18 -6 0 -15 -12
-20 -26 -6 -15 -20 -40 -31 -56 -21 -28 -21 -30 -3 -50 19 -21 19 -21 -7 -15
-25 6 -28 3 -66 -96 -36 -92 -39 -104 -25 -119 15 -18 11 -22 -18 -19 -10 1
-16 -7 -17 -21 -1 -13 -4 -32 -7 -44 -4 -16 3 -25 32 -43 l37 -22 -47 7 -48 6
0 -38 c0 -22 -5 -59 -11 -84 -12 -52 -19 -182 -12 -211 4 -12 14 -19 32 -20
14 0 35 -4 46 -9 15 -6 8 -9 -28 -9 l-47 -1 6 -82 c4 -46 10 -87 15 -92 5 -5
36 -8 71 -7 78 3 71 -9 -9 -14 -55 -3 -58 -5 -61 -30 -5 -36 27 -152 45 -167
13 -10 70 -3 147 19 11 3 16 1 12 -5 -3 -5 -23 -13 -43 -16 -21 -4 -53 -12
-72 -18 -31 -9 -33 -13 -28 -43 3 -18 26 -75 50 -126 25 -52 47 -98 49 -104 8
-23 70 -115 78 -115 5 0 11 -9 15 -20 5 -16 10 -17 31 -10 29 11 31 0 4 -25
-19 -17 -19 -18 33 -70 28 -29 61 -65 72 -81 11 -16 38 -49 61 -74 22 -25 52
-58 65 -74 13 -16 29 -34 34 -40 6 -6 21 -28 34 -48 12 -21 27 -38 32 -38 5 0
9 -9 9 -19 0 -11 4 -22 9 -26 20 -12 75 -142 88 -208 3 -15 9 -27 13 -27 4 0
10 -10 13 -22 l6 -22 24 22 c36 34 39 26 11 -28 -14 -27 -23 -54 -19 -59 9
-16 26 -166 29 -261 3 -80 -9 -237 -34 -430 -6 -47 -15 -114 -19 -150 -10 -79
-2 -111 30 -127 16 -8 118 -12 319 -13 423 -3 390 -5 391 28 1 26 1 26 8 3 7
-27 42 -44 53 -27 4 6 9 58 10 116 l1 105 7 -110 c4 -60 8 -112 9 -114 0 -2
129 -2 286 0 l284 4 23 25 c21 22 23 33 21 104 -2 54 -8 85 -18 96 -8 9 -15
22 -15 29 0 22 -48 61 -77 61 -25 1 -26 2 -10 11 18 11 18 11 0 28 -52 48
-193 101 -465 177 -9 3 -21 -3 -27 -13 -9 -16 -10 -16 -19 8 -7 18 -22 29 -54
38 -48 14 -168 81 -168 93 0 4 -4 8 -10 8 -12 0 -116 103 -122 121 -3 9 -11 2
-22 -18 -9 -18 -18 -33 -20 -33 -2 0 -3 31 -2 68 0 39 -4 75 -11 83 -23 29
-53 139 -53 199 0 111 50 164 152 161 88 -2 124 -26 183 -116 42 -66 115 -141
146 -150 13 -4 31 -13 39 -20 8 -7 24 -15 35 -18 78 -21 215 -62 295 -87 459
-143 566 -170 705 -176 90 -4 116 -3 103 6 -20 12 -24 45 -8 55 6 3 19 3 30 0
15 -5 19 -12 14 -29 -5 -22 -4 -23 33 -17 46 9 90 36 98 60 7 22 -3 51 -18 51
-6 0 -8 3 -4 6 3 4 0 22 -9 42 -19 46 -13 50 20 11 37 -44 44 -29 12 27 -33
59 -33 74 0 35 14 -17 30 -29 35 -25 15 9 -1 57 -29 87 -14 15 -21 27 -15 27
6 0 16 -7 23 -15 7 -8 18 -15 26 -15 15 0 22 19 28 85 3 28 10 85 16 129 l11
79 -42 43 c-50 51 -44 58 12 13 40 -31 54 -22 24 17 -20 27 -19 37 5 31 16 -4
20 0 21 21 2 55 11 102 35 184 3 9 -8 32 -27 52 -32 37 -29 47 5 21 28 -21 34
-19 57 20 17 28 42 45 127 86 59 28 114 54 122 58 28 14 44 61 32 95 -49 143
-58 161 -87 175 l-30 15 25 7 c22 5 23 7 7 14 -10 4 -16 13 -14 20 3 6 -1 25
-8 41 -8 16 -39 90 -70 164 -31 74 -66 142 -77 151 -14 11 -19 23 -16 37 4 12
1 40 -4 62 -9 35 -14 40 -39 40 -39 0 -45 16 -8 24 29 6 30 7 25 48 -3 24 -8
85 -11 137 -4 52 -10 115 -15 140 -4 25 -6 49 -3 53 2 5 -10 11 -28 15 -30 6
-31 7 -11 14 12 5 22 14 22 21 -1 44 -55 188 -71 188 -4 0 -20 -5 -36 -10
l-28 -10 28 23 c33 28 33 36 4 92 l-23 43 -52 -30 c-61 -35 -70 -22 -12 19 23
16 40 36 40 47 0 17 -42 89 -61 106 -3 3 -8 12 -11 20 -11 25 -98 131 -114
137 -9 3 -26 -6 -42 -23 -15 -16 -36 -36 -46 -44 -18 -14 -19 -13 -10 2 5 9
26 35 47 57 l38 42 -47 44 c-26 25 -53 45 -60 45 -7 0 -16 9 -19 20 -3 11 -12
20 -20 20 -7 0 -15 7 -19 15 -8 22 -26 18 -58 -12 -30 -29 -36 -22 -13 17 17
29 19 54 5 45 -5 -3 -10 -1 -10 5 0 6 -4 8 -10 5 -5 -3 -10 -2 -10 2 0 10
-193 122 -265 154 -27 12 -58 25 -67 30 -10 5 -36 13 -58 18 -33 7 -42 6 -47
-5 -9 -23 -23 -16 -23 11 0 14 -3 24 -7 23 -5 0 -16 2 -25 6 -27 12 -47 0 -53
-31 -3 -15 -10 -41 -15 -58 -8 -26 -9 -23 -9 25 1 84 0 88 -15 61 -9 -17 -15
-20 -21 -11 -4 7 -2 16 5 20 18 11 4 16 -80 29 -106 17 -106 17 -204 13z m152
-506 c63 -35 116 -96 166 -189 41 -78 46 -125 19 -184 -10 -21 -20 -40 -23
-43 -12 -12 -30 -51 -30 -65 0 -8 -4 -15 -10 -15 -5 0 -10 -8 -10 -18 0 -11
-9 -27 -19 -36 -26 -24 -73 -122 -69 -143 3 -16 16 -18 108 -18 116 0 140 11
154 68 6 26 5 27 -41 28 l-48 2 60 7 c46 6 63 13 75 31 23 35 102 111 150 144
39 27 49 29 156 33 95 4 122 2 155 -13 21 -10 39 -21 39 -24 0 -3 17 -24 37
-46 55 -61 80 -107 98 -176 30 -113 7 -210 -84 -354 -32 -50 -48 -78 -77 -134
-13 -24 -36 -60 -51 -80 -15 -20 -48 -74 -74 -121 -74 -138 -202 -365 -208
-370 -4 -3 -20 -32 -36 -65 -16 -33 -42 -79 -57 -101 -16 -23 -28 -45 -28 -48
0 -3 -18 -33 -40 -65 -22 -32 -40 -63 -40 -68 0 -18 -72 -85 -106 -99 -20 -9
-70 -14 -126 -14 -105 0 -181 21 -220 62 -78 80 -161 213 -173 278 -5 29 0 48
31 105 76 144 83 159 77 168 -3 5 5 16 17 24 12 9 29 31 37 51 12 29 12 37 1
48 -11 11 -101 19 -176 15 -29 -1 -87 -58 -136 -133 -71 -109 -166 -158 -302
-158 -118 0 -167 15 -211 63 -63 68 -113 177 -120 257 -5 58 -2 78 17 122 23
54 90 177 166 305 24 40 63 107 87 150 24 43 85 149 135 237 51 87 92 161 92
164 0 3 6 13 14 21 8 9 33 52 57 96 23 44 55 99 71 122 15 23 37 61 47 85 11
24 38 63 60 86 l40 44 148 -4 c142 -3 150 -4 201 -32z"/>
<path d="M2583 4423 c-24 -5 -56 -43 -98 -118 -15 -27 -35 -61 -44 -75 -10
-14 -28 -45 -41 -70 -13 -25 -29 -56 -36 -70 -8 -14 -14 -32 -14 -40 0 -8 -9
-21 -20 -27 -11 -7 -29 -33 -40 -57 -11 -25 -24 -48 -30 -51 -5 -3 -10 -12
-10 -19 0 -10 26 -13 102 -14 55 -1 104 -5 107 -8 3 -3 -46 -4 -110 -2 -116 3
-117 3 -127 -22 -6 -14 -19 -38 -29 -55 -10 -16 -36 -61 -58 -100 -21 -38 -53
-93 -71 -121 -36 -56 -56 -92 -99 -174 -16 -30 -34 -62 -41 -70 -14 -18 -104
-191 -104 -199 0 -14 86 -31 160 -31 104 0 130 13 165 85 15 30 31 58 36 61
25 15 1 24 -68 24 -42 0 -73 3 -69 8 10 9 12 9 95 11 l69 1 37 65 c39 70 28
65 140 70 22 1 230 3 463 4 407 3 422 4 422 22 0 23 -50 121 -67 132 -7 4 -13
14 -13 21 0 7 -9 21 -21 32 -18 16 -41 19 -187 22 -99 2 -174 8 -186 15 -13 6
-85 13 -176 15 -85 1 -159 7 -163 11 -9 9 19 77 53 126 31 46 27 73 -12 78
-32 4 -32 4 5 5 20 1 37 -3 37 -9 0 -20 18 1 44 53 29 57 48 90 56 98 11 10
70 106 101 165 109 206 109 199 11 209 -71 6 -133 6 -169 -1z"/>
<path d="M2849 4323 c-30 -42 -66 -100 -146 -243 -11 -19 -61 -104 -112 -189
-66 -112 -87 -157 -78 -163 15 -10 248 -10 263 0 9 6 32 43 102 162 11 19 35
62 53 95 17 33 35 62 39 65 13 10 54 105 52 124 -4 63 -90 195 -127 196 -6 0
-27 -21 -46 -47z"/>
<path d="M3455 3991 c-41 -9 -45 -46 -9 -103 15 -24 30 -45 35 -48 4 -3 10
-16 14 -30 3 -14 17 -38 30 -55 23 -28 28 -30 121 -33 153 -6 172 17 112 135
-39 77 -79 120 -126 133 -40 11 -129 11 -177 1z"/>
<path d="M3323 3908 c-28 -31 -45 -66 -38 -78 3 -6 1 -10 -5 -10 -6 0 -16 -12
-22 -27 -7 -16 -20 -36 -30 -46 -19 -19 -25 -82 -8 -92 6 -3 10 -17 10 -29 0
-13 10 -36 22 -52 13 -15 30 -42 39 -58 28 -52 46 -56 80 -17 16 19 26 37 24
40 -3 2 -10 0 -15 -5 -12 -12 -70 -6 -70 7 0 4 21 9 48 11 53 3 64 21 14 26
-18 2 -30 7 -27 11 2 5 22 5 43 1 l38 -7 37 63 38 62 -28 56 c-25 52 -30 56
-62 56 -35 0 -34 15 2 22 16 3 15 7 -10 46 -31 47 -50 52 -80 20z"/>
<path d="M3558 3673 c-20 -3 -37 -19 -62 -56 -59 -90 -113 -182 -120 -205 -14
-43 -29 -45 -428 -39 -208 4 -376 2 -373 -2 10 -17 -28 -21 -122 -11 -53 6
-98 8 -101 5 -9 -9 41 -123 78 -177 30 -44 40 -52 68 -53 18 -1 38 -7 44 -13
8 -8 48 -12 108 -12 200 0 208 -10 130 -157 -29 -54 -68 -121 -86 -149 -19
-28 -34 -58 -34 -67 0 -9 -4 -18 -9 -22 -23 -13 -41 -69 -35 -104 4 -20 8 -43
9 -51 2 -9 21 -43 43 -76 51 -77 72 -80 109 -16 15 26 37 61 49 77 12 17 25
40 29 53 3 12 10 22 15 22 4 0 15 17 25 38 9 20 37 69 62 107 25 39 79 128
121 199 43 72 83 132 90 134 24 7 11 -30 -38 -109 -27 -44 -50 -82 -50 -84 0
-2 -22 -43 -50 -91 -27 -48 -50 -88 -50 -90 0 -1 -18 -30 -40 -63 -22 -33 -40
-62 -40 -65 0 -6 -63 -109 -71 -116 -8 -8 -39 -89 -39 -104 0 -21 48 -33 142
-35 65 -2 93 2 112 14 36 24 84 97 161 249 19 38 41 77 49 85 7 9 24 36 36 61
12 25 28 52 35 60 7 8 29 44 47 80 19 36 49 88 66 115 18 28 35 61 39 75 3 14
18 43 33 65 15 22 41 66 59 98 17 32 38 65 46 74 8 8 15 20 15 28 0 13 -64 30
-79 20 -6 -3 -12 -1 -16 5 -4 6 16 10 55 10 59 0 61 1 75 33 7 17 22 41 33 53
24 25 81 143 84 174 2 18 -3 25 -22 31 -27 7 -157 9 -202 2z"/>
<path d="M2245 3269 c-26 -41 -62 -99 -79 -130 l-30 -55 17 -45 c25 -66 94
-169 113 -169 21 0 84 66 84 88 0 9 12 28 25 41 21 19 32 51 23 64 -2 2 3 11
10 20 17 20 8 55 -35 130 -18 32 -33 62 -33 65 0 4 -11 20 -23 36 l-24 29 -48
-74z"/>
<path d="M1832 3048 c-19 -19 -14 -44 19 -99 l32 -51 48 48 c59 58 65 49 9
-12 -44 -47 -48 -64 -24 -88 31 -32 61 -40 159 -43 85 -3 103 -1 122 14 l22
18 -30 60 c-17 33 -45 84 -62 113 l-31 52 -126 0 c-85 0 -130 -4 -138 -12z"/>
</g>
</svg>
