<?xml version="1.0" standalone="no"?>
<!DOCTYPE svg PUBLIC "-//W3C//DTD SVG 20010904//EN"
 "http://www.w3.org/TR/2001/REC-SVG-20010904/DTD/svg10.dtd">
<svg version="1.0" xmlns="http://www.w3.org/2000/svg"
 width="544.000000pt" height="544.000000pt" viewBox="0 0 544.000000 544.000000"
 preserveAspectRatio="xMidYMid meet">
<metadata>
Created by potrace 1.16, written by Peter Selinger 2001-2019
</metadata>
<g transform="translate(0.000000,544.000000) scale(0.100000,-0.100000)"
fill="#000000" stroke="none">
<path d="M0 4178 l0 -1263 182 0 c143 0 188 -3 208 -15 14 -8 41 -20 60 -27
40 -14 190 -18 190 -4 0 5 15 9 34 9 43 0 96 38 96 68 0 13 4 34 10 48 7 20 6
24 -6 19 -10 -4 -12 0 -8 11 3 8 1 93 -5 188 -22 337 -21 350 41 637 22 100
85 298 120 371 11 25 22 59 23 75 1 17 12 46 24 65 12 19 24 46 27 60 6 23 79
121 96 128 5 2 8 8 8 14 0 6 26 38 58 72 257 272 444 418 682 532 206 99 215
105 228 145 7 21 12 59 12 84 l0 45 -1040 0 -1040 0 0 -1262z"/>
<path d="M2290 5434 c0 -3 5 -14 10 -24 23 -43 41 -45 365 -46 284 0 318 -2
410 -23 124 -28 302 -77 352 -97 124 -49 328 -153 392 -198 24 -17 51 -35 60
-41 9 -5 37 -28 63 -50 26 -22 77 -65 114 -95 120 -99 285 -293 365 -430 18
-30 46 -68 62 -84 39 -36 82 -31 142 18 29 25 66 42 121 56 84 23 69 24 254
-11 75 -15 207 -6 280 17 33 10 68 31 87 51 l33 33 -25 0 c-28 0 -35 19 -7 21
9 1 21 1 25 0 4 -1 17 3 27 9 19 10 20 24 20 455 l0 445 -1575 0 c-866 0
-1575 -3 -1575 -6z"/>
<path d="M2635 5279 c-16 -5 -48 -8 -70 -7 -55 2 -105 -21 -105 -49 0 -12 -6
-23 -12 -26 -9 -3 -7 -11 8 -27 24 -25 44 -20 44 11 0 34 43 21 51 -16 4 -16
8 -23 9 -15 1 9 6 5 11 -10 6 -19 8 -12 5 26 -3 27 -1 56 3 62 8 14 41 6 41
-10 0 -5 4 -7 9 -3 5 3 18 -6 29 -20 17 -21 21 -22 26 -9 11 28 36 -4 36 -46
0 -30 5 -39 25 -48 46 -21 62 -15 69 23 8 43 36 48 37 8 0 -16 3 -22 6 -15 2
6 16 12 29 12 18 0 24 -5 24 -22 0 -36 11 -43 80 -55 124 -23 215 -44 308 -74
51 -16 102 -29 115 -29 12 0 40 -11 61 -25 l39 -24 38 22 c32 19 42 20 59 10
27 -18 77 -16 84 2 3 8 12 15 21 15 10 0 15 10 15 32 0 17 -3 29 -6 25 -3 -3
-11 -2 -18 3 -78 64 -135 95 -291 161 -119 49 -237 86 -320 99 -33 5 -87 14
-120 19 -73 13 -299 13 -340 0z"/>
<path d="M2005 5143 c-16 -2 -46 -11 -65 -20 -43 -19 -225 -118 -261 -141 -59
-39 -86 -58 -117 -87 -19 -16 -41 -34 -50 -39 -10 -5 -37 -28 -62 -50 -109
-99 -133 -133 -144 -209 -3 -27 -1 -37 7 -34 7 2 13 20 15 40 2 20 6 37 9 37
3 0 22 -17 43 -39 20 -21 51 -44 69 -52 17 -8 31 -17 31 -21 0 -5 8 0 18 10
67 64 112 102 121 102 13 0 8 17 -19 72 -23 46 -22 74 2 50 19 -19 33 -14 15
6 -26 29 -22 43 9 32 33 -13 45 -5 42 28 -2 15 2 27 9 27 6 0 15 3 19 8 4 4
16 7 27 7 14 0 18 5 14 20 -5 20 2 24 38 20 37 -4 44 -6 51 -13 4 -4 15 0 25
9 11 10 19 12 24 5 3 -6 15 -11 26 -11 10 0 20 -6 20 -12 1 -7 4 0 8 17 5 23
13 31 39 36 24 5 32 3 32 -8 0 -19 21 -12 34 13 6 10 13 21 16 24 19 16 60
103 60 123 0 57 -12 62 -105 50z"/>
<path d="M2903 4920 c-3 -11 -9 -20 -14 -20 -5 0 -9 -13 -9 -29 0 -16 -5 -31
-10 -33 -6 -2 -14 -29 -17 -61 -4 -43 -11 -60 -25 -68 -18 -10 -19 -18 -13
-90 5 -55 4 -79 -4 -79 -10 0 -16 41 -13 80 1 8 2 45 3 82 0 37 5 70 10 73 11
7 12 115 1 115 -10 0 -52 -131 -52 -162 0 -24 -16 -48 -32 -48 -4 0 -8 15 -8
33 0 38 -14 65 -24 48 -4 -6 -4 -16 0 -23 5 -7 7 -29 5 -49 -2 -38 22 -62 33
-33 7 19 32 18 40 -2 7 -20 -1 -34 -19 -34 -20 0 -31 -68 -14 -85 17 -16 113
-45 151 -45 18 0 28 -5 28 -15 0 -21 13 -19 28 5 7 12 17 18 23 14 7 -4 5 -12
-5 -23 -18 -20 -11 -57 17 -86 33 -35 92 -129 107 -170 19 -57 14 -89 -24
-155 -19 -31 -37 -68 -41 -81 -4 -13 -16 -36 -26 -51 -11 -14 -19 -29 -19 -32
0 -4 -9 -16 -19 -27 -10 -11 -24 -39 -29 -62 -9 -34 -8 -43 6 -54 20 -15 148
-18 157 -3 3 6 15 10 26 10 11 0 28 14 39 32 22 37 15 47 -35 49 -20 1 -12 5
25 11 59 11 90 31 90 58 0 10 9 29 20 43 11 14 20 34 20 46 0 27 55 77 113
103 26 11 47 26 47 32 0 19 39 38 57 27 22 -12 56 1 115 47 51 38 54 56 19 95
-15 18 -14 20 4 35 11 10 25 29 32 44 l12 27 -37 -16 c-40 -17 -100 -63 -82
-63 7 0 5 -6 -4 -16 -9 -8 -16 -22 -16 -29 0 -8 -5 -17 -11 -21 -8 -5 -10 11
-7 55 2 33 1 61 -4 61 -12 0 -48 -62 -48 -82 0 -10 -4 -18 -10 -18 -19 0 -10
37 20 79 18 25 35 39 42 35 6 -4 4 3 -4 15 -9 12 -13 32 -10 43 4 16 2 19 -9
13 -31 -18 -59 -49 -59 -67 0 -10 -7 -18 -16 -18 -10 0 -14 7 -12 23 2 12 9
22 15 22 14 0 57 74 48 83 -3 3 -20 -9 -38 -26 -18 -18 -36 -29 -40 -26 -4 4
-7 2 -7 -4 0 -22 -20 -12 -31 14 -7 21 -6 31 6 44 17 18 20 40 6 40 -5 0 -11
-9 -14 -20 -8 -30 -24 -24 -32 10 -4 17 -11 28 -16 24 -5 -3 -9 3 -9 12 0 15
-3 15 -24 -5 -23 -22 -23 -22 -29 -2 -3 12 -1 24 4 27 5 3 9 10 9 16 0 5 -9 0
-20 -13 -19 -23 -19 -23 -20 -3 0 11 6 26 13 33 10 10 9 11 -5 6 -26 -10 -23
21 7 81 38 76 30 144 -19 144 -19 0 -25 -8 -35 -54 -6 -29 -11 -57 -10 -62 7
-30 -30 -117 -47 -110 -12 5 -24 -14 -24 -39 0 -7 13 -1 31 16 31 29 59 38 59
19 0 -5 -10 -15 -22 -21 -35 -19 -48 -41 -42 -71 3 -15 0 -29 -7 -34 -9 -5
-10 -2 -6 10 8 21 -18 54 -26 33 -3 -6 -6 13 -6 44 -1 44 4 62 24 89 14 19 25
42 25 52 0 11 7 33 17 51 18 37 19 107 0 119 -6 4 -24 8 -39 8 -23 0 -27 -6
-38 -50 -17 -73 -30 -71 -23 3 l6 64 -33 6 c-18 4 -50 7 -72 7 -31 0 -41 -4
-45 -20z"/>
<path d="M3822 4894 c-12 -8 -22 -26 -22 -39 0 -13 -4 -26 -9 -30 -16 -10 -8
-45 11 -45 22 0 27 -10 18 -34 -13 -38 4 -68 86 -153 46 -48 84 -90 84 -94 0
-8 63 -39 79 -39 6 0 11 -8 11 -18 0 -10 11 -25 25 -32 17 -9 25 -22 25 -41 0
-14 7 -40 15 -55 8 -16 15 -25 15 -21 0 5 14 -3 31 -17 17 -14 40 -26 51 -26
12 0 29 -7 38 -15 13 -12 26 -13 56 -7 l39 8 -2 48 c-1 33 -12 68 -34 110 -44
84 -190 265 -291 361 -91 88 -168 151 -168 139 0 -4 -5 -3 -12 4 -15 15 -19
15 -46 -4z"/>
<path d="M2027 4743 c3 -16 24 -50 45 -77 55 -69 79 -120 76 -161 -3 -45 -19
-40 -39 14 -8 23 -34 61 -57 84 l-43 42 17 -40 c9 -22 20 -44 25 -49 5 -6 9
-20 9 -32 0 -12 7 -24 15 -28 9 -3 15 -18 15 -37 0 -31 0 -32 -20 -14 -19 17
-19 19 -2 32 16 13 15 14 -5 8 -13 -4 -23 -2 -23 3 0 5 -11 8 -25 7 -13 -2
-29 3 -36 11 -6 8 -19 14 -28 14 -11 -1 -7 -8 14 -25 22 -18 25 -25 13 -25 -9
0 -18 -4 -20 -10 -4 -13 -48 0 -48 14 0 22 -46 53 -87 58 -36 5 -40 4 -39 -16
1 -18 7 -21 41 -21 36 0 40 -3 43 -27 4 -34 28 -56 44 -40 7 7 21 12 31 12 16
0 17 -2 7 -15 -7 -9 -19 -14 -27 -11 -9 4 -13 -4 -13 -24 0 -17 5 -30 10 -30
6 0 10 -4 10 -10 0 -20 -26 -10 -52 20 -15 18 -28 25 -30 18 -7 -20 -25 0 -32
36 -7 39 -23 48 -66 39 -19 -3 -36 0 -47 8 -15 13 -16 11 -9 -13 9 -37 -8 -36
-36 2 -28 38 -43 38 -63 0 -12 -23 -13 -35 -5 -50 9 -17 7 -26 -15 -51 -14
-17 -23 -35 -19 -40 8 -13 -10 -11 -26 4 -7 6 1 -6 18 -29 17 -22 38 -47 47
-54 16 -13 21 -40 6 -40 -5 0 -16 11 -25 25 -13 20 -25 25 -56 25 -44 0 -48
-5 -24 -31 22 -24 8 -42 -27 -35 -27 5 -29 4 -19 -14 6 -11 19 -20 28 -20 10
0 27 -6 37 -14 18 -13 18 -14 -5 -45 -12 -18 -31 -36 -42 -40 -19 -7 -19 -8 2
-34 29 -37 10 -34 -47 7 -55 39 -113 69 -119 63 -5 -5 69 -74 106 -99 l25 -17
-30 0 c-16 0 -39 6 -49 14 -31 23 -47 19 -40 -10 5 -21 3 -25 -15 -25 -12 0
-21 -6 -21 -14 0 -8 -12 -24 -27 -35 -27 -20 -27 -21 -9 -36 17 -13 17 -15 3
-21 -16 -6 -12 -33 7 -46 19 -13 25 -9 28 20 2 17 8 26 17 24 8 -2 17 2 21 9
6 8 9 8 14 0 4 -6 2 -11 -4 -11 -8 0 -8 -6 0 -20 9 -16 8 -20 -5 -20 -20 0
-19 -16 3 -30 17 -10 -10 -9 -90 6 -14 3 -29 0 -33 -5 -4 -7 4 -11 18 -11 14
0 30 -7 37 -15 11 -13 7 -15 -28 -15 -27 0 -42 -5 -46 -16 -10 -26 -7 -31 32
-50 l37 -19 -32 -3 -33 -3 28 -25 27 -26 -32 6 c-18 3 -35 1 -38 -4 -7 -11 27
-30 54 -30 11 0 25 -10 32 -21 11 -21 10 -22 -22 -15 -19 4 -51 10 -72 13 -34
5 -37 4 -30 -13 9 -24 23 -34 51 -34 21 0 26 -10 25 -47 -1 -8 11 -13 28 -13
16 0 29 -4 29 -9 0 -15 -29 -21 -75 -14 -30 4 -45 2 -45 -5 0 -11 60 -32 92
-32 9 0 20 -5 24 -11 5 -9 -9 -10 -50 -5 -55 7 -56 7 -54 -18 1 -14 4 -23 6
-21 8 8 62 -18 62 -29 0 -7 -7 -21 -15 -32 -8 -10 -15 -32 -15 -47 0 -28 1
-28 46 -21 58 8 53 -10 -6 -26 -28 -8 -40 -16 -40 -29 0 -16 11 -20 76 -26 69
-6 75 -8 72 -28 -1 -12 1 -28 5 -35 6 -8 -1 -14 -24 -19 -30 -6 -31 -7 -14
-20 11 -7 36 -13 57 -13 21 0 38 -4 38 -10 0 -5 -5 -10 -11 -10 -7 0 0 -11 15
-25 15 -14 38 -25 52 -25 17 0 24 -6 24 -19 0 -22 19 -31 66 -31 20 0 33 -4
30 -9 -6 -10 37 -31 64 -31 10 0 22 -4 25 -10 9 -14 78 -13 93 2 17 17 15 85
-4 159 -32 123 -8 217 91 369 42 64 65 114 65 142 0 14 5 18 16 14 12 -4 14
-1 9 13 -4 14 0 23 15 31 11 6 20 18 20 26 0 8 4 13 9 9 15 -9 24 60 12 83
-17 33 -13 37 12 13 28 -26 31 -24 76 69 18 36 49 92 71 125 21 33 39 66 39
73 1 6 6 12 11 12 6 0 10 7 10 15 0 15 21 55 64 124 15 22 26 52 26 66 0 17 7
29 23 35 12 5 18 9 12 10 -5 0 -4 4 3 9 20 12 30 71 19 104 -11 32 -3 47 15
29 20 -20 31 -13 25 17 -4 21 -1 34 13 46 11 10 17 22 13 27 -3 6 1 14 8 19
19 12 -3 26 -56 35 -74 12 -113 39 -126 86 -6 24 -20 61 -30 84 -10 23 -19 49
-19 58 0 9 -8 16 -20 16 -14 0 -20 -7 -20 -24 0 -19 -4 -23 -20 -19 -23 6 -26
-13 -6 -39 10 -13 15 -15 24 -6 9 9 12 2 12 -29 0 -68 -28 -66 -51 3 -8 22
-18 41 -24 41 -9 1 -43 52 -61 91 -11 23 -24 12 -17 -15z"/>
<path d="M2865 4329 c-9 -17 -14 -37 -11 -45 3 -7 -3 -19 -14 -27 -19 -13 -40
-56 -40 -81 0 -10 14 -12 51 -8 37 3 50 2 45 -7 -4 -6 -28 -11 -52 -11 -32 0
-44 -4 -42 -12 3 -7 14 -14 26 -16 26 -4 30 -22 5 -23 -13 0 -11 -3 7 -12 l25
-11 -30 -4 c-43 -5 -77 -48 -70 -86 11 -56 16 -66 31 -66 8 0 15 -8 15 -17 1
-10 2 -25 3 -33 0 -8 -3 -18 -9 -22 -5 -4 -7 -10 -4 -13 14 -13 38 10 62 58
14 29 37 63 51 76 14 13 28 36 31 52 4 16 11 29 16 29 5 0 11 11 15 25 3 14
10 25 14 25 4 0 10 8 14 18 3 9 9 23 12 31 5 10 1 11 -16 6 -21 -7 -21 -6 -5
19 16 24 16 28 0 58 -39 77 -80 128 -102 128 -7 0 -20 -14 -28 -31z"/>
<path d="M5409 4262 c-31 -25 -74 -32 -254 -39 -87 -4 -182 -1 -251 7 -99 12
-116 11 -146 -3 -41 -19 -112 -84 -128 -116 -18 -34 -14 -159 5 -178 11 -10
14 -25 9 -48 -3 -18 -1 -75 6 -126 11 -98 29 -259 34 -319 2 -20 11 -51 21
-69 9 -19 25 -57 35 -85 21 -59 72 -177 124 -289 20 -43 36 -83 36 -88 0 -6
11 -34 25 -62 64 -135 101 -299 90 -396 -17 -143 -84 -208 -277 -271 -85 -27
-107 -51 -119 -131 -9 -61 -32 -205 -43 -279 -3 -19 -17 -114 -31 -210 -13
-96 -32 -198 -41 -225 -35 -103 -120 -203 -214 -250 -62 -31 -165 -65 -195
-65 -14 0 -40 -6 -58 -14 -18 -7 -53 -16 -77 -20 -55 -8 -69 -26 -85 -115 -12
-59 -11 -68 11 -122 13 -32 24 -65 24 -74 0 -8 11 -25 24 -36 14 -12 34 -47
46 -78 12 -31 26 -63 30 -73 5 -9 10 -35 11 -57 2 -23 6 -41 10 -41 7 0 22
-45 23 -70 3 -59 61 -114 187 -177 67 -34 71 -38 45 -41 -64 -8 -156 18 -220
61 -51 35 -67 53 -94 107 -18 36 -33 75 -32 88 0 12 -4 22 -10 22 -5 0 -10 7
-10 15 0 22 -57 120 -69 119 -6 -1 -19 -2 -30 -2 -12 -1 -21 -12 -24 -29 -10
-49 -69 -127 -112 -148 -39 -19 -60 -20 -635 -20 -517 0 -597 -2 -607 -15 -10
-13 -12 -13 -17 0 -5 13 -46 14 -314 9 -369 -6 -541 3 -587 31 -87 54 -93 110
-41 395 20 110 41 216 46 235 44 173 60 577 26 685 -28 92 -72 172 -142 260
-90 115 -161 175 -205 175 -7 0 -20 7 -29 15 -20 18 -80 31 -80 17 0 -5 -15
-13 -33 -16 -54 -10 -109 -81 -123 -159 -19 -102 -51 -176 -105 -248 -50 -65
-55 -69 -141 -100 -49 -17 -106 -35 -126 -40 -155 -32 -338 -96 -391 -136 -37
-28 -81 -73 -81 -84 0 -4 -16 -23 -35 -44 -19 -21 -32 -42 -29 -47 3 -5 0 -7
-8 -6 -7 2 -12 -3 -11 -9 2 -7 -1 -13 -7 -13 -6 0 -10 -223 -10 -610 l0 -610
2720 0 2720 0 0 2009 c0 1598 -3 2010 -12 2014 -10 4 -10 7 0 15 9 6 12 39 10
126 l-3 118 -26 -20z"/>
<path d="M1020 4198 c-40 -62 -50 -93 -28 -86 7 3 51 -10 98 -29 83 -32 84
-32 56 -7 -32 28 -29 42 4 24 37 -20 32 -5 -9 30 -22 19 -37 39 -34 47 16 41
-62 59 -87 21z"/>
<path d="M2410 4143 c0 -6 -6 -18 -13 -25 -15 -15 -37 -53 -37 -63 0 -4 16 -4
36 0 40 7 61 -9 43 -31 -7 -9 -4 -14 10 -19 17 -5 31 -35 17 -35 -13 0 -55 28
-49 33 3 4 1 7 -5 7 -6 0 -17 7 -26 15 -13 13 -15 13 -21 -5 -7 -22 -20 -26
-31 -8 -4 6 -20 -15 -40 -53 -17 -35 -30 -67 -28 -70 6 -11 243 -9 249 2 4 5
-9 9 -27 10 l-33 0 35 12 c20 7 36 20 38 31 2 11 0 16 -7 12 -5 -4 -15 2 -20
13 -14 26 -14 31 4 31 8 0 15 -8 15 -17 0 -15 2 -16 10 -3 6 9 5 17 -2 21 -8
5 -6 15 6 33 26 40 37 74 25 81 -5 4 -8 1 -7 -6 2 -6 -3 -14 -9 -16 -17 -6
-29 27 -13 37 21 13 -10 25 -67 25 -34 0 -53 -4 -53 -12z"/>
<path d="M946 4057 c-2 -7 -11 -32 -20 -57 -42 -120 -68 -289 -48 -315 7 -10
66 -49 109 -73 28 -15 60 -16 68 -1 9 13 13 69 6 69 -3 1 -19 12 -36 26 -21
17 -24 23 -10 18 11 -4 28 -13 37 -21 15 -13 18 -12 33 11 22 33 32 150 16
170 -10 12 -8 19 9 36 25 25 20 33 -32 50 -39 12 -47 27 -27 47 13 13 -6 25
-64 41 -28 8 -39 8 -41 -1z"/>
<path d="M4356 3979 c-32 -25 -33 -53 -7 -224 16 -106 28 -153 56 -218 6 -14
4 -16 -11 -11 -11 4 -16 4 -12 0 3 -4 14 -9 25 -10 23 -4 29 -41 11 -74 -28
-53 -7 -190 47 -292 7 -14 41 -95 75 -180 35 -85 75 -180 90 -210 69 -143 74
-221 16 -265 -44 -34 -124 -74 -161 -81 -44 -8 -105 -54 -126 -94 -13 -23 -19
-56 -19 -99 0 -56 3 -67 30 -98 l31 -34 -23 -19 c-19 -15 -20 -20 -9 -34 11
-13 11 -22 3 -41 -7 -14 -16 -25 -22 -25 -18 0 -11 -39 10 -52 24 -15 26 -38
4 -38 -24 0 -39 -21 -58 -78 -10 -29 -24 -59 -32 -66 -8 -8 -14 -27 -14 -43 0
-29 -19 -127 -39 -201 -26 -93 -70 -138 -167 -167 -93 -28 -186 -28 -384 0
-102 15 -211 29 -244 32 l-59 5 7 -28 c8 -30 101 -136 110 -126 4 3 6 1 6 -4
0 -5 15 -18 33 -29 17 -10 38 -27 45 -37 7 -10 20 -18 29 -18 9 0 29 -13 45
-30 15 -16 33 -30 38 -30 5 0 17 -15 26 -33 31 -58 45 -61 77 -12 33 51 51 57
244 78 159 18 237 50 316 131 91 92 104 140 153 556 38 325 50 378 97 414 18
13 73 38 122 56 96 33 160 67 186 96 34 40 49 160 28 239 -5 22 -12 53 -15 68
-3 16 -15 50 -26 75 -30 69 -88 216 -88 224 0 3 -10 28 -22 55 -12 26 -20 52
-19 56 1 5 -9 6 -21 2 -18 -5 -19 -4 -8 4 17 12 11 32 -65 197 -25 56 -47 110
-49 120 -2 11 -8 37 -14 59 -6 22 -13 85 -17 140 -8 135 -23 240 -42 300 -9
28 -17 56 -19 62 -6 22 -68 53 -105 53 -22 0 -47 -8 -63 -21z"/>
<path d="M4139 3911 c-14 -9 -48 -38 -75 -64 -35 -35 -43 -48 -29 -45 15 2 19
-2 17 -17 -2 -11 -8 -22 -13 -23 -5 -2 -23 -15 -38 -28 -16 -13 -40 -24 -54
-24 -35 0 -67 -43 -67 -91 0 -31 -5 -41 -30 -56 -16 -9 -30 -21 -30 -25 0 -8
-63 -122 -99 -179 -56 -90 -85 -146 -83 -161 2 -12 -3 -18 -15 -18 -13 0 -29
-21 -53 -70 -19 -38 -38 -70 -42 -70 -5 0 -8 -9 -8 -20 0 -11 -4 -20 -8 -20
-11 0 -32 -46 -32 -70 0 -10 -7 -23 -15 -27 -8 -5 -50 -74 -94 -153 -81 -147
-98 -176 -139 -240 -12 -19 -26 -44 -31 -55 -15 -32 -99 -133 -123 -149 -13
-8 -57 -19 -98 -25 -126 -18 -176 -35 -172 -57 2 -10 9 -25 15 -33 7 -8 11
-23 9 -33 -3 -16 1 -19 25 -15 35 6 55 -8 68 -48 7 -19 18 -31 33 -33 16 -2
22 -10 22 -28 0 -13 4 -24 10 -24 14 0 90 -75 90 -89 0 -13 4 -19 58 -81 25
-29 47 -70 62 -115 35 -106 51 -134 101 -170 44 -33 170 -75 224 -75 30 0 41
20 27 47 -14 26 -24 149 -16 200 5 33 9 41 19 33 9 -7 15 -3 23 15 13 28 27
32 36 10 3 -8 11 -15 18 -15 9 0 9 3 0 12 -18 18 -14 49 8 78 20 27 18 27 79
-18 50 -38 36 -15 -41 64 -39 41 -69 74 -67 75 40 9 69 8 69 -2 0 -10 25 -44
75 -101 23 -27 35 -21 35 17 0 31 -6 40 -45 67 -34 24 -45 38 -44 57 l0 26 16
-22 c18 -27 30 -29 52 -9 9 8 30 16 46 18 25 2 31 -1 33 -21 3 -19 0 -22 -13
-17 -12 4 -16 1 -13 -11 5 -26 24 -26 36 1 10 22 7 33 -14 75 l-26 49 21 21
c12 12 21 30 21 41 0 11 5 20 10 20 6 0 10 -7 10 -15 0 -8 9 -15 20 -15 12 0
17 5 14 13 -7 19 23 15 76 -10 25 -12 56 -24 70 -28 23 -6 21 -3 -12 27 -20
18 -47 40 -60 49 l-23 17 30 -5 c17 -3 35 -10 42 -15 17 -14 66 -21 58 -8 -9
14 -63 41 -78 39 -26 -3 -37 2 -37 16 0 8 -19 23 -42 33 -43 19 -81 52 -60 52
6 0 14 -5 17 -10 9 -15 85 -52 85 -42 0 4 -14 18 -31 31 -40 29 -30 40 10 11
41 -28 74 -20 61 16 -5 13 -6 24 -3 24 14 0 133 -65 133 -72 0 -12 -39 -9 -63
4 -13 6 -6 -5 18 -29 22 -23 50 -44 63 -48 22 -6 22 -6 26 44 1 8 7 16 14 19
14 4 16 42 2 42 -5 0 -10 5 -10 11 0 7 10 9 28 5 l27 -6 -27 15 c-16 9 -28 20
-28 25 0 14 12 12 40 -7 18 -13 25 -14 28 -4 2 7 20 28 40 47 32 30 71 52 210
115 65 30 75 62 44 142 -11 28 -26 68 -33 88 -8 24 -23 42 -43 52 -20 10 -25
16 -13 16 21 1 23 19 2 27 -10 4 -12 10 -6 18 10 13 -121 315 -141 324 -5 2
-8 15 -8 28 0 26 -21 41 -40 29 -8 -5 -5 -11 7 -21 16 -12 8 -13 -60 -14 -59
0 -78 3 -75 13 3 6 14 13 26 15 20 3 20 5 7 18 -8 9 -19 13 -25 9 -12 -8 -80
5 -80 15 0 4 22 10 49 14 55 7 87 32 55 42 -51 16 -63 24 -58 39 14 36 -116
46 -155 11 -16 -15 -21 -15 -47 -1 l-29 15 35 1 c19 0 43 4 53 8 17 6 16 8 -8
19 -22 10 -25 15 -15 27 17 20 27 19 33 -5 7 -29 93 -29 102 -1 3 11 16 22 28
24 12 2 -5 2 -38 0 -56 -4 -59 -3 -41 11 11 9 29 16 39 16 16 0 17 3 7 15 -11
13 -6 15 31 16 24 1 49 1 55 0 19 -2 64 18 64 29 0 5 -11 10 -24 10 -29 0 -56
9 -56 19 0 4 17 15 39 24 43 20 57 53 41 106 -5 17 -6 31 -2 31 4 0 0 5 -8 10
-8 5 -22 8 -30 6 -8 -3 -26 -7 -40 -11 l-25 -6 25 15 c14 9 34 15 46 16 33 0
33 8 3 68 -37 72 -39 73 -70 53z"/>
<path d="M3501 3891 c-24 -24 -27 -43 -8 -40 40 5 52 -16 17 -29 -20 -8 -20
-8 -1 -29 11 -11 18 -23 15 -26 -14 -14 33 -28 95 -28 58 0 77 5 111 26 48 30
45 46 -8 38 -32 -6 -35 -4 -25 9 7 8 10 17 8 20 -3 3 -42 3 -87 0 -58 -3 -79
-1 -74 7 4 6 22 11 41 11 36 0 85 18 85 31 0 8 -25 14 -102 24 -39 5 -50 3
-67 -14z"/>
<path d="M3306 3878 c-9 -12 -16 -28 -16 -34 0 -6 -6 -17 -14 -23 -8 -7 -17
-24 -21 -38 -3 -14 -17 -34 -30 -44 -19 -16 -22 -24 -15 -51 20 -85 102 -218
135 -218 10 0 40 50 33 55 -2 1 -19 6 -38 12 l-35 11 45 2 c25 1 48 2 53 1 4
0 7 8 7 19 0 11 6 20 13 20 15 0 67 92 67 119 0 25 -37 71 -58 71 -15 1 -15 2
1 11 29 17 9 29 -46 29 -37 0 -48 3 -37 10 8 5 27 10 43 10 31 0 33 7 11 38
-10 15 -25 22 -49 22 -24 0 -39 -7 -49 -22z"/>
<path d="M2208 3815 c-21 -29 -38 -58 -38 -63 0 -5 -7 -15 -15 -22 -8 -7 -15
-21 -15 -31 0 -11 -4 -19 -10 -19 -5 0 -13 -12 -16 -27 -4 -16 -16 -37 -27
-47 -11 -11 -28 -39 -39 -63 -15 -35 -17 -47 -8 -58 12 -15 11 -16 -38 -31 -7
-2 -16 -14 -21 -26 -5 -13 -30 -59 -55 -103 -25 -44 -46 -87 -46 -95 0 -9 -10
-27 -22 -40 -22 -23 -33 -66 -19 -74 3 -3 57 -6 118 -8 98 -3 113 -1 132 16
16 15 18 22 9 33 -9 11 -7 18 6 31 14 14 18 15 25 3 12 -18 24 3 16 28 -3 12
0 21 10 25 32 12 2 26 -56 26 -38 0 -58 -4 -57 -11 2 -6 -3 -14 -9 -16 -21 -8
-14 15 9 31 15 11 45 16 89 16 66 0 68 1 89 35 25 40 20 55 -18 55 -15 0 -34
5 -42 11 -11 7 1 9 43 7 31 -2 57 -1 57 2 0 3 17 16 38 30 20 14 41 31 45 38
6 9 19 11 38 7 15 -4 33 -4 37 -1 16 10 1 54 -20 59 -22 6 -19 34 3 29 29 -7
33 -7 36 9 3 12 -6 18 -28 23 -37 7 -31 20 9 22 15 0 40 2 55 2 l28 2 -26 28
c-39 42 -40 63 -6 125 36 65 36 64 14 70 -13 3 -11 5 7 7 23 1 23 2 5 10 -11
5 -72 9 -135 9 l-115 0 -37 -54z"/>
<path d="M3533 3658 c-18 -13 -33 -26 -33 -30 0 -4 -17 -34 -37 -68 -21 -33
-48 -80 -60 -103 l-23 -42 26 -3 c49 -6 16 -27 -62 -39 -57 -8 -131 -9 -263
-3 -102 5 -189 6 -193 3 -5 -3 -51 -7 -101 -9 -97 -4 -167 -20 -167 -38 0 -6
-16 -31 -35 -55 -29 -36 -35 -51 -33 -87 1 -39 4 -44 30 -49 15 -4 42 -4 59 0
22 5 34 3 40 -6 7 -11 10 -9 15 9 5 17 11 21 23 16 9 -3 27 -9 39 -12 22 -4
24 -2 21 29 -4 43 4 46 41 17 28 -22 29 -26 31 -118 1 -52 0 -148 -4 -212 l-5
-118 49 0 c45 0 51 3 60 27 6 15 14 30 20 33 5 4 47 69 93 146 46 76 91 140
100 142 25 5 20 -9 -39 -108 -31 -50 -69 -117 -86 -148 -16 -32 -41 -77 -55
-102 -69 -123 -93 -170 -88 -170 2 0 -4 -10 -16 -22 -11 -13 -20 -35 -20 -54
0 -20 -6 -37 -16 -42 -27 -15 -14 -64 21 -81 35 -17 114 -26 149 -17 28 7 86
64 86 84 0 6 4 12 9 12 5 0 37 53 71 118 33 64 84 153 112 197 63 99 79 127
138 240 77 146 100 188 113 205 15 19 36 55 59 102 10 20 23 40 30 44 15 10
-21 22 -69 23 -18 1 -33 5 -33 11 0 5 8 9 18 8 9 -1 37 0 62 0 39 2 48 6 63
32 23 38 15 50 -29 50 -22 0 -33 4 -29 10 4 7 24 8 50 5 39 -6 44 -5 65 25 26
36 22 43 -25 44 -51 1 -36 21 15 21 41 0 44 2 52 34 10 36 5 61 -11 61 -6 0
-28 -18 -50 -41 -23 -25 -41 -36 -45 -30 -4 6 5 22 21 36 24 21 26 26 13 35
-8 5 -42 10 -75 10 -46 0 -68 -5 -92 -22z"/>
<path d="M2957 3653 c-1 0 -45 -4 -98 -7 -53 -3 -107 -10 -120 -15 -32 -12
-98 -81 -78 -81 9 -1 4 -9 -13 -25 -33 -29 -35 -35 -8 -35 25 0 26 -15 3 -25
-17 -6 -16 -7 2 -18 30 -17 587 -17 593 1 2 6 10 12 19 12 8 0 13 3 11 8 -41
88 -71 142 -91 164 -24 26 -28 27 -122 25 -53 -1 -97 -3 -98 -4z"/>
<path d="M852 3356 c-13 -71 -15 -129 -5 -139 4 -4 8 -26 10 -49 3 -23 9 -50
14 -59 5 -10 9 -33 9 -52 0 -39 8 -47 65 -68 48 -18 95 -8 95 21 0 9 10 25 23
33 l22 16 -22 0 c-27 1 -40 19 -19 27 27 10 18 26 -11 20 -90 -16 -105 -17
-101 -5 2 7 26 19 52 26 27 8 55 21 63 28 12 12 10 15 -14 21 -56 12 -58 17
-12 31 42 12 45 15 41 42 -2 18 -11 31 -23 34 -24 6 -25 27 -1 28 17 1 -18 13
-70 24 -41 8 -34 25 11 25 23 0 41 5 44 13 4 10 -16 18 -67 30 -40 9 -77 17
-82 17 -6 0 -16 -29 -22 -64z"/>
<path d="M1856 3051 c-2 -3 -6 -18 -10 -32 -5 -23 -2 -28 20 -33 16 -4 25 -13
23 -24 -4 -45 3 -44 54 6 57 57 96 72 53 21 -14 -17 -26 -37 -26 -45 0 -9 -5
-12 -11 -8 -7 4 -10 1 -7 -7 3 -8 14 -13 24 -12 10 2 29 4 42 5 14 2 22 9 22
21 0 13 7 18 23 17 12 -1 27 -2 34 -1 16 1 9 44 -12 72 -17 23 -25 24 -122 25
-57 0 -105 -2 -107 -5z"/>
<path d="M2538 2996 c-33 -14 -93 -74 -85 -83 4 -3 2 -12 -4 -20 -6 -7 -8 -13
-3 -13 4 0 -8 -13 -26 -30 -18 -16 -37 -30 -40 -30 -4 0 -19 -18 -34 -40 -18
-28 -33 -40 -50 -40 -13 0 -29 -7 -36 -15 -7 -9 -19 -14 -25 -11 -16 6 -145
-33 -165 -49 -8 -7 -37 -18 -64 -24 -55 -14 -97 -33 -120 -56 -40 -41 -159
-111 -180 -106 -4 1 -14 -4 -22 -10 -8 -6 -14 -8 -14 -4 0 4 -9 -3 -20 -16
-10 -13 -19 -21 -20 -17 0 13 -50 -43 -50 -57 0 -23 20 -28 40 -10 17 15 19
15 34 -7 21 -30 20 -34 -6 -43 -18 -5 -19 -8 -8 -12 8 -3 18 -11 23 -17 5 -8
10 -6 18 4 8 12 9 10 4 -7 -5 -18 -2 -23 12 -24 24 -2 25 -2 46 6 13 5 17 2
17 -13 0 -12 -4 -23 -9 -27 -15 -9 -7 -71 10 -92 38 -43 88 -125 133 -216 39
-80 51 -96 62 -86 8 6 28 9 45 7 25 -4 33 0 45 23 20 39 18 42 -16 37 -24 -4
-30 -1 -30 14 0 24 16 54 48 93 22 26 24 27 19 8 -4 -13 -9 -31 -12 -40 -3
-10 1 -26 9 -36 14 -18 16 -17 53 6 21 13 44 31 51 40 7 8 29 15 49 15 20 0
31 -3 26 -7 -19 -12 -25 -53 -12 -77 l13 -24 27 26 c26 25 29 50 7 65 -10 7
13 89 25 89 7 0 3 -32 -9 -69 -4 -11 -2 -12 11 -1 8 7 15 23 15 35 0 25 24 50
39 40 7 -4 3 -24 -10 -57 -11 -28 -18 -52 -17 -53 3 -3 66 -8 85 -6 6 1 15 10
18 21 9 27 33 25 37 -2 3 -20 8 -23 46 -20 25 2 42 -1 42 -7 0 -19 17 -12 27
12 l11 22 10 -25 c6 -14 11 -21 11 -16 1 11 31 -13 31 -25 0 -5 -6 -9 -14 -9
-24 0 -28 -18 -12 -42 9 -12 16 -18 16 -13 0 6 5 3 10 -5 9 -13 11 -13 20 0 5
8 10 29 10 47 0 22 8 38 26 52 33 26 40 26 47 1 3 -13 10 -18 21 -14 9 3 16 1
16 -5 0 -7 13 -17 30 -22 16 -6 27 -15 24 -20 -3 -5 -2 -9 3 -9 4 0 15 15 24
33 19 37 7 65 -23 59 -10 -2 -18 1 -18 7 0 6 -13 11 -30 11 -16 0 -30 4 -30 9
0 5 -9 7 -20 4 -11 -3 -18 -9 -15 -13 3 -4 -1 -10 -8 -13 -15 -6 -47 15 -47
31 0 23 -44 101 -58 104 -12 2 -16 29 -18 138 -5 192 -7 208 -42 279 -43 85
-42 125 8 241 22 51 40 103 40 115 0 12 3 25 7 29 14 14 13 50 -2 73 -17 25
-36 28 -77 9z"/>
<path d="M90 2823 c-14 -2 -40 -9 -58 -14 l-32 -11 0 -640 c1 -351 4 -638 8
-636 21 9 111 52 134 64 14 8 33 14 43 14 9 0 35 9 57 20 23 11 49 20 57 20
25 0 277 79 367 114 45 19 62 45 92 151 14 51 18 83 13 117 -4 25 -6 53 -5 62
1 9 -2 16 -7 16 -5 0 -9 12 -9 28 1 26 1 26 15 8 14 -18 17 -16 59 29 25 26
48 56 51 66 4 11 11 19 17 19 7 0 9 18 6 50 -3 27 -1 53 4 58 6 6 3 15 -6 24
-11 11 -12 18 -3 27 8 8 8 11 -1 11 -7 0 -12 13 -11 33 0 17 -4 68 -10 112 -5
44 -10 83 -10 86 -1 4 -10 9 -21 12 -22 6 -28 37 -7 37 8 0 7 4 -3 10 -13 8
-13 10 0 10 9 0 5 7 -10 18 -30 21 -134 42 -152 30 -26 -16 -161 -8 -207 12
-24 11 -51 20 -61 20 -10 0 -20 5 -22 10 -3 11 -240 21 -288 13z"/>
<path d="M1494 2246 c-4 -9 -13 -15 -20 -12 -9 4 -14 -2 -14 -16 0 -12 -3 -18
-7 -15 -4 4 -12 -6 -19 -23 -17 -38 -39 -40 -30 -2 l6 27 -20 -24 c-37 -43
-27 -66 101 -233 30 -40 65 -90 77 -111 35 -60 71 -177 83 -268 15 -111 6
-333 -21 -479 -11 -63 -25 -142 -30 -175 -6 -33 -17 -89 -24 -125 -67 -306
-69 -340 -24 -373 39 -29 225 -39 668 -34 648 7 843 7 1090 3 160 -3 259 -1
285 6 55 15 85 44 85 82 0 17 4 46 9 64 10 34 15 145 8 172 -15 60 -30 107
-37 115 -5 6 -9 13 -9 17 -6 41 -15 68 -22 68 -5 0 -9 7 -9 15 0 7 -6 18 -13
22 -7 4 -20 20 -30 35 -12 20 -26 28 -47 28 -36 0 -41 -15 -39 -107 3 -149
-19 -250 -60 -272 -11 -6 -313 -11 -799 -12 l-782 -3 -25 24 c-36 34 -35 77
11 305 25 123 35 217 41 357 l5 137 -26 7 c-29 7 -33 20 -12 43 41 48 30 124
-20 137 -28 7 -29 15 -9 54 12 22 13 43 6 99 -5 38 -16 83 -23 98 -69 133
-121 219 -136 224 -5 2 -28 32 -51 66 -24 35 -47 65 -52 68 -8 6 -51 -34 -67
-61 -9 -15 -52 -28 -52 -16 0 4 16 27 36 51 20 23 34 45 30 48 -3 3 -8 -2 -12
-11z"/>
<path d="M2891 1878 c-12 -55 -4 -78 29 -78 21 0 34 -15 48 -55 9 -26 11 -27
11 -7 1 12 7 22 16 22 11 0 15 -11 15 -40 0 -39 19 -58 21 -22 1 9 5 1 9 -18
5 -28 8 -31 14 -17 11 23 -3 96 -14 77 -5 -8 -10 3 -15 31 -9 56 -30 89 -56
89 -14 0 -25 10 -32 30 -18 47 -33 43 -46 -12z"/>
<path d="M3900 1676 c0 -3 10 -22 22 -43 17 -29 18 -35 5 -24 -10 8 -17 9 -17
3 0 -6 11 -19 25 -30 48 -38 22 -56 -75 -50 -54 3 -55 3 -61 40 -5 32 -33 88
-43 88 -2 0 -2 -20 1 -44 4 -38 1 -45 -17 -51 -16 -5 -19 -12 -14 -28 25 -74
-6 -85 -36 -13 -20 51 -23 53 -39 38 -10 -9 -18 -19 -18 -22 -1 -20 -5 -21
-21 -7 -18 16 -18 15 -14 -13 3 -19 0 -30 -8 -30 -7 0 -6 -5 4 -15 8 -8 17
-15 21 -15 4 0 13 -6 21 -14 15 -16 80 -31 193 -47 105 -15 202 3 249 47 33
30 34 33 23 67 -7 19 -25 54 -42 76 -36 51 -27 53 23 4 40 -39 50 -31 21 14
-35 53 -59 73 -71 61 -7 -7 -12 -19 -12 -28 0 -18 -32 -60 -45 -60 -4 0 -5 11
-2 25 3 20 -3 31 -28 50 -30 24 -45 30 -45 21z"/>
<path d="M2095 1513 c-14 -13 -23 -23 -19 -23 4 0 -1 -9 -11 -20 -10 -11 -27
-20 -37 -20 -11 0 -17 -4 -14 -9 3 -5 0 -21 -8 -37 -7 -16 -19 -76 -25 -134
-7 -58 -19 -148 -26 -200 -25 -166 -38 -297 -31 -324 4 -15 15 -28 29 -31 39
-9 621 -13 644 -4 12 4 25 4 28 0 8 -14 97 -5 106 11 5 7 10 45 11 83 l2 70 5
-80 6 -80 105 -7 c100 -7 296 -4 426 8 54 5 63 8 74 32 22 47 13 147 -18 204
-28 53 -40 63 -83 72 -17 4 -26 12 -25 22 2 30 -85 79 -214 122 -69 22 -141
44 -160 48 -19 3 -47 12 -61 20 -29 15 -39 10 -39 -18 0 -10 -4 -18 -9 -18 -5
0 -9 6 -8 13 1 36 -5 47 -30 53 -35 9 -189 89 -224 117 -15 12 -44 35 -63 51
-21 16 -36 37 -36 50 -1 19 -2 18 -16 -6 -21 -39 -34 -35 -34 10 0 52 -9 58
-31 22 -20 -33 -39 -39 -39 -14 0 13 -3 14 -15 4 -16 -14 -35 -6 -35 16 0 8
-3 14 -7 15 -65 7 -94 2 -118 -18z"/>
<path d="M2932 1458 c-19 -22 -32 -28 -63 -28 -21 0 -39 -4 -39 -10 0 -5 -10
-10 -22 -11 -15 0 -18 -3 -8 -6 18 -8 30 -20 52 -54 12 -19 31 -29 75 -38 32
-7 70 -17 84 -23 14 -5 52 -15 84 -23 52 -12 61 -11 80 3 l22 17 -35 52 c-19
29 -38 53 -41 53 -3 0 -12 13 -19 30 -14 31 -24 36 -112 58 -31 8 -37 6 -58
-20z"/>
</g>
</svg>
