<?xml version="1.0" standalone="no"?>
<!DOCTYPE svg PUBLIC "-//W3C//DTD SVG 20010904//EN"
 "http://www.w3.org/TR/2001/REC-SVG-20010904/DTD/svg10.dtd">
<svg version="1.0" xmlns="http://www.w3.org/2000/svg"
 width="544.000000pt" height="544.000000pt" viewBox="0 0 544.000000 544.000000"
 preserveAspectRatio="xMidYMid meet">
<metadata>
Created by potrace 1.16, written by Peter Selinger 2001-2019
</metadata>
<g transform="translate(0.000000,544.000000) scale(0.100000,-0.100000)"
fill="#000000" stroke="none">
<path d="M0 5412 c0 -21 15 -43 60 -87 68 -68 83 -100 18 -39 -74 69 -76 70
-76 29 0 -19 4 -35 9 -35 4 0 14 -10 20 -22 9 -19 9 -21 -2 -10 -23 22 -29 13
-29 -47 0 -59 0 -59 43 -84 44 -26 128 -97 114 -97 -4 0 -32 20 -62 45 -30 24
-64 49 -75 55 -18 10 -20 8 -20 -29 0 -30 5 -41 19 -46 11 -3 25 -13 33 -22
12 -14 10 -14 -19 1 l-33 17 0 -73 c0 -60 4 -76 22 -96 l23 -25 -23 12 c-22
12 -22 11 -22 -52 0 -62 1 -65 30 -77 17 -7 33 -17 36 -22 4 -5 -8 -3 -24 6
-17 9 -33 16 -37 16 -3 0 -5 -20 -5 -45 0 -25 4 -45 8 -45 5 0 17 -7 28 -15
18 -15 18 -15 -9 -9 l-27 6 0 -165 0 -165 28 -10 c15 -6 39 -14 55 -18 15 -3
30 -10 33 -16 7 -10 -36 -2 -83 18 l-33 13 0 -659 0 -659 23 -4 22 -4 -22 -2
c-15 -1 -23 -7 -23 -20 0 -15 10 -20 52 -25 50 -7 148 -48 218 -92 32 -20 42
-21 124 -13 49 5 103 13 121 19 19 6 55 8 82 4 43 -5 51 -3 75 20 20 21 32 25
52 20 17 -4 26 -2 26 6 0 6 4 9 8 6 5 -3 15 3 24 13 13 15 13 30 0 132 -9 68
-16 216 -17 367 -1 139 -5 255 -8 259 -4 3 -2 12 3 18 6 7 17 44 25 81 7 38
16 80 19 94 3 13 -1 34 -9 46 -12 19 -12 22 8 31 22 10 55 91 61 148 1 13 7
30 12 37 6 7 15 25 21 39 9 21 8 29 -5 43 -16 16 -16 17 1 10 12 -4 17 -1 17
9 0 9 6 20 13 24 7 4 21 28 32 53 11 25 35 67 52 95 18 27 33 55 33 61 0 6 14
29 31 50 24 30 29 45 25 67 -5 23 -3 28 12 25 25 -6 61 40 56 70 -4 19 -2 23
12 18 11 -4 31 9 65 45 40 42 48 56 43 76 -6 22 -4 24 15 18 17 -5 39 8 104
62 45 37 86 73 90 80 4 7 15 13 22 13 19 0 19 10 1 36 -8 11 -11 26 -7 33 6 9
14 6 29 -13 16 -21 21 -23 26 -11 3 8 12 15 20 15 9 0 23 14 31 31 12 22 20
28 29 20 8 -7 29 1 73 28 65 42 84 61 59 61 -9 0 -16 5 -16 10 0 13 17 13 26
-1 7 -13 60 -5 81 12 7 6 13 23 14 38 0 25 1 25 11 4 10 -21 12 -21 43 -6 23
11 32 22 33 40 0 32 11 42 26 21 15 -20 39 -18 66 5 16 14 20 30 20 87 l0 70
-271 0 -271 -1 7 -35 c7 -42 -6 -39 -25 6 l-12 30 -155 0 c-151 0 -153 0 -143
-20 6 -11 7 -20 3 -20 -5 0 -14 9 -21 20 -12 19 -23 20 -218 20 -161 0 -204
-3 -198 -12 6 -10 4 -10 -8 0 -12 9 -67 12 -219 11 l-204 -1 68 -62 c37 -34
67 -65 67 -69 0 -4 -37 24 -82 63 -76 63 -87 69 -128 70 l-45 0 73 -72 c116
-114 69 -97 -61 22 -32 29 -57 48 -57 43 0 -5 6 -15 13 -23 6 -7 -1 -4 -17 8
-17 13 -43 22 -64 22 l-35 0 99 -95 c91 -88 95 -93 48 -66 -27 17 -85 60 -127
96 -42 36 -81 65 -87 65 -5 0 -10 -13 -10 -28z"/>
<path d="M2287 5433 c-9 -9 -9 -43 1 -44 31 -3 47 -10 55 -24 7 -13 23 -16 75
-14 87 3 100 7 108 32 6 20 7 20 21 1 11 -16 27 -19 100 -20 76 -1 86 1 90 17
6 23 12 24 27 5 6 -8 31 -17 55 -20 37 -5 42 -4 31 9 -10 11 -10 18 -1 29 16
18 51 8 51 -14 0 -22 41 -37 126 -44 33 -2 73 -8 88 -12 27 -6 28 -6 22 24 -4
17 -3 33 3 37 6 3 13 -10 17 -34 l6 -40 19 22 c11 13 18 17 19 9 0 -7 7 -20
15 -28 16 -16 80 -45 92 -42 5 1 19 -4 32 -11 14 -8 42 -14 63 -15 22 0 34 -2
28 -4 -6 -2 45 -30 115 -63 69 -32 138 -67 153 -77 15 -11 43 -29 63 -40 33
-18 36 -18 47 -3 9 14 11 13 11 -6 1 -13 7 -23 14 -23 7 0 31 -16 53 -35 21
-19 47 -38 56 -41 9 -3 20 -13 23 -22 9 -26 107 -97 128 -94 12 2 17 0 12 -8
-8 -12 39 -62 93 -99 18 -13 31 -29 28 -36 -6 -16 159 -185 182 -185 9 0 26
-7 36 -15 11 -8 34 -15 52 -15 19 0 37 -6 41 -15 12 -21 225 -23 309 -2 76 18
92 27 142 76 36 36 38 41 21 46 -35 11 -20 30 72 84 49 29 88 55 86 57 -2 3
-28 -7 -58 -21 -62 -28 -88 -33 -70 -11 6 7 46 26 89 41 42 15 97 38 122 50
50 25 95 40 153 51 l37 6 0 294 0 294 -128 0 c-119 0 -130 -2 -148 -21 -10
-12 -52 -48 -92 -81 -40 -33 -81 -76 -91 -97 -22 -43 -57 -78 -44 -45 4 12
-12 2 -40 -23 -112 -103 -39 -17 148 172 6 5 32 29 57 53 42 37 45 42 25 42
-14 0 -32 -12 -45 -30 -21 -28 -142 -117 -142 -105 0 3 27 31 60 62 33 30 60
59 60 64 0 5 -21 8 -47 7 -47 -1 -50 -4 -155 -110 -59 -59 -110 -108 -114
-108 -3 0 0 7 7 17 13 15 12 15 -11 3 -13 -7 19 34 73 91 l98 104 -52 3 c-48
3 -55 0 -92 -35 l-41 -38 28 38 27 37 -35 0 c-31 0 -40 -6 -62 -40 -15 -22
-31 -40 -37 -40 -10 0 1 17 37 58 l19 22 -90 0 c-88 0 -92 -1 -112 -27 l-20
-28 5 28 c5 29 -12 37 -34 15 -9 -9 -12 -9 -12 0 0 16 -82 16 -99 0 -10 -10
-12 -10 -7 -1 5 9 -22 12 -111 12 -114 0 -119 -1 -145 -26 -20 -19 -28 -22
-28 -12 0 8 5 20 12 27 8 8 -41 11 -200 12 -159 0 -212 -3 -215 -12 -4 -10 -6
-10 -6 0 -1 18 -85 16 -101 -3 -7 -8 -19 -15 -27 -15 -7 0 -16 7 -19 15 -5 11
-22 15 -64 15 -53 0 -59 -2 -63 -22 l-4 -23 -2 23 c-1 20 -6 22 -65 22 -63 0
-64 0 -70 -31 -3 -17 -10 -28 -16 -24 -6 3 -7 17 -4 31 l6 24 -241 0 c-154 0
-241 -4 -241 -10 0 -5 -9 -10 -20 -10 -11 0 -20 5 -20 10 0 6 -55 10 -145 10
-138 0 -145 -1 -145 -20 0 -11 -4 -20 -10 -20 -5 0 -10 9 -10 20 0 17 -7 20
-43 20 -24 0 -47 -3 -50 -7z"/>
<path d="M2630 5292 c-14 -2 -33 -11 -42 -19 -26 -24 -84 -33 -105 -17 -10 7
-29 13 -43 13 -31 0 -66 -24 -50 -34 6 -4 10 -14 8 -23 -4 -20 -58 -25 -58 -5
0 23 -30 14 -61 -18 -25 -26 -29 -36 -24 -62 6 -32 58 -87 81 -87 7 0 16 9 19
21 7 22 30 21 30 -2 0 -20 23 -27 70 -18 111 20 386 18 570 -5 11 -1 25 2 32
7 7 5 15 1 22 -11 8 -14 26 -22 66 -27 31 -3 81 -18 112 -31 31 -14 62 -23 69
-20 7 3 14 1 16 -3 2 -4 65 -38 140 -74 75 -37 142 -73 150 -80 7 -7 38 -30
68 -52 30 -22 59 -45 63 -53 7 -11 11 -11 24 0 14 11 17 11 21 -1 8 -24 74
-92 105 -107 16 -9 26 -18 23 -21 -10 -11 24 -34 46 -31 20 3 23 -2 23 -31 1
-27 10 -42 48 -77 26 -23 47 -50 47 -58 0 -18 8 -22 63 -30 32 -4 43 -1 66 22
23 23 41 51 45 72 1 3 5 11 9 18 5 6 4 12 -2 12 -5 0 -13 -4 -16 -10 -9 -15
-35 -12 -35 4 0 8 9 17 20 21 20 6 20 6 0 46 -11 21 -24 39 -29 39 -5 0 -15
16 -21 35 -19 58 -302 325 -379 358 -15 6 -42 23 -61 38 -19 14 -58 38 -87 53
-28 14 -54 30 -58 35 -3 6 -12 8 -19 5 -8 -3 -24 3 -35 13 -12 10 -25 18 -29
18 -4 0 -23 10 -43 23 -20 12 -42 22 -49 22 -7 0 -36 11 -64 24 -60 28 -177
59 -310 82 -32 6 -42 3 -53 -12 -13 -18 -14 -18 -19 2 -5 19 -13 22 -76 23
-39 1 -75 4 -80 7 -10 7 -170 11 -208 6z"/>
<path d="M1995 5140 c3 -6 -2 -13 -12 -17 -10 -3 -22 -12 -26 -20 -6 -10 -13
-10 -27 -3 -13 7 -21 7 -25 0 -3 -5 -17 -10 -30 -10 -25 0 -41 -26 -27 -44 5
-6 12 -19 16 -30 4 -13 -3 -10 -29 13 -31 27 -38 29 -55 19 -11 -7 -20 -16
-20 -20 0 -5 -9 -8 -20 -8 -25 0 -80 -39 -80 -56 0 -6 -10 -14 -21 -17 -16 -4
-20 -11 -16 -26 4 -18 1 -21 -30 -21 -28 0 -50 -11 -103 -55 -36 -30 -87 -76
-112 -104 -25 -27 -55 -54 -67 -60 -11 -7 -21 -18 -21 -25 0 -7 -9 -23 -20
-36 -24 -28 -24 -25 -4 -56 9 -13 14 -27 11 -31 -9 -8 -38 17 -31 28 9 14 -1
10 -24 -10 -14 -12 -22 -30 -22 -50 0 -28 -3 -31 -20 -26 -27 9 -26 -12 3 -44
19 -22 19 -23 1 -8 -25 21 -38 21 -54 2 -10 -13 -10 -19 5 -35 20 -22 14 -26
-16 -10 -16 9 -22 5 -39 -22 -26 -43 -25 -54 5 -84 15 -15 25 -36 24 -52 -1
-25 -2 -23 -20 16 -11 23 -26 42 -35 42 -13 0 -124 -213 -124 -239 0 -6 9 -11
20 -11 11 0 20 -5 20 -11 0 -7 -10 -9 -24 -7 -22 4 -26 0 -37 -41 -6 -25 -13
-53 -14 -61 -1 -8 -6 -37 -13 -65 -36 -167 -43 -244 -43 -473 1 -176 5 -222
23 -222 6 0 8 -10 4 -22 -8 -33 31 -146 54 -153 11 -3 20 -17 22 -33 2 -22 10
-28 41 -34 60 -12 123 26 119 73 -1 3 -8 55 -16 115 -17 118 -27 424 -14 424
4 0 8 22 8 49 0 60 54 344 73 386 8 17 33 69 57 117 23 49 43 99 44 113 0 14
4 25 8 25 3 0 25 28 48 62 33 49 40 69 36 91 -5 24 -3 28 10 23 11 -4 27 4 46
26 25 28 28 38 23 70 -5 25 -3 38 4 38 10 0 15 -14 12 -32 -1 -11 11 -10 29 2
13 9 11 13 -9 29 -28 21 -13 38 18 20 15 -10 24 -9 46 5 15 10 24 23 21 31 -3
9 0 12 8 9 8 -3 26 10 42 30 16 19 51 51 77 71 47 36 293 195 302 195 2 0 23
13 47 29 43 29 62 71 33 71 -21 0 -28 19 -14 36 10 12 14 12 20 2 6 -9 9 -6 9
10 0 15 -7 26 -19 29 -11 3 -24 18 -30 34 -11 31 -3 37 18 17 10 -11 11 -9 5
7 -4 11 -12 23 -18 27 -16 11 -38 10 -31 -2z"/>
<path d="M2650 4952 c1 -9 5 -36 9 -59 11 -56 -3 -46 -24 17 -10 29 -23 50
-31 50 -8 0 -14 -5 -14 -11 0 -8 -5 -7 -16 2 -13 10 -17 10 -24 -2 -5 -8 -17
-14 -27 -15 -44 -3 -50 -5 -60 -27 -15 -31 6 -76 46 -102 17 -11 31 -26 31
-32 0 -7 4 -13 9 -13 4 0 16 -24 25 -53 9 -30 24 -63 32 -75 8 -12 16 -38 18
-59 7 -68 8 -69 117 -81 74 -8 111 -17 142 -35 63 -37 139 -119 163 -177 8
-19 19 -37 24 -40 6 -3 13 -27 16 -52 6 -43 2 -57 -56 -172 -34 -69 -66 -128
-71 -132 -11 -7 -59 -110 -59 -128 0 -17 44 -22 140 -16 65 4 76 8 86 28 6 13
21 30 33 38 32 23 25 34 -21 35 -42 2 -41 2 16 12 53 9 61 14 89 53 29 42 116
118 163 142 12 6 71 12 132 13 106 1 113 0 177 -32 36 -18 70 -41 76 -51 14
-27 68 -23 102 6 18 15 26 30 21 37 -4 7 -3 9 3 6 6 -4 18 13 28 38 9 25 24
51 33 58 34 25 57 117 29 117 -8 0 -8 3 2 9 11 7 10 12 -7 27 -15 13 -19 25
-15 46 4 21 2 28 -11 28 -9 0 -16 5 -16 10 0 18 -29 -4 -51 -36 -17 -26 -19
-27 -19 -7 0 12 4 23 9 25 21 8 22 47 1 66 -13 12 -18 25 -14 35 3 10 1 17 -5
17 -6 0 -11 -6 -11 -14 0 -18 -36 -63 -61 -77 -20 -10 -20 -10 -3 23 9 18 25
42 35 53 10 11 17 28 15 38 -4 29 -97 117 -124 117 -13 0 -21 4 -18 8 2 4 0
14 -5 22 -7 12 -16 7 -45 -27 -44 -53 -64 -56 -29 -6 26 39 32 63 16 63 -6 0
-25 14 -43 30 -18 17 -36 30 -41 30 -5 0 -26 13 -46 28 -47 36 -88 54 -96 42
-11 -17 -37 -11 -42 10 -3 11 -12 20 -20 20 -9 0 -13 6 -10 14 9 23 -32 27
-46 5 -16 -26 -24 -24 -30 10 -5 25 -13 31 -43 37 -29 5 -39 3 -46 -10 -12
-21 -31 -10 -23 14 4 12 -1 19 -17 24 -52 14 -67 8 -77 -31 -6 -21 -11 -45
-11 -53 0 -8 -5 -22 -10 -30 -6 -10 -7 8 -3 54 6 67 6 69 -15 64 -14 -4 -25
-1 -31 9 -12 22 -77 33 -223 38 -116 4 -128 2 -128 -13z"/>
<path d="M2116 4805 c-4 -12 -10 -13 -24 -6 -30 16 -62 2 -62 -27 0 -24 -1
-25 -20 -7 -13 12 -27 15 -45 11 -31 -8 -68 -43 -60 -56 4 -6 -3 -10 -14 -10
-28 0 -52 -11 -46 -20 3 -5 -8 -11 -25 -15 -17 -4 -35 -15 -40 -26 -6 -10 -25
-25 -43 -33 -32 -13 -157 -130 -157 -147 0 -5 14 -22 31 -37 18 -16 30 -35 27
-43 -3 -10 -15 -3 -39 24 l-35 38 -42 -45 c-42 -45 -46 -54 -43 -88 2 -13 -5
-18 -22 -18 -18 0 -28 -8 -37 -30 -11 -27 -11 -32 6 -45 11 -8 23 -15 27 -15
5 0 6 -4 2 -10 -4 -6 -15 -5 -30 2 -34 15 -47 7 -75 -46 -23 -45 -23 -47 -4
-61 19 -14 19 -14 -2 -15 -19 0 -39 -16 -73 -56 -12 -14 -12 -17 0 -25 10 -6
10 -9 2 -9 -7 0 -13 -11 -13 -24 0 -13 -9 -35 -20 -49 l-21 -26 21 -13 c27
-17 25 -28 -4 -28 -16 0 -26 -7 -30 -22 -12 -47 -7 -67 24 -83 17 -9 30 -17
30 -18 0 -1 -17 -1 -39 1 l-39 4 -11 -89 c-7 -48 -16 -110 -22 -137 -6 -32 -6
-53 1 -61 5 -6 7 -14 4 -18 -15 -15 9 -47 41 -53 29 -5 33 -9 26 -27 -9 -23
-28 -25 -23 -3 1 8 -8 16 -20 18 -23 4 -23 3 -18 -78 3 -46 10 -88 17 -95 7
-7 40 -12 80 -12 l68 1 -72 -11 c-56 -7 -73 -13 -73 -26 0 -33 32 -107 58
-133 23 -25 33 -28 91 -29 61 -1 64 -2 33 -12 l-33 -10 43 -38 c24 -21 48 -39
53 -39 6 0 15 -8 22 -18 6 -11 34 -23 69 -31 33 -7 67 -17 76 -22 10 -5 29 -9
43 -9 14 0 25 -4 25 -9 0 -5 14 -11 30 -13 17 -3 30 -1 30 4 0 4 6 8 14 8 25
0 56 34 60 65 2 17 -5 55 -15 85 -11 30 -22 85 -25 121 -7 65 -6 69 45 173 29
58 58 112 64 119 7 6 28 41 46 77 19 36 38 67 43 68 4 2 8 8 8 14 0 6 29 58
64 117 59 99 112 193 194 344 19 34 40 69 46 77 7 8 27 40 43 70 17 30 43 78
58 105 61 109 75 137 75 150 0 7 21 33 46 58 28 28 43 50 39 57 -4 7 -1 16 6
21 11 7 10 9 -3 9 -10 0 -18 -5 -18 -11 0 -15 -43 -7 -48 10 -3 9 1 11 15 7
27 -9 53 3 53 23 0 14 -2 14 -10 1 -8 -12 -10 -11 -10 6 0 21 -87 124 -104
124 -4 0 -19 9 -33 20 -14 11 -33 20 -41 20 -9 0 -24 8 -34 17 -10 9 -33 18
-51 19 -20 2 -41 13 -57 31 -30 32 -65 41 -74 18z"/>
<path d="M5400 4614 c-19 -9 -43 -20 -52 -25 -10 -5 -25 -9 -33 -9 -8 0 -15
-7 -15 -15 0 -9 -7 -18 -15 -21 -10 -4 -13 -14 -9 -31 6 -22 4 -24 -13 -19
-23 7 -55 -2 -48 -14 2 -4 -9 -20 -25 -35 -33 -31 -31 -45 6 -45 34 0 30 -15
-8 -30 -18 -7 -60 -23 -93 -37 -47 -20 -83 -27 -165 -31 -69 -3 -109 -9 -118
-18 -7 -8 -31 -17 -53 -20 -22 -4 -42 -11 -45 -15 -7 -12 -54 -11 -54 1 0 6
-13 10 -30 10 -16 0 -30 -4 -30 -10 0 -5 -8 -10 -17 -10 -10 0 -25 -5 -33 -10
-11 -7 -6 -8 18 -4 39 8 44 -12 7 -26 -24 -9 -35 -43 -17 -53 4 -2 45 2 92 9
47 7 108 15 135 18 l50 6 -55 -20 c-30 -10 -66 -19 -79 -19 -35 -1 -131 -33
-131 -44 0 -5 15 -5 33 -2 18 4 28 4 24 -1 -5 -5 -14 -9 -20 -9 -16 0 -20 -44
-9 -86 8 -32 11 -34 55 -34 62 -1 67 -10 13 -24 -34 -8 -44 -15 -40 -26 4 -8
14 -15 23 -16 10 0 11 -2 4 -6 -8 -2 -13 -22 -13 -45 0 -35 2 -39 15 -28 11 9
19 10 27 2 14 -14 1 -32 -23 -32 -17 0 -20 -5 -14 -28 5 -26 20 -163 30 -283
5 -58 34 -144 87 -258 16 -36 47 -102 68 -146 20 -44 43 -96 50 -115 48 -127
65 -148 135 -163 11 -3 3 -5 -17 -6 -41 -1 -45 -6 -25 -36 7 -11 19 -39 25
-62 8 -28 27 -54 55 -79 38 -33 40 -36 16 -32 -23 4 -25 2 -24 -25 1 -16 9
-34 18 -39 22 -12 22 -36 0 -40 -13 -2 -9 -10 20 -37 20 -19 34 -38 31 -43 -3
-4 0 -8 6 -8 6 0 9 -4 6 -9 -6 -9 22 -26 37 -23 4 1 7 -2 7 -8 0 -5 5 -10 10
-10 6 0 19 -8 30 -18 11 -10 36 -24 57 -31 21 -8 68 -33 106 -57 l67 -44 0
509 c0 477 -1 510 -17 514 -17 4 -17 5 0 6 21 1 24 41 2 41 -8 0 -15 5 -15 10
0 6 7 10 15 10 10 0 15 10 15 34 0 28 -4 35 -22 39 -21 4 -22 4 -2 6 17 1 21
8 22 46 l2 45 -77 1 c-98 1 -136 12 -78 23 22 4 43 13 47 19 5 7 8 3 8 -10 0
-21 5 -23 50 -23 l50 0 0 136 0 137 -37 -6 -38 -5 38 15 37 16 0 83 c0 61 -4
84 -12 84 -10 0 -10 2 0 8 9 7 12 84 10 355 l-3 346 -35 -15z"/>
<path d="M2674 4408 c-10 -16 -12 -209 -2 -237 5 -14 5 -28 0 -33 -16 -16 -24
9 -26 85 -3 95 -20 150 -50 166 -33 18 -47 7 -96 -68 -36 -55 -39 -66 -26 -73
9 -5 16 -13 16 -18 0 -15 -38 -12 -43 3 -2 6 -12 -6 -22 -28 -10 -22 -31 -58
-45 -80 -15 -22 -30 -50 -34 -62 -4 -12 -27 -52 -51 -89 -25 -38 -45 -72 -45
-78 0 -9 -28 -56 -97 -163 -18 -28 -33 -54 -33 -57 0 -4 -11 -23 -23 -44 -55
-87 -128 -213 -172 -297 -26 -49 -54 -97 -61 -106 -8 -8 -14 -20 -14 -26 0 -6
-7 -16 -15 -23 -21 -17 -15 -52 10 -67 12 -7 59 -12 116 -13 95 0 97 0 143 35
25 20 46 39 47 43 0 4 2 18 3 31 2 14 8 27 14 29 7 2 12 10 12 18 0 10 -14 14
-56 14 -34 0 -53 4 -49 10 3 6 34 10 68 10 l62 0 37 60 c41 65 85 96 121 84
27 -9 379 -7 425 2 17 4 32 11 32 15 0 5 11 14 24 20 14 7 26 23 29 39 4 19
16 31 39 40 99 38 127 54 118 65 -10 12 -83 31 -163 40 -26 4 -62 12 -80 20
-21 8 -81 14 -172 15 -78 0 -145 6 -152 11 -14 12 -5 36 39 110 16 25 28 53
28 62 0 8 5 17 11 19 12 4 43 53 82 128 13 25 39 70 59 100 20 30 48 80 63
110 15 30 40 77 55 105 40 69 30 85 -55 85 -37 0 -67 -5 -71 -12z"/>
<path d="M2855 4336 c-14 -18 -25 -35 -25 -39 0 -3 -16 -29 -35 -58 -19 -30
-35 -59 -35 -66 0 -6 -11 -24 -24 -40 -47 -55 -69 -112 -68 -171 0 -51 -1 -54
-11 -29 -6 15 -14 27 -17 27 -10 0 -90 -127 -113 -178 -16 -37 -17 -46 -6 -53
8 -5 71 -9 141 -8 127 1 128 1 141 28 30 60 103 189 132 236 18 28 46 80 63
116 28 59 30 69 21 105 -16 56 -30 79 -38 65 -4 -6 -15 -9 -25 -5 -13 5 -15
14 -10 38 6 35 -5 49 -44 59 -17 4 -28 -2 -47 -27z"/>
<path d="M4400 4180 c-1 -20 -3 -21 -8 -8 -5 12 -11 15 -21 9 -8 -5 -20 -7
-27 -4 -7 2 -15 -5 -19 -16 -3 -12 -13 -21 -21 -21 -8 0 -15 -8 -15 -17 -1
-10 -3 -28 -4 -41 -2 -16 3 -22 14 -21 31 3 51 -1 51 -10 0 -9 -33 -24 -55
-26 -12 0 -7 -42 8 -70 6 -11 10 -24 9 -29 -6 -20 21 -112 36 -123 13 -11 15
-32 13 -115 -1 -57 -2 -111 -2 -121 0 -9 7 -24 16 -33 14 -15 14 -18 1 -33
-29 -32 13 -210 58 -242 5 -4 10 -21 11 -37 3 -32 39 -92 56 -92 6 0 7 -5 3
-11 -8 -14 26 -89 41 -89 8 0 12 -14 11 -38 -1 -52 28 -109 67 -128 27 -15 29
-18 13 -23 -16 -6 -16 -8 -2 -20 9 -7 16 -21 16 -30 0 -29 26 -55 56 -56 27 0
29 -2 26 -37 -2 -33 0 -38 23 -44 14 -3 25 -10 25 -14 0 -10 56 -30 64 -23 3
4 1 12 -5 20 -6 7 -8 14 -3 15 5 0 14 2 19 3 6 2 18 3 28 4 25 2 21 16 -8 29
-30 14 -33 32 -6 32 18 0 18 4 9 38 -5 20 -14 42 -18 47 -5 6 -20 42 -34 80
-15 39 -30 79 -35 90 -5 11 -19 46 -31 77 -12 31 -30 64 -40 73 -11 10 -22 31
-26 49 -3 17 -12 38 -18 46 -7 8 -27 62 -45 120 -18 58 -37 116 -42 129 -5 12
-7 38 -3 56 5 28 3 33 -18 39 -21 6 -22 7 -5 20 13 10 17 28 17 80 0 69 1 67
-47 82 -17 5 -5 34 14 34 31 0 -2 173 -63 332 -22 57 -29 68 -49 68 -13 0 -26
6 -28 13 -3 6 -6 1 -7 -13z"/>
<path d="M3485 3985 c-5 -2 -22 -6 -37 -9 -33 -7 -35 -25 -11 -69 27 -49 45
-67 57 -60 6 4 28 8 49 9 21 1 46 9 56 18 22 20 41 20 41 0 0 -9 7 -14 18 -12
10 2 16 11 14 21 -2 10 4 17 13 17 24 0 18 29 -12 59 -25 24 -36 27 -103 28
-41 1 -79 0 -85 -2z"/>
<path d="M4126 3930 c-16 -22 -42 -44 -58 -49 -15 -6 -28 -14 -28 -20 0 -5 -9
-13 -21 -16 -26 -9 -109 -91 -109 -110 0 -7 -4 -17 -10 -20 -17 -10 -11 -63 7
-74 21 -11 10 -26 -20 -26 -21 0 -38 -27 -86 -134 -19 -43 -22 -58 -12 -72 9
-15 8 -19 -2 -19 -7 0 -19 6 -26 13 -11 9 -12 9 -7 0 4 -7 -2 -20 -14 -30 -25
-22 -25 -46 1 -92 25 -46 78 -70 168 -78 56 -5 130 -31 151 -53 13 -14 75 -38
87 -33 7 3 26 0 41 -5 35 -14 161 -24 141 -11 -12 7 -11 9 2 9 14 0 15 6 7 43
-5 23 -12 54 -15 70 -3 15 -9 30 -14 33 -5 3 -9 20 -9 39 0 51 -9 65 -41 65
-16 0 -29 5 -29 10 0 6 14 10 31 10 l30 0 -6 48 c-16 124 -25 150 -51 156 -28
7 -23 26 6 26 24 0 33 30 25 83 -10 58 -22 77 -48 77 -12 0 -28 4 -35 9 -11 7
-10 10 3 15 9 3 28 6 41 6 13 0 24 5 24 11 0 6 -7 9 -15 5 -12 -4 -15 3 -15
30 0 39 -12 66 -44 100 l-21 23 -29 -39z"/>
<path d="M3339 3915 c-31 -17 -56 -52 -61 -86 -3 -23 -9 -34 -35 -64 -7 -7
-13 -35 -13 -61 0 -42 2 -46 13 -30 12 16 14 16 26 2 17 -20 63 -22 55 -3 -7
18 20 39 40 31 9 -3 16 -9 16 -13 0 -9 54 -6 69 4 21 12 0 25 -40 25 -21 0
-39 5 -39 10 0 6 15 10 33 10 44 0 63 13 44 29 -8 6 -13 21 -10 31 5 18 0 20
-58 21 l-64 1 54 9 c30 5 56 11 58 12 4 5 -50 87 -57 87 -3 -1 -17 -7 -31 -15z"/>
<path d="M2345 3353 c10 -43 98 -193 113 -193 6 0 12 -4 12 -10 0 -5 13 -10
29 -10 16 0 34 -6 40 -14 7 -8 35 -14 76 -15 60 -2 65 0 65 19 0 15 5 20 18
18 9 -2 16 -11 16 -21 -1 -9 3 -17 10 -18 90 -4 110 -16 99 -59 -9 -39 -62
-147 -78 -160 -23 -19 -17 -170 6 -170 5 0 18 -9 30 -21 14 -14 18 -26 13 -42
-4 -12 -9 -28 -10 -36 -3 -16 21 -43 30 -34 3 4 6 -2 6 -13 0 -17 3 -16 20 6
11 14 20 33 20 43 0 9 6 17 13 17 6 0 26 24 42 52 17 28 38 63 48 77 9 14 24
40 32 56 34 68 161 269 173 273 13 4 17 -34 4 -42 -10 -6 -90 -140 -134 -223
-15 -29 -42 -77 -61 -105 -75 -120 -157 -277 -157 -304 0 -8 -4 -14 -9 -14 -4
0 -6 -11 -4 -24 4 -19 13 -25 46 -30 145 -23 172 -20 212 20 44 44 95 133 95
165 0 22 6 32 19 36 10 3 26 21 34 41 9 21 50 91 92 157 81 129 155 273 155
303 0 11 9 27 20 37 24 22 29 95 5 95 -7 0 -18 6 -22 13 -4 6 -17 13 -28 15
-11 1 -35 4 -53 6 -18 2 -41 11 -51 20 -14 13 -51 19 -154 26 -106 7 -148 14
-194 33 -91 38 -265 56 -441 46 -39 -2 -72 -1 -72 4 0 4 -30 7 -66 7 l-66 0 7
-27z"/>
<path d="M2259 3287 c-35 -53 -88 -155 -89 -171 0 -11 102 0 109 13 9 13 32
16 69 7 32 -8 41 -19 22 -31 -11 -7 -4 -25 9 -25 4 0 13 12 20 27 11 25 8 35
-29 110 -23 45 -50 91 -59 102 -17 19 -18 18 -52 -32z"/>
<path d="M3591 3122 c-14 -15 -33 -40 -41 -57 -8 -16 -20 -37 -28 -45 -14 -17
-58 -92 -147 -250 -32 -58 -66 -116 -75 -130 -35 -52 -100 -183 -100 -201 0
-10 -9 -21 -20 -24 -11 -3 -20 -11 -20 -16 0 -19 -83 -98 -113 -108 -18 -5
-72 -13 -122 -16 -111 -8 -145 -19 -145 -50 0 -50 145 -176 250 -219 65 -26
75 -33 72 -46 -2 -10 38 -73 58 -90 9 -8 40 -114 40 -137 0 -37 47 -147 74
-174 23 -22 84 -52 199 -95 12 -4 17 -1 17 10 0 23 21 20 27 -4 6 -22 61 -41
115 -40 18 1 52 -2 76 -5 30 -5 42 -3 42 5 0 7 15 1 34 -14 36 -27 68 -31 139
-20 31 6 36 10 32 25 -4 11 -5 19 -3 19 2 0 23 -6 48 -14 l45 -14 33 35 c37
41 39 53 12 78 -11 10 -20 25 -20 33 0 12 -3 12 -15 2 -9 -7 -19 -10 -23 -6
-7 7 -13 66 -6 66 16 0 54 -22 54 -32 1 -14 34 -58 44 -58 13 0 4 38 -19 79
-30 52 -27 65 5 21 16 -22 25 -28 30 -20 9 15 -4 65 -21 87 -11 12 -8 13 14 8
26 -7 33 1 28 29 -1 5 5 16 13 25 9 11 15 50 19 121 4 93 2 109 -16 139 l-20
33 22 -12 c29 -15 37 -6 23 25 -9 20 -9 25 2 25 17 0 29 59 15 76 -6 8 -7 19
-1 31 19 36 31 69 37 99 5 24 1 36 -21 57 -15 15 -22 27 -16 27 6 0 14 -4 17
-10 9 -14 35 -12 35 3 0 6 16 28 35 47 19 19 35 41 36 50 0 10 2 11 6 3 6 -15
33 -17 33 -3 0 6 5 10 10 10 12 0 110 97 110 109 0 4 -9 16 -21 27 -25 23 -59
86 -59 110 0 24 -40 106 -59 121 -9 7 -24 13 -34 13 -15 0 -17 5 -12 29 6 28
-8 67 -30 84 -5 4 -35 14 -65 23 -30 9 -104 40 -164 70 l-109 54 -99 0 c-65 0
-108 5 -126 14 -45 23 -100 18 -131 -12z"/>
<path d="M1834 3043 c-18 -30 0 -70 49 -109 11 -9 23 -4 58 27 24 21 45 36 47
34 6 -6 -38 -65 -48 -65 -4 0 -10 -7 -14 -15 -4 -10 1 -15 15 -15 13 0 18 4
13 11 -5 8 1 10 20 7 18 -4 29 -1 33 8 2 7 11 10 19 7 8 -3 14 1 14 11 0 9 5
16 11 16 35 0 49 71 17 92 -7 4 -60 8 -118 8 -90 0 -107 -3 -116 -17z"/>
<path d="M2471 3003 c-17 -21 -31 -43 -31 -49 0 -7 -3 -14 -7 -16 -5 -1 -25
-28 -46 -59 -50 -75 -144 -134 -252 -159 -109 -25 -140 -34 -150 -46 -8 -10
-56 -23 -92 -25 -5 -1 -17 -6 -28 -12 -11 -7 -24 -12 -30 -13 -14 -1 -46 -13
-69 -26 -10 -5 -50 -20 -90 -33 -121 -40 -135 -47 -146 -79 -17 -49 -12 -76
20 -106 17 -15 30 -31 30 -34 0 -7 23 -35 70 -85 61 -65 88 -98 115 -140 14
-23 32 -41 41 -41 8 0 13 -4 10 -9 -3 -4 17 -53 43 -107 27 -54 52 -115 56
-134 4 -19 12 -40 17 -47 5 -7 7 -17 3 -23 -15 -24 16 -7 37 20 27 38 44 39
25 3 -7 -16 -21 -43 -30 -61 -11 -23 -14 -39 -7 -55 18 -46 39 -226 38 -341 0
-79 4 -126 13 -143 10 -19 11 -28 1 -44 -10 -16 -10 -19 3 -19 8 0 15 4 15 10
0 14 52 60 62 54 21 -13 48 -12 48 2 0 8 10 14 23 14 26 1 51 18 60 43 3 9 12
16 19 15 7 -2 14 8 16 22 1 14 8 35 14 47 10 21 9 103 -8 465 -3 85 -2 97 14
103 17 6 35 31 97 132 18 29 35 50 39 46 3 -3 6 -2 6 3 0 5 14 25 30 44 16 19
30 44 30 55 0 12 4 25 9 30 5 6 12 67 14 137 3 98 8 133 21 153 15 22 16 40
11 100 -7 71 -6 74 29 135 20 33 36 63 36 66 0 2 11 22 25 44 14 21 22 46 19
54 -3 8 3 19 15 26 12 6 30 29 41 52 29 61 18 68 -100 68 l-99 0 -30 -37z"/>
<path d="M0 2725 c0 -103 2 -115 18 -115 16 -1 16 -1 0 -11 -16 -9 -18 -32
-18 -249 0 -181 3 -240 13 -243 10 -4 10 -6 0 -6 -10 -1 -13 -45 -13 -187 l0
-185 33 25 c19 15 38 26 42 26 5 0 -10 -14 -33 -32 l-42 -32 0 -68 c0 -66 1
-68 20 -58 26 14 25 2 -2 -27 -35 -38 -14 -37 59 1 37 20 77 36 88 36 29 0
119 34 154 59 45 32 61 24 21 -10 l-35 -31 39 22 c31 17 41 18 48 8 6 -10 9
-8 14 7 3 11 20 29 37 40 32 20 32 21 35 112 1 51 -1 106 -5 123 l-8 30 -38
-25 c-42 -29 -46 -26 -16 16 23 32 13 37 -31 14 -17 -9 -30 -11 -30 -6 0 13
26 32 39 29 18 -5 61 75 49 89 -13 17 9 45 31 41 18 -4 55 48 45 63 -3 6 0 10
7 8 29 -3 39 2 39 20 0 49 79 171 111 171 5 0 9 5 9 11 0 5 -4 8 -9 4 -11 -6
-25 31 -17 44 4 5 20 12 36 16 17 4 30 11 30 15 0 19 47 51 102 72 32 11 63
27 69 34 16 19 2 52 -24 56 -16 2 -23 11 -25 32 -2 18 -11 30 -23 33 -23 6
-24 11 -2 35 18 20 21 19 -67 24 -74 4 -250 -15 -250 -26 0 -12 -221 -10 -244
2 -11 6 -29 19 -40 29 -11 11 -27 19 -35 19 -8 0 -24 8 -35 19 -25 22 -79 41
-117 41 l-29 0 0 -115z"/>
<path d="M1055 2780 c-3 -5 -14 -10 -23 -10 -25 0 -26 -48 -2 -102 27 -61 48
-78 96 -76 54 2 85 31 73 71 -4 16 -13 35 -18 41 -6 7 -9 15 -6 17 2 3 -6 18
-19 33 -23 30 -88 47 -101 26z"/>
<path d="M4707 2490 c-31 -3 -57 -9 -57 -15 0 -5 -6 -10 -13 -10 -18 -1 -77
-39 -77 -50 0 -5 -19 -10 -42 -10 -24 -1 -56 -8 -73 -17 -16 -10 -42 -22 -56
-28 -33 -14 -47 -41 -58 -106 -8 -52 0 -94 19 -94 5 0 10 -7 10 -16 0 -12 -6
-15 -26 -10 -25 7 -26 5 -21 -21 3 -15 1 -35 -4 -44 -7 -14 -19 -85 -44 -269
-4 -30 0 -38 25 -55 17 -11 30 -28 30 -39 0 -15 -6 -17 -30 -14 -17 3 -33 2
-35 -2 -2 -4 -11 -53 -20 -109 -9 -56 -23 -117 -30 -134 -16 -37 -69 -97 -86
-97 -6 0 -9 -7 -5 -15 4 -11 -1 -15 -22 -13 -15 1 -41 1 -59 0 -28 -2 -32 -6
-35 -34 -3 -35 -21 -41 -26 -10 -4 25 -38 32 -151 32 -47 1 -113 8 -146 16
-33 9 -82 19 -110 24 -27 4 -78 15 -111 24 -100 26 -128 20 -117 -25 6 -21
219 -221 255 -238 17 -8 50 -38 75 -67 33 -37 51 -51 69 -50 23 1 26 4 28 36
1 8 10 15 21 15 17 0 20 6 17 38 -3 41 11 49 29 16 11 -21 15 -21 122 -15 132
9 151 16 143 57 -3 17 -1 29 5 29 11 0 29 -41 22 -52 -10 -17 10 -6 32 18 20
22 26 24 44 13 29 -19 75 6 60 32 -10 20 0 26 17 9 11 -11 77 29 106 65 16 19
16 20 -2 29 -19 9 -34 35 -25 44 3 3 14 -3 25 -13 11 -10 21 -16 23 -14 41 56
48 110 20 141 -9 10 -13 21 -10 25 4 4 14 -2 22 -13 14 -18 14 -17 15 13 0 18
5 53 12 78 10 36 10 50 0 65 -14 24 -15 33 -3 25 15 -9 28 24 36 91 6 58 5 61
-20 78 -19 13 -24 21 -16 29 7 7 15 6 25 -3 20 -16 20 -16 41 139 20 153 44
212 94 238 20 10 38 21 39 26 2 4 12 7 22 7 10 0 20 7 24 15 3 8 9 14 13 13
15 -4 53 13 53 24 0 6 -8 17 -17 24 -17 12 -17 13 -1 14 9 0 23 -7 31 -15 13
-13 16 -13 21 0 3 8 -4 21 -15 29 -11 8 -16 17 -11 20 14 9 42 -4 42 -19 0 -7
7 -15 15 -19 8 -3 15 -1 15 4 0 5 9 12 20 15 13 4 20 15 20 30 0 14 -9 29 -20
35 -11 6 -20 20 -20 30 0 11 -6 21 -12 22 -7 0 -18 2 -25 2 -6 1 -19 8 -30 16
-13 11 -33 14 -76 10z"/>
<path d="M1211 2403 c-23 -10 -30 -17 -22 -22 6 -4 9 -15 6 -24 -10 -25 24
-77 165 -249 166 -203 201 -254 240 -351 41 -103 61 -204 63 -319 1 -55 6 -94
11 -91 5 4 6 -4 2 -18 -8 -24 -18 -81 -32 -171 -7 -51 -4 -54 27 -38 25 14 25
-1 -1 -31 -15 -19 -21 -21 -28 -11 -11 17 -23 -20 -27 -85 l-4 -43 25 16 c13
9 24 12 24 6 0 -13 -32 -75 -44 -83 -5 -4 -6 -11 -2 -17 3 -6 1 -23 -4 -38 -8
-20 -8 -29 1 -35 9 -5 4 -26 -21 -76 -24 -48 -35 -83 -36 -119 0 -28 -4 -56
-8 -63 -5 -7 -6 -14 -3 -17 2 -3 19 18 37 46 18 27 34 50 36 50 2 0 4 -11 4
-25 0 -15 -11 -34 -26 -48 -28 -23 -54 -75 -54 -104 1 -14 7 -11 29 15 36 42
45 41 26 -4 -21 -50 -20 -54 19 -54 19 0 38 -4 41 -10 10 -16 41 -11 60 10 13
14 22 17 30 10 9 -8 17 5 29 50 9 33 18 60 20 60 2 0 1 -20 -2 -45 -4 -39 -2
-45 12 -39 9 3 19 18 22 33 3 14 10 43 16 65 11 43 2 99 -12 77 -6 -10 -12 -7
-25 13 -14 21 -16 38 -10 97 5 49 4 70 -3 65 -6 -3 -12 3 -14 15 -3 21 -4 21
-35 -8 -35 -33 -43 -32 -43 2 0 24 15 41 40 47 14 3 69 67 84 98 4 8 13 26 21
40 8 14 14 34 14 45 -1 16 -3 14 -12 -8 -6 -15 -16 -26 -21 -24 -19 6 -17 32
3 54 11 11 24 38 29 59 12 49 14 142 2 163 -5 10 -3 23 5 34 7 9 10 28 8 41
-3 13 0 27 6 30 12 8 14 86 4 189 -5 62 -8 67 -29 67 -29 0 -33 30 -5 37 18 5
18 8 7 46 -20 62 -38 100 -59 119 -14 13 -17 24 -12 48 5 24 -2 45 -36 108
-45 82 -77 122 -197 245 -51 52 -84 77 -99 77 -15 0 -23 6 -23 18 -1 9 -12 30
-25 47 -22 27 -31 30 -83 30 -32 1 -62 4 -67 7 -6 3 -25 -1 -44 -9z"/>
<path d="M912 2339 c-47 -16 -91 -50 -92 -72 0 -5 -12 -22 -27 -38 -107 -115
-123 -135 -117 -143 2 -3 1 -4 -2 -1 -4 2 -16 -1 -27 -7 -21 -11 -21 -11 2
-20 19 -7 21 -11 11 -23 -7 -8 -19 -15 -26 -15 -20 0 -19 -99 1 -127 8 -12 12
-29 9 -37 -3 -9 -3 -28 0 -42 6 -22 11 -25 35 -21 25 5 28 3 28 -24 0 -23 -7
-34 -28 -45 -29 -14 -29 -14 -19 12 8 20 7 25 -2 22 -7 -3 -14 -17 -16 -31 -2
-15 -7 -27 -12 -27 -4 0 -3 -13 3 -29 9 -26 7 -35 -16 -70 -15 -23 -32 -41
-38 -41 -6 0 -22 -13 -36 -30 -30 -36 -50 -40 -27 -5 9 14 13 25 10 25 -16 0
-66 -31 -66 -41 0 -6 -16 -27 -36 -47 -24 -24 -34 -30 -29 -17 4 11 10 32 13
48 3 22 1 27 -17 27 -46 0 -132 -55 -178 -113 -11 -14 -33 -32 -50 -39 -17 -7
-60 -41 -97 -74 l-66 -61 0 -617 0 -616 544 0 544 0 4 25 c3 14 1 25 -3 25
-12 0 -11 37 0 45 13 8 66 87 85 127 9 18 27 47 41 63 24 28 23 26 -6 -38 -17
-37 -29 -70 -26 -73 8 -8 72 82 103 144 25 48 44 73 44 56 0 -25 -76 -159
-110 -195 -35 -36 -120 -161 -120 -175 0 -2 11 -4 24 -4 27 0 53 34 63 82 4
19 25 49 53 77 26 25 64 68 84 94 20 27 36 45 36 40 0 -11 -21 -42 -73 -108
-14 -16 -34 -50 -47 -75 -12 -25 -31 -57 -41 -72 -26 -37 -25 -40 23 -36 37 3
43 7 61 43 11 22 45 85 75 139 32 57 51 101 45 103 -7 3 -3 27 13 71 27 78 26
72 17 72 -5 0 -19 -16 -32 -35 -13 -19 -27 -32 -32 -29 -5 3 -14 -7 -20 -23
-7 -16 -13 -23 -16 -15 -3 7 2 23 10 35 15 23 58 139 54 144 -2 1 -14 -16 -27
-37 -27 -43 -40 -50 -40 -22 0 17 20 42 79 95 36 33 39 57 11 82 -11 10 -20
24 -20 32 0 18 30 65 52 81 34 25 50 71 72 212 5 35 5 35 -9 10 -14 -24 -14
-24 -15 -3 0 12 9 37 20 56 12 19 23 45 25 57 4 21 3 21 -20 6 -32 -21 -32 -9
-1 37 37 54 46 98 53 267 5 129 3 169 -12 235 -18 82 -43 145 -57 145 -4 0 -8
7 -8 16 0 35 -113 188 -205 279 -28 28 -61 66 -73 87 -13 21 -36 41 -53 47
-24 8 -29 15 -24 30 10 31 -49 90 -97 97 -28 5 -38 11 -38 25 0 24 -26 23 -98
-2z"/>
<path d="M4965 2283 c-22 -14 -42 -29 -45 -33 -8 -10 -72 -38 -105 -46 -16 -4
-36 -11 -42 -17 -7 -5 -13 -6 -13 -3 0 4 -9 2 -20 -4 -11 -6 -18 -15 -15 -21
4 -5 -7 -9 -23 -9 -17 0 -37 -9 -49 -22 -33 -37 -78 -242 -52 -236 6 2 14 -3
16 -9 3 -7 0 -13 -5 -13 -11 0 -37 -68 -29 -76 2 -3 1 -22 -4 -42 -5 -20 -11
-57 -14 -82 -3 -25 -8 -53 -11 -62 -3 -9 3 -29 12 -44 18 -26 18 -26 -3 -20
-23 7 -20 15 -39 -113 -4 -32 -1 -44 15 -60 27 -27 26 -33 -3 -21 -21 8 -25 5
-34 -18 -5 -15 -10 -37 -10 -48 0 -12 -12 -34 -26 -49 -31 -34 -42 -63 -27
-78 6 -6 11 -20 11 -32 0 -16 -4 -14 -21 13 -24 37 -23 37 -43 16 -20 -19 -21
-68 -2 -83 15 -12 18 -81 4 -81 -4 0 -22 13 -40 30 -33 29 -25 40 14 19 20
-11 20 -10 -2 21 -29 41 -42 45 -78 26 -62 -32 -214 -75 -302 -85 -43 -5 -55
-10 -60 -26 -3 -12 -13 -20 -25 -20 -29 0 -31 -38 -5 -80 24 -38 11 -49 -14
-13 -15 21 -16 20 -16 -36 0 -63 21 -110 85 -191 38 -48 60 -96 70 -149 11
-63 53 -148 90 -182 19 -17 35 -40 35 -50 0 -23 39 -76 40 -54 0 8 -9 39 -19
68 -11 28 -16 52 -11 52 4 0 20 -38 35 -85 25 -80 48 -116 37 -59 -4 23 -3 25
14 16 11 -6 32 -25 48 -42 16 -17 30 -29 32 -27 9 8 -19 77 -51 127 -40 62
-47 91 -10 40 33 -45 32 -27 -5 53 -44 97 -36 106 10 13 22 -44 40 -93 40
-109 0 -15 15 -55 33 -87 24 -45 41 -62 68 -73 l36 -14 -29 76 c-16 42 -38 92
-48 112 -27 50 -25 61 4 19 21 -31 40 -68 94 -177 9 -18 25 -36 37 -39 11 -4
31 -20 44 -35 23 -28 26 -29 122 -29 l98 0 -51 92 c-28 51 -60 106 -71 121
-10 16 -17 30 -14 33 8 8 147 -213 147 -235 0 -8 98 -11 335 -11 l335 0 0 218
0 218 -66 64 c-101 100 -119 135 -24 47 l85 -79 3 61 c3 59 2 63 -33 95 -19
18 -35 40 -35 47 -1 8 -23 32 -50 54 -27 22 -48 41 -46 42 4 4 131 -60 149
-75 31 -28 17 2 -18 37 -41 41 -39 52 4 21 40 -28 41 -11 1 18 -37 28 -40 45
-4 32 35 -14 34 -14 34 25 0 29 -6 38 -42 63 -24 16 -52 40 -63 53 -13 14 3 7
43 -20 l62 -42 0 50 0 49 -49 17 c-26 8 -59 27 -71 40 -32 35 -8 32 55 -5 28
-16 53 -30 58 -30 4 0 7 20 7 45 0 45 -1 46 -62 85 -33 22 -66 40 -71 40 -6 0
-8 3 -4 6 3 3 35 -11 71 -31 l66 -37 0 60 c0 50 -4 62 -22 76 l-23 17 23 -6
c33 -9 27 16 -11 44 -29 21 -25 22 18 5 13 -5 15 17 15 169 l0 175 -40 16
c-22 9 -40 18 -40 20 0 3 18 -1 40 -9 l40 -14 0 190 0 190 -32 42 c-18 23 -40
47 -48 54 -44 37 -121 83 -164 97 -67 23 -134 54 -141 66 -11 18 -49 11 -90
-17z"/>
<path d="M2608 2057 c-14 -6 -29 -19 -31 -29 -3 -10 -12 -18 -21 -18 -26 0
-19 -23 34 -104 28 -42 50 -78 50 -81 0 -2 19 -25 43 -51 23 -26 41 -51 39
-56 -1 -5 6 -11 15 -15 10 -3 24 -11 32 -17 17 -14 138 -45 174 -46 15 0 27 5
27 11 0 5 -5 7 -12 3 -6 -4 -8 -3 -4 4 9 15 47 12 68 -6 17 -14 17 -13 4 31
-13 44 -12 51 7 48 4 0 7 6 7 14 0 29 -23 64 -51 75 -15 7 -40 30 -55 52 -15
21 -40 46 -54 53 -15 8 -34 25 -43 39 -10 14 -37 31 -69 42 -29 9 -62 23 -74
31 -11 7 -24 10 -27 6 -4 -3 -7 -2 -7 4 0 17 -22 21 -52 10z"/>
<path d="M2459 1784 c-30 -37 -17 -184 17 -184 8 0 14 -9 14 -20 0 -11 11 -38
25 -60 14 -22 25 -45 25 -51 0 -7 3 -9 7 -5 4 3 20 -7 37 -22 38 -36 135 -86
198 -102 38 -10 51 -10 63 0 12 10 15 10 15 -4 0 -13 35 -36 54 -36 1 0 0 16
-2 35 -3 21 0 35 7 35 6 0 11 -14 11 -31 0 -26 6 -33 43 -48 48 -21 177 -29
177 -11 0 11 -38 101 -63 150 -7 14 -23 29 -35 35 -12 5 -22 15 -22 21 0 11
-112 54 -141 54 -27 0 -174 62 -209 88 -55 41 -120 104 -120 116 0 29 -83 61
-101 40z"/>
<path d="M2431 1406 c-25 -14 -51 -64 -51 -100 -1 -19 -29 -81 -30 -64 0 11
-44 -36 -59 -64 -7 -15 -24 -29 -37 -32 -24 -6 -84 -61 -84 -77 0 -5 -5 -9
-11 -9 -24 0 -72 -59 -75 -91 -2 -19 -9 -60 -15 -91 -13 -66 -2 -109 34 -126
57 -27 94 -35 138 -33 27 1 54 -1 60 -4 6 -4 30 -8 54 -9 41 -2 44 0 49 29 5
23 9 27 16 15 5 -8 7 -17 4 -21 -7 -13 44 -19 71 -9 17 7 24 7 20 0 -4 -6 33
-10 104 -10 l110 0 5 53 c3 28 8 70 9 92 3 27 4 21 5 -21 3 -99 11 -124 38
-124 16 0 28 8 36 25 14 30 24 32 31 5 3 -12 14 -20 25 -20 12 0 24 -4 27 -10
7 -11 48 -13 82 -4 13 4 21 10 18 14 -3 5 4 6 15 3 11 -3 20 -9 20 -14 0 -5
11 -9 25 -9 24 0 24 2 19 48 l-6 47 26 -30 26 -30 19 23 c11 12 22 22 25 22
12 0 6 -34 -8 -49 -10 -11 -12 -21 -5 -31 8 -13 11 -13 19 1 6 11 18 15 35 11
19 -3 25 0 25 14 0 16 2 17 15 3 10 -9 28 -13 53 -11 33 3 40 9 55 43 20 46
21 69 4 129 -19 71 -58 128 -91 136 -19 4 -31 2 -37 -7 -6 -10 -9 -8 -9 9 0
12 5 22 12 22 6 0 -2 11 -18 25 -20 17 -39 25 -59 23 -20 -2 -29 1 -27 10 1 6
-3 12 -9 12 -5 0 -7 5 -4 10 4 6 3 10 -2 9 -15 -4 -88 13 -100 24 -10 7 -13 4
-13 -11 0 -12 -5 -24 -10 -27 -17 -11 -38 13 -33 38 4 19 -2 26 -34 39 -55 23
-162 52 -168 46 -3 -3 -9 -30 -13 -59 l-7 -54 -5 70 -5 70 -35 6 c-36 6 -132
52 -162 77 -10 9 -18 12 -18 7 0 -4 -7 -2 -15 5 -10 9 -15 9 -15 1 0 -6 -7
-11 -16 -11 -12 0 -15 7 -12 25 7 32 -1 37 -31 21z"/>
<path d="M3491 937 c-5 -12 -9 -65 -10 -118 -3 -169 -18 -194 -126 -204 l-72
-7 28 -75 c31 -78 35 -98 20 -88 -5 3 -19 34 -31 70 -12 36 -30 75 -40 87 -15
19 -20 20 -34 9 -12 -10 -19 -11 -29 -2 -16 13 -28 5 -20 -15 3 -8 0 -14 -5
-14 -6 0 -12 10 -14 23 -2 16 -9 21 -23 19 -11 -2 -51 -5 -90 -8 -116 -8 -115
-8 -115 -59 0 -60 -18 -67 -22 -8 -3 41 -6 48 -25 51 -19 3 -23 -2 -24 -25 -2
-24 -2 -25 -6 -5 -6 30 -41 43 -109 41 l-54 -2 0 -44 c0 -23 -4 -43 -10 -43
-5 0 -10 23 -10 51 0 48 -1 51 -22 45 -13 -3 -67 -6 -120 -6 l-97 0 -4 -72 -3
-73 -2 73 -2 72 -36 -4 c-41 -4 -53 -18 -55 -61 -1 -24 -3 -25 -6 -7 -5 25
-21 29 -29 8 -3 -8 -13 -15 -22 -15 -48 -2 -48 -2 -46 -70 l1 -66 34 -5 c27
-4 37 -1 46 15 11 17 12 18 13 3 0 -12 8 -18 24 -18 13 0 37 -3 54 -6 25 -5
31 -2 37 15 3 12 11 19 16 16 5 -4 9 3 9 14 0 11 5 23 10 26 6 4 10 -10 10
-34 0 -30 4 -41 15 -41 8 0 15 5 15 11 0 8 5 8 15 -1 10 -9 33 -10 73 -6 105
12 97 7 94 67 -2 46 -1 51 10 34 7 -11 15 -38 18 -59 3 -22 11 -41 18 -44 11
-3 12 10 6 68 -5 54 -4 71 5 66 6 -4 11 -29 11 -56 0 -39 4 -52 19 -60 39 -20
101 -9 101 18 0 13 4 11 16 -6 12 -17 25 -22 60 -22 l44 0 1 38 1 37 9 -32 c9
-32 39 -47 39 -20 0 8 4 7 11 -3 8 -11 12 -12 16 -2 7 18 21 15 28 -8 9 -27
28 -14 22 16 -3 20 -1 22 14 13 10 -5 23 -19 29 -30 9 -16 18 -19 43 -14 70
14 68 12 62 68 l-5 52 19 -40 c11 -22 22 -47 24 -57 3 -12 21 -18 63 -24 69
-8 218 0 257 15 43 16 59 68 65 198 4 98 2 115 -15 140 -10 15 -30 49 -44 76
-13 26 -27 47 -31 47 -5 0 -8 5 -8 11 0 6 -13 28 -29 48 -34 43 -68 50 -80 18z"/>
<path d="M3790 485 c-5 -14 -10 -30 -10 -34 0 -4 -13 -28 -30 -53 -51 -76 -92
-87 -334 -88 l-177 -1 7 -32 c5 -27 41 -155 60 -219 3 -10 1 -18 -4 -18 -8 0
-58 160 -76 243 -8 32 -29 32 -34 0 -2 -11 8 -48 21 -81 35 -84 44 -142 23
-142 -9 0 -16 2 -16 4 0 20 -33 160 -46 194 -16 42 -44 58 -44 25 -1 -17 -1
-17 -14 0 -24 32 -35 20 -21 -25 7 -24 21 -91 31 -150 l18 -108 158 0 157 0
-14 48 c-17 56 -17 55 -6 48 4 -3 14 -26 21 -51 l13 -45 343 0 c337 0 344 0
344 20 0 25 -30 55 -63 64 -14 3 -40 18 -57 32 -35 30 -82 118 -78 149 3 31
-46 124 -98 185 -25 30 -50 56 -55 58 -5 2 -13 -8 -19 -23z"/>
<path d="M2342 312 c-7 -5 -23 -7 -35 -5 -17 4 -25 -2 -34 -24 l-11 -28 -1 28
c-1 20 -6 27 -20 27 -15 0 -21 -10 -26 -42 -11 -64 -19 -69 -25 -13 l-5 50
-46 3 c-61 4 -76 -12 -85 -88 -9 -80 -24 -87 -24 -11 0 36 -4 61 -11 61 -5 0
-7 4 -4 10 3 6 -4 10 -18 10 -19 0 -26 -7 -31 -31 -3 -17 -6 -39 -6 -48 0 -14
2 -14 11 -1 9 12 9 11 3 -5 -4 -11 -9 -62 -10 -112 l-2 -93 323 0 323 0 10
132 10 133 -2 -133 c0 -72 2 -132 7 -132 4 0 7 7 7 15 0 8 5 15 10 15 6 0 10
-7 10 -15 0 -10 10 -15 26 -15 25 0 26 2 20 38 -3 20 -6 57 -7 82 l-1 45 -10
-45 c-16 -77 -27 -91 -25 -35 3 102 -3 200 -12 186 -7 -10 -11 -6 -16 17 -7
35 -35 34 -35 -2 -1 -19 -2 -19 -11 -3 -18 31 -38 19 -50 -29 -8 -32 -15 -42
-22 -35 -8 8 -8 20 1 43 15 40 9 48 -33 46 l-33 -1 -9 -71 c-6 -58 -11 -71
-27 -74 -16 -3 -18 0 -12 19 4 13 9 48 13 77 4 41 3 52 -8 52 -8 0 -23 3 -34
5 -11 3 -26 1 -33 -3z"/>
<path d="M1496 299 c2 -4 0 -9 -5 -11 -5 -1 -26 -30 -46 -63 -33 -53 -36 -56
-31 -27 3 18 2 31 -3 28 -11 -7 -72 -157 -74 -184 0 -11 -5 -20 -10 -19 -5 1
-12 -4 -14 -10 -3 -8 3 -13 14 -13 17 0 34 21 69 88 8 15 14 21 14 14 0 -7 -9
-30 -20 -52 -24 -46 -24 -50 -7 -50 8 0 20 24 30 58 9 31 28 73 42 92 l27 35
-7 -35 c-4 -19 -20 -61 -35 -92 l-28 -58 46 0 47 0 29 70 c16 39 31 69 33 67
3 -4 -14 -53 -42 -119 -7 -16 2 -18 94 -18 l101 0 6 27 c18 81 39 146 42 131
2 -10 -4 -42 -12 -72 -24 -83 -23 -86 30 -86 l47 0 -7 62 c-17 147 -22 172
-33 176 -8 2 -13 -6 -13 -22 0 -13 -4 -28 -10 -31 -6 -4 -10 13 -10 44 0 43
-3 51 -19 51 -16 0 -20 -13 -29 -86 -12 -93 -15 -100 -31 -89 -15 9 -14 45 4
95 17 48 19 86 6 94 -19 12 -151 19 -151 8 0 -16 -40 -105 -45 -100 -2 2 2 27
9 54 11 42 11 51 0 51 -7 0 -11 -4 -8 -8z"/>
<path d="M2713 171 c6 -150 11 -171 37 -171 15 0 17 7 14 37 -2 21 -5 72 -8
113 -4 67 -3 73 10 56 12 -18 17 -60 18 -179 1 -26 3 -27 40 -25 l39 2 -7 85
c-4 47 -11 90 -16 95 -6 6 -10 34 -10 63 0 29 -3 53 -7 53 -5 1 -32 2 -62 4
l-54 3 6 -136z"/>
<path d="M2864 270 c3 -18 6 -51 6 -74 0 -26 3 -36 9 -28 10 17 41 -27 41 -58
0 -12 4 -19 9 -15 6 3 13 -11 17 -32 l8 -38 6 30 c6 29 7 29 17 -15 l11 -45 1
38 c1 22 -6 64 -15 94 -9 30 -13 57 -11 60 3 3 9 -11 12 -31 4 -20 10 -34 14
-31 4 2 13 -25 20 -60 9 -46 18 -65 28 -65 20 0 13 78 -19 207 -21 83 -25 93
-45 93 -18 0 -23 -6 -24 -27 l-1 -28 -10 28 c-14 40 -28 33 -30 -15 -1 -37 -2
-39 -5 -11 -3 20 -12 37 -25 44 -20 11 -21 9 -14 -21z"/>
</g>
</svg>
