<?xml version="1.0" standalone="no"?>
<!DOCTYPE svg PUBLIC "-//W3C//DTD SVG 20010904//EN"
 "http://www.w3.org/TR/2001/REC-SVG-20010904/DTD/svg10.dtd">
<svg version="1.0" xmlns="http://www.w3.org/2000/svg"
 width="544.000000pt" height="544.000000pt" viewBox="0 0 544.000000 544.000000"
 preserveAspectRatio="xMidYMid meet">
<metadata>
Created by potrace 1.16, written by Peter Selinger 2001-2019
</metadata>
<g transform="translate(0.000000,544.000000) scale(0.100000,-0.100000)"
fill="#000000" stroke="none">
<path d="M0 4175 l0 -1265 53 5 c28 3 102 1 162 -4 103 -9 143 -20 217 -61 10
-6 29 -10 43 -10 32 0 116 20 130 31 6 4 26 6 45 5 44 -2 90 19 90 42 0 10 5
23 12 30 7 7 9 12 5 12 -4 0 1 9 12 21 32 35 14 63 -43 67 -57 4 -60 18 -6 27
22 4 38 10 36 14 -10 16 -15 101 -6 106 6 3 10 29 10 57 0 41 -3 51 -20 55
-21 6 -38 42 -24 52 5 3 9 15 10 26 0 17 -5 20 -28 17 -37 -6 -118 7 -118 18
0 5 15 11 33 13 26 3 24 4 -13 5 -32 2 -41 5 -33 13 11 11 70 8 126 -6 24 -7
27 -5 27 19 0 15 7 29 15 32 23 9 18 33 -10 46 -14 6 -25 15 -25 20 0 4 -7 8
-16 8 -8 0 -12 -4 -9 -10 8 -14 -43 -12 -133 4 -83 15 -117 35 -62 37 32 1 33
2 10 9 -35 11 72 11 175 0 90 -9 121 2 54 20 -24 7 -48 15 -54 20 -5 4 -32 11
-60 14 -75 10 -156 36 -150 46 10 16 38 12 148 -20 158 -46 172 -41 180 56 3
32 12 91 21 129 10 39 20 86 23 105 3 19 14 47 24 61 l19 27 -32 13 c-25 10
-28 14 -13 19 14 5 9 11 -24 33 -39 26 -51 49 -32 61 10 6 61 -16 61 -26 0 -5
8 -8 17 -8 10 0 -5 15 -34 34 -76 50 -136 100 -125 104 13 4 107 -43 148 -74
31 -24 71 -33 59 -14 -3 6 3 10 14 10 25 0 26 9 6 36 -19 25 -19 38 0 30 24
-9 18 1 -30 45 -53 49 -57 63 -14 54 29 -6 30 -6 20 13 -6 11 -46 42 -88 69
-87 53 -96 61 -106 86 -9 23 30 23 63 0 24 -17 23 -16 -3 18 -33 43 -34 55 -5
35 12 -9 31 -16 42 -16 18 0 17 3 -8 29 -26 27 -27 31 -13 45 8 8 31 16 51 18
30 2 35 5 31 23 -3 11 2 29 10 39 12 16 19 18 40 8 21 -10 25 -9 25 4 0 24 67
84 94 84 13 0 29 -7 36 -15 7 -8 16 -12 21 -9 5 3 36 -23 71 -56 51 -50 63
-58 71 -45 10 18 -20 87 -58 131 -39 45 -29 56 15 18 9 -7 37 -25 63 -38 35
-19 53 -23 70 -17 25 10 97 84 97 101 0 5 5 10 11 10 6 0 9 6 6 14 -5 13 6 23
27 24 20 1 27 32 12 54 -33 46 -13 76 27 41 18 -17 19 -17 28 0 6 10 14 15 19
12 5 -3 6 10 3 30 -6 39 -3 42 32 19 18 -12 25 -13 25 -4 0 9 4 9 17 -1 15
-13 16 -11 10 16 -4 17 -10 46 -14 65 l-6 35 22 -19 c12 -11 26 -39 32 -63 10
-38 33 -72 43 -62 3 2 0 26 -5 53 -5 27 -7 51 -5 53 2 2 13 -11 26 -29 l22
-33 -5 35 c-9 68 12 76 38 14 15 -37 26 -41 47 -21 7 7 48 30 92 52 43 21 80
45 83 52 3 7 15 13 27 13 13 0 28 11 38 28 15 26 15 31 -1 82 l-18 55 -1022 3
-1021 2 0 -1265z"/>
<path d="M2940 5402 c0 -24 5 -39 13 -40 25 -3 174 -32 212 -41 22 -5 79 -19
128 -31 48 -12 92 -18 97 -15 6 3 10 1 10 -6 0 -7 7 -4 15 7 14 18 14 18 15
-9 l0 -29 35 22 c26 16 33 18 29 7 -4 -12 2 -14 30 -12 32 3 35 2 26 -15 -13
-24 -13 -33 0 -25 6 3 10 1 10 -4 0 -6 5 -11 10 -11 6 0 10 7 10 15 0 8 5 15
10 15 9 0 14 -14 11 -33 -3 -20 32 -17 55 3 13 13 24 19 24 14 0 -5 11 8 25
29 27 39 45 48 45 21 0 -14 3 -14 15 -4 19 15 19 13 0 -39 -18 -52 -4 -53 41
-4 26 28 34 33 34 19 0 -14 3 -16 13 -7 8 6 16 8 20 5 3 -3 15 8 28 25 28 38
33 39 49 1 7 -16 19 -30 26 -30 8 0 14 -4 14 -10 0 -5 7 -10 15 -10 23 0 18
-13 -20 -49 -42 -39 -45 -56 -10 -47 33 8 40 -9 27 -67 -11 -54 7 -135 34
-150 23 -13 61 -51 95 -95 l25 -32 39 20 c22 11 40 20 42 20 1 0 -5 -13 -15
-29 -9 -16 -21 -27 -26 -24 -5 3 -6 1 -2 -6 5 -7 16 -9 28 -5 14 4 18 3 13 -5
-5 -8 2 -10 22 -5 15 4 25 3 21 -1 -4 -4 2 -16 13 -26 21 -18 22 -18 41 6 11
14 24 22 29 19 6 -4 3 -14 -7 -25 -9 -11 -14 -22 -11 -26 4 -3 -1 -16 -10 -27
-10 -12 -14 -18 -9 -14 5 4 17 3 28 -3 14 -7 23 -7 34 2 30 25 14 -16 -22 -55
l-36 -40 21 -17 c11 -9 21 -22 21 -28 0 -6 7 -11 15 -11 25 0 57 -40 52 -62
-4 -14 6 -32 33 -61 33 -34 48 -42 91 -47 36 -5 55 -3 64 7 8 7 20 10 28 7 9
-3 16 3 20 15 3 12 13 24 24 28 10 4 36 19 58 33 40 26 152 83 190 96 31 11
99 13 110 5 15 -13 91 -23 184 -27 46 -1 87 -7 90 -12 3 -5 30 -13 59 -17 l52
-7 0 271 c0 264 0 271 -20 271 -11 0 -20 5 -20 10 0 9 14 14 33 11 4 0 7 96 7
214 l0 215 -170 0 c-107 0 -170 -4 -170 -10 0 -5 -7 -10 -16 -10 -8 0 -12 5
-9 10 4 7 -353 10 -1064 10 l-1071 0 0 -38z"/>
<path d="M2926 5254 c-9 -9 -16 -32 -16 -54 0 -21 -4 -42 -10 -45 -6 -4 -10 6
-10 22 0 15 -5 35 -10 43 -7 11 -10 -4 -12 -50 l-1 -65 -6 59 c-9 89 -27 82
-35 -13 -4 -45 -5 -85 -2 -90 4 -5 18 -6 34 -2 19 5 29 15 32 37 l6 29 12 -36
c12 -36 32 -49 75 -49 11 0 17 8 17 24 0 14 5 28 10 31 7 4 9 -3 6 -19 -3 -14
2 -30 10 -37 8 -6 14 -9 14 -6 0 3 26 -1 58 -9 92 -22 97 -20 121 35 32 75 45
76 37 2 -7 -59 -6 -61 18 -70 13 -6 27 -15 31 -20 3 -6 9 -11 13 -11 21 1 33
23 47 93 9 43 19 85 22 94 4 11 2 14 -5 9 -7 -4 -12 -3 -12 2 0 21 -133 71
-262 97 -100 20 -162 19 -182 -1z"/>
<path d="M1985 5118 c-27 -4 -55 -6 -62 -3 -7 2 -15 -5 -18 -16 -4 -10 -15
-19 -25 -19 -11 0 -27 -11 -36 -25 -14 -21 -14 -30 -4 -56 9 -21 15 -27 21
-17 6 10 9 9 13 -2 2 -8 6 -22 9 -30 2 -8 5 -19 5 -23 1 -14 36 -36 45 -28 4
4 3 28 -2 52 -5 24 -8 45 -6 47 5 5 35 -67 35 -84 0 -19 24 -17 48 4 26 22 42
74 41 131 -1 72 -6 78 -64 69z"/>
<path d="M2793 4953 c-9 -24 -35 -53 -47 -53 -6 0 -20 -12 -32 -27 l-21 -27
-16 30 c-18 33 -20 26 -8 -28 13 -55 -5 -46 -24 12 -16 48 -17 49 -48 43 -41
-8 -42 -8 -43 -51 0 -20 -4 -47 -8 -59 -11 -35 1 -59 41 -83 19 -11 33 -23 30
-27 -4 -3 5 -14 18 -25 14 -11 25 -29 25 -41 1 -25 32 -67 50 -67 6 0 9 -4 6
-9 -6 -10 44 -32 113 -51 24 -6 57 -21 74 -33 40 -29 119 -113 135 -144 7 -13
21 -33 29 -43 9 -11 18 -29 19 -42 8 -69 5 -109 -11 -139 -10 -19 -35 -69 -56
-111 -21 -42 -50 -95 -64 -117 -14 -22 -25 -49 -25 -59 0 -10 -5 -23 -11 -29
-19 -19 20 -31 103 -32 78 -1 132 13 125 33 -3 6 7 23 21 39 l26 27 -55 1 -54
2 58 7 c55 7 97 32 97 58 0 5 10 20 23 33 12 13 35 43 50 66 37 54 81 93 140
121 26 13 47 28 47 33 0 5 7 9 16 9 9 0 23 8 30 18 8 10 13 12 14 5 0 -25 80
-9 101 21 4 4 4 17 1 29 -4 17 -1 19 21 15 15 -3 27 -2 27 3 0 4 11 21 25 37
13 16 22 31 19 34 -2 3 11 29 31 58 40 60 43 70 16 63 -13 -3 -18 -11 -14 -21
3 -12 -2 -10 -15 6 -11 12 -25 22 -31 22 -21 0 -11 30 13 42 28 12 41 37 28
50 -5 5 -22 -1 -39 -16 -22 -18 -33 -22 -41 -14 -19 19 -45 1 -39 -29 7 -39
-2 -53 -34 -53 -34 0 -33 -2 -14 43 15 37 10 54 -12 36 -18 -16 -17 0 3 51 17
41 15 58 -6 45 -6 -4 -29 -36 -51 -71 -23 -35 -45 -64 -50 -64 -17 0 -9 18 31
69 22 28 40 53 40 57 0 14 -63 -7 -80 -26 -10 -11 -23 -20 -29 -20 -7 0 2 12
19 26 29 25 30 27 14 45 -12 13 -21 16 -28 9 -22 -22 -45 -11 -52 25 -3 19 -4
41 -1 49 14 37 -52 50 -87 17 l-25 -24 6 36 c7 47 -2 74 -19 55 -25 -26 -40
-67 -34 -91 5 -21 2 -24 -19 -24 -14 0 -25 1 -25 2 0 1 9 23 21 49 28 63 21
94 -10 44 -12 -20 -28 -35 -34 -32 -7 2 -20 -11 -31 -28 -11 -20 -21 -28 -23
-20 -3 7 2 24 11 37 18 28 21 71 5 80 -6 4 -8 13 -5 21 6 16 -10 19 -19 4 -3
-5 -13 -10 -22 -10 -14 0 -14 2 0 23 8 12 18 20 22 19 7 -4 25 17 25 29 0 3
-6 6 -12 6 -7 0 -23 3 -34 7 -27 8 -35 -10 -39 -79 -3 -54 -24 -118 -32 -97
-3 7 0 51 7 98 6 48 10 88 8 89 -2 2 -14 5 -28 7 -20 2 -26 -3 -35 -34 -16
-56 -25 -56 -25 0 l0 51 -59 -5 c-47 -4 -60 -2 -64 10 -8 21 -36 20 -44 -1z"/>
<path d="M1410 4762 c-37 -41 -35 -71 6 -117 20 -22 43 -50 51 -62 18 -28 54
-30 76 -5 24 26 22 36 -25 129 -46 93 -65 103 -108 55z"/>
<path d="M2115 4770 c-7 -12 2 -66 16 -88 18 -29 6 -37 -25 -17 -15 10 -26 27
-26 39 0 15 -7 22 -20 23 -31 3 -25 -38 9 -71 16 -15 31 -42 33 -58 l5 -31
-29 34 c-16 19 -39 57 -52 84 l-23 50 -13 -47 c-11 -43 -30 -66 -30 -37 0 6
-12 25 -26 43 -25 29 -26 29 -20 6 4 -14 10 -33 12 -42 4 -12 0 -18 -11 -18
-14 0 -14 -3 0 -30 17 -34 19 -50 5 -50 -6 0 -18 17 -28 38 -27 58 -46 66 -63
28 -9 -20 -8 -27 10 -45 12 -12 21 -32 21 -46 0 -33 -5 -32 -24 10 -10 20 -21
33 -25 30 -10 -6 -2 -53 10 -61 5 -3 9 -10 9 -16 0 -7 -6 -6 -15 2 -13 10 -15
9 -15 -11 l0 -24 -25 27 c-13 14 -27 38 -31 52 -3 15 -10 28 -14 31 -5 3 -6
-3 -3 -14 4 -15 0 -18 -20 -14 -21 4 -26 0 -32 -27 -7 -30 -9 -31 -40 -26 -23
5 -35 2 -37 -6 -7 -20 13 -46 31 -42 9 3 22 0 30 -5 17 -11 4 -34 -15 -27 -22
8 -16 -8 11 -34 30 -28 27 -35 -9 -19 -15 7 -29 23 -32 35 -3 12 -14 30 -24
39 -18 16 -19 15 -35 -15 -9 -18 -13 -40 -9 -52 5 -17 3 -20 -10 -15 -23 9
-20 -4 9 -43 32 -43 32 -61 0 -26 -27 29 -72 35 -81 11 -4 -9 4 -23 20 -36 32
-25 27 -34 -22 -34 -30 0 -37 -4 -42 -25 -3 -14 -13 -25 -21 -25 -9 0 -23 -8
-32 -17 -16 -15 -13 -20 46 -74 34 -32 51 -50 37 -41 -91 60 -122 77 -116 63
3 -9 8 -22 11 -29 4 -8 -8 -18 -30 -27 -38 -15 -46 -39 -15 -47 11 -3 17 -10
13 -17 -4 -6 1 -5 10 2 18 16 60 7 54 -11 -5 -15 -68 -19 -84 -5 -16 13 -27
-12 -20 -47 2 -14 0 -28 -4 -31 -5 -3 -9 -17 -9 -31 0 -18 -4 -24 -15 -20 -26
11 -27 -12 -1 -38 14 -14 37 -25 51 -25 15 0 24 -4 20 -10 -8 -14 -42 -12 -87
4 -46 17 -51 1 -6 -19 18 -8 31 -15 28 -15 -3 -1 -16 -4 -30 -6 -13 -3 -28 -8
-32 -12 -11 -11 -12 -53 -3 -74 4 -11 3 -18 -4 -18 -8 0 -9 -5 -3 -17 7 -12 5
-24 -4 -39 -13 -19 -13 -22 6 -27 28 -7 25 -24 -5 -31 -21 -5 -25 -12 -25 -45
0 -22 -2 -46 -5 -53 -7 -18 34 -38 78 -38 18 0 39 -5 47 -11 11 -8 -4 -9 -55
-6 -38 3 -64 3 -57 0 8 -3 12 -26 12 -64 0 -33 5 -69 10 -80 8 -14 7 -19 -2
-19 -9 0 -9 -3 2 -10 8 -5 38 -10 65 -11 l50 -2 -47 -10 c-27 -6 -48 -14 -48
-19 0 -18 41 -48 66 -48 21 0 25 -3 19 -17 -17 -42 -17 -53 -1 -53 9 0 16 -7
16 -15 0 -16 12 -18 74 -16 35 1 37 0 25 -15 -7 -9 -22 -20 -34 -25 -13 -6 1
-7 38 -3 48 5 57 4 57 -10 0 -9 -8 -16 -20 -16 -18 0 -19 -3 -10 -20 6 -11 15
-20 20 -20 6 0 18 9 27 20 28 32 45 26 38 -13 l-7 -34 82 -23 c44 -13 83 -27
86 -31 3 -5 23 -9 45 -9 70 0 98 56 62 126 -18 33 -37 127 -34 167 4 54 50
162 117 270 31 50 68 112 82 137 13 25 28 50 32 55 4 6 27 46 50 90 23 44 57
105 75 135 159 268 154 257 133 290 -11 16 -10 23 5 37 10 10 17 14 16 8 -1
-5 -1 -19 0 -30 2 -18 4 -17 26 9 13 16 31 50 41 75 9 25 32 69 51 98 30 45
32 54 21 72 -10 16 -10 23 0 33 9 9 12 9 12 0 0 -7 5 -12 12 -12 6 0 9 2 6 6
-3 3 -2 21 3 41 4 20 5 42 1 47 -4 6 -7 29 -7 51 0 32 -5 42 -22 50 -13 5 -23
13 -23 17 0 17 -41 48 -63 48 -16 0 -28 9 -36 26 -9 21 -14 24 -26 14 -8 -7
-15 -25 -15 -41 0 -41 -15 -43 -45 -7 -27 32 -27 32 -6 40 18 6 20 13 14 35
-3 16 -6 36 -5 46 0 11 -6 17 -19 17 -10 0 -19 4 -19 9 0 11 -39 21 -45 11z"/>
<path d="M5380 4414 c-143 -21 -181 -28 -217 -40 -28 -9 -64 -11 -107 -7 -64
6 -67 5 -122 -33 -31 -21 -59 -45 -61 -51 -3 -7 -11 -13 -17 -13 -13 0 -60
-36 -105 -80 -14 -14 -43 -36 -63 -49 -21 -12 -38 -28 -38 -34 0 -7 -4 -6 -9
2 -8 12 -11 10 -16 -10 -12 -51 -8 -118 14 -234 13 -66 27 -138 30 -160 5 -31
11 -40 31 -46 18 -4 21 -8 10 -12 -8 -3 -22 -8 -30 -11 -8 -4 6 -4 33 -1 50 5
61 -5 25 -23 -17 -8 -19 -11 -7 -11 9 -1 19 -8 23 -16 3 -8 14 -15 25 -15 23
0 36 -16 21 -25 -5 -3 -10 -17 -10 -31 0 -13 -9 -29 -20 -36 -11 -7 -20 -20
-20 -29 0 -9 -7 -30 -16 -47 -15 -30 -14 -36 16 -124 17 -51 42 -117 55 -146
14 -29 25 -56 25 -60 0 -4 13 -34 30 -67 54 -109 139 -339 151 -409 22 -132
-6 -264 -69 -316 -47 -38 -138 -85 -182 -94 -47 -8 -99 -41 -109 -68 -5 -13
-5 -35 0 -51 6 -22 4 -30 -12 -40 -38 -24 -22 -50 59 -91 74 -37 94 -82 31
-69 -36 7 -37 -3 -2 -39 l27 -28 -24 0 c-21 0 -22 -1 -7 -17 13 -15 13 -20 1
-31 -7 -6 -18 -12 -23 -12 -6 0 -8 -6 -5 -14 3 -8 1 -23 -5 -33 -8 -15 -4 -24
27 -50 42 -35 39 -45 -15 -48 -21 -1 -42 -3 -47 -4 -5 0 -6 -23 -4 -51 5 -45
3 -50 -15 -50 -19 0 -19 -1 -4 -12 13 -10 15 -22 11 -51 -7 -40 -25 -47 -57
-22 -20 14 -51 10 -41 -7 3 -5 -1 -17 -9 -26 -8 -9 -24 -37 -35 -62 -32 -71
-89 -141 -156 -191 -66 -50 -206 -101 -338 -123 -50 -8 -78 -19 -100 -38 -29
-25 -32 -33 -36 -107 -5 -91 14 -148 65 -195 15 -14 24 -26 20 -26 -5 0 1 -15
12 -33 11 -19 19 -36 16 -39 -3 -3 4 -31 16 -64 11 -32 22 -70 24 -84 15 -88
49 -170 71 -170 8 0 28 -14 44 -30 16 -17 36 -30 45 -30 8 0 15 -4 15 -10 0
-5 8 -10 18 -10 11 0 32 -7 49 -15 16 -8 58 -19 94 -24 101 -15 199 -66 199
-105 0 -15 40 -16 440 -16 l440 0 0 1313 c0 1008 -3 1316 -12 1325 -9 9 -9 12
0 12 18 0 17 806 0 813 -10 4 -10 6 0 6 9 1 12 103 12 476 0 525 6 478 -60
469z"/>
<path d="M2873 4348 c-6 -7 -23 -40 -38 -72 -15 -33 -34 -66 -41 -74 -8 -7
-14 -23 -14 -36 0 -12 -5 -27 -12 -34 -9 -9 -2 -12 35 -12 62 0 61 -20 0 -22
l-48 -1 50 -7 c48 -7 39 -12 -25 -15 -23 -1 -25 -5 -23 -40 5 -92 17 -154 32
-156 37 -5 61 -3 61 4 0 4 5 5 10 2 6 -3 10 1 10 9 0 8 -9 18 -20 21 -27 9
-25 29 5 45 14 7 25 21 25 31 0 9 3 25 7 35 4 11 3 15 -5 10 -6 -3 -13 -2 -17
4 -10 16 21 12 35 -5 7 -8 10 -26 8 -39 l-5 -25 28 27 c16 15 29 32 29 37 0 6
12 28 27 49 26 39 40 111 23 121 -5 3 -14 22 -21 42 -7 21 -17 42 -23 49 -6 6
-20 23 -31 37 -21 29 -47 35 -62 15z"/>
<path d="M2410 4139 c0 -11 -4 -18 -9 -15 -5 3 -14 -9 -21 -27 -22 -58 -45
-100 -54 -98 -11 3 -46 -49 -46 -68 0 -8 -7 -22 -16 -32 -15 -17 -10 -18 106
-18 68 0 125 -3 128 -6 3 -3 -51 -5 -119 -5 -129 0 -143 -4 -162 -38 -7 -11
-32 -52 -56 -91 -33 -54 -42 -77 -37 -96 5 -20 3 -25 -12 -25 -10 0 -26 -14
-35 -32 -10 -18 -33 -59 -52 -92 -19 -32 -35 -63 -35 -69 0 -6 -11 -22 -24
-36 -41 -43 -116 -194 -109 -220 4 -14 0 -26 -12 -35 -17 -12 -16 -14 11 -23
16 -5 72 -7 126 -4 94 6 98 7 132 40 20 19 36 45 36 57 0 12 7 27 15 34 23 19
8 30 -45 30 -88 0 -89 15 -1 20 l84 5 20 37 c37 72 66 94 134 102 50 6 65 11
75 29 18 31 19 60 2 73 -11 9 -9 13 13 23 l27 13 -24 18 -25 18 30 7 c51 11
55 14 55 35 0 13 -10 24 -25 30 -41 16 -42 38 -4 108 42 78 45 112 11 112 -13
0 -20 4 -17 10 3 6 20 10 36 10 23 0 32 6 40 27 5 15 8 38 4 50 -3 13 -1 23 5
23 6 0 8 10 4 25 -4 15 -2 25 5 25 6 0 11 9 11 20 0 17 -3 19 -19 10 -26 -13
-31 -13 -31 5 0 8 8 15 17 15 15 0 15 2 3 14 -8 7 -43 16 -77 20 -59 5 -63 4
-63 -15z"/>
<path d="M4391 4062 c-1 -7 -16 -21 -33 -32 -29 -17 -30 -20 -11 -20 32 0 39
-19 13 -37 -21 -15 -22 -20 -17 -152 3 -75 6 -138 6 -140 1 -2 12 4 25 12 13
9 27 12 32 7 9 -8 141 32 155 48 11 10 -17 155 -36 194 -19 38 -91 108 -110
108 -8 0 -16 6 -18 13 -4 9 -6 9 -6 -1z"/>
<path d="M4060 3941 c-47 -25 -96 -81 -92 -104 2 -10 10 -16 17 -13 8 3 12 -2
10 -12 -2 -9 -4 -20 -4 -24 -1 -5 -11 -8 -24 -8 -42 0 -65 -26 -77 -88 -13
-66 -37 -127 -57 -143 -7 -7 -11 -20 -8 -29 3 -11 -1 -20 -10 -24 -8 -3 -15
-17 -15 -31 0 -15 -6 -25 -14 -25 -8 0 -18 -9 -21 -20 -3 -11 -10 -20 -14 -20
-5 0 -14 -13 -21 -30 -7 -16 -16 -30 -21 -30 -5 0 -9 -7 -9 -15 0 -8 -8 -23
-19 -34 -10 -10 -21 -30 -25 -44 -3 -14 -17 -38 -30 -52 -13 -14 -41 -59 -61
-101 -20 -41 -42 -80 -49 -87 -11 -11 -50 -75 -86 -140 -8 -15 -44 -78 -79
-140 -35 -61 -80 -141 -99 -177 -19 -36 -44 -81 -56 -100 -13 -19 -34 -52 -47
-73 -35 -55 -102 -97 -158 -98 -25 -1 -75 -6 -111 -13 -65 -11 -65 -11 -68
-46 -1 -19 2 -42 7 -50 8 -12 12 -12 29 3 23 21 32 22 32 2 0 -8 -4 -15 -10
-15 -23 0 -9 -46 20 -65 17 -11 42 -35 56 -53 14 -18 29 -30 34 -27 4 3 21 -8
37 -25 15 -16 38 -30 50 -30 16 0 23 -6 23 -18 0 -11 9 -29 20 -42 11 -12 22
-32 26 -43 4 -11 15 -30 25 -41 11 -11 24 -38 30 -61 6 -22 15 -50 20 -63 5
-13 9 -32 9 -43 0 -11 21 -42 46 -69 36 -39 58 -53 107 -67 57 -17 67 -18 125
-4 48 11 62 19 62 33 0 26 17 22 36 -7 9 -14 19 -23 21 -21 4 4 -11 30 -43 74
-1 2 -12 -1 -23 -8 -15 -7 -27 -8 -39 -1 -15 10 -15 11 5 17 18 5 21 10 13 24
-13 24 -13 60 0 60 16 0 50 -39 50 -57 0 -10 14 -38 30 -62 30 -45 40 -78 18
-65 -7 4 -8 3 -4 -5 4 -6 11 -9 16 -6 5 3 12 -4 15 -15 5 -17 10 -19 21 -9 21
17 18 32 -31 129 -25 50 -42 90 -38 90 8 0 25 -28 90 -147 l34 -63 24 18 c28
21 36 69 19 118 -23 66 23 50 62 -21 10 -19 22 -35 26 -35 5 0 22 -15 38 -32
17 -18 27 -25 24 -15 -3 9 -9 17 -13 17 -4 0 -8 6 -9 13 -1 6 -4 26 -6 44 -2
17 -7 36 -11 42 -3 6 -2 11 4 11 6 0 15 -9 21 -19 9 -18 69 -61 84 -61 12 0
-27 54 -79 110 -82 88 -102 142 -29 78 20 -18 49 -51 64 -74 31 -49 110 -141
110 -127 0 5 -6 18 -14 28 -8 11 -12 25 -9 32 3 7 -5 24 -16 39 -12 15 -21 32
-21 38 0 6 -25 38 -56 71 -44 47 -57 56 -64 45 -7 -11 -12 -12 -20 -4 -9 9 -9
14 -1 18 6 4 11 5 11 2 0 -2 13 -1 29 4 21 6 35 4 48 -7 13 -11 15 -16 5 -20
-10 -4 -10 -8 -1 -19 6 -8 15 -11 20 -9 4 3 13 -4 19 -15 6 -11 8 -20 4 -20
-3 0 -1 -7 6 -15 16 -19 29 -19 37 1 3 9 -8 31 -27 55 -41 52 -33 62 10 12 18
-21 39 -41 46 -45 20 -12 6 25 -22 57 -23 27 -32 55 -17 55 4 0 18 -10 32 -22
l26 -23 -21 25 c-33 38 -39 67 -15 75 17 5 19 9 9 31 -10 20 -9 27 2 34 16 10
49 -5 57 -26 6 -17 24 -19 21 -1 -2 6 3 11 10 9 14 -2 16 24 2 33 -5 3 -10 17
-10 30 0 16 -10 30 -30 42 -31 18 -39 33 -17 33 6 0 -4 14 -23 30 -25 21 -30
30 -18 30 9 0 23 -8 30 -18 7 -10 26 -22 41 -26 20 -5 27 -12 23 -21 -5 -14
21 -35 45 -35 8 0 8 4 -1 15 -9 10 -9 15 -1 15 6 0 11 10 11 23 0 16 -12 28
-42 43 -23 12 -44 26 -46 33 -6 18 12 13 52 -14 l36 -24 6 25 c5 18 1 31 -15
45 -25 24 -27 42 -3 35 22 -7 34 2 50 37 18 42 15 58 -20 95 l-33 34 32 -16
c41 -21 52 -20 47 2 -3 10 4 22 17 31 54 33 109 61 120 61 16 0 162 72 171 85
14 19 8 66 -13 107 -12 23 -23 55 -26 71 -5 34 -24 57 -62 74 -25 11 -25 11
-3 12 27 1 29 17 2 26 -16 5 -18 10 -10 26 12 21 10 22 -40 33 -14 3 -52 12
-85 20 l-60 15 82 -5 82 -6 -5 36 c-4 35 -36 96 -66 127 -32 34 -48 71 -48
113 0 25 -4 48 -10 51 -5 3 -10 19 -10 35 0 23 -5 31 -25 36 -27 7 -32 19 -12
28 6 3 -1 4 -18 1 -16 -3 -43 -1 -60 3 -27 8 -23 9 35 17 36 5 55 10 43 12
-14 3 -23 12 -23 23 0 22 -18 30 -55 23 -19 -4 -26 -2 -21 6 4 6 14 11 22 11
20 0 74 28 74 38 0 5 -12 13 -27 19 l-28 11 24 8 c21 6 23 11 18 50 -2 23 0
47 6 53 7 7 7 14 -1 23 -5 7 -12 33 -14 57 -3 39 -7 46 -32 52 -36 10 -78 -5
-70 -26 7 -18 -9 -19 -39 -3 -12 7 -35 11 -52 9 -26 -3 -27 -1 -16 13 7 9 25
16 40 16 14 0 37 9 51 20 l25 20 -31 0 c-40 0 -49 27 -22 60 l20 24 -28 10
-27 9 24 18 c30 23 24 23 -21 0z"/>
<path d="M905 3903 c-9 -19 -19 -61 -22 -93 l-6 -58 44 -7 c53 -9 65 -15 49
-25 -9 -6 -6 -10 9 -15 20 -6 30 -25 12 -25 -24 0 -71 24 -71 36 0 8 -9 14
-20 14 -16 0 -20 -7 -20 -30 0 -23 5 -30 19 -30 10 0 21 -6 24 -12 6 -17 -10
-58 -23 -58 -5 0 -10 -7 -10 -15 0 -9 20 -20 55 -30 30 -9 55 -18 55 -20 0 -2
-29 -2 -64 2 -57 5 -64 4 -70 -13 -11 -36 -10 -102 2 -117 7 -7 9 -17 5 -20
-3 -4 4 -7 16 -7 12 0 19 -4 16 -10 -4 -6 11 -10 37 -11 24 0 52 -4 63 -8 19
-8 19 -8 -3 -15 -13 -4 -49 -7 -80 -6 -70 3 -87 0 -48 -9 34 -7 38 -22 8 -36
-16 -7 -21 -20 -24 -63 -2 -30 1 -57 7 -60 16 -10 69 -2 85 13 9 8 34 17 58
21 23 3 47 13 53 20 16 20 3 44 -23 44 -24 0 -54 35 -39 45 13 7 42 -5 35 -16
-3 -5 2 -9 10 -9 12 0 16 10 16 39 0 22 -5 43 -10 46 -8 5 -7 11 0 20 7 8 9
18 6 23 -3 4 1 26 9 48 24 68 20 91 -20 105 -19 7 -35 16 -35 20 0 12 34 21
38 10 2 -6 10 -11 18 -11 9 0 14 11 14 35 0 34 -1 35 -41 35 -26 0 -38 4 -33
11 3 6 22 9 40 7 39 -5 37 -6 52 94 9 57 8 58 -22 83 -24 19 -28 26 -17 33 16
12 7 17 -44 27 -21 3 -51 13 -66 21 -26 13 -28 12 -44 -23z"/>
<path d="M3312 3887 c-12 -13 -22 -33 -22 -44 0 -11 -7 -26 -15 -33 -8 -7 -15
-18 -15 -24 0 -7 -11 -27 -25 -46 -31 -42 -31 -57 0 -95 24 -28 25 -29 25 -7
0 12 5 22 10 22 6 0 10 -4 10 -8 0 -13 69 -33 120 -35 43 -2 45 -1 48 28 2 17
13 40 24 51 l19 22 -35 35 c-20 20 -31 39 -26 42 26 16 4 25 -62 25 -51 0 -68
3 -58 10 8 5 36 10 63 10 26 0 47 3 47 6 0 3 -9 19 -21 35 -25 35 -57 38 -87
6z"/>
<path d="M4483 3690 c-23 -10 -56 -18 -72 -18 -53 2 -80 -40 -28 -43 17 -1 18
-2 5 -6 -31 -8 -20 -22 20 -25 l37 -3 -45 -17 c-36 -13 -40 -17 -20 -18 23 -1
23 -2 6 -11 -28 -17 -1 -29 40 -17 19 5 51 8 71 6 36 -3 38 -1 41 30 3 25 -1
32 -15 33 -14 0 -15 2 -3 6 33 12 40 24 25 40 -9 8 -13 19 -10 24 4 5 0 9 -7
9 -7 1 -2 7 12 15 22 13 23 14 5 14 -11 1 -39 -8 -62 -19z"/>
<path d="M2988 3654 c-4 -4 -61 -6 -128 -5 -109 1 -121 0 -137 -19 -10 -11
-25 -20 -35 -20 -10 0 -18 -4 -18 -9 0 -5 -7 -17 -17 -26 -13 -14 -14 -18 -2
-25 15 -10 14 -12 -23 -28 -35 -14 -36 -32 -3 -32 16 0 25 -6 25 -15 0 -18
-17 -20 -23 -2 -2 6 -8 9 -12 4 -20 -18 20 -29 131 -36 66 -4 124 -6 131 -3 6
2 13 13 15 25 2 17 23 29 102 60 55 21 106 47 114 58 9 13 18 17 25 10 8 -6
16 -4 24 4 9 10 9 16 2 20 -6 4 -8 14 -5 22 5 11 -5 14 -52 12 -31 -1 -68 2
-82 5 -14 4 -29 4 -32 0z"/>
<path d="M3572 3583 c-46 -28 -55 -57 -19 -67 22 -6 22 -6 2 -22 -18 -14 -39
-13 -77 1 -24 9 -70 -41 -67 -73 4 -36 -7 -52 -37 -52 -27 0 -27 0 -14 -34 6
-17 6 -27 -2 -32 -13 -8 -40 24 -32 37 3 5 0 10 -5 10 -362 43 -741 21 -741
-43 0 -9 -11 -28 -25 -42 -25 -25 -34 -79 -15 -91 5 -3 7 -11 4 -19 -12 -32
97 -46 195 -25 l51 11 -6 39 c-7 44 6 52 30 17 15 -21 16 -21 16 -3 0 12 3 15
9 10 21 -21 10 -365 -11 -365 -4 0 -2 -11 7 -24 8 -13 13 -30 10 -39 -8 -18
-1 -22 48 -31 33 -6 38 -4 47 18 5 14 18 30 29 35 11 6 23 21 26 33 4 13 15
32 24 43 10 11 37 54 60 96 24 42 53 89 66 105 20 25 24 27 30 12 4 -10 -2
-28 -13 -45 -21 -30 -66 -110 -157 -273 -128 -230 -145 -265 -145 -292 0 -16
-7 -36 -16 -45 -8 -9 -14 -27 -12 -41 3 -24 9 -27 73 -39 120 -23 162 1 235
132 22 41 44 77 50 80 5 3 10 14 10 25 0 10 15 41 34 69 19 28 53 86 77 128
23 43 50 89 59 103 34 49 80 139 80 155 0 8 7 18 15 21 8 3 26 30 41 60 14 29
35 63 45 75 11 12 25 41 31 63 7 23 23 52 35 66 l23 25 -22 7 c-13 3 -38 6
-57 7 -51 1 -29 14 30 17 28 1 53 5 56 8 3 2 11 22 18 43 8 21 14 32 15 24 0
-25 50 83 50 109 0 18 3 21 9 11 6 -10 10 -10 16 -1 9 15 6 17 -37 23 -23 3
-39 0 -41 -7 -3 -8 -12 -8 -34 0 -26 10 -36 8 -71 -13z"/>
<path d="M4638 3240 c-2 -6 -32 -12 -68 -16 -36 -3 -76 -8 -90 -11 -23 -5 -24
-6 -5 -13 11 -5 51 -9 88 -9 43 -1 66 -5 62 -11 -3 -5 -37 -10 -76 -10 -65 0
-69 -1 -69 -22 0 -29 49 -157 145 -383 78 -183 81 -206 34 -260 -29 -33 -59
-50 -148 -85 -31 -13 -32 -14 -12 -21 35 -14 24 -18 -29 -12 -27 3 -50 3 -50
1 0 -3 32 -25 70 -48 39 -24 69 -45 66 -47 -2 -3 -14 0 -25 6 -39 21 -139 48
-151 41 -14 -9 87 -68 130 -77 17 -3 30 -10 30 -14 0 -13 -46 0 -115 33 l-59
28 -13 -23 c-16 -28 -16 -64 -1 -73 7 -5 4 -10 -10 -15 -12 -5 -20 -14 -18
-21 3 -7 7 -25 10 -39 6 -27 43 -50 144 -87 60 -23 68 -14 17 18 -42 26 -45
43 -7 38 25 -3 62 17 62 34 0 4 12 20 28 37 28 31 71 52 182 91 81 28 137 65
157 104 10 18 18 62 19 106 4 111 -36 241 -168 540 -80 182 -77 177 -107 173
-25 -3 -25 -3 -4 6 14 6 21 16 17 25 -7 18 -32 28 -36 16z"/>
<path d="M980 3160 c-36 -10 -75 -22 -88 -27 l-23 -9 24 -26 c34 -36 104 -47
146 -22 16 10 28 21 25 26 -3 4 0 8 6 8 18 0 8 65 -10 66 -8 1 -44 -7 -80 -16z"/>
<path d="M1846 3053 c-14 -4 -17 -11 -12 -34 6 -33 34 -75 55 -84 7 -3 33 12
57 35 57 53 75 51 32 -2 -50 -62 -51 -66 -21 -60 14 3 28 13 31 24 3 14 7 16
13 7 9 -15 59 -24 59 -11 0 5 11 14 24 20 20 9 24 17 21 43 -3 17 -12 37 -22
44 -26 19 -185 31 -237 18z"/>
<path d="M2477 2960 c-29 -32 -47 -60 -47 -75 0 -14 -6 -25 -13 -25 -7 0 -36
-25 -65 -55 -29 -30 -59 -55 -66 -55 -7 0 -30 -8 -52 -19 -21 -10 -79 -29
-129 -41 -49 -13 -97 -29 -106 -37 -8 -7 -23 -13 -32 -13 -9 0 -19 -5 -22 -11
-4 -6 -13 -8 -20 -5 -8 3 -19 -2 -25 -10 -7 -8 -19 -14 -27 -14 -7 0 -26 -11
-41 -25 -15 -14 -33 -23 -39 -20 -7 2 -13 0 -13 -5 0 -6 -6 -10 -14 -10 -8 0
-32 -16 -53 -35 -21 -19 -41 -35 -44 -35 -22 0 -47 -150 -25 -150 23 0 37 -18
40 -52 5 -46 69 -118 99 -110 13 3 18 1 13 -6 -10 -17 38 -152 54 -152 4 0 10
-9 13 -21 5 -17 9 -19 26 -10 25 14 31 14 31 1 0 -5 -6 -10 -14 -10 -19 0 -26
-47 -10 -61 8 -6 14 -17 14 -24 0 -16 48 -75 61 -75 6 0 16 15 24 33 18 43 39
60 63 53 12 -4 25 1 37 14 23 26 35 26 28 0 -7 -25 -52 -62 -65 -54 -13 8 -37
-15 -59 -58 -20 -39 -20 -39 1 -65 11 -14 20 -20 20 -14 0 7 4 10 9 7 5 -4 21
-2 35 4 l26 10 -15 -36 c-23 -56 -18 -68 14 -32 32 37 56 79 44 77 -25 -4 -33
4 -33 36 0 24 5 35 15 35 9 0 15 9 15 22 0 16 3 19 11 11 7 -7 6 -21 -5 -48
-20 -47 -20 -45 5 -40 19 4 21 1 16 -30 -3 -19 -18 -51 -33 -70 -15 -20 -25
-38 -22 -40 9 -9 69 36 78 59 9 24 46 56 65 56 7 0 7 -3 0 -8 -13 -9 -45 -70
-45 -86 0 -7 -11 -23 -25 -36 -14 -13 -25 -29 -25 -37 0 -7 -5 -13 -11 -13
-12 0 -38 -29 -39 -42 0 -17 19 -7 25 12 3 11 15 20 25 20 22 0 80 64 80 88 0
9 11 30 25 46 28 33 31 51 12 63 -8 4 -18 28 -23 52 -9 43 -10 44 -27 27 -22
-22 -27 -18 -16 12 5 12 19 26 31 31 13 5 33 20 44 34 12 13 28 27 35 29 8 3
14 23 15 54 1 27 3 50 3 52 3 10 31 -29 31 -43 0 -17 44 -38 69 -33 10 2 16
13 15 31 -1 15 0 27 2 27 22 0 54 -23 54 -40 0 -19 8 -24 41 -21 15 2 64 -53
88 -98 9 -16 16 -20 20 -12 6 9 11 8 21 -4 9 -11 22 -14 45 -9 39 7 100 -19
117 -49 10 -20 11 -20 24 -2 17 24 20 20 28 -34 3 -25 9 -48 13 -51 16 -13 89
-29 121 -27 l33 2 -3 55 c-6 76 -6 76 -72 144 -57 58 -62 61 -110 62 l-51 0 3
32 c2 24 -1 32 -12 32 -9 0 -16 7 -16 15 0 7 -6 18 -14 22 -7 4 -16 15 -19 23
-4 12 -6 12 -6 -2 -1 -23 -59 -28 -91 -7 -14 9 -37 19 -52 23 -28 6 -37 29
-18 41 8 5 7 12 -1 22 -9 10 -23 13 -46 8 -18 -3 -33 -3 -33 0 0 3 10 25 22
48 18 34 22 55 19 115 -2 57 1 73 13 78 13 5 14 18 10 67 -3 34 -9 71 -14 82
-4 11 -13 33 -19 48 -21 53 -11 120 32 202 37 72 55 216 27 221 -8 1 -29 5
-45 9 -27 6 -35 1 -78 -45z"/>
<path d="M6 2823 c-7 -8 -8 -1323 -1 -1323 3 0 18 11 33 26 15 14 39 28 54 31
15 3 35 13 45 22 10 9 28 15 40 13 17 -3 21 0 17 12 -5 12 1 16 23 16 16 0 56
8 89 18 58 19 141 42 219 63 73 20 125 41 125 50 0 5 6 9 14 9 7 0 26 17 42
37 25 33 29 47 29 103 0 60 -2 64 -25 70 -23 5 -25 11 -28 69 -3 57 -5 63 -22
58 -29 -7 -35 11 -14 36 11 12 25 32 32 45 12 22 12 22 -29 16 -40 -7 -41 -6
-34 17 9 27 29 49 44 49 6 0 11 4 11 8 0 5 10 14 23 21 22 11 22 11 -3 5 -14
-4 -28 -11 -31 -17 -4 -5 -13 -7 -20 -5 -9 3 3 21 35 52 27 25 46 50 42 54 -4
4 -12 -1 -17 -11 -6 -9 -15 -17 -20 -17 -6 0 -7 5 -3 11 5 8 2 9 -11 2 -23
-13 -65 -4 -65 15 0 30 86 90 151 105 14 4 40 20 57 37 18 16 36 30 41 30 4 0
6 11 3 26 -4 22 -8 24 -36 18 -31 -7 -63 -12 -122 -18 -17 -2 -46 -7 -64 -11
-23 -5 -30 -4 -26 4 4 6 12 11 17 11 6 0 18 8 27 17 16 16 16 16 -3 9 -11 -4
-35 -10 -54 -13 -52 -9 -30 12 34 32 30 10 55 22 55 28 0 5 13 7 30 4 17 -4
30 -2 30 3 0 6 -22 10 -50 10 -49 0 -72 18 -27 22 12 1 31 2 42 3 11 1 19 7
17 13 -1 7 8 12 20 12 21 0 21 0 -3 21 -22 20 -32 21 -144 15 -106 -5 -126 -4
-173 14 -29 11 -81 22 -114 25 -34 2 -64 9 -68 14 -6 11 -224 24 -234 14z"/>
<path d="M1388 2254 c-52 -60 -56 -69 -33 -81 8 -5 15 -23 17 -40 2 -26 5 -30
19 -22 10 5 20 9 23 9 11 0 6 -28 -5 -32 -6 -2 9 -33 35 -68 113 -161 154
-226 162 -265 1 -5 12 -37 24 -70 15 -41 26 -105 33 -205 l12 -145 33 -1 c42
-1 67 31 53 67 -5 13 -10 20 -10 14 -1 -5 -8 0 -16 12 -17 25 -9 55 25 91 11
12 18 27 14 33 -3 6 3 20 14 32 10 12 26 37 35 54 30 62 -3 229 -64 323 -9 14
-27 42 -40 62 -29 45 -53 45 -74 1 -18 -37 -31 -48 -40 -33 -4 6 1 20 10 30
20 22 33 100 17 100 -6 0 -14 -9 -17 -20 -3 -11 -11 -20 -16 -20 -13 0 -11 24
2 37 9 9 9 19 0 41 -16 39 -127 152 -149 152 -9 0 -38 -26 -64 -56z"/>
<path d="M1151 2040 c-13 -11 -29 -20 -37 -20 -7 0 -19 -10 -25 -22 -12 -22
-12 -22 14 -5 25 16 26 16 20 0 -3 -10 -24 -39 -46 -66 -41 -50 -58 -54 -105
-28 -16 8 -22 18 -17 29 3 10 -4 7 -18 -9 -15 -15 -27 -44 -31 -72 -4 -26 -15
-55 -25 -65 -10 -9 -21 -29 -25 -45 -12 -52 -102 -127 -176 -147 -25 -7 -49
-15 -55 -20 -9 -7 -97 -29 -240 -60 -67 -15 -150 -50 -210 -89 -22 -14 -52
-31 -68 -38 -19 -8 -27 -19 -27 -36 0 -13 -11 -35 -23 -48 -59 -60 -57 -38
-57 -696 l0 -603 2188 1 c1203 0 2196 4 2207 9 14 6 15 9 5 9 -9 1 -75 20
-148 43 -107 35 -142 51 -188 88 -61 49 -98 98 -107 145 -4 17 -9 45 -13 63
-3 17 -10 32 -15 32 -5 0 -9 8 -9 19 0 24 -70 101 -92 101 -16 0 -24 -12 -68
-100 -23 -44 -46 -65 -95 -86 -35 -14 -99 -16 -572 -15 -542 2 -539 2 -534
-31 0 -5 -3 -8 -9 -8 -5 0 -10 9 -10 20 0 19 -10 20 -488 22 l-489 3 -39 27
c-21 15 -45 37 -53 49 -18 30 -30 128 -20 159 5 14 13 54 18 90 6 36 17 103
26 150 91 476 105 745 49 901 -28 78 -96 188 -156 253 -21 23 -38 44 -38 49 0
10 -38 9 -61 -3 -28 -15 -40 -4 -29 25 12 32 -5 33 -37 3 -13 -12 -26 -18 -30
-14 -5 4 3 16 16 27 28 23 15 25 -17 3 -27 -19 -41 -12 -22 11 17 20 10 18
-19 -5z"/>
<path d="M2408 1856 c-3 -13 1 -35 8 -47 8 -14 13 -57 14 -101 0 -60 3 -78 14
-78 8 0 17 7 20 16 11 28 25 5 19 -31 -5 -30 -3 -35 13 -35 12 -1 26 -16 39
-43 11 -23 28 -43 38 -45 27 -5 71 -49 55 -55 -9 -4 -8 -6 3 -6 27 -2 39 81
19 134 -5 14 -11 39 -12 56 -3 38 -28 61 -64 57 -28 -3 -29 -2 -26 36 3 28 1
36 -8 31 -17 -11 -30 14 -30 58 0 27 -5 40 -17 44 -10 4 -22 12 -26 20 -14 23
-54 16 -59 -11z"/>
<path d="M4261 1477 c-17 -17 -15 -21 39 -88 55 -69 55 -102 0 -55 -17 14 -38
26 -45 26 -18 0 -8 -34 15 -55 10 -9 16 -23 13 -31 -7 -18 -23 -18 -23 1 0 8
-10 19 -22 26 l-21 11 22 -31 c21 -29 23 -61 3 -61 -4 0 -23 16 -42 35 -55 57
-70 38 -24 -30 30 -45 19 -67 -16 -30 -32 34 -53 34 -40 -1 15 -38 12 -54 -10
-54 -13 0 -41 26 -77 73 -43 54 -63 71 -78 69 -33 -6 -39 -19 -25 -51 7 -18 9
-42 5 -58 l-7 -28 -19 25 c-11 14 -26 32 -32 40 -7 8 -20 31 -30 50 l-18 35 6
-35 c4 -19 14 -41 23 -47 9 -7 13 -13 9 -13 -4 0 -1 -13 8 -30 8 -16 15 -32
15 -36 0 -11 -33 20 -53 51 -16 25 -18 26 -14 8 7 -31 -11 -29 -23 2 -13 35
-18 31 -16 -14 0 -22 -3 -43 -7 -47 -15 -15 -46 32 -61 95 -17 67 -36 90 -73
91 -12 0 -25 5 -28 10 -4 6 -9 8 -13 6 -4 -2 -36 2 -72 10 -60 13 -201 19
-172 7 6 -2 12 -11 12 -18 0 -8 11 -26 25 -41 14 -15 25 -30 25 -34 0 -4 19
-20 43 -36 23 -16 44 -32 45 -36 2 -5 8 -8 14 -8 5 0 23 -13 38 -30 15 -16 31
-30 36 -30 10 0 93 -64 94 -72 0 -4 9 -22 19 -39 l19 -31 52 48 c45 42 59 49
108 55 32 4 95 12 142 17 104 13 176 30 214 51 51 29 151 134 165 174 15 44 3
68 -32 64 -16 -1 -30 11 -52 45 -33 52 -47 62 -64 45z"/>
<path d="M2492 1313 c-1 -7 -8 -13 -16 -13 -8 0 -20 -20 -27 -45 -16 -55 -26
-58 -21 -7 4 38 -5 41 -13 4 -6 -32 -34 -82 -46 -82 -7 0 -9 12 -7 29 2 17 1
28 -4 25 -4 -3 -8 -15 -8 -27 -1 -39 -17 3 -23 58 -3 28 -6 51 -6 51 -1 1 -12
-1 -25 -3 -24 -5 -31 -19 -77 -155 -18 -52 -28 -47 -21 10 l5 47 -30 -27 c-16
-16 -33 -28 -37 -28 -5 0 -6 26 -3 57 3 32 3 53 -1 48 -4 -6 -24 -19 -46 -30
-84 -43 -110 -89 -139 -250 -26 -139 -31 -229 -14 -243 22 -19 82 -22 457 -23
l345 -2 3 154 c2 85 0 182 -3 216 -6 55 -9 62 -23 54 -32 -17 -71 -10 -74 12
-2 13 -13 23 -28 27 -20 5 -27 15 -35 55 -6 28 -16 61 -22 75 -9 22 -11 19
-17 -34 -9 -67 -15 -86 -27 -86 -4 0 -10 33 -12 73 -1 39 -4 66 -5 60z"/>
<path d="M1662 1258 c-7 -26 -12 -58 -12 -71 0 -13 -9 -60 -19 -103 -11 -44
-27 -126 -36 -184 -9 -58 -29 -159 -43 -225 -14 -66 -27 -145 -30 -175 -3 -48
-1 -58 21 -78 21 -20 42 -25 128 -33 142 -13 1901 -4 1951 11 37 11 43 19 60
80 36 135 23 281 -34 392 -17 35 -31 70 -30 78 2 11 1 12 -6 3 -6 -9 -19 -2
-47 26 -41 40 -65 43 -65 10 0 -10 -3 -19 -7 -19 -5 0 -8 -62 -8 -138 -1 -90
-5 -145 -13 -160 -29 -52 -2 -50 -817 -56 -512 -4 -772 -2 -797 4 -52 15 -62
39 -54 124 7 80 31 254 42 303 3 18 3 41 -2 50 -7 18 -10 27 -13 39 0 4 -8 1
-16 -6 -23 -19 -48 -4 -42 26 3 19 1 24 -10 20 -20 -8 -25 14 -14 62 8 40 8
42 -14 42 -13 0 -26 6 -28 13 -4 9 -8 9 -15 -2 -8 -11 -10 -11 -14 0 -2 7 -10
-8 -16 -33z"/>
<path d="M2990 1140 c0 -5 -9 -10 -19 -10 -10 0 -22 -8 -25 -17 -5 -12 -10
-13 -18 -5 -14 14 -37 -13 -38 -45 0 -18 -6 -23 -27 -23 -14 0 -34 -7 -44 -16
-16 -15 -19 -14 -35 5 -10 11 -21 18 -26 15 -11 -7 -10 -305 1 -323 13 -21
459 -16 509 5 19 8 43 14 53 14 10 0 21 9 24 20 4 11 11 17 17 14 7 -5 9 18 5
71 -8 103 -43 165 -101 178 -30 8 -37 13 -33 28 3 10 -2 24 -10 31 -14 11 -70
35 -98 41 -5 2 -15 6 -22 10 -6 4 -14 3 -17 -2 -4 -6 -17 -4 -34 5 -31 16 -62
18 -62 4z"/>
</g>
</svg>
