<?xml version="1.0" standalone="no"?>
<!DOCTYPE svg PUBLIC "-//W3C//DTD SVG 20010904//EN"
 "http://www.w3.org/TR/2001/REC-SVG-20010904/DTD/svg10.dtd">
<svg version="1.0" xmlns="http://www.w3.org/2000/svg"
 width="544.000000pt" height="544.000000pt" viewBox="0 0 544.000000 544.000000"
 preserveAspectRatio="xMidYMid meet">
<metadata>
Created by potrace 1.16, written by Peter Selinger 2001-2019
</metadata>
<g transform="translate(0.000000,544.000000) scale(0.100000,-0.100000)"
fill="#000000" stroke="none">
<path d="M0 4180 l0 -1260 93 0 c87 0 194 -21 207 -40 3 -4 22 -15 43 -25 38
-18 57 -17 212 1 62 7 84 24 32 24 -39 0 -52 22 -21 34 28 11 44 7 38 -9 -4
-10 0 -15 14 -15 11 0 22 -5 24 -11 6 -18 112 -2 137 20 26 22 27 49 4 67 -14
10 -15 15 -6 25 12 12 9 114 -4 149 -4 8 -5 19 -4 25 1 5 0 40 -4 77 -6 58
-10 68 -26 68 -27 0 -24 18 4 22 13 2 21 9 18 18 -2 8 -3 61 -4 118 l0 102
-33 0 c-48 0 -50 16 -4 24 30 5 41 11 45 29 11 53 10 61 -10 65 -33 6 -44 24
-13 20 15 -1 28 2 30 7 2 6 -12 11 -29 13 -41 4 -43 22 -3 22 22 0 33 6 40 23
12 28 40 152 40 177 0 23 -53 59 -125 85 -50 18 -90 45 -68 45 6 0 49 -18 94
-40 91 -44 121 -51 98 -24 -11 14 -10 16 11 12 22 -3 25 1 28 34 2 28 -2 40
-20 52 -24 17 -20 19 25 16 38 -2 36 26 -3 35 -29 6 -38 19 -21 29 4 3 17 -1
27 -8 22 -17 49 -6 57 23 6 24 -43 79 -93 105 -44 22 -96 63 -89 70 3 3 20 -5
39 -17 18 -12 42 -27 52 -33 10 -6 29 -20 41 -30 12 -10 33 -25 45 -32 23 -13
24 -13 17 20 -5 30 -4 31 8 16 8 -10 17 -18 20 -18 12 0 16 32 7 55 -6 16 -6
25 0 25 6 0 10 5 10 11 0 6 9 18 20 27 20 17 20 17 -5 45 -14 15 -21 27 -16
27 5 0 12 -4 16 -9 4 -8 45 -12 45 -4 0 1 -23 23 -50 49 -28 26 -50 52 -50 59
0 7 -22 32 -48 56 -27 24 -75 68 -106 96 -32 29 -62 50 -68 47 -5 -3 -18 2
-29 12 -14 12 -18 13 -14 3 4 -8 36 -38 71 -67 35 -29 71 -68 80 -85 9 -18 30
-47 47 -64 17 -18 26 -33 20 -33 -7 0 -15 4 -18 10 -3 5 -14 14 -25 20 -15 8
-17 7 -13 -10 3 -11 9 -20 14 -20 15 0 80 -62 95 -91 8 -16 13 -29 12 -29 -2
0 -28 23 -58 51 -59 54 -170 133 -177 125 -13 -13 -227 149 -267 202 -45 59 4
27 179 -115 75 -62 116 -83 79 -41 -20 23 -10 19 38 -14 14 -10 29 -18 33 -18
14 0 -19 32 -80 78 -39 30 -51 36 -35 18 l25 -28 -27 13 c-16 7 -28 16 -28 20
0 4 -9 11 -20 14 -11 3 -20 11 -20 17 0 5 7 8 15 4 22 -8 18 2 -6 15 -15 8
-19 8 -15 0 11 -17 -6 -13 -39 9 -31 21 -28 27 6 10 34 -19 20 -3 -31 35 -52
38 -60 54 -35 75 17 14 59 1 91 -28 11 -10 33 -26 49 -36 l30 -19 -19 21 c-27
31 -69 126 -57 130 5 2 7 10 4 19 -5 12 -1 14 15 9 17 -6 21 -4 16 9 -4 9 -3
15 2 14 22 -4 33 2 28 15 -4 11 0 13 15 9 12 -3 21 -9 21 -14 0 -5 5 -9 11 -9
8 0 8 4 1 13 -5 6 -13 23 -17 36 -5 18 -4 22 5 16 8 -5 11 -4 7 3 -14 21 3 38
36 36 34 -2 48 -16 124 -117 40 -53 97 -100 76 -63 -5 9 -36 46 -69 83 -77 86
-114 153 -84 153 6 0 20 -12 33 -27 12 -15 40 -46 61 -70 21 -24 36 -46 33
-50 -4 -3 4 -21 18 -39 14 -18 25 -37 25 -43 0 -5 4 -13 10 -16 6 -4 7 1 4 12
-5 16 -4 16 10 -1 21 -26 20 -37 -1 -29 -17 7 -17 5 -2 -17 9 -13 24 -29 35
-34 48 -27 71 -46 71 -60 0 -19 -8 -20 -27 -3 -8 6 -6 1 6 -13 43 -53 45 -57
29 -57 -8 0 -12 3 -10 6 2 4 -15 15 -37 26 -22 10 -58 39 -80 64 -36 41 -68
61 -68 41 0 -4 22 -29 50 -56 27 -26 47 -51 43 -57 -3 -5 -8 -5 -12 -1 -20 27
-81 76 -76 62 4 -10 4 -18 -1 -18 -4 0 -17 8 -28 18 -20 16 -20 16 -6 -1 11
-15 11 -20 1 -27 -10 -6 -2 -19 33 -52 25 -25 46 -50 46 -57 0 -7 -5 -9 -10
-6 -24 15 -7 -15 23 -42 18 -16 43 -46 56 -66 23 -38 24 -38 38 -17 8 12 13
30 10 40 -3 13 0 17 9 13 17 -6 18 2 3 28 -9 18 -9 19 11 7 11 -7 23 -22 26
-32 6 -19 7 -19 25 3 19 23 18 64 -2 85 -5 6 -9 17 -9 25 0 11 5 9 20 -7 32
-34 76 -29 100 10 11 18 16 35 12 38 -17 13 -55 60 -48 60 4 0 20 -14 36 -32
23 -25 33 -29 42 -20 9 9 7 13 -5 18 -9 3 -17 10 -17 16 0 5 5 6 10 3 14 -9
12 1 -3 17 -22 23 -67 85 -67 92 0 5 17 -6 38 -23 20 -18 42 -36 48 -41 7 -5
14 -14 16 -20 6 -20 53 6 76 41 21 33 21 34 1 65 -20 33 -26 68 -10 62 6 -1
20 -18 33 -37 27 -41 42 -45 46 -12 2 13 12 26 23 28 27 7 24 31 -6 39 -14 3
-25 10 -25 15 0 4 -23 48 -51 96 -50 87 -99 197 -99 223 0 10 3 10 15 0 8 -7
15 -18 15 -25 0 -15 35 -47 43 -39 3 4 3 20 0 37 -8 37 10 30 33 -15 8 -16 18
-28 21 -25 3 3 -3 19 -12 35 -14 23 -16 37 -8 68 13 56 33 53 73 -10 39 -61
54 -70 46 -28 -3 15 -8 44 -12 65 l-6 37 -749 0 -749 0 0 -1260z m395 -537
c50 -9 115 -23 145 -32 52 -15 53 -15 22 -19 -18 -2 -39 1 -45 7 -7 5 -81 10
-172 10 -165 1 -205 10 -205 47 0 13 12 14 83 9 45 -3 123 -13 172 -22z"/>
<path d="M1530 5434 c0 -3 9 -19 20 -34 11 -16 32 -59 46 -97 42 -112 75 -181
90 -187 21 -8 17 26 -10 92 -39 95 -58 160 -54 189 4 27 5 26 26 -17 12 -25
22 -54 22 -64 0 -32 79 -186 95 -186 8 0 21 12 29 28 8 15 15 21 16 15 0 -19
37 -16 44 3 3 9 1 34 -6 55 -17 57 3 73 28 22 18 -35 22 -38 59 -36 63 4 71
20 57 103 -7 39 -12 80 -12 93 1 22 1 21 15 -3 7 -14 17 -43 21 -65 9 -58 19
-66 55 -48 24 12 29 20 25 37 -3 11 -6 40 -6 64 l0 42 -206 0 c-192 0 -206 -1
-199 -17 3 -10 10 -36 15 -58 5 -22 13 -58 19 -80 5 -22 8 -41 6 -43 -4 -4
-29 75 -46 146 l-13 52 -68 0 c-37 0 -68 -3 -68 -6z"/>
<path d="M2932 5403 l3 -38 95 -17 c52 -9 120 -24 150 -32 30 -8 69 -17 85
-20 17 -2 63 -16 103 -30 l72 -25 1 22 1 22 6 -23 c6 -18 14 -4 45 71 42 106
42 107 23 107 -9 0 -23 -27 -37 -75 -12 -41 -25 -75 -29 -75 -7 0 2 77 15 128
l5 22 -270 0 -271 0 3 -37z"/>
<path d="M4150 5427 c0 -7 -12 -29 -26 -48 -73 -97 -80 -171 -8 -85 20 25 41
43 45 40 11 -7 -8 -53 -37 -91 -14 -18 -20 -33 -15 -33 6 0 11 5 11 10 0 6 5
10 10 10 20 0 9 -20 -31 -59 -48 -46 -100 -121 -93 -133 3 -5 10 -6 15 -3 15
10 10 -5 -13 -38 -15 -22 -17 -28 -5 -18 10 8 17 9 17 3 0 -6 -9 -16 -20 -22
-20 -11 -28 -40 -11 -40 5 0 23 17 40 37 31 37 41 60 21 48 -19 -12 -10 12 13
33 30 28 41 28 26 0 -12 -23 -12 -23 10 -4 28 25 28 5 -1 -43 l-21 -36 35 40
c20 22 45 50 56 63 21 24 47 30 39 10 -2 -7 -34 -53 -71 -102 -65 -87 -81
-126 -51 -126 8 0 15 6 15 13 0 9 2 9 9 -1 5 -9 27 9 75 63 65 71 120 117 99
82 -4 -8 -33 -43 -63 -77 -78 -89 -85 -99 -71 -113 8 -8 11 -8 11 1 0 7 3 11
8 10 4 -2 49 39 100 91 51 52 95 91 99 87 4 -3 -14 -28 -38 -54 -80 -83 -159
-179 -153 -185 11 -11 126 92 117 106 -3 5 -1 7 4 4 6 -4 16 0 23 8 7 8 19 15
28 15 8 0 34 16 57 35 23 19 45 32 48 28 4 -3 13 0 22 7 28 23 26 3 -2 -22
-15 -13 -37 -35 -48 -48 -14 -17 -8 -14 19 8 21 19 45 31 53 28 8 -3 11 -1 8
4 -3 6 1 10 9 10 22 0 20 -9 -6 -37 -12 -13 -18 -26 -15 -30 4 -3 16 3 27 15
23 24 40 29 40 10 0 -16 -74 -113 -82 -107 -6 5 -88 -54 -83 -59 3 -3 22 8 43
25 36 29 38 30 52 11 15 -19 16 -19 54 11 64 51 63 35 -2 -31 -64 -64 -68 -73
-52 -98 5 -9 5 -19 -1 -27 -8 -9 -3 -11 25 -6 50 8 46 -8 -14 -53 -54 -41 -58
-49 -35 -58 8 -3 15 -1 15 4 0 6 7 10 15 10 8 0 15 4 15 9 0 5 17 17 38 26 20
10 49 26 64 36 30 21 38 23 38 9 0 -9 -62 -58 -98 -79 -7 -4 -15 -20 -18 -35
-3 -16 -6 -34 -7 -40 -1 -7 21 -11 63 -11 53 -1 65 -4 68 -18 2 -9 -2 -17 -9
-17 -8 0 -5 -6 5 -13 10 -8 30 -11 45 -9 37 7 125 74 201 152 76 79 135 110
207 110 45 0 54 -4 77 -31 14 -17 26 -39 26 -49 0 -24 51 -44 107 -41 26 1 53
-5 66 -14 12 -8 29 -15 39 -15 17 0 18 26 18 475 l0 475 -645 0 c-524 0 -645
-2 -645 -13z"/>
<path d="M2580 5264 c-19 -50 -4 -124 25 -124 8 0 15 -4 15 -10 0 -5 -6 -10
-14 -10 -19 0 -31 -51 -14 -61 7 -5 30 -9 50 -9 35 0 37 2 44 38 4 20 9 41 12
46 7 13 22 -16 22 -46 0 -24 4 -28 29 -28 17 0 33 5 37 11 4 8 9 7 14 -2 5 -8
36 -14 80 -17 66 -4 72 -2 77 17 7 27 23 27 23 1 0 -23 40 -43 79 -38 19 2 27
11 33 36 5 17 13 32 18 32 11 0 23 -39 18 -60 -2 -8 16 -20 45 -31 26 -9 48
-15 48 -13 3 8 6 19 13 49 4 17 17 59 27 94 11 36 16 68 12 72 -13 13 -119 39
-157 39 -31 0 -34 -3 -45 -44 -17 -67 -33 -68 -25 -2 7 61 12 58 -83 70 -33 5
-44 2 -52 -11 -10 -17 -10 -17 -11 0 0 9 -4 17 -10 17 -5 0 -10 -8 -10 -17 -1
-17 -1 -17 -14 0 -14 18 -45 23 -47 7 -1 -5 -2 -40 -3 -77 -2 -124 -36 -125
-36 -2 0 64 -3 79 -15 79 -8 0 -15 -6 -15 -14 0 -7 -7 -19 -15 -26 -12 -10
-15 -9 -15 4 0 10 -4 15 -9 12 -5 -3 -11 3 -14 14 -9 33 -34 24 -41 -15 -8
-42 -23 -38 -32 10 -7 41 -30 46 -44 9z"/>
<path d="M2524 5256 c-4 -10 -10 -32 -14 -50 l-8 -31 -7 33 c-8 35 -19 41 -29
16 -8 -20 -26 -9 -26 17 0 25 -7 24 -31 -3 -41 -47 -66 -134 -35 -122 10 4 16
-6 21 -35 6 -35 10 -41 31 -41 23 0 24 2 19 63 -4 58 -4 59 6 22 18 -70 18
-69 34 -55 12 10 16 9 20 -3 5 -12 11 -12 32 -3 25 11 25 12 20 99 -5 88 -19
129 -33 93z"/>
<path d="M3310 5158 c-6 -13 -19 -38 -30 -56 -23 -37 -30 -93 -14 -99 14 -5
46 48 62 105 7 23 17 42 21 42 5 0 5 -19 0 -42 -4 -24 -8 -54 -8 -68 0 -27 0
-28 30 47 7 17 16 30 20 27 8 -5 0 -44 -13 -61 -5 -6 -8 -17 -7 -25 1 -7 -1
-21 -5 -30 -12 -26 -3 -51 19 -54 11 -2 28 -14 38 -28 21 -29 52 -34 61 -11 3
8 1 15 -4 15 -16 0 -12 32 8 65 23 38 47 113 39 121 -3 3 -15 -17 -27 -44 -26
-60 -50 -85 -74 -76 -14 5 -16 14 -11 43 8 43 8 38 6 81 -1 28 -7 39 -30 53
-40 24 -69 22 -81 -5z"/>
<path d="M1963 5132 c-7 -4 -11 -18 -8 -30 3 -17 -1 -22 -16 -22 -11 0 -30 -5
-41 -11 -16 -9 -23 -8 -29 2 -14 21 -30 -9 -27 -48 1 -18 -1 -32 -6 -32 -5 0
-13 -5 -18 -13 -6 -10 -14 -7 -31 15 -27 32 -37 34 -37 7 0 -22 -16 -27 -23
-7 -4 10 -7 10 -18 0 -8 -8 -9 -13 -2 -13 16 0 81 -91 87 -121 12 -63 44 -80
56 -29 4 14 12 24 18 23 8 -2 12 11 12 35 l0 37 23 -29 c19 -24 28 -28 51 -22
20 5 27 12 26 29 -4 45 -2 48 21 35 17 -10 23 -10 26 -1 2 7 10 10 17 7 7 -3
13 2 13 11 0 9 -6 14 -13 11 -7 -3 -20 14 -32 41 -16 36 -18 52 -10 75 16 46
-4 72 -39 50z"/>
<path d="M3543 5048 c-16 -19 -43 -88 -43 -111 0 -12 35 6 64 32 l29 26 -18
-27 c-9 -16 -21 -28 -25 -28 -14 0 -40 -30 -40 -46 0 -23 28 -16 36 8 4 13 17
34 30 48 13 14 32 36 44 50 l21 25 -7 -25 c-4 -14 -21 -40 -39 -59 -18 -18
-39 -44 -46 -57 -11 -22 -10 -27 14 -51 22 -22 28 -24 41 -13 14 11 16 9 16
-8 0 -12 9 -23 20 -27 11 -3 20 -11 20 -16 0 -5 9 -9 20 -9 11 0 20 4 20 9 0
4 11 24 24 43 24 36 51 106 44 114 -3 2 -22 -21 -42 -51 -41 -59 -68 -67 -34
-10 11 19 24 38 29 41 12 7 12 41 0 49 -5 3 -25 -10 -43 -29 l-33 -34 -1 42
c-1 24 1 33 5 23 6 -17 9 -16 33 8 26 25 28 61 4 52 -6 -3 -19 3 -29 11 -16
14 -20 13 -44 -9 l-26 -24 6 38 c5 31 3 37 -12 37 -10 0 -27 -10 -38 -22z"/>
<path d="M2765 4962 c-11 -2 -24 -8 -29 -12 -5 -5 -16 -4 -26 2 -10 6 -25 8
-35 4 -15 -5 -17 -14 -12 -54 4 -26 9 -58 12 -72 4 -14 -2 -7 -13 15 -10 22
-22 52 -26 68 -7 28 -20 35 -31 17 -3 -5 -19 -10 -35 -10 -23 0 -30 -7 -44
-40 -22 -55 -20 -69 9 -76 21 -5 25 -12 25 -44 0 -38 18 -58 37 -39 16 16 33
-15 36 -68 3 -43 8 -54 43 -86 21 -20 45 -37 52 -37 6 0 12 -4 12 -10 0 -23
19 -8 23 18 4 25 4 25 6 -5 1 -30 4 -33 33 -33 85 0 248 -169 279 -289 15 -60
15 -66 -2 -111 -10 -26 -32 -68 -48 -93 -17 -25 -31 -52 -31 -61 0 -9 -4 -16
-10 -16 -5 0 -10 -9 -10 -20 0 -11 -4 -20 -8 -20 -11 0 -42 -54 -52 -91 -14
-49 -4 -59 55 -59 49 0 54 2 62 27 l9 27 22 -22 c12 -12 27 -22 32 -22 21 0
61 33 56 46 -3 8 0 13 6 11 7 -1 14 6 16 16 3 14 -4 17 -40 18 -43 2 -42 2 15
12 54 9 61 13 96 61 45 60 127 135 156 141 11 2 58 9 105 16 55 8 91 19 104
31 11 10 25 18 32 18 18 0 30 -23 16 -28 -14 -4 -6 -22 10 -22 6 0 8 3 5 7 -9
9 12 33 30 33 11 0 11 -4 3 -20 -8 -15 -8 -20 1 -20 7 0 9 -3 6 -6 -4 -4 13
-22 38 -40 43 -34 75 -37 75 -8 0 8 12 24 26 37 14 12 33 35 41 50 9 19 18 26
26 20 14 -10 23 -10 55 1 13 4 22 11 20 14 -33 67 -44 82 -59 82 -10 0 -26 3
-36 7 -16 6 -16 5 -5 -10 8 -9 10 -22 6 -29 -5 -7 -7 -20 -6 -29 5 -28 -27
-31 -34 -4 -7 30 -37 33 -56 6 -7 -10 -24 -21 -38 -25 l-25 -7 28 23 c33 29
34 38 5 31 l-23 -5 23 16 c12 10 22 24 22 32 0 8 9 14 23 14 17 0 19 -2 7 -10
-8 -5 -12 -12 -8 -15 3 -4 15 -1 25 6 14 8 18 20 15 40 -4 24 1 32 32 50 27
16 34 25 26 34 -5 6 -6 16 -2 20 4 5 2 5 -5 2 -6 -4 -13 -1 -16 5 -3 10 -9 8
-24 -4 -26 -24 -36 -23 -23 3 13 24 5 38 -12 21 -7 -7 -16 -12 -20 -12 -15 0
-8 18 18 50 15 17 24 34 20 37 -3 4 -6 0 -6 -8 0 -8 -7 0 -16 18 -9 17 -24 33
-35 36 -12 3 -19 14 -19 31 0 24 -2 25 -27 13 -21 -9 -27 -9 -31 1 -7 21 -22
13 -22 -13 0 -18 4 -23 15 -19 11 4 13 2 9 -9 -6 -16 -39 -29 -49 -19 -3 3 -2
28 1 56 l7 50 -31 -23 c-38 -26 -39 -24 -11 24 12 20 19 38 16 41 -11 11 -49
-8 -57 -29 -5 -13 -9 -16 -9 -7 0 8 6 24 14 34 26 35 19 49 -19 42 -29 -6 -37
-3 -46 14 -12 22 -40 26 -57 9 -9 -9 -10 -6 -6 10 10 38 -71 106 -109 92 -9
-3 -32 -21 -52 -39 l-36 -32 1 32 c0 18 3 27 6 21 8 -21 20 -15 33 16 14 35 6
54 -21 46 -10 -4 -19 -2 -19 3 0 16 -38 21 -57 6 -10 -7 -26 -14 -35 -14 -10
0 -18 -7 -18 -15 0 -23 -22 -65 -31 -59 -5 3 0 22 11 42 11 20 20 40 20 45 0
14 -27 36 -56 47 -34 13 -40 5 -49 -66 -10 -81 -23 -73 -17 10 l4 73 -38 7
c-22 4 -52 12 -67 18 -21 8 -38 8 -68 -2 -34 -11 -42 -11 -49 -1 -5 10 -10 4
-15 -18 -3 -17 -11 -34 -17 -37 -6 -4 -9 -3 -5 2 3 5 2 23 -1 39 -5 24 -12 30
-27 27z"/>
<path d="M1700 4942 c0 -9 -7 -11 -20 -7 -23 7 -27 -13 -10 -46 14 -25 -6 -26
-32 -2 -19 17 -20 16 -39 -7 -10 -14 -16 -31 -14 -39 4 -10 -1 -9 -21 3 -33
22 -58 14 -49 -16 7 -22 6 -22 -7 -4 -27 35 -28 -1 -2 -48 33 -59 26 -81 -9
-28 -25 39 -28 40 -59 31 -18 -5 -41 -18 -52 -29 -20 -20 -20 -20 17 -54 20
-18 37 -36 37 -39 0 -12 -43 7 -53 24 -17 28 -31 24 -78 -21 -41 -39 -42 -40
-24 -60 17 -19 17 -20 -6 -39 -16 -13 -33 -18 -50 -14 -24 4 -28 1 -41 -39 -8
-23 -13 -58 -11 -76 3 -30 1 -32 -22 -26 -20 5 -24 3 -19 -10 3 -9 1 -16 -5
-16 -18 0 -12 -36 9 -55 18 -16 19 -20 5 -27 -8 -5 -15 -15 -15 -22 0 -12 40
-50 85 -81 11 -7 18 -16 14 -19 -3 -3 -27 10 -54 29 -27 19 -53 35 -59 35 -6
0 -17 9 -24 20 -7 11 -17 20 -24 20 -6 0 -8 -3 -5 -7 4 -3 1 -13 -5 -21 -10
-11 -8 -18 10 -32 12 -10 22 -21 22 -24 0 -12 -28 -6 -40 9 -7 8 -18 15 -24
15 -6 0 5 -14 24 -31 31 -27 32 -29 10 -23 -45 13 -55 10 -54 -14 0 -15 -4
-21 -12 -18 -22 8 -27 -13 -10 -39 22 -33 20 -38 -9 -31 -18 5 -27 1 -36 -16
-10 -19 -9 -24 6 -33 10 -5 30 -20 45 -32 15 -12 40 -28 56 -34 16 -6 24 -13
17 -16 -6 -2 -29 5 -50 15 -44 22 -103 37 -103 26 0 -4 10 -19 23 -32 l22 -24
-25 4 c-23 3 -26 -2 -42 -62 -23 -91 -23 -108 5 -113 21 -3 21 -4 -7 -15 -27
-12 -27 -13 -13 -36 15 -22 15 -24 -2 -29 -14 -3 -17 -11 -14 -32 4 -17 8 -23
13 -15 4 7 13 9 19 5 21 -12 -8 -36 -35 -29 -19 5 -24 2 -24 -14 0 -11 5 -22
10 -24 7 -2 7 -14 1 -36 -10 -34 -5 -66 9 -57 4 2 16 -3 26 -11 18 -15 18 -15
-8 -9 -28 5 -28 5 -28 -45 0 -45 2 -50 23 -51 l22 0 -22 -9 c-17 -7 -23 -18
-24 -42 0 -18 -2 -43 -5 -55 -4 -26 20 -43 60 -43 14 0 26 -4 26 -8 0 -14 -24
-32 -43 -32 -20 0 -20 4 -1 -89 7 -32 25 -41 86 -41 43 0 121 -39 114 -57 -3
-7 1 -10 10 -6 15 6 18 68 6 138 -7 35 -11 40 -32 37 l-25 -2 23 16 c12 9 22
25 22 35 0 19 -33 35 -50 24 -15 -9 -25 24 -12 37 9 9 17 7 31 -6 10 -9 21
-14 24 -9 9 14 -15 127 -30 145 -13 14 -12 17 2 26 13 7 17 24 17 73 1 75 -14
90 -94 98 -19 2 -6 21 14 21 17 0 19 3 10 12 -7 7 -12 16 -12 20 0 15 17 8 44
-17 36 -34 66 -33 66 1 0 17 -4 23 -12 18 -8 -5 -7 -1 1 10 10 11 15 42 15 87
1 38 4 69 7 69 10 0 38 82 41 120 3 31 0 35 -32 46 -19 6 -36 17 -38 24 -5 13
15 11 74 -6 18 -5 25 3 46 53 14 32 23 61 19 65 -8 9 -49 13 -70 7 -26 -8 -21
16 8 32 25 15 31 15 43 3 11 -11 21 -12 39 -5 20 7 29 24 48 85 19 61 27 76
43 76 15 0 18 5 14 17 -4 9 -1 21 6 26 10 6 9 7 -4 4 -19 -6 -30 15 -21 39 4
10 13 14 27 10 13 -3 29 2 43 16 26 24 31 58 8 58 -9 0 -19 10 -24 23 -5 13
-16 29 -25 36 -9 7 -16 18 -16 23 0 6 16 -4 35 -21 20 -17 40 -31 44 -31 5 0
11 -9 14 -21 5 -18 8 -19 23 -8 42 35 74 73 74 90 0 11 7 19 18 19 9 0 44 25
76 55 33 30 63 55 68 55 17 0 7 34 -17 56 -28 26 -33 54 -10 54 13 0 48 -45
58 -74 5 -15 77 44 77 63 -1 20 -29 71 -30 52 0 -8 -7 -11 -21 -8 -18 5 -20 2
-13 -26 6 -28 5 -30 -10 -18 -20 17 -21 55 -1 71 8 7 15 20 15 29 -1 20 -29
71 -30 53z"/>
<path d="M3871 4818 c-5 -15 -4 -26 3 -30 6 -4 8 -8 4 -9 -35 -7 -56 -20 -61
-39 -3 -11 0 -21 6 -23 9 -3 9 -10 0 -29 -15 -33 -2 -52 31 -46 23 5 28 2 33
-24 3 -16 16 -36 29 -45 22 -14 28 -14 68 6 25 11 47 29 51 40 5 16 35 39 35
26 0 -29 -52 -94 -76 -95 -17 0 -34 -24 -26 -35 26 -37 41 -38 82 -5 42 33 55
59 20 40 -30 -16 -25 7 8 38 27 26 52 63 52 77 0 4 -12 4 -26 1 -23 -6 -25 -4
-19 15 6 19 4 21 -18 17 -20 -4 -25 -1 -24 14 1 10 5 18 9 18 5 0 3 9 -4 19
-7 11 -16 17 -20 15 -4 -3 -8 0 -8 5 0 19 -17 12 -49 -21 -37 -38 -50 -33 -16
6 25 29 33 56 16 56 -5 0 -25 -19 -45 -42 -44 -53 -47 -37 -5 22 20 28 26 41
15 37 -9 -4 -16 -2 -16 3 0 20 -41 10 -49 -12z"/>
<path d="M2063 4817 c-33 -14 -40 -64 -14 -88 12 -11 21 -32 21 -49 0 -15 3
-36 7 -46 4 -11 3 -15 -4 -11 -6 4 -14 19 -18 34 -11 45 -44 85 -66 78 -11 -4
-19 -2 -19 4 0 6 -4 11 -10 11 -5 0 -10 -7 -10 -15 0 -9 -6 -15 -12 -14 -27 3
-37 -2 -43 -21 -4 -14 -15 -20 -35 -20 -16 0 -32 -5 -35 -11 -12 -18 -13 -63
-3 -82 5 -10 7 -21 5 -24 -3 -3 -13 10 -23 29 -18 36 -33 50 -47 41 -4 -3 -1
-13 7 -22 18 -20 22 -46 5 -36 -7 5 -9 -3 -6 -24 3 -17 1 -31 -4 -31 -5 0 -9
6 -9 13 -1 22 -35 58 -51 52 -8 -3 -23 -19 -33 -35 -9 -17 -21 -28 -26 -25 -4
3 -10 -2 -14 -10 -3 -9 0 -15 9 -15 8 0 15 -6 15 -14 0 -8 -8 -13 -17 -12 -12
1 -17 -5 -15 -16 3 -21 -9 -23 -26 -6 -9 9 -19 4 -42 -22 -16 -18 -30 -40 -30
-47 0 -7 -4 -13 -8 -13 -14 0 -53 -41 -47 -49 9 -16 55 1 55 20 0 25 16 24 30
-1 9 -17 7 -22 -15 -32 -33 -15 -32 -25 8 -42 31 -14 31 -15 9 -22 l-23 -7 27
-28 c40 -42 19 -36 -24 7 -20 20 -30 33 -22 29 8 -5 2 6 -14 23 -30 32 -56 42
-56 21 0 -5 -4 -8 -8 -5 -4 2 -13 -4 -20 -14 -9 -15 -8 -22 4 -35 8 -8 19 -15
24 -15 4 0 10 -8 13 -19 3 -14 0 -17 -14 -14 -10 3 -24 11 -30 19 -6 8 -15 14
-20 14 -13 0 -11 -28 3 -32 7 -3 9 -11 3 -24 -12 -27 -7 -44 18 -66 22 -18 21
-18 -10 -1 -22 12 -33 25 -33 41 0 26 -6 28 -26 8 -16 -17 -18 -38 -5 -51 5
-6 12 -20 16 -32 5 -18 3 -22 -10 -17 -9 4 -14 13 -11 20 4 11 0 11 -20 2 -21
-10 -25 -17 -20 -39 4 -20 0 -28 -17 -36 -27 -13 -36 -70 -12 -79 24 -10 18
-33 -7 -26 -14 3 -19 2 -14 -6 4 -7 14 -12 22 -12 8 0 14 -4 14 -10 0 -5 -16
-10 -36 -10 -33 0 -36 -2 -30 -22 3 -13 6 -35 6 -49 0 -17 8 -30 23 -37 20
-10 19 -11 -15 -11 -39 -1 -44 -8 -50 -66 -1 -17 1 -36 6 -43 5 -8 3 -11 -6
-10 -10 2 -14 -16 -16 -69 l-3 -72 33 -9 c34 -8 45 -29 33 -60 -5 -14 -9 -10
-21 16 -13 33 -21 34 -50 8 -15 -14 36 -46 74 -46 15 0 34 -5 42 -10 11 -7 -3
-10 -46 -10 l-62 0 -1 -42 c0 -24 4 -64 10 -90 l11 -48 71 -1 72 -2 -58 -7
c-33 -4 -66 -15 -75 -24 -11 -11 -12 -16 -4 -16 7 0 10 -5 7 -10 -3 -6 1 -13
10 -16 10 -4 13 -13 10 -25 -4 -13 5 -29 29 -53 31 -32 41 -35 98 -38 l63 -3
-35 -17 c-23 -10 -29 -17 -17 -17 10 -1 33 -12 50 -25 18 -13 41 -26 52 -28
11 -2 20 -11 20 -20 0 -24 10 -30 57 -39 63 -11 162 -42 166 -51 8 -17 33 -6
71 31 l40 39 -25 71 c-26 76 -48 212 -35 221 5 3 22 32 39 65 16 33 50 94 75
135 37 61 43 76 31 83 -8 4 -14 15 -14 24 0 13 2 13 16 2 17 -14 16 -15 52 38
13 20 103 175 137 238 11 22 51 93 88 157 37 65 67 121 67 124 0 3 8 18 19 32
56 80 76 143 51 168 -12 12 -3 44 11 44 5 0 12 -12 15 -26 5 -21 9 -23 19 -12
20 22 67 150 61 171 -3 12 0 17 7 14 12 -5 38 17 37 30 -1 5 -9 11 -19 15 -17
6 -35 57 -25 68 3 2 14 -1 24 -8 26 -16 30 -15 30 7 0 10 -7 21 -15 25 -8 3
-15 11 -15 19 0 34 -106 112 -136 100 -7 -2 -17 4 -23 16 -17 31 -103 111
-113 105 -5 -4 -19 3 -31 13 -30 27 -48 32 -74 20z"/>
<path d="M5074 4466 c-24 -10 -44 -25 -44 -32 0 -8 -5 -14 -12 -14 -6 0 -9 -2
-6 -5 3 -3 -13 -25 -36 -49 -22 -24 -56 -62 -75 -85 -32 -40 -113 -86 -181
-104 -14 -4 -42 -23 -64 -43 l-38 -37 6 -91 c6 -104 21 -215 30 -223 3 -4 25
-1 48 6 24 7 51 15 61 17 9 3 17 1 17 -5 0 -6 -19 -15 -42 -22 -62 -16 -84
-29 -67 -39 10 -7 10 -11 0 -24 -11 -13 -11 -16 3 -16 19 0 20 -5 6 -30 -10
-18 -6 -19 87 -15 54 3 127 7 161 10 50 5 63 3 60 -7 -3 -7 -28 -16 -59 -19
l-54 -6 47 -1 c59 -2 85 -11 66 -23 -8 -6 0 -9 23 -9 34 0 36 -2 31 -27 -6
-34 -14 -40 -70 -54 -53 -14 -61 -26 -27 -41 32 -15 28 -30 -13 -40 -29 -8
-45 -28 -22 -28 6 0 10 -9 10 -20 0 -11 -4 -20 -9 -20 -10 0 -9 -26 2 -36 12
-12 8 -35 -9 -52 -11 -10 -43 -18 -88 -22 -39 -4 -55 -8 -35 -9 36 -1 59 -16
59 -38 0 -7 -10 -13 -22 -13 -13 0 -18 -4 -12 -8 5 -4 10 -25 10 -47 0 -24 10
-64 26 -95 14 -30 35 -81 47 -113 12 -32 30 -76 41 -97 35 -70 81 -223 86
-290 6 -81 -11 -187 -37 -228 -25 -42 -115 -99 -214 -135 -44 -16 -88 -36 -98
-45 -16 -14 -16 -17 -2 -39 14 -22 14 -23 -5 -23 -25 0 -37 -25 -21 -43 6 -8
30 -19 53 -27 64 -19 99 -32 95 -36 -3 -3 -52 8 -134 32 -35 10 -29 -22 7 -41
32 -17 77 -20 82 -6 2 5 19 -4 38 -20 l35 -30 -44 16 c-51 18 -54 18 -46 5 9
-15 -9 -12 -66 10 -34 14 -55 18 -62 11 -7 -7 -1 -12 17 -17 15 -3 25 -9 22
-12 -3 -3 0 -12 7 -20 10 -13 8 -14 -12 -7 -16 5 -21 4 -17 -3 9 -14 116 -69
186 -94 52 -20 95 -50 84 -61 -3 -2 6 -7 19 -11 14 -3 28 -13 31 -22 4 -10 2
-14 -6 -10 -7 2 -32 10 -56 17 -25 7 -39 15 -32 19 6 4 -35 30 -95 60 -78 38
-110 49 -118 41 -8 -8 -6 -16 6 -29 16 -17 15 -19 -18 -31 -19 -7 -35 -16 -35
-20 0 -10 40 -46 67 -60 18 -9 20 -8 16 9 -6 22 -3 23 50 11 20 -5 37 -7 37
-5 0 2 -18 13 -39 24 -47 24 -66 46 -30 35 13 -4 62 -25 107 -46 46 -21 89
-39 95 -39 7 0 23 -9 37 -20 14 -11 30 -20 35 -20 19 0 86 -51 80 -61 -9 -14
-51 -11 -91 6 l-36 15 36 -40 c39 -43 43 -56 24 -63 -9 -3 -6 -10 10 -22 28
-21 31 -51 3 -35 -37 19 -33 10 16 -34 50 -46 54 -75 5 -39 -15 11 -48 31 -72
43 l-45 22 23 -24 c26 -29 28 -40 5 -31 -11 4 -14 3 -9 -5 14 -23 -9 -11 -39
19 -51 52 -175 141 -200 144 -13 1 -36 10 -50 19 -27 18 -35 7 -10 -14 12 -10
13 -15 4 -21 -9 -5 -8 -11 2 -25 8 -11 19 -19 24 -20 18 -1 63 -22 70 -33 3
-6 11 -11 18 -11 6 0 -4 16 -23 35 -18 19 -31 37 -28 41 9 9 145 -88 201 -143
96 -94 78 -112 -38 -38 -26 17 -28 17 -16 2 7 -9 10 -17 5 -17 -5 0 16 -23 46
-51 51 -48 53 -52 35 -65 -16 -12 -21 -12 -35 1 -37 33 -40 12 -5 -29 27 -32
29 -36 17 -36 -10 0 -105 71 -110 82 -7 14 -211 188 -221 188 -6 0 -11 5 -11
12 0 6 -3 8 -7 4 -9 -9 64 -83 154 -157 82 -68 115 -109 104 -128 -6 -10 -17
-5 -43 18 -36 31 -73 42 -66 19 3 -7 14 -17 26 -23 21 -9 39 -41 29 -51 -2 -3
-30 26 -61 62 -60 70 -125 128 -134 119 -3 -3 4 -15 16 -28 35 -37 25 -41 -18
-6 -33 27 -42 30 -55 19 -10 -8 -13 -21 -9 -34 8 -26 54 -77 65 -70 4 2 11 -1
15 -7 5 -8 3 -9 -6 -4 -10 6 -12 4 -7 -10 6 -15 3 -17 -23 -13 -26 4 -29 2
-24 -15 5 -15 3 -19 -9 -14 -23 9 -26 -14 -5 -48 27 -44 22 -55 -8 -17 -14 17
-35 37 -47 44 -21 11 -21 10 -7 -8 8 -10 30 -36 48 -57 52 -60 28 -57 -35 4
-31 30 -53 48 -49 41 4 -7 2 -19 -4 -28 -10 -11 -7 -22 15 -54 15 -22 25 -43
22 -46 -3 -3 -27 14 -54 37 -26 24 -45 40 -41 35 4 -5 0 -14 -9 -21 -14 -11
-13 -16 11 -57 26 -45 34 -78 17 -78 -11 0 -59 60 -87 108 -10 17 -24 32 -31
32 -7 0 -13 5 -13 12 0 9 -3 9 -12 0 -9 -9 -8 -16 4 -29 26 -31 80 -133 70
-133 -6 0 -12 6 -15 13 -2 6 -26 40 -52 75 -46 61 -48 63 -90 60 l-43 -3 15
-35 c8 -19 17 -41 20 -48 3 -8 0 -10 -11 -6 -18 7 -21 -7 -5 -23 6 -6 9 -19 7
-29 -3 -14 -12 -3 -32 36 -33 67 -54 96 -63 87 -4 -4 -1 -13 5 -19 14 -14 16
-32 3 -24 -5 3 -12 -6 -15 -20 -7 -25 -8 -25 -26 -9 -18 16 -18 16 -13 -4 7
-28 -11 -27 -25 1 -10 22 -11 22 -11 -8 -1 -17 -10 -43 -21 -57 -11 -14 -20
-31 -20 -39 0 -17 24 -86 33 -94 4 -4 7 -15 7 -24 0 -10 7 -23 15 -30 25 -21
63 -113 66 -161 3 -50 16 -85 42 -114 10 -11 16 -28 14 -37 -3 -10 0 -16 6
-15 6 1 17 -11 25 -28 8 -16 19 -31 24 -33 4 -2 8 -10 8 -17 0 -19 58 -65 81
-65 11 0 27 -4 37 -10 32 -18 145 -50 178 -50 18 0 35 -4 38 -9 3 -5 21 -12
40 -15 34 -6 58 -27 69 -58 6 -17 36 -18 442 -18 l435 0 0 2218 0 2218 -27 25
c-27 23 -34 24 -162 24 -109 0 -142 -4 -177 -19z"/>
<path d="M2861 4326 c-12 -18 -21 -36 -21 -40 0 -4 -9 -19 -20 -34 -11 -15
-29 -51 -39 -79 l-19 -53 39 0 c25 0 38 -4 34 -10 -4 -6 -22 -9 -40 -8 -19 1
-37 -1 -41 -5 -4 -4 15 -7 42 -8 39 -1 44 -3 24 -9 -14 -4 -34 -6 -45 -3 -15
3 -25 -3 -34 -20 -11 -20 -10 -29 3 -55 9 -17 16 -46 16 -65 0 -42 7 -49 31
-34 33 21 31 0 -6 -49 -35 -45 -36 -49 -19 -61 15 -11 19 -11 27 2 4 8 15 15
22 15 8 0 15 7 15 15 0 8 3 15 8 15 4 0 16 19 27 42 11 24 35 63 54 87 57 75
102 170 98 208 -2 18 -7 36 -10 40 -4 3 -7 14 -7 23 0 9 -9 25 -20 35 -11 10
-20 23 -20 30 0 17 -43 55 -62 55 -9 0 -26 -15 -37 -34z"/>
<path d="M2518 4303 c-10 -3 -18 -12 -18 -21 0 -10 -14 -30 -30 -46 -28 -26
-29 -30 -15 -46 17 -19 11 -30 -19 -30 -28 -1 -79 -73 -78 -111 0 -21 -4 -29
-15 -27 -10 2 -29 -21 -54 -65 -21 -38 -39 -70 -39 -72 0 -7 247 -3 265 5 17
7 15 9 -13 9 -44 1 -32 21 12 21 30 0 34 4 40 33 3 17 7 39 8 47 0 8 6 19 12
23 8 6 7 10 -2 14 -9 4 -10 8 -2 18 8 9 8 32 3 72 l-9 58 -34 -3 c-32 -2 -33
-2 -17 16 9 10 17 28 17 40 0 11 8 25 18 31 15 9 15 11 2 24 -8 7 -23 12 -32
10z"/>
<path d="M3488 3980 c-15 -4 -29 -6 -32 -3 -3 3 -12 0 -20 -6 -13 -11 -13 -18
1 -54 21 -52 31 -62 68 -69 20 -4 40 1 67 18 44 28 48 29 48 9 0 -8 8 -15 17
-15 13 0 14 3 6 11 -17 17 -4 39 23 39 31 0 31 25 0 53 -18 16 -38 21 -87 23
-35 1 -76 -2 -91 -6z"/>
<path d="M4495 3981 c3 -6 -11 -22 -32 -38 -20 -15 -47 -37 -59 -48 -12 -11
-32 -28 -45 -37 -15 -11 -17 -16 -6 -12 22 8 23 -14 1 -45 -14 -19 -15 -33 -6
-94 6 -40 8 -87 5 -105 -4 -24 -1 -36 12 -46 17 -12 17 -13 0 -20 -16 -6 -17
-8 -1 -25 9 -9 13 -21 9 -24 -3 -4 0 -7 7 -7 9 0 8 -5 -4 -19 -15 -17 -16 -26
-5 -80 12 -65 18 -73 64 -89 28 -10 29 -11 9 -17 -13 -4 -21 -13 -19 -23 2
-10 4 -20 4 -24 1 -4 9 -9 19 -12 12 -4 17 -15 16 -33 -1 -16 8 -45 18 -67 11
-21 26 -63 34 -93 18 -71 40 -101 77 -111 37 -10 47 -31 18 -39 -21 -5 -30
-23 -11 -23 5 0 7 -6 4 -13 -2 -7 7 -28 21 -47 14 -19 25 -43 25 -54 0 -12 9
-45 20 -74 31 -81 27 -118 -16 -159 -20 -19 -59 -44 -85 -56 -27 -11 -49 -27
-49 -34 0 -7 19 -26 42 -43 25 -18 35 -30 24 -30 -9 0 -35 18 -57 41 -25 26
-46 39 -55 35 -9 -3 -20 -6 -25 -6 -5 0 -9 -8 -9 -17 0 -13 23 -28 79 -51 86
-36 120 -57 109 -67 -3 -3 -49 14 -101 40 -124 60 -153 59 -174 -5 -8 -25 -18
-49 -22 -55 -4 -5 -6 -16 -5 -22 1 -7 2 -17 3 -23 0 -5 12 -10 25 -10 37 0 86
-21 86 -36 0 -17 -12 -18 -27 -3 -7 7 -30 14 -53 16 l-41 4 3 -37 c1 -23 -3
-39 -10 -42 -16 -5 -15 -34 1 -51 10 -11 10 -14 0 -18 -7 -3 -13 -17 -13 -31
0 -30 27 -51 138 -109 80 -43 90 -42 25 2 -45 30 -72 55 -60 55 2 0 27 -11 55
-25 58 -28 77 -32 48 -10 -11 8 -17 15 -13 15 5 0 -4 12 -18 28 -14 15 -23 33
-20 41 6 16 -22 51 -40 51 -12 0 -55 41 -55 53 0 17 24 3 72 -43 80 -75 101
-77 113 -9 6 31 3 38 -19 53 -28 18 -36 42 -11 32 8 -3 21 -9 29 -12 9 -3 16
6 20 30 4 23 11 33 20 30 7 -3 18 2 25 10 11 12 6 17 -31 26 -46 13 -150 59
-133 60 6 0 39 -9 75 -20 41 -12 66 -16 70 -9 5 6 16 6 36 -1 36 -14 75 -7
166 30 90 37 123 68 139 133 12 52 8 158 -10 212 -47 150 -188 501 -209 524
-9 9 -35 12 -90 11 -99 -3 -114 -2 -108 9 3 5 34 6 70 4 64 -6 91 6 68 29 -6
6 -8 16 -5 24 2 7 -2 28 -10 46 -8 18 -20 54 -27 81 -7 26 -18 47 -24 48 -6 1
-18 2 -26 3 -8 2 -31 4 -50 5 l-35 3 37 12 c57 17 56 26 -3 27 -39 0 -49 3
-34 9 11 5 32 9 47 9 25 1 46 17 35 27 -3 3 -29 7 -58 10 -78 6 -75 14 13 29
37 6 68 35 68 64 0 11 -11 12 -52 7 -29 -4 -64 -10 -77 -13 -15 -4 -22 -2 -18
4 4 6 34 16 67 23 40 8 64 19 71 32 7 14 6 20 -6 24 -9 4 -14 12 -11 20 9 24
-20 36 -71 28 -26 -3 -45 -4 -42 0 3 3 30 9 60 13 54 8 54 8 57 46 4 44 -15
56 -55 38 -14 -6 -28 -9 -31 -6 -3 3 13 13 36 22 23 9 42 21 42 28 0 30 -32
114 -46 119 -8 3 -12 2 -9 -3z"/>
<path d="M4096 3965 c-3 -8 -13 -15 -23 -15 -14 0 -15 -2 -5 -9 10 -6 3 -10
-23 -15 -30 -6 -36 -11 -32 -27 5 -18 -10 -42 -31 -51 -14 -5 -82 -109 -82
-124 0 -8 -4 -14 -10 -14 -5 0 -10 -24 -10 -53 0 -46 -5 -59 -33 -93 -46 -55
-67 -90 -67 -112 0 -11 -7 -26 -16 -33 -9 -7 -30 -38 -48 -67 -17 -30 -40 -69
-51 -87 -83 -139 -130 -222 -131 -230 -1 -6 -22 -40 -46 -75 -25 -36 -63 -97
-84 -137 -73 -134 -217 -387 -244 -428 -8 -12 -24 -36 -34 -53 -22 -35 -79
-54 -221 -73 -49 -7 -96 -16 -102 -22 -16 -12 -13 -55 5 -62 7 -3 10 -10 7
-15 -7 -11 26 -45 86 -92 19 -14 45 -35 58 -47 13 -11 34 -21 46 -21 20 0 60
-41 77 -80 4 -8 7 4 7 28 1 60 16 52 19 -10 2 -39 10 -66 33 -103 17 -27 42
-88 56 -135 13 -47 31 -95 38 -107 19 -29 99 -83 122 -83 10 0 36 -9 57 -19
29 -16 36 -17 32 -5 -8 21 22 29 42 11 23 -21 100 -12 98 12 -1 12 9 17 41 19
39 3 44 1 54 -25 20 -51 26 -58 65 -85 53 -37 83 -38 46 -1 -14 14 -21 28 -15
30 6 2 24 -10 41 -27 28 -27 82 -42 82 -22 0 13 -60 126 -77 144 -9 10 -14 20
-11 23 2 2 33 -23 69 -57 35 -33 82 -69 104 -79 l40 -18 8 25 c7 18 14 23 27
19 10 -3 22 0 26 6 4 7 3 9 -3 6 -6 -4 -13 2 -16 12 -2 11 -23 31 -45 44 -24
16 -42 36 -46 53 -11 42 3 42 39 2 17 -21 37 -38 44 -38 21 0 11 30 -25 70
-43 48 -39 62 8 29 l33 -24 -21 30 c-40 58 -33 65 17 15 27 -27 58 -50 67 -50
15 1 14 3 -3 16 -11 8 -19 22 -17 31 2 8 -7 26 -19 39 -23 24 -14 34 10 12 9
-9 8 -2 -3 19 -20 39 -20 47 -2 40 10 -4 12 6 9 45 -3 33 0 48 7 43 14 -9 13
8 -2 24 -11 10 -7 12 17 11 49 -3 57 -1 52 15 -4 8 -2 17 3 20 16 10 12 75 -3
75 -14 0 -47 31 -47 43 0 4 14 4 30 1 43 -9 37 29 -13 83 l-20 22 21 -4 c11
-2 29 -8 39 -14 17 -8 19 -6 20 25 1 19 8 49 16 67 32 69 31 93 -4 126 -18 17
-27 31 -22 31 6 0 16 -7 23 -15 20 -24 47 -18 61 13 7 16 30 39 51 51 21 12
43 32 48 45 7 18 18 24 57 29 75 9 121 35 129 74 8 43 -3 78 -21 63 -10 -9
-30 -7 -77 6 -104 28 -141 53 -102 68 22 8 24 8 24 -7 0 -9 22 -17 63 -24 34
-5 70 -14 81 -18 16 -7 17 -5 11 16 -13 43 -34 57 -150 101 -89 35 -94 38 -45
31 25 -3 61 -9 80 -13 47 -9 71 12 45 40 -9 10 -14 23 -11 28 7 11 -16 22 -45
22 -10 0 -19 5 -19 11 0 6 9 9 20 6 11 -3 22 -2 25 3 8 13 -29 87 -56 109 -20
18 -22 22 -9 31 13 8 12 11 -7 16 -18 5 -21 11 -16 40 3 19 1 40 -6 48 -7 8
-14 24 -16 36 -6 33 -34 72 -56 77 -21 6 -25 18 -9 28 20 12 10 35 -14 35 -29
0 -46 20 -19 21 10 0 13 3 6 6 -18 7 -16 23 3 23 11 0 14 8 12 33 -3 29 -6 32
-43 36 l-40 4 40 13 40 12 -37 1 c-42 1 -64 21 -22 21 29 0 53 24 54 53 0 16
-5 17 -31 12 -24 -6 -30 -4 -27 6 3 8 14 15 26 17 26 4 30 39 6 57 -13 9 -14
16 -5 33 15 28 5 49 -27 57 l-27 8 29 12 c38 16 18 28 -31 19 -21 -4 -32 -9
-25 -11 15 -6 6 -23 -12 -23 -8 0 -16 9 -19 20 -4 16 2 20 39 26 35 5 42 9 34
19 -6 8 -7 16 -2 19 18 11 -1 59 -30 75 -23 13 -27 21 -22 44 5 22 2 27 -14
27 -11 0 -22 -7 -26 -15z"/>
<path d="M3360 3894 c0 -10 -7 -13 -24 -8 -27 6 -33 0 -40 -41 -3 -16 -11 -32
-18 -37 -10 -6 -10 -8 2 -8 10 0 7 -7 -10 -21 -24 -20 -24 -21 -2 -16 26 6 30
-14 6 -37 -22 -22 -34 -20 -34 7 -1 20 -2 20 -11 4 -6 -10 -7 -32 -3 -50 4
-18 9 -26 11 -19 3 6 15 12 27 12 12 0 27 5 34 12 9 9 13 7 18 -5 7 -19 39
-23 49 -7 3 6 17 10 30 10 13 0 30 3 39 6 31 12 16 24 -29 24 -25 0 -45 3 -45
8 0 4 -15 15 -33 26 l-32 18 25 10 c14 5 41 10 61 10 20 0 42 4 49 8 21 13 3
27 -30 22 -18 -2 -30 0 -30 7 0 6 11 11 25 11 29 0 29 1 14 34 -13 28 -49 42
-49 20z"/>
<path d="M2195 3803 c-22 -36 -54 -91 -70 -122 -35 -63 -91 -160 -118 -199 -9
-15 -27 -47 -40 -72 -12 -25 -49 -91 -80 -147 -41 -72 -57 -110 -55 -130 l3
-28 98 0 c55 0 101 3 104 8 2 4 15 7 28 7 26 0 85 50 85 73 0 8 -7 18 -16 21
-20 8 -9 26 17 26 10 0 19 7 19 15 0 12 -14 15 -62 16 -79 1 -50 17 33 18 54
1 57 2 87 45 18 24 32 48 32 53 1 18 48 40 100 47 79 10 103 28 97 74 -3 31 0
41 22 59 l26 22 -28 1 c-16 0 -26 4 -22 10 3 6 21 10 40 10 33 0 60 20 37 28
-7 2 -12 10 -12 18 0 7 -15 17 -32 22 -45 11 -46 37 -4 108 20 33 36 64 36 71
0 8 -40 12 -142 12 l-143 0 -40 -66z"/>
<path d="M2712 3650 c-18 -11 -39 -20 -45 -19 -20 3 -47 -12 -47 -28 0 -8 -4
-11 -10 -8 -5 3 -10 -1 -10 -9 0 -8 9 -18 20 -21 31 -10 24 -25 -11 -25 -31 0
-32 0 -25 -42 4 -23 12 -46 19 -50 7 -4 57 -8 111 -8 104 0 125 9 126 52 0 22
46 68 68 68 56 1 132 42 132 72 0 4 -44 8 -97 8 -59 1 -114 7 -138 15 -51 19
-54 19 -93 -5z"/>
<path d="M3713 3610 c-18 -11 -33 -26 -33 -33 0 -8 -12 -20 -27 -28 -34 -17
-53 -34 -53 -47 0 -15 -26 -22 -76 -22 -25 0 -58 -7 -74 -15 -32 -16 -55 -50
-45 -65 3 -6 -5 -14 -18 -19 -14 -6 -28 -14 -31 -19 -3 -6 -64 -8 -143 -6 -80
2 -152 -2 -172 -8 -25 -8 -35 -7 -41 2 -11 17 -372 20 -378 2 -2 -6 -14 -12
-26 -12 -12 0 -32 -8 -45 -17 l-24 -16 23 -9 c22 -8 22 -9 5 -22 -10 -7 -20
-24 -22 -37 -2 -13 -8 -28 -13 -33 -16 -16 -12 -26 11 -26 16 0 20 -5 16 -19
-8 -33 73 -54 113 -29 15 10 22 10 31 1 10 -10 15 -9 24 3 9 13 18 14 47 6
l36 -10 -9 32 c-13 45 -11 66 6 66 8 0 15 5 15 10 0 6 7 10 15 10 8 0 15 -7
15 -15 0 -8 8 -15 18 -15 16 -1 16 -2 1 -13 -14 -11 -16 -26 -10 -107 4 -52 3
-120 -2 -150 -5 -30 -6 -91 -3 -135 3 -44 6 -92 6 -107 0 -17 5 -28 14 -28 8
0 17 -6 19 -12 3 -7 6 -1 6 14 1 14 7 29 14 31 7 3 5 6 -5 6 -31 2 -19 20 15
23 30 3 38 12 109 133 113 192 128 215 144 215 21 0 18 -12 -25 -81 -21 -35
-76 -131 -121 -214 -46 -82 -95 -168 -110 -190 -44 -67 -65 -124 -52 -137 20
-20 14 -40 -10 -36 -20 3 -23 -2 -26 -33 -4 -45 4 -48 113 -56 63 -4 84 -2 95
9 8 8 22 17 31 20 19 7 108 150 141 225 11 26 38 74 59 105 22 31 39 60 39 63
0 3 20 36 44 73 62 96 93 153 101 193 4 19 18 45 31 58 13 13 30 35 38 50 28
53 64 117 85 151 12 19 26 52 32 73 5 20 14 37 19 37 18 0 10 38 -7 42 -13 3
-10 7 14 18 18 8 37 25 44 37 7 13 16 23 21 23 4 0 8 9 8 19 0 11 5 23 10 26
6 4 10 14 8 23 -1 10 1 23 5 30 12 18 -3 15 -40 -8z"/>
<path d="M1833 3042 c-13 -22 -2 -49 37 -94 l22 -26 34 30 c78 71 99 71 38 -1
-37 -43 -39 -60 -7 -46 10 5 25 7 32 6 8 -2 20 4 26 12 6 9 17 17 25 19 30 7
62 47 57 70 -9 33 -49 45 -157 47 -84 2 -96 0 -107 -17z"/>
<path d="M2456 2943 c-40 -53 -54 -79 -46 -87 17 -17 12 -36 -10 -36 -11 0
-20 6 -20 13 0 8 -2 9 -8 1 -11 -18 -93 -78 -131 -97 -18 -9 -66 -23 -106 -32
-77 -16 -98 -22 -130 -36 -11 -5 -45 -18 -75 -28 -30 -10 -72 -26 -92 -35 -21
-9 -38 -13 -38 -9 0 5 -4 3 -8 -2 -4 -6 -36 -24 -72 -39 -36 -16 -68 -31 -72
-35 -7 -6 -16 -49 -17 -83 -1 -10 -8 -18 -17 -18 -10 0 -15 8 -14 23 4 45 1
54 -14 35 -7 -10 -17 -18 -22 -18 -18 0 -7 -73 15 -98 11 -13 21 -27 21 -30 0
-4 30 -38 65 -77 36 -38 65 -73 65 -78 0 -4 11 -12 25 -17 16 -6 25 -17 25
-31 0 -11 8 -33 19 -47 10 -15 41 -73 69 -128 28 -56 58 -104 68 -108 10 -4
29 5 51 25 35 30 57 33 33 4 -11 -13 -10 -18 6 -30 16 -13 17 -16 4 -25 -19
-13 -40 -13 -40 0 0 6 -4 10 -9 10 -11 0 -19 -100 -8 -107 4 -2 7 -32 7 -65
l0 -61 34 6 33 5 -23 -23 c-19 -19 -22 -29 -15 -47 4 -13 6 -29 4 -35 -8 -21
6 -15 31 14 15 17 25 22 30 15 4 -6 -3 -21 -14 -32 -32 -32 -43 -70 -26 -89
17 -19 10 -80 -10 -88 -19 -7 -18 -40 1 -51 13 -7 14 -15 4 -60 -10 -41 -10
-55 -1 -64 9 -9 16 -7 28 10 9 13 24 30 34 40 9 9 21 27 25 40 4 13 12 21 18
19 13 -5 14 -19 3 -57 -6 -22 -6 -23 5 -6 16 26 30 1 18 -32 -13 -33 -28 -145
-21 -156 9 -16 51 96 58 156 4 40 32 104 41 94 3 -2 0 -27 -6 -53 -13 -54 -12
-135 1 -127 4 3 8 10 8 16 0 6 7 20 17 30 9 10 19 35 24 56 6 33 8 34 14 15 8
-26 25 -31 25 -8 0 8 5 15 10 15 16 0 12 -50 -5 -56 -9 -4 -15 -18 -14 -38 l1
-31 13 30 c15 32 17 29 17 -25 -1 -19 2 -27 4 -17 3 9 10 17 15 17 6 0 7 9 4
20 -4 12 -2 20 5 20 14 0 2 -125 -15 -160 -15 -29 -41 -119 -50 -173 -12 -73
-20 -28 -14 80 4 59 5 110 3 112 -3 3 -10 -1 -16 -7 -18 -18 -28 -14 -29 11 0
25 2 29 -37 -65 -29 -73 -38 -38 -11 46 12 37 12 66 0 66 -13 0 -26 -47 -46
-159 -9 -52 -24 -105 -32 -118 -9 -13 -12 -27 -9 -31 4 -4 128 -7 274 -7 l267
0 2 75 c0 43 -2 63 -5 46 -8 -35 -32 -47 -32 -17 0 17 -6 21 -32 21 -22 0 -28
3 -20 9 10 6 12 23 7 68 -4 35 -2 91 5 134 20 119 31 116 26 -6 -3 -69 -2
-103 4 -90 5 11 9 39 9 63 1 35 4 42 21 42 17 0 20 7 21 43 1 33 3 36 8 17 10
-41 36 -31 39 15 3 45 -12 79 -26 57 -5 -7 -16 -10 -26 -6 -14 6 -17 14 -12
43 7 44 -2 81 -19 81 -7 0 -24 11 -39 25 -15 14 -36 25 -47 25 -10 0 -18 3
-17 8 4 11 -40 52 -57 52 -8 0 -15 6 -16 13 0 17 -57 60 -72 54 -7 -3 -19 -28
-26 -56 -7 -28 -17 -53 -22 -57 -12 -7 -12 19 0 31 17 17 31 95 17 95 -7 0
-12 17 -12 43 -1 23 -6 60 -13 82 -6 22 -14 51 -17 65 -3 14 -8 34 -11 45 -4
11 -6 26 -5 33 2 6 -4 12 -13 12 -19 0 -19 18 0 64 14 32 14 36 0 36 -29 0
-15 16 30 34 29 12 45 25 45 36 0 10 7 23 15 30 12 10 15 10 15 -4 0 -27 31
-15 43 17 9 23 24 22 32 -3 4 -11 11 -18 16 -15 5 4 9 2 9 -3 0 -5 23 -20 52
-32 57 -24 84 -51 93 -92 7 -28 26 -41 49 -32 11 4 18 -4 24 -28 4 -18 18 -38
30 -44 12 -6 35 -23 51 -37 25 -22 38 -25 91 -25 43 1 65 -3 71 -13 6 -11 14
-12 40 -2 28 11 32 10 36 -7 5 -18 6 -18 30 4 21 19 25 32 25 77 -1 47 -5 57
-29 77 -15 12 -40 33 -55 46 -35 30 -65 38 -72 20 -10 -26 -29 -15 -23 14 5
24 -16 71 -28 65 -3 -2 -5 -1 -5 2 1 13 -46 44 -117 79 -13 6 -23 17 -23 24 0
6 -9 12 -19 12 -11 0 -27 7 -35 16 -9 8 -20 12 -26 9 -5 -3 -10 -2 -10 2 0 16
-54 6 -108 -20 -18 -9 -25 -8 -32 3 -16 25 -12 38 30 101 22 33 40 71 40 83 0
13 7 29 15 36 11 10 14 27 11 67 -2 30 -6 57 -10 60 -3 4 -6 14 -6 24 0 9 -4
19 -10 21 -11 3 -18 41 -27 134 -5 54 -2 67 25 120 43 83 63 135 56 145 -3 5
2 19 10 31 40 56 8 108 -66 108 -44 0 -45 -1 -102 -77z"/>
<path d="M0 2160 c1 -654 1 -674 19 -653 10 12 40 28 67 37 27 8 42 15 34 15
-25 2 32 27 126 56 49 15 91 30 94 34 3 3 14 11 25 17 14 8 20 21 19 43 -2 24
7 39 42 71 42 39 48 55 8 25 -10 -8 -22 -15 -26 -15 -12 0 -9 48 3 55 6 4 8
12 6 19 -3 6 1 20 9 31 8 10 14 27 14 37 0 17 -4 17 -43 -7 -81 -47 -86 -30
-11 42 38 38 72 67 76 66 4 -2 10 7 13 19 5 14 9 17 15 8 6 -9 15 -8 39 4 17
9 31 21 31 26 0 6 -11 3 -25 -6 -13 -8 -29 -13 -35 -9 -6 3 -24 -5 -41 -19
-17 -14 -35 -26 -41 -26 -5 0 -32 -11 -60 -25 -59 -30 -81 -32 -76 -7 3 15 73
54 259 143 37 18 54 32 54 45 0 12 14 25 39 37 42 20 87 57 68 57 -6 0 -14 -4
-17 -10 -3 -5 -13 -10 -22 -10 -9 0 -24 -6 -32 -14 -21 -19 -91 -32 -91 -18 0
12 83 52 106 52 7 0 20 7 28 16 9 8 39 23 68 33 28 10 54 23 56 30 3 10 -1 10
-14 3 -11 -5 -28 -6 -39 -2 -14 5 -29 0 -49 -17 -17 -14 -40 -23 -55 -22 -32
3 -111 -18 -131 -35 -25 -21 -138 -76 -155 -76 -32 0 -2 21 108 74 140 69 187
87 187 76 0 -14 58 10 64 27 5 12 9 13 20 3 17 -13 50 0 79 34 17 20 17 21 0
27 -12 5 -13 8 -4 8 8 1 11 4 8 8 -8 7 -75 -27 -116 -59 -13 -10 -28 -15 -34
-11 -10 6 30 42 47 43 17 0 76 45 76 58 0 6 6 12 13 12 20 0 81 48 89 71 13
33 -8 59 -47 59 -18 0 -46 5 -62 11 -28 11 -28 11 -5 22 30 14 28 29 -3 21
-33 -8 -32 4 2 35 l28 24 -30 -7 c-67 -16 -161 -23 -183 -15 -13 5 -64 9 -113
9 -59 0 -102 5 -127 16 -20 8 -57 22 -82 30 -25 8 -60 19 -79 25 -18 6 -69 14
-112 18 l-79 7 0 -676z"/>
<path d="M1333 2354 c-39 -18 -53 -30 -53 -46 0 -21 -1 -21 78 -1 42 10 22
-12 -27 -30 -66 -23 -78 -54 -19 -48 14 2 17 -3 12 -27 -9 -47 41 -132 78
-132 10 0 18 -6 18 -13 0 -15 58 -98 76 -109 6 -4 15 -19 18 -33 4 -16 11 -22
21 -19 11 5 15 -1 15 -24 0 -17 4 -33 9 -36 33 -21 91 -206 98 -313 l6 -83 28
0 c19 0 29 5 29 15 0 18 56 77 88 94 33 18 18 -10 -18 -34 -35 -23 -39 -42
-10 -47 20 -3 20 -4 -3 -29 -14 -14 -30 -36 -37 -49 -11 -20 -10 -22 4 -17 18
7 20 3 7 -22 -7 -13 -5 -17 10 -17 13 0 17 5 14 17 -3 9 2 24 11 33 21 21 29
14 14 -13 -6 -12 -7 -21 -2 -21 14 0 48 42 71 87 l21 42 -21 3 -21 3 22 28
c18 23 21 33 13 50 -16 35 -34 108 -39 156 -8 94 -84 269 -144 333 -11 12 -20
27 -20 33 0 17 -77 88 -88 81 -6 -4 -12 6 -14 21 -2 20 -8 28 -21 27 -10 -1
-16 4 -15 12 5 23 -91 124 -118 124 -15 0 -24 6 -24 15 0 20 -6 19 -67 -11z"/>
<path d="M1055 2280 c-4 -6 -10 -8 -15 -5 -4 3 -10 -2 -14 -10 -3 -8 -11 -15
-18 -15 -7 0 -21 -14 -31 -31 -15 -27 -16 -36 -5 -60 15 -34 19 -34 59 -13 29
15 30 15 20 -5 -6 -10 -16 -22 -23 -24 -8 -3 -8 -6 -2 -6 6 -1 30 13 53 30 24
17 46 27 49 23 4 -4 1 -9 -7 -12 -8 -3 -43 -31 -78 -63 -34 -33 -66 -59 -70
-59 -5 0 -26 -27 -48 -60 -22 -33 -44 -60 -50 -60 -5 0 -11 -16 -12 -36 -1
-19 -8 -43 -15 -52 -7 -9 26 19 75 63 56 52 85 85 82 94 -4 9 13 34 42 63 55
56 91 66 44 12 -34 -39 -33 -61 2 -43 26 12 -39 -50 -146 -141 -55 -46 -72
-66 -62 -70 13 -4 6 -22 -35 -90 -62 -104 -97 -142 -110 -120 -5 8 -6 19 -3
25 4 5 -2 3 -13 -6 -27 -23 -163 -64 -259 -78 -44 -7 -96 -16 -115 -21 -19 -5
-74 -18 -123 -30 -48 -12 -118 -37 -157 -56 l-69 -34 -1 -695 0 -695 2202 0
c1211 0 2198 4 2193 8 -6 5 -35 14 -65 21 -30 8 -59 17 -65 21 -5 4 -41 17
-80 29 -38 13 -79 31 -90 41 -11 10 -36 27 -55 37 -38 21 -41 26 -91 148 -4
11 -15 42 -24 68 -22 70 -52 125 -74 137 -28 15 -51 12 -51 -6 0 -26 -64 -135
-90 -154 -14 -10 -43 -23 -65 -29 -50 -14 -2010 -15 -2069 -2 -21 5 -55 23
-75 39 -46 37 -64 105 -50 190 29 191 40 292 35 330 -3 23 -2 50 3 60 19 37
31 91 31 134 0 28 5 48 13 51 7 4 3 8 -10 12 -13 4 -23 12 -23 17 0 16 43 88
52 88 4 0 8 14 8 30 0 28 -2 30 -20 20 -16 -8 -20 -8 -20 4 0 8 9 18 20 21 11
3 23 18 27 33 12 43 8 242 -6 292 -21 76 -84 199 -113 220 -4 3 -18 26 -31 50
-13 25 -37 54 -55 65 -17 11 -31 28 -32 37 0 20 -23 15 -54 -11 -17 -14 -17
-12 2 13 29 38 28 52 -5 73 -16 10 -31 22 -34 27 -4 5 -19 6 -33 2 -29 -7 -31
-4 -14 24 10 15 9 23 -6 39 -23 25 -48 27 -82 5 -31 -21 -43 -11 -19 16 20 22
14 39 -7 23 -7 -5 -21 -13 -31 -16 -28 -10 -3 28 33 50 21 12 26 19 17 25 -17
11 -35 10 -42 -2z"/>
<path d="M4277 1903 c-5 -47 7 -73 36 -73 13 0 43 -20 72 -47 50 -49 94 -77
103 -68 3 3 1 5 -5 5 -5 0 -10 6 -11 13 -3 37 -12 53 -42 79 -24 19 -29 28
-18 28 9 0 20 -5 23 -10 5 -9 69 -40 81 -40 2 0 4 6 4 13 0 14 -41 57 -54 57
-4 0 -34 16 -67 36 -32 20 -65 34 -73 31 -9 -4 -18 -2 -21 3 -12 20 -23 9 -28
-27z"/>
<path d="M2441 1861 c-9 -6 -12 -19 -8 -37 3 -16 -4 -55 -15 -90 -24 -69 -20
-97 17 -140 l25 -29 0 28 c0 15 4 27 8 27 16 0 21 -13 12 -31 -16 -28 5 -71
32 -67 19 2 23 -1 21 -20 -3 -26 27 -61 70 -80 37 -16 37 -16 37 12 0 13 7 27
16 30 21 8 25 4 33 -35 11 -52 31 -48 31 6 0 31 4 44 11 39 6 -3 9 -22 7 -40
-3 -24 1 -39 14 -51 16 -15 18 -14 29 13 l11 29 11 -34 c14 -41 32 -50 40 -20
5 20 -46 143 -64 155 -5 3 -13 -5 -18 -18 -8 -21 -10 -19 -20 22 -19 70 -20
73 -40 67 -15 -3 -27 8 -52 47 -19 28 -55 73 -81 100 -27 28 -48 53 -48 57 0
21 -25 59 -36 55 -6 -2 -16 0 -20 4 -5 5 -15 5 -23 1z"/>
<path d="M4306 1806 c4 -10 -2 -12 -20 -9 -19 4 -26 1 -26 -10 0 -9 5 -19 10
-22 6 -3 10 -14 10 -24 0 -10 9 -30 20 -44 11 -14 20 -28 20 -32 0 -4 -9 -5
-20 -2 -14 4 -20 0 -21 -11 -3 -34 3 -45 42 -85 49 -52 50 -66 2 -30 -21 15
-33 21 -26 13 11 -15 13 -20 13 -40 0 -12 55 -41 63 -33 4 3 18 -2 32 -11 23
-15 25 -15 25 1 0 10 -4 24 -9 32 -6 9 -4 19 5 28 20 20 18 24 -36 68 -27 22
-52 45 -54 51 -6 16 30 6 45 -12 13 -16 33 -19 24 -4 -9 14 11 13 35 -2 32
-20 35 -1 6 42 -28 42 -62 56 -53 21 3 -14 1 -18 -9 -14 -19 7 -18 23 3 38 16
12 16 14 1 37 -19 28 -90 75 -82 54z"/>
<path d="M2839 1528 c-8 -29 -5 -67 7 -89 7 -15 14 -41 14 -58 0 -16 3 -37 6
-45 6 -15 7 -15 18 -1 6 9 20 17 31 19 11 2 20 11 21 22 3 67 5 78 12 69 10
-14 52 -19 52 -6 0 25 -21 60 -39 66 -24 7 -49 -4 -33 -14 7 -4 7 -19 2 -41
-4 -19 -8 -30 -9 -24 -1 6 -14 26 -31 44 -16 18 -30 40 -30 47 0 10 -18 20
-21 11z"/>
<path d="M3365 1360 c-11 -5 -14 -9 -7 -9 6 -1 12 -9 12 -19 0 -20 123 -152
142 -152 7 0 26 -11 42 -25 16 -14 33 -25 39 -25 5 0 25 -14 44 -30 19 -17 38
-28 42 -26 5 3 19 -15 31 -39 26 -51 47 -58 56 -17 4 15 13 34 21 44 10 11 11
18 4 23 -6 3 -11 14 -11 23 0 13 6 10 26 -11 14 -16 28 -27 30 -24 5 4 -73
186 -89 208 -7 9 -24 19 -39 23 -23 5 -28 3 -28 -13 0 -10 7 -21 15 -25 16 -6
21 -46 6 -46 -5 0 -15 13 -22 29 -8 17 -24 33 -36 36 -13 3 -23 11 -23 19 0
23 -23 34 -85 40 -33 3 -76 10 -95 16 -40 12 -48 12 -75 0z"/>
<path d="M3035 1078 c3 -20 16 -80 30 -133 14 -54 25 -109 25 -123 l0 -25 -19
22 -19 21 -6 -25 c-4 -14 -11 -23 -16 -20 -6 4 -10 -7 -10 -24 0 -43 42 -61
145 -61 45 0 104 3 130 7 42 5 49 10 61 39 16 37 19 130 5 138 -5 3 -12 21
-15 40 -9 48 -44 84 -86 88 -29 4 -35 8 -35 28 0 19 -7 26 -35 32 -19 5 -43
10 -52 12 -11 3 -16 -1 -13 -12 15 -82 16 -104 7 -98 -6 3 -13 20 -17 37 -4
17 -14 33 -23 36 -10 3 -27 17 -39 32 l-23 26 5 -37z"/>
<path d="M2039 993 c-1 -10 -1 -21 -1 -24 1 -4 -10 -19 -23 -33 -14 -15 -39
-61 -56 -103 l-32 -76 23 -19 c12 -10 32 -18 45 -18 18 0 24 7 28 33 2 17 15
74 29 125 13 50 20 92 16 92 -5 0 -8 7 -6 16 2 10 -3 19 -9 21 -7 3 -14 -4
-14 -14z"/>
<path d="M3499 983 c-6 -15 -9 -49 -6 -75 2 -26 -2 -91 -8 -145 -17 -125 -32
-142 -136 -145 -38 -1 -84 -3 -101 -5 -18 -1 -336 -3 -707 -3 -517 0 -680 3
-700 13 -14 6 -34 30 -45 52 -17 38 -21 40 -64 41 -30 1 -49 7 -58 18 -11 16
-16 16 -41 4 -20 -10 -27 -20 -25 -36 2 -16 -4 -25 -25 -34 -37 -17 -39 -19
-53 -102 -25 -148 -7 -167 173 -177 67 -4 521 -5 1009 -3 960 4 951 3 962 56
3 13 10 46 15 73 24 112 15 207 -25 288 -8 16 -14 35 -14 43 0 8 -4 14 -9 14
-5 0 -7 9 -4 20 3 11 0 20 -6 20 -6 0 -11 7 -11 15 0 8 -4 15 -9 15 -5 0 -18
17 -28 38 -24 50 -67 58 -84 15z"/>
</g>
</svg>
