<?xml version="1.0" standalone="no"?>
<!DOCTYPE svg PUBLIC "-//W3C//DTD SVG 20010904//EN"
 "http://www.w3.org/TR/2001/REC-SVG-20010904/DTD/svg10.dtd">
<svg version="1.0" xmlns="http://www.w3.org/2000/svg"
 width="544.000000pt" height="544.000000pt" viewBox="0 0 544.000000 544.000000"
 preserveAspectRatio="xMidYMid meet">
<metadata>
Created by potrace 1.16, written by Peter Selinger 2001-2019
</metadata>
<g transform="translate(0.000000,544.000000) scale(0.100000,-0.100000)"
fill="#000000" stroke="none">
<path d="M0 2720 l0 -2720 2720 0 2720 0 0 2720 0 2720 -1725 0 -1725 0 -6
-24 c-6 -25 22 -91 52 -120 18 -19 32 -17 179 14 128 28 126 28 279 45 319 35
530 14 851 -86 193 -61 353 -143 575 -296 183 -126 386 -354 513 -575 149
-258 203 -440 232 -783 13 -147 28 -212 77 -330 28 -66 61 -147 75 -180 14
-33 30 -69 36 -80 15 -29 83 -195 124 -305 32 -86 35 -106 37 -205 1 -96 -2
-117 -22 -160 -13 -27 -35 -62 -49 -77 -24 -25 -128 -75 -235 -113 -26 -10
-53 -25 -61 -34 -15 -18 -41 -145 -62 -306 -41 -316 -73 -479 -106 -550 -37
-80 -188 -215 -240 -215 -6 0 -25 -6 -42 -14 -31 -14 -143 -38 -240 -52 -62
-8 -95 -35 -102 -82 -3 -20 -15 -77 -25 -127 -11 -49 -26 -133 -35 -185 -33
-199 -60 -249 -149 -275 -46 -14 -181 -15 -1067 -13 -1002 3 -1014 3 -1049 24
-19 11 -46 36 -59 55 -21 31 -23 41 -18 129 3 52 10 118 16 145 21 95 80 430
97 550 20 146 15 360 -11 445 -30 97 -108 228 -191 320 -31 35 -152 179 -185
220 -98 124 -230 349 -275 470 -7 19 -22 60 -34 90 -114 300 -143 729 -71
1075 38 179 114 376 215 558 141 253 348 474 606 648 52 35 113 73 134 85 58
31 86 62 86 94 0 16 5 32 10 35 6 4 10 12 9 18 -4 35 2 77 11 72 6 -4 10 13
10 44 l0 51 -940 0 -940 0 0 -2720z"/>
<path d="M2520 5280 c-177 -25 -319 -64 -382 -103 -34 -21 -34 -23 -26 -65 9
-39 14 -45 65 -69 54 -26 57 -26 146 -15 343 43 542 41 763 -7 252 -54 513
-185 733 -367 120 -99 190 -175 267 -289 61 -92 83 -128 150 -252 35 -64 84
-218 100 -313 8 -47 19 -150 24 -229 13 -197 31 -264 129 -476 10 -22 31 -71
46 -110 15 -38 40 -95 55 -125 50 -100 103 -260 97 -296 -10 -63 -67 -103
-231 -164 -89 -34 -116 -77 -131 -210 -3 -30 -10 -73 -15 -95 -10 -47 -28
-161 -34 -225 -15 -134 -49 -351 -62 -393 -32 -97 -120 -158 -244 -171 -86 -8
-259 10 -378 40 -191 48 -416 109 -473 127 -24 8 -84 27 -134 42 -49 15 -109
34 -133 41 -23 8 -48 14 -55 14 -50 1 -158 84 -264 206 -21 24 -101 44 -132
33 -29 -11 -27 -46 7 -140 68 -192 199 -285 512 -365 197 -51 360 -117 422
-172 67 -58 76 -69 103 -127 23 -49 28 -78 33 -162 5 -119 -9 -186 -44 -210
-20 -13 -124 -15 -809 -15 -725 -1 -787 1 -804 16 -10 10 -21 28 -24 42 -4 22
17 165 53 364 21 121 41 361 36 440 -18 278 -110 499 -295 710 -36 41 -70 80
-76 86 -5 6 -40 44 -77 83 -38 39 -68 78 -68 86 0 8 -3 15 -8 15 -33 0 -202
348 -231 475 -6 28 -20 90 -31 139 -25 113 -44 340 -36 431 11 123 39 269 81
425 17 62 113 266 165 352 58 93 150 209 225 281 96 93 267 225 339 262 21 11
51 31 66 45 15 14 36 30 46 36 25 15 21 72 -7 135 -21 46 -22 47 -63 44 -118
-7 -387 -188 -570 -384 -23 -24 -52 -56 -66 -71 -14 -15 -32 -37 -40 -50 -22
-33 -65 -91 -94 -126 -14 -18 -26 -35 -26 -38 0 -4 -15 -30 -33 -59 -74 -116
-143 -282 -188 -457 -67 -257 -78 -634 -24 -850 8 -30 18 -75 23 -100 26 -124
158 -433 208 -491 8 -8 14 -20 14 -26 0 -5 25 -43 55 -84 31 -41 66 -87 78
-104 12 -16 38 -48 58 -70 19 -22 53 -62 75 -90 21 -27 44 -54 50 -60 11 -11
55 -69 95 -124 42 -60 85 -161 108 -253 36 -148 24 -429 -29 -668 -5 -25 -17
-90 -25 -145 -9 -55 -23 -129 -31 -165 -43 -181 -38 -236 23 -265 33 -16 111
-17 1016 -16 539 0 994 3 1011 7 17 3 38 11 47 17 34 26 34 25 109 435 30 158
35 174 61 196 18 16 47 26 81 30 286 34 366 64 456 167 71 81 80 110 117 389
47 354 73 499 96 536 24 39 83 73 173 99 78 22 152 71 173 115 28 55 22 194
-12 295 -25 75 -173 434 -251 609 -45 100 -61 177 -74 351 -13 171 -23 232
-61 355 -49 157 -135 346 -203 444 -42 62 -110 152 -137 181 -15 17 -49 54
-75 83 -70 78 -226 210 -324 274 -231 151 -536 270 -765 298 -118 14 -425 21
-495 10z"/>
<path d="M2696 4962 l-48 -3 7 -55 c3 -30 4 -54 1 -54 -3 0 -12 21 -19 47 -11
36 -20 49 -38 53 -25 6 -146 -22 -188 -43 -37 -18 -56 -54 -44 -80 6 -12 16
-44 22 -70 11 -47 30 -77 49 -77 5 0 17 -9 27 -20 10 -11 33 -22 51 -26 18 -3
41 -15 50 -26 17 -18 19 -18 25 -1 6 14 9 12 14 -14 4 -18 14 -33 21 -33 10 0
14 16 14 64 0 58 2 64 22 70 28 7 51 -14 51 -46 0 -26 38 -51 64 -41 8 3 19 0
23 -7 6 -9 13 -4 25 19 9 18 21 31 28 28 17 -5 30 -67 23 -120 -5 -44 -3 -49
19 -57 14 -5 25 -15 25 -21 0 -7 11 -9 30 -5 28 5 30 3 30 -24 0 -18 8 -34 22
-44 28 -20 42 -9 76 64 14 30 28 59 30 64 3 5 -1 5 -8 1 -8 -5 -11 -3 -9 4 3
7 9 12 14 11 17 -1 9 -73 -13 -118 -11 -23 -16 -40 -12 -37 5 3 15 -2 24 -10
15 -15 28 -7 32 20 0 6 2 16 2 22 1 7 20 32 42 54 22 23 40 48 40 55 0 19 29
18 36 -1 4 -8 13 -15 20 -15 8 0 26 -7 40 -16 24 -16 26 -16 50 7 l26 24 28
-32 29 -32 24 25 c14 14 40 49 58 79 43 72 60 71 20 0 -17 -30 -31 -56 -31
-59 0 -2 9 -6 19 -9 16 -4 19 -11 14 -48 -3 -34 -2 -40 6 -29 9 12 11 6 10
-25 -1 -22 -6 -52 -11 -67 -16 -44 -6 -53 28 -25 20 17 35 23 44 17 12 -7 12
-12 -1 -27 -23 -26 -34 -47 -21 -39 6 3 13 2 17 -4 3 -5 17 -7 31 -4 16 4 31
1 44 -11 10 -9 34 -18 54 -19 55 -5 68 -21 60 -74 -5 -35 -4 -43 6 -37 13 8
12 -6 -6 -92 -5 -27 -3 -33 11 -33 14 0 16 -6 11 -26 -9 -35 15 -70 54 -79 37
-8 38 -17 5 -43 -28 -22 -33 -37 -10 -28 23 8 29 -18 11 -46 -8 -13 -17 -34
-20 -48 -26 -128 -37 -163 -56 -180 -21 -19 -21 -19 -3 -44 13 -19 27 -25 55
-26 79 0 92 24 17 34 -33 5 -49 11 -46 19 6 19 72 21 90 3 19 -19 28 -20 25
-4 -2 7 12 15 32 18 38 6 93 -7 85 -20 -3 -5 6 -22 20 -38 32 -38 31 -48 -5
-67 -26 -13 -28 -18 -20 -41 10 -25 -7 -67 -35 -86 -5 -4 -10 -13 -10 -20 0
-12 -33 -25 -67 -27 -10 -1 -31 12 -47 28 -17 16 -39 32 -51 36 -30 9 -14 25
19 19 16 -3 39 0 52 7 24 12 23 13 -26 36 -27 12 -62 23 -77 23 -17 0 -33 8
-40 20 -17 27 -32 25 -52 -5 -16 -24 -16 -25 6 -22 14 1 23 -4 26 -15 3 -13
-3 -18 -21 -18 -14 0 -28 6 -30 13 -3 6 -6 0 -6 -16 -1 -19 -8 -31 -25 -38
-22 -10 -66 -82 -66 -108 0 -6 -4 -11 -8 -11 -9 0 -47 -71 -44 -83 1 -4 -11
-19 -27 -33 -17 -14 -39 -49 -50 -79 -11 -30 -35 -76 -54 -102 -18 -26 -42
-67 -52 -90 -10 -24 -23 -43 -28 -43 -6 0 -8 -3 -4 -6 3 -4 -7 -25 -23 -49
-29 -42 -100 -182 -100 -197 0 -4 7 -8 15 -8 8 0 19 -9 25 -20 15 -28 -7 -27
-37 1 -18 18 -25 20 -38 9 -8 -7 -15 -20 -15 -29 0 -27 -97 -128 -133 -140
-52 -18 -215 -15 -266 3 -40 15 -119 83 -146 127 -51 82 -68 101 -75 88 -15
-23 -23 -2 -12 29 6 17 6 35 1 43 -25 40 3 145 67 244 19 31 33 63 30 70 -3 8
0 18 7 22 17 10 57 80 57 98 0 20 -35 27 -100 21 -30 -2 -65 -5 -76 -5 -12 -1
-33 -10 -48 -22 -22 -17 -24 -24 -15 -41 14 -26 -3 -47 -24 -30 -16 14 -28 6
-20 -14 3 -8 0 -14 -7 -14 -6 0 -35 -24 -63 -54 -29 -29 -77 -66 -107 -81 -49
-26 -67 -29 -165 -32 -101 -2 -114 0 -162 23 -29 14 -53 30 -53 35 0 5 -9 18
-21 30 -30 30 -90 149 -94 186 -2 18 -6 42 -10 53 -7 22 16 91 49 150 64 115
106 209 106 238 0 25 4 32 20 32 11 0 20 5 20 12 0 7 12 29 26 50 27 38 27 39
8 60 -20 23 -20 23 31 2 24 -10 17 12 -10 30 l-24 16 22 35 c20 31 39 46 36
28 -4 -22 3 -32 17 -26 12 4 15 14 11 38 -5 29 -3 31 18 27 29 -5 47 36 21 50
-17 10 -22 48 -6 48 5 0 15 -9 22 -19 10 -17 15 -14 47 38 20 31 45 75 55 99
18 41 18 43 1 62 -19 21 -55 27 -55 10 0 -6 7 -24 15 -41 12 -23 13 -34 4 -51
l-11 -21 -14 24 c-7 13 -13 32 -14 41 0 9 -10 27 -23 40 -30 30 -108 33 -120
4 -4 -10 -10 -16 -13 -13 -4 3 3 21 15 40 26 42 26 63 2 103 -21 34 -55 43
-45 12 3 -12 0 -18 -9 -18 -19 0 -41 26 -33 39 3 5 0 11 -6 14 -10 3 -9 12 5
35 9 16 17 42 17 56 0 14 3 26 8 26 4 0 21 14 39 30 35 33 60 38 70 14 4 -10
13 -14 28 -10 29 7 64 -11 98 -49 15 -17 27 -24 27 -17 0 8 5 10 13 6 10 -6
10 -4 0 7 -18 18 -16 39 2 39 11 0 15 12 15 51 0 63 23 63 28 0 3 -39 4 -41
17 -25 13 18 15 18 32 1 15 -14 16 -21 5 -37 -6 -11 -12 -32 -12 -47 0 -20 -3
-24 -9 -14 -11 18 -31 5 -31 -19 0 -14 -11 -22 -41 -30 -47 -13 -56 -29 -38
-72 12 -29 11 -33 -9 -46 -23 -15 -29 -32 -11 -32 5 0 7 5 4 10 -9 15 46 1 66
-16 22 -20 37 -17 45 9 5 12 8 24 9 27 0 3 11 16 24 29 21 21 22 29 16 78 -6
49 -5 55 9 50 9 -4 17 -3 17 1 7 36 4 54 -7 59 -22 8 -16 50 12 78 32 32 30
70 -4 70 -31 1 -42 21 -42 78 0 27 -4 56 -9 66 -6 10 -11 43 -12 74 -3 71 -23
93 -103 108 -55 11 -116 3 -151 -21 -5 -4 -22 -10 -36 -14 -45 -10 -150 -74
-229 -139 -41 -34 -77 -64 -80 -67 -3 -3 -26 -22 -53 -43 -26 -21 -45 -42 -42
-47 3 -5 0 -12 -6 -15 -7 -5 -2 -16 13 -34 52 -58 60 -74 17 -33 -52 49 -63
48 -105 -9 -16 -22 -41 -54 -56 -72 -16 -18 -34 -44 -40 -59 -7 -16 -16 -28
-20 -28 -7 0 -28 -57 -32 -88 -2 -9 -8 -18 -14 -18 -7 -1 -15 -2 -19 -3 -3 0
2 -10 13 -22 18 -20 18 -20 -9 -14 -20 6 -27 4 -27 -8 0 -8 -13 -40 -30 -71
-41 -79 -52 -122 -34 -137 16 -13 9 -30 -10 -23 -8 3 -17 -10 -25 -36 -12 -42
-9 -60 13 -60 7 0 21 -7 32 -14 17 -14 15 -15 -26 -13 l-45 2 -7 -85 c-5 -47
-13 -98 -18 -115 -6 -16 -8 -55 -4 -86 7 -60 15 -69 72 -69 14 0 21 -4 17 -11
-4 -6 -22 -8 -46 -4 l-39 7 6 -79 c4 -43 10 -84 14 -92 6 -10 27 -14 76 -14
50 0 55 -1 19 -4 -92 -6 -96 -9 -91 -52 7 -59 37 -152 50 -157 7 -3 41 2 77
11 35 8 75 15 88 15 45 0 11 -14 -72 -30 -88 -17 -102 -31 -75 -76 7 -12 25
-44 40 -72 34 -63 59 -78 99 -62 38 16 37 27 -3 38 -66 17 -40 72 34 72 26 0
38 4 38 14 0 10 -11 14 -35 13 -43 -1 -51 7 -37 37 12 28 55 39 91 23 42 -17
47 -16 98 9 38 20 56 23 90 18 60 -9 61 -20 3 -28 -41 -5 -50 -10 -50 -26 0
-18 10 -23 45 -23 6 0 21 3 34 8 21 6 23 5 18 -17 -6 -23 -4 -25 20 -20 23 4
25 2 20 -17 -5 -21 -4 -22 12 -7 21 19 31 20 31 3 0 -8 -11 -19 -24 -26 -20
-11 -28 -10 -50 4 -14 10 -26 21 -26 26 0 5 -11 4 -24 -1 -13 -5 -32 -6 -43
-4 -10 3 -32 -1 -50 -8 l-32 -14 21 -32 c20 -33 54 -42 74 -22 13 13 30 -4 35
-34 6 -32 25 -29 62 8 40 42 65 49 46 14 -14 -27 -35 -45 -66 -58 -20 -8 -33
-30 -18 -30 8 0 69 43 77 55 5 6 11 6 18 -1 8 -8 4 -22 -15 -50 -14 -21 -32
-42 -38 -47 -8 -5 -3 -15 17 -31 24 -20 27 -26 17 -45 -7 -12 -9 -26 -6 -31 3
-5 -8 -19 -25 -31 -16 -13 -30 -31 -30 -41 0 -24 -17 -23 -31 3 l-11 21 -19
-21 c-11 -12 -29 -21 -40 -21 -27 0 -59 18 -59 33 0 25 -17 39 -39 32 -27 -8
-27 -20 4 -53 14 -15 25 -32 25 -39 0 -7 4 -13 8 -13 5 0 14 -11 20 -24 11
-25 20 -36 110 -140 29 -34 69 -88 89 -121 20 -33 44 -69 53 -80 23 -27 46
-75 81 -170 17 -44 32 -81 35 -84 2 -2 13 4 24 14 24 21 26 6 6 -33 -16 -30
-15 -59 3 -207 11 -86 8 -354 -4 -375 -1 -3 -6 -29 -9 -59 -12 -105 -26 -187
-36 -221 -5 -19 -10 -58 -10 -87 0 -81 15 -88 215 -90 88 -1 177 -4 197 -8 20
-3 39 -1 43 5 3 5 11 7 18 5 7 -3 83 -6 170 -9 110 -2 160 0 165 8 4 6 10 56
13 111 l5 100 2 -95 c1 -52 7 -102 12 -110 7 -12 43 -14 212 -13 260 2 367 10
387 31 35 35 3 250 -42 273 -11 6 -30 12 -44 14 -31 3 -41 14 -23 25 10 6 11
12 5 19 -24 22 -127 69 -210 95 -49 16 -124 39 -165 52 -90 29 -120 30 -120 7
0 -22 -17 -5 -22 21 -1 11 -11 20 -20 22 -23 3 -133 59 -187 96 -25 17 -72 58
-103 90 l-57 59 -16 -28 -16 -28 5 48 c4 30 1 57 -6 70 -7 12 -13 24 -13 27
-1 3 -7 16 -13 30 -6 14 -20 48 -31 75 -13 36 -25 51 -40 53 -11 2 -21 7 -21
12 0 4 -9 10 -19 13 -14 3 -18 11 -14 26 3 12 3 21 0 21 -12 0 -31 -45 -43
-100 -12 -54 -12 -55 -13 -15 -1 43 -8 69 -40 155 -27 71 -26 92 4 128 14 17
25 37 25 46 0 10 16 24 38 34 40 18 49 45 17 50 -33 6 -40 20 -20 42 24 27 29
26 48 -15 18 -38 43 -48 34 -14 -4 15 0 23 13 26 16 4 36 45 32 66 -3 12 19
49 25 43 3 -3 7 -32 8 -65 2 -50 0 -61 -15 -66 -15 -5 -29 -32 -30 -57 0 -5
11 -8 24 -8 17 0 31 11 46 35 12 19 23 41 24 48 5 28 19 62 28 68 11 7 58 -12
58 -23 0 -4 -8 -9 -18 -12 -23 -8 -62 -43 -62 -56 0 -6 7 -10 16 -10 14 0 15
-2 3 -17 -10 -12 -11 -15 -1 -9 9 6 11 1 8 -18 -5 -28 16 -51 39 -42 8 3 15
15 15 26 0 12 9 24 23 29 18 7 22 16 22 54 0 26 6 52 13 59 9 9 12 -1 12 -50
0 -80 14 -98 53 -70 17 13 32 17 38 11 5 -5 11 -48 13 -96 3 -93 10 -114 20
-71 6 23 11 26 36 21 33 -7 72 19 95 63 15 29 25 31 75 15 28 -9 67 -76 73
-126 3 -24 7 -53 9 -63 1 -10 -3 -21 -9 -23 -7 -3 -13 2 -13 10 0 29 -30 28
-41 -1 -27 -74 -33 -83 -58 -88 -22 -5 -27 -11 -26 -37 0 -26 4 -32 30 -37 17
-4 39 -11 50 -17 11 -6 50 -19 85 -27 36 -9 74 -21 85 -26 31 -13 174 -56 235
-70 30 -7 71 -18 90 -25 191 -71 441 -122 545 -110 110 12 118 13 146 34 16
12 33 21 38 21 25 0 24 54 -2 101 -36 63 -34 70 9 28 34 -32 36 -32 29 -9 -4
14 -17 38 -27 53 -24 34 -19 46 7 17 25 -28 48 -27 39 3 -3 12 -15 34 -25 49
-25 35 -24 46 2 22 17 -16 22 -16 29 -4 15 24 28 99 35 200 l6 95 -31 33 c-40
42 -35 49 13 16 37 -24 51 -17 22 12 -19 20 -19 34 0 34 15 0 17 6 33 110 6
36 14 78 18 93 5 23 1 34 -22 59 l-29 30 35 -17 c24 -12 35 -14 38 -6 10 30
87 86 189 137 81 41 113 63 117 78 5 22 -9 92 -24 111 -4 6 -10 24 -14 40 -11
44 -34 75 -56 75 -11 0 -20 5 -20 10 0 6 10 10 23 10 21 1 21 1 2 12 -29 16
-29 16 -16 32 9 10 8 20 -4 42 -23 44 -110 234 -124 274 -7 19 -17 44 -22 55
-5 11 -16 40 -23 65 -11 38 -18 46 -47 54 l-34 9 33 9 c32 9 33 10 28 56 -3
26 -10 101 -16 167 -14 157 -16 165 -40 165 -23 0 -27 15 -5 24 17 6 13 41
-17 131 -26 76 -29 80 -70 66 l-33 -11 28 23 c33 29 33 34 5 91 l-21 45 -61
-30 -61 -30 52 48 c58 54 60 42 -14 148 -44 61 -68 92 -114 145 l-26 29 -43
-44 c-62 -63 -72 -56 -16 9 l47 55 -34 33 c-61 60 -112 105 -134 116 -18 10
-25 7 -57 -28 -42 -47 -45 -42 -11 19 14 24 24 45 23 46 -2 0 -22 16 -44 33
-23 18 -46 32 -51 32 -5 0 -25 12 -44 26 -46 34 -176 94 -205 94 -12 0 -24 5
-26 12 -2 6 -22 17 -44 23 -35 10 -42 10 -61 -8 l-23 -20 0 26 c0 28 -21 44
-55 43 -15 -1 -23 -12 -32 -50 -17 -69 -23 -68 -23 2 0 69 10 63 -135 81 -107
14 -160 17 -219 13z m-896 -828 c0 -18 49 -74 64 -74 7 0 21 -16 32 -35 15
-29 16 -39 6 -55 -10 -16 -9 -18 3 -14 14 6 29 -29 24 -57 -2 -13 2 -26 22
-77 5 -14 20 -25 39 -28 32 -7 42 -34 13 -34 -20 1 -63 33 -63 47 0 4 -9 14
-21 21 -16 11 -18 16 -9 28 10 11 9 14 -3 14 -18 0 -29 24 -17 36 5 5 5 15 0
24 -8 12 -10 12 -10 1 0 -8 -15 3 -34 23 -40 42 -42 42 -49 16 -6 -23 11 -47
38 -52 12 -2 21 -12 23 -26 4 -26 -1 -27 -33 -6 -22 14 -23 14 -18 -5 4 -15
-1 -20 -19 -23 -16 -2 -24 -10 -26 -30 -3 -23 3 -29 40 -46 43 -19 86 -57 76
-67 -3 -3 -32 12 -65 34 -70 46 -99 56 -133 43 l-24 -9 29 -14 c30 -14 47 -49
25 -49 -7 0 -24 9 -40 20 -15 11 -29 17 -32 15 -6 -7 -97 25 -125 43 -36 23
-30 43 9 31 48 -13 43 -5 -11 20 -58 26 -74 51 -33 51 15 0 35 7 46 15 18 13
18 15 -2 43 -12 16 -28 35 -37 42 -19 16 -20 34 0 26 28 -10 45 5 45 40 0 23
7 38 24 51 l24 18 -20 28 c-23 32 -17 34 21 6 25 -19 33 -20 64 -10 24 8 42 9
61 1 38 -14 40 -13 22 15 -29 43 -17 47 29 8 25 -20 45 -43 45 -49z m-277
-624 c49 -31 50 -32 41 -67 -5 -17 -15 -23 -42 -25 -44 -4 -57 -28 -14 -28 16
0 40 -8 53 -19 l23 -19 -32 -7 c-27 -5 -31 -9 -21 -21 17 -20 -30 -39 -68 -27
-32 11 -45 43 -16 43 13 0 11 5 -12 20 -16 11 -38 20 -48 20 -10 0 -22 11 -27
26 -6 14 -14 23 -19 19 -5 -3 -12 -1 -16 5 -3 5 -2 10 4 10 6 0 9 6 7 13 -3 6
-7 26 -10 44 l-5 32 72 4 c40 1 74 4 78 5 3 1 26 -11 52 -28z m2260 -1064 c45
-47 64 -52 64 -15 0 16 5 35 11 41 14 14 52 4 82 -22 13 -11 31 -20 41 -20 10
0 21 -4 24 -10 3 -5 -1 -10 -9 -10 -30 0 -16 -19 38 -54 30 -19 57 -39 60 -45
11 -17 -17 -13 -44 6 -18 12 -22 13 -13 2 8 -10 10 -36 5 -84 -6 -60 -10 -71
-30 -80 -13 -5 -26 -21 -29 -35 -3 -14 -15 -34 -26 -44 -17 -17 -21 -17 -28
-4 -7 12 -24 15 -76 13 -73 -2 -81 -12 -42 -48 10 -10 19 -23 19 -29 0 -15
-63 -1 -73 17 -13 23 -25 18 -43 -20 -9 -19 -20 -35 -25 -35 -5 0 -9 -6 -9
-13 0 -7 -6 -21 -12 -30 -12 -15 -15 -15 -47 0 -32 16 -34 16 -50 -6 -16 -21
-18 -21 -54 -6 -33 14 -37 14 -37 0 0 -16 -9 -19 -26 -7 -12 8 -38 55 -48 90
-7 19 -4 22 23 22 22 0 35 7 47 26 9 14 29 31 45 39 15 8 35 23 45 32 9 10 33
23 53 28 29 9 37 16 39 39 2 18 8 26 17 22 9 -3 12 0 8 10 -3 7 -8 14 -12 14
-12 1 -54 41 -48 47 4 3 12 2 19 -4 24 -17 68 -33 68 -23 0 5 -11 22 -25 37
-18 21 -27 25 -33 15 -6 -9 -20 -5 -55 19 -38 25 -45 34 -36 45 16 20 32 17
47 -6 7 -12 23 -20 38 -20 15 0 38 -12 54 -29 28 -28 55 -25 43 4 -2 7 4 16
15 19 11 4 26 13 32 21 10 13 7 21 -20 49 -34 34 -49 76 -29 76 6 0 25 -15 42
-34z"/>
<path d="M2866 4309 c-10 -28 -27 -56 -37 -62 -11 -7 -19 -19 -19 -27 0 -8 -9
-30 -21 -49 -23 -38 -22 -41 17 -45 16 -2 33 -4 38 -5 5 0 6 -4 3 -8 -4 -3 -2
-12 5 -20 16 -19 7 -24 -54 -28 -29 -2 -56 -4 -60 -4 -10 -1 -9 -169 0 -231 6
-40 10 -45 35 -48 25 -3 30 3 70 87 23 49 47 90 52 91 16 1 66 72 72 102 3 15
12 33 19 39 20 16 17 52 -7 93 -19 32 -19 36 -4 36 14 0 13 7 -11 48 -28 49
-57 82 -72 82 -4 0 -16 -23 -26 -51z"/>
<path d="M3212 4277 c-7 -7 -11 -24 -10 -38 2 -45 -2 -59 -16 -59 -8 0 -21 12
-28 28 -8 16 -21 27 -33 27 -17 0 -21 -8 -23 -47 -3 -43 -1 -48 17 -48 22 0
29 -28 12 -45 -5 -6 -11 -26 -13 -45 -3 -33 -5 -35 -34 -32 -28 3 -34 -1 -53
-38 -11 -22 -21 -48 -21 -58 0 -15 -2 -15 -10 -2 -8 12 -10 9 -10 -12 0 -16
-5 -28 -11 -28 -6 0 -9 -9 -6 -20 3 -11 1 -20 -4 -20 -5 0 -9 -7 -9 -15 0 -17
31 -20 58 -6 9 5 37 17 61 27 25 10 55 28 66 40 12 12 30 24 41 28 10 3 42 28
69 56 33 33 59 49 76 50 27 0 69 37 69 61 0 8 9 20 19 26 16 10 18 18 12 41
-5 16 -5 36 0 44 7 12 3 17 -17 21 -20 3 -27 -1 -35 -20 -12 -33 -11 -37 6
-23 24 20 19 -26 -5 -52 -11 -12 -20 -17 -20 -12 0 5 -10 14 -22 19 -19 8 -24
19 -26 58 -3 39 -6 47 -23 47 -14 0 -19 -7 -19 -25 0 -16 -6 -25 -15 -25 -23
0 -30 28 -11 49 20 22 21 47 0 55 -21 8 -20 8 -32 -7z"/>
<path d="M2544 4195 c-4 -9 -4 -34 -1 -56 7 -51 -1 -77 -25 -85 -27 -8 -48 13
-28 29 8 7 15 21 15 32 0 17 -7 20 -50 20 -49 0 -50 -1 -53 -33 -2 -18 -8 -30
-13 -27 -5 4 -9 -1 -9 -9 0 -9 -4 -16 -10 -16 -5 0 -10 -7 -10 -15 0 -8 -5
-15 -11 -15 -7 0 -9 -11 -5 -30 5 -28 -8 -44 -16 -19 -2 6 -16 -2 -32 -17 -16
-16 -23 -30 -16 -32 7 -3 4 -9 -7 -18 -16 -12 -15 -13 17 -15 47 -2 64 1 68
12 2 5 12 9 23 9 24 0 26 44 5 86 -15 28 -13 44 5 44 5 0 9 -13 9 -30 0 -23 5
-30 19 -30 11 0 21 6 24 13 4 9 7 9 18 -1 11 -11 10 -14 -9 -18 -23 -7 -27
-20 -14 -42 9 -13 97 -20 109 -9 6 7 23 79 28 120 1 15 4 28 5 30 1 1 4 24 6
51 4 40 1 53 -16 68 -18 17 -21 17 -26 3z"/>
<path d="M2236 3860 c-21 -24 -73 -114 -80 -138 -4 -12 -17 -34 -30 -50 -12
-15 -28 -43 -36 -62 -7 -19 -21 -44 -29 -55 -9 -11 -27 -40 -41 -65 -13 -25
-31 -56 -40 -70 -96 -145 -123 -194 -113 -203 3 -4 1 -12 -4 -19 -6 -7 -13
-27 -16 -44 -8 -42 11 -51 118 -53 85 -2 93 0 127 26 20 15 42 39 47 53 5 14
20 40 31 58 l22 32 -49 1 c-26 1 -61 5 -78 9 -22 6 -8 8 51 9 88 1 96 5 129
71 35 68 13 64 409 71 199 4 413 5 477 2 151 -5 157 1 110 94 -40 77 -88 133
-116 133 -40 0 -62 -12 -72 -38 -10 -25 -11 -26 -12 -4 -1 26 -29 29 -111 11
-42 -9 -58 -8 -95 7 -43 16 -46 16 -64 0 -11 -10 -25 -31 -31 -47 -7 -16 -16
-29 -20 -29 -4 0 -10 -9 -13 -20 -6 -24 -27 -27 -27 -3 0 15 -2 14 -20 -2 -24
-22 -59 -13 -40 10 7 8 21 15 31 15 29 0 25 52 -7 89 -21 25 -34 31 -67 32
-80 1 -122 13 -125 35 -2 11 4 27 13 34 8 7 15 21 15 31 0 10 4 20 9 23 5 3
11 16 13 29 5 26 13 25 -140 35 -95 6 -116 5 -126 -8z"/>
<path d="M3331 3773 c-26 -5 -51 -25 -51 -42 0 -5 -9 -13 -21 -16 -14 -5 -19
-13 -16 -26 3 -10 1 -22 -4 -25 -23 -14 28 -114 59 -114 13 0 14 -2 4 -8 -16
-10 -5 -42 14 -42 8 0 14 -4 14 -10 0 -18 29 -10 40 11 13 24 14 23 -25 37
-19 6 -23 11 -12 11 13 1 17 6 12 20 -7 25 30 50 48 32 21 -21 34 -11 65 47
42 79 34 91 -58 84 -48 -3 -70 -1 -70 7 0 7 21 11 55 11 56 0 73 13 33 24 -25
6 -49 6 -87 -1z"/>
<path d="M3600 3671 c-36 -3 -70 -9 -76 -13 -10 -7 -104 -162 -104 -173 0 -2
17 -13 38 -24 32 -17 35 -20 18 -27 -13 -5 -21 -3 -24 4 -5 17 -37 15 -53 -5
-11 -13 -11 -17 -1 -20 20 -7 14 -23 -15 -34 -31 -12 -484 -14 -686 -3 -100 6
-120 4 -135 -9 -16 -14 -30 -15 -101 -7 -46 5 -92 12 -102 15 -23 8 -23 6 -3
-45 11 -26 22 -40 33 -39 39 3 47 -1 27 -16 -18 -14 -17 -20 4 -57 5 -10 14
-26 18 -35 5 -11 23 -19 46 -21 26 -2 36 0 31 7 -3 6 1 11 9 11 28 0 17 -19
-16 -29 -30 -8 -31 -9 -8 -10 15 -1 31 -6 38 -13 6 -6 61 -13 136 -16 68 -2
130 -8 138 -13 16 -10 18 -70 1 -87 -7 -7 -10 -19 -7 -26 3 -8 1 -17 -5 -21
-17 -10 -13 -22 11 -28 18 -5 19 -8 8 -22 -11 -14 -14 -13 -25 2 -8 10 -15 16
-17 13 -23 -30 -58 -88 -58 -94 0 -4 -13 -24 -30 -44 -16 -21 -32 -52 -36 -70
l-6 -32 61 0 c34 0 61 -4 61 -10 0 -5 -24 -10 -52 -10 -101 -1 -123 -55 -67
-161 31 -58 70 -95 92 -86 12 5 125 188 158 256 10 21 25 43 33 51 9 7 16 16
16 21 0 5 20 40 45 79 25 39 45 72 45 75 0 10 102 174 116 185 34 29 22 -21
-24 -101 -173 -297 -236 -407 -256 -438 -31 -48 -96 -168 -96 -175 0 -9 58
-36 78 -36 11 0 23 8 27 18 6 16 7 16 17 -1 7 -14 20 -18 56 -16 46 2 122 34
122 51 0 5 8 18 18 28 10 11 46 75 81 142 60 116 126 227 140 238 4 3 18 30
30 60 13 30 33 68 45 85 11 16 26 39 32 50 42 77 68 122 79 135 7 8 21 40 31
70 11 30 25 59 32 63 6 4 12 14 12 22 0 7 4 15 9 17 5 2 11 17 13 33 3 29 1
30 -42 35 l-45 5 59 7 c65 8 76 14 79 48 1 13 9 25 19 28 10 2 18 7 18 11 0 4
9 17 20 29 12 12 18 22 15 22 -4 0 3 13 14 29 24 34 26 47 9 84 -11 23 -58 50
-77 45 -3 0 -35 -4 -71 -7z"/>
<path d="M2268 3304 c-12 -21 -41 -66 -63 -99 -22 -33 -46 -77 -53 -97 -12
-35 -11 -42 20 -104 18 -37 47 -83 65 -103 l31 -36 27 20 c14 11 34 33 43 50
9 16 23 34 29 40 19 15 43 92 43 135 0 26 -14 64 -46 121 -65 118 -68 121 -96
73z"/>
<path d="M1828 3035 c-9 -19 -9 -28 0 -37 7 -7 12 -20 12 -30 0 -24 26 -34 45
-18 8 7 21 10 29 7 7 -3 24 1 35 10 36 25 34 9 -4 -37 -33 -39 -46 -68 -26
-56 5 3 11 -5 15 -17 8 -33 48 -48 141 -54 68 -5 85 -2 112 14 l32 19 -41 79
c-22 44 -51 95 -65 113 l-24 32 -125 0 c-123 0 -125 0 -136 -25z"/>
</g>
</svg>
