<?xml version="1.0" standalone="no"?>
<!DOCTYPE svg PUBLIC "-//W3C//DTD SVG 20010904//EN"
 "http://www.w3.org/TR/2001/REC-SVG-20010904/DTD/svg10.dtd">
<svg version="1.0" xmlns="http://www.w3.org/2000/svg"
 width="544.000000pt" height="544.000000pt" viewBox="0 0 544.000000 544.000000"
 preserveAspectRatio="xMidYMid meet">
<metadata>
Created by potrace 1.16, written by Peter Selinger 2001-2019
</metadata>
<g transform="translate(0.000000,544.000000) scale(0.100000,-0.100000)"
fill="#000000" stroke="none">
<path d="M0 5206 c0 -178 3 -236 13 -239 9 -4 9 -6 0 -6 -10 -1 -13 -364 -13
-1745 l0 -1744 77 23 c108 31 169 45 201 45 48 0 60 19 76 111 15 83 13 113
-9 239 -6 32 0 45 50 120 32 47 83 119 114 160 32 41 64 90 72 109 8 19 25 57
39 85 l25 51 70 11 c129 20 210 34 233 39 30 7 29 37 -4 111 -14 33 -29 68
-34 79 -4 11 -13 34 -20 50 -23 55 -70 207 -76 244 -3 20 -8 39 -10 43 -15 24
-36 208 -41 358 -8 268 10 407 89 665 72 235 235 528 383 690 25 28 53 62 61
78 8 15 20 27 27 27 6 0 35 21 62 46 74 67 171 143 250 196 72 47 354 188 377
188 7 0 37 11 65 25 46 21 56 31 77 79 13 29 27 63 31 75 l6 20 -1095 1 -1096
0 0 -234z"/>
<path d="M2192 5403 c-7 -21 -14 -45 -16 -53 -3 -8 -7 -23 -11 -32 -4 -10 -6
-18 -4 -18 2 0 42 7 89 16 47 9 94 17 105 19 11 1 18 8 16 16 -2 8 -6 22 -8
32 -3 9 0 17 5 17 15 0 33 -35 24 -45 -4 -4 29 -4 73 1 44 5 181 8 305 8 l225
-2 164 -42 c204 -52 310 -89 431 -151 225 -116 274 -148 455 -299 68 -57 220
-219 254 -270 20 -30 39 -57 43 -60 3 -3 23 -30 43 -60 65 -96 92 -103 145
-38 58 70 118 125 157 143 36 17 40 17 128 -4 181 -43 223 -45 423 -22 100 11
187 23 192 26 6 4 10 165 10 430 l0 424 -926 1 c-677 0 -930 -3 -940 -11 -10
-8 -14 -8 -14 0 0 14 -112 15 -127 0 -8 -8 -13 -8 -17 0 -5 8 -186 11 -609 11
l-602 0 -13 -37z"/>
<path d="M2510 5280 c-139 -17 -197 -28 -280 -54 -41 -12 -45 -17 -43 -42 3
-35 70 -173 87 -180 7 -3 66 7 132 21 211 46 474 44 689 -6 93 -22 388 -127
393 -141 2 -4 37 -26 78 -49 111 -61 264 -179 369 -284 70 -71 145 -155 145
-163 0 -8 35 -58 70 -99 5 -7 10 -16 10 -20 0 -4 13 -23 29 -42 l28 -34 80 43
80 43 -9 41 c-5 23 -13 45 -19 51 -5 5 -9 17 -9 27 0 10 -4 18 -9 18 -5 0 -11
8 -15 18 -7 22 -69 108 -107 149 -17 18 -47 54 -67 81 -32 41 -79 87 -224 218
-46 42 -180 129 -278 182 -120 64 -344 155 -451 182 -158 41 -503 61 -679 40z"/>
<path d="M2075 5183 c-21 -7 -84 -36 -140 -63 -55 -28 -104 -50 -108 -50 -13
0 -160 -92 -222 -138 -132 -100 -251 -213 -357 -343 -33 -40 -34 -45 -8 -52
11 -3 20 -10 20 -16 0 -14 -33 -14 -47 0 -8 8 -22 -6 -52 -51 -23 -34 -41 -65
-41 -69 0 -4 -8 -15 -18 -24 -16 -15 -103 -180 -137 -262 -30 -70 -75 -228
-96 -335 -20 -101 -23 -145 -23 -365 0 -207 3 -262 17 -320 10 -38 22 -90 26
-115 10 -59 47 -181 66 -217 8 -15 15 -34 15 -40 0 -22 90 -187 117 -215 31
-32 39 -33 118 -13 77 20 90 32 74 71 -7 16 -13 34 -14 39 -2 6 -28 66 -60
135 -31 69 -59 136 -62 149 -2 14 -13 56 -23 95 -52 194 -66 457 -35 661 19
130 61 312 79 340 7 11 19 38 26 59 7 22 26 65 41 97 16 32 29 67 29 78 0 11
8 22 18 25 16 6 41 43 76 113 6 13 14 23 18 23 4 0 14 13 22 28 33 63 313 318
398 363 20 10 39 27 43 38 7 22 32 35 40 21 4 -6 23 0 45 13 28 16 42 32 49
57 8 32 10 33 16 13 8 -26 9 -26 33 -14 47 23 149 66 195 82 20 7 37 18 37 24
0 5 -16 35 -35 65 -19 30 -35 60 -35 67 0 6 -5 24 -12 38 -13 28 -32 30 -93 8z"/>
<path d="M2651 4929 c14 -60 5 -72 -13 -19 -15 44 -15 45 -59 45 -55 -1 -134
-12 -176 -24 -17 -5 -35 -6 -38 -3 -4 4 -5 -13 -1 -38 6 -46 1 -45 -30 6 -10
17 -16 16 -100 -11 -99 -31 -214 -83 -214 -96 0 -5 -7 -9 -16 -9 -19 0 -161
-75 -187 -99 -9 -9 -69 -59 -131 -111 -65 -54 -113 -101 -110 -108 2 -7 0 -11
-5 -8 -4 3 -23 -13 -42 -36 -19 -22 -40 -47 -47 -54 -6 -7 -12 -16 -12 -21 0
-4 -12 -19 -26 -32 -14 -13 -32 -38 -40 -55 -7 -17 -27 -53 -43 -81 -28 -47
-29 -52 -14 -74 15 -23 15 -24 -11 -17 -26 6 -27 6 -20 -29 5 -29 3 -35 -10
-35 -11 0 -27 -21 -43 -57 -32 -71 -33 -74 -15 -95 8 -10 11 -18 6 -19 -5 -1
-18 -2 -29 -3 -29 -2 -28 -44 3 -84 29 -38 26 -47 -12 -33 -14 6 -26 9 -27 8
0 -1 -3 -18 -5 -37 -2 -19 -9 -54 -15 -77 -7 -24 -12 -86 -13 -140 l-1 -97 50
-12 50 -12 -47 -1 -48 -1 0 -74 c0 -59 4 -78 21 -100 11 -14 16 -26 10 -26
-25 0 0 -140 32 -184 13 -17 19 -18 68 -7 95 21 101 22 95 13 -3 -6 -34 -15
-69 -22 -84 -15 -94 -22 -80 -52 6 -13 19 -43 29 -68 10 -25 26 -57 36 -72 10
-15 30 -52 44 -83 26 -57 61 -85 105 -85 12 0 79 18 148 40 104 33 133 46 161
75 18 19 48 40 67 46 29 9 31 12 18 25 -8 8 -11 22 -8 30 3 9 -13 53 -38 100
-40 78 -43 91 -44 162 0 85 14 124 86 239 21 34 39 64 39 67 0 2 18 34 40 70
22 36 40 69 40 73 0 3 6 14 14 22 7 9 28 42 45 74 70 128 95 174 116 207 31
50 85 147 112 202 13 26 27 49 32 52 5 3 21 29 36 58 37 70 49 92 55 98 14 14
70 113 70 124 0 7 8 21 18 32 10 10 25 30 35 43 15 23 15 27 1 42 -18 20 -1
37 20 20 8 -7 73 -12 167 -14 l154 -2 60 -35 c44 -26 72 -53 108 -105 98 -140
106 -186 54 -287 -18 -35 -39 -79 -47 -98 -8 -19 -24 -48 -37 -64 -29 -35 -73
-120 -73 -141 0 -25 164 -21 225 5 33 14 45 25 41 35 -3 8 -1 17 4 20 23 14 7
25 -37 26 -31 1 -37 3 -18 6 87 10 95 14 119 52 35 55 144 138 197 150 24 6
84 11 132 11 122 0 137 -8 244 -137 28 -33 41 -42 62 -39 47 5 194 91 219 127
24 34 26 76 4 71 -10 -2 -10 2 0 18 20 31 5 32 -46 4 -26 -14 -49 -24 -52 -21
-3 3 15 22 41 43 38 33 45 43 40 64 -4 14 -13 32 -21 40 -8 8 -30 40 -49 70
-64 102 -75 117 -100 130 -24 13 -28 11 -71 -31 -58 -55 -54 -37 4 26 36 37
42 48 32 60 -7 8 -19 15 -26 15 -8 0 -14 4 -14 9 0 4 -18 21 -40 36 -22 15
-40 34 -40 41 0 12 -37 44 -51 44 -4 0 -22 -12 -40 -27 l-32 -27 17 32 c17 32
21 64 9 60 -5 -2 -24 9 -44 25 -20 15 -39 27 -42 27 -3 0 -32 16 -64 35 -32
19 -66 35 -76 35 -10 0 -20 6 -23 14 -5 14 -77 48 -92 44 -4 -1 -18 5 -32 14
-37 25 -89 32 -96 13 -9 -23 -24 -18 -24 8 0 13 -6 24 -12 25 -7 0 -23 4 -35
7 -26 8 -37 -10 -48 -74 -4 -24 -10 -38 -14 -32 -4 7 -5 32 -1 57 4 27 3 50
-4 59 -7 9 -56 20 -140 31 -123 17 -130 17 -162 -1 -32 -17 -35 -17 -52 -2
-10 10 -26 17 -34 17 -13 0 -14 -7 -7 -41z"/>
<path d="M4629 4493 c-71 -75 -98 -112 -118 -161 -15 -36 -7 -78 30 -153 58
-117 109 -373 129 -634 8 -109 10 -117 75 -270 60 -143 95 -232 95 -242 0 -7
6 -16 13 -20 6 -4 22 -35 33 -68 45 -126 90 -224 104 -227 10 -2 15 -18 16
-53 3 -91 16 -200 25 -211 5 -7 23 -14 40 -18 32 -6 58 -29 147 -134 47 -54
107 -105 88 -73 -14 22 33 11 61 -14 l28 -25 -37 15 c-23 9 -38 11 -38 5 0 -5
-4 -10 -9 -10 -14 0 -102 88 -146 145 -53 69 -63 75 -112 75 -39 0 -43 -2 -43
-25 0 -81 -102 -163 -267 -215 -40 -12 -80 -31 -89 -41 -21 -23 -47 -139 -69
-299 -65 -499 -77 -545 -162 -649 -38 -46 -62 -64 -147 -106 -96 -48 -156 -65
-320 -90 -63 -10 -80 -27 -96 -97 -17 -73 -20 -225 -5 -236 29 -20 75 -110 90
-175 9 -40 34 -126 56 -193 54 -164 61 -170 267 -240 158 -53 164 -54 272 -53
74 0 110 4 110 12 0 8 4 7 12 -1 9 -9 110 -12 395 -12 l383 0 0 344 c0 295 -2
345 -15 350 -8 3 -15 10 -15 15 0 6 7 8 15 5 13 -5 15 11 15 109 0 63 -4 117
-9 119 -4 2 -11 13 -15 25 -6 18 -4 22 8 17 14 -5 16 8 16 98 0 68 -4 108 -12
116 -9 9 -9 12 0 12 9 0 12 112 12 474 l0 475 -22 16 -23 17 23 -7 22 -6 0
855 c0 709 -2 854 -13 850 -10 -3 -14 4 -14 26 0 22 4 29 14 26 11 -4 13 49
13 299 l0 305 -62 -6 c-35 -3 -99 -9 -143 -14 -214 -25 -242 -24 -374 9 -68
17 -134 31 -145 31 -13 0 -46 -26 -87 -67z"/>
<path d="M2541 4392 c-20 -22 -47 -61 -61 -88 -13 -27 -34 -62 -46 -79 -12
-16 -24 -39 -26 -50 -1 -11 -5 -22 -9 -25 -15 -14 -49 -80 -49 -96 0 -11 -9
-25 -19 -31 -10 -7 -31 -37 -47 -68 -15 -31 -32 -62 -38 -68 -6 -7 -17 -23
-23 -37 -7 -14 -26 -47 -42 -75 -31 -51 -37 -67 -23 -63 4 2 7 -1 7 -7 0 -5
-8 -10 -17 -9 -10 0 -21 -9 -24 -20 -4 -12 -30 -57 -59 -101 -29 -44 -69 -112
-90 -150 -21 -39 -41 -74 -46 -80 -4 -5 -20 -35 -36 -65 -16 -30 -39 -72 -51
-93 -23 -39 -22 -57 4 -57 8 0 17 -7 20 -15 5 -12 26 -15 104 -15 54 0 106 3
115 6 19 8 75 87 75 107 0 8 7 20 15 27 28 23 15 30 -62 31 -91 1 -65 16 31
18 63 1 71 7 101 66 35 69 21 65 266 70 123 3 331 5 461 5 131 0 237 3 237 8
-3 20 4 21 37 7 35 -14 35 -14 29 8 -4 12 -20 35 -37 50 -25 23 -35 27 -61 21
-18 -4 -41 -12 -52 -19 -21 -14 -85 -30 -85 -22 0 11 108 65 142 71 35 6 37 8
26 31 -6 14 -15 25 -20 25 -4 0 -8 5 -8 11 0 28 -29 34 -189 37 -98 2 -173 8
-185 14 -12 7 -87 13 -181 15 -88 2 -164 8 -168 12 -8 8 19 67 79 171 15 25
32 54 38 65 47 83 102 171 108 176 4 3 25 39 46 80 21 41 53 100 71 131 18 32
31 66 29 75 -4 22 -56 31 -172 32 l-79 1 -36 -38z"/>
<path d="M2869 4353 c-30 -36 -209 -333 -209 -346 0 -4 -24 -44 -54 -90 -30
-46 -66 -107 -80 -135 l-26 -52 22 -5 c13 -3 77 -4 142 -3 107 3 120 5 130 23
6 11 13 22 16 25 9 9 30 45 52 90 12 25 36 68 53 95 18 28 35 57 38 65 4 8 23
44 43 79 l35 65 -17 45 c-32 85 -88 160 -120 161 -6 0 -17 -8 -25 -17z"/>
<path d="M4323 4203 c-72 -35 -85 -51 -72 -88 6 -18 45 -155 55 -195 35 -144
45 -209 54 -350 11 -185 15 -208 41 -265 10 -22 32 -78 50 -125 18 -47 40
-100 50 -117 10 -18 21 -45 23 -59 3 -14 9 -31 15 -37 5 -7 17 -32 26 -57 9
-25 20 -54 24 -65 4 -11 27 -60 50 -109 54 -114 62 -169 29 -214 -26 -37 -177
-122 -217 -122 -15 0 -48 -20 -76 -45 -24 -21 -40 -68 -51 -150 -4 -27 -8 -57
-9 -65 -1 -8 -14 -100 -29 -205 -34 -246 -55 -379 -67 -434 -35 -156 -193
-221 -455 -187 -127 17 -451 96 -480 118 -15 11 -73 3 -87 -12 -9 -10 -9 -11
2 -5 11 6 13 3 9 -13 -4 -14 6 -35 34 -69 22 -26 43 -50 47 -53 4 -3 21 -25
39 -49 40 -56 155 -142 230 -172 92 -37 100 -44 113 -108 13 -68 37 -105 62
-95 9 3 17 14 17 23 0 20 26 93 46 132 17 33 61 59 100 59 52 0 220 31 279 52
63 22 130 63 178 107 54 49 86 130 102 258 9 65 17 125 20 133 5 19 15 91 50
363 20 157 41 201 115 239 30 16 75 34 100 40 55 13 80 26 101 50 9 10 24 18
33 18 22 0 48 62 44 104 -2 23 -8 32 -25 34 -32 5 -29 22 5 23 15 1 31 1 35 0
4 -1 7 20 5 46 -2 34 -7 48 -18 48 -11 0 -15 14 -16 55 -1 36 -10 76 -28 114
-14 32 -26 66 -26 75 0 9 -6 25 -14 36 -7 11 -26 52 -41 90 -26 65 -40 99 -93
215 -42 93 -92 230 -98 272 -4 24 -12 47 -18 51 -8 6 -8 10 0 13 6 2 9 17 7
32 -1 15 -10 95 -18 177 -18 171 -23 191 -36 157 -5 -13 -13 -20 -19 -17 -16
10 -12 33 7 44 16 8 16 14 5 53 -7 24 -14 48 -15 55 -2 7 -6 16 -10 19 -4 4
-7 15 -7 24 0 10 -13 44 -30 76 -16 32 -30 64 -30 70 0 7 -10 18 -23 27 -21
13 -28 12 -94 -20z"/>
<path d="M3443 3990 c-38 -16 -28 -69 25 -132 11 -13 18 -15 28 -7 13 11 34 5
34 -10 0 -5 -9 -11 -20 -14 -28 -7 -25 -21 16 -67 41 -45 59 -49 84 -19 l18
20 7 -22 c6 -19 12 -21 59 -15 28 4 54 10 57 14 11 12 18 82 8 82 -5 0 -9 9
-9 20 0 40 -43 112 -80 134 -36 21 -190 33 -227 16z"/>
<path d="M4089 3964 c-24 -20 -68 -49 -98 -64 -31 -16 -69 -40 -86 -53 -28
-23 -30 -30 -31 -94 -1 -95 -9 -123 -70 -243 -70 -136 -97 -181 -151 -259 -24
-35 -60 -95 -80 -135 -19 -39 -43 -82 -53 -96 -19 -26 -31 -48 -97 -170 -23
-41 -57 -101 -76 -132 -19 -32 -40 -71 -47 -88 -7 -16 -16 -30 -21 -30 -5 0
-9 -4 -9 -8 0 -5 -25 -50 -55 -100 -30 -50 -55 -95 -55 -100 0 -12 -61 -73
-95 -94 -45 -27 -214 -26 -290 3 -30 11 -55 23 -55 27 0 9 -49 32 -67 32 -7 0
-14 5 -14 10 -1 6 -2 14 -3 19 0 5 -5 13 -10 18 -5 5 -6 3 -2 -4 4 -7 3 -13
-2 -13 -6 0 -6 -16 0 -42 5 -24 8 -60 6 -81 -3 -45 16 -68 96 -123 28 -19 69
-47 91 -63 40 -29 146 -88 220 -123 22 -10 47 -22 55 -27 18 -10 36 -76 62
-228 11 -68 25 -123 31 -123 6 0 18 -6 26 -14 31 -28 269 -108 456 -154 94
-23 313 -22 368 1 20 9 40 16 43 16 12 -1 33 37 34 60 0 13 -12 44 -26 68 -33
57 -25 65 15 16 39 -48 40 -26 1 44 -38 67 -38 77 1 30 17 -20 34 -37 38 -37
14 0 -2 69 -20 86 -10 9 -19 22 -19 28 0 6 11 -2 25 -18 14 -16 28 -27 31 -24
3 4 7 26 10 50 4 45 22 157 34 218 6 32 3 39 -39 84 -47 50 -42 52 17 9 39
-29 52 -24 28 11 -20 31 -21 50 -2 43 10 -4 16 9 21 51 6 51 16 102 31 154 3
9 -9 32 -28 54 l-33 37 35 -18 c37 -19 36 -19 84 45 13 18 131 80 152 80 8 0
14 5 14 10 0 6 6 10 14 10 8 0 29 12 46 27 30 25 32 29 26 76 -4 28 -14 63
-22 78 -7 15 -14 39 -14 53 0 16 -11 34 -32 50 -24 19 -28 26 -15 26 21 0 23
18 2 26 -8 4 -18 24 -21 46 -4 22 -17 52 -29 66 -12 15 -26 42 -30 60 -6 29
-23 75 -68 182 -5 14 -11 30 -13 35 -34 108 -41 120 -75 125 l-34 6 33 7 c18
4 31 11 27 16 -3 6 -7 72 -10 148 -2 76 -6 145 -8 153 -3 8 -8 27 -11 43 -4
18 -13 27 -26 27 -11 0 -20 5 -20 10 0 6 4 10 10 10 5 0 14 9 20 20 8 15 6 32
-12 72 -28 68 -60 118 -75 118 -6 0 -30 -16 -54 -36z"/>
<path d="M3323 3908 c-11 -13 -32 -48 -47 -79 -14 -31 -35 -66 -46 -79 -24
-28 -26 -75 -4 -121 24 -49 53 -69 100 -69 52 0 62 10 27 27 -26 12 -25 13 24
9 l52 -5 30 48 c36 56 37 61 12 126 -17 46 -22 51 -57 56 -34 5 -33 7 5 13 20
2 18 13 -8 51 -32 47 -59 54 -88 23z"/>
<path d="M3516 3636 c-14 -22 -23 -43 -18 -47 4 -3 58 -3 121 0 113 6 115 6
122 32 3 15 4 31 0 37 -3 5 -49 12 -102 14 l-97 5 -26 -41z"/>
<path d="M3525 3556 c-5 -3 -26 -7 -45 -10 -31 -5 -40 -13 -64 -63 -24 -45
-27 -59 -17 -74 15 -24 14 -29 -4 -29 -8 0 -15 5 -15 10 0 6 -11 3 -24 -6 -22
-14 -66 -15 -392 -10 -280 5 -370 3 -382 -6 -16 -14 -150 -13 -200 1 -26 8
-32 7 -32 -5 0 -24 47 -129 80 -178 26 -38 38 -47 71 -52 22 -4 42 -11 45 -15
3 -5 51 -10 107 -10 183 -2 196 -12 148 -115 -18 -38 -36 -71 -40 -74 -5 -3
-23 -34 -42 -70 -18 -36 -36 -67 -39 -70 -3 -3 -21 -35 -38 -72 -40 -84 -36
-122 22 -209 62 -94 74 -94 135 2 28 44 51 84 51 88 0 4 11 21 25 37 13 15 27
41 30 55 4 15 12 32 19 38 16 13 42 54 149 235 77 132 107 168 107 132 0 -9
-26 -60 -59 -113 -32 -54 -85 -145 -118 -203 -33 -58 -84 -143 -112 -190 -28
-47 -63 -109 -78 -138 l-26 -52 21 -23 c19 -20 32 -23 109 -25 49 -1 100 3
115 9 42 17 104 108 184 270 18 36 40 71 48 78 9 8 16 19 16 26 0 6 19 41 41
76 42 64 66 107 151 269 25 47 59 109 76 138 18 29 32 56 32 60 0 4 14 27 30
51 17 25 29 49 27 55 -2 6 7 19 20 29 13 10 23 27 23 37 0 10 3 20 8 22 15 6
64 80 57 86 -7 7 -204 14 -220 8z"/>
<path d="M2280 3332 c0 -4 -22 -42 -49 -84 -98 -150 -103 -168 -61 -237 l21
-33 25 23 c19 18 24 19 24 6 0 -9 -4 -19 -10 -22 -13 -8 -13 -61 0 -86 14 -24
62 -25 86 -1 16 16 16 17 1 20 -10 2 -15 7 -12 12 3 5 12 7 20 4 10 -4 18 4
26 22 5 16 19 38 30 50 11 11 21 34 23 50 3 16 7 37 11 47 11 27 -102 237
-127 237 -4 0 -8 -4 -8 -8z"/>
<path d="M1833 3045 c-20 -22 -16 -42 19 -96 l33 -49 52 52 c29 29 53 48 53
43 0 -5 -21 -31 -47 -58 l-48 -48 33 -30 c37 -33 64 -36 109 -11 17 9 54 29
82 45 28 15 51 30 51 33 0 9 -52 97 -68 117 -13 14 -33 17 -136 17 -92 -1
-124 -4 -133 -15z"/>
<path d="M2521 3029 c-39 -8 -79 -47 -135 -132 -80 -120 -158 -155 -357 -158
-147 -2 -205 -15 -253 -57 -22 -19 -63 -39 -106 -52 -76 -23 -200 -75 -200
-85 0 -4 9 -3 20 0 26 8 26 -9 -1 -27 -21 -14 -21 -15 -4 -48 10 -19 21 -37
24 -40 3 -3 32 -36 64 -75 31 -38 63 -75 70 -81 16 -15 44 -49 87 -106 21 -29
48 -52 68 -59 29 -10 32 -14 29 -42 -4 -31 18 -95 37 -108 8 -7 18 -29 46
-109 33 -92 34 -94 53 -75 27 26 30 12 8 -32 -17 -32 -19 -45 -11 -73 26 -86
29 -401 5 -590 -3 -30 -1 -51 9 -63 12 -16 21 -13 117 45 57 33 112 68 123 77
69 60 90 260 60 588 -11 122 -1 157 66 227 114 119 207 221 224 248 17 26 16
29 -7 90 -32 80 -47 128 -47 143 0 7 11 29 25 49 27 40 31 66 14 83 -23 23
-14 106 16 159 55 95 83 156 79 169 -3 7 3 16 14 19 20 7 52 61 52 90 0 8 -8
19 -17 25 -21 10 -122 11 -172 0z"/>
<path d="M1220 2468 c-36 -11 -69 -23 -73 -28 -5 -4 -1 -25 8 -46 16 -38 122
-190 160 -230 50 -52 86 -97 161 -199 45 -60 87 -121 94 -135 7 -14 16 -27 20
-30 12 -9 50 -155 59 -230 21 -160 17 -244 -19 -485 -18 -119 -18 -120 1 -135
13 -10 18 -22 13 -33 -7 -20 -30 -23 -36 -5 -3 7 -13 -28 -22 -77 -10 -50 -27
-126 -37 -170 -10 -44 -22 -112 -25 -151 l-7 -71 32 -22 c28 -20 46 -23 180
-27 l149 -5 11 51 c20 94 10 170 -23 170 -7 0 -26 10 -41 22 -27 21 -28 22
-21 105 4 56 3 82 -4 78 -15 -9 -12 11 4 24 12 10 20 43 31 133 2 15 8 44 14
65 38 151 42 565 6 678 -11 33 -24 63 -30 67 -5 4 -6 8 -1 8 5 0 -4 10 -19 21
-22 18 -26 27 -21 51 3 16 1 37 -4 46 -5 9 -18 37 -28 62 -25 59 -97 156 -191
255 -42 45 -89 98 -106 119 -60 76 -132 146 -151 145 -10 0 -48 -10 -84 -21z"/>
<path d="M795 2409 c-130 -24 -140 -29 -157 -81 -18 -53 -116 -200 -227 -342
-39 -50 -43 -60 -37 -93 17 -105 18 -190 2 -253 -31 -122 -24 -115 -139 -133
-56 -9 -132 -25 -170 -37 l-67 -21 0 -724 0 -725 644 0 c506 0 645 3 649 13 4
9 6 9 6 0 1 -10 51 -13 216 -13 l215 0 11 28 c6 15 13 43 16 62 5 32 43 119
75 169 7 11 9 23 5 28 -4 4 -68 12 -143 19 -118 10 -140 15 -175 39 -61 40
-72 77 -66 216 3 65 10 127 17 139 6 12 20 70 30 128 11 59 26 141 35 182 25
125 42 269 44 382 2 99 1 107 -20 121 -23 17 -20 53 5 44 11 -4 11 4 4 41 -26
131 -81 240 -170 342 -74 84 -87 100 -165 196 -99 122 -160 203 -175 232 -6
12 -15 22 -20 22 -4 0 -8 6 -8 14 0 9 -18 15 -52 20 -67 7 -63 8 -183 -15z"/>
<path d="M2512 2090 c-83 -92 -94 -110 -67 -110 8 0 15 -4 15 -9 0 -5 15 -12
33 -15 34 -6 76 -44 117 -106 52 -76 121 -149 150 -155 16 -3 34 -13 41 -21 6
-8 18 -14 27 -14 19 0 150 -39 175 -52 10 -5 43 -8 73 -6 49 3 54 5 50 23 -3
11 -8 40 -11 65 -9 61 -33 184 -40 202 -4 9 -38 28 -77 43 -66 26 -215 118
-334 206 -29 21 -57 39 -62 39 -4 0 -45 -41 -90 -90z"/>
<path d="M2410 1845 c-7 -8 -15 -13 -19 -11 -14 9 -11 -80 5 -128 27 -83 90
-189 141 -237 68 -65 236 -138 376 -164 20 -4 40 -11 43 -16 3 -5 15 -9 28 -9
25 0 220 -56 248 -71 22 -11 68 -12 68 0 0 5 -7 14 -16 22 -19 16 -144 194
-144 205 0 5 -15 19 -33 31 -31 21 -64 33 -296 104 -102 32 -106 34 -177 106
-41 40 -83 91 -94 112 -11 22 -30 47 -42 55 -28 20 -72 21 -88 1z"/>
<path d="M2366 1470 c-10 -10 -24 -16 -32 -13 -10 4 -14 -3 -14 -23 -1 -79
-20 -215 -34 -242 -30 -58 -130 -143 -222 -190 -37 -19 -42 -26 -54 -79 -8
-32 -22 -82 -32 -112 -17 -51 -17 -55 0 -67 36 -28 88 -31 427 -26 61 1 293
-8 307 -11 23 -6 28 11 30 106 2 78 2 79 5 17 2 -36 5 -78 8 -95 l5 -30 232 2
c128 1 262 5 296 9 62 6 64 7 79 42 13 32 14 48 3 117 -6 44 -15 82 -19 85 -3
3 -14 17 -23 31 -12 18 -35 33 -73 44 -45 15 -55 22 -55 40 0 34 -26 49 -150
89 -63 20 -149 47 -190 61 -88 29 -100 30 -100 10 0 -23 -18 -18 -22 7 -2 17
-18 28 -68 46 -36 13 -78 26 -93 29 -19 4 -32 15 -39 32 -6 14 -12 21 -15 14
-7 -20 -31 -3 -38 27 -4 16 -15 32 -25 35 -11 3 -30 19 -44 36 -29 34 -26 33
-50 9z"/>
<path d="M3461 1035 c-4 -33 -2 -52 8 -90 13 -50 14 -209 1 -254 -5 -19 -20
-43 -32 -55 -22 -21 -28 -21 -633 -23 -766 -2 -864 -3 -870 -13 -3 -4 -8 -53
-11 -108 l-7 -100 45 -7 c78 -12 590 -1 623 14 l30 12 -27 21 c-29 21 -36 42
-17 54 11 6 53 -34 75 -72 10 -18 30 -19 250 -25 131 -3 345 -5 474 -4 305 1
302 -1 334 145 8 41 17 114 18 161 2 82 0 89 -30 134 -18 27 -40 73 -49 103
-17 54 -19 56 -88 88 -78 38 -91 41 -94 19z"/>
<path d="M3812 568 c-11 -18 -28 -60 -38 -93 -10 -33 -28 -75 -41 -93 -45 -61
-66 -66 -293 -70 -162 -3 -207 -7 -213 -18 -10 -17 -34 -18 -40 -1 -3 9 -141
12 -646 12 l-643 0 -19 -25 c-10 -14 -23 -30 -28 -36 -24 -29 -101 -213 -101
-241 0 -2 584 -3 1298 -3 l1297 1 -89 29 c-49 17 -95 30 -104 30 -8 0 -35 11
-59 25 -34 21 -50 40 -77 93 -31 63 -75 188 -110 313 -13 48 -56 118 -56 93 0
-5 -4 -3 -9 4 -6 10 -13 5 -29 -20z"/>
</g>
</svg>
