<?xml version="1.0" standalone="no"?>
<!DOCTYPE svg PUBLIC "-//W3C//DTD SVG 20010904//EN"
 "http://www.w3.org/TR/2001/REC-SVG-20010904/DTD/svg10.dtd">
<svg version="1.0" xmlns="http://www.w3.org/2000/svg"
 width="544.000000pt" height="544.000000pt" viewBox="0 0 544.000000 544.000000"
 preserveAspectRatio="xMidYMid meet">
<metadata>
Created by potrace 1.16, written by Peter Selinger 2001-2019
</metadata>
<g transform="translate(0.000000,544.000000) scale(0.100000,-0.100000)"
fill="#000000" stroke="none">
<path d="M0 2720 l0 -2720 2720 0 2720 0 0 2720 0 2720 -2720 0 -2720 0 0
-2720z m2891 2641 c176 -13 390 -59 514 -111 11 -4 36 -14 55 -21 143 -52 391
-195 525 -304 65 -52 269 -259 303 -307 94 -130 120 -172 187 -301 119 -228
172 -422 190 -697 13 -178 33 -247 145 -495 17 -38 47 -110 135 -320 91 -217
98 -382 22 -496 -29 -43 -108 -91 -209 -126 -43 -16 -87 -35 -99 -44 -26 -19
-43 -89 -69 -279 -58 -424 -77 -518 -121 -600 -77 -145 -242 -232 -504 -265
-71 -9 -84 -14 -95 -35 -10 -19 -26 -92 -36 -159 -2 -18 -6 -36 -8 -40 -3 -4
-14 -63 -26 -132 -37 -226 -67 -284 -158 -308 -29 -8 -335 -11 -1059 -9 -997
3 -1019 3 -1052 23 -95 56 -100 140 -28 515 26 135 53 283 60 330 17 118 16
391 -2 455 -17 60 -73 185 -95 211 -8 11 -43 56 -78 100 -35 45 -101 126 -146
180 -152 180 -290 405 -342 559 -9 27 -22 51 -28 51 -24 3 -26 4 -15 15 8 8 6
29 -8 78 -11 36 -27 91 -36 121 -29 102 -52 318 -53 490 0 416 134 816 388
1160 73 98 277 301 372 371 321 235 652 358 1056 391 79 7 144 16 144 20 0 5
8 4 18 -1 9 -5 78 -14 153 -20z"/>
<path d="M2514 5280 c-290 -32 -647 -162 -849 -310 -27 -20 -57 -41 -66 -46
-31 -17 -134 -108 -225 -199 -171 -170 -308 -374 -403 -599 -42 -97 -100 -331
-115 -456 -25 -215 -18 -507 15 -605 6 -16 13 -48 16 -70 5 -37 43 -164 63
-210 5 -11 21 -51 36 -90 35 -91 80 -182 110 -222 13 -17 24 -35 24 -39 0 -4
28 -46 62 -93 70 -96 75 -102 136 -175 24 -28 51 -60 60 -72 49 -61 80 -99
108 -132 17 -20 44 -59 59 -87 16 -27 34 -57 41 -65 22 -27 63 -191 74 -297
11 -109 4 -226 -25 -388 -8 -44 -24 -136 -36 -205 -12 -69 -28 -156 -35 -195
-8 -38 -21 -107 -30 -152 -9 -45 -14 -93 -10 -106 8 -34 37 -63 70 -71 15 -4
473 -7 1017 -7 905 0 992 1 1024 17 20 9 40 24 44 33 14 25 71 345 71 395 0
14 4 34 10 44 5 9 14 44 21 76 15 80 46 111 120 120 231 28 309 48 386 101 77
52 163 188 163 258 0 26 44 349 66 487 9 52 19 121 24 153 16 105 56 142 210
192 121 40 172 86 184 169 18 115 -27 275 -154 551 -5 11 -29 70 -53 130 -25
61 -57 133 -71 161 -27 54 -52 146 -62 226 -3 26 -12 54 -20 62 -10 11 -11 17
-3 22 28 17 -11 297 -59 429 -81 221 -117 296 -214 442 -73 111 -112 157 -258
301 -263 261 -638 452 -997 508 -113 17 -425 26 -529 14z m573 -258 c78 -17
156 -38 172 -46 15 -8 57 -26 92 -39 111 -42 295 -148 404 -233 153 -118 285
-260 370 -395 175 -279 219 -423 240 -779 8 -139 25 -205 98 -375 33 -77 66
-157 73 -179 8 -21 34 -79 58 -130 98 -203 114 -289 63 -346 -20 -23 -179
-100 -205 -100 -22 0 -70 -35 -89 -64 -12 -17 -26 -62 -33 -101 -6 -38 -15
-92 -20 -120 -8 -45 -23 -161 -35 -270 -2 -22 -10 -78 -18 -125 -8 -47 -18
-110 -22 -140 -8 -75 -25 -129 -49 -165 -26 -39 -40 -49 -106 -82 -52 -26 -61
-27 -190 -26 -143 2 -254 23 -510 93 -63 18 -126 34 -140 37 -14 3 -29 9 -35
13 -5 4 -26 11 -45 15 -19 4 -82 22 -140 40 -58 19 -139 44 -180 56 -41 12
-95 32 -120 45 -49 24 -155 136 -185 194 -29 59 -44 70 -91 70 -33 0 -46 -5
-58 -22 -20 -28 -21 -98 -1 -124 8 -10 15 -28 15 -39 0 -27 45 -111 87 -163
70 -86 155 -135 323 -188 96 -29 188 -54 203 -54 9 0 31 -6 49 -14 18 -7 60
-24 93 -36 33 -12 68 -26 77 -31 10 -5 25 -9 33 -9 8 0 15 -3 15 -7 0 -5 28
-29 63 -55 52 -38 69 -58 96 -115 30 -60 34 -80 39 -173 2 -64 0 -122 -7 -148
-22 -80 36 -75 -846 -76 l-783 -1 -26 24 c-14 14 -31 21 -40 18 -20 -8 -21 12
-1 27 28 21 96 439 110 686 7 109 3 157 -30 351 -4 24 -43 124 -80 205 -10 21
-42 74 -72 116 -29 43 -53 79 -53 81 0 3 -18 24 -41 48 -22 24 -59 66 -82 93
-23 27 -62 70 -87 95 -25 25 -52 58 -59 73 -8 15 -29 44 -48 64 -18 20 -33 41
-33 47 0 6 -16 40 -36 76 -130 235 -195 500 -196 796 0 138 4 179 33 335 10
55 44 187 58 225 10 27 136 282 158 320 57 97 258 319 344 381 23 16 56 41 74
57 18 15 37 27 43 27 5 0 15 7 22 15 6 7 37 29 68 47 211 120 390 185 612 218
41 6 76 13 78 15 2 2 90 2 195 0 170 -2 208 -6 334 -33z"/>
<path d="M2500 4949 c-25 -4 -66 -11 -92 -14 -47 -6 -48 -7 -48 -43 l-1 -37
-15 28 c-8 15 -17 27 -19 27 -19 0 -226 -75 -289 -105 -84 -40 -229 -130 -269
-168 -13 -12 -45 -40 -72 -62 -57 -47 -85 -73 -104 -98 -12 -15 -10 -23 19
-60 l32 -42 -38 39 -38 39 -40 -46 c-91 -102 -166 -218 -166 -255 0 -11 -7
-23 -16 -26 -15 -6 -15 -8 2 -28 19 -21 19 -21 -8 -14 -22 5 -28 3 -28 -11 0
-9 -18 -54 -41 -99 -42 -84 -43 -104 -8 -104 10 0 19 -4 19 -10 0 -5 -13 -10
-28 -10 -25 0 -31 -6 -40 -39 -16 -51 -16 -51 18 -62 42 -15 37 -28 -9 -22
l-38 5 -7 -73 c-3 -41 -9 -117 -12 -171 l-7 -96 49 -15 49 -15 -48 -1 -49 -1
6 -47 c3 -27 7 -65 8 -87 1 -21 8 -41 15 -43 10 -4 10 -9 3 -18 -10 -13 -2
-76 21 -164 12 -43 13 -43 48 -36 20 3 56 8 81 10 38 4 34 1 -25 -14 -82 -21
-86 -28 -54 -109 34 -86 111 -236 126 -245 7 -4 13 -15 13 -22 0 -8 7 -15 15
-15 8 0 17 -11 21 -25 5 -21 9 -23 26 -14 28 15 33 4 8 -19 -21 -20 -21 -21
-3 -39 10 -10 41 -46 68 -78 28 -33 75 -87 106 -120 82 -88 137 -162 170 -226
16 -32 33 -60 38 -63 5 -4 22 -39 37 -79 15 -39 31 -76 36 -81 4 -6 8 -20 8
-33 0 -27 16 -30 42 -6 29 26 32 8 5 -37 -24 -41 -24 -42 -9 -108 19 -81 22
-434 4 -497 -6 -22 -14 -67 -17 -100 -3 -33 -10 -91 -15 -130 -26 -191 -26
-190 50 -198 46 -6 377 -11 395 -7 6 1 13 2 17 1 4 0 79 -3 167 -5 136 -4 160
-2 165 11 3 8 7 65 8 126 l2 112 5 -117 c3 -64 9 -120 13 -124 9 -9 426 -7
518 2 89 9 102 26 94 119 -10 128 -47 195 -105 195 -15 0 -31 5 -34 10 -3 6 1
10 9 10 24 0 19 23 -7 36 -12 6 -40 20 -62 32 -22 11 -80 32 -130 48 -49 15
-121 38 -160 52 -75 26 -114 29 -126 10 -5 -8 -12 -3 -19 16 -6 16 -13 26 -16
23 -4 -3 -51 17 -106 46 -72 37 -118 69 -164 115 -35 35 -64 69 -64 75 -1 7
-12 -1 -25 -18 l-25 -30 6 50 c5 41 2 58 -16 90 -12 22 -31 71 -42 108 -34
124 -2 213 89 251 36 15 50 16 96 6 30 -6 63 -19 73 -29 36 -35 64 -71 64 -84
0 -8 12 -25 28 -39 15 -14 40 -42 55 -62 16 -21 41 -43 55 -49 15 -6 29 -15
32 -18 3 -4 19 -9 35 -12 17 -2 47 -12 68 -20 20 -9 38 -16 40 -16 1 0 15 -4
30 -10 15 -6 31 -10 35 -9 4 1 14 -1 22 -5 14 -5 56 -18 225 -68 39 -11 97
-29 130 -39 33 -10 83 -24 110 -31 28 -6 55 -16 60 -20 14 -10 151 -38 258
-51 110 -14 205 -1 271 37 54 32 58 52 21 116 -34 61 -31 69 11 28 34 -32 36
-32 29 -9 -4 14 -16 37 -26 52 -28 39 -23 46 10 14 46 -44 52 -6 9 56 -26 37
-22 46 7 18 14 -13 26 -22 28 -19 8 10 27 111 33 174 4 39 11 80 15 93 8 19 1
31 -39 74 -48 52 -44 55 16 11 35 -26 44 -14 17 24 -14 20 -14 23 4 32 15 8
22 34 36 122 l17 111 -29 30 -28 30 32 -16 32 -16 48 47 c45 45 158 113 185
113 20 0 77 44 82 64 6 22 -14 116 -25 116 -4 0 -10 17 -14 38 -8 44 -20 60
-55 75 l-25 11 24 4 23 4 -22 15 c-14 10 -18 19 -12 25 10 10 6 21 -70 187
-16 35 -38 87 -49 115 -11 28 -27 65 -34 81 -8 17 -18 46 -23 65 -7 29 -13 36
-38 38 -45 5 -51 20 -11 27 20 4 34 12 32 18 -2 7 -9 84 -15 172 -14 206 -13
199 -41 205 -20 5 -21 7 -7 12 22 9 17 53 -15 138 -26 67 -35 74 -82 55 -15
-6 -12 0 11 24 l31 32 -26 49 -25 48 -61 -29 -60 -30 54 49 55 49 -21 29 c-11
16 -23 38 -27 49 -3 11 -26 42 -51 69 -25 26 -45 51 -45 55 0 10 -50 61 -60
61 -5 0 -27 -18 -49 -40 -37 -37 -51 -47 -51 -35 0 3 20 26 45 51 l44 46 -32
39 c-18 21 -37 39 -43 39 -6 0 -27 17 -47 38 -65 67 -61 67 -108 14 l-42 -47
27 47 c14 26 26 51 26 57 0 10 -85 71 -99 71 -4 0 -26 13 -49 30 -22 16 -52
32 -66 36 -15 3 -26 10 -26 14 0 4 -26 18 -57 30 -32 12 -73 28 -91 36 -44 19
-82 18 -98 -3 -12 -16 -13 -15 -14 10 0 33 -28 48 -42 24 -11 -21 -32 -22 -24
-2 3 8 1 15 -3 15 -5 0 -14 -22 -21 -50 -16 -67 -27 -63 -22 8 l4 58 -53 13
c-30 6 -92 15 -139 18 -81 6 -84 5 -67 -11 9 -10 14 -22 11 -28 -4 -6 -13 1
-23 16 -14 23 -22 26 -74 26 l-59 0 6 -45 c9 -55 2 -58 -15 -7 -6 20 -17 40
-23 44 -14 9 -57 8 -116 -3z m352 -475 c53 -18 146 -104 181 -166 12 -22 31
-57 41 -77 27 -49 25 -110 -5 -166 -13 -25 -27 -45 -31 -45 -5 0 -8 -7 -8 -16
0 -16 -58 -134 -71 -144 -14 -11 -20 -71 -9 -85 25 -30 163 -4 187 34 11 18 9
20 -18 26 -39 9 -31 17 22 21 37 4 51 13 117 80 41 41 96 86 123 99 43 23 61
25 170 25 137 0 166 -10 210 -75 13 -19 27 -35 32 -35 4 0 7 -4 7 -9 0 -6 13
-30 30 -54 17 -25 30 -52 30 -60 0 -8 6 -17 13 -19 8 -3 13 -30 14 -79 2 -62
-2 -82 -22 -121 -14 -26 -25 -54 -25 -61 0 -8 -9 -22 -20 -32 -11 -10 -20 -25
-20 -33 0 -8 -22 -48 -49 -87 -27 -40 -52 -82 -56 -94 -3 -11 -10 -21 -14 -21
-4 0 -18 -21 -31 -47 -13 -27 -30 -54 -37 -61 -7 -7 -13 -19 -13 -26 0 -7 -13
-30 -29 -52 -16 -21 -46 -73 -67 -114 -20 -41 -46 -88 -57 -105 -12 -16 -28
-41 -37 -55 -19 -28 -84 -146 -112 -202 -10 -21 -23 -38 -28 -38 -6 0 -10 -6
-10 -13 0 -8 -22 -51 -50 -96 -27 -45 -50 -84 -50 -87 0 -11 -49 -59 -80 -79
-48 -31 -199 -46 -295 -30 -64 11 -124 79 -209 239 -59 110 -58 130 9 270 44
93 46 100 30 113 -16 11 -16 13 -3 18 9 4 15 13 14 21 -4 29 -27 39 -91 39
-58 0 -66 -3 -82 -25 -9 -14 -48 -57 -87 -96 -94 -94 -145 -114 -292 -114
-119 0 -162 13 -206 62 -15 17 -28 36 -28 40 0 5 -4 7 -9 3 -12 -7 -65 98 -87
171 -15 53 -15 61 1 123 10 36 25 77 34 91 10 14 22 36 29 50 13 28 25 46 65
103 15 22 27 45 27 50 0 6 11 24 23 41 26 34 157 251 157 259 0 3 16 34 36 69
20 34 47 81 59 103 42 74 167 290 186 320 10 17 28 48 40 70 12 22 27 49 33
60 28 49 88 124 104 128 9 3 74 5 143 6 90 1 138 -3 171 -15z"/>
<path d="M2585 4423 c-30 -7 -58 -42 -96 -114 -19 -35 -37 -66 -40 -69 -17
-15 -17 -42 1 -60 27 -27 25 -33 -10 -28 -26 4 -33 -1 -55 -35 -15 -21 -27
-49 -28 -62 -1 -13 -14 -33 -29 -45 -16 -12 -28 -27 -28 -35 0 -7 -3 -15 -7
-17 -5 -1 -20 -25 -34 -53 -15 -27 -61 -110 -103 -184 -42 -73 -76 -137 -76
-142 0 -5 -4 -9 -8 -9 -8 0 -39 -57 -40 -74 0 -5 -4 -12 -9 -15 -11 -8 -82
-153 -86 -177 -2 -11 -6 -26 -10 -34 -14 -38 -16 -50 -9 -51 4 0 25 -3 46 -5
22 -3 42 -1 45 4 3 5 26 19 51 30 43 20 44 21 15 22 -16 0 -37 5 -45 10 -11 7
-6 10 22 10 20 0 43 6 50 13 8 6 23 17 33 23 28 16 31 51 6 59 -12 3 -25 4
-29 1 -5 -3 -22 -1 -38 4 -25 7 -22 8 24 9 61 1 86 12 120 52 13 16 28 29 34
29 5 0 23 9 38 20 16 11 40 21 55 22 15 2 31 11 37 21 6 12 17 17 29 14 21 -6
79 13 79 25 0 7 -15 10 -65 12 -11 1 -20 6 -20 11 0 6 24 9 55 8 75 -3 83 0
68 32 -7 15 -24 28 -42 33 -35 9 -47 43 -24 70 28 35 60 103 54 118 -3 8 -2
12 3 9 5 -3 12 -1 16 4 3 6 -11 13 -31 17 -29 5 -33 9 -20 16 10 5 23 5 36 -2
28 -15 34 -9 80 73 22 40 51 89 63 109 167 275 179 300 159 320 -13 13 -198
22 -237 11z"/>
<path d="M2842 4313 c-21 -32 -52 -83 -69 -113 -35 -64 -155 -267 -192 -325
-23 -36 -71 -131 -71 -141 0 -2 21 -4 48 -4 34 0 43 3 32 10 -13 8 -12 10 3
10 9 0 17 -4 17 -9 0 -4 38 -9 84 -10 l85 -2 48 81 c26 45 62 106 78 135 17
29 47 82 67 117 63 108 63 106 16 196 -36 69 -75 112 -102 112 -3 0 -23 -26
-44 -57z"/>
<path d="M3478 3321 c-37 -38 -38 -38 -15 -48 19 -9 16 -11 -28 -17 -67 -9
-116 -25 -137 -44 -15 -12 -18 -13 -18 -1 -1 9 -7 6 -19 -8 -11 -13 -24 -23
-30 -23 -12 0 -15 -29 -5 -54 3 -9 15 -16 26 -16 16 0 19 -5 14 -24 -3 -14 -1
-28 5 -31 6 -4 8 -22 6 -41 -3 -19 -1 -34 4 -34 5 0 9 -7 9 -16 0 -9 -7 -14
-17 -12 -20 4 -62 -64 -43 -70 16 -6 12 -32 -5 -32 -18 0 -20 -26 -2 -34 8 -3
6 -9 -7 -20 -19 -15 -19 -16 7 -16 15 0 27 -4 27 -10 0 -5 -15 -9 -34 -8 -20
1 -46 -8 -65 -21 -33 -24 -40 -41 -16 -41 17 0 20 -16 6 -25 -5 -3 -17 2 -25
11 -14 13 -16 13 -16 0 0 -18 -60 -116 -71 -116 -5 0 -9 -5 -9 -12 0 -6 -11
-26 -25 -44 -14 -18 -25 -37 -25 -42 0 -5 -14 -25 -30 -43 -43 -48 -37 -73 19
-77 80 -6 131 23 131 73 0 14 6 25 13 25 7 0 35 44 62 98 27 53 67 124 88 157
20 32 35 65 33 72 -3 7 0 13 7 13 7 1 5 6 -5 14 -10 7 -18 25 -18 40 0 21 4
27 18 24 9 -2 16 -10 14 -16 -1 -7 3 -12 9 -12 5 0 7 -6 4 -12 -4 -7 3 -2 14
11 12 13 21 32 21 42 0 10 3 19 8 19 9 0 48 62 115 185 30 55 75 137 99 182
25 45 43 85 40 88 -3 3 -26 5 -51 5 -40 0 -51 -5 -83 -39z"/>
<path d="M1936 2917 c-26 -26 -26 -47 0 -82 12 -17 29 -20 119 -23 93 -4 106
-2 112 13 8 23 -14 62 -50 89 -19 14 -47 21 -91 24 -58 4 -67 2 -90 -21z"/>
<path d="M2831 2892 c0 -7 -5 -11 -10 -8 -12 8 -71 -42 -71 -60 0 -8 -4 -14
-10 -14 -5 0 -10 -8 -10 -18 0 -9 -10 -22 -22 -27 -12 -6 -30 -25 -40 -42
l-18 -33 34 0 c62 0 96 11 96 31 0 11 4 19 9 19 5 0 14 15 21 33 7 17 16 41
22 53 5 11 8 34 5 50 -2 16 -5 23 -6 16z"/>
</g>
</svg>
