<?xml version="1.0" standalone="no"?>
<!DOCTYPE svg PUBLIC "-//W3C//DTD SVG 20010904//EN"
 "http://www.w3.org/TR/2001/REC-SVG-20010904/DTD/svg10.dtd">
<svg version="1.0" xmlns="http://www.w3.org/2000/svg"
 width="544.000000pt" height="544.000000pt" viewBox="0 0 544.000000 544.000000"
 preserveAspectRatio="xMidYMid meet">
<metadata>
Created by potrace 1.16, written by Peter Selinger 2001-2019
</metadata>
<g transform="translate(0.000000,544.000000) scale(0.100000,-0.100000)"
fill="#000000" stroke="none">
<path d="M0 5356 c0 -53 4 -87 12 -92 7 -4 8 -3 4 4 -9 14 25 16 39 3 6 -5 42
-26 81 -46 70 -35 141 -95 114 -95 -7 0 4 -13 25 -30 44 -35 38 -40 -8 -7 -18
13 -45 29 -62 36 -28 12 -27 10 15 -34 25 -26 36 -43 25 -37 -40 21 -191 125
-218 150 l-27 26 0 -47 0 -46 98 -65 c111 -75 184 -133 201 -158 17 -27 7 -22
-54 28 -45 36 -162 116 -232 158 -9 5 -13 -1 -13 -21 0 -26 14 -39 131 -118
72 -49 133 -94 136 -99 4 -5 -9 0 -28 11 -19 12 -59 36 -89 54 -30 18 -74 45
-97 61 -23 15 -44 28 -47 28 -3 0 -6 -85 -6 -189 0 -217 -10 -194 112 -245 61
-25 105 -56 81 -56 -5 0 -48 20 -95 45 -48 25 -89 45 -92 45 -3 0 -6 -11 -6
-24 0 -20 12 -28 80 -57 45 -18 86 -39 92 -46 19 -24 -19 -15 -92 22 -38 19
-72 35 -75 35 -3 0 -5 -17 -5 -37 0 -36 3 -39 55 -62 69 -30 66 -39 -4 -12
l-51 21 0 -384 0 -384 23 -16 22 -17 -22 6 -22 6 -1 -270 0 -271 31 0 c17 0
28 -4 24 -10 -3 -5 -17 -10 -31 -10 -23 0 -24 -3 -24 -65 l0 -64 67 -4 68 -3
-67 -2 c-68 -2 -68 -2 -68 -31 0 -33 14 -41 73 -41 24 0 75 -13 119 -32 l78
-32 22 21 c26 24 83 39 92 24 8 -12 -8 -22 -45 -30 -28 -6 -28 -6 -10 -30 17
-22 21 -23 51 -12 18 6 61 11 96 11 35 0 66 5 69 10 3 6 40 10 81 10 62 0 77
3 91 20 10 11 22 20 29 20 6 0 19 8 28 19 15 16 16 33 10 125 -4 59 -11 109
-16 112 -5 3 -4 12 3 20 9 11 8 14 -5 14 -9 0 -16 5 -16 10 0 6 3 10 8 10 4 0
6 83 4 185 -2 154 -5 185 -17 185 -8 0 -15 5 -15 10 0 6 7 10 15 10 20 0 19
25 -2 46 -15 15 -15 18 -2 28 24 17 43 58 41 89 -1 15 3 37 9 49 14 27 49 190
51 241 1 21 5 40 10 43 5 3 2 14 -8 25 -18 20 -20 18 31 34 21 6 19 54 -2 61
-10 4 -31 12 -48 19 -16 7 -37 15 -45 19 -8 3 0 4 19 1 19 -3 48 -12 64 -20
28 -14 31 -13 53 9 13 12 36 50 51 82 15 32 33 65 40 72 7 7 13 19 13 26 0 7
18 38 40 69 23 31 40 62 39 69 -3 26 1 39 12 33 15 -10 49 34 49 63 0 17 4 23
14 19 10 -4 31 13 58 46 24 29 46 53 49 55 4 2 4 12 2 23 -5 17 -2 20 14 17
14 -2 42 16 83 52 34 30 79 66 98 80 20 14 39 37 42 50 5 20 11 24 32 22 20
-3 33 6 59 37 18 23 38 41 46 41 24 0 103 42 103 55 0 7 11 13 24 13 33 0 176
73 176 91 0 8 7 11 20 8 22 -6 24 0 21 56 -3 45 3 47 24 7 25 -49 35 -35 35
50 0 64 -3 80 -15 80 -9 0 -15 -9 -15 -25 0 -14 -4 -25 -9 -25 -5 0 -12 11
-15 25 -4 14 -13 25 -20 25 -12 0 -13 -7 -5 -32 12 -45 3 -47 -17 -4 -17 34
-20 36 -66 36 l-48 0 6 -32 c4 -25 3 -29 -5 -18 -6 8 -11 23 -11 33 0 15 -12
17 -110 17 -98 0 -110 -2 -110 -17 -1 -17 -1 -17 -14 0 -11 14 -29 17 -105 17
-50 0 -91 -2 -91 -4 0 -3 10 -21 21 -41 31 -52 18 -52 -16 0 -15 25 -34 45
-41 45 -20 0 -18 -8 12 -49 23 -33 22 -33 -14 7 -41 43 -76 57 -66 25 5 -17 5
-17 -9 0 -10 12 -29 17 -62 17 -45 0 -47 -1 -33 -17 8 -10 25 -38 37 -63 23
-47 16 -41 -36 34 l-33 46 -204 0 c-188 -1 -204 -3 -199 -18 6 -16 5 -15 -14
1 -15 13 -38 17 -98 17 -73 0 -77 -1 -63 -17 30 -35 31 -47 1 -20 -32 29 -59
36 -49 12 8 -22 -12 -18 -26 5 -7 11 -24 20 -37 20 l-25 0 25 -27 c69 -78 113
-153 88 -153 -5 0 -53 41 -108 90 -54 50 -104 90 -110 90 -5 0 41 -53 104
-117 63 -65 115 -122 115 -127 0 -5 -8 -3 -18 6 -35 29 -247 213 -260 225 -17
16 -32 17 -32 1 0 -14 34 -50 159 -174 125 -124 91 -123 -54 1 -33 28 -76 61
-95 73 -41 24 -99 82 -82 82 6 0 14 -4 17 -10 13 -21 23 -9 12 15 -12 24 -15
25 -114 25 l-103 0 0 -84z m154 43 c8 -8 3 -7 -14 1 -25 12 -25 12 -5 -7 43
-42 203 -191 255 -238 30 -27 44 -42 30 -33 -14 10 -43 27 -65 38 -22 12 -53
34 -69 48 l-29 27 23 -35 23 -35 -34 31 c-19 16 -51 39 -71 49 -21 11 -38 23
-38 28 0 5 17 -1 38 -14 34 -20 32 -17 -23 39 -33 34 -56 62 -52 62 5 0 1 10
-7 22 -9 12 -16 26 -16 30 0 10 42 0 54 -13z"/>
<path d="M2343 5403 c1 -37 13 -57 29 -47 4 3 8 14 8 25 0 10 4 19 9 19 4 0 6
-11 4 -24 -4 -20 -1 -23 19 -21 12 1 42 3 65 4 33 1 43 5 49 23 6 20 8 20 19
5 9 -13 28 -17 74 -17 58 0 61 1 61 25 0 14 6 25 13 25 8 0 19 -11 25 -25 13
-28 49 -33 82 -12 17 10 22 9 29 -2 6 -10 57 -19 163 -31 135 -15 155 -16 170
-3 17 15 38 10 38 -8 0 -17 22 -34 59 -47 51 -18 70 -15 81 12 14 38 27 39 34
1 4 -21 14 -36 26 -40 11 -4 20 -10 20 -15 0 -4 8 -10 18 -13 9 -3 50 -19 91
-37 41 -17 81 -28 88 -26 7 3 15 1 18 -4 3 -5 13 -6 22 -3 12 5 15 2 10 -10
-4 -12 12 -29 61 -65 37 -27 73 -47 80 -44 6 2 12 -1 12 -6 0 -5 8 -12 18 -16
23 -7 54 -28 67 -44 9 -11 16 -9 38 8 15 12 27 29 27 39 0 18 18 41 32 41 14
0 9 -27 -7 -40 -19 -16 -19 -30 -1 -30 12 0 13 -6 4 -32 -9 -25 -8 -33 3 -42
8 -6 19 -22 25 -36 6 -14 24 -32 40 -40 23 -13 108 -93 151 -144 12 -14 63
-10 63 5 0 5 8 9 17 9 13 0 14 -3 5 -12 -7 -7 -12 -25 -12 -41 0 -26 1 -27 16
-12 12 11 20 13 27 6 8 -8 7 -15 -1 -23 -27 -27 -14 -40 31 -33 l42 7 -25 -28
c-14 -16 -21 -26 -16 -22 5 4 15 0 22 -10 7 -9 16 -14 20 -10 4 4 1 14 -5 22
-10 12 -9 15 6 14 10 0 26 3 36 7 12 5 17 3 17 -9 0 -9 -6 -16 -12 -16 -7 0
-2 -6 12 -13 23 -12 25 -18 22 -65 l-3 -52 48 0 c26 0 62 7 78 16 23 12 47 15
107 10 45 -3 80 -1 83 4 3 6 14 10 24 10 21 0 67 38 63 52 -1 5 2 7 7 4 5 -3
14 1 20 8 10 12 8 13 -8 9 -36 -9 -23 11 29 46 28 19 50 36 50 38 0 2 -15 -3
-34 -11 -18 -8 -39 -10 -46 -6 -8 5 8 15 44 29 31 11 79 32 107 46 27 14 55
25 62 24 19 -3 73 25 137 71 31 22 44 25 113 23 l77 -3 0 320 0 320 -379 0
-380 0 -15 -22 c-12 -17 -16 -19 -16 -6 0 9 6 19 13 21 9 4 9 6 -1 6 -7 1 -31
-19 -54 -44 -23 -25 -54 -53 -68 -61 -14 -9 -1 8 28 38 28 29 52 57 52 61 0 4
-31 7 -70 7 l-70 0 -29 -57 c-33 -63 -70 -115 -71 -97 0 6 18 39 40 73 22 34
40 67 40 74 -1 7 -9 -2 -18 -20 -9 -17 -29 -45 -43 -61 -15 -16 -35 -41 -44
-56 -10 -14 -22 -26 -27 -26 -5 0 -2 7 6 16 9 8 16 19 16 24 0 4 21 34 46 66
l45 59 -33 3 c-29 3 -39 -2 -80 -50 -26 -29 -48 -49 -48 -44 0 4 14 24 30 43
17 18 30 38 30 43 0 14 -67 13 -92 -1 -15 -8 -19 -8 -14 0 10 15 -37 14 -53
-1 -11 -10 -13 -10 -7 0 12 21 -4 13 -30 -15 -20 -23 -23 -24 -15 -6 15 30 14
33 -8 33 -10 0 -27 -12 -36 -27 -27 -42 -87 -114 -92 -110 -9 10 30 79 57 99
17 12 30 25 30 30 0 13 -78 9 -84 -4 -5 -10 -7 -10 -12 0 -4 8 -36 12 -107 12
-81 0 -104 -3 -120 -17 -19 -17 -20 -17 -14 0 6 15 0 17 -46 17 l-53 0 -18
-55 c-9 -30 -21 -57 -26 -60 -17 -10 -11 24 10 65 11 22 20 42 20 45 0 3 -18
5 -39 5 -29 0 -41 -5 -44 -17 -4 -16 -5 -17 -6 -1 -1 16 -21 17 -220 18 l-220
0 -4 -27 -4 -28 -2 28 -1 27 -374 0 -374 0 1 -37z m2597 13 c0 -2 -28 -32 -62
-68 -35 -35 -85 -90 -113 -121 -77 -88 -155 -147 -96 -72 23 29 -42 -31 -108
-99 -54 -56 -107 -93 -118 -82 -9 8 68 85 81 80 6 -2 65 52 131 122 124 131
285 267 285 240z m128 -238 c-23 -35 -186 -163 -252 -197 -63 -33 -59 -18 9
32 29 21 33 27 16 22 -13 -4 -48 -27 -77 -51 -52 -41 -94 -69 -94 -61 0 6 149
127 155 127 4 0 34 19 68 43 76 53 87 60 87 53 0 -3 -15 -19 -32 -37 l-33 -32
32 22 c18 12 39 32 47 43 16 22 65 58 80 58 5 0 2 -10 -6 -22z m-73 -456 c-6
-5 -35 -26 -65 -47 -30 -22 -61 -47 -67 -56 -12 -16 -70 -51 -220 -131 -80
-43 -83 -43 -83 -25 0 8 21 25 48 38 26 13 61 33 77 45 17 12 58 38 92 58 34
20 65 42 69 49 6 9 4 9 -7 2 -19 -13 11 12 58 48 23 18 48 27 71 27 20 0 32
-4 27 -8z"/>
<path d="M2619 5290 c-13 -3 -28 -16 -34 -28 -12 -27 -25 -29 -25 -2 0 22 -25
28 -33 8 -4 -10 -6 -10 -6 0 -1 6 -12 12 -26 12 -19 0 -25 -5 -25 -22 -1 -20
-2 -21 -13 -8 -13 17 -43 15 -65 -3 -9 -7 -12 -23 -9 -44 6 -35 -9 -55 -24
-32 -5 8 -6 22 -3 33 4 12 2 16 -5 12 -6 -4 -11 -18 -11 -32 0 -14 -4 -23 -8
-20 -5 3 -18 -1 -29 -9 -27 -19 -34 -66 -13 -86 18 -20 70 -31 70 -16 0 7 4 7
12 -1 7 -7 33 -12 59 -12 35 0 49 4 54 18 5 15 7 15 15 2 7 -13 23 -14 102 -8
114 9 398 -8 453 -27 22 -7 60 -16 84 -19 24 -4 68 -18 98 -32 30 -13 59 -21
65 -18 6 4 14 1 18 -6 4 -6 41 -23 81 -37 41 -14 81 -31 89 -38 33 -26 130
-76 128 -65 -2 7 3 15 11 17 9 4 11 0 7 -13 -4 -15 8 -28 50 -59 31 -22 60
-48 65 -57 14 -27 24 -22 44 22 10 22 21 40 24 40 11 0 7 -54 -6 -75 -10 -18
-6 -25 35 -60 26 -22 64 -57 84 -77 21 -21 44 -38 53 -38 8 0 15 -9 15 -19 0
-11 29 -49 64 -85 75 -77 101 -84 147 -35 24 26 27 33 15 44 -8 8 -23 11 -36
8 -17 -4 -21 -2 -18 8 6 17 72 50 76 38 7 -17 22 -9 22 11 0 11 -5 20 -10 20
-6 0 -19 18 -29 41 -20 45 -73 99 -97 99 -10 0 -13 6 -10 18 9 31 -166 201
-189 182 -15 -13 -25 -3 -25 25 0 27 -16 41 -80 71 -27 13 -65 39 -85 58 -19
19 -53 40 -75 46 -21 6 -43 18 -48 26 -8 14 -12 14 -32 3 -17 -10 -24 -11 -27
-2 -8 22 -52 63 -71 66 -11 1 -30 10 -43 18 -13 8 -51 24 -84 34 -33 10 -78
26 -100 36 -22 10 -58 19 -80 19 -22 0 -58 7 -80 14 -22 8 -53 16 -69 18 -25
3 -31 -1 -42 -32 l-12 -35 -1 36 -1 36 -50 2 c-43 0 -50 -2 -50 -18 0 -27 -32
-20 -47 10 -14 27 -46 28 -75 2 -14 -13 -17 -13 -25 0 -9 16 -76 26 -114 17z"/>
<path d="M1975 5137 c-41 -15 -40 -14 -20 -37 15 -16 16 -23 6 -33 -12 -12
-23 -3 -34 28 -2 6 -13 2 -24 -7 -11 -10 -31 -18 -46 -18 -28 0 -44 -15 -27
-25 13 -8 53 -85 47 -91 -7 -7 -36 31 -56 71 l-18 38 -19 -21 c-10 -12 -24
-22 -30 -22 -6 0 -17 -6 -23 -14 -6 -7 -25 -16 -41 -20 -25 -5 -30 -10 -30
-36 0 -16 -4 -30 -10 -30 -5 0 -10 7 -10 15 0 22 -13 18 -38 -10 l-22 -25 25
-6 c28 -7 43 -41 25 -58 -9 -8 -18 -3 -40 23 l-28 33 -59 -43 c-85 -63 -204
-190 -201 -214 2 -13 -3 -20 -13 -20 -24 0 -48 -23 -70 -66 -23 -46 -24 -59
-5 -59 20 0 31 -19 17 -33 -7 -7 -16 -5 -31 8 -20 19 -21 18 -46 -9 -23 -24
-24 -29 -12 -44 8 -9 18 -25 21 -35 6 -17 4 -16 -19 2 -32 25 -38 22 -65 -31
l-20 -40 22 -24 c12 -13 18 -24 12 -24 -6 0 -13 7 -17 15 -10 28 -33 15 -51
-27 -9 -24 -21 -51 -26 -61 -5 -10 -7 -22 -4 -26 3 -5 -2 -11 -10 -14 -7 -3
-17 -23 -21 -44 -4 -21 -11 -41 -17 -44 -5 -4 -20 -46 -33 -95 -18 -67 -21
-91 -12 -102 9 -10 9 -15 -2 -22 -23 -14 -49 -139 -55 -260 -3 -63 -7 -131 -9
-150 -3 -29 8 -222 15 -267 1 -7 8 -13 16 -13 16 0 17 -17 1 -22 -10 -4 -9
-18 5 -60 9 -30 17 -62 17 -70 0 -9 11 -19 24 -22 15 -4 26 -15 28 -28 4 -27
48 -40 88 -27 42 15 78 67 69 99 -4 14 -8 43 -8 65 -2 60 -11 86 -30 83 -9 -2
-16 4 -16 12 0 9 7 14 18 12 14 -2 16 2 11 22 -8 35 -12 309 -4 321 4 6 10 37
13 70 7 87 56 300 83 370 13 33 40 91 59 129 19 37 35 75 35 83 0 8 9 27 19
42 13 18 17 32 10 42 -16 25 -11 41 12 34 28 -9 61 29 53 61 -5 19 -3 23 10
18 11 -4 16 -1 16 10 0 9 9 25 19 35 11 11 21 27 23 38 2 12 11 17 26 16 15
-2 20 2 16 12 -4 9 1 17 12 21 27 10 64 45 64 61 0 7 4 12 9 11 5 -2 24 11 42
27 19 17 71 59 116 94 46 34 82 65 82 69 -4 27 2 34 16 22 12 -10 22 -8 56 14
22 15 61 39 87 53 68 38 119 73 104 73 -6 0 -12 7 -12 15 0 8 9 15 20 15 29 0
25 29 -5 40 -14 5 -30 21 -35 35 -13 34 -13 35 4 35 15 0 27 35 19 56 -6 16
-26 16 -68 1z"/>
<path d="M2654 4958 c-3 -4 -3 -29 1 -56 5 -49 -2 -42 -25 22 -9 25 -14 28
-40 22 -20 -4 -30 -1 -30 7 -1 6 -8 0 -16 -15 -14 -28 -34 -38 -34 -18 0 27
-19 5 -29 -32 -10 -39 -9 -44 12 -61 53 -42 69 -63 107 -140 23 -45 50 -90 61
-100 10 -10 19 -22 19 -27 0 -16 50 -60 68 -60 24 0 104 -25 138 -43 83 -43
204 -217 204 -293 0 -19 -22 -74 -55 -139 -30 -59 -55 -114 -55 -121 0 -8 -5
-14 -11 -14 -16 0 -73 -130 -62 -141 5 -5 50 -9 99 -7 85 3 89 4 101 29 8 17
24 29 43 32 48 10 39 37 -12 38 -42 2 -41 2 15 12 54 9 62 13 92 56 37 51 115
120 156 138 15 6 70 15 122 19 97 7 166 -7 208 -43 8 -7 21 -13 27 -13 6 0 20
-9 31 -21 25 -27 73 -19 89 16 7 14 16 25 22 25 5 0 10 9 10 20 0 12 20 40 44
64 l44 43 -1 74 c0 41 -2 66 -5 57 -4 -20 -19 -23 -42 -8 -13 9 -11 13 10 29
23 18 24 20 6 27 -13 5 -22 1 -28 -11 -8 -14 -12 -15 -19 -4 -13 21 -11 26 16
33 25 6 25 7 8 34 -26 39 -51 62 -69 62 -11 0 -14 -6 -9 -20 4 -13 2 -20 -7
-20 -7 0 -27 -17 -45 -37 -17 -21 -34 -35 -38 -31 -10 9 22 66 44 77 10 6 24
24 29 40 10 28 7 33 -41 80 -29 28 -60 51 -69 51 -9 0 -20 9 -23 20 -10 31
-30 24 -70 -22 l-36 -43 25 52 c31 63 32 67 6 60 -11 -3 -18 -1 -15 3 7 11
-22 40 -40 40 -7 0 -37 20 -66 45 -51 44 -126 85 -153 85 -8 0 -26 5 -40 11
-19 9 -29 9 -40 0 -12 -10 -15 -8 -18 11 -2 19 -9 23 -43 24 -23 1 -48 -5 -57
-14 -17 -14 -18 -13 -18 10 0 29 -30 48 -30 20 -1 -16 -2 -15 -11 1 -15 26
-36 6 -44 -41 -3 -21 -10 -44 -16 -52 -8 -13 -6 32 5 114 0 6 -21 13 -48 17
-27 4 -61 13 -75 18 -31 13 -270 21 -277 9z"/>
<path d="M2047 4793 c-4 -3 -7 -22 -7 -42 l-1 -36 -23 29 c-18 22 -29 27 -43
21 -10 -5 -22 -7 -26 -6 -5 1 -19 -7 -32 -17 -16 -13 -21 -23 -14 -33 5 -8 9
-17 9 -21 0 -13 -48 -9 -52 3 -3 8 -10 6 -20 -5 -9 -9 -22 -16 -28 -16 -6 0
-15 -11 -20 -25 -8 -22 -26 -30 -52 -26 -5 0 -8 -3 -8 -9 0 -5 -5 -10 -11 -10
-17 0 -149 -138 -149 -156 0 -8 -4 -13 -9 -10 -14 9 -91 -81 -91 -106 0 -13 9
-29 20 -36 11 -7 20 -17 20 -22 0 -18 -35 -11 -48 10 -15 25 -37 17 -53 -22
-13 -32 -3 -48 33 -48 9 0 20 -5 24 -11 5 -8 -6 -9 -35 -4 -48 8 -63 -1 -88
-53 -13 -26 -14 -37 -5 -40 14 -4 16 -22 2 -22 -17 0 -49 -38 -56 -65 -3 -14
-10 -25 -14 -25 -4 0 -10 -19 -14 -42 -4 -23 -12 -46 -19 -50 -9 -6 -7 -12 6
-22 23 -18 22 -26 -6 -26 -18 0 -24 -8 -33 -44 -10 -43 -9 -45 21 -60 l30 -15
-36 0 -37 -1 -11 -77 c-6 -43 -12 -120 -14 -172 l-2 -95 50 -11 c53 -12 43
-26 -12 -17 l-32 4 -3 -63 c-3 -57 4 -83 29 -118 2 -2 33 -4 70 -3 l68 0 -70
-11 c-38 -7 -70 -16 -70 -22 0 -5 6 -32 13 -60 17 -65 69 -105 140 -106 l47
-1 -30 -13 c-27 -12 -28 -14 -10 -21 11 -4 23 -12 27 -18 4 -6 11 -12 15 -12
26 -5 53 -18 53 -25 0 -26 42 -49 89 -49 28 0 52 -4 55 -9 4 -5 29 -15 56 -22
28 -7 50 -16 50 -21 0 -15 25 -8 37 11 7 11 22 21 34 23 36 5 42 50 17 122
-12 36 -21 90 -22 131 -1 62 3 79 36 145 37 76 68 131 79 140 5 5 23 36 100
178 16 28 41 71 56 95 15 23 32 51 38 62 6 11 36 64 66 118 30 54 69 125 87
159 18 34 39 69 46 77 7 9 37 61 66 116 29 55 62 112 72 127 10 14 21 41 25
60 3 18 17 47 30 64 25 34 30 64 11 64 -8 1 -5 8 7 18 22 20 30 42 15 42 -5 0
-10 7 -10 16 0 23 -52 93 -74 100 -11 4 -44 24 -75 45 -31 22 -64 39 -73 39
-10 0 -18 4 -18 8 0 5 -15 15 -32 23 -25 12 -41 13 -67 5 -28 -8 -36 -7 -46 7
-12 17 -36 22 -48 10z"/>
<path d="M5290 4592 c-14 -9 -29 -23 -34 -31 -5 -8 -24 -29 -42 -45 -17 -17
-35 -41 -39 -53 -3 -13 -12 -23 -19 -23 -7 0 -34 -19 -60 -42 -40 -35 -45 -43
-31 -50 13 -8 14 -13 4 -24 -6 -8 -16 -14 -21 -14 -5 0 -33 -11 -61 -24 -65
-30 -133 -46 -191 -46 -25 0 -48 -4 -51 -10 -3 -5 -16 -10 -28 -10 -16 0 -19
-3 -8 -9 18 -12 7 -27 -25 -35 -21 -6 -77 -46 -63 -46 18 0 163 35 249 60 112
32 130 35 130 21 0 -4 -30 -18 -67 -30 -38 -12 -54 -19 -38 -16 83 15 118 18
111 7 -7 -12 -132 -42 -173 -42 l-28 1 30 14 c17 7 23 14 15 14 -14 1 -214
-48 -215 -52 0 -1 -10 -14 -23 -28 -30 -35 -20 -61 21 -57 17 2 32 -2 34 -9 3
-7 -8 -13 -24 -15 -20 -2 -29 -9 -31 -25 -2 -13 2 -23 8 -23 7 0 9 -8 5 -20
-6 -18 -2 -20 49 -20 55 0 81 -15 55 -31 -8 -5 -29 -9 -46 -9 -23 0 -33 -5
-33 -15 0 -8 2 -15 4 -15 2 0 23 7 46 15 52 18 55 18 41 2 -6 -8 -29 -20 -52
-27 l-42 -14 7 -111 c9 -138 12 -150 42 -164 29 -13 32 -31 4 -31 -16 0 -20
-7 -20 -37 0 -40 34 -148 71 -230 12 -26 30 -66 40 -88 10 -22 25 -51 33 -65
8 -14 29 -61 46 -105 51 -128 58 -140 93 -154 30 -13 31 -14 9 -18 -18 -3 -22
-9 -16 -21 33 -78 59 -172 69 -252 9 -68 25 -99 64 -125 17 -11 31 -23 31 -27
0 -5 6 -8 14 -8 22 0 86 -40 86 -54 0 -13 61 -46 85 -46 8 0 15 -4 15 -9 0 -8
105 -91 115 -91 3 0 5 290 5 645 l0 645 -40 0 c-22 0 -40 4 -40 9 0 5 18 12
40 16 29 5 40 12 40 25 0 15 -9 18 -57 18 -32 -1 -73 3 -92 7 l-34 8 24 13
c13 7 44 14 69 15 94 2 96 17 3 18 -50 1 -93 -3 -95 -8 -3 -10 -46 -15 -93
-12 l-30 3 30 10 c17 5 50 15 75 23 36 10 39 13 18 14 -31 1 -49 21 -19 21 10
0 21 5 23 12 4 11 76 33 146 45 18 3 32 11 32 19 0 8 -1 14 -2 14 -2 0 -46 -9
-98 -20 -90 -19 -159 -26 -148 -15 2 3 42 12 89 20 128 24 159 35 159 57 0 10
-1 18 -2 18 -2 0 -36 -6 -77 -14 -40 -8 -69 -11 -65 -6 13 11 104 40 126 40
17 0 18 19 18 388 l0 387 -33 2 c-17 1 -45 4 -62 7 -19 3 -39 -1 -55 -12z"/>
<path d="M2721 4406 c-19 -8 -21 -17 -21 -87 0 -43 -4 -81 -10 -84 -5 -3 -10
-26 -10 -51 0 -27 4 -43 10 -39 17 10 89 167 83 181 -3 10 0 12 10 8 19 -7 40
28 35 59 -2 18 -10 22 -40 22 -20 1 -45 -4 -57 -9z"/>
<path d="M2530 4358 c-11 -12 -20 -27 -20 -33 0 -6 -8 -18 -17 -27 -39 -37
-45 -48 -29 -54 9 -3 16 -12 16 -20 0 -17 -37 -19 -43 -1 -2 6 -8 -1 -12 -18
-5 -16 -23 -51 -40 -76 -18 -25 -36 -56 -40 -70 -4 -13 -18 -37 -31 -54 -12
-16 -38 -59 -56 -95 -42 -81 -65 -120 -112 -190 -20 -30 -39 -65 -42 -77 -4
-13 -10 -23 -15 -23 -5 0 -9 -4 -9 -9 0 -8 -29 -60 -76 -136 -14 -22 -33 -56
-42 -75 -10 -19 -35 -66 -57 -103 -22 -38 -45 -77 -50 -87 -6 -10 -16 -24 -22
-32 -19 -22 -11 -56 16 -68 16 -7 59 -9 128 -4 103 7 104 7 143 45 23 22 37
45 34 52 -3 8 2 21 10 30 28 28 18 37 -41 37 -76 0 -58 18 22 22 l60 3 38 58
c43 63 85 92 120 81 25 -9 312 -7 400 2 33 3 57 11 57 18 0 6 9 17 20 24 12 7
18 17 14 23 -9 14 47 59 74 59 12 0 30 4 40 9 9 5 25 12 34 15 9 3 22 15 29
28 6 13 8 20 4 16 -4 -4 -18 -3 -32 3 -13 5 -61 13 -106 18 -45 5 -95 17 -112
25 -23 12 -63 16 -177 16 -92 0 -149 4 -153 11 -8 11 16 67 52 119 12 19 23
42 23 51 0 10 6 20 13 22 6 3 -8 6 -32 6 -24 1 -41 4 -37 8 4 4 24 6 46 4 38
-2 40 -1 64 48 30 58 33 81 10 81 -8 0 -12 5 -9 10 3 6 15 10 26 10 14 0 19 7
19 25 0 14 -4 25 -10 25 -5 0 -10 5 -10 10 0 6 7 10 16 10 12 0 15 6 9 23 -3
12 -9 57 -12 100 -3 42 -8 77 -12 77 -3 0 -18 11 -33 25 l-27 25 -21 -22z"/>
<path d="M2844 4312 c-21 -30 -52 -84 -70 -119 -19 -35 -49 -84 -69 -110 -38
-49 -38 -52 -26 -128 11 -62 4 -75 -19 -40 -10 15 -20 27 -23 28 -10 3 -109
-154 -118 -185 -5 -20 -4 -30 5 -34 6 -2 70 -3 141 -2 121 3 130 4 134 23 2
11 15 38 30 60 15 22 33 53 39 69 7 16 28 52 46 80 64 97 115 202 105 217 -5
8 -9 25 -9 39 0 14 -5 32 -10 40 -8 13 -11 11 -16 -7 -4 -14 -14 -23 -25 -23
-22 0 -22 1 -8 51 10 32 9 42 -4 62 -9 14 -27 27 -41 29 -22 5 -31 -2 -62 -50z"/>
<path d="M4392 4149 c-20 -13 -39 -18 -50 -14 -42 18 -62 14 -68 -13 -3 -15
-8 -35 -10 -44 -4 -12 3 -19 21 -24 19 -5 23 -10 16 -17 -29 -29 2 -110 39
-100 12 3 20 0 20 -7 0 -8 -9 -11 -25 -8 -22 5 -25 2 -25 -24 0 -16 6 -30 13
-32 53 -16 54 -17 30 -33 -19 -13 -22 -21 -17 -62 3 -25 9 -55 13 -66 27 -71
30 -87 16 -101 -10 -11 -13 -31 -9 -77 7 -88 12 -107 29 -107 8 0 15 -7 15
-15 0 -8 -4 -15 -10 -15 -12 0 -13 -40 -2 -58 5 -7 16 -10 24 -7 13 5 16 -3
16 -43 0 -58 32 -128 67 -144 17 -7 26 -22 30 -50 5 -30 13 -42 33 -49 26 -10
26 -11 8 -24 -10 -8 -23 -16 -29 -18 -7 -2 -7 -9 -2 -18 5 -8 10 -19 11 -25 4
-25 55 -93 75 -99 13 -5 17 -10 10 -14 -7 -5 7 -28 39 -66 28 -33 48 -65 46
-71 -3 -7 19 -13 64 -18 38 -3 75 -8 83 -11 13 -6 16 20 9 101 -2 23 -39 44
-79 44 -38 0 -24 9 19 12 42 2 45 -9 -34 157 -32 68 -58 127 -58 131 0 4 -11
5 -24 3 -32 -7 -42 13 -10 21 20 5 24 11 19 29 -15 48 -34 67 -70 67 -40 0
-46 16 -11 30 l23 9 -19 58 c-11 32 -22 81 -25 109 -5 50 -6 51 -24 33 -18
-18 -79 -27 -79 -11 1 12 49 43 71 45 19 1 20 6 15 57 -3 30 -8 96 -12 145 -3
50 -10 95 -15 101 -5 6 -12 35 -15 65 -3 29 -12 69 -19 89 -7 19 -16 47 -19
61 -9 41 -44 79 -74 79 -23 1 -25 2 -9 11 17 10 25 49 10 49 -5 0 -23 -10 -41
-21z"/>
<path d="M3485 3985 c-5 -2 -22 -6 -37 -9 -32 -7 -37 -35 -13 -60 8 -8 15 -21
15 -29 0 -8 6 -19 13 -25 18 -16 119 -6 129 12 4 8 27 17 51 21 23 4 45 9 49
12 10 5 -17 59 -34 69 -13 8 -155 15 -173 9z"/>
<path d="M4102 3924 c-56 -56 -89 -84 -99 -84 -12 0 -93 -90 -93 -105 0 -7 -4
-17 -10 -20 -5 -3 -10 -22 -10 -41 0 -24 4 -34 16 -34 9 0 14 -6 12 -12 -3 -7
-13 -13 -24 -13 -23 0 -44 -25 -74 -90 -12 -27 -26 -58 -31 -67 -13 -26 -11
-58 4 -59 6 0 -7 -9 -31 -19 -39 -18 -42 -22 -36 -47 16 -73 71 -111 162 -112
49 -1 71 -6 95 -23 18 -12 34 -26 35 -30 2 -4 13 -8 25 -8 11 0 28 -6 36 -14
22 -20 164 -56 219 -56 l44 0 -5 38 c-11 71 -20 107 -29 119 -6 7 -12 33 -14
59 -6 59 -11 67 -40 61 -14 -2 -27 -1 -29 3 -3 4 9 10 26 14 17 3 28 10 25 14
-3 5 -10 82 -15 172 -6 89 -15 168 -21 175 -6 7 -29 15 -52 19 -49 8 -40 27
13 29 23 1 34 7 34 17 0 8 -6 14 -12 13 -9 -2 -13 10 -13 37 0 23 -6 42 -14
47 -8 4 -21 21 -29 37 l-15 28 -50 -48z"/>
<path d="M3315 3895 c-16 -15 -25 -36 -25 -55 0 -21 -4 -29 -12 -24 -7 4 -8 3
-4 -4 4 -7 -4 -23 -18 -37 -15 -14 -26 -31 -26 -36 0 -6 7 -3 16 5 8 9 18 16
21 16 4 0 3 -3 0 -7 -4 -3 -2 -12 4 -20 12 -13 2 -18 -28 -14 -8 1 -13 -10
-12 -31 0 -18 3 -27 6 -20 6 14 33 16 33 2 0 -17 21 -11 39 11 15 19 22 20 62
12 47 -10 95 -1 84 17 -3 5 -24 10 -45 10 -21 0 -42 5 -45 10 -3 6 -3 11 2 11
4 1 23 3 42 5 44 5 51 12 27 30 -11 8 -14 14 -8 14 7 0 12 6 12 14 0 10 -14
16 -42 19 l-43 3 33 8 c38 10 40 24 7 60 -30 32 -49 33 -80 1z"/>
<path d="M2340 3370 c0 -22 80 -170 92 -170 4 0 8 -7 8 -14 0 -11 15 -16 53
-18 48 -3 50 -4 27 -15 -19 -9 -21 -12 -7 -12 10 -1 28 -8 41 -17 16 -10 41
-14 73 -12 44 3 48 5 45 26 -1 18 2 23 15 20 10 -2 18 -12 18 -23 0 -17 8 -20
48 -22 45 -2 47 -1 47 25 0 16 -5 33 -12 40 -9 9 -9 15 -1 23 8 8 17 4 32 -12
25 -27 24 -21 21 -124 -5 -173 -5 -177 -23 -186 -14 -8 -16 -19 -11 -64 5 -42
3 -60 -10 -80 -16 -24 -16 -25 9 -25 30 0 30 0 9 -44 -16 -33 -16 -35 4 -61
l21 -27 13 27 c10 22 9 28 -2 35 -8 5 -11 12 -7 16 3 4 13 1 22 -6 12 -10 16
-8 24 11 5 13 7 27 5 31 -3 4 5 12 16 18 18 9 75 90 93 130 19 43 154 254 165
258 25 8 11 -32 -41 -116 -30 -48 -65 -107 -79 -132 -14 -25 -64 -113 -113
-197 -48 -84 -87 -164 -87 -177 0 -14 -4 -24 -8 -21 -10 6 -23 -34 -20 -65 3
-33 6 -36 25 -20 13 11 19 9 38 -9 18 -16 36 -21 76 -21 83 0 116 27 185 154
21 39 51 94 66 121 15 28 59 102 99 165 101 163 156 277 140 296 -10 12 -9 16
7 20 37 10 63 114 29 114 -9 0 -18 6 -21 13 -3 8 -10 14 -17 14 -62 4 -102 13
-118 27 -11 9 -30 16 -42 16 -13 0 -27 3 -31 8 -4 4 -53 7 -109 7 -86 0 -113
4 -172 27 -79 30 -303 63 -358 53 -51 -10 -147 -11 -147 -2 0 4 -29 7 -65 7
-39 0 -65 -4 -65 -10z"/>
<path d="M2286 3322 c-3 -9 -26 -46 -51 -81 -49 -70 -59 -116 -25 -118 11 -1
32 11 47 28 15 16 34 29 40 29 7 0 18 9 25 20 7 11 18 20 25 20 17 0 17 4 -8
52 -29 57 -45 72 -53 50z"/>
<path d="M3597 3129 c-20 -17 -37 -37 -37 -45 0 -9 -6 -22 -12 -29 -27 -30
-36 -43 -60 -86 -14 -24 -44 -76 -67 -116 -22 -40 -41 -75 -41 -78 0 -3 -8
-18 -18 -33 -28 -40 -86 -140 -119 -202 -49 -94 -113 -188 -148 -219 -37 -32
-44 -34 -200 -51 -131 -15 -126 -13 -115 -52 6 -21 33 -54 72 -91 94 -86 100
-90 132 -111 17 -10 36 -26 43 -35 7 -9 13 -11 13 -6 0 6 6 -1 13 -15 8 -14
19 -24 25 -23 7 2 12 -1 12 -6 0 -4 10 -19 23 -33 39 -43 107 -193 99 -221 -4
-15 37 -93 63 -119 15 -16 59 -36 111 -53 82 -26 86 -27 99 -9 13 18 14 17 25
-8 16 -34 106 -57 94 -23 -10 26 10 16 41 -20 22 -26 40 -36 68 -39 l38 -5
-21 33 c-21 35 -27 72 -10 61 5 -3 14 -24 20 -45 6 -22 20 -45 31 -50 23 -13
126 -3 135 12 4 5 10 5 17 -1 7 -5 36 -7 67 -3 47 6 57 11 68 35 8 16 20 31
28 34 21 8 17 35 -11 73 -14 19 -25 35 -25 37 0 9 19 1 37 -17 19 -17 22 -17
27 -3 4 9 -3 31 -14 50 -27 45 -25 51 5 23 l25 -23 0 30 c0 18 -10 44 -23 60
-12 15 -29 37 -37 48 -15 19 -15 19 13 2 27 -18 37 -11 15 11 -16 16 -3 15 30
-2 26 -13 28 -13 29 6 1 12 8 25 15 29 9 6 14 40 16 105 4 93 3 97 -24 125
-29 30 -22 40 12 14 24 -18 35 -19 30 -2 -12 37 -16 68 -8 63 8 -5 32 56 32
83 0 6 -12 11 -26 11 -14 0 -23 4 -19 10 3 6 16 10 29 10 19 0 25 8 36 54 l13
54 -34 32 -34 31 32 -15 c41 -21 40 -21 48 13 5 22 15 33 38 40 40 14 85 52
80 68 -3 7 2 16 11 19 9 3 16 15 16 25 0 10 6 19 13 19 8 0 19 11 25 25 10 21
8 27 -11 40 -12 8 -18 15 -13 15 4 0 -1 15 -12 34 -11 18 -23 49 -27 67 -20
93 -48 124 -119 131 -29 3 -29 4 -12 21 17 16 17 19 2 36 -9 10 -16 23 -16 29
0 13 -51 42 -73 42 -14 0 -167 77 -177 89 -18 21 -60 30 -151 32 -62 1 -116 7
-137 16 -19 8 -41 12 -50 8 -8 -3 -18 -1 -22 4 -3 6 -21 -2 -43 -20z"/>
<path d="M1836 3038 c-10 -37 -7 -43 25 -77 33 -35 33 -35 91 18 33 29 46 23
23 -12 -14 -22 -14 -26 -2 -29 13 -3 13 -5 1 -16 -12 -11 -14 -10 -14 3 0 18
-12 19 -28 3 -19 -19 -14 -28 17 -28 20 0 42 12 72 40 24 22 49 40 56 40 18 0
16 45 -3 64 -12 13 -39 16 -124 16 -103 0 -108 -1 -114 -22z"/>
<path d="M2540 3030 c-7 -4 -19 -6 -25 -4 -12 5 -61 -50 -85 -96 -7 -13 -26
-38 -41 -55 -16 -16 -29 -34 -29 -40 -1 -12 -84 -75 -99 -75 -5 0 -25 -9 -43
-19 -18 -11 -53 -22 -78 -26 -52 -7 -131 -31 -169 -51 -14 -8 -35 -14 -47 -14
-11 0 -24 -3 -28 -7 -4 -5 -11 -8 -14 -8 -4 -1 -17 -6 -29 -13 -13 -7 -23 -10
-23 -6 0 3 -7 1 -15 -6 -9 -7 -23 -13 -33 -14 -9 -1 -34 -9 -55 -19 -21 -9
-56 -21 -78 -27 -21 -6 -39 -15 -39 -20 0 -5 -10 -10 -21 -12 -12 -2 -25 -10
-29 -18 -4 -8 -12 -25 -18 -37 -19 -36 -14 -57 18 -88 17 -16 30 -34 30 -39 0
-6 22 -34 48 -62 77 -83 106 -117 131 -154 54 -79 124 -210 134 -250 4 -14 16
-40 27 -58 l20 -32 21 21 c26 26 39 16 14 -11 -18 -19 -17 -20 5 -20 23 0 23
0 5 -20 -14 -16 -18 -34 -16 -73 4 -99 22 -222 33 -228 9 -6 8 -11 -1 -22 -12
-16 -14 -177 -2 -177 11 0 12 -58 1 -65 -5 -3 -10 -17 -10 -31 0 -25 0 -25 25
-7 13 10 30 30 37 45 11 23 15 25 28 14 21 -18 50 -27 50 -16 0 5 18 16 40 26
21 10 37 21 34 25 -3 5 4 14 16 21 11 7 20 17 20 21 0 5 6 23 14 40 29 64 24
308 -6 374 -6 13 -7 37 -2 60 4 21 7 52 6 70 -2 17 3 37 10 45 7 7 20 25 28
40 24 40 92 140 120 174 49 61 55 70 58 89 2 11 9 26 14 33 7 8 8 48 4 113 -6
92 -5 104 16 147 19 39 23 61 21 129 -3 81 -2 83 48 177 28 53 49 104 47 114
-1 10 5 30 15 45 20 31 14 73 -12 86 -27 14 -76 20 -91 11z"/>
<path d="M0 2556 c1 -259 2 -285 18 -289 16 -4 16 -5 0 -6 -15 -1 -18 -11 -18
-71 l0 -71 45 26 c25 15 50 25 57 22 7 -3 -13 -16 -44 -31 -48 -21 -58 -30
-58 -51 0 -19 4 -23 18 -19 16 5 16 5 0 -9 -15 -11 -18 -30 -18 -95 l0 -82 25
12 c14 6 27 9 30 6 10 -10 -6 -35 -31 -48 -21 -12 -24 -20 -24 -68 l0 -54 78
54 c99 69 132 90 132 83 0 -2 -17 -16 -37 -29 -21 -13 -56 -41 -78 -61 l-40
-36 35 6 c34 7 34 6 13 -9 -67 -49 -103 -93 -103 -125 l0 -33 27 21 c73 56
115 82 121 76 4 -4 -6 -18 -23 -31 -16 -13 -24 -24 -17 -24 7 0 10 -5 7 -11
-8 -11 97 40 105 52 12 17 55 26 72 16 21 -14 68 10 129 65 44 40 65 48 55 23
-3 -8 -1 -15 5 -15 6 0 9 8 6 18 -2 9 2 29 9 43 16 31 14 169 -2 169 -6 0 -23
-9 -37 -20 -14 -11 -28 -20 -31 -20 -6 0 29 66 46 88 8 9 4 12 -13 12 -22 0
-21 4 19 41 46 44 49 49 27 49 -28 0 -15 21 22 37 36 14 125 97 121 111 -4 13
30 68 61 101 30 32 41 71 21 71 -5 0 -10 6 -10 13 0 15 65 62 131 94 44 22 47
26 39 49 -16 41 -48 70 -62 56 -16 -16 -28 -15 -28 3 0 15 11 19 40 15 12 -1
12 1 3 10 -6 7 -21 13 -33 14 -11 0 -26 12 -33 26 -12 23 -18 25 -87 27 -41 1
-95 -3 -120 -9 -25 -5 -74 -11 -110 -12 -36 -1 -92 -6 -125 -10 -54 -7 -62 -6
-79 13 -11 11 -26 21 -35 21 -17 1 -62 30 -46 30 5 0 1 6 -10 13 -23 16 -103
37 -140 37 l-25 0 0 -284z"/>
<path d="M1036 2744 c-15 -21 -16 -30 -7 -50 6 -14 11 -34 11 -44 0 -11 6 -21
13 -21 106 -12 147 -6 147 21 0 26 -52 84 -94 104 -44 21 -47 20 -70 -10z"/>
<path d="M4617 2460 c-14 -11 -35 -20 -46 -20 -12 0 -24 -7 -27 -15 -4 -8 -16
-15 -28 -15 -29 0 -116 -42 -147 -72 -30 -28 -50 -102 -54 -203 -2 -33 -8 -73
-14 -88 -6 -15 -12 -55 -13 -88 -2 -32 -6 -59 -9 -59 -3 0 -4 -37 -2 -81 3
-58 1 -84 -8 -89 -6 -5 -15 -28 -19 -51 -4 -24 -13 -75 -19 -114 -7 -38 -20
-88 -30 -110 -19 -42 -71 -107 -72 -90 0 6 -4 0 -9 -12 -7 -17 -18 -23 -38
-23 -19 0 -35 -8 -46 -22 -15 -23 -16 -23 -31 -4 -14 18 -16 18 -33 3 -10 -10
-21 -14 -25 -11 -3 4 -47 6 -96 5 -67 -2 -113 4 -185 23 -78 20 -102 23 -121
14 -14 -6 -25 -15 -25 -20 0 -5 -5 -6 -11 -3 -6 4 -8 13 -5 20 4 12 -7 21 -44
33 -8 3 -40 5 -70 6 -53 1 -55 0 -52 -24 2 -27 22 -46 146 -150 43 -36 84 -71
91 -77 8 -7 20 -13 28 -13 8 0 17 -7 21 -15 3 -8 14 -15 24 -15 21 0 46 -23
35 -33 -3 -4 -1 -12 4 -19 6 -7 14 -27 17 -44 6 -26 11 -30 31 -26 34 6 33 48
0 84 -36 39 -37 69 -3 73 24 3 27 0 33 -36 6 -33 25 -66 25 -42 0 17 59 32
185 48 149 18 236 40 268 68 12 10 29 22 37 27 11 7 0 23 -53 76 -85 86 -88
107 -3 26 35 -34 68 -62 73 -62 5 0 20 10 33 22 14 13 27 23 30 23 3 0 14 6
24 12 14 8 20 23 21 53 0 23 6 44 11 48 22 14 20 38 -8 85 -36 62 -35 68 5 29
18 -18 36 -29 40 -26 16 17 5 54 -23 77 -16 14 -30 31 -30 38 0 8 6 6 18 -4
26 -23 41 -21 54 7 15 35 5 52 -44 77 -24 12 -37 24 -30 26 7 3 28 -4 47 -15
l34 -21 6 57 c3 31 10 74 16 95 6 24 7 43 1 50 -19 24 -23 67 -7 73 8 4 15 14
15 23 0 10 3 21 8 25 4 4 12 33 19 64 33 154 35 160 64 166 16 3 37 14 47 24
11 11 44 25 73 33 109 26 169 73 169 133 0 20 -5 36 -11 36 -5 0 -7 5 -4 10 3
6 -3 10 -15 10 -12 0 -19 -4 -16 -9 3 -5 -8 -11 -26 -13 -27 -4 -32 -1 -42 24
-10 27 -13 28 -72 28 -46 0 -68 -5 -87 -20z"/>
<path d="M1212 2380 c-16 -25 -15 -58 1 -74 33 -35 63 -74 76 -98 7 -14 22
-29 33 -31 11 -3 17 -10 14 -15 -3 -6 18 -41 47 -79 28 -37 62 -82 75 -98 12
-17 42 -56 67 -88 76 -100 126 -259 141 -452 4 -49 9 -84 11 -77 6 15 33 16
33 2 0 -6 -7 -13 -15 -16 -9 -4 -14 -18 -13 -38 1 -17 -4 -41 -10 -53 -7 -12
-12 -38 -12 -58 l0 -37 25 16 c36 23 39 20 15 -15 -13 -17 -28 -28 -36 -25 -8
3 -14 -1 -14 -9 0 -8 -4 -15 -10 -15 -5 0 -10 -20 -10 -45 0 -47 9 -56 30 -30
22 27 31 16 15 -21 -8 -20 -15 -49 -15 -65 0 -16 -4 -29 -9 -29 -4 0 -6 -11
-4 -24 3 -13 -6 -45 -21 -74 -31 -60 -31 -69 -9 -94 15 -17 17 -17 35 -1 20
18 37 11 21 -9 -5 -7 -15 -39 -22 -71 -10 -44 -10 -61 -1 -72 9 -11 8 -20 -7
-42 -59 -88 -62 -143 -7 -143 12 0 25 -4 28 -9 13 -20 49 4 69 46 16 33 23 40
27 27 5 -12 11 -3 24 31 16 41 17 61 10 163 -7 81 -6 125 2 148 6 18 8 50 5
71 l-7 38 -27 -27 c-15 -15 -29 -22 -33 -17 -11 19 6 56 33 74 52 34 65 56 60
102 -3 26 1 49 9 61 20 29 44 159 41 224 -1 32 -3 58 -5 58 -1 0 -7 -11 -12
-25 -9 -24 -25 -33 -33 -17 -9 17 14 68 35 77 28 12 32 36 23 142 -5 60 -11
83 -20 83 -20 0 -30 21 -14 30 11 7 10 19 -5 67 -44 144 -108 271 -179 361
-66 83 -183 199 -209 208 -10 3 -18 10 -18 15 0 18 -29 9 -35 -11 -3 -11 -11
-20 -16 -20 -15 0 -10 19 11 40 20 20 20 20 -2 40 -25 23 -73 27 -81 6 -3 -8
-1 -16 4 -18 13 -4 1 -58 -13 -58 -5 0 -6 4 -3 10 3 5 3 25 0 43 -6 30 -10 33
-44 34 -27 1 -40 -4 -49 -17z"/>
<path d="M998 2334 c-4 -3 -30 -11 -58 -17 -46 -11 -55 -17 -76 -54 -13 -24
-21 -49 -18 -57 4 -9 -5 -16 -28 -20 -37 -7 -92 -75 -82 -100 4 -9 -5 -20 -25
-31 -27 -13 -31 -21 -31 -55 0 -39 1 -39 26 -29 15 5 28 8 30 6 2 -2 -5 -22
-16 -45 -21 -43 -24 -60 -14 -86 5 -13 10 -13 27 -4 12 6 24 14 27 17 17 21
83 71 93 71 6 0 1 -7 -12 -16 -13 -9 -42 -35 -66 -58 -23 -22 -55 -49 -69 -59
-30 -21 -33 -47 -10 -82 13 -20 14 -28 4 -40 -11 -13 -10 -14 4 -9 9 3 16 10
16 15 0 14 87 99 101 99 7 0 -8 -22 -32 -48 -24 -26 -51 -58 -59 -70 -8 -12
-22 -22 -31 -22 -9 0 -19 -8 -21 -18 -7 -27 -79 -71 -132 -81 -31 -6 -53 -16
-63 -31 -14 -20 -22 -22 -63 -17 -54 7 -109 -9 -143 -41 -13 -12 -29 -22 -36
-22 -7 0 -64 -45 -127 -101 l-114 -101 0 -49 c0 -27 5 -49 10 -49 9 0 14 14
11 32 0 5 3 7 8 5 5 -1 37 23 72 53 108 93 108 88 2 -20 l-103 -103 0 -549 0
-548 640 0 640 0 0 28 c0 15 24 77 54 138 29 60 50 110 45 112 -10 4 25 77 41
87 15 9 12 28 -4 22 -11 -4 -12 2 -5 31 7 34 7 36 -7 17 -26 -34 -38 -58 -24
-50 22 14 0 -37 -46 -105 -24 -36 -56 -97 -70 -135 l-25 -70 4 61 c3 37 14 79
31 111 22 44 23 51 8 49 -9 -2 -28 -24 -41 -49 -13 -26 -28 -44 -32 -41 -15 9
1 115 22 159 22 44 45 77 102 146 20 25 37 50 37 54 0 15 44 75 55 75 19 0 37
59 30 100 -6 34 -9 38 -21 26 -8 -8 -14 -23 -14 -34 0 -11 -19 -42 -43 -68
-24 -27 -73 -94 -110 -149 -80 -121 -113 -162 -122 -154 -3 4 19 40 51 80 31
41 66 94 78 119 12 25 43 71 69 103 26 32 50 69 53 82 3 14 11 25 16 25 6 0 8
6 5 14 -3 8 1 17 9 20 9 3 12 1 9 -4 -3 -6 -3 -10 2 -10 4 1 24 22 45 48 32
42 44 82 39 125 -2 14 -67 -55 -85 -90 -9 -18 -23 -33 -32 -33 -18 0 -17 2 47
90 90 125 116 189 88 217 -9 9 -8 18 5 38 15 22 15 26 1 31 -22 9 -18 40 8 64
21 20 22 28 22 173 0 123 -4 162 -19 207 -25 70 -38 85 -55 58 -19 -30 -24
-15 -10 31 14 47 16 43 -91 186 -114 151 -159 191 -173 153 -2 -7 -8 -9 -13
-5 -5 5 -1 13 9 18 17 10 16 13 -5 51 -13 22 -35 46 -50 54 -16 8 -28 22 -28
30 0 14 -3 14 -15 4 -12 -10 -19 -10 -28 -1 -9 9 -9 14 3 21 13 8 12 11 -5 24
-16 12 -21 12 -23 1 -4 -19 -32 -27 -48 -14 -7 6 -10 17 -8 24 6 16 -9 49 -18
39z"/>
<path d="M4991 2294 c-51 -21 -102 -69 -88 -83 8 -8 2 -11 -21 -11 -41 0 -41
-11 0 -35 50 -29 14 -30 -38 -1 -53 29 -73 33 -54 11 12 -14 8 -15 -31 -9 -40
7 -43 6 -30 -9 12 -15 10 -17 -27 -17 -65 0 -94 -43 -50 -74 l22 -16 -21 0
c-24 0 -41 -19 -26 -29 5 -3 12 -14 16 -23 3 -10 13 -18 22 -18 8 0 15 -4 15
-10 0 -13 -6 -13 -32 1 -12 7 -24 7 -29 2 -14 -14 0 -41 24 -45 11 -2 22 -9
25 -16 3 -10 -4 -12 -32 -7 -42 8 -46 0 -11 -27 28 -22 25 -44 -5 -28 -28 15
-28 15 -35 -47 -4 -32 -9 -65 -13 -73 -3 -8 -6 -22 -7 -30 -1 -8 -5 -37 -9
-63 -7 -39 -5 -51 9 -67 18 -20 51 -28 40 -10 -3 6 -2 10 4 10 12 0 25 -39 17
-48 -4 -3 -20 2 -37 12 -33 20 -41 17 -46 -17 -1 -12 -5 -39 -8 -60 -3 -21 0
-47 6 -59 8 -14 8 -18 0 -14 -6 4 -11 3 -11 -3 0 -5 5 -13 10 -16 16 -10 12
-38 -5 -31 -26 10 -16 -10 25 -52 22 -22 40 -46 40 -53 0 -7 -20 7 -45 31 -24
24 -48 41 -52 37 -3 -4 -1 -13 5 -19 19 -19 14 -30 -8 -18 -16 9 -23 5 -45
-27 -14 -21 -25 -43 -25 -50 0 -7 -7 -13 -15 -13 -8 0 -15 -6 -15 -13 0 -8
-12 -19 -26 -25 -14 -7 -22 -17 -19 -23 12 -19 -29 -44 -79 -47 -27 -2 -56
-11 -64 -19 -13 -13 -12 -18 5 -41 38 -52 35 -57 -8 -15 -44 41 -44 41 -94 32
-50 -10 -83 -15 -160 -25 -34 -4 -43 -10 -55 -37 -19 -44 -14 -83 22 -145 28
-50 32 -88 7 -80 -7 2 -19 24 -29 48 l-17 43 -6 -33 c-9 -44 -9 -52 2 -45 6 3
19 -16 31 -42 12 -27 29 -59 38 -73 19 -29 19 -29 31 -95 11 -59 36 -111 59
-125 9 -5 14 -10 10 -10 -4 0 0 -16 8 -35 7 -19 14 -46 14 -60 0 -14 4 -25 9
-25 5 0 7 9 4 20 -3 11 -1 20 4 20 11 0 69 -96 78 -130 l6 -25 -25 28 c-16 17
-26 22 -26 14 0 -20 33 -47 58 -47 12 0 22 -4 22 -9 0 -12 40 -27 159 -56 128
-32 166 -47 183 -74 13 -21 18 -21 455 -21 l443 0 0 360 c0 306 -2 360 -14
360 -8 0 -50 26 -93 59 -74 55 -143 97 -143 87 0 -3 29 -26 64 -53 67 -50 156
-143 156 -162 0 -28 -33 -2 -156 122 -72 73 -150 148 -172 166 -23 17 -44 40
-47 49 -3 9 -51 55 -106 101 -54 47 -97 86 -95 88 7 7 113 -70 162 -119 36
-34 61 -51 80 -52 17 -1 54 -20 86 -44 68 -50 159 -105 165 -99 2 3 -17 17
-43 32 -25 15 -65 44 -87 64 -22 20 -60 50 -85 66 -25 17 -57 46 -71 65 l-26
35 35 -27 c19 -15 67 -49 105 -75 39 -25 98 -75 131 -109 34 -35 65 -60 69
-56 5 4 5 2 1 -5 -4 -7 11 -24 39 -43 l45 -31 0 40 c0 33 -5 43 -32 62 -18 13
-67 52 -108 88 -41 36 -77 67 -79 68 -2 2 -2 5 1 8 5 6 146 -93 191 -134 l27
-25 0 42 c0 36 -4 44 -25 54 -14 6 -24 16 -23 22 2 6 0 11 -4 11 -3 0 -17 10
-30 21 -23 21 -114 72 -173 96 l-30 12 33 4 c24 2 53 -8 109 -38 50 -27 83
-39 97 -35 15 5 17 4 7 -3 -11 -8 -10 -12 7 -21 29 -16 37 -14 21 6 -10 11
-10 14 -1 9 7 -4 12 -2 12 6 0 12 -84 74 -217 158 -35 22 -63 44 -63 49 0 14
23 4 110 -47 41 -24 84 -48 95 -54 29 -14 -43 51 -98 90 -27 18 -45 37 -41 43
3 6 -2 17 -12 25 -19 15 10 0 145 -75 41 -23 75 -40 77 -38 2 2 -37 29 -86 61
-100 65 -143 105 -66 63 27 -15 51 -26 53 -23 2 2 -19 21 -47 42 -27 21 -50
42 -50 46 0 10 90 -26 137 -55 21 -13 44 -27 51 -31 9 -5 12 5 12 41 l0 48
-72 36 c-40 20 -86 40 -102 43 -32 8 -219 117 -212 124 3 2 44 -18 93 -46 48
-27 118 -60 155 -72 37 -12 83 -32 103 -45 l35 -24 0 30 c0 27 -6 33 -52 55
-41 19 -46 24 -23 20 17 -3 39 -8 49 -12 14 -5 17 -4 12 4 -4 7 -2 12 3 12 8
0 11 89 11 278 l0 279 -27 14 c-16 8 -73 39 -128 71 -55 31 -125 64 -155 74
-30 9 -62 22 -70 29 -28 22 -35 23 -69 9z m-511 -1449 c11 -13 100 -165 100
-170 0 -1 19 -22 43 -47 49 -52 186 -228 205 -264 17 -33 5 -46 -16 -17 -10
12 -39 51 -67 87 -27 36 -55 66 -61 66 -7 0 -18 10 -27 23 -8 12 -24 32 -36
44 -11 12 -38 58 -59 101 -22 44 -53 99 -69 123 -16 24 -33 50 -37 57 -10 17
9 15 24 -3z"/>
<path d="M2610 2055 c-16 -20 -4 -53 23 -58 18 -4 17 -5 -5 -6 -16 0 -28 4
-28 9 0 6 -11 10 -25 10 -21 0 -25 -5 -24 -27 1 -17 3 -21 6 -10 2 9 12 17 21
17 13 0 14 -2 4 -9 -11 -6 -6 -24 23 -82 21 -40 48 -81 61 -92 14 -10 32 -33
41 -50 31 -62 99 -96 195 -100 52 -2 89 10 61 20 -7 3 -13 13 -13 24 0 22 29
26 48 7 15 -15 18 -11 27 30 6 31 5 33 -12 24 -23 -13 -42 -3 -47 24 -2 10
-13 40 -24 66 -16 36 -32 53 -69 74 -26 15 -57 35 -68 46 -45 41 -82 67 -119
82 -47 20 -60 20 -76 1z"/>
<path d="M2471 1782 c-18 -6 -14 -111 4 -118 10 -4 15 -20 15 -50 0 -56 15
-86 52 -108 16 -10 34 -31 40 -47 9 -27 19 -34 42 -30 5 1 21 -9 35 -22 27
-25 96 -54 141 -59 19 -2 26 2 28 20 5 31 21 27 28 -7 7 -35 31 -48 114 -62
112 -18 160 -19 167 -4 3 8 -10 45 -29 82 -38 76 -78 107 -134 105 -28 -1 -34
2 -34 18 0 11 -1 20 -2 20 -25 2 -230 81 -247 95 -28 24 -102 89 -142 127 -16
14 -29 30 -29 35 0 9 -29 12 -49 5z"/>
<path d="M2412 1388 c-7 -7 -17 -38 -24 -70 -8 -40 -17 -58 -28 -58 -8 0 -31
-22 -50 -49 -21 -29 -47 -52 -65 -57 -16 -5 -29 -15 -28 -22 2 -6 -6 -12 -17
-12 -11 0 -20 -6 -20 -14 0 -8 -18 -31 -40 -52 -29 -28 -40 -46 -40 -69 0 -16
-7 -48 -15 -70 -8 -22 -14 -56 -15 -75 0 -31 5 -38 43 -58 50 -26 57 -27 57
-6 0 11 5 14 18 9 34 -14 47 -12 52 7 8 30 24 26 31 -7 5 -24 7 -27 13 -12 15
32 36 20 36 -20 l1 -38 23 27 c26 29 36 27 36 -9 0 -13 4 -22 9 -19 5 4 12 0
15 -6 3 -7 5 1 5 17 -2 55 1 61 16 35 l14 -25 9 25 9 25 7 -23 c4 -12 5 -25 2
-30 -2 -4 -1 -14 4 -21 12 -20 40 -5 41 21 0 15 3 18 6 8 9 -24 25 -30 76 -30
34 0 47 4 47 14 0 8 6 16 14 19 8 3 16 21 19 39 l4 33 1 -37 c1 -20 7 -40 13
-44 8 -4 9 0 4 15 -3 11 -2 29 4 38 10 17 10 17 11 1 0 -10 4 -18 8 -18 18 0
29 372 14 455 -7 36 -10 40 -37 40 -17 0 -36 -4 -44 -10 -12 -8 -13 -6 -9 12
5 17 1 24 -15 29 -12 4 -27 12 -34 18 -30 26 -42 35 -72 50 -17 9 -35 14 -40
12 -5 -3 -14 1 -21 9 -15 18 -32 19 -48 3z"/>
<path d="M2757 1169 c-9 -118 -9 -342 -1 -403 6 -43 9 -47 33 -44 22 3 27 9
32 45 7 57 19 66 19 15 0 -23 5 -42 10 -42 6 0 13 -1 17 -2 4 -2 10 10 13 27
6 37 40 48 41 13 0 -22 1 -22 9 -3 8 19 8 19 18 -5 9 -24 9 -24 16 -3 8 25 36
21 36 -6 0 -17 31 -42 68 -53 19 -5 22 -2 22 18 l0 25 25 -28 c24 -28 34 -18
15 17 -7 13 -7 21 0 25 6 4 17 -9 25 -27 16 -38 18 -30 5 27 -9 40 -9 40 10
18 10 -13 23 -23 28 -23 5 0 13 10 17 23 6 20 8 18 28 -23 21 -43 24 -45 59
-42 26 2 39 9 43 23 4 10 11 19 16 19 5 0 9 28 9 62 0 50 -7 76 -32 130 -23
48 -39 68 -53 70 -38 3 -60 5 -69 7 -5 0 -3 8 4 16 10 12 10 15 0 15 -7 0 -10
7 -6 15 3 8 1 15 -5 15 -5 0 -28 9 -49 19 -32 15 -40 16 -40 5 0 -20 -18 -17
-29 5 -6 10 -24 23 -40 29 -28 10 -29 9 -27 -21 2 -47 -26 -41 -40 8 -7 28
-20 45 -40 55 -16 8 -31 20 -33 25 -3 6 -10 -10 -16 -35 l-11 -45 -22 43 c-13
24 -30 42 -39 42 -9 0 -26 9 -38 20 l-22 21 -6 -92z"/>
<path d="M3506 966 c-10 -8 -17 -49 -24 -155 -9 -138 -11 -146 -35 -167 -18
-15 -46 -25 -84 -29 -107 -11 -103 -9 -96 -60 3 -25 3 -45 -1 -45 -4 0 -18 25
-32 55 -21 45 -30 55 -50 55 -20 0 -24 -5 -24 -30 0 -20 -5 -30 -15 -30 -18 0
-18 -31 -1 -79 15 -41 25 -25 21 34 l-2 40 18 -40 c10 -22 18 -49 18 -61 1
-32 33 -54 76 -54 21 0 89 -5 149 -11 136 -14 217 -2 242 37 23 34 46 179 41
249 -5 56 -30 125 -46 125 -4 0 -19 26 -34 58 -16 31 -33 68 -40 81 -14 29
-59 44 -81 27z"/>
<path d="M2635 599 c-5 -15 -10 -18 -18 -10 -6 6 -32 11 -57 11 l-46 0 -12
-57 c-6 -32 -14 -77 -17 -100 -7 -42 -7 -42 18 -30 15 7 29 24 33 42 8 29 8
29 11 -12 4 -43 13 -50 47 -37 9 4 16 17 15 33 0 22 -1 23 -8 6 -6 -14 -9 -7
-14 29 -4 27 -7 58 -7 70 0 17 2 18 10 6 5 -8 10 -29 10 -47 0 -22 6 -33 19
-38 10 -3 22 -16 25 -28 5 -21 7 -20 26 12 17 27 20 42 14 80 -12 85 -35 116
-49 70z"/>
<path d="M2097 590 c-17 -14 -24 -27 -20 -38 4 -13 2 -12 -10 3 -15 20 -16 20
-41 -4 -14 -14 -26 -36 -27 -50 0 -24 -1 -24 -9 -6 -8 19 -9 19 -9 -3 -1 -12
6 -25 14 -28 8 -4 15 -16 15 -28 0 -33 12 -40 27 -14 l12 23 1 -22 c0 -13 5
-23 10 -23 6 0 10 18 10 40 0 22 5 40 10 40 6 0 10 -17 10 -39 0 -36 2 -39 33
-45 17 -3 50 -1 71 4 24 5 46 5 57 -1 10 -5 24 -7 31 -4 14 6 37 69 39 107 1
13 6 -6 13 -42 l11 -65 46 -3 46 -3 7 53 c5 32 10 47 15 39 5 -8 10 1 14 25 4
21 2 43 -3 48 -6 6 -10 18 -10 28 0 10 -4 18 -10 18 -6 0 -10 -31 -10 -72 0
-88 -11 -82 -19 10 -6 67 -6 67 -36 67 -26 0 -31 -5 -39 -37 -11 -43 -26 -51
-26 -14 0 14 -4 27 -9 31 -13 8 -49 -41 -61 -84 -6 -20 -17 -47 -25 -61 l-14
-25 0 25 c0 14 4 44 8 68 5 25 5 42 -1 42 -5 0 -6 5 -2 12 4 7 3 8 -4 4 -7 -4
-12 -18 -12 -32 0 -13 -4 -24 -10 -24 -5 0 -10 14 -10 30 0 20 -5 30 -15 30
-8 0 -15 -6 -15 -12 -1 -7 -7 -26 -15 -43 -13 -28 -14 -27 -8 33 3 34 3 62 1
62 -3 0 -17 -9 -31 -20z"/>
<path d="M3775 448 c-45 -90 -50 -96 -93 -114 -42 -17 -206 -38 -262 -32 -22
2 -40 2 -40 0 0 -1 7 -19 15 -39 17 -40 19 -63 6 -63 -5 0 -17 23 -26 50 -15
44 -20 50 -45 50 -42 0 -130 -22 -130 -32 0 -5 -19 -8 -42 -7 -38 3 -43 1 -41
-16 14 -119 15 -155 5 -155 -6 0 -14 17 -18 37 -6 31 -8 34 -15 18 -4 -11 -8
-33 -8 -50 -1 -46 -18 -18 -40 64 -20 76 -30 97 -32 65 -1 -15 -3 -14 -9 6 -5
15 -8 -26 -7 -102 l2 -128 690 0 c449 0 685 4 675 10 -8 5 -27 10 -41 10 -14
0 -48 11 -75 25 -27 14 -53 25 -59 25 -32 0 -87 24 -116 50 -19 16 -42 32 -51
36 -10 3 -18 10 -18 15 0 5 -10 26 -23 47 -13 20 -36 82 -52 137 -29 101 -65
163 -97 164 -10 1 -29 -24 -53 -71z"/>
<path d="M1490 328 c0 -36 -45 -119 -67 -124 -13 -4 -23 -9 -24 -13 -3 -23 -8
-42 -18 -58 -10 -16 -11 -15 -5 7 l6 25 -21 -27 c-12 -15 -33 -52 -46 -82
l-25 -56 781 0 782 0 -7 33 c-4 17 -10 76 -13 130 -5 88 -8 100 -27 107 -29
11 -36 4 -36 -35 0 -43 -9 -65 -25 -65 -7 0 -19 -13 -27 -30 -7 -17 -16 -30
-20 -30 -5 0 -8 38 -8 85 0 73 -3 86 -19 95 -30 15 -31 14 -31 -39 0 -71 -18
-74 -22 -4 l-3 58 -62 3 c-69 3 -61 11 -78 -73 -8 -40 -25 -19 -25 31 l0 44
-89 0 c-83 0 -89 -1 -96 -22 l-8 -23 -4 23 c-4 19 -11 22 -51 22 -85 -1 -176
-18 -189 -36 -9 -13 -13 -14 -13 -4 0 7 -3 11 -6 7 -3 -3 -10 -40 -15 -82 -11
-105 -16 -117 -41 -109 -15 4 -26 0 -38 -16 -30 -39 -40 -16 -40 90 0 80 -3
99 -16 104 -9 3 -17 6 -18 6 -1 0 -2 -10 -2 -22 -1 -67 -5 -98 -14 -98 -6 0
-10 30 -10 70 0 39 -1 70 -2 70 -2 0 -32 3 -68 6 -65 6 -66 5 -79 -23 -19 -44
-94 -173 -98 -169 -2 1 13 47 32 100 19 53 35 101 35 106 0 6 -14 10 -30 10
-28 0 -33 -6 -61 -67 -51 -114 -58 -127 -84 -155 -14 -15 -25 -32 -25 -37 0
-5 -4 -12 -9 -15 -13 -8 -1 72 16 109 14 30 14 30 8 3 -9 -47 1 -31 40 61 29
70 35 93 26 108 -9 16 -10 16 -11 1z"/>
</g>
</svg>
