<?xml version="1.0" standalone="no"?>
<!DOCTYPE svg PUBLIC "-//W3C//DTD SVG 20010904//EN"
 "http://www.w3.org/TR/2001/REC-SVG-20010904/DTD/svg10.dtd">
<svg version="1.0" xmlns="http://www.w3.org/2000/svg"
 width="544.000000pt" height="544.000000pt" viewBox="0 0 544.000000 544.000000"
 preserveAspectRatio="xMidYMid meet">
<metadata>
Created by potrace 1.16, written by Peter Selinger 2001-2019
</metadata>
<g transform="translate(0.000000,544.000000) scale(0.100000,-0.100000)"
fill="#000000" stroke="none">
<path d="M0 3884 l0 -1556 32 6 c20 4 29 3 23 -3 -6 -5 -19 -11 -30 -13 -16
-2 -21 -12 -23 -45 l-3 -42 43 24 c24 14 48 25 53 24 6 0 -8 -9 -30 -21 -35
-19 -38 -22 -20 -29 17 -6 16 -8 -13 -14 l-32 -7 0 -453 c0 -393 2 -454 15
-459 11 -4 15 1 15 19 0 14 3 25 8 25 4 0 18 17 32 38 14 20 29 40 35 44 5 4
7 8 3 8 -4 0 4 17 18 37 13 20 23 42 20 49 -3 7 0 15 7 18 7 2 2 5 -10 5 -37
1 -28 36 14 61 70 42 108 63 138 78 17 8 38 22 47 30 10 8 18 10 18 5 0 -11
-16 -24 -109 -93 -44 -32 -50 -40 -32 -40 12 0 20 -4 17 -9 -7 -11 90 23 108
38 7 6 16 8 19 4 4 -3 12 -1 19 4 7 6 43 21 80 33 37 12 73 29 79 36 6 8 21
14 32 14 21 0 79 16 107 30 8 4 38 12 66 19 28 7 51 18 51 24 0 7 3 24 6 38 6
22 3 25 -25 27 -41 3 -46 9 -26 28 12 13 20 14 36 5 35 -18 60 -13 74 17 8 15
19 36 25 47 30 56 44 102 49 164 5 52 13 76 30 97 13 15 24 33 24 41 0 7 4 12
9 11 5 -2 19 8 31 22 34 39 18 102 -65 262 -53 103 -139 345 -150 428 -4 24
-14 60 -22 80 -9 19 -17 64 -18 100 -6 153 -17 226 -34 227 -9 1 -29 7 -46 14
-22 9 -26 13 -13 16 9 2 28 -3 42 -12 23 -15 25 -15 31 4 3 11 5 76 4 145 -2
76 1 130 8 138 6 7 14 40 18 73 4 32 9 66 11 75 21 83 34 156 30 167 -3 7 0
13 7 13 16 0 52 115 52 167 0 24 5 45 11 47 21 8 26 57 8 77 -18 20 -6 27 13
8 15 -15 33 -2 33 24 0 26 8 38 35 53 11 6 20 15 20 20 0 5 10 20 22 33 23 24
23 45 2 79 -17 27 -4 40 18 19 16 -14 20 -14 38 2 23 19 58 68 68 94 3 9 2 28
-3 42 -6 16 -6 25 1 25 5 0 13 -10 18 -21 7 -20 10 -19 51 25 63 68 85 106 71
128 -16 26 -15 28 27 28 28 0 47 8 70 28 57 49 105 87 116 92 7 3 28 19 49 35
27 22 37 38 38 60 0 25 2 27 11 14 15 -23 68 -5 68 22 0 12 5 16 14 13 16 -6
31 29 20 47 -4 8 -3 9 4 5 18 -11 14 5 -5 28 -12 15 -9 13 10 -4 21 -18 27
-31 23 -50 -3 -14 -3 -20 0 -13 3 7 11 10 17 7 7 -2 36 10 65 27 50 28 53 32
38 48 -18 20 -21 41 -5 41 19 0 41 28 28 36 -8 5 -10 31 -6 80 l5 74 -174 0
c-96 0 -174 -3 -174 -7 0 -3 16 -34 35 -69 38 -67 40 -74 25 -74 -13 0 -53 65
-71 113 -11 33 -17 37 -46 37 -18 0 -33 -1 -33 -2 0 -2 9 -28 20 -58 20 -55
20 -55 1 -30 -12 14 -23 40 -27 58 -5 27 -10 32 -35 32 -28 0 -38 -13 -19 -25
17 -11 77 -129 84 -165 5 -30 1 -26 -29 29 -19 36 -46 76 -60 91 -14 14 -25
36 -25 48 l0 22 -675 0 -675 0 0 -1556z"/>
<path d="M1953 5396 c1 -24 5 -42 8 -41 3 2 20 -9 39 -25 29 -25 41 -28 99
-29 91 -1 131 15 131 51 0 30 17 38 26 13 4 -8 12 -15 20 -15 8 0 14 -4 14 -9
0 -9 57 1 103 18 15 6 27 6 29 1 2 -5 8 -6 15 -2 8 5 10 21 6 45 l-6 37 -73 0
-73 0 -4 -32 -4 -33 -1 33 -2 32 -95 0 c-94 0 -95 0 -90 -23 3 -12 2 -34 -4
-47 -9 -22 -10 -19 -10 23 l-1 47 -65 0 -64 0 2 -44z"/>
<path d="M2460 5436 c0 -2 7 -20 15 -40 17 -39 44 -48 52 -16 3 11 9 17 14 14
5 -3 7 -10 4 -15 -4 -5 35 -9 94 -9 55 0 102 3 104 8 3 4 3 19 0 35 l-5 27
-139 0 c-77 0 -139 -2 -139 -4z"/>
<path d="M2780 5406 c0 -22 6 -36 16 -40 21 -8 74 -6 99 3 11 5 33 3 50 -4 16
-7 61 -16 99 -20 38 -4 116 -20 173 -36 57 -16 112 -29 122 -29 10 0 77 -27
149 -59 72 -33 138 -61 147 -63 10 -2 30 -15 46 -30 33 -30 122 -64 127 -48 8
22 23 8 20 -17 -2 -22 2 -29 17 -31 11 -1 28 -16 37 -32 9 -16 34 -38 55 -49
21 -10 77 -56 123 -101 76 -73 87 -80 108 -71 18 9 24 8 28 -4 3 -8 3 -19 -1
-25 -4 -6 4 -10 19 -10 18 0 26 -5 26 -18 0 -10 7 -28 16 -40 l15 -22 60 41
c33 23 62 40 64 37 3 -3 -5 -12 -17 -21 -13 -8 -41 -32 -63 -52 l-40 -37 33
-27 c17 -15 32 -33 32 -40 0 -22 33 -83 39 -73 8 13 51 25 51 15 0 -5 -7 -18
-15 -31 -13 -17 -14 -26 -4 -44 12 -21 12 -21 40 13 15 18 30 31 33 28 9 -9
-24 -69 -37 -69 -7 0 -1 -9 12 -19 14 -11 33 -16 50 -13 l26 5 -23 -25 c-20
-22 -21 -26 -7 -38 8 -7 15 -9 15 -4 0 5 4 3 9 -4 4 -7 14 -15 22 -16 8 -2 22
-6 32 -11 10 -4 23 -2 32 5 9 7 18 10 22 6 3 -3 1 -6 -5 -6 -7 0 -12 -5 -12
-11 0 -16 102 -5 132 14 21 14 172 77 183 77 3 0 5 -4 5 -10 0 -5 -4 -10 -9
-10 -20 0 -102 -53 -94 -61 11 -11 147 24 165 42 7 8 32 39 55 70 24 31 63 77
87 103 25 26 48 56 51 67 4 10 11 19 16 19 5 0 9 5 9 10 0 6 11 21 25 34 13
13 22 26 18 29 -3 4 -1 7 5 7 6 0 19 8 29 19 18 19 24 21 101 41 l42 11 0 354
0 355 -609 0 -608 0 -27 -59 c-28 -64 -31 -75 -16 -66 7 4 7 -3 0 -19 -5 -14
-7 -26 -4 -26 4 0 -10 -20 -30 -45 -37 -45 -39 -60 -4 -28 38 35 16 -5 -27
-47 -25 -24 -45 -39 -45 -33 0 7 5 15 10 18 6 4 8 10 5 16 -3 5 12 36 35 69
58 86 61 100 14 64 -21 -16 -42 -33 -46 -39 -17 -22 -7 9 10 33 30 44 36 56
24 48 -8 -4 -10 4 -7 26 l4 33 -20 -28 c-12 -15 -25 -24 -31 -21 -5 3 -8 -1
-6 -9 2 -9 -1 -16 -7 -17 -18 -3 -45 -33 -38 -44 3 -6 3 -8 -2 -4 -4 4 -15 2
-24 -5 -21 -17 14 42 38 63 44 39 76 120 47 120 -18 0 -35 -22 -63 -82 -13
-28 -26 -48 -30 -45 -3 4 8 34 25 67 l32 60 -86 0 -85 0 -15 -32 -15 -33 5 33
c5 32 5 32 -35 32 l-40 0 -35 -74 c-19 -41 -34 -80 -34 -87 0 -7 -3 -10 -6 -7
-3 3 6 42 19 87 l25 80 -479 1 -479 0 0 -34z"/>
<path d="M2599 5281 c-25 -4 -54 -14 -63 -24 -22 -21 -36 -22 -36 -1 0 14 -8
15 -47 9 -45 -7 -72 -26 -73 -52 0 -7 -5 -13 -10 -13 -6 0 -10 8 -8 18 7 41
-153 10 -213 -41 -23 -20 -15 -52 22 -87 22 -23 39 -28 105 -34 46 -4 80 -3
82 2 1 5 9 18 17 28 13 18 14 18 24 -9 9 -22 15 -27 31 -22 11 3 25 3 31 -1 6
-3 31 -8 55 -10 36 -3 46 1 59 19 8 12 15 29 15 39 0 10 5 18 11 18 6 0 9 -14
7 -31 l-3 -32 165 -1 c156 -2 228 -11 347 -42 28 -8 62 -14 75 -14 13 0 28 -4
34 -8 5 -5 59 -28 119 -52 61 -24 121 -51 135 -60 14 -10 49 -30 79 -45 29
-14 59 -31 65 -36 6 -6 40 -31 76 -57 36 -26 72 -52 80 -59 59 -49 134 -118
192 -178 63 -65 70 -69 89 -56 20 12 21 11 15 -12 -7 -30 9 -71 46 -118 61
-77 108 -144 108 -152 0 -5 7 -6 16 -3 8 3 12 2 9 -4 -3 -6 -1 -10 5 -10 6 0
9 -3 7 -7 -3 -5 1 -14 9 -21 9 -8 14 -9 14 -2 0 6 8 10 18 8 10 -1 37 12 61
31 40 32 43 37 37 72 -9 58 -88 201 -160 292 -36 45 -66 90 -66 99 0 23 -27
36 -67 33 -36 -3 -42 8 -17 33 15 15 14 18 -16 44 -18 15 -37 25 -41 22 -5 -2
-15 8 -23 24 -9 17 -29 40 -45 53 -51 41 -86 64 -93 62 -3 -1 -12 4 -18 12
-16 19 -28 19 -46 0 -9 -8 -20 -15 -25 -15 -13 0 -11 34 3 48 8 8 5 16 -13 32
-32 27 -95 61 -102 54 -3 -3 -10 4 -17 15 -13 25 -290 160 -313 153 -5 -1 -14
2 -21 7 -16 13 -199 57 -271 65 -33 4 -67 9 -76 12 -9 3 -24 -3 -33 -11 -14
-15 -18 -15 -38 -1 -26 18 -113 22 -124 5 -5 -8 -10 -6 -16 5 -10 17 -76 20
-169 7z"/>
<path d="M1880 5085 c-65 -20 -149 -67 -156 -87 -3 -10 -15 -18 -28 -18 -12 0
-33 -11 -46 -25 -13 -14 -31 -25 -39 -25 -14 0 -14 -1 -1 -10 13 -8 13 -10 0
-10 -11 0 -11 -3 -2 -12 7 -7 12 -16 12 -20 0 -14 -22 -9 -35 8 -15 21 -39 9
-88 -45 -20 -23 -44 -41 -52 -41 -8 0 -27 -18 -41 -40 -15 -22 -32 -40 -39
-40 -14 0 -125 -116 -125 -130 0 -6 0 -12 0 -15 0 -2 -10 -15 -23 -28 -36 -38
-57 -67 -49 -67 4 0 2 -4 -4 -8 -13 -9 -69 -91 -76 -112 -3 -8 -2 -22 3 -31 6
-12 3 -18 -11 -22 -15 -4 -20 -14 -20 -37 0 -24 -4 -31 -14 -27 -20 8 -57 -59
-80 -143 -10 -36 -22 -69 -26 -75 -5 -5 -10 -23 -13 -40 -3 -16 -12 -43 -20
-60 -8 -16 -22 -68 -31 -115 -9 -47 -21 -104 -26 -128 -14 -61 -13 -69 13 -76
l22 -6 -22 -15 c-22 -16 -23 -20 -23 -206 0 -182 1 -189 20 -189 11 0 20 -4
20 -10 0 -5 -7 -10 -16 -10 -12 0 -14 -7 -10 -27 3 -16 8 -50 12 -78 4 -27 13
-62 21 -77 7 -16 11 -28 9 -28 -7 0 30 -123 58 -192 66 -166 150 -311 169
-292 3 3 10 -3 16 -14 7 -14 17 -18 36 -15 18 4 25 1 25 -11 0 -23 29 -10 69
32 l34 35 -18 56 c-10 31 -36 90 -56 131 -56 111 -76 164 -104 275 -35 136
-35 135 -50 135 -22 0 -29 22 -11 35 15 11 16 26 10 121 -9 151 -8 149 -33
152 -12 2 -19 7 -16 12 3 4 14 6 24 3 17 -4 20 2 23 66 1 39 -1 72 -5 74 -4 1
-1 16 7 32 7 17 17 60 20 97 7 74 49 255 70 303 49 107 98 212 107 225 5 8 20
37 33 63 13 27 30 54 38 60 8 7 34 37 58 67 86 107 198 219 300 300 127 101
140 113 140 126 0 16 18 18 39 5 10 -7 24 -3 43 11 25 17 28 24 22 54 -5 27
-3 34 9 34 9 0 19 -9 22 -20 3 -11 11 -20 17 -20 19 0 87 43 82 52 -3 4 0 8 7
8 10 0 -19 37 -98 123 -19 20 -42 21 -103 2z"/>
<path d="M2651 4936 c5 -17 9 -42 9 -56 -1 -18 -6 -10 -18 25 -16 46 -20 50
-47 49 -38 -2 -156 -33 -172 -46 -7 -5 -16 -7 -22 -4 -5 3 -11 -17 -13 -47 -2
-28 0 -53 4 -55 4 -2 8 -12 8 -23 0 -20 33 -59 50 -59 6 0 10 -4 10 -10 0 -5
6 -10 13 -10 8 0 22 -9 32 -20 10 -11 26 -20 37 -20 11 0 18 -7 18 -18 0 -10
4 -22 8 -27 4 -6 14 -28 21 -50 8 -22 21 -45 30 -52 9 -6 54 -14 101 -18 118
-9 151 -20 203 -63 52 -42 93 -95 136 -178 41 -76 41 -129 1 -201 -16 -29 -30
-59 -30 -67 0 -16 -29 -73 -48 -94 -22 -24 -34 -52 -22 -52 7 0 9 -8 5 -21 -6
-16 -4 -20 6 -13 12 6 12 5 0 -9 -12 -15 -11 -17 3 -17 9 0 16 6 16 14 0 7 13
19 30 26 16 7 28 16 25 20 -3 5 7 13 23 19 33 12 72 45 72 60 0 6 8 11 19 11
10 0 30 9 44 20 14 11 30 20 35 20 6 0 17 6 24 13 19 18 137 73 183 86 238 63
272 67 512 60 38 -1 68 3 78 11 16 13 21 60 7 60 -5 0 -7 14 -4 30 3 18 0 30
-7 30 -6 0 -10 4 -8 8 4 14 -51 72 -78 82 -22 8 -26 15 -21 34 4 15 -1 31 -12
43 -17 20 -18 20 -72 -28 -58 -51 -79 -58 -37 -12 61 66 67 75 57 93 -12 22
-157 150 -169 150 -5 0 -23 -17 -40 -37 l-32 -38 21 43 c25 51 23 62 -16 82
-16 8 -58 35 -94 61 -79 56 -148 89 -192 90 -18 0 -26 3 -18 7 9 3 -13 15 -55
28 -60 19 -72 21 -81 8 -16 -21 -24 -17 -24 11 0 17 -6 25 -17 25 -10 0 -28 3
-40 6 -19 5 -22 0 -33 -50 -6 -31 -14 -56 -17 -56 -3 0 -3 28 -2 62 l4 63 -55
8 c-30 4 -69 6 -87 3 -19 -3 -33 0 -36 7 -2 8 -40 12 -119 13 l-116 2 9 -32z"/>
<path d="M2137 4829 c-38 -4 -79 -15 -92 -23 -23 -15 -24 -17 -9 -53 13 -34
13 -36 -1 -19 -8 11 -15 24 -15 29 0 5 -19 7 -42 4 -29 -3 -49 -13 -65 -31
-12 -14 -26 -26 -32 -26 -9 0 -87 -50 -131 -85 -73 -58 -189 -182 -192 -205
-2 -15 -9 -25 -18 -25 -20 0 -70 -39 -70 -53 0 -6 -8 -17 -18 -24 -25 -18 -64
-96 -52 -103 19 -12 9 -33 -20 -43 -39 -14 -59 -54 -39 -79 12 -15 12 -16 -5
-10 -21 8 -45 -16 -46 -45 0 -10 -4 -18 -10 -18 -5 0 -10 -8 -10 -17 0 -10 -6
-29 -13 -43 -24 -46 -27 -73 -10 -92 15 -17 14 -18 -10 -18 -21 0 -27 -5 -27
-21 0 -11 -5 -29 -10 -40 -9 -16 -6 -22 25 -40 19 -12 35 -23 35 -25 0 -2 -18
-1 -39 2 l-39 6 -8 -68 c-11 -86 -12 -470 -2 -480 4 -4 38 -7 75 -7 38 0 52
-1 33 -3 -104 -12 -103 -11 -96 -57 4 -23 7 -50 7 -59 0 -10 4 -20 10 -23 5
-4 9 -14 9 -24 0 -9 6 -25 13 -35 13 -17 19 -18 68 -7 30 7 62 15 73 18 11 3
16 1 12 -5 -3 -5 -35 -15 -71 -22 -63 -12 -70 -17 -65 -50 4 -29 83 -185 101
-201 11 -9 19 -26 19 -38 0 -12 6 -21 16 -21 8 0 13 -4 10 -8 -2 -4 10 -22 27
-38 51 -49 128 -60 188 -27 19 10 39 18 45 18 17 0 67 27 84 45 8 9 31 27 50
40 73 51 85 75 64 137 -9 27 -21 53 -27 58 -7 6 -13 15 -15 20 -1 6 -13 42
-27 80 -49 140 -45 153 173 529 29 49 52 91 52 93 0 2 13 23 28 46 16 23 50
83 77 132 27 50 64 114 82 142 18 29 38 63 43 75 10 22 44 83 87 158 11 19 44
75 72 123 28 49 51 94 51 101 0 7 13 30 30 51 38 47 64 135 41 135 -5 0 -11 9
-14 20 -3 12 -14 20 -27 20 -13 0 -24 8 -27 20 -3 11 -11 20 -18 20 -6 0 -26
14 -44 30 -17 17 -44 33 -59 36 -25 5 -27 9 -24 45 3 24 0 39 -7 39 -6 0 -11
8 -12 18 0 10 -3 12 -6 4 -3 -9 -12 -7 -33 8 -15 11 -30 19 -32 19 -1 -1 -34
-5 -71 -10z"/>
<path d="M5397 4607 c-2 -7 -17 -19 -33 -27 -30 -15 -134 -117 -134 -131 0
-10 -49 -59 -59 -59 -4 0 -13 -10 -18 -23 -6 -13 -29 -45 -52 -71 -23 -26 -41
-54 -41 -61 0 -25 -74 -66 -136 -75 -201 -32 -242 -40 -266 -51 -15 -6 -25
-16 -22 -20 3 -5 0 -9 -6 -9 -6 0 -9 -4 -6 -9 3 -5 0 -11 -8 -14 -10 -4 -11
-17 -3 -64 6 -32 15 -61 19 -64 5 -3 8 -12 6 -20 -2 -10 7 -13 37 -12 l40 2
-35 -16 c-31 -14 -33 -16 -15 -23 19 -7 19 -7 -3 -14 -19 -6 -22 -13 -18 -34
3 -15 8 -53 12 -84 3 -32 9 -58 13 -58 3 0 7 -53 9 -118 4 -156 1 -150 64
-144 50 5 51 4 35 -12 -12 -13 -26 -16 -50 -11 -17 3 -27 3 -21 -2 6 -4 24
-46 39 -93 15 -47 34 -92 41 -101 8 -8 14 -19 14 -23 0 -8 55 -154 77 -205 9
-19 29 -66 45 -105 16 -39 36 -82 45 -96 9 -14 18 -32 19 -40 1 -8 10 -50 19
-93 13 -59 15 -100 10 -161 -12 -150 -70 -216 -237 -272 -45 -15 -89 -33 -96
-41 -7 -7 -17 -13 -22 -13 -17 0 -42 -88 -50 -181 -4 -54 -11 -103 -15 -109
-4 -7 -9 -39 -11 -72 -2 -33 -6 -68 -9 -77 -3 -11 5 -23 28 -36 24 -15 28 -20
15 -23 -9 -2 -26 2 -37 8 -19 10 -21 8 -21 -18 0 -29 -20 -160 -43 -282 -7
-36 -21 -78 -32 -94 -19 -28 -19 -29 3 -67 25 -43 23 -45 -17 -24 -27 13 -31
12 -82 -20 -61 -39 -108 -77 -109 -87 0 -4 11 -24 25 -44 32 -46 32 -57 0 -42
-14 6 -33 28 -42 50 -18 40 -41 49 -66 24 -8 -8 -22 -14 -33 -13 -14 2 -18 -4
-17 -19 2 -17 -2 -20 -27 -16 l-29 4 14 -46 c16 -52 13 -58 -10 -18 -9 15 -14
19 -11 10 10 -33 -13 -19 -30 18 l-17 37 -71 -7 c-38 -4 -75 -11 -83 -17 -18
-16 -30 -62 -64 -254 -49 -283 -65 -335 -115 -374 -42 -33 -87 -40 -274 -42
-206 -2 -303 -8 -322 -21 -10 -7 -10 -11 0 -15 14 -6 16 -33 2 -33 -6 0 -16
11 -22 25 -7 16 -17 24 -26 20 -8 -3 -22 1 -31 9 -25 23 -40 5 -43 -53 -4 -64
-19 -75 -37 -26 -17 48 -31 44 -31 -10 0 -25 -4 -45 -9 -45 -5 0 -12 20 -15
45 -9 58 -26 58 -26 1 0 -25 -4 -48 -10 -51 -11 -7 -17 16 -23 89 -3 27 -11
52 -18 57 -8 5 -176 8 -373 6 l-359 -2 -12 -35 -12 -34 -6 32 c-7 37 -26 41
-52 12 -23 -25 -32 -25 -40 -1 -5 17 -21 19 -143 26 l-137 7 -32 -38 c-33 -37
-47 -36 -18 2 20 27 18 36 -7 32 -18 -3 -50 -46 -84 -115 -3 -7 -10 -13 -15
-13 -4 0 3 23 16 52 27 58 23 85 -7 41 l-19 -28 7 38 c10 56 -15 39 -51 -35
-29 -60 -55 -86 -55 -54 0 9 15 43 33 76 24 42 32 69 29 90 -6 45 -23 37 -61
-30 -19 -33 -38 -60 -42 -60 -17 0 -17 62 1 114 11 30 20 70 20 89 0 18 9 50
20 72 32 62 24 111 -12 78 -22 -20 -33 -12 -19 15 6 12 11 31 11 44 0 14 17
43 41 68 l41 45 -21 -39 c-20 -36 -37 -108 -21 -89 20 24 50 115 44 138 -3 14
-10 22 -15 19 -5 -3 -9 -1 -9 5 0 5 8 12 18 15 11 4 23 25 31 54 18 62 29 131
22 130 -25 -2 -33 4 -14 12 15 6 24 21 28 47 3 21 11 67 18 103 16 85 16 415
0 455 -6 17 -19 51 -29 77 -18 50 -35 60 -54 31 -10 -16 -11 -16 -5 2 4 11 9
28 12 37 4 15 -28 72 -69 124 -7 9 -59 62 -116 119 -95 95 -143 127 -158 104
-3 -5 -15 -9 -28 -9 -35 0 -83 -49 -80 -83 2 -15 -1 -27 -7 -27 -5 0 -9 -7 -9
-15 0 -9 -11 -38 -25 -65 -35 -70 -56 -134 -45 -138 16 -6 11 -20 -9 -27 -11
-3 -34 -19 -53 -35 -18 -17 -58 -42 -88 -57 -30 -15 -58 -31 -61 -36 -4 -5
-12 -6 -18 -3 -6 4 -11 2 -11 -4 0 -7 -7 -10 -15 -7 -8 4 -17 2 -21 -4 -3 -6
-12 -8 -18 -6 -14 6 -44 -6 -151 -58 -43 -21 -78 -32 -91 -29 -12 3 -41 -4
-65 -15 -23 -12 -49 -21 -56 -21 -7 0 -13 -4 -13 -9 0 -5 -9 -13 -20 -16 -11
-3 -20 -13 -20 -21 0 -8 -6 -14 -12 -14 -14 0 -31 -24 -103 -145 -26 -44 -65
-103 -86 -132 l-39 -52 0 -556 0 -555 2720 0 2720 0 0 2310 c0 2260 0 2310
-19 2310 -10 0 -21 -6 -24 -13z m-426 -3208 c12 -12 65 -50 117 -86 91 -61
122 -89 126 -116 1 -7 16 -26 34 -44 35 -35 42 -56 15 -46 -41 15 -163 85
-163 93 0 5 19 3 41 -5 23 -8 43 -15 44 -15 6 0 -75 79 -105 102 -61 46 -156
138 -142 138 6 0 22 -10 33 -21z"/>
<path d="M2745 4415 c-5 -2 -23 -6 -38 -10 l-29 -6 6 -67 c3 -37 7 -86 9 -109
3 -52 14 -64 23 -27 4 16 18 40 31 54 13 14 26 35 29 48 4 12 9 22 14 22 4 0
15 18 25 41 16 35 17 42 4 50 -14 8 -54 11 -74 4z"/>
<path d="M2571 4378 c-33 -12 -86 -68 -114 -120 -13 -24 -40 -73 -60 -110 -20
-37 -37 -74 -37 -82 0 -8 -13 -28 -29 -43 -16 -16 -50 -70 -76 -119 -26 -49
-53 -96 -60 -104 -7 -8 -41 -67 -75 -130 -35 -63 -73 -131 -86 -150 -12 -19
-25 -45 -29 -57 -3 -13 -10 -23 -15 -23 -4 0 -11 -11 -14 -25 -3 -13 -16 -35
-29 -49 -12 -13 -46 -72 -76 -130 -44 -84 -52 -109 -42 -119 7 -7 53 -13 127
-16 l116 -3 30 28 c27 26 78 115 78 136 0 4 -29 8 -64 8 -36 0 -68 5 -71 11
-4 6 2 9 17 8 12 -1 50 -1 83 0 58 1 61 3 78 37 24 49 22 54 -20 55 -73 1 -82
18 -11 18 54 1 70 5 79 19 8 12 20 17 43 14 25 -3 38 4 66 31 48 47 57 60 52
75 -2 6 3 12 12 12 8 0 18 5 21 10 11 18 -17 41 -46 38 -16 -2 -27 2 -26 7 1
6 13 11 27 11 14 1 37 2 51 3 18 1 28 8 32 21 4 14 14 20 35 20 17 0 34 5 37
10 4 6 -14 10 -47 10 -29 0 -59 4 -67 9 -19 12 -7 54 30 109 16 23 29 54 29
68 0 13 4 24 10 24 11 0 56 69 76 117 10 23 11 32 3 31 -6 -2 -14 3 -16 11 -4
8 0 12 8 9 8 -3 20 2 28 10 13 13 13 16 -2 27 -21 15 -22 25 -1 25 13 0 15 8
11 48 -3 26 -9 75 -13 110 -3 34 -10 62 -15 62 -4 0 -9 11 -11 24 -3 20 -6 22
-27 14z"/>
<path d="M2847 4313 c-24 -32 -57 -85 -72 -118 -16 -33 -32 -62 -36 -65 -4 -3
-18 -33 -32 -67 l-25 -61 25 -73 c17 -50 21 -75 13 -83 -5 -5 -10 -34 -10 -62
0 -46 2 -52 18 -49 37 7 132 114 132 149 0 7 16 31 35 52 19 22 35 42 35 46 0
3 20 41 45 82 30 50 45 88 45 111 0 41 -61 147 -101 175 l-28 20 -44 -57z"/>
<path d="M4408 3984 c-21 -13 -38 -32 -38 -42 0 -10 -9 -28 -19 -39 -11 -12
-18 -22 -17 -24 7 -8 20 -192 30 -419 3 -66 10 -99 31 -145 15 -33 29 -70 31
-82 2 -12 13 -38 24 -56 11 -19 31 -67 45 -108 14 -41 35 -96 47 -122 22 -47
23 -48 59 -42 48 8 59 -9 19 -30 -25 -13 -30 -20 -24 -38 3 -12 15 -31 25 -43
11 -11 16 -23 13 -27 -16 -15 7 -56 38 -66 18 -7 28 -15 23 -19 -6 -4 -10 -39
-10 -78 0 -57 -4 -76 -19 -93 -21 -23 -21 -23 12 -40 30 -16 29 -35 -3 -27
-14 3 -35 9 -47 12 -29 7 -107 -24 -89 -35 7 -5 -11 -10 -42 -14 -60 -6 -127
-43 -145 -80 -10 -20 -30 -126 -53 -277 -5 -30 -13 -100 -18 -155 -7 -80 -6
-103 5 -116 18 -20 18 -33 0 -26 -7 3 -18 -4 -25 -16 -13 -27 -41 -215 -34
-233 3 -8 -1 -14 -11 -14 -10 0 -16 -9 -16 -23 0 -12 -8 -33 -17 -47 -21 -30
-75 -79 -87 -80 -5 0 -18 -8 -29 -18 -17 -15 -42 -17 -203 -17 l-184 0 0 -23
c0 -14 -4 -21 -11 -16 -6 3 -9 19 -7 35 4 25 1 30 -21 35 -14 3 -64 15 -111
26 -79 19 -132 34 -368 103 -87 26 -94 26 -106 10 -11 -15 -13 -15 -23 7 -13
28 -116 68 -175 68 -20 0 -41 7 -48 15 -7 8 -16 15 -21 15 -5 0 -29 9 -53 21
-59 27 -137 105 -191 189 -46 72 -68 90 -108 90 -71 0 -83 -116 -25 -240 44
-95 144 -205 220 -242 44 -22 323 -110 433 -137 131 -33 315 -133 330 -181 3
-10 15 -22 25 -25 11 -3 17 -12 14 -20 -3 -7 1 -24 9 -37 29 -47 40 -116 34
-215 -10 -144 -32 -167 -159 -164 -43 1 -97 -3 -119 -9 l-42 -11 6 -56 c5 -44
3 -52 -6 -39 -10 13 -12 5 -12 -44 0 -53 3 -61 20 -65 39 -10 361 -13 419 -4
96 13 103 26 137 226 44 266 59 346 70 380 16 48 62 72 155 79 133 9 197 29
164 49 -11 7 -14 45 -3 45 4 0 19 -12 34 -26 l28 -27 38 19 c21 10 47 19 58
21 11 2 27 10 35 19 13 13 13 16 0 24 -8 5 -16 22 -17 37 -1 15 -4 42 -8 58
-4 23 0 19 19 -19 31 -59 29 -58 49 -50 9 3 13 12 10 20 -3 8 3 17 13 21 30
11 40 26 56 80 13 42 13 54 2 74 -17 31 -17 39 1 39 8 0 15 -5 15 -12 0 -8 3
-9 10 -2 5 5 12 46 15 89 3 44 6 91 8 105 1 18 -5 28 -25 38 -16 7 -28 20 -28
28 0 18 14 18 30 -1 33 -40 50 -8 50 100 0 124 67 402 99 412 43 13 46 15 34
20 -27 10 -12 25 17 19 69 -13 214 42 259 100 29 37 36 119 18 226 -12 70 -21
96 -37 108 -14 10 -19 22 -14 33 4 10 -7 55 -26 105 -36 95 -47 115 -62 106
-5 -3 -15 -1 -22 6 -8 6 -31 19 -52 30 -48 24 -19 27 31 3 19 -9 37 -14 39
-12 8 7 -24 93 -37 101 -7 4 -22 8 -34 8 -28 0 -29 11 -4 27 19 12 19 13 -5
63 -13 27 -24 55 -24 60 0 6 -17 45 -39 88 -39 77 -61 173 -61 261 0 37 -2 41
-26 41 -14 0 -23 4 -19 10 3 6 15 10 27 10 19 0 20 4 13 83 -9 101 -18 122
-46 106 -15 -8 -24 -8 -32 0 -8 8 -2 12 20 17 25 5 30 10 25 28 -3 11 -14 27
-24 34 -11 8 -18 26 -18 47 0 47 -10 71 -22 53 -7 -10 -11 -10 -15 0 -6 16
-12 15 -55 -14z"/>
<path d="M3803 3984 c-3 -9 2 -38 12 -63 57 -147 68 -258 34 -326 -37 -74
-114 -212 -129 -235 -15 -22 -33 -66 -33 -80 0 -3 -19 -27 -43 -54 -24 -26
-44 -53 -44 -58 0 -6 -25 -53 -55 -106 -73 -127 -74 -129 -103 -187 -14 -27
-28 -52 -32 -55 -4 -3 -33 -52 -66 -109 -32 -57 -76 -131 -96 -165 -20 -33
-52 -88 -71 -121 -41 -70 -95 -123 -140 -136 -60 -17 -192 -11 -253 12 -63 24
-103 62 -168 159 -93 139 -98 176 -35 296 42 81 72 162 63 175 -2 4 1 13 8 21
7 7 14 19 15 26 4 15 -13 16 -23 1 -5 -8 -10 -6 -16 5 -12 21 -98 22 -136 2
-15 -8 -50 -43 -77 -78 -51 -65 -134 -148 -148 -148 -5 0 -23 -7 -40 -15 -18
-8 -72 -21 -122 -28 -91 -14 -191 -55 -202 -84 -3 -7 -14 -13 -24 -13 -10 0
-19 -4 -19 -9 0 -5 -16 -15 -34 -22 -19 -7 -33 -16 -30 -21 3 -4 -1 -8 -10 -8
-18 0 -72 -29 -101 -55 -12 -11 -41 -35 -64 -53 -41 -33 -49 -53 -31 -75 34
-40 144 -196 157 -221 9 -17 28 -45 43 -62 29 -34 90 -154 90 -178 0 -8 4 -18
10 -21 5 -3 17 -32 26 -63 21 -74 23 -76 42 -59 38 32 43 27 18 -15 -14 -25
-23 -47 -20 -51 9 -8 18 -138 19 -258 0 -104 0 -105 22 -101 l23 4 -24 -53
c-19 -42 -27 -86 -36 -194 -7 -77 -18 -158 -26 -180 -18 -51 -18 -75 0 -75 11
0 12 -8 7 -32 -10 -44 -4 -58 26 -58 14 0 33 -10 43 -22 l17 -22 7 22 c10 31
34 28 38 -5 4 -38 21 -38 37 -1 14 32 14 32 29 10 12 -19 24 -22 74 -22 50 0
63 4 84 25 14 14 30 25 35 25 6 0 3 -7 -5 -16 -9 -8 -16 -24 -16 -35 0 -26 37
-25 45 2 6 19 8 19 24 5 14 -13 42 -16 132 -16 145 0 157 4 162 44 l4 31 1
-31 c2 -22 8 -33 21 -37 22 -5 31 9 32 56 1 32 1 32 13 -8 11 -40 12 -40 66
-44 81 -5 231 -6 264 -1 26 4 28 7 23 42 -6 45 7 42 22 -5 6 -18 22 -37 36
-44 24 -10 25 -9 25 18 0 16 5 29 10 29 6 0 10 -9 10 -19 0 -24 14 -27 95 -23
55 3 64 6 74 28 6 14 11 56 11 94 0 80 -26 150 -64 175 -29 19 -56 14 -56 -10
0 -22 -18 -19 -25 5 -8 24 1 40 22 40 13 0 13 3 2 16 -23 28 -119 70 -279 122
-85 29 -167 56 -182 61 -32 10 -38 6 -38 -26 0 -14 -4 -21 -10 -18 -5 3 -10
19 -10 35 0 22 -6 29 -26 34 -14 4 -49 18 -77 31 -60 29 -57 29 -57 10 0 -27
-16 -16 -30 20 -7 19 -21 37 -30 40 -10 3 -45 35 -80 71 -34 36 -64 64 -65 62
-1 -2 -7 -12 -14 -23 -11 -17 -12 -14 -8 22 4 35 -2 57 -33 119 -67 134 -62
232 15 304 24 22 35 25 105 25 73 0 80 -2 104 -28 35 -38 108 -133 124 -163
16 -29 99 -87 112 -79 6 3 13 0 16 -8 4 -13 46 -27 89 -31 12 -1 140 -43 170
-56 11 -4 61 -19 110 -34 50 -14 128 -37 175 -51 155 -48 214 -64 270 -71 30
-4 68 -13 85 -22 47 -23 278 -22 330 3 54 25 85 54 85 79 0 23 -31 79 -63 113
-11 13 -18 26 -14 29 3 4 25 -13 47 -37 41 -43 41 -44 34 -14 -4 17 -13 42
-20 57 -20 39 -17 45 7 14 19 -24 49 -36 49 -18 0 4 -11 28 -24 54 -22 45 -22
46 -2 32 32 -22 39 -17 33 21 -4 24 -1 40 9 49 14 15 18 36 28 144 5 49 3 55
-29 91 -45 49 -44 57 1 26 20 -14 41 -25 45 -25 15 0 10 16 -11 35 -25 23 -26
38 -1 30 16 -5 19 1 24 47 3 29 13 82 21 118 l15 65 -32 33 c-17 17 -26 32
-20 32 6 0 16 -7 23 -15 20 -24 35 -18 63 23 15 20 40 46 57 57 16 11 30 27
30 36 0 23 9 29 34 20 23 -9 86 5 86 18 0 5 -10 12 -22 16 -21 7 -22 7 -4 12
11 3 25 -2 31 -10 10 -14 15 -14 43 3 25 15 32 27 32 50 0 17 -4 38 -10 48
-24 44 -50 108 -50 124 0 11 -11 23 -25 28 -27 10 -33 25 -12 33 9 4 9 8 -2
15 -7 5 -10 15 -6 21 11 19 -70 177 -94 184 -12 3 -21 10 -21 17 0 6 8 9 18 6
15 -5 12 6 -17 67 -20 41 -40 72 -45 69 -5 -3 -6 0 -2 6 10 16 -4 62 -19 62
-9 0 -12 11 -8 40 l6 40 -42 0 c-48 0 -55 17 -8 22 24 2 33 8 35 26 3 16 -2
22 -17 22 -28 0 -37 20 -11 27 21 6 21 9 15 122 -7 125 -19 179 -44 198 -13
10 -14 14 -2 22 20 13 0 42 -58 81 -27 19 -47 38 -45 42 9 14 -48 21 -82 10
-33 -10 -33 -9 -22 11 6 12 12 23 12 25 1 2 -10 10 -24 17 -15 9 -57 14 -108
15 -68 0 -84 -3 -89 -16z"/>
<path d="M3597 3934 c-15 -8 -32 -12 -37 -9 -6 3 -10 2 -10 -3 0 -5 -9 -12
-20 -15 -22 -6 -27 -36 -8 -55 9 -9 8 -15 -6 -25 -18 -13 -17 -15 2 -54 17
-32 28 -42 54 -46 46 -7 191 -2 206 7 14 9 16 76 2 76 -5 0 -10 7 -10 15 0 8
-3 15 -8 15 -4 0 -13 13 -20 30 -26 58 -98 90 -145 64z"/>
<path d="M2583 3873 c-4 -10 -19 -36 -34 -58 -42 -62 -41 -79 2 -83 23 -2 42
3 52 12 9 9 29 16 45 16 18 0 32 6 36 16 11 29 6 83 -10 98 -17 17 -49 22 -39
6 3 -5 1 -10 -4 -10 -6 0 -11 5 -11 10 0 17 -30 11 -37 -7z"/>
<path d="M3291 3803 c-8 -9 -14 -31 -14 -50 1 -23 -3 -33 -14 -33 -20 0 -42
-29 -42 -55 0 -11 19 -56 43 -99 42 -80 74 -113 83 -88 3 6 10 9 15 6 7 -4 8
-2 4 5 -4 6 -2 18 4 26 10 13 8 15 -13 15 -14 0 -29 5 -32 10 -3 6 4 10 17 10
13 0 34 3 46 7 18 4 20 8 10 14 -7 5 -23 9 -35 9 -13 0 -23 5 -23 10 0 13 21
13 54 0 22 -8 28 -5 56 33 49 66 52 109 10 157 -11 13 -20 27 -20 32 0 4 -30
8 -67 8 -50 -1 -72 -5 -82 -17z"/>
<path d="M3539 3668 c-36 -29 -159 -228 -159 -256 0 -7 7 -12 15 -12 8 0 15
-4 15 -10 0 -13 -13 -13 -26 0 -8 8 -15 6 -24 -5 -9 -11 -33 -15 -94 -16 -142
-1 -181 -10 -227 -55 -22 -21 -42 -50 -46 -64 -10 -44 -51 -107 -94 -144 -23
-19 -43 -46 -44 -59 -3 -27 -50 -99 -59 -90 -3 4 -6 -1 -6 -10 0 -8 -11 -29
-25 -45 -14 -17 -25 -34 -25 -39 0 -5 -9 -19 -20 -31 -11 -11 -29 -36 -40 -54
-76 -127 -84 -162 -50 -236 21 -46 87 -132 101 -132 5 0 21 19 36 43 14 23 41
65 60 92 18 28 33 53 33 57 0 3 16 30 35 59 19 30 35 57 35 61 0 3 -10 9 -22
11 -18 3 -17 4 4 3 31 -1 42 14 152 209 73 129 94 158 107 149 14 -8 12 -14
-42 -104 -28 -47 -64 -112 -82 -145 -17 -33 -43 -78 -58 -100 -25 -38 -40 -64
-97 -165 -14 -25 -35 -58 -47 -75 -31 -42 -67 -124 -60 -135 4 -6 13 -10 21
-10 8 0 14 -4 14 -9 0 -4 47 -9 105 -9 l105 -2 38 38 c21 21 48 58 61 82 13
25 39 74 58 110 18 36 42 79 53 95 33 52 121 206 148 260 9 17 26 44 39 61 13
17 23 35 23 41 0 6 11 27 25 48 14 20 42 67 61 104 20 36 45 80 55 96 11 17
22 38 25 48 4 9 10 17 15 17 5 0 9 7 9 16 0 8 18 42 40 74 52 76 119 211 113
226 -7 18 -39 24 -144 24 -61 0 -101 -4 -110 -12z"/>
<path d="M3050 3643 c-31 -5 -75 -69 -71 -103 5 -43 18 -55 74 -73 69 -22 73
-21 81 5 4 18 8 20 18 10 10 -10 10 -15 -2 -22 -20 -13 -11 -18 35 -20 96 -5
102 2 61 73 -13 23 -32 58 -43 77 -30 54 -67 67 -153 53z"/>
<path d="M2275 3287 c-44 -51 -78 -101 -105 -151 -28 -53 -30 -60 -16 -75 9
-10 16 -24 16 -32 0 -8 9 -22 19 -31 17 -14 21 -15 32 -2 6 8 20 14 31 14 16
0 18 3 10 13 -17 20 0 71 25 75 22 3 38 39 20 45 -7 2 -7 10 -2 23 4 10 7 23
6 27 -1 4 5 17 13 28 28 40 -18 103 -49 66z"/>
<path d="M1833 3053 c-21 -8 -15 -36 16 -85 16 -25 27 -49 24 -52 -4 -3 -3 -6
1 -6 4 0 32 21 62 46 63 54 71 47 14 -14 -54 -57 -53 -70 8 -65 26 2 61 4 77
4 61 -1 93 10 109 34 16 24 15 28 -14 85 l-30 60 -128 -1 c-70 0 -133 -3 -139
-6z"/>
<path d="M1324 2312 c-36 -24 -14 -123 41 -180 19 -21 38 -45 41 -54 3 -10 10
-18 15 -18 5 0 9 -6 9 -12 0 -14 103 -158 141 -198 13 -14 23 -29 21 -34 -2
-5 8 -43 22 -85 35 -104 46 -185 46 -328 0 -107 2 -122 17 -125 16 -3 16 -5
-2 -23 -29 -29 -59 -213 -38 -236 12 -15 11 -17 -8 -22 -16 -4 -20 -11 -16
-26 3 -12 -3 -54 -12 -93 -10 -40 -17 -99 -16 -130 1 -31 -3 -79 -10 -105 -26
-103 -26 -105 -14 -97 9 5 10 -1 6 -24 -7 -36 8 -44 16 -9 7 27 57 96 57 79 0
-7 -11 -35 -25 -62 -34 -67 -33 -95 1 -55 15 17 41 47 59 67 18 21 43 53 54
72 12 19 25 36 29 38 24 11 52 91 58 169 8 95 8 94 -8 94 -23 0 -19 32 8 64
21 25 28 47 35 112 5 45 14 100 19 122 15 65 13 117 -5 117 -8 0 -15 5 -15 10
0 6 6 10 14 10 8 0 17 12 21 27 10 43 3 166 -11 195 -8 15 -14 47 -14 72 0 74
-34 182 -95 306 -49 97 -149 224 -171 216 -7 -3 -16 4 -20 16 -8 27 -31 51
-64 68 -13 7 -33 24 -44 37 -10 13 -24 22 -32 19 -7 -3 -16 -1 -19 4 -7 12
-75 13 -91 2z"/>
<path d="M1768 643 c-8 -10 -25 -35 -37 -56 -13 -21 -26 -36 -28 -33 -13 12
-96 -125 -91 -149 2 -12 28 -16 134 -20 l132 -4 6 33 c3 18 12 41 20 51 12 16
13 12 8 -33 -4 -50 -3 -52 20 -52 39 0 78 23 84 50 19 85 34 143 40 149 7 6 6
0 -17 -101 -18 -80 -13 -83 118 -83 l106 0 13 40 14 40 -4 -41 -4 -41 82 -5
c45 -3 135 -3 199 0 101 4 117 7 117 22 0 9 3 20 8 24 8 9 9 12 12 69 1 23 4
33 7 22 2 -11 6 -30 9 -42 2 -13 12 -23 22 -23 16 -1 64 -30 48 -30 -5 0 -3
-6 4 -14 10 -13 17 -12 48 6 20 11 38 21 39 22 5 4 -20 106 -33 134 -12 27
-18 31 -29 22 -8 -7 -19 -9 -25 -5 -6 4 -10 -6 -10 -24 0 -24 -4 -31 -20 -31
-15 0 -20 7 -20 29 0 34 -12 45 -40 36 -17 -5 -20 -15 -20 -63 0 -64 -15 -103
-24 -61 -3 13 -8 45 -11 70 l-6 47 -54 7 c-30 3 -59 4 -64 1 -5 -4 -11 0 -14
6 -2 7 -7 -11 -11 -39 -8 -62 -26 -71 -26 -14 0 41 -11 51 -55 51 -23 0 -35
-22 -35 -67 0 -13 -5 -23 -10 -23 -7 0 -8 17 -4 48 l6 48 -41 -4 c-39 -4 -41
-6 -41 -37 0 -19 -4 -37 -10 -40 -6 -4 -10 6 -10 24 0 25 -5 30 -31 36 -17 4
-35 3 -41 -3 -6 -6 -17 -8 -26 -5 -13 5 -14 -3 -10 -58 5 -69 2 -89 -14 -89
-7 0 -8 30 -4 90 l7 90 -50 -4 c-31 -3 -61 -13 -77 -25 -25 -20 -28 -20 -39
-4 -11 15 -14 11 -20 -28 -12 -72 -25 -81 -18 -11 5 57 4 62 -14 62 -15 0 -28
-17 -52 -68 -17 -38 -31 -74 -31 -80 0 -6 -4 -13 -9 -17 -11 -6 -4 50 14 111
9 32 9 44 0 57 -15 21 -24 21 -47 0 -17 -15 -18 -15 -12 15 7 36 -5 42 -28 15z"/>
<path d="M2900 572 c0 -26 -5 -53 -12 -60 -9 -9 -8 -13 5 -17 9 -4 13 -13 10
-21 -3 -8 -1 -14 5 -14 6 0 12 6 15 13 3 7 9 0 16 -15 16 -43 29 -33 20 15
-13 66 -9 77 8 25 9 -27 22 -48 28 -48 7 0 16 -8 20 -17 6 -17 7 -17 16 0 7
12 7 28 0 49 -13 38 -14 48 -1 28 6 -9 10 -10 10 -3 0 22 -94 113 -117 113
-21 0 -23 -5 -23 -48z"/>
</g>
</svg>
