<?xml version="1.0" standalone="no"?>
<!DOCTYPE svg PUBLIC "-//W3C//DTD SVG 20010904//EN"
 "http://www.w3.org/TR/2001/REC-SVG-20010904/DTD/svg10.dtd">
<svg version="1.0" xmlns="http://www.w3.org/2000/svg"
 width="544.000000pt" height="544.000000pt" viewBox="0 0 544.000000 544.000000"
 preserveAspectRatio="xMidYMid meet">
<metadata>
Created by potrace 1.16, written by Peter Selinger 2001-2019
</metadata>
<g transform="translate(0.000000,544.000000) scale(0.100000,-0.100000)"
fill="#000000" stroke="none">
<path d="M0 5183 c0 -256 0 -258 22 -275 l23 -17 -22 6 -23 5 0 -1167 c0
-1004 2 -1166 14 -1156 10 9 16 9 21 1 4 -7 -2 -14 -14 -17 -21 -5 -21 -8 -21
-390 0 -253 3 -382 10 -378 5 3 10 -1 10 -9 0 -9 -4 -16 -10 -16 -6 0 -10 -65
-10 -175 0 -171 0 -175 19 -163 11 7 17 16 15 20 -3 4 -1 8 4 8 5 0 41 32 80
70 39 39 78 70 86 70 8 0 16 5 18 11 2 7 20 13 38 14 19 1 67 14 105 29 39 15
113 42 165 59 52 18 97 34 100 37 3 3 19 7 35 8 46 6 100 40 117 75 44 91 58
150 56 241 l-2 68 52 50 c29 27 52 53 52 57 0 4 17 22 38 40 36 32 37 35 34
94 -2 33 -9 72 -16 86 -44 85 -56 112 -80 171 -69 176 -105 308 -130 480 -37
259 -35 450 10 685 31 165 118 409 190 535 8 14 23 44 34 67 10 22 25 45 33
50 8 4 22 23 31 41 36 70 168 230 257 312 51 47 97 90 103 95 6 6 23 19 37 30
14 11 51 39 82 63 31 23 59 42 63 42 4 0 17 9 28 19 23 22 354 191 373 191 20
0 68 50 71 73 3 29 4 67 3 95 l-1 22 -1050 0 -1049 0 -1 -257z"/>
<path d="M2280 5435 c0 -19 49 -77 69 -82 14 -3 83 -1 155 5 72 7 150 12 173
12 24 0 43 5 46 13 4 9 7 9 14 -1 6 -8 48 -14 124 -18 110 -5 273 -34 429 -75
94 -25 115 -33 220 -82 47 -22 102 -42 123 -45 23 -3 36 -9 34 -16 -3 -7 34
-34 82 -61 47 -27 92 -55 99 -62 7 -7 17 -13 22 -13 4 0 21 -12 38 -27 16 -16
47 -41 68 -58 57 -45 224 -196 224 -204 0 -3 27 -35 59 -69 33 -35 62 -69 64
-75 11 -27 139 -207 148 -207 5 0 9 -6 9 -14 0 -23 23 -25 106 -10 79 14 216
8 344 -16 32 -6 51 -5 72 6 15 8 32 14 38 14 21 0 91 63 81 73 -12 12 -3 37
15 37 29 0 65 25 71 49 10 44 34 84 77 131 58 65 101 122 98 132 -1 4 2 8 6 8
5 0 18 9 30 20 22 20 22 26 22 277 l0 256 -22 -20 c-27 -23 -119 -75 -125 -69
-5 5 86 71 120 87 24 11 27 18 27 62 l0 49 -82 -5 c-46 -2 -94 -8 -108 -12
-19 -5 -22 -4 -10 4 11 8 -83 11 -332 11 -226 0 -348 -4 -348 -10 0 -5 -5 -10
-11 -10 -5 0 -7 5 -4 10 4 7 -375 10 -1129 10 -625 0 -1136 -2 -1136 -5z"/>
<path d="M2501 5273 l-94 -16 7 -86 c5 -72 10 -89 28 -105 18 -14 31 -16 63
-11 65 12 353 5 450 -11 147 -23 264 -51 330 -79 16 -8 46 -20 65 -28 157 -67
271 -134 421 -245 107 -80 227 -206 344 -363 61 -82 137 -157 167 -164 19 -5
32 -2 44 9 9 9 24 14 33 11 25 -8 45 35 37 77 -9 44 -43 112 -86 173 -19 28
-58 82 -85 120 -64 89 -246 276 -341 349 -40 31 -75 56 -79 56 -3 0 -31 16
-61 35 -125 80 -275 157 -292 150 -8 -3 -23 2 -32 10 -44 40 -262 96 -467 120
-158 19 -328 18 -452 -2z"/>
<path d="M2026 5151 c-3 -4 -21 -11 -40 -14 -38 -6 -170 -69 -230 -111 -21
-14 -43 -26 -48 -26 -6 0 -38 -22 -73 -50 -35 -27 -66 -50 -70 -50 -22 0 -275
-243 -319 -306 -11 -17 -39 -58 -62 -90 -22 -33 -51 -80 -63 -106 -13 -27 -27
-48 -31 -48 -8 0 -99 -161 -105 -185 -1 -5 -10 -28 -20 -50 -10 -22 -22 -53
-26 -70 -76 -279 -83 -315 -98 -513 -11 -134 -1 -310 25 -452 35 -195 149
-491 217 -568 24 -26 37 -28 37 -6 0 8 5 12 11 9 6 -4 8 -13 5 -21 -4 -10 2
-13 22 -10 47 6 87 19 94 30 19 28 -4 131 -43 196 -29 49 -48 90 -51 111 -5
34 -38 79 -65 90 -35 13 -28 36 10 30 12 -2 8 111 -8 168 -7 29 -17 89 -21
132 -4 44 -11 82 -16 85 -5 3 -6 14 -3 25 4 12 1 21 -9 25 -22 8 -20 35 3 41
16 4 19 19 25 114 12 183 46 343 107 495 16 40 26 79 23 88 -4 11 0 16 12 16
14 0 34 30 74 106 30 58 62 113 70 122 8 9 28 35 44 57 79 108 280 291 408
371 57 36 66 46 60 66 -4 15 0 17 27 12 37 -8 93 26 111 66 11 23 13 24 25 7
11 -16 16 -14 53 23 41 41 72 95 72 125 0 31 -55 75 -94 75 -19 0 -37 -4 -40
-9z"/>
<path d="M2723 4958 l-73 -10 7 -40 c7 -48 -11 -46 -20 2 -5 23 -12 30 -30 30
-26 0 -78 -15 -115 -33 -21 -10 -52 -54 -52 -72 0 -4 33 -42 73 -85 39 -43 93
-103 120 -133 53 -62 130 -117 162 -117 59 0 173 -89 232 -181 28 -43 44 -59
61 -59 12 0 22 -3 22 -8 0 -12 58 -34 70 -27 6 4 19 0 29 -9 14 -13 23 -14 47
-4 45 17 88 -6 92 -50 l3 -32 59 0 c33 0 72 5 87 11 15 6 37 15 48 19 11 5 38
13 60 18 22 6 65 18 95 27 90 27 150 35 233 30 71 -4 77 -3 77 15 0 10 -4 22
-10 25 -5 3 -10 12 -10 18 0 7 4 6 10 -3 7 -10 10 -11 10 -2 0 7 -7 15 -15 18
-8 4 -15 11 -15 18 0 6 -13 27 -30 46 -16 19 -29 39 -30 43 0 5 -7 15 -16 24
-14 14 -20 11 -65 -33 -56 -56 -66 -54 -13 3 29 32 71 91 50 72 -4 -4 -32 20
-63 52 -52 55 -83 73 -83 48 0 -5 -4 -7 -10 -4 -5 3 -10 16 -10 29 0 40 -14
38 -53 -6 l-38 -43 20 42 c25 50 27 73 6 73 -7 0 -18 6 -22 13 -4 6 -21 19
-38 27 -16 8 -60 34 -97 57 -82 52 -131 73 -169 73 -17 0 -29 5 -29 13 0 7
-19 18 -42 24 -42 11 -68 8 -68 -8 0 -5 -4 -9 -10 -9 -5 0 -10 11 -10 24 0 19
-6 25 -32 29 -36 6 -57 -12 -59 -47 0 -12 -5 -30 -10 -41 -7 -14 -8 -3 -5 37
4 57 -1 70 -31 74 -6 1 -29 5 -50 8 -21 3 -51 7 -68 10 -70 12 -114 12 -182 4z"/>
<path d="M2073 4812 c-12 -2 -27 -10 -33 -18 -7 -8 -18 -14 -26 -14 -7 0 -18
-9 -24 -20 -7 -12 -21 -20 -37 -20 -28 0 -113 -45 -126 -67 -4 -7 -13 -13 -18
-13 -29 0 -236 -191 -225 -208 3 -5 0 -9 -8 -8 -11 1 -81 -72 -124 -129 -56
-75 -63 -95 -33 -95 11 0 22 -4 25 -9 4 -5 -3 -7 -13 -4 -22 6 -61 -13 -61
-28 0 -6 -10 -25 -22 -41 -20 -28 -20 -32 -5 -43 24 -18 21 -26 -6 -16 -22 9
-26 4 -50 -49 -15 -32 -27 -65 -27 -74 0 -9 -4 -16 -9 -16 -17 0 -20 -54 -4
-72 15 -17 14 -18 -6 -18 -14 0 -25 -9 -31 -26 -18 -45 -12 -63 28 -84 l37
-20 -41 6 c-23 3 -44 2 -47 -3 -13 -20 -36 -255 -30 -298 5 -37 10 -45 27 -46
11 0 30 -5 41 -10 15 -7 10 -8 -22 -6 l-43 3 0 -78 c0 -64 3 -81 20 -98 10
-10 15 -22 10 -25 -5 -3 -6 -22 -3 -43 17 -124 47 -162 124 -162 27 0 49 -4
49 -9 0 -5 14 -14 30 -21 17 -7 30 -16 30 -21 0 -4 16 -13 35 -20 19 -7 35
-17 35 -21 0 -4 15 -8 34 -8 18 0 49 -6 67 -14 31 -12 36 -12 53 5 11 11 14
19 8 19 -8 0 -12 18 -12 48 0 26 -5 53 -11 59 -9 9 -6 19 8 40 11 15 23 36 26
46 4 9 17 18 29 18 15 1 10 4 -12 8 -40 7 -57 41 -20 41 18 0 20 3 11 13 -8
11 -5 17 17 27 22 11 24 14 10 17 -30 7 -20 26 10 20 61 -12 66 -12 70 6 2 12
-3 17 -20 17 -13 0 -34 8 -47 17 -23 16 -23 17 -5 24 10 3 33 4 49 2 24 -4 37
1 58 22 15 15 27 32 27 38 0 6 7 19 16 29 16 17 15 19 -15 31 -37 16 -31 27
16 27 18 0 33 5 33 10 0 6 6 10 13 10 7 0 20 16 27 35 8 20 20 41 27 47 17 13
17 32 1 22 -10 -6 -10 -5 -1 8 11 12 9 18 -7 33 -19 17 -19 35 1 35 6 0 7 -4
4 -10 -3 -5 -2 -10 2 -10 5 0 14 9 20 19 9 15 9 23 -2 37 -8 11 -15 28 -15 40
0 19 -28 54 -43 54 -4 0 -7 -11 -7 -24 0 -14 -5 -28 -11 -31 -7 -5 -5 -15 5
-31 19 -28 21 -43 4 -26 -7 7 -22 12 -34 12 -13 0 -39 9 -59 21 -19 12 -41 19
-49 16 -20 -8 -56 35 -56 66 0 15 -7 30 -15 33 -8 4 -15 15 -15 25 0 11 7 22
15 25 9 4 15 19 15 36 0 33 36 83 80 109 15 10 49 18 76 20 60 5 103 -23 130
-82 10 -24 24 -39 34 -39 10 0 23 -6 30 -14 11 -14 33 -12 56 6 8 6 -6 27 -47
69 -55 57 -75 99 -46 99 7 1 5 6 -5 14 -26 19 -22 43 7 50 14 4 24 10 21 15
-3 4 4 15 15 24 10 9 19 24 19 32 0 24 75 34 91 12 4 -5 15 -3 27 4 16 10 26
10 50 0 17 -7 33 -19 36 -28 3 -8 10 -12 15 -8 6 3 4 19 -4 39 -16 37 -9 55
11 28 7 -9 16 -14 20 -10 4 5 0 16 -9 26 -23 26 -21 42 6 42 32 1 74 42 82 81
4 19 10 39 14 44 4 6 7 19 6 30 -1 11 -2 30 -3 43 -2 20 -6 22 -34 17 -18 -4
-44 -2 -58 3 -23 9 -21 10 23 17 26 4 46 10 45 14 -2 3 -12 25 -22 49 -10 23
-24 42 -31 42 -36 0 -125 73 -125 102 0 10 -4 18 -10 18 -5 0 -10 5 -10 10 0
6 -11 23 -25 38 -14 15 -25 24 -25 20 0 -4 -12 -3 -27 1 -16 4 -38 5 -50 3z
m-307 -1339 c4 -16 11 -34 17 -41 8 -10 7 -16 0 -20 -16 -10 -20 -44 -5 -49 7
-3 12 3 12 14 0 14 2 15 9 4 5 -7 7 -21 6 -30 -2 -9 -4 -24 -4 -35 -1 -21 -12
-19 -93 9 -34 12 -48 23 -48 36 0 9 -9 21 -21 24 -16 5 -18 10 -8 21 9 10 9
17 0 28 -26 31 21 63 96 65 28 1 34 -3 39 -26z"/>
<path d="M5398 4453 c-21 -22 -38 -44 -38 -51 0 -6 -18 -30 -39 -53 -22 -22
-41 -53 -43 -67 -4 -33 -71 -76 -143 -93 -27 -6 -68 -16 -89 -22 -46 -13 -259
-16 -331 -4 -43 7 -54 5 -73 -11 -30 -26 -37 -87 -22 -187 7 -44 14 -105 16
-135 3 -30 11 -95 19 -145 8 -49 17 -130 21 -180 4 -56 14 -104 25 -127 10
-20 26 -57 34 -82 9 -25 36 -89 61 -142 53 -115 112 -253 116 -274 1 -3 18
-45 39 -95 32 -77 41 -90 63 -93 30 -4 35 -22 6 -22 -17 0 -19 -4 -12 -32 14
-64 8 -211 -11 -267 -18 -53 -54 -111 -69 -111 -4 0 -45 -17 -90 -39 -46 -21
-103 -44 -128 -51 -74 -21 -77 -28 -116 -270 -15 -97 -39 -265 -53 -378 -6
-51 -5 -65 6 -69 11 -4 10 -8 -5 -19 -11 -7 -24 -36 -31 -68 -7 -31 -17 -58
-22 -61 -5 -4 -9 -13 -9 -21 0 -26 -72 -118 -119 -154 -60 -45 -155 -83 -271
-109 -195 -44 -205 -47 -203 -59 2 -6 -2 -11 -9 -9 -12 2 -31 -56 -42 -129 -7
-51 -41 -230 -60 -323 -26 -124 -71 -174 -169 -186 -29 -3 -227 -7 -442 -8
l-390 -2 -3 -27 c-4 -37 -21 -36 -28 1 l-6 29 -196 1 c-164 1 -198 -1 -212
-14 -16 -14 -18 -14 -24 0 -5 13 -48 15 -368 13 -401 -2 -374 -6 -456 64 -18
16 -37 26 -43 23 -5 -4 -9 1 -9 9 0 9 3 16 8 16 4 0 9 30 10 68 3 80 11 131
51 322 36 176 68 397 79 544 14 198 -18 345 -103 476 -76 117 -243 302 -286
315 -10 4 -19 10 -19 14 0 18 -51 -3 -96 -41 -52 -43 -59 -54 -79 -133 -15
-58 -66 -200 -84 -233 -18 -33 -74 -92 -88 -92 -7 0 -13 -3 -13 -7 0 -12 -51
-33 -76 -33 -13 0 -25 -4 -29 -9 -3 -5 -20 -13 -38 -16 -17 -4 -48 -14 -67
-22 -19 -8 -44 -19 -55 -23 -32 -12 -101 -30 -118 -30 -18 0 -104 -38 -152
-67 -41 -25 -74 -61 -92 -102 -8 -19 -29 -49 -46 -66 -18 -18 -56 -59 -85 -93
l-52 -61 0 -157 c0 -147 1 -156 18 -143 16 13 16 13 0 -7 -17 -19 -18 -54 -18
-422 l0 -402 1266 0 c841 0 1263 3 1259 10 -3 6 -1 10 4 10 6 0 11 -4 11 -10
0 -7 490 -10 1450 -10 l1450 0 0 308 0 309 -25 13 c-14 7 -25 17 -25 22 0 12
24 10 38 -4 9 -9 12 377 12 1725 l0 1737 -33 1 c-31 2 -31 2 -4 6 16 3 30 10
33 17 2 6 3 89 2 184 l-3 173 -37 -38z"/>
<path d="M3071 4011 c-6 -11 -11 -25 -11 -31 0 -6 -6 -18 -14 -26 -11 -11 -16
-11 -20 -1 -7 18 -33 -17 -67 -93 -17 -36 -35 -74 -41 -85 -6 -11 -7 -17 -3
-13 4 4 17 1 29 -7 27 -20 129 -20 146 -1 6 8 21 16 33 18 16 2 22 10 22 28 0
24 -2 25 -52 22 -29 -2 -53 1 -53 6 0 18 29 34 50 27 14 -5 20 -2 20 9 0 15
12 21 33 17 5 -1 5 4 1 10 -4 7 1 18 10 25 10 7 16 22 14 36 -2 18 -10 24 -35
26 -25 2 -33 8 -33 22 0 27 -17 34 -29 11z"/>
<path d="M3826 4021 c-51 -11 -53 -30 -13 -115 83 -173 79 -223 -30 -442 -44
-89 -94 -182 -112 -207 -17 -25 -31 -53 -31 -63 0 -9 -8 -23 -17 -29 -12 -9
-17 -26 -17 -55 1 -35 -2 -43 -22 -50 -13 -5 -24 -15 -24 -21 0 -7 -18 -31
-40 -55 -31 -33 -40 -52 -40 -78 0 -39 8 -47 50 -48 30 -1 72 -36 76 -64 2
-10 -11 -21 -33 -30 -29 -12 -33 -17 -23 -29 7 -8 18 -15 24 -15 6 0 22 -12
35 -25 24 -25 24 -33 5 -107 -5 -24 -3 -28 14 -28 37 0 33 -18 -6 -24 -51 -9
-112 -37 -112 -51 0 -17 -37 -48 -52 -43 -7 3 -19 -4 -28 -14 -8 -10 -28 -20
-45 -22 -16 -2 -46 -9 -65 -15 -45 -14 -103 -14 -117 0 -8 8 -15 5 -24 -8 -23
-31 -92 -80 -129 -91 -19 -6 -96 -13 -170 -16 l-135 -6 -64 30 c-35 17 -69 29
-75 27 -12 -4 -36 17 -36 32 0 7 -10 6 -30 -1 -25 -8 -34 -7 -50 7 -17 16 -21
16 -42 1 -32 -23 -51 -20 -80 12 -60 64 -61 112 -3 133 22 8 35 20 35 31 0 28
-4 33 -22 30 -21 -4 -23 12 -7 58 11 31 14 32 52 27 53 -7 73 -27 27 -27 -26
0 -31 -3 -20 -10 8 -5 32 -10 53 -10 39 0 37 -2 42 61 0 9 7 24 14 33 7 9 11
16 7 16 -3 0 15 31 39 69 25 38 45 81 45 94 0 15 9 31 24 41 20 12 23 21 19
48 -6 45 -15 51 -67 51 -33 0 -54 -7 -80 -26 -30 -24 -34 -31 -29 -60 4 -24 0
-37 -16 -51 -22 -20 -28 -46 -11 -46 6 0 10 -7 10 -15 0 -17 -36 -39 -50 -30
-6 3 -10 2 -10 -2 0 -5 -15 -13 -32 -18 -30 -9 -33 -14 -33 -50 0 -43 -11 -69
-26 -60 -14 9 -11 63 4 68 6 2 9 8 4 12 -4 5 -17 4 -30 -2 -26 -13 -62 -25
-62 -22 0 2 -13 -4 -30 -13 -70 -38 -145 -67 -191 -74 -50 -7 -117 -48 -122
-74 -4 -20 -101 -114 -109 -106 -4 4 15 28 41 55 l48 49 -29 0 c-17 -1 -39
-11 -57 -29 -17 -16 -37 -29 -47 -29 -9 0 -22 -7 -29 -15 -7 -8 -19 -15 -27
-15 -8 0 -27 -6 -41 -14 -15 -8 -35 -17 -44 -20 -38 -12 -17 -95 39 -156 58
-63 75 -84 111 -140 20 -30 40 -56 44 -58 5 -2 8 -8 8 -13 0 -5 11 -26 23 -47
26 -40 63 -132 59 -144 -1 -5 5 -8 14 -8 12 0 15 -6 11 -21 -3 -11 1 -36 9
-55 l15 -35 32 23 32 23 -27 -46 c-15 -26 -25 -49 -22 -52 3 -3 8 -32 10 -64
2 -32 7 -96 12 -143 8 -98 -7 -334 -32 -490 -23 -143 -26 -267 -6 -280 8 -5
11 -11 5 -12 -5 -1 132 -5 305 -8 189 -3 320 -1 328 4 9 6 16 6 21 -3 9 -14
122 -12 133 4 4 5 8 48 8 94 0 46 2 82 4 80 2 -2 6 -41 9 -87 3 -46 7 -85 9
-87 5 -5 47 -8 80 -7 15 1 34 9 43 18 15 15 17 15 22 -6 l6 -22 181 7 c100 4
201 10 226 14 51 7 57 19 59 117 2 113 -44 194 -110 194 -16 0 -29 5 -29 10 0
6 7 10 15 10 24 0 18 13 -18 37 -32 22 -103 56 -122 58 -5 0 -27 8 -49 18 -21
9 -42 17 -47 17 -5 0 -17 4 -27 9 -22 13 -91 26 -116 23 -11 -1 -22 1 -25 5
-3 5 -21 16 -39 27 -35 19 -47 15 -55 -19 -4 -16 -6 -15 -12 10 -6 25 -16 34
-68 53 -34 13 -81 37 -104 53 -23 16 -44 29 -48 29 -12 0 -107 94 -125 124
l-18 28 -16 -28 -15 -29 -1 49 c0 35 -10 69 -35 121 -30 61 -36 85 -38 147 -2
68 1 78 26 111 36 48 75 67 134 67 74 0 121 -34 177 -124 10 -17 27 -37 37
-44 11 -7 19 -19 19 -27 0 -19 74 -75 99 -75 12 0 24 -7 27 -15 4 -8 17 -15
31 -15 13 0 45 -8 71 -19 26 -10 67 -24 92 -31 25 -7 56 -16 70 -20 14 -4 59
-18 100 -30 41 -12 93 -28 115 -35 53 -18 197 -59 260 -74 28 -7 82 -21 120
-31 94 -25 181 -33 265 -25 60 6 69 10 73 28 l4 22 8 -22 c6 -19 10 -20 31
-11 13 6 24 15 24 20 0 4 5 8 11 8 15 0 38 31 39 50 0 8 -11 40 -25 70 l-25
55 30 -32 c16 -18 32 -33 36 -33 10 0 -9 45 -34 78 -13 17 -19 32 -13 32 19 0
52 -20 47 -28 -2 -4 2 -13 10 -20 26 -23 16 36 -11 72 -32 43 -32 53 2 27 14
-12 28 -20 29 -18 2 2 6 21 9 43 3 21 8 50 12 64 10 40 11 47 18 118 6 65 5
69 -24 106 -17 21 -31 40 -31 42 0 2 16 -6 35 -18 44 -25 52 -20 24 15 l-20
27 20 0 c16 0 21 6 21 28 0 15 9 68 20 117 l19 90 -32 34 -32 34 32 -18 31
-18 29 33 c15 18 30 37 33 41 3 4 46 27 95 50 149 70 165 83 165 129 0 22 -4
40 -10 40 -5 0 -10 9 -10 19 0 11 -4 22 -9 25 -4 3 -11 23 -15 44 -6 39 -24
62 -61 77 -19 7 -19 8 4 14 22 6 22 7 7 20 -9 8 -15 20 -12 27 3 7 -13 49 -35
93 -21 44 -39 85 -39 90 0 6 -20 52 -44 103 -24 51 -50 117 -57 146 -12 47
-15 52 -40 52 -37 0 -47 18 -12 22 l28 3 -3 80 c-2 60 -7 83 -19 93 -10 7 -12
12 -5 12 15 0 16 95 1 155 -9 34 -17 46 -37 53 l-27 9 28 6 c24 7 39 27 19 27
-5 0 -15 19 -22 43 -16 48 -64 96 -98 97 -12 0 -39 -7 -59 -15 -49 -21 -53
-19 -18 9 23 18 26 26 15 29 -43 13 -99 27 -133 32 -21 3 -44 8 -50 9 -7 2
-25 1 -41 -3z"/>
<path d="M4395 3963 c-46 -22 -81 -64 -70 -83 11 -17 30 -200 40 -380 4 -63
13 -131 20 -150 6 -19 22 -64 35 -100 12 -36 34 -81 49 -100 14 -19 34 -66 43
-105 10 -38 29 -92 42 -120 89 -182 131 -294 131 -347 0 -74 -44 -111 -190
-158 -78 -25 -115 -48 -139 -84 -9 -14 -25 -86 -37 -163 -11 -76 -24 -160 -29
-188 -5 -27 -14 -95 -20 -150 -17 -160 -51 -347 -71 -390 -21 -44 -112 -129
-132 -122 -6 2 -26 -4 -44 -15 -17 -10 -34 -15 -37 -10 -3 5 -47 10 -98 11
-51 1 -124 6 -163 12 -69 9 -103 17 -260 59 -271 73 -336 91 -390 110 -33 12
-82 27 -110 35 -27 7 -81 22 -120 33 -137 37 -209 93 -301 232 -51 79 -80 98
-127 86 -33 -8 -52 -68 -42 -130 17 -102 126 -265 213 -317 20 -13 39 -26 42
-30 7 -8 251 -89 410 -134 154 -44 249 -89 318 -151 100 -88 139 -223 114
-388 -16 -100 -24 -106 -149 -106 -62 0 -103 -4 -103 -10 0 -5 -9 -10 -20 -10
-11 0 -20 4 -20 8 0 4 -65 9 -145 10 -126 1 -146 -1 -154 -16 -9 -15 -11 -15
-28 1 -17 15 -43 17 -206 17 -180 0 -187 -1 -187 -20 0 -11 -4 -20 -10 -20 -5
0 -10 7 -10 15 0 18 2 18 -250 21 -363 3 -344 2 -369 25 -22 21 -23 27 -17
103 4 45 11 97 16 116 19 73 58 370 65 490 4 90 2 155 -10 233 -18 125 -33
197 -44 212 -5 5 -14 28 -21 50 -14 43 -83 178 -103 201 -26 29 -37 43 -37 49
0 11 -100 115 -184 190 -36 33 -119 45 -171 25 -24 -9 -26 -14 -22 -48 2 -20
14 -55 27 -77 20 -36 38 -59 116 -148 13 -15 24 -32 24 -38 0 -6 19 -36 43
-67 63 -83 82 -118 110 -202 29 -86 47 -192 47 -277 0 -34 5 -64 12 -71 9 -9
9 -15 2 -20 -6 -4 -18 -65 -27 -137 -10 -71 -21 -155 -27 -185 -22 -133 -24
-161 -9 -158 8 2 14 -4 14 -12 0 -8 -8 -14 -17 -14 -17 2 -22 -16 -63 -221
-31 -154 -21 -215 40 -243 12 -5 269 -9 611 -8 467 1 594 4 606 14 9 7 18 9
20 4 5 -14 308 -24 308 -10 0 6 15 8 43 4 23 -3 130 -7 237 -8 276 -2 273 -4
310 227 12 77 26 156 30 175 5 19 11 55 14 80 6 42 15 83 31 137 13 42 58 58
187 69 78 6 144 20 183 38 81 37 145 71 145 76 0 3 21 27 46 53 77 80 100 165
134 492 5 50 12 104 15 120 2 17 7 48 10 70 15 104 38 211 50 235 19 38 44 51
175 99 133 49 165 74 186 149 26 90 4 253 -47 340 -10 18 -19 39 -19 46 0 14
-68 177 -95 229 -8 16 -15 33 -15 39 0 5 -14 40 -31 76 -101 218 -119 280
-134 453 -25 293 -56 400 -115 398 -14 -1 -48 -12 -75 -26z"/>
<path d="M3555 3952 c-14 -10 -31 -64 -27 -85 2 -12 11 -17 24 -15 12 2 23 -2
25 -9 2 -6 -5 -13 -17 -15 -28 -4 -27 -22 2 -27 19 -3 20 -5 6 -10 -15 -5 -16
-10 -5 -31 14 -29 57 -41 57 -16 0 9 5 16 10 16 6 0 10 -9 10 -20 0 -18 7 -20
65 -20 58 0 66 2 82 26 16 25 16 28 -8 71 -28 52 -85 117 -116 132 -25 12 -93
14 -108 3z"/>
<path d="M2245 3840 c-3 -11 -10 -20 -16 -20 -5 0 -20 -22 -34 -49 -13 -27
-29 -53 -35 -56 -7 -4 -8 -23 -4 -51 4 -30 3 -44 -5 -44 -22 0 -11 -18 19 -30
28 -12 42 -40 19 -40 -16 0 -52 21 -72 42 -20 21 -37 16 -37 -11 0 -9 -13 -31
-30 -48 -28 -28 -55 -79 -52 -95 1 -5 -2 -8 -7 -8 -5 0 -15 -15 -22 -32 -7
-18 -20 -41 -28 -50 -8 -9 -16 -23 -17 -30 -1 -7 -9 -33 -18 -57 -20 -54 -20
-61 0 -61 11 0 8 -7 -11 -24 -14 -13 -22 -27 -17 -29 7 -5 98 -9 179 -7 22 0
36 7 43 20 6 11 18 20 26 20 9 0 14 6 11 13 -2 6 4 24 14 38 17 24 17 28 3 33
-9 3 -34 6 -57 6 -63 0 -31 17 41 22 66 5 96 26 86 61 -4 12 0 17 13 18 52 3
-41 15 -101 13 -47 -2 -65 1 -58 8 5 5 51 11 102 13 51 1 95 7 99 13 3 6 18
13 33 17 15 4 30 16 33 26 4 10 13 19 21 19 20 0 30 30 14 40 -20 12 -3 40 24
40 44 0 36 16 -14 30 -54 15 -67 30 -23 27 21 -2 28 3 33 23 4 14 2 32 -4 41
-7 12 -5 21 6 33 12 12 17 13 21 3 2 -6 7 12 11 41 4 28 11 52 17 52 6 0 17 7
25 15 14 13 9 15 -43 15 -41 0 -54 3 -43 10 10 7 -9 10 -62 10 -68 0 -77 -2
-83 -20z"/>
<path d="M3544 3645 c-10 -16 -24 -36 -31 -43 -16 -16 -7 -39 19 -45 12 -3 17
-10 13 -17 -4 -7 2 -14 14 -17 12 -3 21 -12 21 -19 0 -16 -66 -19 -90 -4 -12
7 -10 11 10 19 24 9 24 10 3 10 -13 1 -24 -7 -28 -19 -3 -11 -11 -20 -16 -20
-6 0 -7 5 -4 10 3 6 2 10 -3 10 -13 0 -44 -89 -36 -102 3 -5 -3 -12 -15 -15
-27 -7 -27 -29 -1 -36 34 -9 22 -25 -20 -29 -32 -3 -43 1 -53 16 -12 18 -29
19 -317 20 -335 1 -353 -2 -396 -61 -24 -32 -57 -93 -50 -93 2 0 0 -16 -4 -35
-8 -34 -7 -35 32 -46 22 -5 46 -8 54 -5 20 8 167 -23 176 -37 17 -27 7 -78
-26 -130 -41 -63 -66 -121 -66 -151 0 -12 -4 -26 -9 -31 -4 -6 -11 -22 -15
-37 -5 -23 -2 -28 25 -37 44 -15 32 -33 -26 -37 -28 -3 -56 -6 -62 -9 -14 -5
-18 -45 -5 -45 4 0 8 -14 9 -32 2 -28 54 -98 74 -98 3 0 9 28 12 61 3 34 11
66 17 73 6 6 11 7 10 1 -5 -22 1 -35 14 -35 8 0 17 6 20 13 5 10 7 10 12 0 3
-7 12 -13 20 -13 11 0 13 7 8 28 -10 43 -10 46 9 50 11 2 17 -3 17 -13 0 -28
19 -6 26 30 3 19 11 35 18 35 6 1 -2 7 -19 15 l-30 13 41 1 c23 1 46 7 51 14
11 14 10 57 -1 75 -5 8 1 12 19 12 18 0 24 -4 19 -12 -5 -9 -4 -10 3 -3 15 15
130 210 137 233 11 32 33 47 51 32 12 -10 8 -20 -24 -68 -22 -31 -56 -88 -77
-127 -21 -38 -50 -89 -66 -112 -15 -23 -28 -46 -28 -51 0 -6 -3 -12 -7 -14 -5
-1 -19 -25 -33 -53 -13 -27 -40 -73 -58 -102 -29 -44 -32 -54 -22 -74 8 -14
10 -41 6 -75 -6 -51 -6 -52 26 -63 77 -27 177 -1 193 50 4 13 14 30 22 37 19
19 9 62 -20 84 -26 20 -14 37 13 20 16 -10 20 -10 21 0 1 7 3 24 4 37 1 14 14
35 28 47 19 16 24 28 20 45 -5 18 -3 21 13 17 10 -3 26 -7 34 -9 9 -3 15 4 16
20 1 14 10 30 19 38 17 12 16 13 -13 19 -18 4 -35 11 -39 17 -6 10 27 6 60 -8
16 -7 17 -3 12 46 l-6 54 19 -22 c19 -21 20 -21 36 -4 9 10 34 52 56 95 22 42
48 86 59 97 11 12 17 27 14 35 -3 8 1 14 11 14 36 0 11 35 -31 45 -18 3 -33
11 -33 16 0 7 43 4 78 -7 6 -2 12 3 12 10 0 8 7 16 15 20 8 3 12 12 9 21 -4 9
-1 15 9 15 8 0 20 14 26 31 15 43 14 59 -4 59 -9 0 -15 9 -15 24 0 14 -4 28
-10 31 -19 12 -10 40 20 60 16 11 30 24 30 29 0 5 -31 6 -71 2 -41 -3 -68 -2
-65 3 7 10 147 27 196 23 19 -2 40 -8 46 -13 8 -7 20 5 40 38 40 69 74 141 74
158 0 21 -69 36 -154 33 -71 -3 -75 -4 -92 -33z"/>
<path d="M3059 3653 c-1 -5 0 -18 1 -30 1 -16 -4 -23 -15 -23 -12 0 -15 5 -11
17 9 22 -13 34 -35 20 -12 -8 -22 -8 -29 -1 -6 6 -42 7 -94 3 -98 -8 -144 -29
-166 -77 -8 -17 -23 -34 -32 -38 -21 -6 -23 -23 -7 -58 11 -23 18 -25 116 -31
58 -4 131 -4 162 -1 31 4 77 7 104 6 27 -1 47 3 47 10 0 5 7 10 15 10 8 0 15
-4 15 -10 0 -5 24 -10 54 -10 76 0 84 14 49 85 -15 32 -33 60 -40 62 -7 3 -13
15 -13 28 0 27 -26 40 -38 19 -10 -18 -45 -7 -38 12 4 10 -3 14 -19 14 -14 0
-25 -3 -26 -7z"/>
<path d="M1313 2883 c-18 -6 -16 -68 2 -104 9 -16 14 -36 13 -44 -4 -21 92
-104 122 -106 83 -6 80 -8 80 33 0 20 -4 40 -10 43 -5 3 -10 15 -10 25 0 10
-4 20 -9 22 -6 2 -20 18 -33 36 -24 35 -134 102 -155 95z"/>
</g>
</svg>
