<?xml version="1.0" standalone="no"?>
<!DOCTYPE svg PUBLIC "-//W3C//DTD SVG 20010904//EN"
 "http://www.w3.org/TR/2001/REC-SVG-20010904/DTD/svg10.dtd">
<svg version="1.0" xmlns="http://www.w3.org/2000/svg"
 width="544.000000pt" height="544.000000pt" viewBox="0 0 544.000000 544.000000"
 preserveAspectRatio="xMidYMid meet">
<metadata>
Created by potrace 1.16, written by Peter Selinger 2001-2019
</metadata>
<g transform="translate(0.000000,544.000000) scale(0.100000,-0.100000)"
fill="#000000" stroke="none">
<path d="M0 4175 l0 -1265 58 3 c81 5 266 -8 283 -19 21 -13 82 -34 102 -34 9
0 17 -5 17 -11 0 -7 13 -9 38 -5 20 4 68 11 105 16 91 12 160 45 151 72 -4 12
1 25 14 36 10 9 17 23 15 30 -3 6 0 12 5 12 6 0 8 9 5 19 -4 16 -16 21 -52 23
l-46 4 31 13 c35 13 47 39 32 66 -6 9 -11 55 -12 101 -1 60 -5 87 -15 93 -9 6
-12 22 -9 50 l4 41 -41 0 c-87 0 -85 36 3 47 45 5 50 8 42 23 -8 14 -28 20
-97 25 -96 8 -130 18 -96 29 10 3 57 0 103 -8 50 -9 90 -11 99 -6 11 6 5 10
-24 15 -117 21 -181 37 -194 50 -12 12 -8 15 25 21 21 4 68 2 104 -4 35 -6 67
-9 69 -6 3 2 -4 14 -15 25 -13 13 -43 23 -82 29 -61 8 -112 32 -94 44 5 3 35
-1 66 -9 68 -18 69 -18 61 -5 -10 17 26 24 57 12 16 -6 35 -9 42 -6 7 2 17 33
24 67 6 34 19 87 27 117 9 30 20 78 25 105 5 28 12 65 16 83 4 22 2 38 -8 50
-26 30 -30 42 -14 36 28 -11 17 13 -24 50 -37 33 -50 56 -32 56 4 0 30 -14 57
-30 73 -43 85 -41 85 19 0 28 -5 53 -11 56 -5 4 -8 12 -6 18 2 6 -7 23 -19 36
-19 20 -21 28 -11 39 13 16 10 19 -63 65 -36 23 -54 67 -27 67 8 0 34 -7 57
-15 23 -8 45 -15 47 -15 3 0 -11 20 -31 44 -20 24 -36 49 -36 55 0 6 18 16 40
22 21 7 37 15 35 19 -7 11 32 38 52 37 12 -1 17 4 15 16 -2 9 2 17 8 17 6 0 8
4 5 10 -9 15 27 71 42 66 16 -6 16 -1 3 25 -9 16 -7 19 9 19 11 0 23 -5 26
-10 4 -6 10 -8 14 -5 5 2 18 -6 31 -20 12 -13 30 -22 41 -20 10 2 19 0 19 -6
0 -5 10 -9 23 -9 16 0 18 -3 8 -9 -11 -7 -11 -10 1 -17 8 -5 18 -18 23 -29 8
-18 9 -18 13 7 2 19 -7 42 -28 73 -28 41 -29 65 0 30 7 -8 17 -12 22 -9 5 3
22 1 38 -6 22 -9 33 -9 53 2 36 18 147 126 147 141 0 7 5 18 11 24 6 6 11 17
13 25 3 21 34 50 48 46 7 -3 24 6 38 20 14 13 37 28 53 34 16 6 27 17 27 29 0
23 13 25 30 4 17 -21 40 -19 40 3 0 27 9 32 35 20 19 -8 34 -6 77 13 107 48
172 84 182 103 6 10 21 30 34 44 12 14 22 32 22 41 0 9 3 33 6 54 l7 37 -1037
0 -1036 0 0 -1265z"/>
<path d="M2860 5410 c0 -16 3 -30 8 -31 55 -6 297 -58 373 -79 41 -12 90 -26
109 -31 19 -4 60 -18 90 -29 111 -43 196 -70 215 -70 11 0 30 7 41 14 12 9 31
12 43 9 23 -6 24 -21 6 -78 -6 -18 -5 -18 13 3 21 23 49 31 35 10 -4 -7 10 2
32 20 43 35 63 40 71 17 4 -9 14 -14 23 -13 13 3 16 -6 16 -50 0 -36 5 -56 15
-62 8 -5 12 -10 8 -10 -3 0 -2 -16 4 -36 10 -38 43 -79 117 -148 113 -104 234
-235 253 -273 12 -24 25 -43 29 -43 7 0 65 -95 80 -130 4 -8 22 -32 40 -52 32
-34 37 -36 79 -31 37 5 116 47 140 74 13 15 72 40 139 59 65 19 81 20 145 10
39 -6 94 -18 121 -26 66 -18 189 -20 245 -3 25 8 55 25 67 39 22 25 22 25 23
498 l0 472 -1290 0 -1290 0 0 -30z"/>
<path d="M2926 5262 c-6 -17 -26 -195 -23 -199 5 -5 259 -53 280 -53 24 0 37
16 37 47 0 23 29 48 42 35 7 -7 7 -20 -1 -43 -6 -17 -11 -37 -11 -44 0 -12 78
-50 86 -42 3 3 10 36 16 73 8 49 17 74 32 86 22 18 40 14 32 -7 -3 -8 2 -19
10 -25 8 -7 14 -8 14 -4 0 5 12 17 27 26 l28 16 -28 7 c-15 4 -27 11 -27 16 0
5 -9 9 -20 9 -12 0 -33 6 -48 14 -55 28 -190 67 -300 86 -139 24 -139 24 -146
2z"/>
<path d="M1927 5120 c-26 -10 -55 -24 -64 -31 -8 -7 -22 -14 -30 -15 -30 -5
-35 -20 -19 -55 40 -85 79 -149 92 -149 17 0 17 0 -1 43 -18 45 -18 47 -1 47
8 0 20 -16 27 -35 14 -38 39 -55 39 -27 0 10 -4 22 -9 28 -5 5 -7 22 -4 38 l6
29 27 -33 c20 -25 31 -31 48 -26 11 4 24 16 27 27 8 23 -20 124 -43 155 -20
28 -31 28 -95 4z"/>
<path d="M2786 4927 c-18 -49 -39 -60 -88 -50 l-30 6 7 -69 c10 -108 -9 -68
-41 85 -3 14 -8 21 -12 15 -4 -5 -15 -15 -24 -22 -14 -11 -16 -11 -11 7 8 30
-12 26 -26 -6 -7 -16 -8 -30 -3 -35 5 -5 7 -29 5 -52 -5 -38 -2 -45 26 -69 18
-15 31 -35 31 -49 0 -13 7 -34 15 -48 7 -14 21 -40 29 -58 9 -19 25 -36 36
-39 11 -3 20 -9 20 -14 0 -5 9 -9 19 -9 11 0 23 -4 26 -10 3 -5 20 -10 36 -10
17 0 40 -5 51 -11 18 -10 25 -8 40 11 l18 22 0 -32 c0 -26 11 -44 55 -88 30
-31 55 -61 55 -69 0 -7 4 -13 8 -13 15 0 50 -74 62 -131 13 -59 9 -71 -61
-189 -12 -19 -21 -36 -21 -37 2 -12 -12 -43 -19 -43 -5 0 -9 -4 -9 -9 0 -5
-13 -31 -29 -58 -28 -44 -35 -68 -32 -100 1 -9 26 -13 92 -13 77 0 96 3 121
21 17 13 27 27 24 36 -3 8 -2 12 3 9 7 -5 21 15 21 30 0 2 -19 5 -42 5 l-43 1
54 9 c53 9 91 31 91 53 0 6 18 31 40 56 22 25 40 48 40 51 0 18 58 65 153 123
18 11 27 25 27 41 0 31 23 33 42 3 l15 -22 12 22 c8 15 21 22 42 22 22 0 32 6
36 19 7 27 69 54 94 40 12 -6 23 -8 26 -6 2 3 -5 8 -16 12 -17 5 -19 10 -11
25 6 10 10 27 10 37 0 10 7 31 15 47 21 39 13 58 -20 50 -37 -9 -32 12 15 58
38 39 44 58 15 58 -7 0 -16 -11 -19 -24 -3 -14 -17 -28 -33 -33 -36 -13 -54
-6 -46 15 6 15 5 15 -10 3 -21 -17 -22 -41 -1 -41 28 0 9 -23 -30 -36 -46 -16
-56 -2 -31 47 18 34 21 33 -31 13 -13 -6 -14 -3 -6 12 15 30 42 94 42 101 0 3
-10 -5 -22 -19 -13 -14 -33 -31 -45 -37 -13 -6 -23 -20 -23 -30 0 -20 -37 -58
-47 -48 -3 4 3 17 14 30 21 24 63 90 63 101 0 3 -9 6 -20 6 -11 0 -20 6 -20
13 0 7 -9 18 -20 25 -11 7 -20 19 -20 26 0 27 -19 27 -32 -1 -13 -27 -42 -46
-33 -21 3 8 -3 23 -15 33 -11 10 -20 23 -20 30 0 22 -43 9 -67 -21 -16 -20
-23 -24 -23 -13 0 9 6 22 14 28 25 21 31 70 9 86 -16 12 -19 11 -30 -8 -7 -12
-15 -42 -19 -67 -3 -25 -10 -52 -15 -60 -14 -26 -11 18 8 97 9 40 14 76 10 79
-21 22 -69 -50 -69 -104 0 -12 -9 -27 -19 -33 -15 -7 -19 -6 -19 5 0 8 4 17 9
20 13 9 43 107 37 123 -9 21 -26 6 -26 -23 0 -14 -4 -23 -9 -20 -5 3 -11 -4
-14 -16 -4 -12 -9 -19 -12 -16 -3 3 0 31 8 61 8 30 12 59 8 64 -3 6 -20 13
-37 16 -30 6 -31 4 -48 -49 -9 -30 -19 -54 -22 -54 -3 0 -2 30 1 66 l8 66 -24
-7 c-13 -4 -25 -8 -26 -9 -1 -1 -6 -28 -12 -61 -12 -74 -32 -128 -38 -102 -3
9 0 40 6 68 6 27 11 68 11 89 0 38 -2 40 -29 40 -46 0 -81 -17 -81 -39 0 -15
-5 -19 -16 -14 -14 5 -16 2 -10 -20 6 -26 -10 -77 -26 -77 -11 0 -10 83 2 115
6 15 6 33 2 42 -7 11 -13 3 -26 -30z"/>
<path d="M1445 4798 c-45 -33 -85 -79 -85 -99 0 -10 20 -33 44 -51 24 -18 52
-46 62 -63 24 -41 34 -46 53 -27 40 41 42 47 25 87 -18 43 -11 59 12 27 20
-29 34 -28 34 3 0 14 7 28 15 31 25 10 18 64 -11 90 -34 32 -106 33 -149 2z"/>
<path d="M2140 4771 c0 -31 -21 -43 -35 -21 -3 6 -17 10 -30 10 -22 0 -23 -3
-20 -40 3 -22 13 -48 25 -60 20 -20 27 -64 11 -74 -5 -3 -13 6 -19 22 -5 15
-19 43 -31 62 l-22 35 7 -38 c6 -34 4 -39 -15 -44 -17 -4 -19 -8 -10 -19 24
-29 -13 -14 -39 16 -15 17 -30 30 -34 30 -17 0 -7 -46 12 -58 11 -7 20 -16 20
-21 0 -9 -81 28 -91 42 -12 16 -19 -24 -8 -45 19 -35 -2 -34 -33 1 l-31 35 7
-50 c3 -27 11 -50 16 -52 13 -5 13 -62 0 -62 -5 0 -22 19 -39 43 -42 62 -55
71 -74 52 -9 -8 -23 -15 -33 -15 -15 0 -43 -26 -44 -41 0 -4 7 -6 16 -5 9 0
19 -5 21 -11 3 -8 -5 -13 -21 -13 -14 0 -26 -4 -26 -10 0 -5 5 -10 11 -10 5 0
7 -5 4 -10 -3 -6 3 -24 15 -40 16 -22 17 -28 6 -24 -8 3 -23 23 -32 45 -19 42
-39 55 -60 38 -17 -14 -44 -67 -44 -87 0 -8 -7 -20 -15 -26 -13 -10 -12 -15 8
-38 18 -21 26 -25 35 -16 14 14 16 -1 3 -21 -7 -11 -14 -9 -39 9 l-30 22 -31
-23 c-36 -26 -30 -39 30 -69 35 -18 54 -42 42 -53 -2 -3 -21 6 -40 19 -45 30
-75 34 -50 6 16 -18 23 -42 12 -42 -3 0 -16 7 -29 15 -34 22 -59 9 -52 -26 4
-22 2 -27 -10 -22 -8 3 -14 2 -13 -3 4 -22 -2 -34 -16 -34 -19 0 -20 -46 -1
-53 8 -3 20 -15 26 -26 16 -31 -15 -28 -43 3 -22 24 -23 24 -35 5 -26 -41 -10
-71 52 -97 16 -7 26 -15 23 -19 -3 -3 -29 6 -58 21 -29 14 -55 24 -57 21 -7
-7 39 -44 77 -61 18 -8 31 -18 28 -20 -3 -3 -14 -1 -25 5 -10 5 -32 8 -48 6
-16 -2 -32 -4 -36 -4 -4 -1 -14 -14 -22 -30 -18 -33 -6 -51 34 -51 30 -1 92
-27 70 -30 -26 -4 -54 2 -67 12 -7 5 -22 8 -34 6 -19 -2 -24 -13 -35 -63 -7
-33 -15 -68 -19 -78 -6 -14 0 -20 24 -30 36 -13 36 -33 -1 -29 -22 3 -26 -1
-31 -30 -2 -18 0 -36 5 -39 7 -4 6 -9 -1 -13 -21 -14 -11 -37 19 -42 17 -4 30
-11 30 -15 0 -5 -12 -6 -27 -3 -20 5 -25 4 -18 -5 6 -6 26 -13 45 -17 28 -4
32 -3 20 6 -12 9 -10 10 10 4 14 -5 35 -8 48 -7 12 0 22 -3 22 -8 0 -5 -33 -9
-74 -9 -72 0 -74 -1 -72 -24 0 -13 4 -22 7 -20 11 6 17 -20 12 -49 -3 -15 0
-34 7 -42 7 -8 10 -22 6 -30 -4 -12 3 -15 35 -15 45 0 45 -14 -1 -23 -37 -8
-39 -33 -4 -49 20 -9 30 -9 45 0 41 26 54 4 19 -33 -18 -20 -19 -23 -5 -35 8
-7 15 -18 15 -26 0 -17 60 -28 112 -20 35 6 39 4 34 -10 -4 -11 1 -18 15 -21
16 -4 17 -8 7 -14 -20 -13 -38 -11 -38 6 0 8 -4 15 -10 15 -17 0 -11 -40 8
-47 9 -4 21 -12 25 -20 4 -7 15 -13 22 -13 8 0 15 -7 15 -15 0 -8 3 -15 8 -16
52 -4 86 -13 130 -34 29 -14 63 -25 77 -25 30 0 77 18 87 33 14 22 8 75 -13
129 -11 29 -25 77 -30 107 -7 46 -6 59 10 85 11 17 32 56 48 86 48 92 94 170
104 176 5 3 9 19 9 35 0 22 6 32 25 39 14 5 25 16 25 24 0 8 6 21 13 28 7 7
21 31 31 53 11 22 22 42 25 45 8 7 30 46 54 95 11 22 27 51 37 65 22 32 75
129 113 205 16 33 38 73 49 88 27 38 30 134 5 149 -9 5 -17 17 -17 26 1 14 5
12 22 -8 11 -14 25 -38 30 -53 l10 -28 19 23 c11 12 22 33 25 47 10 42 28 81
39 81 5 0 2 5 -8 11 -14 8 -15 14 -5 32 6 12 18 27 26 33 12 9 13 17 4 42 -9
27 -8 32 9 37 26 9 24 19 -11 52 -16 15 -30 33 -30 40 0 18 -63 49 -68 34 -6
-18 -32 7 -32 30 0 18 -9 23 -27 17 -5 -2 -7 -7 -5 -12 2 -5 -4 -6 -12 -3 -8
3 -17 1 -20 -6 -2 -7 -5 14 -5 45 -1 36 -6 62 -16 72 -8 8 -15 19 -15 25 0 6
-6 11 -14 11 -8 0 -21 3 -30 6 -13 5 -16 -1 -16 -25z"/>
<path d="M2854 4308 c-14 -29 -34 -69 -44 -88 -11 -19 -19 -47 -20 -62 0 -23
6 -29 33 -36 26 -8 29 -11 14 -17 -16 -7 -16 -8 -2 -19 18 -13 19 -12 -50 -17
-24 -1 -32 -20 -25 -54 1 -5 3 -27 4 -49 1 -26 8 -41 22 -49 28 -15 33 -27 23
-54 -26 -68 18 -43 61 34 18 32 40 67 50 78 10 11 37 55 59 98 39 74 40 80 30
125 -5 26 -18 56 -28 67 -9 11 -23 32 -30 46 -11 22 -48 49 -67 49 -3 0 -16
-24 -30 -52z"/>
<path d="M4853 4277 c-23 -12 -63 -41 -88 -64 -25 -24 -56 -46 -68 -49 -12 -3
-35 -22 -51 -40 -26 -32 -28 -41 -27 -106 1 -39 4 -74 6 -78 3 -5 14 -77 26
-162 11 -84 26 -175 34 -203 7 -29 11 -72 8 -101 -4 -41 1 -67 30 -145 42
-112 67 -170 111 -264 89 -188 174 -429 182 -513 7 -82 -12 -189 -41 -234 -30
-45 -118 -98 -214 -129 -39 -13 -84 -35 -100 -50 -26 -23 -30 -33 -28 -75 1
-27 -2 -56 -6 -65 -6 -11 1 -27 19 -48 l27 -32 -22 -15 c-24 -17 -27 -41 -9
-79 10 -23 10 -28 -4 -36 -17 -10 -18 -50 -2 -113 7 -30 4 -30 -53 -9 -10 4
-11 -6 -7 -39 5 -35 -2 -74 -30 -173 -61 -211 -114 -291 -246 -368 -54 -31
-161 -67 -201 -67 -15 0 -30 -4 -33 -9 -4 -5 -37 -15 -76 -22 -42 -7 -76 -19
-86 -31 -10 -10 -23 -49 -30 -88 -13 -68 -13 -71 14 -133 25 -60 50 -102 79
-132 15 -16 53 -155 53 -195 0 -16 4 -30 9 -30 10 0 33 -53 29 -66 -2 -6 3
-26 11 -46 10 -25 29 -45 66 -67 59 -36 119 -56 137 -45 6 4 8 3 5 -3 -7 -11
23 -20 98 -29 34 -4 67 -16 145 -53 8 -4 22 -22 30 -39 l15 -32 438 0 437 0 0
2139 0 2140 -230 0 c-137 0 -238 5 -250 11 -29 15 -61 12 -107 -13z"/>
<path d="M2437 4173 c-16 -16 -16 -18 0 -36 15 -16 15 -19 3 -27 -8 -6 -25
-10 -37 -10 -22 0 -26 -7 -38 -68 -5 -26 -10 -31 -20 -22 -11 9 -17 6 -28 -12
-32 -49 -56 -102 -51 -110 7 -12 241 -10 249 2 4 6 -8 10 -27 11 -33 1 -32 1
8 10 38 9 42 13 53 57 16 64 19 95 10 118 -4 10 -8 13 -8 6 -1 -18 -21 -5 -21
14 0 8 7 14 15 14 8 0 15 7 15 15 0 19 -24 19 -39 1 -15 -18 -51 -17 -44 0 2
7 11 15 19 18 8 3 14 12 14 21 0 21 -51 20 -73 -2z"/>
<path d="M4345 4020 c-24 -27 -14 -172 14 -211 18 -24 19 -29 6 -37 -11 -6
-14 -17 -9 -40 5 -26 11 -32 33 -32 14 1 44 7 66 15 22 8 48 15 58 15 36 0 6
-18 -62 -39 -39 -12 -73 -26 -77 -32 -4 -7 0 -9 14 -5 11 4 29 9 39 11 10 2
29 7 43 12 14 6 44 8 68 5 23 -2 42 0 42 4 0 31 -24 151 -42 212 -23 78 -67
131 -111 133 -12 0 -32 2 -44 3 -13 2 -30 -5 -38 -14z"/>
<path d="M1002 4011 c2 -10 -2 -15 -12 -12 -35 10 -65 5 -66 -9 0 -8 -5 -26
-11 -40 -19 -47 -45 -181 -46 -243 -2 -49 1 -61 12 -59 30 6 61 -8 61 -28 0
-22 -12 -25 -41 -10 -13 8 -19 7 -19 0 0 -6 -7 -18 -15 -26 -22 -22 -18 -34 9
-34 40 0 86 -12 86 -22 0 -6 -17 -8 -37 -6 -23 3 -47 -1 -60 -10 l-23 -14 21
-29 c11 -16 17 -29 13 -29 -4 0 1 -9 11 -20 14 -16 16 -23 7 -32 -22 -22 -12
-28 54 -28 41 0 63 -4 59 -10 -3 -5 -26 -10 -50 -10 -52 0 -113 -21 -80 -27
54 -10 67 -14 61 -20 -3 -4 -23 -8 -43 -10 -19 -1 -37 -4 -38 -5 -1 -2 0 -29
2 -60 4 -41 10 -58 20 -58 11 0 11 -4 3 -20 -8 -15 -8 -18 4 -14 9 3 16 -4 20
-20 6 -25 10 -26 71 -26 37 0 65 -4 65 -10 0 -5 5 -10 11 -10 5 0 8 4 5 9 -4
5 -2 11 3 13 6 1 13 22 17 46 5 34 4 42 -9 42 -8 0 -17 -7 -21 -15 -3 -8 -13
-15 -21 -15 -9 0 -13 5 -10 10 4 6 -7 10 -27 10 l-33 1 24 19 c13 11 36 20 51
20 29 0 43 19 34 45 -4 8 -12 15 -19 15 -7 0 -18 6 -24 14 -9 11 -7 15 12 20
23 5 24 9 16 48 -6 34 -4 46 7 55 19 14 15 142 -4 166 -16 19 1 67 23 67 13 0
14 4 4 23 -7 12 -18 26 -25 30 -21 12 -16 33 11 45 36 17 49 97 14 90 -6 -2
-13 2 -16 9 -2 7 7 13 24 15 28 3 27 3 -17 30 -25 15 -66 38 -92 53 -46 24
-62 45 -35 45 7 0 35 -15 63 -33 58 -38 80 -48 88 -40 3 4 -13 18 -36 32 -23
13 -37 26 -31 28 11 4 59 -7 94 -21 12 -5 18 -1 22 15 8 28 -5 45 -41 53 -15
3 -44 10 -65 15 -32 8 -37 7 -35 -8z"/>
<path d="M3554 3945 c-27 -19 -54 -35 -59 -35 -19 0 -33 -21 -28 -41 3 -12 14
-19 29 -19 28 0 40 -16 18 -24 -15 -6 -15 -8 3 -24 10 -9 17 -25 15 -34 -4
-20 23 -36 58 -36 14 0 58 -3 97 -7 84 -9 103 0 95 43 -7 35 -40 80 -65 88
-15 5 -16 8 -7 14 18 11 -4 64 -38 90 -35 28 -62 25 -118 -15z"/>
<path d="M3306 3878 c-9 -12 -16 -28 -16 -34 0 -6 -6 -17 -14 -23 -8 -7 -17
-24 -21 -38 -3 -15 -15 -33 -26 -41 -23 -16 -22 -60 3 -107 8 -16 19 -41 23
-55 10 -32 74 -110 90 -110 9 0 35 39 35 54 0 2 -15 7 -32 11 l-33 8 40 7 c22
4 43 6 48 3 4 -2 7 5 7 16 0 12 6 21 13 21 15 0 67 93 67 121 0 11 -13 34 -29
49 -16 16 -28 37 -27 47 1 15 -6 18 -39 15 -22 -1 -51 -4 -65 -7 -22 -4 -22
-3 5 10 17 8 42 14 58 15 31 0 33 7 11 38 -10 15 -25 22 -49 22 -24 0 -39 -7
-49 -22z"/>
<path d="M3943 3886 c-12 -7 -37 -24 -54 -39 -32 -26 -32 -27 -14 -47 10 -11
31 -20 47 -20 37 0 36 -19 -1 -33 -30 -11 -41 -31 -41 -79 0 -18 5 -28 15 -28
25 0 17 -17 -17 -37 -18 -11 -40 -33 -48 -49 -8 -16 -22 -40 -32 -53 -10 -13
-18 -35 -18 -49 0 -13 -12 -36 -26 -51 -44 -44 -174 -263 -274 -461 -10 -20
-34 -59 -54 -89 -20 -29 -44 -69 -53 -90 -9 -20 -20 -38 -24 -41 -3 -3 -22
-33 -40 -68 -62 -115 -75 -138 -97 -169 -12 -17 -22 -34 -22 -37 0 -13 -79
-114 -105 -134 -15 -12 -47 -24 -73 -27 -26 -4 -83 -12 -127 -19 l-80 -12 -1
-32 c-1 -18 3 -32 8 -32 4 0 8 -9 8 -20 0 -11 7 -23 15 -27 9 -3 39 -27 67
-54 28 -26 63 -51 79 -54 18 -4 26 -11 22 -20 -3 -9 5 -19 21 -26 14 -7 26
-15 26 -18 0 -4 10 -18 23 -31 12 -14 23 -32 25 -40 2 -8 7 -17 11 -20 25 -17
73 -106 92 -170 12 -41 31 -87 41 -102 28 -41 99 -86 160 -102 29 -8 69 -20
88 -26 59 -18 120 -28 125 -19 6 9 -33 96 -46 105 -5 3 -9 -1 -9 -8 0 -8 -5
-7 -17 5 -9 9 -17 29 -18 44 0 17 -6 28 -14 28 -8 0 -14 15 -16 43 -3 42 -3
43 17 30 12 -8 33 -43 47 -79 33 -84 42 -96 66 -101 11 -1 25 -10 32 -18 19
-25 24 -5 8 33 -15 37 -29 52 -19 20 4 -10 -5 -4 -19 12 -25 29 -44 81 -34 91
3 3 18 -14 35 -38 30 -44 72 -87 72 -74 0 4 -5 17 -11 29 -6 13 2 7 20 -13 17
-19 31 -29 31 -22 0 7 5 10 10 7 14 -8 13 8 -1 22 -14 14 -4 47 11 38 14 -9 1
24 -27 65 -27 41 -28 50 -8 50 24 0 18 18 -21 66 -43 52 -38 56 17 12 34 -27
39 -36 34 -60 -6 -25 3 -37 79 -115 89 -90 126 -108 61 -29 -44 54 -31 60 24
11 38 -35 59 -45 45 -24 -3 6 -1 15 7 19 19 12 -7 58 -48 82 -34 21 -48 44
-30 51 7 2 -7 10 -30 16 -23 6 -45 16 -48 21 -4 6 -10 8 -15 5 -14 -9 -50 13
-50 30 0 21 17 27 40 15 12 -6 28 -10 36 -8 13 2 11 10 -9 40 -14 20 -23 39
-19 42 15 16 40 2 62 -34 14 -22 30 -40 36 -40 7 0 14 -10 17 -22 4 -12 9 -19
13 -15 4 4 20 -4 35 -19 16 -15 29 -22 33 -15 4 5 14 7 23 4 12 -5 9 8 -14 50
-30 55 -30 58 -12 67 10 6 19 15 19 21 0 6 -4 7 -10 4 -5 -3 -10 0 -10 6 0 7
-17 30 -37 51 -34 35 -36 39 -23 63 18 33 35 26 34 -12 -1 -19 5 -34 18 -42
26 -16 41 -5 27 21 -10 18 -8 19 13 13 12 -5 39 -18 58 -31 38 -26 59 -31 41
-11 -8 11 -5 19 14 37 36 33 31 48 -21 70 -25 11 -58 30 -73 41 l-26 21 25 -7
c14 -4 30 -11 36 -16 6 -5 31 -11 55 -14 41 -5 43 -5 24 9 -20 15 -20 15 3 16
13 0 20 4 17 10 -4 6 -11 8 -16 5 -5 -4 -9 0 -9 7 -1 7 -32 33 -71 57 -38 24
-68 46 -65 48 9 9 67 -18 119 -55 27 -18 51 -31 55 -28 3 3 2 6 -1 6 -4 0 3
11 15 25 12 15 28 54 35 88 l13 62 -52 47 c-32 29 -47 48 -37 48 9 0 27 -11
40 -23 13 -13 37 -32 53 -42 l29 -19 -17 32 c-9 18 -21 30 -26 27 -5 -3 -11
-1 -15 5 -3 6 4 10 16 10 21 0 21 1 6 18 -23 26 -21 35 5 21 32 -17 146 6 240
50 68 32 79 40 84 67 4 20 -1 49 -14 80 -22 52 -36 104 -33 117 0 4 -16 15
-36 24 -37 16 -37 16 -13 23 25 6 25 6 4 20 -13 8 -19 20 -17 31 6 20 -52 152
-73 170 -8 6 -14 22 -14 35 0 13 -9 28 -19 34 -33 17 -50 40 -44 56 4 10 -2
17 -16 21 -16 4 -20 10 -15 22 8 18 8 51 0 58 -3 3 -25 5 -48 5 -54 -1 -80 6
-72 20 4 6 27 7 60 3 l54 -6 0 29 c0 33 -17 42 -82 42 -51 0 -56 16 -6 19 52
3 57 6 51 31 -6 21 -11 22 -112 20 -43 -1 -61 2 -56 9 3 6 33 11 66 11 33 0
59 4 59 10 0 6 -28 10 -62 10 -37 1 -70 6 -80 14 -24 17 -23 26 3 26 11 0 17
-4 14 -10 -11 -17 111 -12 125 5 7 8 9 15 4 15 -5 1 2 7 16 15 14 8 21 14 16
15 -5 0 -3 6 3 14 13 16 17 87 7 105 -4 6 -17 11 -29 11 -20 1 -20 2 -4 11 10
6 17 22 17 41 l0 30 -55 -4 c-42 -4 -55 -2 -51 8 5 14 -37 5 -71 -15 -15 -8
-10 -10 25 -11 23 0 42 -4 42 -10 0 -5 -3 -10 -7 -10 -102 -7 -112 -5 -122 18
-15 32 -15 32 18 32 39 0 61 9 61 25 0 10 -13 13 -45 12 -51 -2 -59 9 -17 24
57 20 58 22 22 30 -19 4 -42 3 -52 -2 -29 -15 -34 -9 -9 11 25 22 9 25 -26 6z"/>
<path d="M2215 3833 c-14 -21 -25 -43 -25 -50 0 -7 -4 -13 -9 -13 -5 0 -11 -8
-15 -17 -3 -10 -10 -25 -15 -33 -6 -8 -38 -62 -71 -120 -177 -306 -230 -405
-224 -422 6 -19 -18 -61 -29 -53 -4 3 -3 0 2 -6 6 -7 51 -10 133 -8 l124 4 32
35 c22 24 31 42 28 58 -2 14 2 26 10 29 8 3 14 11 14 19 0 10 -16 14 -62 15
-80 1 -49 17 34 18 l56 1 41 65 c32 50 49 67 71 71 16 4 29 9 28 13 -3 27 5
41 23 41 15 0 19 -5 15 -15 -7 -20 14 -19 42 1 16 11 22 25 22 54 0 27 6 42
18 49 15 9 15 12 2 21 -8 6 -24 8 -35 6 -11 -3 -27 -1 -35 4 -12 8 -12 10 2
15 10 4 22 4 27 0 6 -3 26 -3 46 1 26 5 35 11 35 26 0 11 -8 22 -19 25 -33 8
-42 46 -20 82 10 17 19 37 19 44 0 6 9 23 20 37 11 14 20 28 20 33 0 4 -63 7
-140 7 l-139 0 -26 -37z"/>
<path d="M3522 3652 c-32 -34 -110 -169 -122 -211 -5 -18 -5 -33 1 -36 19 -12
7 -23 -33 -30 -75 -13 -109 -13 -283 -5 -215 9 -452 -7 -466 -32 -6 -10 -16
-15 -25 -11 -12 4 -15 0 -12 -14 1 -11 -4 -28 -12 -37 -25 -31 -29 -73 -11
-120 11 -28 12 -29 71 -23 44 5 60 3 60 -5 0 -7 7 -2 16 11 12 16 19 20 27 12
15 -15 44 -14 50 2 2 6 0 23 -5 35 -14 40 2 44 36 10 30 -30 34 -41 40 -110 4
-44 2 -105 -4 -145 -6 -38 -8 -98 -5 -135 l7 -68 44 0 c39 0 46 3 57 28 6 15
16 30 20 33 10 7 32 43 92 149 57 99 86 140 101 140 8 0 14 -4 14 -9 0 -4 -31
-61 -70 -125 -38 -65 -70 -119 -70 -120 0 -2 -40 -76 -90 -165 -49 -89 -90
-174 -90 -188 0 -13 -9 -32 -20 -41 -31 -27 -17 -67 31 -86 49 -20 131 -21
168 -2 32 17 87 96 151 221 26 50 83 149 127 221 45 72 102 171 128 220 54
104 95 177 104 184 16 13 55 105 53 126 -1 13 3 24 9 24 5 0 7 5 4 10 -3 6
-25 11 -48 11 -37 1 -36 2 17 9 45 6 64 13 77 31 24 31 24 39 -3 40 -22 1 -21
1 4 12 14 7 38 25 52 40 26 28 76 124 76 145 0 23 -41 32 -140 32 -99 0 -102
-1 -128 -28z"/>
<path d="M3027 3654 c-2 -2 -67 -4 -143 -5 l-140 0 -50 -38 c-36 -28 -48 -43
-46 -59 2 -14 -2 -22 -11 -22 -8 0 -20 -14 -27 -30 -20 -48 2 -57 155 -64 194
-9 468 -2 473 12 2 7 13 12 24 12 19 0 20 2 6 18 -8 9 -27 43 -41 74 -40 89
-63 108 -136 107 -33 -1 -62 -3 -64 -5z"/>
<path d="M4587 3373 c-9 -15 -11 -58 -3 -71 10 -16 -10 -42 -33 -42 -14 0 -14
-2 -1 -10 21 -13 10 -19 -56 -29 l-59 -9 48 -1 c53 -1 62 -19 23 -45 -20 -12
-23 -21 -19 -48 5 -34 72 -203 128 -323 76 -164 90 -249 47 -288 -21 -19 -141
-87 -153 -87 -5 0 -27 -8 -49 -17 -42 -19 -57 -40 -40 -57 18 -18 10 -29 -19
-23 -15 3 -33 1 -39 -5 -15 -15 -3 -67 22 -92 l21 -21 -26 -3 c-16 -2 -30 -12
-37 -27 -11 -23 -9 -25 26 -30 20 -3 65 -15 100 -26 35 -10 67 -17 72 -14 5 3
11 19 15 35 10 48 50 72 221 135 122 44 164 103 164 225 0 52 -34 185 -71 275
-15 39 -50 126 -78 195 -27 69 -72 173 -100 232 -28 58 -51 113 -51 121 0 17
-46 61 -53 50z"/>
<path d="M1838 3043 c0 -10 -2 -25 -2 -33 -2 -20 16 -50 30 -50 7 0 14 -10 17
-22 6 -20 10 -18 61 30 30 29 58 52 61 52 9 0 -36 -73 -54 -86 -8 -6 -11 -16
-8 -21 9 -14 76 9 92 31 7 9 21 14 33 11 33 -6 47 27 28 64 -9 16 -21 31 -29
34 -7 3 -61 6 -120 6 -96 1 -107 0 -109 -16z"/>
<path d="M2535 3000 c-4 -6 -10 -8 -15 -5 -13 8 -90 -95 -90 -121 0 -16 -9
-28 -29 -38 -16 -9 -45 -31 -64 -50 -45 -44 -83 -60 -174 -76 -40 -7 -73 -17
-73 -21 0 -5 -7 -6 -15 -3 -8 3 -31 0 -52 -7 -41 -13 -164 -85 -174 -102 -4
-5 -12 -6 -18 -3 -6 4 -11 3 -11 -2 0 -5 -24 -19 -53 -31 -63 -26 -108 -69
-101 -98 4 -13 0 -23 -11 -27 -14 -5 -16 -2 -11 19 8 31 -10 33 -36 3 -14 -17
-16 -23 -6 -30 10 -6 9 -8 -4 -8 -38 0 35 -124 85 -143 10 -4 16 -11 13 -15
-3 -5 9 -26 28 -46 l33 -37 17 23 c16 23 17 23 13 -17 -4 -32 2 -51 29 -95 18
-31 38 -67 43 -80 6 -14 15 -32 20 -40 5 -8 17 -32 26 -52 27 -64 46 -65 91
-2 21 29 45 54 53 54 10 0 11 -3 3 -13 -7 -8 -7 -18 -2 -27 12 -19 3 -30 -25
-30 -26 0 -29 -7 -40 -85 -5 -37 -5 -38 9 -20 15 19 15 19 16 1 0 -28 30 -46
52 -33 26 17 30 4 13 -36 -10 -25 -12 -38 -4 -43 6 -3 15 -1 19 6 4 6 10 10
14 8 8 -4 41 51 50 83 5 17 2 15 -12 -9 -16 -29 -20 -31 -31 -19 -10 12 -8 22
8 52 13 24 18 48 14 69 -3 23 1 38 16 56 l21 25 -12 -34 c-8 -25 -8 -39 0 -51
6 -10 8 -28 6 -41 -5 -23 -5 -23 10 -5 24 29 21 2 -9 -79 -13 -38 -23 -70 -21
-72 1 -2 15 10 29 27 15 16 36 30 47 30 13 0 22 9 26 25 3 14 12 25 20 25 17
0 18 34 2 60 -11 17 -9 27 10 63 13 23 19 43 14 45 -5 1 -18 9 -28 17 -18 14
-18 14 7 15 16 0 30 7 34 18 6 16 7 16 16 0 7 -13 22 -18 54 -18 24 0 46 4 49
9 8 12 35 8 44 -6 4 -5 26 -12 50 -16 39 -5 42 -3 42 18 0 13 5 27 10 30 6 4
10 -9 10 -33 0 -25 7 -45 19 -56 10 -9 21 -31 25 -47 3 -17 10 -28 16 -24 5 3
10 -2 10 -12 0 -15 2 -15 14 3 8 11 18 33 21 47 7 28 25 37 25 13 0 -8 3 -23
6 -33 5 -15 4 -15 -5 -3 -9 13 -11 13 -11 -2 0 -10 4 -18 10 -18 5 0 8 -6 5
-12 -2 -7 9 -23 24 -35 28 -22 28 -22 49 -3 23 22 52 27 52 9 0 -6 6 -9 13 -6
6 2 11 10 10 16 -2 6 1 11 6 11 15 0 23 -35 15 -65 -7 -29 18 -65 46 -65 9 0
21 -5 27 -11 8 -8 14 -1 24 24 11 32 14 34 25 19 8 -9 14 -25 14 -34 0 -12 8
-18 21 -18 20 0 21 4 15 53 -5 39 -4 48 5 37 9 -12 10 -12 4 5 -10 30 -68 104
-87 110 -10 4 -18 13 -18 21 0 21 -72 64 -87 52 -19 -15 -33 0 -33 38 0 26 -4
34 -18 34 -10 0 -22 4 -28 9 -5 5 -25 18 -46 29 l-36 21 -6 -25 c-8 -32 -26
-31 -26 2 0 23 -3 25 -24 20 -14 -3 -27 -2 -30 2 -9 14 12 35 28 29 9 -4 16
-2 16 3 0 6 -4 10 -10 10 -5 0 -10 5 -10 10 0 11 -9 23 -40 57 -10 11 -14 31
-11 62 5 52 4 163 -1 201 -2 14 -18 53 -36 87 -36 70 -43 145 -17 179 8 10 15
24 15 31 0 7 11 37 25 67 14 30 25 65 25 78 0 13 4 28 9 34 15 15 16 47 3 72
-9 16 -22 22 -47 22 -18 0 -37 -5 -40 -10z"/>
<path d="M18 2822 c-17 -3 -18 -42 -18 -653 0 -357 2 -649 5 -649 2 0 37 16
76 35 39 19 88 37 108 41 20 4 44 11 54 16 10 5 31 12 45 14 15 3 31 9 37 13
5 5 35 14 65 21 72 16 194 56 247 80 46 22 56 35 84 118 22 68 24 108 5 128
-8 8 -18 39 -21 69 -4 30 -12 55 -17 55 -5 0 -6 5 -2 12 4 6 3 9 -2 6 -5 -3
-18 -2 -28 1 -17 7 -15 10 16 29 39 24 46 52 14 52 -12 0 -34 12 -49 25 -23
20 -26 28 -17 44 5 11 18 22 29 26 26 8 59 45 40 45 -11 0 -11 2 1 10 13 8 12
10 -4 10 -13 0 -16 5 -12 16 5 14 1 15 -29 10 -19 -4 -35 -5 -35 -2 0 3 20 17
45 32 51 29 61 43 15 19 -16 -9 -30 -11 -30 -6 0 10 83 61 100 61 6 0 23 12
38 26 l27 26 -27 -4 c-42 -8 -55 7 -19 23 17 8 31 18 31 22 0 5 -5 5 -11 2 -6
-4 -27 -8 -47 -10 -20 -1 -57 -6 -82 -10 -30 -4 -40 -3 -31 3 11 8 10 11 -5
15 -16 4 -17 5 -1 6 9 0 17 5 17 9 0 13 47 32 78 32 17 0 43 15 72 40 24 22
48 40 52 40 4 0 8 5 8 10 0 13 -67 13 -74 1 -4 -5 0 -11 6 -14 28 -10 -10 -28
-53 -25 l-44 3 27 14 c22 11 25 17 17 32 -9 17 -23 19 -145 19 -115 0 -141 3
-174 20 -22 11 -54 20 -72 20 -25 0 -29 3 -18 10 11 7 1 10 -35 11 -107 4
-241 4 -257 1z"/>
<path d="M1403 2313 c-13 -8 -23 -22 -23 -31 0 -8 -7 -23 -15 -32 -13 -14 -12
-22 7 -72 18 -49 22 -55 35 -43 14 14 43 10 43 -6 0 -4 -9 -13 -20 -19 -11 -6
-20 -19 -20 -29 0 -10 32 -63 71 -117 40 -54 84 -123 99 -154 99 -199 112
-447 42 -780 -12 -52 -30 -147 -42 -210 -12 -63 -30 -156 -41 -207 -42 -190
-25 -213 168 -225 189 -11 1880 -1 1918 12 48 16 61 55 74 210 6 76 -8 149
-44 227 -8 17 -15 40 -15 52 0 12 -4 21 -10 21 -5 0 -10 7 -10 15 0 8 -6 15
-12 15 -7 0 -20 15 -28 33 -11 23 -23 33 -44 35 -16 2 -32 -2 -37 -10 -5 -7
-8 -51 -7 -98 2 -155 -19 -247 -61 -269 -14 -8 -1360 -18 -1557 -12 -48 2 -74
33 -74 91 0 26 4 70 10 97 27 137 41 265 34 319 -7 58 -25 91 -43 79 -12 -7
-41 33 -41 56 0 9 -7 19 -15 23 -22 8 -19 32 9 73 26 38 25 59 -7 84 -19 15
-19 18 -3 49 20 41 20 40 -6 40 -20 0 -20 1 -4 19 10 11 31 25 47 32 17 6 26
15 20 18 -16 10 -1 51 18 51 15 0 16 8 9 78 -4 42 -12 93 -18 114 -15 52 -94
187 -120 205 -25 17 -30 13 -76 -51 -27 -39 -28 -3 -1 45 15 27 27 57 27 68 0
23 -98 128 -127 136 -14 4 -23 2 -23 -4 0 -6 -7 -11 -16 -11 -13 0 -13 4 2 29
17 29 17 30 -7 50 -29 24 -37 25 -66 4z"/>
<path d="M1145 2052 c-47 -26 -64 -51 -38 -59 6 -2 27 10 47 28 20 17 39 29
43 25 9 -9 -27 -46 -62 -63 -16 -8 -47 -31 -67 -50 -37 -36 -68 -40 -68 -8 0
18 -12 19 -28 3 -10 -10 -15 -10 -22 2 -8 12 -10 12 -10 -4 0 -11 -8 -29 -19
-40 -10 -12 -26 -46 -36 -76 -18 -59 -68 -134 -115 -173 -29 -25 -139 -62
-270 -91 -106 -24 -206 -55 -268 -82 -29 -13 -59 -24 -66 -24 -7 0 -19 -7 -26
-15 -7 -8 -16 -13 -20 -10 -4 3 -22 -17 -39 -43 -17 -27 -42 -59 -56 -72 l-25
-23 0 -639 0 -638 2193 0 c1205 0 2198 4 2204 8 8 5 -11 13 -48 21 -33 6 -75
21 -92 31 -18 11 -42 20 -54 20 -30 0 -129 56 -170 96 -7 7 -16 14 -20 16 -11
4 -53 87 -53 104 0 8 -21 59 -47 114 -44 95 -48 100 -77 100 -27 -1 -34 -7
-55 -53 -40 -87 -66 -115 -123 -132 -45 -13 -183 -15 -1052 -15 -634 0 -1014
4 -1037 10 -20 6 -53 25 -74 43 -58 50 -59 111 -5 397 143 758 122 952 -134
1218 -31 32 -59 52 -72 52 -30 0 -55 10 -49 20 3 5 -4 6 -14 3 -12 -3 -20 1
-23 11 -2 13 -11 11 -53 -12z"/>
<path d="M2437 1833 c-3 -16 1 -32 9 -40 8 -8 14 -21 14 -28 0 -20 -17 -27
-24 -10 -3 8 -12 15 -21 15 -21 0 -20 -73 2 -107 l18 -27 5 29 c3 15 11 30 18
33 15 5 16 -30 0 -46 -9 -9 -7 -13 5 -18 22 -8 36 2 31 24 -3 9 2 26 10 37 14
19 15 19 21 2 4 -9 0 -38 -8 -64 l-15 -46 34 -33 c19 -19 34 -42 34 -53 0 -11
3 -27 6 -35 5 -14 9 -14 22 -4 12 10 16 10 19 1 3 -7 8 -13 13 -13 4 0 6 27 3
60 -5 55 -4 60 14 60 16 0 19 5 15 25 -2 15 -11 25 -22 25 -9 0 -30 18 -45 40
-15 22 -30 38 -33 36 -2 -3 -12 -1 -22 4 -11 6 -19 26 -22 57 -8 73 -23 103
-52 103 -18 0 -25 -7 -29 -27z"/>
<path d="M4275 1490 c-3 -5 0 -10 7 -10 8 0 6 -5 -4 -11 -10 -5 -18 -19 -18
-30 0 -12 -4 -17 -11 -14 -14 10 -39 -26 -33 -47 3 -12 0 -18 -9 -18 -11 0
-13 -7 -9 -22 5 -23 5 -23 -16 -4 -22 19 -26 16 -22 -18 1 -15 -3 -18 -20 -13
-15 4 -20 2 -16 -8 7 -18 -28 -47 -48 -39 -12 5 -18 -1 -22 -25 -6 -28 -8 -29
-26 -17 -11 8 -27 29 -36 47 -15 30 -22 34 -64 37 l-47 3 5 -38 c5 -35 4 -36
-9 -20 -15 18 -15 18 -19 0 -2 -14 -8 -9 -25 20 -17 27 -29 37 -48 37 -18 0
-25 -5 -25 -20 0 -25 -9 -25 -26 -2 -12 15 -13 14 -14 -11 0 -41 -30 -32 -53
16 -10 20 -24 38 -30 38 -30 4 -56 8 -102 19 -27 6 -76 14 -108 17 l-58 5 4
-27 c4 -32 112 -155 136 -155 9 0 32 -14 51 -30 19 -16 39 -30 44 -30 5 0 22
-13 38 -30 15 -16 32 -30 37 -30 4 0 20 -18 35 -40 14 -22 31 -40 36 -40 5 0
21 17 35 39 27 39 72 61 131 61 40 0 183 26 217 39 16 6 40 11 54 11 95 0 263
183 237 259 -5 14 -15 27 -22 27 -6 1 -16 2 -21 3 -4 0 -21 13 -37 29 -51 47
-62 54 -69 42z"/>
<path d="M2311 1363 c0 -7 -12 -22 -25 -35 -13 -13 -33 -54 -45 -95 -15 -52
-26 -73 -38 -73 -13 0 -15 9 -9 57 4 31 9 69 11 83 3 14 -3 2 -14 -26 -10 -28
-24 -61 -31 -74 -20 -38 -31 -9 -22 58 5 34 5 62 0 62 -4 0 -8 -6 -8 -12 0
-13 -20 -32 -86 -83 -45 -36 -72 -100 -89 -215 -2 -14 -8 -59 -15 -100 -19
-125 -21 -164 -11 -179 7 -10 51 -16 177 -21 213 -8 612 -6 622 4 4 4 10 44
13 89 l6 82 1 -82 c1 -45 7 -85 12 -88 14 -8 467 -8 535 0 50 7 55 10 67 42
19 46 7 145 -24 203 -24 46 -36 55 -81 65 -15 3 -25 10 -22 16 18 29 -98 96
-181 104 -32 3 -78 11 -101 17 -35 9 -45 8 -58 -6 -9 -9 -23 -16 -31 -16 -8 0
-24 -9 -36 -20 -12 -11 -30 -20 -39 -20 -10 0 -24 -3 -32 -6 -11 -4 -17 3 -22
24 -5 25 -13 31 -43 37 -49 9 -90 53 -94 102 -2 29 -7 38 -20 37 -10 -1 -18 4
-18 12 0 30 -29 13 -32 -18 -4 -44 -21 -39 -32 9 -14 60 -39 67 -49 13 -4 -16
-12 -30 -19 -30 -7 0 -21 -18 -31 -40 -12 -26 -25 -40 -38 -40 -16 0 -19 7
-19 53 0 29 -4 57 -9 63 -5 5 -11 20 -14 34 -2 14 -5 20 -6 13z"/>
</g>
</svg>
