<?xml version="1.0" standalone="no"?>
<!DOCTYPE svg PUBLIC "-//W3C//DTD SVG 20010904//EN"
 "http://www.w3.org/TR/2001/REC-SVG-20010904/DTD/svg10.dtd">
<svg version="1.0" xmlns="http://www.w3.org/2000/svg"
 width="544.000000pt" height="544.000000pt" viewBox="0 0 544.000000 544.000000"
 preserveAspectRatio="xMidYMid meet">
<metadata>
Created by potrace 1.16, written by Peter Selinger 2001-2019
</metadata>
<g transform="translate(0.000000,544.000000) scale(0.100000,-0.100000)"
fill="#000000" stroke="none">
<path d="M0 2720 l0 -2720 2720 0 2720 0 0 2720 0 2720 -2720 0 -2720 0 0
-2720z m3040 2632 c19 -6 85 -22 147 -36 261 -61 535 -190 753 -356 176 -134
388 -372 485 -545 69 -124 89 -164 125 -254 56 -140 87 -267 105 -436 32 -299
31 -298 91 -442 31 -76 74 -174 95 -219 21 -45 39 -85 39 -89 0 -4 7 -21 15
-38 34 -75 95 -244 111 -308 20 -83 15 -212 -11 -276 -9 -24 -33 -57 -52 -73
-33 -29 -145 -90 -166 -90 -28 0 -126 -54 -135 -75 -18 -39 -63 -307 -88 -520
-10 -85 -36 -219 -50 -264 -62 -186 -209 -284 -499 -331 -75 -12 -124 -25
-130 -34 -6 -8 -17 -45 -24 -83 -7 -37 -21 -111 -31 -163 -10 -52 -23 -126
-30 -165 -28 -158 -68 -214 -162 -235 -38 -8 -334 -10 -1059 -8 l-1005 3 -42
27 c-56 37 -75 78 -74 154 0 59 32 261 51 334 11 39 48 251 56 320 4 25 10 72
15 105 32 202 -8 452 -92 569 -16 23 -36 52 -45 66 -9 14 -42 54 -73 90 -231
267 -360 461 -448 670 -111 267 -152 476 -152 779 0 173 16 319 49 446 37 141
85 282 118 350 60 121 125 247 133 255 5 5 69 91 115 155 43 60 189 208 280
284 174 146 434 287 669 362 84 27 223 58 336 74 109 16 523 14 580 -3z"/>
<path d="M2480 5275 c-207 -27 -467 -108 -620 -193 -36 -20 -81 -44 -101 -53
-33 -15 -137 -84 -149 -98 -3 -4 -17 -14 -32 -24 -42 -27 -171 -141 -235 -209
-32 -33 -64 -67 -71 -74 -6 -7 -12 -15 -12 -18 0 -3 -11 -17 -24 -31 -13 -14
-41 -53 -63 -86 -21 -33 -48 -74 -60 -92 -12 -17 -36 -59 -53 -92 -18 -33 -36
-64 -40 -70 -31 -38 -120 -314 -151 -470 -26 -127 -36 -420 -20 -555 17 -146
68 -354 103 -420 10 -19 18 -42 18 -51 0 -21 140 -299 150 -299 4 0 11 -11 14
-24 3 -14 32 -58 64 -98 32 -40 69 -87 83 -104 13 -17 78 -97 143 -179 179
-223 215 -306 236 -549 9 -105 -9 -311 -39 -461 -11 -55 -22 -116 -25 -135 -7
-45 -41 -224 -61 -320 -8 -41 -15 -87 -15 -102 0 -32 38 -62 90 -72 63 -12
1983 -7 2019 5 52 18 65 60 116 384 38 241 58 278 153 290 221 26 243 31 338
76 144 69 196 157 225 379 10 74 25 187 34 250 9 63 21 149 26 190 13 104 37
191 57 213 21 24 98 61 179 86 68 20 136 68 157 110 43 83 27 212 -51 401 -30
74 -65 162 -78 195 -12 33 -52 126 -88 207 -86 192 -94 224 -117 445 -21 205
-31 264 -57 351 -9 31 -18 62 -19 69 -1 7 -9 27 -18 44 -9 18 -16 36 -16 42 0
5 -21 53 -47 106 -74 152 -182 310 -317 461 -103 116 -320 281 -477 362 -246
126 -419 183 -634 207 -164 19 -392 21 -515 6z m510 -236 c159 -27 217 -43
356 -99 126 -51 317 -161 434 -253 91 -71 300 -284 300 -305 0 -6 16 -33 36
-59 65 -87 157 -267 178 -345 8 -29 18 -64 24 -78 18 -47 33 -155 47 -337 16
-214 29 -258 181 -600 8 -17 14 -34 14 -37 0 -4 20 -48 44 -99 88 -185 104
-262 65 -311 -22 -28 -91 -76 -109 -76 -6 0 -29 -8 -53 -19 -23 -10 -57 -24
-75 -31 -41 -16 -79 -60 -91 -108 -9 -34 -28 -164 -66 -437 -8 -60 -18 -126
-21 -145 -2 -19 -11 -79 -19 -134 -20 -131 -60 -194 -150 -232 -99 -42 -313
-34 -526 20 -225 57 -362 94 -409 110 -47 15 -132 41 -235 71 -212 61 -288
113 -375 255 -41 68 -56 80 -94 80 -41 0 -55 -11 -65 -46 -16 -60 32 -221 79
-264 3 -3 16 -20 29 -38 30 -43 143 -128 189 -142 20 -6 46 -15 57 -20 33 -14
146 -48 220 -65 65 -15 154 -44 200 -64 210 -94 268 -144 304 -259 19 -62 22
-90 19 -187 -3 -110 -4 -116 -31 -142 l-27 -28 -790 0 -789 0 -23 22 c-22 22
-22 24 -10 135 7 62 25 196 42 298 44 274 42 505 -6 670 -53 178 -125 306
-256 450 -176 194 -273 327 -342 467 -36 73 -66 136 -66 140 0 5 -8 24 -19 43
-10 19 -28 73 -39 120 -79 322 -68 701 27 990 35 104 179 385 211 410 3 3 33
39 65 80 68 86 179 197 245 243 25 17 58 43 73 57 46 41 314 190 342 190 4 0
30 11 60 25 44 21 157 50 355 91 51 10 227 20 300 16 41 -2 127 -12 190 -23z"/>
<path d="M2536 4952 c-3 -3 -27 -6 -53 -8 -27 -1 -61 -8 -78 -15 -16 -7 -34
-11 -39 -10 -4 1 -5 -15 -2 -36 l7 -38 -22 33 c-16 25 -27 32 -43 29 -42 -10
-219 -77 -232 -88 -8 -6 -14 -8 -14 -3 0 4 -10 -2 -22 -13 -13 -11 -34 -24
-47 -28 -78 -24 -355 -232 -395 -296 -15 -25 -14 -27 5 -45 12 -11 30 -32 42
-49 14 -21 6 -16 -30 18 l-50 49 -37 -44 c-75 -90 -116 -143 -116 -152 0 -5
-6 -17 -13 -25 -7 -9 -19 -34 -26 -56 -8 -22 -19 -43 -25 -47 -8 -5 -7 -14 2
-29 13 -20 12 -21 -8 -16 -23 6 -27 -2 -84 -140 -25 -62 -25 -62 -5 -77 22
-15 11 -30 -15 -20 -12 4 -16 0 -16 -16 0 -12 -5 -30 -10 -41 -9 -16 -6 -22
25 -40 44 -26 44 -33 1 -25 -22 4 -37 2 -43 -6 -15 -19 -26 -108 -27 -228 l-1
-104 45 -11 45 -10 -48 -3 -48 -3 6 -77 c4 -42 8 -83 10 -89 3 -9 29 -13 77
-14 l73 -2 -70 -11 c-62 -10 -70 -14 -73 -34 -5 -33 35 -159 53 -165 8 -4 46
1 86 9 39 8 74 13 76 10 5 -5 -31 -15 -112 -33 -65 -14 -63 -23 48 -248 43
-88 56 -110 75 -130 10 -11 21 -28 25 -37 5 -14 11 -16 32 -8 28 10 33 -1 10
-20 -16 -13 -10 -30 22 -65 10 -11 36 -42 58 -69 22 -28 53 -64 70 -80 72 -74
185 -220 185 -241 0 -4 11 -21 24 -38 20 -26 45 -73 51 -97 8 -35 39 -111 46
-115 5 -4 9 -16 9 -27 l0 -21 23 21 c35 33 39 27 15 -23 -21 -43 -22 -48 -9
-138 28 -184 19 -345 -40 -781 -10 -74 -9 -80 11 -100 20 -20 32 -21 343 -26
177 -3 338 -3 358 -2 32 3 36 6 33 30 -4 26 -3 26 4 3 8 -27 43 -44 54 -27 4
6 9 61 10 121 l1 110 6 -112 c3 -61 9 -115 13 -118 6 -7 364 -6 463 0 22 1 56
3 76 4 51 1 71 35 72 118 1 49 -5 76 -28 122 -26 55 -31 60 -68 67 -36 6 -39
8 -24 19 21 15 22 25 2 25 -8 0 -15 4 -15 9 0 12 -122 65 -210 91 -41 13 -115
36 -165 51 -79 26 -91 27 -101 14 -15 -21 -22 -19 -26 7 -2 15 -15 25 -43 35
-111 37 -218 110 -280 191 l-33 42 -21 -27 -22 -28 6 41 c5 33 -1 59 -31 135
-30 76 -37 108 -38 165 0 62 3 76 26 106 40 53 80 67 156 58 73 -9 84 -17 157
-115 29 -38 65 -83 82 -100 35 -36 136 -87 218 -110 33 -10 92 -26 130 -37 39
-11 79 -24 90 -28 11 -4 47 -15 80 -25 80 -22 190 -54 244 -72 97 -31 240 -66
306 -75 121 -17 267 7 317 51 31 28 31 63 -3 117 -26 43 -21 53 11 19 46 -49
48 -22 4 44 -31 46 -23 51 14 9 17 -18 33 -30 36 -27 10 10 -14 76 -34 94 -11
10 -20 23 -20 28 0 6 10 1 23 -11 42 -40 49 -30 61 83 3 22 10 73 16 114 l12
73 -43 44 c-48 49 -45 57 7 18 41 -31 53 -27 28 11 -16 25 -16 26 4 32 17 4
22 13 22 39 0 28 17 106 35 165 4 11 -6 31 -26 53 -34 40 -32 45 8 19 25 -17
27 -17 37 2 22 39 69 75 149 115 45 22 85 39 88 38 11 -5 51 35 60 59 5 15 0
46 -17 100 -33 102 -36 105 -70 122 l-29 15 25 6 25 6 -22 12 c-13 7 -19 18
-17 29 4 15 -56 164 -141 349 -8 18 -20 55 -27 83 -10 46 -14 51 -39 51 -38 0
-45 16 -10 23 34 7 33 -12 10 232 -6 66 -11 127 -11 137 0 9 -10 19 -25 23
-23 5 -24 7 -8 18 15 12 16 17 0 75 -17 69 -44 132 -56 132 -4 0 -20 -5 -36
-11 l-28 -10 28 29 29 30 -23 51 -23 50 -54 -31 c-29 -16 -55 -28 -58 -25 -2
2 16 21 41 41 51 43 55 62 20 104 -14 17 -25 35 -25 41 0 6 -4 11 -10 11 -5 0
-10 6 -10 13 0 8 -12 24 -26 38 -14 13 -34 38 -46 56 -31 51 -49 56 -84 25
-16 -15 -38 -34 -48 -42 -18 -14 -19 -14 -8 5 6 11 26 36 45 55 l34 35 -45 48
c-25 26 -52 47 -59 47 -8 0 -16 6 -19 13 -3 8 -19 24 -35 36 l-31 23 -29 -28
c-33 -32 -37 -26 -12 17 15 26 16 31 3 39 -8 5 -18 6 -22 4 -4 -3 -8 1 -8 8 0
16 -65 57 -208 129 -78 40 -105 50 -111 40 -6 -9 -10 -7 -13 7 -7 26 -88 46
-101 25 -12 -19 -27 -16 -27 5 0 21 -36 40 -62 34 -11 -2 -20 -17 -24 -40 -12
-67 -25 -71 -22 -7 l3 59 -55 14 c-30 7 -122 16 -204 19 l-149 6 6 -54 c6 -54
3 -51 -23 18 -11 28 -16 32 -50 31 -22 0 -41 -3 -44 -6z m316 -479 c6 -7 20
-13 30 -13 32 0 130 -111 172 -192 33 -65 38 -84 33 -120 -5 -43 -31 -105 -67
-163 -10 -16 -19 -36 -19 -44 -1 -8 -12 -28 -25 -45 -24 -32 -66 -117 -66
-134 0 -15 38 -22 113 -22 52 0 77 5 107 23 22 12 40 27 40 34 0 6 3 18 6 27
5 13 -3 16 -42 17 l-49 2 60 7 c46 6 63 13 75 31 24 36 102 111 149 143 40 28
50 30 160 34 95 4 124 1 149 -12 33 -17 82 -59 82 -70 0 -4 9 -17 21 -29 71
-77 110 -251 74 -333 -40 -91 -62 -134 -112 -215 -29 -48 -56 -95 -59 -105 -4
-11 -19 -35 -34 -54 -15 -19 -44 -66 -65 -105 -21 -38 -58 -106 -83 -150 -25
-44 -55 -98 -66 -120 -25 -46 -61 -105 -73 -120 -4 -5 -15 -23 -23 -40 -8 -16
-41 -76 -75 -133 -33 -56 -76 -130 -96 -165 -24 -42 -51 -72 -84 -95 -46 -31
-50 -32 -155 -32 -153 0 -194 19 -282 131 -49 61 -105 166 -113 210 -7 37 -2
48 92 223 14 25 19 44 13 50 -6 6 -1 14 13 20 25 13 61 81 53 102 -4 11 -30
14 -107 14 l-103 0 -44 -47 c-24 -27 -52 -64 -62 -84 -22 -42 -70 -87 -137
-126 -45 -26 -54 -28 -168 -28 -66 0 -132 3 -146 7 -74 21 -178 198 -187 317
-5 77 11 119 112 294 31 54 56 100 56 103 0 3 7 12 15 20 8 9 15 24 15 35 0
10 4 19 9 19 8 0 128 204 188 320 15 30 30 57 34 60 8 7 69 109 69 115 0 3 25
47 55 98 30 50 55 97 55 103 0 5 8 19 18 30 24 28 39 52 61 99 11 22 38 60 61
83 l42 44 148 -4 c102 -2 153 -7 162 -15z"/>
<path d="M2615 4423 c-11 -2 -29 -6 -41 -8 -21 -5 -53 -47 -101 -133 -14 -26
-29 -49 -33 -52 -11 -8 -90 -169 -90 -184 0 -8 -7 -16 -15 -20 -8 -3 -21 -18
-27 -33 -7 -15 -15 -30 -18 -33 -3 -3 -13 -19 -22 -36 -18 -31 -18 -32 5 -37
12 -3 58 -6 101 -6 43 0 81 -3 84 -6 3 -3 -44 -5 -104 -5 -101 -1 -110 -2
-125 -23 -32 -46 -249 -418 -327 -562 l-81 -150 31 -16 c43 -22 212 -24 245
-2 12 8 34 39 49 69 15 30 30 57 35 60 25 15 2 24 -61 24 -40 0 -70 4 -70 10
0 6 33 10 80 10 l80 0 30 59 c16 33 34 62 38 65 19 11 161 16 556 17 225 0
415 3 422 6 21 8 17 25 -18 93 -33 64 -98 143 -104 125 -2 -5 -25 -9 -51 -7
-27 2 -99 5 -161 7 -62 3 -121 9 -130 14 -10 5 -87 12 -172 16 -84 3 -157 8
-162 11 -13 8 -1 40 38 105 19 31 34 59 34 63 0 3 -12 6 -27 7 -16 0 -21 3
-13 6 42 14 44 17 10 24 -32 7 -31 8 11 5 43 -3 48 -1 62 28 29 55 75 134 112
188 19 29 35 58 35 64 0 7 15 34 33 60 52 76 80 145 65 160 -13 11 -165 25
-203 17z"/>
<path d="M2843 4313 c-22 -32 -58 -89 -80 -128 -23 -38 -53 -90 -67 -115 -210
-362 -196 -334 -177 -342 9 -4 65 -7 124 -7 l108 -1 33 33 c29 28 78 106 118
187 7 14 15 27 18 30 21 18 100 178 100 202 0 45 -65 165 -99 183 -17 8 -32
15 -34 15 -2 0 -22 -26 -44 -57z"/>
<path d="M3485 3995 c-5 -2 -22 -6 -37 -9 -37 -8 -37 -42 -2 -102 24 -41 29
-44 55 -39 18 4 29 2 29 -4 0 -6 -9 -11 -21 -11 -17 0 -19 -4 -13 -22 12 -38
36 -69 61 -79 14 -5 63 -9 111 -9 133 1 147 23 90 137 -56 110 -108 143 -218
142 -25 0 -49 -2 -55 -4z"/>
<path d="M3320 3900 c-17 -17 -30 -38 -30 -46 0 -21 -29 -75 -51 -97 -36 -34
-21 -125 33 -204 15 -23 28 -46 28 -51 0 -5 11 -17 25 -26 23 -15 25 -15 33 2
5 9 7 23 5 30 -3 6 2 12 11 12 9 0 16 5 16 11 0 6 -7 9 -15 5 -8 -3 -30 -2
-48 2 -29 6 -28 7 23 12 60 5 72 21 25 31 -33 7 -27 11 23 13 29 1 38 8 68 57
32 51 34 58 22 85 -27 63 -48 84 -86 86 l-37 1 33 4 c38 5 37 14 -1 70 -27 41
-40 41 -77 3z"/>
<path d="M3526 3660 c-26 -31 -119 -184 -137 -226 -11 -24 -29 -49 -40 -55
-14 -7 -131 -9 -371 -6 -287 4 -359 2 -392 -9 -33 -12 -56 -13 -138 -2 -53 6
-100 9 -104 6 -9 -10 78 -178 114 -220 11 -13 19 -15 33 -7 11 5 19 6 19 2 0
-19 60 -33 144 -33 121 0 164 -8 171 -31 7 -23 -14 -95 -32 -110 -7 -6 -13
-20 -13 -30 0 -11 -4 -19 -9 -19 -5 0 -19 -21 -31 -46 -12 -25 -32 -57 -44
-72 -12 -15 -37 -57 -54 -93 -30 -61 -32 -69 -22 -115 6 -27 29 -78 50 -112
51 -79 71 -80 115 -5 16 29 46 78 65 109 19 32 46 76 58 98 13 23 39 64 57 91
18 28 56 93 85 145 65 116 108 180 120 180 20 0 9 -35 -30 -97 -37 -57 -57
-91 -88 -149 -6 -11 -63 -108 -126 -216 -114 -193 -136 -236 -136 -262 0 -21
48 -33 137 -35 97 -2 130 11 164 66 63 100 82 133 114 200 20 40 40 75 45 78
5 3 23 33 40 66 17 34 37 68 45 76 8 8 31 47 51 86 19 40 48 92 64 117 16 25
29 51 29 58 1 7 14 32 29 55 16 23 43 68 61 100 17 32 38 65 46 74 22 21 18
43 -7 45 -95 7 -101 11 -23 17 66 6 70 7 80 36 5 16 20 40 33 54 27 30 81 137
84 170 4 33 -32 42 -150 39 -68 -2 -97 -7 -106 -18z"/>
<path d="M2233 3249 c-108 -169 -108 -167 -47 -274 39 -69 68 -105 83 -105 18
0 83 71 77 85 -3 8 6 21 19 29 15 10 27 30 31 53 4 21 9 42 12 48 13 21 -1 72
-34 128 -19 32 -34 61 -34 65 0 4 -10 20 -23 36 l-23 29 -61 -94z"/>
<path d="M1833 3053 c-21 -8 -15 -45 18 -102 l31 -54 54 54 c65 64 72 55 9
-12 -55 -59 -57 -80 -9 -109 27 -17 56 -24 124 -28 97 -5 150 8 150 37 0 17
-32 83 -83 169 l-31 52 -126 -1 c-69 0 -131 -3 -137 -6z"/>
</g>
</svg>
