<?xml version="1.0" standalone="no"?>
<!DOCTYPE svg PUBLIC "-//W3C//DTD SVG 20010904//EN"
 "http://www.w3.org/TR/2001/REC-SVG-20010904/DTD/svg10.dtd">
<svg version="1.0" xmlns="http://www.w3.org/2000/svg"
 width="544.000000pt" height="544.000000pt" viewBox="0 0 544.000000 544.000000"
 preserveAspectRatio="xMidYMid meet">
<metadata>
Created by potrace 1.16, written by Peter Selinger 2001-2019
</metadata>
<g transform="translate(0.000000,544.000000) scale(0.100000,-0.100000)"
fill="#000000" stroke="none">
<path d="M0 5318 c0 -112 2 -124 22 -147 13 -14 16 -20 8 -13 -8 6 -18 12 -22
12 -5 0 -8 -520 -8 -1155 l0 -1155 41 0 c30 0 56 -10 107 -44 95 -61 106 -66
154 -67 27 -1 34 -3 18 -6 -14 -3 -33 -12 -42 -20 -15 -13 -21 -11 -60 26 -48
43 -159 101 -195 101 l-23 0 0 -465 c0 -435 1 -465 18 -465 16 -1 16 -1 0 -11
-16 -9 -18 -30 -18 -204 0 -202 2 -209 40 -175 9 8 25 21 36 28 10 7 13 10 7
7 -8 -4 -11 -1 -7 9 3 9 15 16 25 16 21 0 26 -15 6 -24 -6 -3 2 -2 18 1 17 4
38 7 47 7 9 0 15 4 12 7 -2 4 0 10 6 14 5 3 10 2 10 -4 0 -10 70 -11 80 -1 10
10 75 32 93 32 9 -1 17 5 17 13 0 7 5 15 10 17 14 4 16 170 2 192 -6 10 -9 31
-16 106 -4 42 19 102 42 112 18 7 72 101 72 124 0 13 5 24 10 24 6 0 10 4 10
9 0 5 18 28 40 50 22 22 40 46 40 53 0 7 9 24 20 38 11 14 20 37 20 51 0 28
33 69 55 69 17 0 20 16 5 25 -12 7 -4 25 12 25 5 0 8 -7 4 -15 -5 -13 1 -14
32 -9 20 3 57 8 82 11 50 6 75 28 86 76 5 23 2 34 -10 43 -10 7 -19 30 -21 53
-3 23 -12 57 -21 76 -22 47 -38 47 -179 1 -11 -4 12 9 50 28 39 19 78 35 88
35 9 1 17 9 17 18 0 24 -23 83 -32 83 -4 0 -8 16 -8 35 0 19 -5 66 -12 104 -9
55 -16 71 -32 75 -17 4 -18 7 -5 22 10 13 13 65 14 243 0 135 5 258 13 306 15
90 52 238 77 305 9 25 25 72 36 105 11 33 29 77 40 98 14 26 19 48 15 68 -4
24 0 32 28 54 18 14 54 60 80 103 76 126 65 110 136 202 72 95 95 118 245 249
70 61 135 111 144 111 5 0 22 10 38 23 52 41 213 131 293 164 97 40 151 69
143 78 -5 4 0 6 9 2 9 -3 26 2 38 13 12 10 26 20 31 22 5 2 12 31 15 65 l7 63
-1077 0 -1076 0 0 -122z"/>
<path d="M2238 5400 c-2 -29 1 -45 13 -55 8 -8 18 -13 20 -11 22 22 709 43
736 23 7 -5 27 -11 45 -13 18 -3 89 -19 158 -36 69 -16 139 -32 155 -35 17 -2
42 -13 57 -24 15 -10 51 -28 80 -40 69 -27 250 -124 310 -166 26 -18 51 -33
55 -33 5 0 19 -10 33 -23 14 -12 41 -34 60 -47 43 -30 133 -114 214 -198 75
-78 91 -88 112 -67 18 18 30 19 40 4 4 -7 -3 -19 -16 -29 -21 -16 -22 -18 -6
-47 8 -17 28 -41 43 -53 27 -22 34 -22 188 -17 128 5 161 9 171 21 10 14 13
14 33 -3 21 -18 36 -20 176 -17 103 2 159 7 169 15 8 7 20 11 28 10 62 -8 144
56 185 144 13 27 33 57 45 68 16 12 18 18 9 19 -13 0 1 13 68 60 23 16 28 49
9 68 -9 9 -9 12 0 12 22 0 13 19 -12 26 -14 3 -37 -1 -56 -11 -17 -9 -34 -14
-37 -12 -4 5 4 11 62 44 11 6 19 16 18 22 -2 6 6 15 17 21 14 8 20 21 20 45 0
19 -2 35 -5 35 -3 0 -24 -9 -46 -21 -23 -11 -38 -16 -34 -10 3 6 24 20 46 31
35 19 39 24 39 60 0 22 -3 40 -6 40 -4 0 -37 -19 -73 -42 -36 -23 -60 -34 -53
-26 7 9 40 33 72 54 l60 38 0 88 c0 88 -6 102 -31 72 -19 -23 -99 -77 -99 -66
0 5 30 33 68 63 57 46 64 54 45 57 -12 2 -32 -2 -44 -8 -15 -8 -19 -9 -15 -1
5 7 -10 11 -46 11 -41 0 -63 -6 -93 -27 l-40 -26 24 26 24 27 -233 0 c-208 0
-236 -2 -254 -17 -20 -17 -20 -17 -7 0 13 16 -2 17 -282 17 -286 0 -295 -1
-300 -20 -3 -11 -11 -20 -18 -20 -10 0 -10 3 -1 12 7 7 12 16 12 20 0 4 -429
8 -954 8 l-954 0 -4 -40z"/>
<path d="M2490 5276 c-108 -15 -150 -25 -167 -38 -6 -5 -20 -8 -31 -6 -11 2
-31 -11 -51 -32 -27 -30 -31 -40 -26 -70 4 -19 11 -36 16 -38 5 -2 9 -10 9
-17 0 -8 9 -16 20 -20 11 -3 19 -12 17 -18 -3 -19 68 -20 168 -2 50 9 98 17
107 18 9 1 14 5 11 10 -3 5 19 7 53 3 33 -3 122 -8 199 -12 77 -3 156 -9 176
-14 21 -4 43 -4 50 0 7 5 23 0 38 -11 15 -11 49 -23 76 -28 28 -5 102 -30 165
-55 l115 -46 17 21 c12 13 24 19 35 15 12 -5 14 -9 5 -18 -21 -21 -13 -44 21
-61 113 -58 191 -109 230 -149 10 -10 23 -18 30 -18 7 0 41 -29 77 -65 42 -42
67 -61 75 -55 6 5 20 7 30 5 11 -2 22 -4 24 -4 2 -1 -4 -9 -13 -20 -16 -17
-13 -22 54 -100 38 -45 70 -77 70 -71 0 5 5 10 11 10 6 0 8 -8 5 -17 -7 -22 1
-33 35 -55 42 -27 82 -27 94 0 5 12 17 22 26 22 17 0 17 0 25 70 5 49 3 54
-66 149 -95 130 -97 132 -110 116 -21 -25 -32 -17 -28 21 3 36 -2 42 -89 114
-7 6 -19 10 -28 10 -8 0 -15 6 -15 14 0 18 -48 60 -140 120 -41 27 -86 57
-100 66 -58 39 -229 120 -275 131 -27 6 -60 16 -72 22 -12 5 -30 10 -41 11
-10 0 -26 9 -36 18 -62 63 -550 108 -796 74z"/>
<path d="M1990 5149 c-13 -6 -28 -15 -32 -22 -4 -7 -13 -12 -20 -13 -7 0 -44
-15 -82 -32 -61 -29 -67 -34 -55 -49 13 -15 12 -15 -8 -4 -21 10 -35 4 -140
-64 -80 -53 -112 -79 -103 -85 7 -4 9 -13 5 -20 -6 -10 -11 -10 -19 2 -10 13
-21 7 -78 -42 -45 -39 -63 -61 -56 -68 5 -5 8 -18 6 -28 -3 -16 -4 -16 -20 -1
-15 16 -18 15 -45 -12 -71 -73 -99 -117 -95 -148 3 -17 -1 -23 -15 -23 -39 0
-128 -130 -221 -323 -96 -199 -144 -374 -168 -607 -9 -83 -4 -414 6 -424 5 -5
10 -27 10 -49 0 -21 4 -36 8 -33 5 3 9 -20 10 -51 3 -116 104 -381 175 -460
39 -43 147 -23 166 31 9 23 -21 148 -44 182 -8 13 -30 27 -48 32 -30 8 -31 9
-9 16 28 9 28 27 -3 151 -26 104 -50 312 -43 371 4 32 2 34 -25 34 -15 0 -26
4 -23 9 3 5 15 7 25 4 17 -4 20 3 26 84 11 151 35 295 66 384 16 48 29 93 29
100 0 17 82 193 92 197 4 2 12 20 18 40 18 56 43 112 50 112 13 0 110 103 110
116 0 13 165 171 221 213 34 24 56 49 55 59 -1 11 6 17 20 17 24 0 64 31 64
50 0 7 12 13 26 13 14 0 37 11 52 25 15 13 45 30 67 37 22 7 80 31 128 53 87
40 88 41 81 71 -3 17 -13 46 -20 65 -8 18 -14 46 -14 62 0 35 -13 38 -27 7
-11 -23 -11 -23 -18 5 -8 29 -37 35 -85 16z"/>
<path d="M2653 4918 l5 -53 -20 48 c-20 46 -21 47 -66 47 -25 0 -59 -4 -76
-10 -17 -5 -43 -12 -58 -15 -35 -7 -58 -31 -58 -61 0 -30 55 -87 103 -108 35
-14 91 -82 81 -97 -8 -13 -36 9 -69 53 -17 22 -55 53 -87 70 -32 17 -58 35
-58 39 0 5 -11 9 -24 9 -14 0 -28 5 -31 10 -15 24 -156 4 -220 -31 -31 -17
-34 -32 -20 -91 10 -38 -11 -37 -33 2 -12 22 -24 30 -44 30 -16 0 -28 -4 -28
-10 0 -5 -8 -10 -17 -10 -10 0 -26 -7 -35 -14 -16 -12 -16 -14 7 -36 13 -13
22 -27 19 -31 -7 -13 -44 9 -44 26 0 24 -22 21 -53 -8 -17 -15 -44 -35 -61
-44 -17 -9 -35 -22 -39 -29 -4 -8 -12 -14 -17 -14 -24 0 -205 -195 -221 -239
-6 -15 -6 -28 2 -37 9 -11 7 -15 -6 -20 -10 -4 -21 -1 -26 7 -8 12 -12 10 -25
-6 -36 -47 -36 -51 14 -79 26 -15 38 -25 27 -21 -57 19 -76 18 -100 -5 -14
-13 -25 -31 -25 -41 0 -9 -6 -19 -12 -22 -10 -4 -10 -7 0 -18 18 -20 15 -31
-8 -24 -17 5 -23 0 -35 -29 -8 -19 -15 -44 -15 -55 0 -11 -6 -24 -13 -28 -7
-4 -18 -26 -25 -48 -10 -33 -9 -42 5 -57 15 -17 14 -18 -10 -18 -24 0 -27 -4
-27 -35 0 -19 -5 -35 -11 -35 -20 0 4 -22 45 -41 l41 -19 -47 6 c-35 5 -49 3
-53 -7 -13 -36 -26 -154 -27 -244 -2 -232 4 -295 29 -295 13 0 13 -3 3 -15
-26 -31 16 -205 49 -205 9 0 32 4 51 9 73 19 92 22 86 13 -3 -5 -32 -15 -65
-21 -33 -7 -63 -16 -66 -21 -9 -14 22 -79 40 -86 12 -5 14 -14 10 -34 -3 -16
-2 -31 4 -34 5 -4 20 -27 33 -52 12 -25 31 -50 42 -56 35 -19 204 7 232 35 4
4 20 7 35 7 15 0 29 4 31 9 2 5 23 20 47 34 41 22 46 29 58 83 11 49 11 64 -2
103 -8 25 -18 72 -23 103 -8 51 -6 65 19 128 15 39 32 77 38 84 6 7 28 44 49
82 49 88 72 127 110 189 17 28 45 77 63 110 17 33 40 72 50 86 10 15 32 54 48
88 16 34 33 67 39 74 5 6 19 28 30 47 10 19 55 96 99 170 44 74 86 146 94 160
8 14 20 32 27 41 7 9 15 26 17 39 2 13 12 31 21 41 10 11 15 19 12 19 -4 0 7
14 23 31 16 17 26 36 23 41 -5 7 46 9 158 6 157 -4 167 -6 209 -31 56 -34 76
-52 118 -105 81 -103 110 -204 76 -262 -8 -14 -24 -45 -36 -70 -12 -25 -39
-72 -60 -105 -20 -33 -41 -72 -44 -88 -4 -15 -11 -30 -16 -33 -15 -9 -10 -41
7 -48 24 -9 102 -6 164 7 47 10 55 15 53 33 -2 16 5 24 23 28 37 10 19 26 -29
27 -40 1 -40 2 13 9 39 6 59 15 70 30 50 72 148 154 199 165 17 4 36 15 41 26
13 23 40 25 40 4 0 -12 16 -15 84 -15 47 0 88 -4 91 -10 3 -5 13 -10 21 -10 8
0 29 -14 47 -30 43 -41 112 -73 140 -64 29 8 78 55 71 66 -3 5 2 18 12 29 10
11 19 27 20 36 2 8 14 28 28 42 21 21 26 37 26 75 l0 48 -45 -4 c-51 -4 -56 4
-20 28 14 9 25 22 25 28 0 6 -18 36 -41 66 -76 103 -64 99 -121 44 -55 -53
-55 -44 0 24 30 37 33 44 20 55 -8 7 -23 25 -33 41 -10 17 -32 41 -49 55 -17
14 -38 34 -48 44 -10 9 -20 18 -22 20 -3 1 -21 -14 -41 -33 l-37 -35 18 38 19
39 -30 21 c-16 12 -37 27 -46 32 -9 6 -56 34 -104 63 -48 28 -90 52 -94 52 -5
0 -22 7 -40 16 -18 9 -41 14 -52 11 -11 -3 -19 0 -19 7 0 14 -41 36 -67 36 -9
0 -25 -7 -35 -17 -17 -15 -18 -15 -18 9 0 18 -7 27 -22 32 -47 12 -57 7 -63
-31 -12 -72 -26 -82 -20 -15 5 46 3 63 -7 66 -7 2 -29 8 -48 14 -19 5 -107 13
-194 17 l-159 7 6 -54z"/>
<path d="M5379 4452 c-25 -10 -56 -24 -70 -33 -21 -14 -137 -38 -179 -37 -36
0 -85 -11 -83 -19 1 -5 -12 -7 -29 -5 -19 3 -34 -1 -39 -9 -6 -9 -12 -10 -16
-4 -5 6 -17 17 -27 25 -18 14 -19 13 -13 -4 6 -14 4 -17 -8 -12 -9 3 -15 0
-15 -9 0 -7 -5 -17 -10 -20 -15 -9 -50 4 -50 19 0 22 -192 29 -242 9 -57 -23
-89 -103 -53 -133 9 -7 14 -24 12 -39 -3 -14 6 -55 18 -91 34 -99 64 -248 66
-320 1 -36 5 -81 10 -100 4 -19 13 -83 19 -142 10 -95 28 -164 60 -233 5 -11
18 -41 29 -67 41 -95 64 -144 88 -193 14 -27 35 -77 48 -111 34 -90 83 -187
103 -202 13 -10 14 -15 5 -20 -10 -6 -7 -24 12 -76 14 -38 25 -79 25 -92 0
-20 30 -63 95 -136 13 -15 29 -36 35 -48 10 -19 97 -70 121 -70 6 0 43 -16 80
-35 l69 -35 0 1040 c0 967 -1 1040 -17 1040 -15 0 -14 2 3 14 29 22 12 28 -45
15 -73 -15 -74 -6 -1 14 l60 17 0 60 c0 33 -3 60 -7 59 -5 0 -29 -8 -54 -17z"/>
<path d="M2615 4423 c-46 -4 -53 -8 -85 -51 -63 -84 -107 -157 -114 -184 -3
-15 -12 -33 -20 -40 -19 -20 -56 -94 -50 -101 3 -3 -8 -19 -25 -36 -40 -41
-76 -122 -59 -133 9 -5 6 -8 -9 -8 -14 0 -23 -6 -23 -15 0 -8 -3 -15 -8 -15
-4 0 -12 -8 -17 -19 -66 -124 -110 -202 -128 -228 -42 -61 -77 -121 -77 -131
0 -6 -16 -34 -35 -63 -19 -30 -35 -57 -35 -62 0 -5 -10 -23 -22 -40 -24 -33
-28 -41 -68 -115 -21 -40 -21 -45 -7 -59 23 -24 229 -20 262 5 28 20 60 70 60
93 1 9 7 24 14 33 12 14 7 16 -47 16 -34 0 -64 5 -67 10 -4 6 21 10 69 10 l74
0 39 58 c22 31 51 63 65 69 16 8 108 14 279 17 140 3 270 9 289 13 30 7 35 13
38 41 3 27 7 32 31 32 31 0 66 28 76 62 10 30 -23 55 -83 63 -26 4 -69 13 -97
22 -32 9 -110 17 -213 20 -121 4 -165 9 -169 18 -6 17 186 364 228 411 10 11
34 51 54 89 35 64 47 86 82 148 16 27 16 54 2 62 -13 9 -138 13 -204 8z"/>
<path d="M2856 4333 c-33 -45 -109 -172 -202 -336 -22 -40 -64 -110 -93 -157
-28 -46 -50 -91 -49 -100 3 -12 22 -16 93 -18 50 -2 113 0 140 3 49 6 51 7 78
63 32 67 54 106 83 147 18 27 60 103 88 162 6 13 14 23 19 23 17 0 6 87 -18
125 -13 22 -31 55 -39 73 -8 17 -19 32 -25 32 -5 0 -16 7 -25 15 -14 14 -19
11 -50 -32z"/>
<path d="M4366 4167 c-38 -24 -74 -73 -80 -108 -3 -20 1 -58 8 -85 18 -60 44
-200 57 -303 5 -42 13 -98 18 -126 5 -27 5 -55 1 -60 -5 -6 -5 -17 0 -25 6 -8
10 -34 10 -58 0 -60 64 -216 161 -392 44 -79 48 -84 69 -65 27 25 37 -2 11
-29 -25 -26 -25 -34 -7 -72 8 -16 22 -46 31 -67 10 -21 31 -53 46 -70 16 -18
42 -47 59 -66 37 -41 123 -76 140 -57 5 7 8 26 6 42 -19 123 -27 157 -50 213
-15 35 -31 70 -36 80 -6 9 -16 34 -24 56 -22 61 -65 167 -81 195 -7 14 -14 28
-14 32 -3 17 -15 44 -26 58 -25 32 -55 135 -65 223 -6 51 -13 106 -16 122 -4
17 -10 77 -15 135 -8 100 -25 194 -40 215 -3 6 -9 24 -13 40 -13 57 -28 85
-47 85 -11 0 -19 5 -19 10 0 6 5 10 11 10 12 0 1 43 -12 48 -5 2 -9 10 -9 18
0 17 -47 18 -74 1z"/>
<path d="M3442 3971 c-28 -24 -28 -33 5 -82 21 -33 31 -39 49 -35 13 4 26 1
30 -5 8 -13 -16 -30 -30 -22 -5 3 -6 1 -2 -5 3 -6 20 -13 37 -17 20 -5 29 -12
25 -21 -6 -16 10 -28 25 -18 8 4 7 10 -1 18 -8 8 1 14 37 22 34 7 48 15 48 27
0 9 6 22 13 29 13 13 16 29 5 27 -21 -3 -33 2 -33 16 0 18 26 20 33 3 3 -7 6
-1 6 14 2 52 -31 68 -134 68 -75 0 -96 -3 -113 -19z"/>
<path d="M3354 3920 c-25 -10 -64 -56 -64 -76 0 -9 11 -14 30 -14 17 0 30 -5
30 -11 0 -5 -5 -7 -10 -4 -6 4 -23 4 -38 0 -36 -7 -58 -56 -33 -72 13 -8 14
-13 3 -25 -10 -12 -9 -18 3 -28 8 -7 15 -18 15 -25 0 -13 40 -10 75 5 11 5 36
11 55 12 27 2 35 7 35 23 0 20 -3 21 -50 24 -14 0 -25 6 -25 12 0 7 16 8 45 3
39 -5 44 -4 39 10 -3 9 -12 17 -20 17 -27 3 -32 4 -39 10 -3 4 6 10 22 13 21
6 24 9 12 17 -7 5 -30 9 -49 10 l-35 1 38 12 38 12 -27 39 c-14 22 -27 41 -28
41 0 1 -11 -2 -22 -6z"/>
<path d="M4145 3920 c-3 -5 -21 -17 -40 -26 -19 -9 -35 -20 -35 -25 0 -5 -7
-9 -15 -9 -8 0 -15 -4 -15 -10 0 -5 -11 -10 -25 -10 -14 0 -25 -4 -25 -9 0 -5
-16 -19 -35 -32 -35 -24 -59 -67 -71 -129 -3 -19 -10 -41 -14 -50 -90 -180
-140 -291 -140 -307 0 -11 11 -32 25 -47 14 -15 25 -31 25 -35 0 -11 47 -31
73 -31 13 0 27 -4 32 -9 6 -5 37 -11 70 -13 52 -4 129 -29 145 -48 5 -6 76
-28 111 -35 10 -2 21 1 25 7 4 7 9 6 14 -3 11 -17 122 0 128 20 3 10 0 12 -12
8 -9 -4 -16 -2 -16 3 0 5 -7 16 -16 24 -8 9 -11 16 -5 16 16 0 13 42 -5 68 -9
13 -21 44 -27 70 -11 43 -15 47 -47 52 l-35 5 34 13 c31 11 33 14 27 43 -3 17
-6 47 -6 65 0 22 -5 34 -14 34 -22 0 -28 30 -10 48 16 15 16 42 2 190 -1 10
-26 17 -50 13 -5 0 -8 4 -8 9 0 6 9 10 19 10 11 0 23 5 26 10 3 6 1 10 -4 10
-6 0 -11 10 -11 23 0 12 -5 29 -10 37 -9 13 -12 13 -21 -2 -12 -22 -39 -24
-39 -3 0 8 8 15 18 15 28 0 34 11 15 32 -18 20 -29 23 -38 8z"/>
<path d="M2350 3366 c0 -20 59 -145 92 -193 24 -36 34 -43 61 -43 18 0 37 -4
43 -9 5 -5 64 -11 131 -13 156 -4 164 -9 133 -94 -11 -32 -22 -66 -23 -74 -1
-9 -15 -29 -30 -45 -16 -17 -35 -43 -43 -60 -8 -16 -27 -50 -43 -75 -41 -67
-34 -79 47 -73 48 4 64 2 57 -5 -6 -6 -36 -12 -68 -13 -74 -3 -91 -19 -76 -74
21 -77 75 -155 106 -155 11 0 26 12 34 28 8 15 22 36 32 47 10 11 27 36 37 55
10 19 34 59 54 89 l37 55 -28 13 -28 13 33 -5 c27 -4 34 -1 41 18 5 13 16 28
24 35 8 7 27 38 42 68 37 76 140 237 154 242 25 8 8 -34 -56 -144 -38 -62 -82
-137 -99 -166 -17 -29 -50 -84 -74 -123 -24 -38 -67 -115 -96 -171 l-54 -101
24 -22 c14 -13 34 -22 48 -20 12 1 31 -1 41 -6 37 -16 124 0 162 30 35 26 37
30 31 67 -6 38 -5 40 17 34 21 -5 27 3 67 82 24 48 57 105 72 127 15 22 34 57
43 78 15 36 14 37 -5 37 -16 0 -20 7 -20 34 0 33 20 53 40 41 5 -3 12 0 16 6
5 8 3 9 -7 4 -11 -6 -12 -5 -2 5 17 19 30 3 16 -19 -9 -14 -8 -18 3 -18 8 0
14 11 14 25 0 14 3 22 7 18 13 -12 133 200 133 235 0 10 4 20 9 23 4 3 8 20 7
38 -1 32 -2 33 -56 40 -30 3 -80 13 -110 21 -119 33 -139 37 -183 37 -25 0
-69 8 -99 19 -100 35 -127 42 -205 52 -167 21 -220 22 -263 5 -37 -15 -44 -14
-41 7 2 12 -27 8 -32 -5 -4 -10 -6 -10 -6 0 -1 6 -12 12 -25 12 -13 0 -27 -6
-30 -12 -5 -10 -7 -10 -12 0 -8 17 -94 16 -94 -2z"/>
<path d="M2290 3331 c0 -7 -10 -22 -22 -34 -23 -22 -88 -144 -88 -165 0 -6 -4
-12 -9 -14 -4 -1 -5 -12 0 -23 7 -18 8 -18 8 -2 1 10 6 15 11 12 6 -3 10 -1
10 4 0 15 37 14 42 0 3 -8 10 -8 26 2 18 12 24 11 36 -1 22 -24 28 -56 12 -72
-12 -13 -11 -16 5 -26 41 -26 69 -10 69 38 0 11 9 24 19 30 18 9 19 11 2 52
-43 110 -121 237 -121 199z"/>
<path d="M3643 3163 c-21 -4 -93 -77 -93 -94 0 -4 -16 -31 -35 -61 -19 -29
-38 -62 -41 -73 -4 -11 -14 -29 -24 -40 -10 -11 -51 -81 -91 -155 -40 -74 -76
-137 -81 -140 -4 -3 -13 -19 -20 -35 -31 -72 -117 -200 -160 -241 -47 -44 -48
-44 -125 -46 -93 -1 -95 -1 -110 -11 -7 -4 -23 -2 -35 5 -28 15 -49 12 -65 -9
-22 -29 12 -78 112 -158 45 -36 151 -105 162 -105 3 0 25 -17 50 -37 53 -43
95 -129 98 -199 0 -6 7 -19 15 -29 8 -10 16 -30 17 -44 5 -65 17 -92 59 -131
24 -22 48 -40 54 -40 6 0 29 -8 53 -19 80 -35 325 -98 418 -107 45 -4 57 -2
62 10 8 20 36 21 43 2 5 -13 39 -12 74 1 8 3 22 7 30 9 23 5 60 27 60 36 0 4
9 8 20 8 23 0 26 13 6 30 -8 6 -12 18 -9 26 3 9 -4 28 -16 44 -20 28 -27 50
-16 50 3 0 19 -15 35 -32 35 -39 40 -20 9 31 -24 40 -20 67 5 28 10 -15 25
-27 33 -27 21 0 10 53 -17 82 -29 31 -25 46 5 18 14 -13 27 -21 30 -18 3 3 6
26 7 51 2 35 -2 50 -16 60 -17 12 -16 14 7 24 19 9 26 24 36 69 9 50 9 59 -4
67 -20 11 -19 27 2 27 12 0 4 13 -27 46 -46 48 -40 50 18 7 38 -29 51 -25 28
9 -20 28 -20 38 -1 38 10 0 15 10 15 34 0 19 4 46 10 61 5 14 14 52 19 83 9
56 8 58 -22 91 l-32 33 32 -16 33 -16 55 55 c30 30 72 63 94 74 21 11 54 36
74 55 l35 34 -17 39 c-17 36 -48 133 -56 172 -3 18 -39 111 -54 141 -4 8 -22
19 -39 25 -19 5 -32 16 -32 26 0 12 -15 19 -57 28 -31 6 -68 11 -83 11 -28 0
-105 33 -115 50 -3 5 -15 10 -26 10 -10 0 -19 4 -19 8 0 5 -45 12 -101 16 -55
3 -117 13 -137 22 -33 14 -52 21 -102 37 -8 2 -25 2 -37 0z"/>
<path d="M1840 3052 c-22 -10 -17 -46 11 -87 32 -46 45 -50 72 -19 25 29 88
76 72 54 -6 -8 -28 -37 -50 -64 -24 -30 -31 -45 -19 -39 10 6 25 8 32 6 6 -3
32 5 56 16 42 21 65 52 61 81 -7 39 -12 45 -45 52 -45 9 -170 9 -190 0z"/>
<path d="M2494 3033 c5 -5 -39 -67 -73 -103 -7 -8 -20 -29 -27 -46 -33 -78
-145 -138 -339 -180 -44 -9 -147 -43 -230 -74 -82 -32 -176 -66 -207 -75 -32
-9 -70 -26 -85 -38 -16 -11 -29 -21 -30 -22 -1 0 3 -21 9 -45 8 -33 24 -58 59
-92 27 -26 49 -51 49 -55 0 -4 7 -17 15 -27 15 -20 15 -20 29 0 12 15 17 16
27 7 10 -10 10 -15 0 -27 -13 -16 0 -56 19 -56 5 0 11 -8 14 -17 3 -10 17 -30
30 -44 13 -14 27 -35 30 -47 4 -12 12 -22 17 -22 5 0 9 -6 9 -13 0 -7 11 -28
24 -46 14 -19 28 -46 31 -62 4 -16 10 -29 14 -29 4 0 15 -25 25 -55 9 -30 21
-57 26 -60 6 -4 10 -16 10 -27 l0 -21 23 21 c35 33 41 27 16 -17 l-22 -40 21
-133 c11 -73 19 -144 18 -158 -2 -14 2 -28 8 -32 8 -5 8 -12 0 -25 -6 -10 -9
-33 -6 -51 2 -17 0 -32 -4 -32 -5 0 -10 -36 -12 -81 -3 -69 0 -83 15 -95 26
-19 64 -17 93 6 14 11 31 20 38 20 6 0 12 5 12 10 0 6 7 10 15 10 8 0 15 4 15
9 0 5 9 11 19 14 11 3 28 19 39 36 10 17 21 29 24 26 2 -3 6 19 7 47 1 29 7
58 13 65 7 9 8 41 4 91 -12 141 -16 401 -6 407 6 3 10 15 10 26 0 11 18 42 40
68 22 26 40 54 40 62 0 15 39 70 40 56 0 -13 28 18 67 75 l36 52 -7 128 c-5
109 -4 134 10 160 9 18 20 73 24 123 10 110 24 161 55 189 29 27 67 94 60 106
-3 5 3 14 14 19 23 13 61 75 61 102 0 16 -7 19 -45 19 -34 0 -43 -3 -39 -14 3
-8 1 -17 -5 -21 -7 -3 -11 2 -11 14 0 18 -7 20 -66 20 -36 0 -63 -3 -60 -6z"/>
<path d="M4760 2485 c-1 -11 -4 -14 -7 -7 -5 14 -33 17 -33 3 0 -5 -22 -11
-50 -15 -28 -4 -53 -13 -58 -22 -4 -8 -21 -16 -38 -18 -38 -5 -121 -26 -157
-39 -46 -16 -76 -72 -87 -162 -5 -44 -14 -102 -20 -130 -5 -27 -12 -72 -15
-100 -2 -27 -9 -72 -15 -100 -22 -113 -22 -112 0 -118 24 -6 27 -29 3 -25 -19
4 -25 -16 -53 -172 -24 -139 -49 -187 -122 -228 -55 -31 -94 -40 -212 -46 -40
-3 -72 -10 -76 -17 -10 -16 -40 -4 -40 16 0 9 -4 14 -8 11 -7 -4 -64 5 -272
44 -25 5 -65 13 -90 19 -64 15 -69 14 -82 -14 -10 -23 -6 -29 57 -90 37 -36
72 -65 77 -65 5 0 30 -17 56 -39 26 -21 62 -46 80 -55 17 -9 32 -20 32 -25 0
-5 13 -14 29 -21 16 -6 39 -22 52 -36 30 -32 51 -30 93 6 31 27 43 31 118 36
171 11 330 62 400 128 90 86 110 125 128 256 13 89 12 110 -3 110 -7 0 -28 16
-47 35 -19 19 -31 35 -28 35 13 0 68 -32 68 -41 0 -5 6 -9 14 -9 17 0 34 79
56 270 24 194 39 274 57 299 24 33 107 90 142 97 14 3 33 9 41 15 8 5 27 14
43 20 15 6 27 15 27 20 0 5 6 9 14 9 8 0 22 7 30 16 9 8 16 12 16 7 0 -16 20
22 20 40 0 19 -34 57 -51 57 -5 0 -8 4 -5 9 9 14 -20 32 -38 25 -11 -4 -22 1
-31 12 -14 18 -14 18 -15 -1z"/>
<path d="M1234 2420 c-12 -5 -25 -13 -29 -19 -3 -6 -11 -9 -16 -6 -5 4 -9 0
-9 -7 0 -22 34 -103 46 -111 7 -4 23 -23 35 -43 12 -20 35 -51 52 -68 16 -17
42 -45 58 -62 16 -17 29 -35 29 -40 0 -5 9 -15 20 -22 11 -7 20 -18 20 -26 0
-7 9 -21 20 -31 40 -36 132 -186 155 -252 12 -38 28 -97 35 -132 16 -87 12
-450 -6 -516 -8 -27 -18 -77 -23 -110 -4 -33 -11 -67 -15 -76 -5 -12 -1 -18
13 -22 33 -8 29 -21 -24 -65 -15 -13 -15 -16 1 -33 16 -17 16 -20 -2 -46 -10
-16 -19 -39 -20 -53 -2 -14 -8 -26 -13 -28 -5 -2 -8 -9 -5 -17 3 -7 -2 -34
-10 -60 -9 -25 -13 -51 -10 -57 4 -5 8 -26 10 -46 4 -39 18 -60 28 -43 12 19
26 12 26 -15 0 -25 0 -25 81 -23 122 3 125 4 139 55 7 24 16 42 20 39 4 -3 10
5 14 18 12 46 6 70 -25 98 -30 26 -30 29 -31 119 0 73 -3 90 -14 86 -24 -9
-26 14 -4 49 12 19 25 35 30 35 4 0 10 8 14 18 3 9 9 23 12 30 3 7 2 12 -3 11
-35 -6 -48 25 -15 36 20 6 48 55 33 55 -17 0 -21 33 -6 50 8 9 17 42 19 76 3
32 9 112 15 177 6 66 9 122 7 126 -3 4 -6 33 -7 64 -1 31 -7 57 -12 57 -5 0
-7 10 -4 22 12 45 -58 280 -104 348 -9 14 -20 36 -24 50 -7 23 -23 44 -109
141 -17 19 -43 50 -59 67 -15 18 -31 32 -35 32 -4 0 -15 13 -24 28 -29 49
-116 126 -156 139 -44 14 -89 15 -118 3z"/>
<path d="M865 2352 c-73 -25 -82 -31 -111 -75 -18 -27 -41 -58 -53 -71 -11
-12 -21 -28 -21 -34 0 -7 -4 -12 -10 -12 -5 0 -10 -4 -10 -10 0 -10 -17 -33
-62 -80 -15 -16 -32 -48 -38 -72 -6 -24 -18 -58 -26 -75 -12 -27 -13 -44 -4
-95 12 -62 10 -228 -1 -228 -4 0 -10 -11 -13 -25 -6 -25 -44 -56 -75 -62 -9
-2 -63 -10 -120 -18 -58 -8 -108 -21 -113 -28 -4 -6 -8 -8 -8 -3 0 4 -24 -14
-53 -40 -29 -27 -74 -65 -100 -84 l-46 -35 -1 -244 0 -244 22 19 22 19 -22
-32 c-22 -31 -22 -36 -22 -427 l0 -396 579 0 579 0 22 28 22 27 -16 -28 -16
-27 229 0 230 0 11 38 c11 40 35 84 26 47 -21 -87 -15 -108 18 -63 l17 23 -11
-22 c-10 -22 -9 -23 35 -23 l45 0 0 81 c0 67 -3 80 -15 76 -11 -5 -13 3 -10
42 5 67 -18 89 -106 97 -35 3 -74 10 -86 16 -13 6 -24 9 -26 7 -2 -2 -18 -30
-36 -62 -18 -32 -35 -56 -38 -54 -2 3 0 13 6 24 6 10 20 41 30 69 l19 50 -26
34 c-25 32 -47 117 -31 122 9 4 16 134 7 143 -3 3 3 31 13 60 10 30 19 66 19
79 0 14 5 28 10 31 6 3 10 17 10 30 0 14 4 44 10 67 19 88 33 184 35 244 1 34
6 68 11 75 5 8 10 72 12 142 9 276 -41 411 -236 635 -13 15 -53 62 -89 105
-37 43 -77 83 -90 88 -14 5 -23 17 -23 29 0 12 -27 48 -63 86 -74 76 -88 78
-212 36z"/>
<path d="M5036 2325 c-3 -8 -22 -23 -43 -34 -93 -49 -182 -90 -228 -105 -81
-28 -121 -55 -132 -89 -31 -93 -54 -244 -49 -320 2 -42 -2 -68 -15 -95 -27
-52 -25 -115 4 -136 l22 -17 -27 6 c-24 5 -28 2 -28 -17 0 -45 -53 -234 -77
-271 -35 -56 -153 -164 -153 -141 0 4 -8 0 -17 -9 -41 -36 -188 -81 -335 -101
-25 -4 -56 -16 -68 -26 -19 -17 -21 -26 -16 -65 5 -29 12 -45 22 -45 16 0 19
-26 4 -35 -6 -4 -8 -11 -5 -16 4 -5 1 -9 -4 -9 -6 0 -11 -10 -11 -23 0 -26 21
-77 33 -77 4 0 7 -8 7 -19 0 -10 6 -24 14 -30 23 -19 55 -87 62 -131 4 -22 11
-40 16 -40 5 0 8 -8 7 -17 -8 -54 30 -156 72 -196 10 -10 19 -22 19 -27 0 -12
72 -85 96 -98 10 -5 30 -8 44 -6 19 3 21 2 10 -5 -11 -8 -9 -12 13 -20 16 -6
36 -11 46 -11 9 0 22 -5 29 -12 7 -7 12 -9 12 -5 0 12 179 -60 193 -78 12 -15
-3 46 -20 80 -22 45 -53 125 -49 125 7 0 96 -163 102 -187 6 -23 8 -23 146
-23 l139 0 -5 23 -6 22 11 -22 c9 -16 21 -23 42 -23 25 0 27 2 17 14 -8 10 -8
21 -2 32 8 14 12 13 27 -14 l19 -31 208 -1 c158 0 208 2 208 12 0 9 3 9 12 0
36 -36 38 -21 38 312 l0 323 -41 27 c-22 15 -38 30 -36 33 3 3 22 -7 41 -22
l36 -27 0 432 0 432 -22 20 -23 20 23 -5 22 -5 -2 180 -3 181 -47 25 c-57 31
-57 42 1 13 22 -12 43 -21 46 -21 3 0 5 40 5 90 l0 90 -42 31 c-24 17 -56 37
-73 44 -16 7 -59 26 -95 41 -68 28 -119 60 -133 82 -4 6 -15 12 -22 12 -8 0
-15 5 -15 10 0 15 -17 12 -24 -5z"/>
<path d="M2580 2062 c-11 -5 -15 -23 -15 -68 0 -53 5 -68 38 -123 22 -34 57
-81 79 -103 37 -37 42 -40 53 -25 17 24 45 22 45 -3 0 -11 -7 -20 -15 -20 -32
0 -13 -27 28 -40 23 -7 51 -16 62 -20 134 -50 185 -40 185 37 0 68 -18 99 -88
150 -37 27 -76 55 -87 61 -11 6 -15 12 -10 12 9 0 -17 18 -55 36 -8 4 -25 17
-38 28 -13 12 -38 26 -55 32 -18 6 -32 15 -32 20 1 5 -15 15 -35 21 -39 14
-39 14 -60 5z"/>
<path d="M2444 1832 c-16 -10 -34 -134 -22 -149 5 -6 10 -23 12 -37 6 -59 161
-246 204 -246 10 0 22 -3 26 -7 4 -5 11 -8 14 -8 4 -1 16 -6 27 -12 27 -15
165 -61 221 -73 95 -21 144 -23 165 -4 24 22 24 38 0 61 -11 10 -22 39 -26 65
-7 45 -10 49 -60 73 -29 15 -75 32 -101 40 -163 46 -217 79 -332 199 -45 47
-89 86 -96 86 -8 0 -16 4 -18 10 -1 5 -8 6 -14 2z"/>
<path d="M2393 1413 c-9 -15 -21 -31 -25 -34 -5 -3 -9 -35 -10 -72 -2 -47 -6
-67 -15 -67 -7 0 -13 -5 -13 -12 0 -6 -11 -26 -25 -44 -14 -18 -25 -40 -25
-48 0 -9 -6 -16 -13 -16 -8 0 -22 -9 -32 -20 -14 -16 -20 -17 -27 -8 -5 9 -8
6 -8 -9 0 -17 -6 -23 -23 -23 -12 0 -28 -9 -35 -20 -7 -11 -19 -20 -27 -20
-16 0 -47 -39 -39 -51 3 -5 -1 -19 -8 -31 -7 -13 -11 -29 -9 -36 1 -8 -3 -20
-9 -27 -11 -14 -12 -116 0 -135 4 -6 17 -9 31 -6 13 2 29 0 34 -5 6 -4 80 -11
164 -15 142 -7 155 -6 167 11 12 16 14 17 20 2 3 -9 10 -15 15 -12 4 3 6 12 2
20 -6 17 5 19 27 5 13 -8 13 -10 0 -10 -11 0 -11 -3 -2 -12 8 -8 44 -12 100
-11 135 1 126 -5 132 104 l6 94 4 -95 5 -95 205 -5 c113 -3 216 -1 230 4 14 4
46 8 72 7 54 -3 104 19 113 50 16 49 -27 196 -68 232 -10 9 -30 17 -43 17 -13
0 -24 4 -24 10 0 5 -7 7 -15 4 -11 -5 -15 1 -15 19 0 45 -64 87 -121 81 -20
-3 -32 1 -35 11 -4 8 -14 15 -24 15 -11 0 -22 5 -25 10 -3 6 -13 10 -22 10 -9
0 -24 6 -32 13 -9 8 -42 20 -73 27 -48 11 -60 11 -73 0 -13 -11 -18 -11 -24
-1 -4 6 -14 11 -22 9 -8 -2 -15 7 -17 20 -2 12 -10 22 -18 22 -13 0 -51 16
-201 87 -18 8 -33 21 -33 28 0 7 -8 15 -17 18 -10 4 -28 14 -40 22 -20 16 -22
15 -40 -12z"/>
<path d="M3511 911 c-9 -6 -18 -48 -27 -122 -19 -163 -18 -162 -181 -170 -143
-7 -162 -12 -140 -37 13 -15 12 -19 -4 -36 -19 -19 -19 -19 -25 13 -4 17 -16
37 -27 42 -17 10 -467 15 -612 7 -22 -1 -64 1 -93 4 -52 5 -316 -7 -359 -17
-47 -11 -83 -154 -47 -190 14 -14 19 -14 39 -1 12 8 26 11 31 6 9 -8 101 -14
177 -11 26 1 37 6 37 16 0 24 18 17 22 -7 2 -17 9 -22 23 -20 11 2 95 3 187 2
160 -2 166 -1 173 19 8 27 21 27 28 1 5 -19 12 -21 89 -18 75 3 84 5 93 26 5
12 13 22 17 22 13 0 9 -40 -4 -42 -7 -1 30 -4 82 -7 71 -5 98 -3 106 7 9 9 13
10 16 2 3 -9 73 -12 248 -14 271 -1 292 3 319 59 10 20 15 62 14 125 0 89 -2
99 -36 167 -20 39 -41 74 -47 78 -5 3 -10 15 -10 26 0 11 -7 22 -16 26 -8 3
-13 12 -10 19 3 9 -1 14 -12 14 -10 0 -22 4 -28 10 -5 5 -15 6 -23 1z"/>
<path d="M3780 437 c-67 -123 -113 -134 -504 -128 -116 2 -151 0 -157 -11 -5
-7 -9 -9 -9 -5 0 4 -9 3 -19 -3 -14 -7 -20 -7 -23 1 -4 12 -722 26 -780 15
-23 -4 -39 -14 -45 -29 l-10 -22 -7 23 c-7 21 -13 23 -64 20 l-56 -3 -13 -60
c-6 -33 -19 -78 -28 -100 l-15 -40 5 34 c18 120 18 144 0 157 -31 23 -77 17
-113 -13 -28 -24 -37 -42 -54 -113 -11 -47 -22 -102 -25 -123 l-5 -37 150 0
c111 0 152 3 155 13 4 9 6 9 6 0 1 -10 33 -13 125 -13 121 0 125 1 129 23 l4
22 2 -22 1 -23 485 0 485 0 -7 32 -6 33 22 -24 c11 -13 21 -28 21 -33 0 -4
162 -8 361 -8 284 0 360 3 357 13 -3 6 -19 16 -36 22 -18 5 -32 13 -32 17 0 4
-6 8 -13 8 -18 0 -57 49 -87 106 -14 27 -35 64 -47 83 -13 19 -23 40 -23 47 0
24 -71 160 -89 171 -16 10 -21 6 -41 -30z"/>
</g>
</svg>
