<?xml version="1.0" standalone="no"?>
<!DOCTYPE svg PUBLIC "-//W3C//DTD SVG 20010904//EN"
 "http://www.w3.org/TR/2001/REC-SVG-20010904/DTD/svg10.dtd">
<svg version="1.0" xmlns="http://www.w3.org/2000/svg"
 width="544.000000pt" height="544.000000pt" viewBox="0 0 544.000000 544.000000"
 preserveAspectRatio="xMidYMid meet">
<metadata>
Created by potrace 1.16, written by Peter Selinger 2001-2019
</metadata>
<g transform="translate(0.000000,544.000000) scale(0.100000,-0.100000)"
fill="#000000" stroke="none">
<path d="M0 5303 l0 -134 58 -26 c31 -14 52 -28 45 -30 -6 -2 -30 5 -52 16
-22 12 -43 21 -46 21 -3 0 -5 -506 -5 -1124 l0 -1123 43 -6 c23 -4 60 -15 81
-26 22 -12 49 -18 61 -15 15 4 24 0 28 -10 4 -11 1 -13 -11 -10 -9 3 6 -8 35
-24 51 -29 54 -29 170 -25 142 5 186 11 177 24 -8 14 15 39 36 39 24 0 45 -26
28 -34 -7 -3 6 -4 30 -1 24 3 62 15 86 28 l44 22 -3 70 c-2 39 -8 82 -14 97
-19 49 -26 161 -26 391 1 152 -2 227 -10 227 -5 0 -4 4 4 9 16 10 18 17 31
101 15 88 54 226 100 350 23 63 49 133 57 155 8 22 21 47 29 56 8 8 14 18 14
21 0 7 134 228 165 272 11 16 32 41 47 56 15 15 43 46 61 67 18 22 66 69 107
104 41 35 91 79 110 97 19 17 37 32 41 32 16 0 20 41 5 61 -8 12 -12 28 -9 37
5 11 11 5 22 -19 13 -27 21 -33 41 -31 14 2 32 10 40 18 19 16 190 124 198
124 3 0 50 19 104 42 67 28 95 45 88 52 -13 13 -13 56 0 56 5 0 13 -7 18 -16
5 -9 18 -14 33 -12 22 3 24 7 22 58 -4 100 -4 100 -83 100 -48 0 -70 -4 -70
-12 0 -9 -3 -9 -12 0 -16 16 -378 17 -378 1 0 -8 -4 -8 -13 -1 -8 7 -83 11
-195 12 -167 0 -182 -1 -182 -17 -1 -17 -1 -17 -11 0 -5 9 -14 17 -19 17 -6 0
-10 -8 -10 -17 -1 -17 -1 -17 -11 0 -9 16 -41 17 -441 17 l-431 0 19 -22 19
-22 -36 22 c-32 19 -50 22 -133 21 l-96 -1 0 -135z"/>
<path d="M2273 5424 c-7 -18 15 -36 35 -29 8 3 17 -7 23 -24 9 -27 12 -28 62
-24 29 2 63 7 77 10 14 3 70 5 125 4 130 -3 152 3 165 43 l10 31 -3 -31 c-3
-30 -1 -32 32 -38 20 -3 63 -6 96 -6 65 0 224 -28 344 -60 76 -20 92 -26 143
-50 33 -16 58 -7 58 20 0 11 5 20 11 20 7 0 8 -7 4 -17 -3 -10 -7 -22 -8 -28
-1 -5 52 -36 118 -70 174 -88 296 -154 323 -176 16 -12 33 -17 49 -13 21 6 23
4 18 -17 -6 -24 15 -45 181 -179 24 -19 43 -40 44 -46 0 -6 7 -17 15 -24 11
-9 18 -8 36 9 39 36 57 19 19 -19 -30 -30 -28 -42 9 -46 41 -5 50 -12 32 -24
-11 -6 -4 -19 30 -54 41 -43 52 -48 144 -72 146 -37 322 -44 429 -15 44 12 90
21 102 21 13 0 26 5 29 10 4 6 11 8 16 4 6 -3 17 4 26 15 10 16 21 20 36 16
17 -5 19 -4 7 4 -10 7 -11 11 -2 11 6 0 12 7 12 16 0 9 -6 14 -12 11 -52 -21
-53 -21 -40 -5 7 9 39 29 70 44 101 51 115 85 16 40 -58 -27 -86 -31 -36 -5
23 11 120 67 130 75 2 1 4 9 6 17 1 8 8 22 15 31 20 24 -1 20 -59 -9 -39 -20
-48 -22 -43 -9 5 14 2 14 -23 -2 -16 -10 -42 -29 -58 -41 -16 -13 -31 -21 -34
-18 -7 6 49 55 64 55 5 0 19 7 30 16 16 13 16 15 2 10 -25 -8 -22 8 5 28 12 9
15 14 7 10 -8 -4 -4 5 9 19 54 59 214 126 197 82 -3 -8 0 -15 6 -15 20 0 -38
-39 -88 -59 -110 -44 -127 -52 -117 -62 6 -6 26 -1 53 12 67 33 167 69 173 63
3 -3 15 -3 26 1 21 6 21 12 21 281 l0 274 -112 0 -113 0 -94 -85 c-52 -47
-100 -85 -105 -85 -11 1 3 13 104 99 35 30 47 46 39 51 -8 6 -6 9 7 13 10 2
-26 5 -81 6 l-100 1 -65 -56 c-36 -31 -80 -69 -97 -84 -58 -50 -35 -17 37 55
39 38 70 73 70 77 0 13 -205 9 -218 -4 -9 -9 -12 -9 -12 0 0 9 -51 12 -200 12
-143 0 -200 -3 -200 -11 0 -7 -10 -22 -22 -34 -13 -13 -31 -33 -41 -46 -17
-23 -17 -23 -1 11 9 19 26 45 37 58 l20 22 -124 0 c-84 0 -129 -4 -137 -12 -9
-9 -15 -9 -24 0 -19 19 -45 14 -64 -10 l-16 -23 5 23 c5 20 2 22 -43 22 -27 0
-52 -4 -55 -10 -3 -5 -11 -10 -16 -10 -6 0 -7 5 -4 10 4 7 -105 10 -319 10
l-325 0 -4 -22 -4 -23 -2 23 -1 22 -298 0 c-201 0 -302 -4 -309 -11 -8 -8 -13
-8 -17 0 -5 7 -53 11 -132 11 -105 0 -126 -3 -131 -16z"/>
<path d="M2735 5291 c-3 -2 -37 -5 -77 -7 -88 -3 -130 -11 -140 -27 -6 -9 -10
-9 -17 1 -6 10 -22 12 -65 7 -51 -7 -57 -10 -53 -27 7 -24 -33 -43 -46 -22
-12 21 -29 17 -60 -12 -25 -23 -28 -31 -22 -63 10 -52 21 -68 58 -85 55 -24
75 -25 206 -9 106 13 155 13 308 4 101 -6 195 -17 210 -23 16 -6 62 -17 103
-23 41 -7 100 -24 130 -38 79 -36 162 -67 183 -67 9 0 17 -4 17 -8 0 -5 35
-28 78 -53 89 -51 125 -74 179 -117 25 -19 47 -29 59 -26 14 4 24 -4 37 -28
22 -41 89 -97 95 -80 2 7 11 12 19 12 11 0 14 -6 10 -22 -3 -11 1 -34 9 -50
12 -23 19 -27 39 -22 21 5 25 3 25 -18 0 -24 45 -81 69 -89 8 -3 14 -16 15
-29 1 -20 8 -26 36 -31 19 -3 42 -9 51 -13 23 -10 85 46 92 82 4 17 -1 39 -14
60 -10 18 -19 41 -19 51 0 23 -16 36 -53 45 -23 5 -27 11 -22 27 9 26 -10 53
-96 141 -56 57 -73 69 -80 57 -8 -10 -9 -9 -4 7 4 16 -3 28 -29 47 -19 15 -41
33 -49 41 -7 8 -38 29 -68 47 -30 19 -76 49 -104 67 -64 43 -262 139 -297 145
-18 3 -28 0 -28 -8 0 -7 -7 -15 -15 -19 -11 -4 -15 1 -15 19 0 16 -6 25 -15
25 -9 0 -18 7 -21 15 -4 8 -12 15 -20 15 -8 0 -14 4 -14 8 0 18 -278 81 -299
67 -5 -3 -20 -1 -33 5 -24 10 -246 29 -253 21z"/>
<path d="M1990 5138 c-13 -5 -30 -14 -38 -21 -8 -6 -26 -13 -40 -15 -39 -5
-54 -20 -41 -43 12 -23 -3 -26 -21 -4 -16 19 -29 19 -51 -1 -14 -13 -16 -21
-8 -35 12 -24 0 -25 -17 -2 -12 17 -14 17 -43 -5 -17 -12 -34 -22 -39 -22 -5
0 -19 -8 -30 -17 -12 -10 -38 -29 -57 -43 -92 -64 -315 -259 -315 -276 0 -4
-10 -18 -21 -30 -20 -21 -20 -26 -9 -54 15 -36 5 -53 -15 -26 -16 21 -21 17
-63 -42 -19 -26 -21 -36 -11 -53 10 -19 8 -20 -10 -14 -16 5 -23 1 -30 -17 -5
-13 -20 -33 -35 -45 -31 -27 -43 -69 -27 -95 16 -26 8 -33 -19 -18 -12 6 -23
10 -24 8 -1 -2 -17 -41 -35 -88 -19 -47 -38 -89 -43 -95 -4 -5 -8 -26 -8 -46
0 -21 -6 -39 -13 -42 -7 -3 -23 -51 -35 -108 -12 -57 -26 -126 -32 -154 -17
-78 -25 -561 -10 -580 7 -8 9 -22 6 -31 -6 -15 11 -61 50 -136 8 -14 14 -36
14 -48 0 -33 24 -50 77 -56 75 -7 109 36 100 127 -3 30 -8 81 -11 114 -3 33
-8 77 -10 98 -3 21 -6 73 -7 117 -2 70 -4 79 -23 85 -21 6 -21 6 2 15 13 6 22
18 23 32 0 13 2 32 4 43 2 11 8 66 15 122 16 145 81 397 116 449 11 16 37 64
59 107 22 43 48 87 58 98 23 25 39 77 26 85 -17 10 1 25 19 15 13 -7 25 2 59
49 23 32 47 61 52 65 6 3 8 17 5 31 -4 14 -2 24 5 24 6 0 11 -4 11 -10 0 -21
20 -8 83 53 98 93 129 120 157 134 14 7 52 31 85 52 33 22 85 53 115 69 131
69 140 77 144 136 3 43 -5 59 -19 36 -9 -14 -22 -12 -29 5 -3 8 2 21 11 30 14
14 14 17 -1 34 -9 10 -14 20 -12 22 12 12 -22 25 -44 17z"/>
<path d="M2688 4963 c-41 -4 -42 -8 -29 -65 11 -47 4 -49 -14 -4 -12 28 -18
33 -40 29 -18 -4 -25 -1 -25 10 0 20 -20 33 -29 20 -3 -6 -22 -13 -41 -17 -47
-9 -56 -16 -64 -52 -6 -26 -3 -32 17 -41 72 -33 162 -215 149 -301 -5 -37 6
-41 31 -12 23 27 37 25 37 -4 0 -27 8 -29 110 -41 30 -4 73 -17 95 -30 41 -24
105 -82 105 -95 0 -4 9 -10 20 -13 11 -3 20 -13 20 -24 1 -10 14 -43 30 -73
17 -30 30 -68 30 -84 0 -32 -83 -210 -135 -291 -36 -55 -62 -121 -53 -131 4
-3 50 -5 103 -5 95 1 135 13 135 39 0 6 9 20 20 29 30 26 25 33 -22 34 l-43 1
53 8 c58 9 73 18 102 65 24 40 123 118 169 133 19 7 81 12 139 12 102 0 107
-1 168 -35 34 -19 64 -40 66 -45 2 -5 17 -14 34 -19 48 -13 86 15 123 89 17
34 40 69 51 78 18 15 21 26 18 82 -2 42 -7 64 -14 63 -7 -1 -20 7 -30 18 -17
19 -17 20 4 26 38 10 18 33 -29 33 -13 0 -19 7 -19 23 -1 54 -37 65 -86 26
-54 -43 -59 -36 -15 22 44 58 46 50 -35 136 -36 37 -56 51 -68 47 -12 -4 -16
0 -16 15 0 29 -14 26 -42 -7 -39 -46 -51 -48 -29 -3 17 33 19 41 7 41 -8 0
-21 9 -28 19 -8 11 -27 25 -43 33 -16 7 -40 23 -54 36 -14 12 -31 20 -38 18
-7 -3 -13 -1 -13 5 0 17 -24 36 -41 32 -9 -3 -23 3 -32 11 -8 9 -20 16 -25 16
-5 0 -15 7 -22 15 -8 9 -21 13 -32 9 -13 -4 -24 1 -34 14 -19 27 -84 39 -96
18 -14 -25 -31 -19 -24 9 4 14 3 24 -1 23 -5 -1 -21 2 -36 7 -36 10 -46 0 -63
-67 l-14 -53 5 61 4 60 -52 17 c-72 23 -238 38 -319 30z"/>
<path d="M2100 4814 c-18 -8 -41 -14 -51 -14 -12 0 -19 -7 -19 -20 0 -23 -3
-24 -30 -8 -17 11 -25 10 -47 -2 -34 -19 -41 -40 -14 -40 12 0 21 -4 21 -9 0
-17 -17 -21 -29 -7 -15 18 -65 5 -98 -26 -12 -12 -23 -18 -23 -13 0 4 -10 -3
-22 -17 -13 -14 -38 -33 -57 -43 -19 -9 -43 -27 -55 -40 -11 -12 -38 -41 -59
-64 l-38 -41 35 -42 c50 -58 44 -73 -7 -18 l-42 45 -25 -25 c-14 -14 -36 -42
-49 -63 -12 -20 -36 -50 -52 -66 -28 -28 -40 -71 -19 -71 6 0 10 -4 10 -10 0
-5 -11 -10 -25 -10 -18 0 -32 -11 -50 -40 -30 -47 -30 -48 -7 -73 16 -20 16
-20 -2 -13 -14 5 -26 -2 -47 -25 -16 -18 -26 -36 -23 -40 3 -5 -2 -19 -10 -31
-9 -12 -16 -31 -16 -42 0 -11 -7 -28 -16 -38 -16 -16 -15 -19 7 -37 l24 -20
-26 -1 c-19 0 -28 -7 -33 -22 -12 -47 -7 -67 24 -83 17 -9 30 -17 30 -18 0 -1
-17 -1 -38 1 l-39 4 -17 -103 c-15 -92 -15 -105 -2 -115 12 -8 13 -13 3 -23
-7 -7 -12 -22 -13 -34 -1 -12 -4 -29 -7 -37 -11 -25 6 -38 58 -45 65 -7 70
-15 10 -15 -41 0 -46 -2 -35 -15 10 -12 9 -16 -4 -21 -12 -5 -16 -20 -16 -58
0 -77 13 -89 96 -88 62 0 65 -1 29 -8 -22 -5 -55 -9 -74 -9 l-33 -1 7 -47 c4
-27 17 -68 29 -93 l23 -45 72 3 c47 1 70 -1 66 -8 -3 -5 -14 -10 -24 -10 -10
0 -36 -7 -57 -17 l-39 -16 35 -8 c19 -4 47 -5 63 -2 19 4 27 1 27 -9 0 -17 45
-59 80 -75 14 -6 45 -14 70 -18 25 -3 73 -20 108 -37 l62 -32 35 18 c37 20 61
50 66 82 2 10 -8 53 -21 94 -15 48 -23 100 -24 145 0 64 4 77 48 163 26 50 53
98 59 105 7 6 28 41 46 77 19 36 38 67 43 68 4 2 8 11 8 20 0 8 6 23 13 31 16
19 147 239 147 247 0 3 9 18 19 32 10 15 33 54 50 87 18 33 42 77 54 97 12 20
42 72 66 115 24 43 52 89 61 103 33 48 70 121 70 136 0 9 20 39 45 66 48 54
61 84 51 122 -7 28 -66 105 -82 105 -10 1 -24 11 -71 51 -18 15 -33 12 -27 -5
4 -11 -1 -15 -17 -15 -17 0 -20 3 -11 12 14 14 -2 48 -22 48 -8 0 -16 6 -19
14 -4 9 -19 14 -41 13 -24 -1 -41 6 -53 19 -25 28 -54 34 -93 18z"/>
<path d="M5410 4635 c-7 -8 -18 -15 -24 -15 -6 0 -17 -12 -23 -27 -11 -22 -10
-28 5 -40 16 -12 16 -14 0 -23 -9 -6 -15 -17 -12 -25 4 -9 -3 -16 -23 -21 -15
-4 -35 -12 -43 -20 -8 -7 -27 -15 -42 -19 -25 -6 -48 -35 -28 -35 5 0 39 12
76 26 41 17 69 23 75 17 11 -11 -11 -23 -96 -52 -33 -11 -78 -27 -100 -37 -22
-9 -74 -21 -115 -25 -118 -13 -137 -17 -157 -27 -11 -6 -38 -12 -60 -14 -23
-3 -49 -11 -58 -18 -15 -12 -18 -12 -26 3 -8 13 -24 17 -74 17 -35 0 -67 -5
-70 -10 -4 -6 -10 -8 -15 -5 -5 3 -12 -1 -17 -8 -4 -7 -16 -16 -25 -20 -15 -5
-17 -15 -12 -54 3 -26 9 -57 14 -68 10 -27 37 -122 45 -165 4 -19 17 -55 28
-80 26 -57 27 -60 27 -212 0 -102 3 -129 15 -142 9 -9 21 -16 27 -16 6 0 4 -8
-5 -18 -25 -27 -21 -60 19 -164 71 -181 76 -190 100 -184 29 8 42 -13 20 -30
-16 -11 -17 -17 -6 -51 7 -21 16 -42 20 -48 4 -5 26 -58 50 -117 23 -60 47
-108 52 -108 5 0 6 -5 3 -10 -4 -6 -2 -16 3 -23 5 -7 22 -43 37 -82 15 -38 31
-74 35 -80 4 -5 8 -25 8 -44 0 -18 6 -39 11 -44 6 -6 11 -18 11 -27 0 -9 13
-29 30 -45 16 -15 27 -32 24 -37 -3 -4 2 -8 10 -8 9 0 16 -6 16 -14 0 -8 9
-18 20 -21 11 -4 18 -10 15 -15 -5 -7 78 -51 155 -80 19 -8 37 -17 40 -20 3
-3 20 -16 38 -29 l32 -22 0 425 c0 394 -1 426 -17 435 -17 10 -17 10 0 11 15
0 17 12 17 108 0 71 -4 112 -12 120 -9 9 -9 12 0 12 8 0 12 23 12 75 l0 75
-42 0 c-42 1 -43 1 -18 15 14 8 33 14 42 15 16 0 17 14 17 135 l0 135 -47 1
c-35 0 -42 3 -27 9 11 5 32 9 48 9 l27 1 0 130 c0 117 -2 130 -17 130 -17 1
-17 1 0 11 16 9 17 35 17 304 0 163 -4 295 -9 295 -5 0 -14 -7 -21 -15z"/>
<path d="M2605 4421 c-45 -9 -58 -21 -94 -83 -17 -31 -35 -58 -39 -60 -9 -4
-62 -85 -62 -96 0 -4 -13 -29 -29 -54 -16 -25 -32 -56 -36 -69 -4 -13 -16 -35
-27 -49 -33 -44 -66 -97 -73 -121 -8 -23 -18 -41 -92 -156 -18 -28 -33 -54
-33 -57 0 -4 -11 -23 -23 -44 -55 -87 -128 -213 -172 -297 -26 -49 -53 -97
-60 -105 -7 -8 -16 -25 -19 -37 -4 -13 -12 -23 -17 -23 -16 0 -10 -29 11 -50
17 -17 33 -20 125 -20 l104 0 42 38 c26 25 43 49 45 68 1 16 8 30 13 32 6 2
11 10 11 18 0 10 -14 14 -56 14 -34 0 -53 4 -49 10 3 6 33 10 66 10 58 0 60 1
87 41 59 88 74 101 117 98 76 -5 410 0 443 7 18 4 35 11 38 15 3 5 16 9 29 9
20 0 25 7 31 34 5 30 14 38 62 62 72 34 82 42 75 60 -6 17 -55 30 -143 39 -36
4 -74 12 -85 18 -11 6 -87 13 -175 15 -85 2 -159 7 -164 12 -5 5 9 41 33 85
22 42 41 81 41 86 0 5 9 20 21 32 11 12 25 31 30 42 4 11 33 58 63 105 30 47
84 143 121 214 53 105 64 132 53 141 -15 14 -168 26 -213 16z"/>
<path d="M2868 4353 c-19 -24 -128 -206 -128 -216 0 -4 -9 -17 -19 -28 -11
-12 -34 -49 -52 -82 -18 -34 -52 -92 -75 -129 -24 -36 -54 -89 -68 -116 l-25
-50 22 -6 c27 -7 225 -8 252 0 11 3 25 15 31 27 29 59 100 185 117 211 11 16
34 56 52 90 17 33 37 70 44 82 12 18 11 29 -4 78 -10 31 -26 62 -35 69 -9 7
-20 21 -24 32 -5 17 -53 55 -68 55 -3 0 -12 -8 -20 -17z"/>
<path d="M4419 4203 c-1 -5 -1 -11 0 -16 1 -4 -9 -5 -22 -2 -17 5 -35 -4 -70
-32 -42 -34 -47 -42 -47 -80 0 -60 38 -213 60 -245 11 -14 15 -28 10 -30 -7
-2 -7 -21 0 -57 5 -30 10 -86 10 -126 0 -39 3 -75 7 -79 4 -3 7 -48 7 -99 1
-79 4 -96 24 -124 12 -17 22 -35 22 -39 0 -4 30 -70 67 -146 49 -100 72 -138
85 -138 21 0 23 -13 7 -39 -10 -14 -7 -29 14 -74 l26 -57 44 6 c28 4 47 2 51
-5 5 -7 -3 -11 -23 -11 -39 0 -40 -16 -4 -87 17 -34 37 -58 55 -66 15 -6 28
-15 28 -18 0 -16 107 -42 116 -28 3 5 -1 9 -8 10 -7 0 -4 4 7 9 11 5 15 9 9 9
-7 1 -11 17 -10 41 0 22 -2 40 -6 40 -5 0 -7 3 -6 8 2 8 -19 78 -33 107 -6 12
-11 27 -13 35 -5 25 -9 34 -97 245 -22 55 -47 114 -54 130 -56 128 -85 253
-85 369 0 133 -98 514 -144 560 -11 11 -20 24 -18 29 1 4 0 7 -3 7 -3 0 -6 -3
-6 -7z"/>
<path d="M3450 3981 c-29 -8 -39 -44 -19 -68 7 -8 18 -25 24 -37 9 -18 20 -21
74 -22 51 0 65 3 74 18 7 10 23 18 37 18 18 0 21 -3 11 -9 -9 -6 -10 -11 -2
-15 16 -10 31 2 24 19 -3 9 1 15 11 15 25 0 19 29 -12 60 -26 26 -34 28 -113
28 -46 0 -95 -3 -109 -7z"/>
<path d="M4119 3923 c-23 -21 -50 -46 -60 -55 -11 -10 -23 -18 -29 -18 -5 0
-10 -5 -10 -11 0 -5 -4 -8 -8 -5 -12 7 -102 -80 -102 -98 0 -8 -4 -18 -10 -21
-5 -3 -10 -21 -10 -39 0 -18 -9 -45 -20 -59 -11 -14 -20 -28 -20 -32 0 -18
-104 -214 -115 -219 -10 -3 -11 -14 -5 -38 21 -92 62 -119 190 -126 57 -3 93
-10 110 -22 14 -9 40 -22 58 -29 17 -8 32 -16 32 -20 0 -12 83 -31 155 -36 48
-4 65 -2 55 5 -13 8 -13 10 1 10 12 0 15 7 11 25 -2 14 -8 25 -13 25 -5 0 -9
20 -9 44 0 25 -4 48 -10 51 -5 3 -10 18 -10 33 0 54 -11 72 -41 72 -40 0 -46
18 -7 22 23 2 32 8 30 18 -2 8 -6 54 -9 102 -4 53 -11 92 -19 99 -7 6 -10 17
-7 25 3 8 -4 17 -18 22 -22 8 -21 9 8 15 30 6 30 7 23 47 -9 48 -12 52 -53 66
l-32 11 32 7 c35 8 55 26 29 26 -9 0 -16 9 -16 20 0 27 -25 87 -44 106 -14 13
-20 11 -57 -23z"/>
<path d="M3340 3917 c-14 -6 -36 -35 -50 -63 -14 -28 -33 -62 -42 -77 -11 -16
-18 -45 -18 -74 0 -42 1 -45 13 -28 15 19 37 13 37 -11 0 -10 11 -13 39 -12
35 1 39 4 31 19 -15 26 14 47 38 27 19 -17 76 -7 85 15 3 9 -11 12 -54 10 -33
-1 -57 3 -53 8 3 5 20 9 37 9 46 0 63 13 43 33 -10 10 -12 18 -6 22 22 14 -4
25 -58 26 l-57 1 48 8 c27 5 51 10 53 13 5 4 -48 87 -56 87 -3 0 -16 -6 -30
-13z"/>
<path d="M2345 3353 c7 -30 88 -177 113 -205 9 -11 29 -18 48 -18 18 0 36 -4
39 -10 3 -5 35 -10 71 -10 50 0 64 3 64 15 0 8 7 15 15 15 8 0 15 -6 15 -14 0
-16 30 -26 78 -26 33 0 36 -5 32 -49 -2 -30 -64 -154 -85 -171 -8 -7 -15 -21
-15 -31 0 -10 -13 -33 -28 -51 -16 -18 -32 -50 -35 -72 l-6 -39 39 6 c44 6 80
-1 80 -14 0 -5 -30 -9 -66 -9 -57 0 -65 -2 -54 -15 9 -11 9 -22 -1 -50 -10
-27 -10 -38 -1 -47 7 -7 12 -19 12 -28 0 -21 32 -47 53 -44 9 1 21 -4 25 -12
7 -12 15 -9 41 18 18 18 46 55 61 82 27 46 28 51 12 63 -15 12 -14 13 9 7 19
-4 28 -1 33 11 3 10 26 47 50 84 23 36 61 98 83 136 96 167 129 219 141 223
28 9 -3 -65 -68 -158 -9 -14 -39 -65 -65 -115 -26 -49 -53 -97 -60 -105 -19
-22 -113 -186 -145 -252 -31 -65 -30 -103 3 -112 40 -11 155 -19 180 -12 38 9
80 54 125 134 23 41 42 78 42 83 0 5 4 9 9 9 5 0 12 12 15 28 4 15 20 47 37
72 126 192 244 421 264 513 4 21 2 27 -12 27 -16 0 -16 2 -3 11 13 9 12 10 -2
5 -10 -3 -30 -1 -45 4 -15 6 -43 11 -60 13 -18 2 -41 11 -52 21 -14 13 -49 19
-147 26 -92 6 -145 15 -184 31 -66 26 -307 62 -370 54 -80 -9 -160 -10 -160
-3 0 5 -30 8 -66 8 l-66 0 7 -27z"/>
<path d="M2290 3341 c0 -7 -13 -30 -29 -50 -16 -20 -38 -56 -50 -81 -12 -25
-29 -58 -37 -73 -8 -16 -12 -33 -8 -38 7 -12 83 0 109 17 29 19 98 7 90 -15
-4 -9 -7 -20 -8 -26 -1 -5 -6 -13 -10 -16 -5 -3 -7 -19 -5 -35 l3 -29 23 25
c12 13 22 34 22 47 0 14 4 22 9 18 5 -3 12 3 16 14 4 13 -11 53 -45 116 -56
109 -80 146 -80 126z"/>
<path d="M3617 3141 c-31 -20 -67 -64 -67 -82 0 -7 -11 -24 -24 -38 -13 -15
-33 -42 -44 -61 -10 -19 -28 -51 -39 -70 -94 -163 -196 -345 -219 -390 -56
-106 -130 -194 -177 -209 -18 -5 -66 -13 -107 -16 -41 -4 -79 -10 -84 -13 -6
-3 -26 -6 -45 -6 -40 -1 -45 -14 -25 -57 14 -28 112 -119 128 -119 5 0 19 -9
30 -19 12 -11 54 -36 94 -56 40 -20 75 -44 78 -53 7 -24 38 -86 45 -92 8 -7
36 -95 48 -155 15 -76 46 -140 78 -162 34 -24 142 -64 185 -69 18 -2 34 -8 37
-13 6 -10 79 -32 124 -37 61 -8 143 -23 159 -29 15 -6 16 -2 11 31 l-6 38 34
-36 34 -35 70 9 c39 6 78 11 87 12 9 1 34 16 54 33 28 24 35 35 29 52 -5 16
-12 20 -30 15 -29 -7 -42 13 -21 34 14 14 14 19 -5 49 -30 49 -10 39 36 -17
24 -30 41 -44 43 -35 4 15 -32 90 -48 100 -5 3 -10 11 -10 18 0 6 18 -7 40
-28 l40 -39 0 31 c0 16 -9 42 -20 56 -26 33 -25 41 3 22 23 -15 23 -15 35 48
6 34 14 89 17 122 4 33 9 72 11 87 4 22 -3 36 -37 72 -47 52 -41 60 10 16 40
-34 60 -23 33 19 -16 24 -16 25 1 18 13 -5 17 -1 18 21 3 48 6 68 24 141 l18
72 -34 36 -34 36 33 -19 34 -19 19 25 c43 56 57 68 93 85 21 10 40 24 43 32 3
7 10 13 17 13 10 0 49 37 52 50 0 3 4 13 9 24 6 13 3 21 -9 28 -23 13 -67 108
-64 138 2 18 -1 24 -12 22 -8 -2 -12 -1 -8 3 11 11 -13 65 -34 76 -15 8 -18
17 -13 40 4 17 2 29 -4 29 -5 0 -13 9 -16 20 -3 11 -13 20 -21 20 -8 0 -14 5
-14 10 0 6 -8 10 -18 10 -10 0 -22 4 -28 8 -5 5 -29 14 -54 21 -25 7 -79 29
-120 49 -64 31 -89 37 -170 43 -52 3 -120 14 -150 23 -106 33 -117 35 -143 17z"/>
<path d="M1833 3042 c-14 -24 14 -91 47 -110 21 -13 26 -10 66 29 55 54 58 37
4 -23 l-39 -45 37 7 c47 8 74 23 112 60 27 26 44 80 21 65 -5 -3 -12 -1 -16 5
-3 5 0 10 7 10 9 0 9 3 -2 10 -8 5 -62 10 -120 10 -91 0 -107 -2 -117 -18z"/>
<path d="M2458 2985 c-24 -30 -58 -78 -77 -108 -37 -58 -125 -122 -182 -134
-16 -3 -32 -10 -35 -14 -3 -5 -18 -9 -33 -9 -16 0 -66 -14 -112 -31 -46 -17
-97 -34 -114 -39 -16 -4 -49 -17 -72 -29 -23 -12 -48 -21 -56 -21 -7 0 -17 -4
-22 -9 -6 -5 -54 -21 -108 -37 -55 -15 -105 -34 -113 -41 -8 -8 -14 -30 -14
-50 0 -34 27 -93 42 -93 4 0 8 -6 8 -13 0 -11 38 -57 120 -142 35 -37 100
-131 100 -145 0 -5 5 -10 10 -10 11 0 85 -150 121 -242 12 -32 24 -58 26 -58
3 0 14 11 25 26 30 37 34 22 8 -31 -19 -38 -22 -58 -17 -106 3 -33 9 -65 14
-72 5 -7 11 -32 12 -57 2 -25 5 -48 7 -51 2 -4 0 -28 -5 -53 -5 -26 -5 -49 0
-52 8 -5 5 -57 -7 -121 -4 -23 0 -46 16 -78 23 -48 33 -53 56 -30 8 8 21 12
29 9 8 -4 15 -1 15 5 0 6 9 11 20 11 11 0 20 5 20 10 0 6 7 10 15 10 8 0 20 9
27 19 6 10 17 17 25 14 7 -3 18 6 24 21 7 14 15 26 18 26 4 0 8 12 9 28 1 15
7 29 12 30 14 5 12 242 -2 367 -15 130 -15 178 0 183 7 2 10 8 6 13 -3 5 0 9
6 9 6 0 15 10 19 23 5 12 20 35 33 50 13 15 33 45 44 65 12 20 27 36 33 35 6
-2 11 3 11 10 0 6 13 27 29 46 17 19 28 38 26 41 -2 4 3 19 11 34 10 20 14 62
14 143 0 95 3 120 21 154 17 34 19 51 13 109 -5 53 -3 75 8 92 17 26 75 130
96 170 7 15 11 32 8 37 -4 5 2 12 12 15 24 8 67 89 59 110 -5 13 -26 16 -111
16 l-105 0 -43 -55z"/>
<path d="M1322 2853 c-11 -21 -4 -93 9 -93 5 0 9 -7 9 -15 0 -8 4 -15 9 -15 5
0 17 -7 26 -16 12 -13 35 -17 85 -17 55 0 72 4 91 22 22 20 37 25 69 22 43 -4
-29 22 -97 35 -68 13 -83 20 -118 54 -44 43 -69 50 -83 23z"/>
<path d="M0 2794 c0 -42 2 -45 23 -40 l22 6 -22 -11 -23 -12 0 -315 c0 -275 2
-313 15 -308 43 17 47 16 18 -5 -25 -18 -33 -32 -33 -56 0 -25 4 -31 15 -27 8
4 15 2 15 -4 0 -5 -7 -12 -15 -16 -12 -4 -15 -24 -15 -92 l0 -86 27 5 c26 5
26 4 8 -9 -10 -8 -22 -14 -27 -14 -4 0 -8 -36 -8 -81 0 -79 1 -80 23 -74 l22
6 -22 -20 c-13 -11 -23 -31 -23 -46 l0 -26 29 20 c30 21 51 27 51 14 0 -5 -19
-25 -42 -45 -31 -27 -38 -37 -25 -38 10 0 27 9 38 19 11 10 41 24 67 31 26 7
60 18 77 25 16 8 33 11 37 9 4 -3 5 2 2 10 -5 13 -10 13 -27 4 -19 -10 -20 -9
-9 4 8 10 25 15 45 13 17 -2 39 -3 47 -4 13 -1 13 -2 0 -11 -11 -8 -7 -9 15
-4 17 4 37 13 46 21 10 8 26 12 41 8 17 -4 30 1 47 19 22 24 23 31 19 125 -4
75 -10 107 -24 128 -27 40 -54 122 -43 128 5 4 9 1 9 -6 0 -6 19 11 42 40 23
28 45 51 50 51 4 0 8 7 8 15 0 8 5 15 10 15 6 0 10 9 10 20 0 32 26 76 62 104
18 14 27 26 20 26 -10 0 -10 5 -2 20 6 11 18 20 26 20 10 0 14 6 10 15 -3 9 3
24 14 35 11 11 20 25 20 30 0 38 71 95 130 105 53 9 88 27 99 51 14 31 -4 92
-38 129 -16 17 -31 38 -35 49 -7 20 6 21 -181 -8 -55 -9 -124 -16 -154 -16
-71 0 -187 -20 -171 -30 8 -5 7 -9 -5 -14 -29 -11 -48 -7 -41 9 3 10 -1 15
-12 15 -10 0 -29 8 -42 17 -82 58 -174 103 -212 103 -5 0 -8 -21 -8 -46z"/>
<path d="M1011 2781 c-17 -30 -13 -52 9 -58 22 -6 27 -29 9 -35 -35 -12 43
-108 87 -108 29 0 94 33 94 47 -2 46 -39 155 -50 148 -4 -3 -13 1 -19 8 -6 8
-35 15 -65 16 -46 2 -57 -1 -65 -18z"/>
<path d="M4697 2493 c-9 -2 -15 -9 -12 -14 3 -5 -1 -6 -9 -3 -8 3 -25 -4 -38
-16 -12 -11 -33 -23 -45 -26 -13 -4 -23 -10 -23 -14 0 -4 -11 -5 -26 -2 -32 6
-104 -26 -98 -43 3 -7 0 -16 -7 -21 -7 -4 -15 -2 -17 4 -2 7 -10 12 -18 12
-28 0 -53 -36 -68 -95 -23 -92 -23 -121 -2 -144 17 -19 17 -21 3 -21 -10 0
-17 5 -17 12 0 6 -2 9 -5 6 -3 -2 -12 -54 -20 -114 -8 -60 -17 -122 -20 -139
-2 -16 -7 -73 -11 -126 -6 -83 -5 -97 10 -102 23 -9 20 -26 -8 -37 -18 -7 -27
-19 -31 -47 -17 -100 -39 -145 -85 -182 -25 -20 -66 -45 -90 -56 -25 -11 -51
-26 -57 -35 -10 -11 -15 -12 -21 -3 -5 7 -43 14 -97 17 -120 6 -221 21 -330
47 -166 39 -205 45 -215 29 -5 -8 -3 -19 6 -27 8 -8 14 -23 14 -34 0 -10 4
-19 9 -19 4 0 34 -25 66 -55 32 -30 62 -55 67 -55 4 0 8 -8 8 -17 0 -12 17
-25 45 -38 43 -18 60 -31 127 -91 29 -25 48 -31 48 -14 0 6 13 10 29 10 16 0
45 7 65 15 20 8 93 22 162 29 70 8 129 18 133 23 3 4 20 9 36 11 83 8 223 101
208 138 -2 6 4 14 14 16 21 6 63 80 63 111 0 11 -7 29 -17 39 -17 19 -5 26 14
7 8 -8 14 9 22 63 7 40 16 96 22 124 12 62 14 138 4 153 -5 9 -10 9 -21 0 -17
-14 -21 -11 -26 16 -3 20 3 22 34 10 24 -9 32 16 47 140 21 172 40 227 98 274
21 17 45 31 55 31 9 0 23 7 31 15 8 8 17 11 21 8 3 -3 13 0 21 7 15 12 15 14
1 22 -9 5 -16 13 -16 18 0 15 27 12 43 -5 13 -12 19 -13 39 -2 12 6 23 19 23
27 0 8 11 17 25 20 20 5 25 12 25 35 0 23 -7 32 -40 49 -22 12 -51 28 -65 37
-30 20 -59 28 -83 22z"/>
<path d="M1213 2404 c-3 -7 -9 -12 -13 -9 -15 9 -18 -21 -5 -57 11 -33 74
-129 100 -153 22 -20 116 -134 147 -179 18 -25 54 -74 80 -108 53 -72 110
-211 129 -313 7 -38 12 -74 11 -78 -1 -5 7 -6 18 -2 14 5 20 2 20 -10 0 -8 -6
-18 -14 -21 -16 -6 -23 -54 -31 -212 -2 -56 -9 -121 -15 -144 -8 -29 -8 -44
-1 -51 16 -16 13 -35 -7 -55 -11 -11 -22 -40 -25 -65 -6 -40 -4 -45 9 -40 17
6 15 -9 -9 -67 -6 -14 -9 -28 -9 -33 1 -4 -5 -24 -14 -45 -21 -51 -54 -302
-39 -302 5 0 19 10 32 22 l23 21 0 -34 c0 -19 -5 -40 -12 -47 -20 -20 14 -47
40 -33 14 7 23 8 27 1 8 -13 52 -13 60 0 3 6 15 10 25 10 10 0 21 6 23 13 4 9
7 9 15 -1 15 -21 41 -2 51 37 5 20 12 62 15 93 5 55 4 58 -25 79 -30 21 -30
22 -27 98 2 42 8 82 15 89 6 7 10 22 8 34 -3 12 2 41 10 65 8 24 15 79 15 123
0 45 5 82 11 85 6 4 8 13 5 21 -3 8 -8 34 -12 59 -4 36 -3 45 9 45 24 0 32 70
31 250 -1 119 -13 188 -55 311 -57 171 -123 273 -267 419 -57 57 -112 116
-123 131 -30 42 -85 66 -157 67 -46 1 -65 -3 -69 -14z"/>
<path d="M875 2339 c-41 -14 -66 -29 -77 -47 -50 -78 -65 -98 -110 -141 -21
-19 -38 -39 -38 -43 0 -5 -14 -23 -31 -40 -24 -26 -28 -34 -17 -43 18 -14 21
-35 4 -35 -24 0 -34 -100 -15 -147 7 -15 13 -39 15 -53 2 -14 6 -35 9 -47 3
-13 -3 -37 -15 -58 -11 -20 -20 -51 -20 -70 0 -23 -8 -42 -24 -57 -13 -13 -31
-36 -40 -53 -12 -21 -15 -23 -11 -7 4 13 2 22 -5 22 -6 0 -8 5 -5 10 8 12 -7
13 -21 2 -10 -10 -116 -35 -157 -38 -36 -3 -74 -28 -112 -73 -64 -77 -141
-154 -170 -167 l-30 -14 25 17 c38 26 120 111 130 136 6 12 18 33 27 46 17 24
17 24 -4 13 -27 -15 -93 -16 -93 -2 0 14 -16 12 -32 -4 -8 -8 -23 -15 -34 -18
-15 -2 -20 -13 -22 -50 -3 -42 -1 -47 15 -42 17 5 17 5 1 -9 -17 -13 -18 -58
-18 -671 l0 -656 458 0 457 0 23 33 c12 17 43 55 68 82 34 37 38 40 15 10 -17
-22 -45 -59 -62 -82 l-30 -43 85 0 85 0 20 55 c25 66 26 75 6 49 -8 -10 -15
-14 -15 -8 0 5 7 19 15 30 9 12 14 14 15 6 0 -7 5 -10 10 -7 9 5 2 -15 -37
-112 -3 -8 4 -13 18 -13 16 0 32 12 47 33 12 17 41 52 63 77 36 39 38 40 18
10 -12 -19 -35 -51 -51 -71 -15 -20 -28 -40 -28 -43 0 -3 21 -6 48 -6 44 0 49
3 66 34 20 38 66 86 66 70 0 -6 -14 -31 -30 -58 l-30 -47 47 3 c47 3 49 4 76
57 28 57 38 46 12 -16 -8 -19 -15 -37 -15 -39 0 -2 47 -4 105 -4 l104 0 31 66
c16 36 30 75 30 87 0 27 16 54 26 44 4 -4 2 -17 -4 -30 -6 -12 -20 -55 -30
-94 -18 -69 -18 -73 -2 -73 13 0 22 16 33 63 37 149 52 237 40 237 -3 0 -13
-5 -24 -10 -14 -8 -25 -7 -41 5 -13 8 -43 15 -68 15 -25 0 -51 4 -58 9 -7 4
-24 6 -38 3 -29 -5 -53 -47 -95 -167 -15 -44 -28 -73 -29 -64 0 19 33 118 59
174 24 54 32 98 20 115 -8 12 -12 12 -16 3 -10 -26 -18 -12 -20 34 -1 29 -9
57 -23 75 -23 32 -20 55 10 83 12 11 20 31 20 49 0 17 14 76 30 131 17 55 33
127 36 160 5 56 4 59 -10 41 -9 -11 -19 -16 -23 -13 -3 4 3 17 14 30 11 12 23
30 26 40 6 15 3 17 -16 12 -12 -4 -27 -13 -33 -21 -19 -24 -27 -15 -10 11 9
13 16 31 16 38 0 8 8 21 18 28 14 11 15 11 5 -1 -7 -8 -13 -21 -13 -30 0 -12
2 -13 9 -1 5 7 14 11 19 7 10 -6 29 17 31 39 1 6 3 24 6 40 13 78 19 173 19
315 0 133 -3 165 -22 227 -12 40 -27 75 -32 78 -5 3 -18 25 -28 48 -11 23 -34
60 -51 82 -17 22 -42 53 -54 69 -12 15 -44 52 -72 80 -27 29 -63 71 -79 93
-15 23 -39 49 -52 58 -13 8 -24 22 -24 29 0 8 -24 39 -53 69 l-53 54 -28 -23
c-37 -32 -47 -30 -44 9 3 28 0 32 -22 34 -14 2 -52 -7 -85 -18z"/>
<path d="M4994 2299 c-21 -12 -52 -30 -67 -41 -15 -11 -65 -33 -109 -49 -45
-16 -85 -34 -88 -40 -4 -6 -10 -10 -14 -9 -17 5 -64 -23 -74 -43 -27 -58 -34
-88 -47 -191 -6 -48 -5 -56 9 -56 9 0 16 -4 16 -10 0 -5 -6 -10 -13 -10 -13 0
-33 -94 -52 -240 -7 -54 7 -78 56 -97 33 -13 33 -13 4 -7 -16 3 -38 13 -48 21
-9 9 -19 14 -21 12 -2 -2 -8 -35 -14 -74 -12 -83 -15 -96 -25 -112 -4 -7 -11
-35 -14 -63 -3 -27 -10 -50 -16 -50 -5 0 -5 -6 2 -14 15 -18 3 -49 -16 -42
-18 7 -46 -7 -98 -49 -81 -65 -178 -101 -369 -137 -32 -6 -67 -19 -78 -30 -10
-10 -23 -16 -28 -13 -17 10 -35 -72 -22 -100 7 -14 9 -44 6 -69 -6 -43 -4 -47
38 -91 54 -55 76 -97 98 -182 6 -24 16 -42 22 -40 6 1 13 -4 16 -12 3 -8 0
-11 -7 -7 -13 8 -4 -53 10 -68 5 -6 9 -21 9 -35 0 -29 40 -94 85 -138 47 -45
106 -86 99 -68 -3 8 -1 15 5 15 6 0 11 -4 11 -10 0 -5 11 -10 24 -10 13 0 29
-7 36 -15 18 -21 22 -13 11 18 -15 38 7 25 44 -26 17 -22 33 -39 36 -36 3 2
13 -2 22 -10 15 -11 17 -11 17 2 0 26 -19 69 -29 63 -5 -3 -12 1 -15 10 -9 24
-7 44 4 44 6 0 10 -5 10 -10 0 -15 69 -111 106 -148 l33 -32 154 1 154 1 -31
48 c-17 26 -43 69 -58 96 -15 27 -45 77 -68 112 -22 34 -38 62 -36 62 8 0 111
-153 145 -215 57 -103 60 -105 168 -105 l94 0 -44 57 c-25 32 -57 72 -71 88
-15 17 -36 44 -48 60 -27 40 63 -54 132 -137 l55 -67 70 0 c39 0 65 3 58 5 -7
3 -33 34 -58 69 -25 35 -59 73 -75 85 -17 12 -35 31 -41 43 -8 18 -5 17 15 -5
14 -16 29 -28 34 -28 6 0 18 -12 28 -28 10 -15 42 -53 72 -85 l55 -57 89 0 89
0 -2 130 c-1 122 -3 133 -25 159 -13 16 -24 35 -24 42 1 8 12 1 25 -16 l25
-30 0 153 c0 128 -3 157 -17 180 -17 26 -17 26 0 13 15 -12 17 -11 17 3 0 9
-4 16 -9 16 -5 0 -12 7 -15 16 -5 14 -4 15 9 4 13 -11 15 10 15 191 l0 203
-32 28 c-22 19 -24 24 -8 14 13 -9 28 -16 32 -16 5 0 8 48 8 107 0 105 -1 108
-27 131 -22 18 -23 21 -6 13 30 -15 33 -14 33 10 0 11 -10 30 -22 40 l-23 20
23 -11 22 -11 0 96 0 95 -55 31 c-63 36 -71 46 -19 24 78 -32 74 -43 74 215 0
207 -2 232 -18 248 -39 38 -94 74 -159 102 -67 30 -79 36 -179 91 l-50 28 -40
-20z"/>
<path d="M2598 2053 c-10 -2 -18 -11 -18 -20 0 -8 -9 -17 -21 -20 -13 -4 -19
-12 -16 -23 7 -26 108 -180 118 -180 5 0 9 -6 9 -12 1 -18 66 -89 97 -105 14
-7 33 -13 42 -13 9 0 21 -4 27 -10 5 -5 42 -12 81 -16 92 -9 103 -1 103 72 0
56 -8 70 -59 104 -13 8 -35 26 -50 40 -84 76 -125 110 -136 110 -11 0 -84 45
-95 59 -5 6 -19 10 -50 16 -8 2 -23 1 -32 -2z"/>
<path d="M2441 1760 c-12 -41 -8 -80 10 -80 5 0 9 -16 7 -35 -1 -22 5 -45 18
-62 12 -16 24 -40 28 -55 3 -16 11 -28 16 -28 6 0 10 -7 10 -15 0 -8 6 -15 13
-15 7 0 26 -14 43 -31 16 -17 54 -42 84 -56 60 -26 238 -77 310 -88 25 -4 57
-14 72 -21 30 -16 57 -18 75 -6 24 15 -36 166 -77 195 -11 7 -17 17 -13 20 3
4 1 7 -5 7 -7 0 -12 -13 -12 -30 0 -16 -5 -30 -11 -30 -7 0 -9 12 -5 33 6 32
5 34 -46 54 -96 38 -152 51 -175 42 -18 -7 -23 -5 -23 9 0 10 -16 24 -38 34
-37 17 -162 127 -162 143 0 17 -47 50 -76 53 -28 3 -32 0 -43 -38z"/>
<path d="M2415 1407 c-29 -15 -35 -27 -35 -74 0 -24 -4 -43 -10 -43 -5 0 -10
-5 -10 -10 0 -12 -41 -73 -52 -78 -5 -2 -8 -9 -8 -15 -1 -21 -37 -56 -65 -63
-27 -7 -85 -58 -85 -75 0 -5 -6 -9 -13 -9 -19 0 -57 -43 -57 -63 0 -9 -4 -17
-9 -17 -6 0 -9 -10 -8 -22 1 -13 -2 -49 -7 -81 -15 -106 22 -131 212 -141 132
-7 160 -2 168 30 7 28 24 22 24 -9 0 -16 3 -18 9 -8 7 11 9 11 14 0 3 -11 9
-9 21 6 13 17 15 18 16 3 0 -33 188 -46 207 -14 4 6 10 61 14 121 l6 110 2
-110 c1 -60 5 -115 9 -122 5 -7 34 -10 87 -8 l80 3 3 37 c2 22 8 35 15 32 17
-5 21 -58 6 -68 -7 -4 7 -7 32 -8 24 0 53 -1 64 -3 17 -3 20 3 20 41 0 29 5
46 14 49 11 4 12 -3 7 -29 -5 -28 -2 -37 14 -47 23 -14 111 -19 131 -7 7 5 37
7 66 6 51 -2 53 -1 53 23 0 14 -4 28 -10 31 -15 9 -12 25 5 25 9 0 15 -9 16
-22 0 -22 1 -22 10 2 15 37 -7 147 -37 192 -26 36 -66 58 -109 58 -31 0 -50
24 -31 39 13 11 12 15 -2 32 -9 10 -22 19 -29 19 -7 0 -13 5 -13 10 0 6 -14
10 -30 10 -17 0 -38 4 -48 9 -9 4 -50 19 -90 31 -55 18 -75 21 -84 12 -19 -19
-48 -14 -48 8 0 11 -12 26 -30 35 -43 22 -60 19 -60 -10 0 -14 -4 -25 -10 -25
-5 0 -10 14 -10 30 0 20 -6 33 -17 36 -70 23 -184 81 -203 105 -3 4 -23 16
-45 27 -32 16 -45 18 -60 9z"/>
<path d="M3497 923 c-3 -5 -8 -57 -12 -118 -7 -106 -19 -149 -47 -172 -7 -6
-44 -13 -83 -16 -92 -7 -108 -14 -102 -44 6 -32 -19 -12 -27 22 -8 30 -36 33
-36 5 0 -24 -4 -25 -35 -4 -19 13 -39 14 -100 9 -41 -4 -75 -11 -75 -16 0 -5
-4 -9 -10 -9 -5 0 -10 7 -10 15 0 13 -39 15 -293 15 -336 0 -628 -10 -622 -21
3 -4 -6 -18 -20 -30 -49 -48 -23 -159 38 -159 22 0 27 7 42 65 10 36 22 68 27
71 5 3 8 -24 6 -62 l-3 -68 38 -7 c34 -5 40 -3 48 18 12 31 12 56 0 48 -16 -9
-33 33 -22 52 8 16 10 14 16 -9 4 -15 14 -29 22 -32 11 -4 13 -14 8 -36 -8
-38 10 -66 31 -49 8 6 14 23 14 37 0 33 21 92 33 92 5 0 6 -12 2 -28 -4 -15
-9 -47 -12 -71 -5 -38 -3 -43 12 -38 9 4 23 7 30 7 19 0 49 101 33 111 -8 5
-6 12 7 25 18 18 18 17 11 -35 -4 -30 -9 -66 -12 -81 -6 -25 -4 -27 28 -26 22
1 37 8 45 21 10 17 12 17 13 3 0 -21 73 -34 127 -23 21 5 120 7 221 6 l182 -2
1 28 c0 27 1 27 9 5 10 -25 51 -45 61 -30 3 5 11 2 18 -6 17 -21 40 -9 34 17
-4 21 -4 22 11 3 13 -16 29 -20 86 -20 53 -1 69 2 65 12 -3 9 0 10 15 2 10 -5
25 -7 33 -4 8 3 18 1 22 -5 8 -14 155 -14 225 -1 73 14 86 29 101 113 20 119
-11 226 -97 343 -13 17 -21 34 -18 37 6 6 -50 47 -64 47 -6 0 -13 -3 -15 -7z"/>
<path d="M3776 440 c-9 -22 -32 -56 -51 -74 -42 -41 -94 -54 -223 -57 l-91 -1
6 -28 c7 -36 -14 -48 -28 -16 -11 24 -39 44 -39 27 0 -4 5 -22 11 -39 6 -17 9
-39 6 -49 -3 -12 -12 0 -30 39 -23 50 -31 58 -61 63 -42 8 -59 0 -51 -25 4
-12 -1 -19 -16 -23 -12 -3 -18 -10 -14 -17 4 -6 8 -46 10 -88 l3 -77 -18 50
c-22 59 -24 79 -9 69 18 -11 0 39 -21 57 -9 8 -20 25 -24 36 -6 19 -46 40 -46
25 0 -4 -46 -8 -101 -8 -68 -1 -104 -6 -109 -14 -6 -9 -9 -9 -13 1 -3 8 -6 2
-6 -13 -1 -37 -16 -35 -30 3 -9 26 -15 30 -33 25 -13 -3 -28 -6 -35 -6 -7 0
-14 -37 -18 -105 -4 -58 -11 -102 -16 -99 -5 3 -9 -18 -9 -45 l0 -51 70 0 c70
0 70 0 71 28 l1 27 10 -27 c5 -16 16 -28 23 -28 12 0 14 22 10 117 l-3 118 10
-117 11 -118 93 0 c88 0 93 1 97 23 l4 22 8 -22 c4 -14 15 -23 27 -23 15 0 18
5 14 23 l-6 22 11 -22 c10 -20 20 -23 69 -23 l57 0 -13 58 c-21 87 -15 96 11
17 l23 -70 416 -3 c229 -1 416 2 416 6 0 12 -30 37 -65 53 -36 17 -113 112
-147 181 -23 48 -62 145 -63 158 0 3 -9 19 -20 35 -38 58 -57 59 -79 5z"/>
<path d="M2218 299 c-14 -8 -18 -23 -18 -67 0 -40 3 -53 10 -42 8 12 10 12 10
-5 0 -24 -18 -142 -26 -167 -5 -16 4 -18 100 -18 l105 0 6 48 c3 26 13 89 21
140 9 51 13 99 10 107 -8 21 -89 20 -106 0 -10 -12 -15 -13 -21 -4 -9 16 -69
21 -91 8z"/>
<path d="M2461 291 c-8 -16 -29 -166 -34 -248 l-3 -43 123 0 122 0 4 28 4 27
2 -27 c0 -17 7 -28 15 -28 12 0 15 26 15 150 0 131 -2 150 -17 154 -9 3 -63 5
-120 4 -83 -1 -105 -5 -111 -17z"/>
<path d="M1963 288 c-13 -6 -23 -20 -23 -33 0 -11 -4 -25 -10 -31 -5 -5 -14
-41 -20 -79 -6 -39 -14 -87 -17 -108 -6 -36 -5 -37 27 -37 19 0 39 7 47 18 14
16 14 16 9 -1 -5 -15 4 -17 98 -17 l103 0 13 60 c7 34 10 78 6 102 -4 24 -10
64 -13 91 -5 46 -7 47 -39 47 -29 0 -34 -3 -34 -24 0 -28 -15 -42 -26 -25 -5
9 -11 7 -21 -6 -12 -17 -13 -15 -13 18 0 35 -2 37 -32 36 -18 0 -43 -5 -55
-11z"/>
</g>
</svg>
