<?xml version="1.0" standalone="no"?>
<!DOCTYPE svg PUBLIC "-//W3C//DTD SVG 20010904//EN"
 "http://www.w3.org/TR/2001/REC-SVG-20010904/DTD/svg10.dtd">
<svg version="1.0" xmlns="http://www.w3.org/2000/svg"
 width="544.000000pt" height="544.000000pt" viewBox="0 0 544.000000 544.000000"
 preserveAspectRatio="xMidYMid meet">
<metadata>
Created by potrace 1.16, written by Peter Selinger 2001-2019
</metadata>
<g transform="translate(0.000000,544.000000) scale(0.100000,-0.100000)"
fill="#000000" stroke="none">
<path d="M2 4623 l3 -817 35 -8 c89 -23 112 -30 108 -33 -2 -2 -35 2 -73 10
-39 8 -71 15 -72 15 -9 0 -1 -108 9 -118 18 -18 59 -16 52 3 -4 8 -2 15 2 15
20 0 156 -28 161 -34 3 -3 14 -1 24 5 13 6 28 5 51 -5 30 -13 19 -14 -134 -12
l-168 1 0 -32 c0 -27 4 -32 27 -36 l28 -4 -27 -2 c-27 -1 -28 -3 -28 -51 l0
-50 94 0 c53 0 98 -4 101 -10 4 -6 -30 -10 -94 -10 l-101 0 0 -264 c0 -301 -9
-276 96 -276 51 0 78 -6 129 -30 35 -16 67 -30 71 -30 3 0 22 -7 41 -16 28
-14 41 -15 72 -5 21 6 48 11 60 11 12 0 25 8 28 18 8 21 23 32 46 32 20 0 23
-25 4 -34 -6 -3 1 -4 17 0 17 3 68 10 115 15 92 10 121 26 114 62 -2 12 -9 78
-16 147 -8 87 -16 125 -25 125 -6 0 -12 5 -11 10 1 6 5 9 10 7 5 -1 9 14 7 33
-2 34 -13 46 -20 23 -5 -14 -38 -3 -38 12 0 6 13 13 29 16 28 6 29 7 29 72 0
37 -4 73 -11 80 -8 10 -7 16 3 22 10 6 14 29 13 82 -1 60 31 265 53 340 3 11
-2 17 -17 20 -12 2 -24 9 -27 16 -3 11 0 12 18 2 29 -16 50 -6 48 22 -2 20 9
61 45 178 6 19 10 42 9 51 -2 9 6 19 17 22 11 3 22 17 26 36 6 28 2 36 -45 82
-28 27 -50 55 -48 60 6 17 23 11 26 -8 3 -17 71 -53 100 -53 24 0 12 30 -19
45 -40 21 -32 41 14 37 30 -3 37 0 37 15 0 15 2 15 9 4 8 -12 15 -8 40 18 17
18 31 40 31 48 0 17 -45 64 -54 57 -3 -2 -4 -1 -1 3 3 3 -5 17 -17 30 -12 12
-19 25 -16 28 9 9 38 -6 38 -19 0 -16 42 -56 58 -56 9 0 10 5 3 18 -8 14 -4
17 21 18 35 1 48 17 48 58 0 21 4 27 15 23 11 -5 13 0 8 25 -6 29 -5 30 17 18
21 -11 26 -9 57 25 18 20 33 40 33 44 0 4 -11 18 -25 31 -14 13 -25 28 -25 34
0 5 12 -2 28 -16 31 -29 35 -28 110 31 26 20 41 39 38 47 -3 8 -1 14 5 14 6 0
-1 21 -15 47 -33 58 -28 67 8 13 14 -22 32 -40 39 -40 21 1 70 47 58 54 -6 4
-11 3 -11 -3 0 -6 -7 -8 -15 -5 -11 5 -13 2 -8 -12 4 -10 -9 -2 -30 18 -20 21
-37 46 -37 57 0 29 27 16 46 -21 12 -23 18 -27 29 -18 8 7 19 9 24 5 13 -8 4
21 -18 55 -15 22 -15 24 2 17 11 -4 17 -2 17 8 0 8 5 15 10 15 6 0 8 -15 4
-40 l-7 -40 39 0 c41 0 73 13 57 23 -5 4 -10 22 -11 42 -1 29 2 36 16 34 46
-4 51 0 41 30 -6 16 -17 32 -25 35 -8 3 -14 13 -14 21 0 12 8 8 30 -13 17 -17
30 -37 30 -45 0 -8 12 -22 26 -32 25 -16 25 -16 13 7 -6 13 -16 29 -22 36 -6
7 -12 28 -14 45 -1 18 -14 57 -27 87 -14 30 -34 76 -45 103 l-20 47 -65 0
c-39 0 -66 -4 -66 -10 0 -12 66 -120 100 -163 12 -15 20 -30 17 -33 -7 -8 -60
64 -97 131 -18 33 -36 64 -40 68 -13 15 16 -76 43 -136 31 -67 33 -74 11 -56
-19 16 -54 83 -54 104 0 18 -42 95 -52 95 -3 0 -9 -8 -11 -17 -4 -17 -5 -17
-6 0 -1 21 -21 23 -21 2 0 -16 28 -76 39 -85 4 -3 26 -38 50 -78 46 -76 53
-108 11 -44 -14 20 -44 57 -69 82 l-43 45 33 -60 c29 -53 30 -58 9 -40 l-23
20 12 -22 c6 -13 8 -23 4 -22 -15 1 -92 103 -123 162 l-30 57 -610 0 -610 0 2
-817z m590 664 c18 -18 46 -50 61 -70 16 -21 33 -34 39 -31 6 4 8 3 5 -3 -3
-5 12 -27 34 -49 49 -47 82 -114 57 -114 -6 0 -7 8 -4 17 4 10 4 14 0 10 -4
-4 -14 -1 -23 6 -12 9 -11 7 2 -13 21 -30 21 -40 3 -40 -8 0 -16 -6 -19 -12
-5 -17 -171 134 -226 205 -39 51 -52 87 -32 87 5 0 16 -6 23 -12 78 -71 81
-73 69 -51 -6 12 -29 37 -52 56 l-41 35 29 5 c15 2 31 5 35 6 4 0 22 -14 40
-32z m-60 -140 c46 -45 104 -100 131 -121 56 -46 62 -64 10 -33 l-38 22 30
-40 29 -40 -40 36 c-21 20 -48 42 -58 50 -36 26 -176 173 -176 184 0 14 10 25
21 25 5 0 45 -37 91 -83z m-129 23 c50 -28 97 -65 97 -76 0 -2 -11 3 -25 12
-53 35 -30 7 44 -53 42 -35 92 -77 112 -94 20 -17 43 -31 50 -32 17 -3 122
-85 128 -100 2 -5 -13 2 -33 18 -35 27 -42 24 -36 -15 2 -18 -9 -8 -24 21 -6
11 -27 30 -46 42 -30 19 -27 12 29 -50 35 -39 88 -93 118 -120 47 -41 103
-111 103 -128 0 -3 -13 -5 -29 -5 -33 0 -51 17 -27 26 9 3 16 11 16 17 0 12
-154 164 -252 250 -32 27 -55 53 -53 58 9 13 -49 48 -65 39 -11 -6 -24 1 -42
21 -16 16 -22 25 -16 19 7 -5 17 -10 22 -10 6 0 -1 8 -14 17 -14 10 -29 16
-35 15 -5 -2 -7 0 -3 4 4 4 -2 22 -13 41 -12 19 -19 37 -16 40 3 3 -7 16 -24
30 -26 22 -38 43 -24 43 3 0 29 -13 58 -30z m-108 -92 c72 -24 118 -55 189
-126 41 -42 73 -78 71 -80 -3 -3 -11 1 -20 8 -8 7 -15 9 -15 5 0 -3 -16 3 -35
15 -42 26 -45 21 -9 -15 43 -43 17 -42 -29 1 -23 23 -71 61 -107 86 -36 25
-78 60 -94 76 -29 31 -27 59 3 46 9 -3 30 -11 46 -16z"/>
<path d="M1638 5383 c16 -32 37 -82 47 -111 16 -49 18 -52 31 -35 13 16 13 15
3 -9 -9 -22 -9 -37 0 -68 13 -44 37 -57 27 -14 -4 15 -3 23 3 20 5 -3 7 4 4
16 -4 23 -4 23 12 3 9 -11 20 -26 24 -34 15 -25 34 -1 28 35 -7 40 9 45 23 8
10 -26 37 -29 33 -3 -1 8 -5 28 -8 44 -5 27 -4 28 6 8 14 -27 33 -35 65 -27
18 5 23 11 18 28 -3 12 -1 33 4 46 10 24 10 24 18 5 4 -11 14 -26 21 -33 11
-11 14 -11 18 1 8 19 -11 66 -30 73 -9 4 -17 25 -21 55 l-7 49 -143 0 -143 0
11 -31 c15 -43 5 -46 -18 -4 -10 20 -26 35 -36 35 -16 0 -15 -6 10 -57z"/>
<path d="M2240 5425 c0 -9 6 -12 15 -9 9 4 18 -2 24 -17 5 -13 10 -18 10 -11
1 7 5 11 10 7 6 -3 14 2 19 11 8 14 12 12 27 -14 10 -17 21 -29 24 -27 3 1 30
-1 60 -6 61 -9 91 1 91 32 0 12 5 19 13 16 6 -2 12 -13 12 -24 0 -12 3 -25 8
-29 4 -4 7 9 7 29 0 44 15 49 23 8 5 -26 11 -30 39 -29 58 0 68 6 68 44 l0 34
-115 0 -114 0 6 -30 c4 -24 2 -30 -12 -30 -14 0 -16 6 -13 30 l5 30 -104 0
c-84 0 -103 -3 -103 -15z"/>
<path d="M2826 5408 c-7 -37 4 -48 50 -48 23 0 34 6 43 26 13 30 33 27 41 -7
5 -21 12 -24 57 -27 48 -3 52 -1 61 25 l10 28 1 -32 c1 -17 5 -34 10 -38 13
-7 95 -25 151 -31 42 -5 46 -4 57 23 40 97 41 99 42 76 1 -13 5 -23 10 -23 4
0 6 -11 4 -24 -3 -14 0 -40 7 -60 11 -34 12 -35 35 -20 15 10 25 12 30 5 3 -6
1 -11 -4 -11 -6 0 -11 -7 -11 -15 0 -24 39 -18 50 8 4 12 19 57 32 100 l24 77
-189 0 c-169 0 -191 -2 -203 -17 -13 -17 -13 -17 -14 0 0 15 -14 17 -144 17
l-143 0 -7 -32z"/>
<path d="M3542 5423 c-18 -34 -42 -127 -42 -162 0 -20 7 -45 15 -55 14 -18 15
-18 25 8 5 15 10 33 10 39 0 7 8 21 16 32 18 22 18 24 -2 -80 -7 -39 -7 -40
13 -22 25 22 33 22 33 -2 0 -11 9 -23 22 -27 12 -3 28 -13 36 -20 7 -8 24 -14
36 -14 13 0 29 -7 36 -15 7 -8 28 -25 47 -36 l36 -22 19 24 19 24 -7 -27 c-3
-16 -2 -28 2 -28 5 0 18 12 31 28 18 21 22 23 23 10 0 -10 4 -18 8 -18 13 0
73 66 66 73 -9 9 35 81 58 96 21 13 21 12 -2 -25 -12 -22 -32 -55 -42 -74 -11
-19 -35 -51 -54 -70 -19 -20 -34 -38 -34 -41 0 -3 8 -16 19 -27 19 -22 41 -29
41 -13 0 5 8 11 18 14 9 2 25 8 35 12 26 11 21 -14 -8 -41 -30 -28 -31 -36 -4
-60 21 -19 21 -18 45 9 27 31 31 25 9 -13 -25 -44 -26 -43 68 -85 33 -14 38
-21 34 -41 -3 -20 0 -24 19 -24 24 0 54 24 54 44 0 15 79 96 93 96 6 0 24 15
41 34 17 19 37 36 45 38 8 2 32 23 54 48 105 116 142 150 164 150 13 0 31 9
40 20 10 11 24 20 33 20 10 0 5 -10 -15 -29 -31 -28 -80 -86 -55 -63 8 6 19
12 24 12 15 0 -100 -104 -162 -146 -29 -20 -61 -47 -71 -60 -10 -13 -25 -22
-33 -19 -8 3 -48 -30 -103 -85 -68 -70 -86 -93 -76 -103 6 -6 21 -12 34 -12
17 0 21 -5 19 -22 -3 -20 1 -23 32 -23 29 0 36 4 36 20 0 17 5 19 25 14 17 -4
25 -2 25 7 0 8 16 27 36 43 27 21 33 31 23 37 -7 4 -11 10 -9 12 3 2 39 32 80
67 41 34 75 66 75 71 0 14 176 188 197 195 34 11 32 -4 -8 -42 -174 -164 -214
-201 -235 -215 -13 -10 -21 -20 -17 -24 3 -4 36 17 72 45 36 29 66 48 66 44 0
-4 11 3 24 15 17 16 31 21 46 16 21 -7 21 -8 -11 -43 -32 -35 -32 -35 -4 -12
17 14 53 47 82 73 29 26 57 47 63 47 23 0 7 -21 -47 -65 -32 -25 -77 -61 -99
-80 -23 -19 -69 -55 -103 -81 -33 -25 -61 -50 -61 -56 0 -5 19 6 43 25 55 45
85 60 104 52 25 -9 -39 -70 -111 -107 -59 -30 -79 -31 -55 -2 14 17 -55 -22
-132 -74 -69 -47 -77 -59 -44 -72 33 -13 35 -13 35 3 0 11 43 37 61 37 4 0 5
-10 1 -22 -5 -19 -2 -21 24 -15 16 3 38 9 49 13 16 6 14 1 -9 -24 -17 -18 -38
-32 -48 -32 -9 0 -22 -9 -28 -19 -15 -28 -13 -33 10 -26 15 5 26 0 40 -17 11
-13 19 -17 20 -11 0 7 3 12 8 11 17 -5 50 23 46 39 -7 28 139 113 193 113 23
0 4 -20 -60 -61 -67 -43 -68 -45 -9 -25 25 9 44 11 47 5 4 -5 3 -9 -2 -9 -4 0
-46 -22 -91 -49 -63 -36 -79 -49 -65 -53 27 -7 132 42 179 84 21 19 58 42 82
51 46 18 97 23 88 8 -11 -18 18 -17 36 1 10 10 25 18 33 18 8 0 15 6 15 14 0
8 10 22 22 30 12 9 19 16 14 16 -5 0 7 16 27 35 20 19 41 35 47 35 5 0 10 4
10 9 0 15 84 41 133 41 53 0 97 -19 140 -58 l27 -26 0 382 0 382 -577 0 -578
0 -28 -44 c-15 -24 -42 -55 -60 -69 -29 -22 -137 -167 -137 -183 0 -4 11 5 25
20 37 40 51 31 16 -12 -17 -22 -37 -45 -46 -52 -18 -15 -21 0 -3 18 7 7 8 12
2 12 -6 0 -16 -6 -23 -12 -39 -40 44 95 119 192 15 19 33 46 40 59 19 37 -6
15 -41 -35 -35 -51 -49 -53 -24 -4 9 18 14 34 11 38 -3 3 -6 0 -6 -7 0 -7 -22
-36 -50 -63 -27 -27 -50 -46 -50 -41 0 5 15 34 33 64 18 30 36 61 41 69 14 28
-72 -74 -96 -112 -13 -21 -26 -38 -30 -38 -10 0 3 41 25 77 17 29 17 34 4 48
-14 13 -19 11 -44 -26 -15 -22 -36 -50 -45 -62 l-17 -22 -1 26 c0 14 11 44 25
65 l25 39 -30 -35 c-38 -44 -38 -31 0 32 17 26 30 50 30 53 0 3 -11 5 -24 5
-17 0 -27 -9 -36 -30 -7 -16 -19 -35 -28 -42 -13 -12 -14 -9 -8 25 5 25 4 37
-3 33 -5 -3 -11 0 -14 6 -3 10 -8 9 -22 -2 -11 -9 -16 -10 -11 -2 5 8 0 12
-16 12 -19 -1 -29 -14 -57 -75 -19 -42 -40 -80 -48 -86 -21 -18 -16 9 11 55
25 44 41 106 27 106 -5 0 -24 -34 -42 -76 -40 -91 -50 -84 -15 10 l25 66 -48
0 c-49 0 -79 -18 -66 -40 4 -6 2 -9 -4 -8 -5 2 -17 -6 -25 -17 -14 -18 -14
-16 0 19 16 40 13 62 -4 29z"/>
<path d="M2733 5292 c-6 -4 -12 -15 -14 -25 -4 -18 -6 -18 -31 3 -19 15 -37
20 -57 17 -44 -7 -53 -16 -47 -43 7 -28 -2 -74 -15 -74 -5 0 -9 23 -9 51 l0
51 -47 -6 c-133 -16 -141 -18 -146 -37 -3 -10 1 -24 9 -30 8 -7 12 -20 9 -30
-3 -10 1 -29 10 -42 11 -18 13 -30 6 -48 -7 -17 -10 -19 -10 -6 -1 9 -5 17
-10 17 -6 0 -11 14 -13 32 -4 43 -26 48 -30 6 -2 -20 -8 -32 -15 -30 -7 1 -13
-1 -13 -4 0 -9 28 -34 38 -34 6 0 12 -5 14 -10 5 -16 105 -17 120 -2 7 7 12
30 11 52 -1 22 2 40 8 40 5 0 9 -10 10 -22 3 -67 -3 -63 87 -66 50 -2 82 0 82
7 0 6 28 7 75 4 55 -4 79 -2 91 8 14 11 18 11 29 -4 7 -9 24 -17 38 -17 13 0
71 -10 128 -21 128 -26 178 -28 194 -6 16 22 28 21 49 -2 11 -13 13 -20 6 -23
-8 -2 -5 -12 7 -27 27 -33 43 -19 43 34 0 24 5 47 12 51 8 5 9 -4 5 -33 -4
-23 -4 -54 -1 -71 5 -26 13 -32 62 -48 31 -9 71 -26 88 -36 21 -12 35 -15 39
-8 12 19 35 11 32 -12 -2 -19 4 -24 33 -28 24 -4 34 -10 33 -20 -3 -18 52 -54
67 -45 6 3 10 12 10 20 0 8 5 17 11 21 7 4 10 -7 8 -33 -4 -47 5 -63 31 -56
15 4 20 0 20 -15 0 -15 5 -19 19 -15 13 3 21 -2 25 -15 9 -27 104 -115 143
-132 17 -8 29 -18 27 -22 -3 -4 2 -8 10 -8 8 0 18 5 21 10 3 6 11 10 18 10 6
0 -1 -12 -17 -27 -19 -17 -25 -28 -17 -31 7 -2 18 1 24 7 15 15 36 14 54 -4
12 -12 12 -19 3 -30 -6 -8 -9 -19 -5 -25 9 -15 45 -12 45 4 0 8 7 17 16 20 24
9 27 8 21 -14 -6 -25 12 -26 68 -4 32 12 41 20 40 37 -1 14 -9 23 -23 25 -14
2 -22 10 -22 24 0 21 -9 21 -52 3 -22 -9 -24 8 -4 24 11 10 12 19 4 42 -9 27
-14 29 -39 24 -34 -8 -38 7 -11 39 17 20 16 21 -3 5 -48 -38 -125 -78 -125
-65 0 17 34 48 43 39 10 -10 67 48 67 68 0 20 -105 93 -120 84 -13 -8 -13 1 0
25 14 26 -4 33 -25 10 -20 -22 -35 -18 -35 11 0 15 -7 19 -31 19 -30 0 -31 1
-25 35 7 33 -5 48 -19 25 -9 -15 -25 -12 -25 4 0 7 -7 19 -15 26 -12 10 -18 8
-32 -6 -17 -17 -18 -16 -21 23 -3 37 -6 42 -34 48 -16 4 -39 16 -49 26 -19 19
-45 27 -35 10 3 -5 0 -14 -8 -20 -11 -9 -15 -8 -20 5 -5 13 -9 14 -21 4 -21
-17 -32 -4 -17 20 7 11 12 28 12 37 -1 11 -10 1 -22 -22 -12 -22 -23 -35 -25
-28 -2 7 0 21 6 32 15 28 -12 22 -39 -9 -19 -22 -21 -23 -17 -5 3 11 8 27 11
36 5 10 -5 23 -33 41 l-41 27 -9 -37 c-5 -20 -12 -48 -15 -62 -3 -14 -3 3 -1
38 4 56 -5 82 -18 50 -3 -8 -6 -6 -6 5 -1 9 -6 17 -12 17 -5 0 -8 4 -4 9 3 5
1 12 -4 16 -6 3 -15 -4 -21 -15 -6 -11 -15 -19 -20 -17 -5 1 -16 -7 -25 -18
l-17 -20 7 20 c22 65 24 75 9 75 -8 0 -16 -6 -18 -12 -24 -82 -26 -84 -21 -27
6 64 8 62 -85 85 -79 19 -99 18 -110 -8 -8 -22 -9 -22 -9 5 -1 30 11 28 -186
31 -60 1 -60 1 -63 -29 -5 -45 -22 -56 -22 -14 0 18 -4 39 -8 45 -10 15 -37
23 -49 16z"/>
<path d="M1940 5084 c-6 -14 -10 -33 -10 -42 -1 -15 -2 -15 -14 1 -13 17 -15
17 -29 -3 l-15 -21 -16 23 c-9 13 -17 23 -19 23 -1 -1 -22 -12 -47 -25 -25
-14 -46 -25 -48 -26 -1 0 4 -13 12 -28 7 -15 11 -36 9 -47 -5 -19 -7 -19 -32
5 -33 32 -42 32 -89 2 -62 -39 -107 -88 -104 -112 4 -28 -14 -40 -35 -22 -14
11 -16 11 -8 -1 6 -10 4 -13 -6 -9 -24 9 -65 -14 -121 -68 -58 -57 -91 -94
-82 -94 2 0 -7 -12 -21 -27 -14 -15 -25 -31 -25 -35 0 -3 -12 -21 -27 -38 -22
-26 -24 -34 -12 -40 33 -20 53 -39 47 -45 -4 -4 -20 2 -36 14 l-30 21 -16 -24
c-8 -14 -17 -30 -18 -38 -2 -7 -13 -21 -25 -31 -27 -21 -30 -45 -8 -53 12 -5
13 -9 4 -21 -7 -7 -18 -12 -26 -9 -16 6 -16 1 -2 -25 10 -19 9 -20 -12 -9 -22
12 -38 1 -39 -26 0 -7 -7 -15 -16 -18 -9 -4 -14 -9 -11 -12 3 -3 -4 -15 -15
-26 l-21 -21 26 -21 c14 -12 36 -29 49 -38 16 -12 18 -17 8 -18 -8 0 -28 11
-44 25 -16 14 -32 25 -36 25 -4 0 -10 -18 -14 -40 -3 -22 -11 -40 -16 -40 -6
0 -10 -9 -10 -20 0 -11 5 -20 10 -20 6 0 10 9 10 21 0 18 4 20 33 14 17 -4 41
-12 52 -18 18 -10 15 -12 -22 -19 -31 -7 -40 -13 -36 -23 4 -11 -3 -15 -30
-15 -28 0 -36 -5 -40 -22 -3 -13 -15 -57 -27 -98 -12 -41 -21 -92 -21 -112 0
-21 -4 -40 -10 -43 -15 -10 -11 -75 5 -75 7 0 19 -7 26 -15 11 -13 8 -15 -14
-15 -24 0 -27 -4 -25 -27 2 -16 0 -66 -4 -113 -4 -47 -8 -128 -10 -180 l-2
-95 32 0 c18 -1 35 -4 39 -8 4 -4 -7 -7 -25 -7 l-33 0 6 -47 c10 -67 16 -84
29 -82 27 3 36 -2 31 -16 -4 -8 -12 -15 -20 -15 -8 0 -14 -4 -14 -10 0 -5 7
-7 15 -4 8 4 15 1 15 -5 0 -6 6 -11 14 -11 8 0 24 -13 36 -30 27 -38 59 -46
99 -26 36 19 46 50 35 104 -4 20 -6 44 -5 52 2 13 1 13 -8 0 -9 -12 -11 -12
-16 3 -4 9 0 23 9 32 20 21 20 35 0 35 -11 0 -15 6 -11 19 2 10 0 26 -5 35 -6
11 -5 18 6 22 11 4 12 12 5 37 -5 18 -9 51 -9 74 0 39 -2 43 -25 43 -16 0 -25
6 -25 16 0 11 5 14 18 9 9 -3 22 -7 27 -8 13 -3 19 118 7 152 -5 14 -6 35 -1
46 6 17 8 16 10 -10 1 -27 2 -26 9 10 4 22 13 75 19 118 7 44 28 129 46 190
25 83 31 115 23 125 -13 15 -2 28 26 34 25 4 40 54 20 62 -20 8 -17 28 4 24
23 -4 90 95 84 125 -1 4 5 7 13 7 17 0 20 25 5 35 -5 3 -10 11 -10 16 0 6 5 7
11 4 6 -4 13 2 16 13 2 11 16 26 30 33 13 7 31 26 39 41 8 15 18 28 22 28 11
0 92 76 92 87 0 12 59 68 88 82 18 10 22 20 22 61 0 54 9 61 37 31 18 -20 19
-20 51 1 17 11 32 24 32 29 0 11 56 40 72 37 17 -4 23 54 9 80 -9 16 -7 21 9
25 14 4 20 0 20 -12 0 -9 6 -25 13 -35 13 -18 14 -18 21 -1 4 12 -1 27 -17 44
-14 14 -28 44 -31 66 -7 44 0 39 34 -27 27 -50 58 -67 77 -42 7 10 13 15 13
11 0 -4 23 4 51 18 55 28 65 59 19 60 -18 0 -25 5 -25 20 0 14 6 19 18 17 21
-4 21 5 2 52 -16 37 -31 50 -20 17 3 -12 0 -21 -11 -25 -11 -4 -19 2 -27 24
-14 37 -24 38 -37 4z"/>
<path d="M2651 4937 c17 -58 8 -74 -13 -25 -17 40 -24 47 -45 46 -24 -2 -73
-55 -73 -78 0 -8 -9 -10 -25 -6 -20 5 -25 3 -25 -12 0 -27 29 -62 52 -62 17 0
19 -2 8 -16 -8 -8 -9 -14 -4 -12 14 4 64 -38 64 -54 0 -7 9 -31 20 -53 11 -22
20 -45 20 -52 0 -7 5 -13 10 -13 6 0 10 -8 10 -18 0 -34 64 -75 130 -85 50 -8
104 -32 146 -65 45 -35 121 -135 145 -190 24 -55 24 -118 1 -162 -10 -19 -42
-80 -71 -135 -30 -55 -59 -107 -67 -115 -7 -9 -15 -31 -16 -50 l-3 -35 90 3
c122 4 135 7 135 36 0 18 6 25 23 28 38 5 20 23 -30 28 l-48 5 59 6 c47 5 63
11 75 28 36 52 119 130 164 155 45 24 56 26 185 26 l138 0 23 -31 c40 -54 90
-58 139 -11 7 6 18 12 24 12 6 0 8 10 4 25 -5 19 -1 28 18 40 14 9 26 26 28
38 2 12 7 20 12 19 5 -2 14 4 19 14 7 13 7 19 -1 22 -7 2 -10 8 -6 13 3 5 1 9
-3 9 -5 0 -9 9 -10 19 -1 14 3 18 13 14 24 -9 15 17 -10 28 -16 8 -22 17 -19
30 4 12 0 19 -9 19 -17 0 -20 32 -4 42 8 5 7 8 -1 8 -7 0 -13 6 -13 13 0 23
-48 39 -69 25 -10 -7 -19 -17 -19 -21 0 -4 -15 -24 -32 -43 -22 -25 -36 -34
-48 -29 -15 6 -15 8 -1 18 54 42 72 59 93 97 27 47 25 70 -6 70 -12 0 -22 9
-25 20 -7 25 -59 56 -65 38 -3 -7 -12 -9 -22 -5 -15 6 -17 15 -13 42 8 50 -7
51 -44 5 -40 -49 -47 -46 -20 9 25 48 25 51 7 51 -17 0 -65 -59 -96 -118 -20
-39 -40 -62 -40 -47 0 10 51 98 76 132 23 31 34 80 15 68 -14 -8 -101 37 -101
52 0 7 -5 13 -11 13 -6 0 -23 8 -37 19 -15 10 -56 31 -92 46 -35 15 -75 36
-89 46 -30 24 -70 24 -87 2 -12 -16 -13 -16 -14 8 0 14 -6 26 -12 27 -7 1 -27
4 -45 8 -29 6 -33 4 -38 -22 -16 -76 -28 -114 -37 -114 -6 0 -7 8 -3 18 4 9
10 40 12 69 5 43 2 53 -13 61 -28 14 -151 35 -174 29 -11 -3 -20 -2 -20 2 0 3
-45 7 -99 8 l-99 1 9 -31z"/>
<path d="M2040 4758 c0 -18 9 -44 20 -58 25 -32 25 -39 0 -33 -11 3 -17 10
-14 15 10 15 -46 87 -66 85 -10 -1 -18 -5 -17 -11 1 -5 -13 -13 -30 -18 -32
-8 -38 -19 -34 -60 3 -21 -22 -24 -41 -4 -12 11 -17 11 -34 -1 -10 -7 -19 -19
-19 -26 0 -6 -9 -13 -20 -15 -11 -2 -28 -13 -38 -23 -10 -10 -21 -19 -25 -19
-14 0 -62 -51 -57 -61 4 -5 -3 -9 -14 -9 -13 0 -25 -13 -37 -39 -11 -25 -22
-37 -31 -34 -15 6 -55 -35 -47 -48 3 -5 0 -9 -7 -9 -7 0 -5 -6 6 -13 26 -20
10 -40 -26 -32 -31 7 -64 -10 -53 -26 3 -5 9 -7 13 -4 11 6 56 -43 47 -52 -3
-4 -20 1 -37 11 -29 17 -31 17 -50 0 -10 -9 -19 -24 -19 -31 0 -8 -10 -23 -22
-34 -19 -15 -20 -18 -7 -19 9 0 19 -7 23 -15 4 -11 -2 -15 -24 -15 -36 0 -38
-12 -7 -40 l22 -21 -28 10 c-38 15 -39 14 -32 -9 5 -16 2 -20 -14 -20 -20 0
-25 -12 -23 -49 0 -8 -6 -20 -14 -25 -7 -6 -22 -36 -33 -67 l-19 -56 22 -13
c21 -14 21 -14 -9 -20 -25 -4 -31 -11 -36 -42 -7 -44 -4 -50 36 -71 l30 -17
-42 6 c-48 7 -49 6 -57 -69 -3 -27 -9 -54 -14 -60 -5 -7 -12 -33 -14 -59 -5
-44 -4 -47 23 -59 27 -11 41 -39 19 -39 -5 0 -7 -7 -4 -15 4 -11 0 -15 -16
-15 -37 0 -6 -26 43 -36 l42 -8 -49 -4 -48 -3 6 -37 c3 -20 6 -60 6 -88 0 -43
4 -53 23 -62 17 -8 18 -11 5 -11 -25 -1 -23 -38 2 -46 20 -6 28 -25 10 -25
-14 0 1 -32 26 -55 12 -11 23 -26 26 -34 3 -11 21 -14 74 -13 63 2 67 1 50
-13 -11 -8 -23 -15 -28 -15 -4 0 -8 -3 -8 -7 0 -10 49 -33 70 -33 8 0 31 -15
50 -34 23 -22 49 -36 76 -40 46 -8 110 -29 120 -39 13 -13 95 -7 110 7 7 8 19
16 26 18 8 3 4 27 -15 84 -14 43 -29 105 -33 136 -5 40 -11 58 -23 61 -12 4
-11 6 7 12 12 4 22 15 22 24 0 9 18 48 39 86 20 39 48 90 62 115 13 25 27 47
30 50 4 3 19 30 35 60 15 30 30 57 33 60 4 3 14 21 25 40 10 19 29 54 42 78
13 23 35 62 48 86 14 24 36 62 50 85 14 22 26 43 26 46 0 3 12 24 27 48 43 68
158 270 174 305 7 17 17 32 21 32 8 0 49 86 55 114 2 11 14 38 26 61 24 42 25
65 3 65 -7 0 -23 14 -35 31 -18 24 -20 34 -11 42 8 9 14 8 21 -5 17 -30 40
-23 33 10 -14 65 -204 192 -287 192 -21 0 -28 3 -19 9 11 6 10 10 -5 15 -34
14 -73 15 -73 3 0 -8 -3 -8 -8 -2 -16 23 -32 14 -32 -17z"/>
<path d="M5158 4502 c-85 -85 -142 -149 -166 -184 -14 -22 -33 -38 -44 -38
-26 0 -59 -19 -80 -46 -10 -12 -33 -26 -51 -29 -17 -4 -49 -16 -69 -26 -20
-10 -43 -16 -50 -14 -8 3 -25 -6 -38 -21 l-25 -27 25 7 c14 4 43 10 64 13 30
5 37 3 31 -7 -5 -9 -2 -10 13 -6 24 8 37 -7 19 -22 -6 -6 -30 -13 -52 -17 -53
-10 -115 -35 -115 -47 0 -5 15 -6 34 -3 46 9 57 -11 15 -29 l-32 -14 2 -133
c1 -74 7 -136 12 -140 5 -3 31 -2 57 3 114 20 152 24 152 17 0 -9 -50 -23
-115 -34 -22 -3 -51 -12 -65 -20 l-25 -13 28 -7 c34 -9 35 -25 2 -25 -22 0
-25 -3 -19 -27 10 -49 12 -52 49 -59 43 -8 41 -30 -3 -26 -16 2 -33 -1 -36 -6
-3 -5 15 -8 40 -7 60 2 64 -10 9 -31 -47 -18 -59 -34 -25 -34 21 0 28 -24 10
-35 -21 -13 -8 -68 41 -170 l51 -106 71 6 c40 3 92 2 117 -3 39 -9 32 -10 -62
-11 -59 -1 -109 -5 -113 -11 -3 -5 10 -40 28 -77 19 -37 38 -79 42 -93 4 -14
18 -47 30 -75 141 -312 141 -499 0 -620 -40 -34 -53 -51 -46 -58 19 -19 12
-27 -19 -20 -20 3 -37 0 -48 -9 -9 -8 -42 -15 -72 -17 -32 -1 -62 -9 -72 -18
-22 -20 -33 -72 -19 -86 16 -16 14 -24 -9 -30 -14 -4 -20 -14 -20 -35 0 -36
17 -55 74 -84 22 -12 36 -23 29 -25 -7 -2 -21 0 -32 6 -36 20 -78 14 -85 -11
-11 -42 -6 -64 20 -89 l26 -24 -28 -5 c-15 -3 -28 -12 -30 -22 -3 -25 57 -84
80 -80 18 4 18 6 -5 24 -19 16 -20 17 -3 9 11 -5 35 -23 52 -39 18 -17 39 -32
47 -36 22 -8 18 -26 -5 -26 -11 0 -20 6 -20 13 0 11 -58 40 -85 42 -5 0 -24 8
-41 17 -34 19 -44 15 -44 -15 0 -26 49 -83 69 -80 18 3 58 -24 49 -33 -4 -3
-17 2 -30 10 -14 9 -28 13 -31 9 -4 -3 -18 4 -31 16 -14 13 -29 20 -35 16 -16
-9 -13 -25 5 -25 10 0 14 -7 12 -20 -2 -13 8 -29 27 -44 24 -19 27 -27 18 -37
-10 -10 -18 -10 -38 -1 -14 6 -25 16 -25 22 0 5 -6 10 -14 10 -16 0 32 -50
113 -118 31 -25 83 -72 116 -104 75 -72 126 -110 141 -104 7 3 21 -4 32 -15
41 -37 38 -18 -4 26 -23 25 -45 45 -49 45 -9 0 -125 71 -125 77 0 8 45 -10 55
-22 5 -7 21 -16 35 -20 22 -7 23 -6 11 9 -7 9 -19 16 -26 16 -16 0 -50 38 -42
47 4 3 17 -3 30 -15 13 -12 32 -22 42 -22 29 0 101 -46 121 -78 11 -16 41 -48
68 -72 28 -23 63 -61 79 -84 16 -22 41 -53 54 -68 40 -43 22 -51 -27 -12 -64
51 -93 63 -42 17 24 -21 44 -45 46 -54 1 -10 8 -24 15 -33 8 -9 11 -19 8 -22
-6 -7 -65 22 -89 44 -22 19 -23 33 -3 26 29 -11 14 3 -42 44 -32 22 -70 51
-84 64 -14 13 -48 41 -75 63 -27 21 -64 52 -81 69 -18 16 -33 26 -33 22 0 -5
-7 -3 -15 4 -8 7 -13 16 -10 20 6 10 -102 115 -157 151 -69 46 -88 37 -88 -43
0 -31 8 -49 35 -81 51 -59 45 -81 -8 -32 -15 14 -27 22 -27 18 0 -4 -5 0 -11
9 -17 30 -27 20 -19 -18 10 -42 36 -74 61 -74 10 0 28 -15 41 -32 l23 -33 -32
23 c-38 27 -44 27 -36 4 11 -29 84 -113 97 -110 7 2 42 -26 78 -61 50 -48 64
-68 60 -84 -4 -18 -12 -13 -62 41 -31 33 -82 77 -113 96 -44 28 -57 42 -57 61
0 13 -13 46 -30 72 -16 26 -30 53 -30 60 0 14 -18 17 -43 7 -18 -7 -11 -37 14
-60 10 -9 19 -22 19 -27 0 -6 -13 1 -28 16 -15 15 -32 27 -36 27 -12 0 -36
-28 -36 -42 0 -8 33 -52 73 -98 40 -47 90 -110 110 -141 21 -31 54 -76 75
-100 48 -56 95 -129 88 -137 -11 -10 -46 31 -112 131 -36 55 -79 111 -95 124
-16 14 -29 30 -29 35 0 6 -25 42 -57 80 -59 72 -94 100 -101 79 -2 -6 -8 -9
-13 -5 -18 11 -8 -11 14 -33 13 -12 38 -49 56 -82 37 -70 79 -123 91 -116 10
6 170 -232 170 -252 0 -22 -8 -15 -51 43 -88 119 -146 160 -84 59 26 -43 31
-60 15 -50 -6 4 -22 30 -36 58 -14 29 -43 72 -64 97 -20 25 -44 60 -54 78 -9
17 -21 32 -26 32 -15 0 -12 -11 11 -49 11 -18 19 -40 17 -49 -3 -17 -64 98
-78 148 -12 41 4 38 32 -4 13 -19 31 -37 41 -40 22 -5 21 2 -3 41 -23 38 -57
62 -103 73 -31 6 -34 5 -30 -11 7 -24 -5 -24 -30 -1 -19 16 -19 16 -13 -5 5
-17 3 -23 -7 -23 -9 0 -18 6 -21 13 -4 6 -4 2 -2 -10 5 -30 0 -29 -29 5 -13
15 -27 24 -31 19 -11 -11 23 -77 40 -77 16 0 51 -33 68 -63 8 -15 2 -14 -37 8
l-47 26 31 -54 c33 -57 38 -77 20 -77 -5 0 -17 16 -25 36 -8 19 -33 63 -56 96
-40 59 -57 63 -58 16 0 -24 -17 -23 -25 2 -9 28 -33 50 -55 50 -15 0 -17 -6
-13 -32 3 -18 11 -45 19 -60 8 -15 14 -32 14 -37 0 -6 11 -27 25 -47 14 -20
25 -42 24 -48 0 -6 -6 -3 -12 8 -7 10 -27 36 -44 58 -25 30 -33 50 -33 78 0
41 -16 62 -31 39 -17 -26 -9 -75 17 -110 46 -61 134 -252 134 -288 -1 -34 -38
30 -86 148 -27 67 -55 121 -61 121 -7 0 -13 7 -13 16 0 8 -7 22 -15 31 -14 13
-15 9 -10 -44 3 -32 11 -71 17 -88 14 -35 73 -116 94 -128 26 -15 46 -65 34
-87 -6 -11 -15 -20 -19 -20 -11 0 -6 -23 27 -129 22 -71 34 -92 74 -132 27
-26 57 -51 68 -54 11 -4 20 -11 20 -16 0 -5 6 -9 13 -9 7 0 33 -9 56 -21 24
-11 59 -21 77 -22 19 -1 34 -5 34 -9 0 -5 11 -8 24 -8 13 0 39 -7 59 -15 19
-8 37 -12 40 -9 9 10 65 -35 72 -56 6 -20 17 -20 446 -20 l439 0 0 2229 0
2228 -38 27 c-21 14 -52 26 -68 26 -17 0 -39 7 -50 15 -10 8 -35 14 -54 15
-27 0 -43 -8 -72 -38z m132 -771 c0 -11 -31 -18 -123 -27 -37 -3 -70 -10 -73
-15 -6 -11 34 -11 99 0 58 10 62 -5 9 -36 l-37 -21 108 5 c77 4 107 3 107 -6
0 -6 -10 -11 -21 -11 -18 0 -19 -3 -9 -15 19 -23 3 -35 -48 -36 -35 -1 -41 -3
-23 -8 23 -6 22 -7 -15 -23 -61 -27 -114 -38 -174 -38 l-55 1 30 17 30 17 -60
7 c-217 25 -225 28 -100 42 53 7 135 36 135 49 0 4 -30 5 -67 2 -80 -7 -69 6
22 26 l60 13 -35 8 c-19 4 -53 5 -75 2 -39 -5 -40 -4 -15 10 17 11 38 14 67
10 23 -3 58 -1 79 6 68 23 184 36 184 21z m-330 -2038 c24 -9 59 -26 76 -39
18 -14 44 -24 60 -23 16 1 56 -8 88 -20 70 -25 84 -21 27 9 -23 11 -41 22 -41
24 0 10 108 -29 126 -45 11 -11 27 -19 35 -19 16 -1 49 -24 49 -35 0 -4 -10
-4 -22 -1 -75 21 -137 33 -132 25 3 -5 11 -9 18 -9 19 0 63 -37 54 -45 -3 -3
-38 12 -78 34 -39 23 -76 41 -81 41 -5 0 -32 11 -59 25 -27 14 -54 25 -59 25
-16 0 19 -59 39 -65 11 -4 20 -10 20 -15 0 -5 17 -14 38 -20 47 -12 204 -109
210 -130 4 -12 2 -12 -19 1 -33 21 -59 30 -59 20 0 -5 18 -16 39 -24 37 -15
58 -33 49 -43 -6 -6 -121 40 -174 70 -24 13 -46 20 -49 15 -4 -5 -1 -9 5 -9 7
0 25 -11 42 -25 16 -13 47 -29 68 -35 28 -8 40 -16 40 -29 0 -25 -23 -43 -46
-35 -11 3 5 -16 34 -43 57 -52 61 -60 35 -65 -14 -3 -11 -8 13 -20 17 -9 36
-24 43 -32 20 -24 -3 -21 -58 8 -25 14 -64 32 -86 40 l-40 16 45 -40 c31 -28
40 -40 28 -40 -10 0 -28 10 -40 22 -27 27 -94 73 -173 117 -171 97 -195 112
-195 122 0 14 17 11 60 -11 22 -11 42 -20 45 -20 9 0 -40 39 -93 74 -24 16
-45 33 -48 37 -9 15 71 -23 96 -45 55 -50 324 -196 305 -166 -3 4 -37 30 -76
57 -40 26 -86 58 -103 69 -17 12 -44 37 -61 55 l-30 32 35 -21 c19 -12 58 -33
85 -48 l50 -26 -25 26 c-13 15 -43 39 -66 53 -25 16 -40 32 -37 40 7 17 -13
17 -21 1 -3 -7 -4 -4 -3 6 1 15 -16 30 -66 59 -82 47 -82 62 0 17 129 -71 147
-80 160 -80 26 0 -36 63 -91 93 -66 37 -82 54 -31 32 95 -40 100 -41 88 -22
-4 6 -8 17 -8 22 0 6 -22 21 -50 35 -27 15 -59 31 -70 38 -18 11 -17 12 10 6
17 -4 50 -13 75 -21z m-427 -669 c39 -47 61 -65 73 -60 14 5 31 -16 117 -141
55 -78 66 -103 49 -103 -11 0 -112 124 -112 137 0 5 -14 22 -32 39 l-31 29 22
-33 c38 -55 17 -46 -40 17 -68 74 -108 141 -85 141 9 0 26 -12 39 -26z"/>
<path d="M2740 4403 c-27 -11 -39 -37 -40 -85 0 -25 -5 -48 -11 -50 -13 -4
-18 -102 -5 -106 9 -3 69 92 82 131 4 9 10 17 15 17 12 0 41 71 35 87 -5 13
-48 16 -76 6z"/>
<path d="M2871 4346 c-23 -28 -101 -150 -101 -159 0 -5 -15 -30 -33 -56 -56
-77 -79 -134 -68 -165 10 -25 5 -32 -23 -27 -14 3 -51 -44 -88 -110 -64 -116
-69 -109 75 -109 144 0 156 6 196 86 14 27 27 51 30 54 3 3 14 21 23 40 22 44
52 96 65 112 29 37 73 133 73 160 0 32 -61 155 -88 176 -21 16 -47 15 -61 -2z"/>
<path d="M2546 4304 c-59 -15 -94 -48 -75 -70 17 -21 -4 -42 -25 -25 -12 10
-16 6 -26 -23 -6 -20 -17 -39 -24 -43 -14 -9 -49 -93 -42 -100 3 -3 -9 -17
-25 -30 -32 -27 -72 -96 -62 -107 4 -3 0 -6 -8 -6 -10 -1 -8 -5 5 -15 20 -15
20 -15 0 -15 -12 0 -31 -19 -50 -48 -71 -109 -102 -159 -115 -189 -8 -18 -17
-33 -21 -33 -5 0 -8 -6 -8 -13 0 -7 -16 -36 -35 -66 -19 -29 -35 -57 -35 -63
0 -5 -11 -24 -24 -41 -13 -18 -38 -58 -55 -89 -17 -32 -44 -83 -61 -112 -35
-64 -37 -77 -11 -100 17 -16 31 -17 127 -8 106 9 108 10 140 45 18 19 31 43
30 54 -2 10 5 24 15 31 32 22 21 32 -33 33 -94 1 -101 18 -8 18 93 1 84 -5
124 78 29 60 36 61 319 66 284 4 277 2 292 70 7 31 56 72 98 82 17 5 27 14 27
25 0 15 -10 20 -47 25 -74 9 -84 12 -145 34 -48 17 -80 21 -193 21 -112 0
-137 3 -141 15 -4 9 12 47 35 87 50 87 53 108 10 108 -17 0 -28 4 -24 10 9 14
52 12 58 -2 6 -17 34 21 64 85 28 59 28 60 3 52 -11 -4 -20 -2 -20 4 0 6 11
11 24 11 29 0 36 28 36 136 0 68 -9 90 -25 64 -3 -5 -13 -10 -21 -10 -16 0
-19 27 -3 32 6 2 10 11 8 19 -4 14 -10 14 -53 3z"/>
<path d="M4300 4108 c-34 -47 -35 -49 -16 -86 7 -15 17 -48 20 -74 4 -27 11
-48 16 -48 5 0 10 -15 12 -32 2 -20 8 -33 17 -33 21 0 26 -25 4 -26 -15 0 -15
-2 5 -11 26 -13 28 -23 7 -32 -10 -4 -15 -20 -15 -50 0 -58 8 -76 34 -77 21 0
21 0 -1 -11 -29 -14 -31 -48 -4 -48 27 0 35 -17 12 -25 -23 -7 -39 -74 -20
-86 18 -10 20 -39 4 -45 -17 -7 -13 -34 8 -46 9 -5 17 -21 17 -36 0 -42 14
-54 69 -60 28 -2 51 -9 51 -15 0 -5 -16 -7 -39 -4 -21 2 -44 1 -51 -3 -18 -11
-2 -49 26 -62 13 -6 24 -14 25 -17 5 -47 11 -64 30 -90 12 -16 19 -36 16 -45
-3 -8 0 -28 8 -43 8 -15 15 -33 15 -40 0 -7 7 -28 16 -46 15 -32 20 -35 77
-41 104 -11 190 -8 184 7 -3 6 -22 53 -42 102 -43 106 -48 113 -83 118 -26 4
-26 4 -4 12 12 4 22 9 22 12 0 2 -11 28 -24 56 -14 29 -34 77 -46 107 -30 76
-47 100 -73 101 -22 0 -22 0 -1 9 20 8 21 12 12 66 -10 66 -14 74 -34 74 -20
0 -17 20 4 21 11 0 12 2 4 6 -11 4 -11 8 1 22 12 13 12 35 3 128 -6 61 -14
114 -17 117 -3 3 -28 2 -55 -3 -33 -6 -52 -6 -59 1 -11 11 -10 11 59 52 l39
23 -32 5 c-40 6 -116 -26 -105 -44 6 -9 3 -9 -9 1 -9 7 -17 15 -17 17 0 9 86
44 107 44 25 0 43 26 43 64 0 30 -19 34 -54 11 -16 -11 -36 -13 -69 -9 -53 7
-61 21 -19 30 46 10 53 14 47 24 -3 5 -17 10 -31 10 -14 0 -22 4 -19 10 3 6
-3 10 -14 10 -12 0 -21 7 -21 15 0 8 6 15 13 15 8 0 7 4 -3 10 -13 9 -13 11 0
20 13 8 13 10 -2 10 -10 0 -31 -19 -48 -42z"/>
<path d="M3443 3978 c-26 -12 -29 -29 -12 -61 21 -40 52 -67 70 -62 22 7 34
-12 19 -30 -10 -13 -8 -15 16 -14 16 0 23 3 17 6 -14 5 -18 33 -5 34 32 3 58
12 71 23 9 7 23 11 31 9 13 -4 13 -3 0 6 -13 9 -11 13 8 31 27 26 21 40 -19
40 -19 0 -29 5 -29 15 0 12 -14 15 -72 14 -40 0 -83 -5 -95 -11z"/>
<path d="M4123 3959 c-4 -15 -8 -17 -14 -8 -6 11 -15 7 -39 -16 -16 -16 -30
-35 -30 -42 0 -7 -9 -18 -20 -25 -11 -7 -20 -18 -20 -25 0 -6 -6 -14 -12 -16
-8 -3 -6 -6 5 -6 19 -1 24 -21 5 -22 -46 -3 -60 -9 -82 -32 -25 -27 -45 -115
-31 -137 4 -7 -6 -26 -23 -43 -16 -18 -35 -49 -41 -69 -7 -20 -15 -38 -19 -40
-7 -3 -55 -97 -56 -110 -1 -3 -4 -10 -8 -14 -13 -12 -9 -25 6 -22 8 2 16 -1
18 -7 2 -5 -7 -11 -19 -13 -27 -4 -28 -10 -8 -39 10 -14 35 -26 73 -34 163
-34 223 -57 261 -97 34 -35 79 -52 90 -33 4 6 18 11 32 11 13 -1 46 2 73 6 39
6 47 4 41 -6 -6 -10 -4 -12 9 -7 10 4 20 7 22 7 9 0 3 37 -11 64 -8 15 -15 36
-15 46 0 9 -9 25 -20 35 -17 16 -18 20 -6 27 22 12 5 62 -22 66 -27 4 -28 19
-2 27 11 3 20 13 20 21 0 24 -19 54 -35 54 -21 0 -19 30 3 31 9 1 4 4 -13 8
-36 7 -48 41 -15 41 12 0 18 -4 15 -10 -3 -5 1 -10 9 -10 11 0 16 9 16 27 0
14 -3 24 -6 20 -4 -3 -13 1 -21 9 -9 8 -14 16 -12 17 39 21 44 27 41 48 -2 13
-6 45 -9 72 -4 38 -9 47 -25 47 -11 0 -16 5 -13 10 4 6 2 17 -4 24 -7 9 -8 22
-2 37 7 19 3 30 -15 52 -13 16 -22 32 -19 36 2 5 -6 14 -20 21 -13 7 -21 18
-18 26 3 8 2 14 -2 14 -4 0 -9 -9 -12 -21z"/>
<path d="M3338 3904 c-15 -8 -34 -27 -42 -43 l-15 -28 70 3 c39 1 69 -2 69 -7
0 -5 -15 -9 -33 -7 -18 1 -39 -2 -47 -7 -8 -5 -27 -8 -42 -6 -23 2 -28 -2 -29
-21 -3 -70 -4 -73 -26 -76 -24 -4 -30 -26 -13 -52 8 -12 10 -11 10 8 0 26 12
29 30 7 7 -9 29 -15 51 -15 34 0 41 4 51 28 9 22 12 24 15 9 7 -26 57 -19 61
8 3 17 1 17 -7 5 -7 -10 -11 -11 -11 -2 0 6 -12 12 -27 12 -30 0 -106 48 -97
61 3 5 26 9 52 9 26 0 57 3 69 6 l21 6 -23 44 c-21 39 -48 75 -57 74 -2 -1
-15 -7 -30 -16z"/>
<path d="M2354 3366 c-3 -9 3 -33 15 -53 12 -21 26 -50 32 -65 9 -22 18 -28
42 -29 18 -1 24 -3 15 -6 -10 -2 -18 -13 -18 -24 0 -16 7 -19 52 -19 53 0 57
-14 8 -23 -22 -4 -22 -4 6 -6 16 0 36 -7 43 -13 13 -14 149 -16 215 -4 l37 7
-7 45 c-7 46 6 60 25 27 9 -16 10 -16 11 5 0 13 6 22 16 22 11 0 14 -6 9 -21
-7 -20 -15 -239 -14 -357 0 -53 -18 -121 -35 -134 -6 -4 2 -10 17 -13 15 -4
27 -13 27 -20 0 -27 22 -26 46 2 l24 28 -30 3 c-17 2 -30 9 -30 17 0 10 9 11
37 4 21 -4 38 -7 39 -6 1 1 45 74 97 163 112 187 131 213 147 198 8 -8 6 -17
-8 -35 -17 -22 -62 -100 -161 -279 -23 -41 -53 -93 -66 -115 -14 -22 -41 -72
-61 -112 -29 -58 -33 -75 -25 -92 15 -28 13 -40 -3 -18 -15 20 -28 10 -33 -26
-6 -34 14 -51 74 -63 103 -22 179 4 209 70 8 17 30 56 49 86 19 30 40 71 46
90 7 19 24 51 38 70 32 41 111 180 217 378 24 44 32 71 28 88 -5 18 -2 24 10
24 9 0 16 8 16 20 0 11 5 20 10 20 6 0 10 4 10 10 0 5 -3 9 -7 8 -5 -1 -17 3
-28 9 -11 5 -48 13 -83 16 -34 3 -74 13 -89 22 -14 9 -41 17 -59 17 -19 0 -37
4 -40 9 -3 5 -25 9 -50 9 -55 0 -185 20 -199 31 -17 13 -133 25 -325 35 -52 3
-139 8 -192 11 -84 4 -99 3 -104 -11z"/>
<path d="M2290 3331 c0 -5 -21 -40 -46 -77 -26 -37 -44 -74 -41 -84 2 -9 -4
-22 -14 -29 -11 -6 -19 -19 -19 -29 0 -10 3 -13 8 -7 4 6 22 12 40 13 24 2 44
14 73 44 21 23 39 45 39 49 0 4 7 9 15 11 12 2 11 10 -5 46 -20 43 -50 82 -50
63z"/>
<path d="M3598 3121 c-26 -21 -75 -90 -117 -163 -11 -21 -31 -55 -42 -75 -213
-378 -304 -531 -324 -545 -5 -4 -10 -13 -10 -19 0 -17 -42 -28 -174 -44 -63
-8 -119 -19 -124 -24 -22 -22 -11 -72 24 -105 19 -18 43 -45 54 -59 11 -14 26
-26 32 -27 7 0 30 -16 52 -35 21 -19 42 -35 46 -35 4 0 20 -12 36 -27 15 -16
41 -41 58 -57 17 -16 31 -38 31 -48 0 -10 5 -18 10 -18 6 0 10 -6 10 -13 0 -7
5 -18 12 -25 6 -6 13 -20 14 -29 4 -35 32 -140 42 -160 23 -42 80 -80 165
-108 48 -16 90 -26 94 -22 4 4 2 22 -5 39 -6 18 -10 33 -8 35 5 6 46 -66 46
-81 0 -8 13 -16 29 -18 28 -4 28 -3 20 26 -16 56 -9 62 20 16 16 -25 27 -48
24 -53 -5 -8 38 -27 48 -21 15 9 59 12 59 4 0 -26 178 -42 198 -17 5 6 11 21
13 32 4 18 6 17 31 -8 21 -21 29 -24 35 -13 4 8 17 16 28 18 15 3 20 11 20 36
0 35 6 40 25 17 7 -8 19 -15 27 -15 10 0 5 18 -21 64 -36 69 -32 73 29 33 28
-19 27 -17 -7 19 -21 22 -38 43 -38 47 0 13 22 7 50 -13 31 -22 43 -11 30 25
-8 22 -98 115 -111 115 -5 0 -14 10 -20 23 -8 15 5 7 42 -24 30 -25 64 -51 77
-58 22 -12 23 -11 13 8 -15 27 -14 34 4 27 18 -6 21 25 5 55 -13 23 -30 25
-30 4 0 -20 -16 -19 -24 1 -9 22 -8 24 10 24 8 0 12 5 9 10 -4 6 -4 24 0 40 7
31 30 39 63 21 15 -8 17 -2 20 42 2 51 1 53 -45 94 -27 24 -43 43 -36 43 7 0
28 -14 48 -31 l35 -31 1 33 c1 34 1 39 -9 73 -3 12 -1 17 5 13 19 -12 32 18
46 108 l15 90 -27 22 c-27 23 -22 28 14 14 16 -6 24 -2 37 20 10 16 22 29 28
29 5 0 10 6 10 14 0 7 13 19 30 26 16 7 27 16 25 21 -3 4 11 11 32 15 21 4 42
9 46 11 10 6 -19 28 -51 37 -21 7 -22 5 -16 -18 7 -29 2 -31 -28 -15 -21 11
-21 12 -4 25 13 9 17 20 12 38 -5 19 -2 26 8 26 8 0 16 -7 20 -15 3 -9 17 -15
33 -14 15 0 22 3 15 6 -6 2 -10 9 -6 14 3 5 -7 14 -23 20 l-28 11 28 11 29 12
-21 19 c-16 15 -18 21 -9 28 10 6 9 8 -3 8 -17 0 -49 69 -49 105 0 10 -9 29
-21 41 -11 12 -32 45 -48 75 -21 42 -34 55 -59 61 -18 5 -32 13 -32 18 0 6
-15 10 -34 10 -40 0 -151 49 -193 84 -26 22 -42 25 -129 29 -54 2 -126 7 -159
11 -53 6 -64 4 -87 -13z"/>
<path d="M1833 3048 c-16 -27 12 -89 49 -109 15 -8 27 -3 65 31 25 22 48 38
51 36 2 -3 -14 -27 -37 -54 -22 -28 -41 -52 -41 -54 0 -14 95 12 129 35 45 30
54 63 25 91 -12 12 -12 16 -2 17 7 1 -5 5 -27 10 -65 13 -203 11 -212 -3z"/>
<path d="M2497 2998 c-13 -13 -36 -41 -53 -63 -83 -112 -122 -154 -168 -176
-22 -10 -46 -19 -53 -19 -7 0 -13 -5 -13 -12 0 -6 -2 -9 -5 -6 -3 3 -36 -3
-73 -14 -37 -11 -83 -23 -102 -27 -19 -4 -51 -15 -70 -23 -19 -8 -52 -18 -74
-22 -21 -4 -56 -18 -77 -32 -21 -13 -44 -24 -51 -24 -25 0 -198 -93 -198 -107
0 -7 -4 -13 -10 -13 -27 0 9 -96 44 -117 7 -5 52 -57 101 -116 54 -66 94 -107
104 -105 9 1 22 -1 29 -5 19 -13 14 -37 -8 -37 -19 0 -19 -2 -6 -22 30 -49 73
-135 91 -183 10 -27 25 -60 34 -72 l16 -21 34 31 33 32 -16 -32 c-9 -18 -14
-33 -11 -33 3 0 -2 -14 -11 -31 -12 -24 -14 -45 -9 -88 4 -31 9 -73 10 -94 6
-69 17 -117 25 -112 5 3 8 -13 7 -36 -3 -52 22 -70 55 -39 12 11 23 18 25 17
1 -2 -7 -27 -19 -56 -15 -35 -29 -53 -44 -57 -23 -6 -23 -15 -2 -61 11 -23 10
-29 -22 -80 -22 -37 -17 -63 11 -63 21 0 25 20 7 38 -18 18 41 72 89 79 20 4
46 15 57 25 11 10 24 18 29 18 14 0 34 24 42 50 4 14 14 33 22 42 28 31 24
294 -6 448 -1 3 -6 -2 -12 -10 -8 -12 -9 -9 -4 10 4 14 10 52 14 85 3 33 11
60 16 60 6 0 21 8 35 18 13 9 20 17 15 17 -6 0 8 17 30 39 51 49 65 67 65 83
0 7 15 27 33 45 44 43 72 146 65 243 -3 39 -1 89 4 112 6 24 9 73 8 111 -2 71
15 129 64 221 14 27 26 60 26 73 0 13 5 32 12 43 23 37 -29 90 -88 90 -13 0
-34 -10 -47 -22z"/>
<path d="M4614 2849 c-3 -6 5 -23 19 -37 14 -15 27 -36 29 -46 3 -19 10 -22
91 -40 46 -11 30 -23 -25 -19 -39 2 -48 1 -33 -6 11 -5 17 -10 12 -10 -11 -1
21 -61 33 -61 5 0 14 -10 21 -21 8 -15 8 -19 0 -15 -6 4 -11 3 -11 -3 0 -16
65 -51 95 -51 15 0 44 -10 63 -22 20 -12 32 -17 29 -11 -4 7 -15 54 -23 105
-9 51 -30 125 -46 164 l-30 71 -75 7 c-107 9 -141 8 -149 -5z"/>
<path d="M43 2822 l-43 -3 0 -230 0 -229 23 14 c12 8 42 19 67 26 25 6 76 20
113 32 37 11 70 18 73 15 6 -6 -125 -58 -213 -84 l-63 -18 0 -192 c0 -106 2
-193 5 -193 3 0 32 13 65 30 77 39 69 14 -10 -31 l-59 -34 -1 -192 c0 -106 4
-193 8 -193 27 0 90 42 96 64 7 27 10 31 84 95 56 48 135 100 198 131 42 20
76 51 73 66 -4 21 2 28 12 14 8 -12 9 -10 4 7 -4 16 -1 23 15 28 20 6 29 35
11 35 -20 0 -41 -13 -41 -25 0 -12 -144 -115 -161 -115 -5 0 -42 -22 -81 -50
-75 -53 -93 -58 -122 -37 -18 13 -16 15 15 35 19 12 47 35 63 52 16 17 51 42
78 56 27 14 57 33 68 44 25 25 151 102 157 96 3 -3 -23 -24 -58 -48 -34 -24
-87 -67 -118 -96 l-56 -53 62 31 c35 16 62 36 60 43 -1 6 18 22 42 34 45 23
94 65 112 95 8 14 6 16 -8 11 -15 -6 -16 -4 -5 9 10 12 9 18 -3 28 -19 16 -6
34 44 60 33 17 56 38 151 138 31 32 31 45 1 18 -11 -10 -21 -12 -31 -6 -12 8
-10 14 15 35 17 13 34 24 38 25 5 0 14 6 20 13 13 13 57 91 57 101 0 12 -28 6
-40 -9 -14 -17 -40 -20 -40 -5 0 5 16 17 36 25 44 18 102 67 97 82 -2 6 5 14
16 18 12 3 21 10 21 15 0 23 -25 59 -47 69 -17 8 -24 17 -21 29 3 10 -1 23 -9
30 -10 10 -13 10 -14 0 0 -7 -5 -3 -11 10 -11 22 -48 31 -48 12 0 -5 -11 -10
-25 -10 -14 0 -25 5 -25 11 0 15 -66 3 -102 -19 -23 -13 -31 -14 -52 -3 -32
18 -88 9 -115 -18 -21 -21 -42 -27 -54 -14 -4 3 -3 11 3 18 6 8 -7 16 -48 29
-31 10 -65 22 -74 27 -10 5 -27 9 -37 9 -11 0 -23 5 -26 10 -3 6 -15 10 -25
10 -10 0 -20 4 -22 8 -4 13 -46 19 -95 14z"/>
<path d="M4700 2508 c-25 -11 -54 -25 -65 -31 -11 -6 -40 -21 -63 -33 -31 -15
-39 -23 -29 -27 9 -3 18 -1 20 6 3 9 8 9 17 1 16 -16 -27 -25 -94 -20 -52 4
-96 -14 -96 -40 0 -8 -6 -14 -14 -14 -14 0 -28 -29 -45 -95 -14 -54 -14 -98 2
-114 10 -10 9 -14 -5 -22 -20 -11 -25 -73 -8 -84 15 -9 12 -25 -4 -25 -14 0
-26 -21 -26 -46 0 -8 8 -14 19 -14 10 0 25 -7 32 -17 8 -9 29 -22 47 -30 17
-7 32 -18 32 -23 0 -16 -22 -11 -45 10 -11 11 -35 23 -52 26 -30 6 -32 4 -44
-34 -7 -25 -8 -51 -3 -69 4 -15 7 -43 5 -61 -2 -21 4 -42 16 -55 18 -22 18
-22 -3 -4 -27 22 -44 22 -44 -2 0 -11 -3 -26 -6 -35 -8 -21 49 -78 71 -70 9 4
25 -2 38 -12 12 -11 37 -28 56 -38 l33 -18 -7 23 c-4 13 -4 21 0 17 5 -5 17 6
27 23 19 31 19 32 -1 53 -23 24 -31 60 -9 38 17 -17 28 -15 28 6 0 10 -13 31
-30 47 -33 31 -34 44 -1 24 11 -7 23 -11 26 -8 3 3 8 33 11 67 4 34 11 62 16
62 10 0 7 42 -7 105 -5 23 -4 27 5 15 9 -12 10 -9 8 15 -2 17 2 31 7 32 19 4
21 47 3 65 -26 26 -22 38 12 38 19 0 33 7 40 21 13 24 7 49 -13 49 -8 0 -22 9
-32 20 -18 20 -18 20 16 9 19 -7 40 -16 47 -22 8 -6 17 -5 27 3 22 18 18 39
-10 52 -65 29 -6 32 121 6 51 -10 53 -10 109 27 64 43 81 64 90 116 8 42 3 47
-88 82 -79 32 -79 32 -137 5z"/>
<path d="M1247 2379 c-14 -8 -16 -18 -11 -52 8 -50 18 -64 37 -49 21 17 39 -5
26 -30 -19 -35 4 -79 84 -159 15 -15 27 -31 27 -36 0 -5 23 -34 50 -65 28 -31
50 -60 50 -66 0 -5 8 -16 19 -26 21 -19 35 -9 46 37 8 30 25 47 25 24 0 -8 -9
-35 -21 -61 -20 -46 -20 -47 -1 -79 11 -18 25 -50 31 -72 7 -22 16 -49 21 -60
8 -18 17 -52 26 -95 2 -8 7 -52 10 -97 4 -45 10 -87 15 -94 11 -19 37 6 41 39
2 17 10 28 21 30 18 4 18 3 2 -22 -17 -25 -16 -28 15 -30 8 -1 14 -6 12 -11
-2 -6 -11 -9 -21 -7 -13 2 -27 -11 -45 -42 -30 -52 -31 -56 -11 -56 22 0 18
-28 -5 -40 -15 -8 -18 -15 -11 -28 5 -9 8 -34 7 -55 -4 -49 9 -47 27 6 8 24
20 42 29 42 8 0 26 8 40 17 19 13 28 14 31 5 6 -18 57 76 64 117 4 27 1 42
-12 56 -12 13 -15 25 -9 37 4 10 9 23 10 28 1 6 3 12 4 15 19 39 -21 261 -64
360 -78 176 -179 320 -225 320 -12 0 -21 -4 -21 -9 0 -5 -13 -11 -30 -13 -22
-3 -30 0 -30 10 0 9 7 13 19 9 12 -3 27 3 36 13 15 17 15 19 0 32 -26 21 -48
43 -80 82 -16 20 -38 36 -48 36 -11 0 -21 9 -24 20 -6 23 -19 25 -53 5 -32
-18 -50 -19 -50 -1 0 8 6 17 13 19 6 3 -1 6 -18 6 -16 0 -38 -4 -48 -10z"/>
<path d="M950 2292 c-8 -9 -15 -21 -16 -27 0 -5 -2 -16 -2 -22 -1 -7 -8 -13
-15 -13 -17 0 -50 -37 -65 -73 -17 -40 -16 -40 27 -34 37 5 39 3 29 -13 -9
-14 -9 -22 1 -34 11 -13 9 -16 -14 -22 -35 -9 -40 -1 -20 30 10 15 13 26 6 26
-6 0 -17 -13 -26 -30 -9 -16 -20 -30 -25 -30 -14 0 -12 14 2 28 7 7 8 12 2 12
-28 -1 -55 -46 -44 -75 4 -11 2 -36 -5 -56 -14 -38 -16 -36 37 -30 4 1 35 26
69 56 34 31 65 53 68 49 5 -5 -31 -42 -114 -115 -45 -40 -65 -67 -65 -90 0
-11 4 -18 9 -15 5 4 12 0 14 -6 4 -9 8 -9 14 -3 5 6 23 23 41 40 52 47 29 2
-37 -74 -31 -36 -50 -61 -43 -57 8 5 12 0 12 -14 0 -21 -43 -70 -87 -99 -12
-8 -20 -18 -17 -23 3 -4 -1 -6 -8 -3 -7 3 -50 -32 -97 -79 -47 -47 -89 -82
-94 -79 -5 3 17 33 50 66 32 33 49 56 38 52 -11 -5 -38 -10 -60 -13 -22 -2
-51 -13 -64 -23 -13 -11 -29 -19 -35 -19 -7 0 -38 -27 -70 -60 -32 -33 -65
-60 -73 -60 -20 0 -6 20 56 77 49 46 51 62 5 38 -16 -8 -35 -15 -41 -15 -7 0
-13 -5 -13 -12 0 -6 -3 -8 -7 -5 -3 4 -15 -1 -25 -10 -18 -16 -19 -16 -24 4
-6 20 -7 20 -57 6 -81 -22 -91 -26 -102 -35 -5 -4 -22 -17 -37 -29 l-28 -20 0
-680 0 -679 2175 0 c1443 0 2175 3 2175 10 0 6 -11 10 -24 10 -13 0 -26 4 -28
10 -1 5 -15 11 -30 12 -16 1 -28 5 -28 8 0 3 -16 7 -37 8 -20 2 -48 12 -64 22
-15 11 -31 20 -36 20 -5 0 -15 9 -23 20 -8 11 -18 20 -22 20 -5 0 -22 12 -39
28 -40 35 -86 131 -96 201 -7 51 -72 161 -94 161 -4 0 -27 -38 -50 -85 -41
-80 -47 -87 -99 -113 l-55 -27 -378 -2 c-274 -1 -383 -5 -393 -14 -11 -9 -18
-8 -31 2 -13 12 -123 14 -612 15 -648 1 -656 2 -722 57 -34 28 -39 38 -39 75
0 42 -4 47 -44 42 -16 -1 -18 3 -13 34 4 27 2 38 -11 45 -13 8 -14 13 -5 33 6
12 17 41 24 63 6 22 25 60 41 85 17 24 23 38 14 31 -18 -15 -22 -1 -4 17 7 7
8 12 4 12 -10 0 -35 -31 -36 -43 0 -5 5 -5 12 -1 7 4 8 3 4 -5 -4 -6 -11 -9
-16 -6 -4 3 -23 -13 -40 -35 -32 -40 -57 -54 -46 -24 3 9 33 53 66 98 33 46
60 89 60 97 0 8 5 20 12 27 20 20 -7 14 -35 -8 -14 -11 -30 -20 -36 -20 -19 0
-12 46 11 76 13 15 16 24 9 20 -8 -5 1 12 20 37 19 25 40 46 47 47 7 0 10 5 7
11 -4 5 3 18 14 28 12 10 21 23 21 29 0 6 4 12 9 14 14 5 0 68 -15 68 -8 0
-36 -23 -63 -50 -27 -28 -51 -50 -55 -50 -10 0 10 33 33 54 12 11 31 35 43 53
12 20 26 32 34 29 7 -3 22 10 36 31 49 81 33 332 -30 462 -20 42 -40 78 -44
79 -4 2 -8 8 -8 13 0 7 -29 56 -77 128 -1 2 -14 -4 -29 -13 -32 -22 -41 -15
-21 15 19 27 12 40 -66 122 -41 43 -57 53 -69 46 -23 -13 -32 5 -16 30 10 17
9 24 -11 45 -22 24 -24 24 -67 9 -25 -8 -48 -12 -51 -9 -4 3 3 20 15 36 12 16
22 31 22 33 0 3 -21 1 -46 -4 -49 -9 -64 -6 -64 16 0 20 -23 24 -40 7z"/>
<path d="M2604 2058 c-11 -36 -28 -41 -35 -10 -6 26 -7 26 -8 -6 -1 -34 8 -58
55 -157 13 -28 24 -56 24 -62 0 -7 7 -10 15 -7 8 4 15 2 15 -2 0 -5 9 -24 21
-43 16 -27 23 -31 30 -20 6 10 9 10 9 2 0 -7 9 -13 20 -13 11 0 20 -6 20 -12
0 -7 7 -21 14 -30 12 -17 14 -17 36 2 24 21 45 17 36 -6 -7 -19 19 -31 82 -36
35 -3 52 -1 51 6 -1 6 -1 20 0 31 1 18 3 17 27 -8 14 -15 29 -25 35 -22 15 10
10 73 -7 107 -23 45 -94 108 -121 108 -16 0 -23 6 -23 20 0 10 -12 27 -26 37
-14 10 -39 29 -56 42 -16 13 -43 24 -59 24 -16 0 -29 4 -29 8 0 4 -15 22 -32
38 -40 38 -83 42 -94 9z"/>
<path d="M2486 1763 c-3 -4 -6 -23 -6 -44 0 -21 -5 -41 -11 -44 -13 -9 -3 -58
22 -107 21 -41 28 -45 47 -26 14 14 27 -12 19 -41 -3 -14 7 -29 34 -50 32 -26
42 -30 57 -20 16 10 25 6 60 -30 28 -29 49 -41 69 -41 27 0 28 1 25 48 -3 36
1 52 13 62 16 13 17 9 14 -50 -3 -57 -2 -65 14 -62 11 2 21 -6 27 -23 7 -18
17 -25 35 -25 26 0 31 9 16 26 -15 17 -31 74 -20 74 31 0 49 -22 49 -59 0 -25
5 -41 15 -45 28 -11 45 5 45 42 0 40 16 34 22 -8 2 -17 8 -24 21 -22 10 2 21
-6 27 -20 5 -13 9 -17 9 -10 1 7 5 11 10 7 5 -3 12 3 14 12 4 14 5 13 6 -4 0
-13 6 -23 11 -23 17 0 0 71 -21 94 -11 11 -19 25 -19 32 0 7 -9 16 -21 19 -11
4 -25 17 -31 30 -12 27 -89 57 -96 37 -6 -19 -19 -14 -26 10 -5 22 -6 22 -21
3 -15 -20 -15 -20 -30 -1 -8 11 -15 27 -15 35 0 14 -14 22 -91 47 -16 6 -44
-15 -51 -38 -3 -7 -12 -9 -22 -5 -17 7 -18 9 -2 25 9 10 16 23 16 29 0 12 -72
76 -108 94 -15 8 -30 18 -34 24 -4 5 -8 0 -8 -11 0 -12 -7 -27 -15 -34 -22
-18 -32 16 -11 39 15 16 14 19 -8 38 -13 12 -27 19 -30 16z"/>
<path d="M4231 1563 c-15 -52 -14 -83 3 -83 15 0 30 -29 21 -39 -3 -3 -14 0
-25 7 -15 9 -22 9 -34 -3 -22 -22 -28 -52 -17 -74 6 -11 11 -22 11 -25 0 -10
-38 -7 -44 3 -9 14 -63 0 -103 -26 -21 -14 -21 -15 -5 -36 9 -12 44 -50 78
-84 67 -70 98 -84 65 -29 -30 48 -26 52 14 17 42 -36 44 -36 83 -14 24 14 31
25 34 57 4 41 -16 81 -34 70 -10 -7 -48 24 -48 38 0 5 10 3 23 -4 12 -6 31
-12 41 -13 11 -1 22 -7 24 -14 6 -18 32 -41 46 -41 7 0 18 12 25 28 8 15 17
35 22 45 7 13 0 27 -32 62 -39 43 -40 45 -17 45 13 0 31 -9 41 -20 26 -31 37
-24 37 21 0 28 -6 46 -17 55 -29 22 -34 16 -18 -23 15 -37 14 -37 -43 23 -32
34 -72 69 -90 78 l-31 16 -10 -37z"/>
<path d="M2465 1391 c-23 -10 -43 -44 -47 -80 -4 -36 -28 -39 -29 -4 -1 17 -3
21 -6 11 -2 -10 -9 -18 -14 -18 -5 0 -9 -7 -9 -15 0 -8 -4 -15 -8 -15 -5 0
-14 -10 -21 -23 -7 -13 -24 -31 -39 -40 -26 -16 -26 -16 -4 -17 13 0 22 -6 22
-15 0 -11 -9 -14 -32 -11 -38 4 -100 -23 -93 -41 2 -7 1 -13 -3 -13 -4 0 -17
-19 -28 -42 -12 -24 -33 -68 -48 -98 -21 -42 -28 -73 -30 -135 -2 -44 -1 -66
3 -50 7 33 21 37 32 8 5 -10 8 8 8 44 1 50 5 65 21 76 26 18 62 98 49 113 -5
6 -6 14 -2 17 13 14 18 6 20 -31 1 -20 5 -57 9 -82 l6 -44 24 49 24 50 0 -37
c0 -41 15 -59 25 -29 4 13 12 18 22 14 13 -5 15 -20 10 -97 -3 -50 -2 -98 3
-106 16 -27 40 52 40 134 0 73 11 103 25 68 7 -16 8 -15 16 3 14 31 -1 -63
-17 -110 -16 -48 -19 -109 -4 -85 8 13 10 13 10 -1 0 -21 30 -33 44 -19 5 5
12 64 14 130 3 66 8 117 13 114 5 -3 9 -24 9 -48 0 -23 4 -46 9 -52 6 -5 11
-34 13 -64 2 -30 8 -54 13 -54 14 2 37 51 39 83 1 24 12 40 27 41 3 0 4 -24 2
-52 -8 -109 40 -108 50 0 8 76 26 138 34 112 13 -43 16 -43 29 0 7 25 11 61 8
80 -4 26 -3 31 5 20 6 -8 11 -22 11 -31 0 -9 7 -16 15 -16 18 0 21 87 4 104
-13 13 -4 47 10 39 11 -7 16 -95 13 -233 -2 -68 1 -114 8 -118 6 -4 10 19 10
65 0 78 15 109 39 83 11 -12 15 -13 22 -2 4 8 4 18 -1 23 -6 6 -10 18 -10 28
0 15 4 16 26 8 14 -6 41 -10 60 -10 24 0 34 -5 34 -15 0 -12 -4 -13 -18 -6
-16 8 -18 3 -20 -47 -2 -44 2 -63 17 -82 18 -22 21 -23 26 -8 4 10 5 38 3 63
-2 31 0 44 8 41 22 -8 23 36 2 80 -11 24 -18 49 -16 55 6 18 48 -67 48 -96 0
-14 5 -25 11 -25 7 0 9 12 5 34 -5 24 -2 37 9 46 24 20 34 2 41 -70 7 -67 39
-185 57 -207 14 -18 67 -17 67 1 0 8 -11 36 -25 61 -13 26 -27 63 -31 83 -3
21 -14 55 -24 77 -24 52 -29 81 -12 77 15 -3 15 3 1 30 -9 16 -8 19 2 16 8 -3
18 -20 24 -39 5 -19 20 -51 33 -70 23 -38 28 -64 14 -73 -10 -6 27 -122 48
-152 18 -25 57 -36 99 -28 37 8 43 24 45 122 1 59 -3 74 -32 125 -29 49 -38
57 -63 57 -19 0 -42 12 -66 34 -21 18 -51 40 -68 48 -26 14 -32 14 -52 1 -13
-9 -23 -25 -23 -37 0 -17 -2 -18 -10 -6 -5 8 -10 30 -10 48 0 27 -3 32 -25 32
-31 0 -31 -1 0 -56 23 -42 24 -44 5 -44 -22 0 -48 51 -52 103 -1 21 -7 33 -17
35 -9 1 -34 3 -56 6 -22 2 -43 4 -47 5 -4 1 -14 9 -24 18 -16 16 -16 14 -10
-39 4 -32 3 -59 -2 -62 -5 -3 -12 20 -15 51 -6 60 -26 87 -39 52 -5 -12 -6
-25 -2 -30 3 -5 1 -9 -5 -9 -10 0 -16 17 -23 65 -2 13 -11 20 -25 21 -19 1
-24 -8 -38 -60 l-15 -61 4 70 c4 84 1 95 -28 95 -12 0 -27 5 -33 11 -14 14
-36 1 -29 -17 11 -30 -11 -12 -27 21 -9 19 -24 35 -33 35 -12 0 -15 6 -10 25
7 27 3 29 -29 16z"/>
<path d="M3350 1339 c0 -24 10 -40 43 -70 23 -22 50 -42 60 -45 9 -3 17 -9 17
-13 0 -4 21 -23 48 -41 26 -19 49 -37 52 -41 3 -4 32 -22 64 -41 33 -18 60
-41 62 -51 3 -25 23 -47 42 -47 15 0 72 56 72 72 0 4 7 8 16 8 9 0 18 9 21 20
5 20 7 20 24 4 17 -15 19 -15 19 -2 0 13 8 15 40 11 34 -5 40 -3 40 12 0 16 2
17 18 3 22 -20 52 -19 52 1 0 9 -14 40 -30 69 -16 29 -24 52 -17 49 7 -2 23
-31 37 -64 21 -51 30 -62 53 -65 21 -4 27 0 27 13 0 9 6 19 13 22 16 5 -111
153 -138 161 -26 7 -95 -2 -110 -14 -7 -6 -26 -4 -50 5 -65 23 -75 20 -64 -17
11 -40 12 -68 1 -52 -4 6 -18 17 -31 24 l-24 12 8 -48 c4 -27 18 -67 31 -90
28 -47 32 -74 9 -50 -8 8 -15 19 -15 25 0 5 -5 21 -11 35 -10 21 -15 23 -30
15 -16 -8 -19 -6 -19 16 0 14 5 25 10 25 6 0 10 8 10 18 -1 20 -29 73 -30 55
0 -30 -30 -10 -41 27 -13 42 -14 42 -92 55 -28 4 -39 2 -43 -9 -3 -8 -12 -12
-20 -9 -20 7 -18 23 4 24 29 2 -40 17 -85 18 -42 1 -43 0 -43 -30z"/>
<path d="M3505 986 c-13 -13 -19 -32 -17 -51 8 -98 -9 -257 -31 -284 -20 -24
-74 -41 -132 -41 l-56 0 7 -35 c8 -45 -12 -47 -24 -2 -8 29 -12 32 -46 31 -21
-1 -41 -6 -45 -12 -3 -6 -28 -12 -54 -13 -26 -2 -48 -8 -48 -13 -6 -47 -2
-157 6 -160 6 -3 2 -5 -7 -5 -10 -1 -18 4 -18 10 0 5 -4 8 -9 5 -4 -3 -14 7
-20 21 -10 21 -14 24 -21 13 -7 -12 -12 -12 -22 -2 -20 20 -28 14 -28 -19 0
-28 3 -31 23 -25 13 3 39 1 58 -4 44 -13 542 -13 594 -1 46 12 65 33 65 76 0
17 4 35 9 41 33 33 -3 314 -40 314 -5 0 -9 7 -9 14 0 12 -83 133 -109 157 -3
4 -15 -3 -26 -15z"/>
<path d="M1733 723 c-18 -34 -46 -99 -63 -144 -17 -46 -41 -100 -55 -120 -38
-58 -24 -64 169 -66 89 -1 156 0 149 3 -9 4 -6 23 12 71 27 71 34 153 12 153
-7 0 -27 -28 -45 -62 l-32 -63 3 50 c2 40 -1 49 -13 46 -41 -11 -53 -5 -65 29
l-12 35 -17 -33 c-28 -54 -86 -195 -86 -209 0 -7 -4 -13 -9 -13 -11 0 14 82
61 203 25 64 29 82 20 102 -8 16 -8 25 -1 27 6 2 9 15 7 28 -2 21 -8 16 -35
-37z"/>
<path d="M2146 600 c-40 -8 -66 -31 -66 -60 0 -9 -9 -43 -20 -75 -11 -32 -20
-59 -20 -60 0 -15 697 -23 735 -8 13 4 15 13 11 37 -4 17 -7 36 -8 43 -1 6 -7
9 -14 6 -8 -3 -14 7 -16 29 -2 18 -7 32 -13 31 -8 -2 -32 -86 -37 -130 -1 -7
-6 -13 -12 -13 -7 0 -10 29 -8 86 2 56 -1 90 -8 98 -9 8 -10 4 -5 -19 5 -21 4
-26 -3 -16 -8 10 -11 6 -17 -18 -9 -41 -25 -50 -25 -12 0 16 -4 33 -10 36 -5
3 -10 17 -10 31 0 21 -3 24 -27 18 -56 -12 -62 -15 -72 -42 -6 -17 -10 -21
-10 -9 -1 9 -8 17 -16 17 -8 0 -15 8 -16 18 0 10 -3 12 -6 5 -3 -10 -8 -9 -20
2 -18 19 -48 19 -65 1 -9 -9 -20 -11 -35 -5 -18 7 -23 5 -23 -7 0 -11 -6 -13
-20 -9 -14 4 -20 2 -20 -9 0 -8 -9 -20 -20 -26 -18 -10 -19 -8 -14 18 5 23 1
30 -21 40 -14 7 -27 11 -28 11 -1 -1 -20 -5 -41 -9z"/>
</g>
</svg>
