<?xml version="1.0" standalone="no"?>
<!DOCTYPE svg PUBLIC "-//W3C//DTD SVG 20010904//EN"
 "http://www.w3.org/TR/2001/REC-SVG-20010904/DTD/svg10.dtd">
<svg version="1.0" xmlns="http://www.w3.org/2000/svg"
 width="544.000000pt" height="544.000000pt" viewBox="0 0 544.000000 544.000000"
 preserveAspectRatio="xMidYMid meet">
<metadata>
Created by potrace 1.16, written by Peter Selinger 2001-2019
</metadata>
<g transform="translate(0.000000,544.000000) scale(0.100000,-0.100000)"
fill="#000000" stroke="none">
<path d="M0 2720 l0 -2720 2720 0 2720 0 0 2720 0 2720 -2720 0 -2720 0 0
-2720z m3263 2574 c45 -14 91 -28 102 -30 62 -12 302 -127 419 -200 116 -73
266 -193 364 -294 67 -67 91 -87 102 -80 26 17 33 11 26 -21 -5 -25 3 -43 46
-107 28 -42 59 -86 68 -97 10 -11 35 -54 57 -95 22 -41 49 -91 59 -110 11 -19
24 -39 29 -43 9 -8 93 -3 175 9 35 5 35 5 10 -9 -14 -8 -52 -20 -85 -27 -33
-7 -64 -16 -68 -20 -5 -4 4 -52 18 -106 46 -173 64 -269 81 -454 3 -30 9 -58
12 -62 4 -4 22 -8 41 -10 51 -5 51 -26 1 -34 l-42 -7 6 -46 c12 -90 89 -259
128 -279 22 -11 61 -19 101 -21 9 -1 17 -6 17 -12 0 -8 -18 -10 -59 -6 l-59 5
10 -36 c6 -20 23 -64 39 -99 48 -105 128 -320 140 -374 6 -28 9 -97 7 -153 -6
-154 -38 -201 -179 -265 -35 -16 -83 -34 -106 -40 -71 -19 -91 -45 -107 -136
-18 -100 -40 -246 -67 -443 -35 -262 -64 -340 -163 -436 -83 -81 -211 -131
-400 -157 -61 -9 -95 -18 -108 -31 -19 -19 -24 -48 -8 -48 17 0 11 -35 -8 -47
-20 -12 -40 -91 -67 -268 -33 -211 -70 -271 -180 -289 -22 -4 -467 -8 -988 -9
l-948 -2 -18 -23 c-9 -13 -23 -42 -29 -65 -13 -48 -28 -74 -37 -65 -4 3 3 37
14 74 19 63 19 68 3 80 -9 8 -26 14 -37 14 -29 0 -81 34 -102 67 -22 33 -25
174 -6 268 19 90 59 305 84 440 14 77 23 179 26 286 5 144 3 176 -15 245 -39
153 -81 220 -285 456 -60 70 -113 125 -118 123 -9 -6 -31 29 -23 37 9 9 -81
133 -98 136 -10 2 -37 -12 -60 -31 -61 -49 -98 -71 -98 -59 0 6 27 32 60 57
33 25 64 54 69 63 6 12 -8 50 -51 137 -32 66 -61 129 -63 140 -8 36 -27 75
-36 75 -5 0 -9 6 -9 14 0 7 -7 19 -15 26 -10 9 -12 16 -5 25 6 8 2 44 -14 111
-30 123 -55 326 -57 462 -1 68 -5 102 -13 102 -6 0 -29 9 -51 20 l-40 19 55
-2 c49 -2 55 0 53 17 -3 32 27 247 43 311 35 137 91 289 157 425 39 80 73 147
76 150 3 3 24 32 45 65 97 147 227 292 371 411 33 27 62 52 65 55 9 9 91 62
205 131 134 81 383 181 533 214 105 23 255 42 392 49 112 6 171 3 438 -22 l62
-6 13 34 12 34 3 -42 3 -42 82 -27z"/>
<path d="M2545 5284 c-251 -27 -465 -89 -683 -197 -172 -86 -311 -184 -469
-331 -196 -182 -400 -520 -473 -781 -12 -44 -28 -100 -35 -125 -20 -70 -26
-101 -33 -198 -7 -87 -7 -91 15 -103 14 -8 43 -9 85 -5 120 14 115 11 127 80
15 87 14 117 -7 132 -16 12 -15 13 5 14 21 0 43 25 43 49 0 5 -9 13 -20 16
-31 10 -25 37 7 33 16 -2 28 2 29 7 2 21 16 71 25 87 5 10 9 24 9 31 0 7 13
39 30 72 16 33 30 65 30 70 0 6 21 44 46 85 44 72 45 75 34 118 -13 55 -5 65
24 31 l22 -25 34 48 c37 54 226 250 278 289 62 46 73 57 70 75 -2 14 5 18 33
20 31 2 84 29 125 63 6 5 46 25 90 44 43 19 105 46 136 61 31 14 85 33 120 41
35 8 77 19 93 25 41 13 201 40 236 40 34 0 44 17 54 85 3 28 11 57 16 65 7 10
7 2 2 -25 -4 -22 -8 -58 -8 -80 l0 -40 148 -5 c126 -4 150 -3 157 10 8 13 11
12 24 -5 22 -30 31 -11 31 65 1 38 4 73 9 77 4 4 7 1 6 -7 -1 -8 -2 -45 -1
-82 l1 -68 29 0 c25 0 33 7 50 43 14 28 21 63 21 100 0 57 -8 70 -45 74 -11 1
-40 6 -65 12 -47 11 -387 22 -455 15z"/>
<path d="M3130 5191 c0 -31 -7 -77 -15 -104 -15 -50 -12 -73 8 -75 7 0 43 -8
81 -16 64 -15 70 -14 82 2 7 9 14 23 14 31 0 7 6 11 13 8 8 -3 34 12 58 33 24
22 47 39 52 40 19 1 3 -30 -38 -70 -64 -63 -60 -85 25 -128 136 -70 249 -134
280 -159 86 -68 159 -131 227 -196 l82 -78 16 25 c9 13 42 44 73 67 69 52 73
57 59 81 -12 18 -47 25 -47 9 0 -5 -8 -12 -17 -15 -16 -6 -16 -6 0 12 22 25
21 39 -3 45 -11 3 -20 14 -20 25 0 35 -112 130 -291 248 -133 87 -365 204
-434 220 -16 3 -50 13 -75 21 -25 9 -64 19 -87 23 l-43 7 0 -56z"/>
<path d="M2453 4942 l-93 -15 0 -36 -1 -36 -15 28 c-17 31 -31 33 -82 10 -20
-9 -41 -17 -47 -18 -55 -7 -235 -90 -342 -158 -59 -38 -61 -40 -52 -70 12 -43
12 -43 -15 -18 -24 23 -25 23 -48 5 -58 -47 -78 -69 -78 -86 0 -15 -12 -21
-36 -17 -11 2 -64 -55 -64 -68 0 -7 -4 -13 -9 -13 -32 0 -211 -246 -211 -290
0 -11 -7 -20 -15 -20 -8 0 -15 -6 -15 -14 0 -7 7 -19 15 -26 23 -19 18 -31
-10 -20 -22 8 -26 6 -31 -18 -4 -15 -15 -37 -25 -50 -10 -13 -25 -46 -34 -73
-16 -47 -16 -51 1 -70 17 -18 16 -19 -10 -19 l-28 0 22 -35 c12 -19 19 -39 15
-45 -3 -6 4 -15 17 -20 22 -10 22 -10 -5 -7 -22 4 -25 2 -16 -9 9 -11 5 -14
-25 -14 -35 0 -36 -1 -37 -37 -1 -21 0 -48 1 -61 1 -13 -3 -29 -9 -36 -9 -10
2 -16 47 -26 62 -13 100 -30 147 -65 44 -32 90 -45 162 -45 68 0 105 -14 138
-50 22 -25 126 -80 150 -80 9 0 20 11 25 24 5 13 15 28 22 33 15 9 38 48 38
63 0 6 9 20 20 32 18 19 24 38 21 60 0 4 8 10 19 13 11 4 20 10 20 16 0 5 21
41 46 80 25 40 49 79 52 88 5 13 78 145 162 293 43 75 86 148 116 195 19 28
34 55 34 60 0 5 11 25 25 45 14 20 25 43 25 51 0 8 24 40 53 71 56 59 57 59
167 59 58 0 63 24 22 125 -19 48 -39 116 -44 152 -5 36 -16 75 -24 87 -8 12
-14 38 -14 58 0 41 -1 41 -147 17z"/>
<path d="M2654 4912 c7 -52 -4 -48 -19 6 -8 26 -13 32 -17 21 -3 -8 3 -40 13
-69 10 -30 19 -67 19 -82 0 -28 47 -169 60 -178 4 -3 12 -15 19 -27 16 -32 27
-29 48 14 13 27 33 45 74 65 31 16 61 39 68 51 7 13 16 57 21 97 5 41 12 87
15 101 6 24 3 28 -28 38 -19 7 -88 11 -157 10 l-122 -1 6 -46z"/>
<path d="M3080 4891 c-5 -11 -10 -24 -10 -30 0 -5 -5 -22 -12 -38 l-12 -28 -5
40 -6 40 -31 -45 c-17 -25 -34 -61 -38 -80 -11 -59 -40 -96 -100 -124 -47 -23
-56 -31 -62 -60 -7 -41 2 -60 24 -51 8 3 19 0 23 -6 4 -7 22 -18 41 -24 49
-17 94 7 123 66 32 61 117 163 161 190 23 14 43 38 55 66 10 25 19 46 19 49 0
2 -13 10 -28 18 -26 13 -31 13 -45 -2 -10 -9 -17 -11 -17 -5 0 18 -29 43 -50
43 -11 0 -24 -9 -30 -19z"/>
<path d="M3303 4834 c-4 -11 -8 -12 -13 -4 -4 7 -19 -7 -39 -38 -17 -27 -48
-61 -69 -76 -50 -35 -114 -111 -145 -173 -15 -28 -38 -60 -52 -72 -32 -24 -30
-33 30 -126 88 -136 99 -203 49 -292 -25 -44 -31 -73 -14 -73 6 0 10 -5 10
-11 0 -6 -6 -9 -14 -6 -16 6 -36 -11 -36 -32 0 -8 -6 -22 -13 -30 -12 -15 -50
-104 -44 -105 1 -1 12 -7 25 -14 33 -18 118 -5 148 23 27 25 22 35 -18 35 -17
0 -27 4 -23 10 3 6 27 10 51 10 43 0 49 4 120 75 105 107 144 124 283 126 107
2 113 3 134 28 12 15 31 46 41 69 14 31 32 50 70 72 52 29 124 96 114 105 -3
3 -16 -4 -31 -15 -43 -34 -40 -22 7 23 35 33 44 48 39 65 -9 38 -23 36 -69 -9
-56 -55 -65 -47 -14 11 44 51 48 66 20 75 -11 3 -20 10 -20 15 0 12 -58 69
-105 106 l-37 28 -36 -39 c-19 -21 -33 -32 -30 -24 4 8 13 31 22 51 l16 36
-68 44 c-37 25 -74 48 -82 51 -8 4 -28 16 -45 27 -35 23 -133 70 -147 70 -5 0
-11 -7 -15 -16z"/>
<path d="M4138 4579 c-45 -23 -108 -84 -108 -103 0 -17 73 -146 114 -203 38
-51 62 -91 101 -168 33 -64 43 -69 108 -50 45 12 33 -20 -17 -43 -50 -24 -50
-28 -18 -139 11 -37 26 -99 32 -138 6 -38 17 -78 24 -87 17 -24 95 -50 124
-43 17 4 22 2 16 -6 -5 -9 0 -10 17 -6 13 4 30 7 38 7 11 0 13 17 7 93 -3 50
-10 106 -14 122 -8 28 -12 30 -54 30 -54 0 -53 10 1 25 l39 10 -9 41 c-5 23
-20 71 -32 108 -24 71 -44 86 -77 56 -10 -9 -24 -15 -30 -13 -16 5 19 43 48
52 37 12 18 18 -22 8 -41 -12 -45 -5 -16 28 26 30 26 38 -11 126 -23 54 -35
72 -42 65 -13 -13 -47 -15 -47 -3 0 4 7 17 15 29 15 21 14 26 -12 65 -32 51
-122 158 -131 158 -4 -1 -24 -10 -44 -21z"/>
<path d="M2567 4399 c-9 -6 -39 -45 -67 -87 -27 -42 -52 -82 -57 -88 -30 -39
-88 -168 -85 -190 3 -18 0 -25 -9 -22 -18 6 -67 -63 -71 -99 -4 -36 27 -43 62
-13 12 11 34 20 47 20 24 0 29 15 13 40 -6 10 -4 23 7 39 11 18 13 26 5 29
-19 6 -14 22 7 22 10 0 24 7 31 15 7 8 20 15 29 15 26 0 61 43 61 74 0 15 4
25 9 21 11 -6 61 44 61 62 0 6 6 18 13 25 15 15 57 103 57 118 0 5 -7 10 -16
10 -8 0 -12 5 -9 10 8 13 -65 13 -88 -1z"/>
<path d="M3899 4301 c-26 -27 -72 -64 -103 -82 -57 -31 -67 -45 -118 -167 -2
-4 5 -8 15 -10 20 -4 44 -27 105 -99 52 -63 65 -61 142 17 41 41 71 62 108 74
29 10 52 22 52 28 0 14 -56 0 -94 -23 -34 -21 -46 -23 -46 -11 0 5 36 25 79
46 54 26 78 42 74 51 -4 11 -18 7 -64 -17 -33 -17 -62 -29 -65 -25 -3 3 17 22
45 43 54 41 64 63 30 71 -16 5 -19 11 -14 33 5 24 -1 36 -38 74 -24 25 -48 46
-53 46 -5 0 -30 -22 -55 -49z"/>
<path d="M2941 4261 c-16 -10 -20 -26 -24 -81 -2 -30 -6 -35 -30 -38 -27 -3
-29 -6 -23 -37 4 -22 2 -36 -6 -41 -9 -6 -5 -10 11 -14 34 -8 39 -30 7 -30
-13 0 -28 -5 -31 -10 -4 -6 -9 -8 -13 -6 -4 2 -13 -2 -20 -10 -7 -8 -8 -14 -2
-14 5 0 10 -11 10 -25 0 -14 6 -25 13 -25 17 0 38 15 36 26 -4 21 2 30 23 31
22 2 48 30 78 83 8 15 23 42 33 59 21 38 16 77 -14 116 -22 27 -27 29 -48 16z"/>
<path d="M4100 3969 c-13 -6 -39 -21 -57 -34 -17 -14 -38 -25 -46 -25 -8 0
-31 -12 -52 -26 -39 -26 -70 -54 -61 -54 3 0 2 -11 -3 -23 -15 -40 0 -50 60
-42 30 4 88 9 129 10 80 2 146 24 157 52 10 26 -65 154 -90 152 -7 0 -23 -5
-37 -10z"/>
<path d="M2263 3853 c9 -2 17 -9 17 -14 0 -5 -11 -7 -24 -3 -19 4 -27 -1 -47
-33 -12 -21 -26 -40 -29 -43 -12 -11 -70 -129 -70 -144 0 -9 -3 -16 -8 -16 -4
0 -16 -16 -26 -35 -11 -19 -22 -35 -26 -35 -13 0 -6 -35 9 -47 14 -11 11 -12
-16 -13 -23 0 -33 -5 -33 -16 0 -8 -7 -22 -15 -30 -8 -8 -22 -37 -32 -64 -10
-28 -22 -50 -28 -51 -21 -1 31 -18 58 -18 21 -1 30 5 34 19 3 10 18 25 33 32
40 17 21 41 -26 32 -27 -5 -34 -3 -34 10 0 12 10 16 39 16 51 0 101 18 82 29
-9 6 -2 15 28 32 23 12 41 27 41 32 0 12 42 46 58 47 6 0 12 4 12 9 0 5 14 11
30 15 28 5 46 29 55 72 4 15 -18 53 -30 53 -5 0 -11 4 -13 10 -2 6 3 11 12 11
22 0 31 21 14 34 -18 14 -30 46 -18 47 6 1 14 2 19 3 10 1 51 50 51 60 0 3
-30 5 -67 5 -38 -1 -60 -3 -50 -6z"/>
<path d="M4165 3769 c-16 -5 -66 -9 -111 -8 -89 1 -151 -19 -140 -47 3 -9 6
-19 6 -24 0 -4 21 -18 48 -31 39 -19 63 -22 148 -22 55 0 106 3 112 7 16 9 15
109 0 124 -14 14 -21 14 -63 1z"/>
<path d="M3893 3638 c-15 -24 -43 -73 -54 -95 -23 -45 46 -103 121 -103 17 0
43 -6 58 -14 32 -16 80 -66 65 -66 -6 0 -16 7 -23 16 -21 24 -51 37 -108 45
-31 4 -71 19 -93 33 -21 14 -43 26 -48 26 -11 0 -33 -62 -29 -81 2 -8 -5 -14
-16 -14 -19 0 -66 -51 -66 -72 0 -6 -6 -18 -14 -25 -8 -8 -26 -37 -40 -64 -35
-66 -57 -103 -82 -139 -11 -17 -37 -63 -58 -103 -21 -40 -54 -99 -75 -130 -20
-31 -64 -104 -96 -162 -32 -58 -61 -107 -65 -110 -3 -3 -12 -20 -20 -38 -7
-19 -18 -39 -24 -46 -15 -16 -32 -44 -53 -86 -20 -40 -95 -116 -121 -124 -9
-2 -34 -7 -54 -11 l-38 -6 0 -65 c0 -38 6 -77 15 -93 8 -16 17 -48 21 -72 5
-30 18 -54 46 -83 36 -38 51 -74 73 -171 13 -60 -9 -13 -26 55 -14 53 -27 80
-56 111 -45 48 -82 146 -91 239 -8 78 -31 93 -49 33 -6 -21 -17 -52 -24 -69
-13 -33 -10 -41 73 -160 23 -33 28 -53 34 -134 6 -96 21 -144 70 -227 30 -52
50 -48 47 10 l-2 42 12 -48 c13 -51 36 -72 67 -64 13 3 21 -1 25 -13 3 -10 16
-20 28 -23 12 -3 56 -15 97 -27 41 -12 92 -23 113 -26 32 -3 37 -1 37 16 0 11
5 20 11 20 6 0 9 -12 7 -27 -3 -24 2 -28 52 -45 103 -35 293 -61 385 -52 74 7
145 31 145 50 0 8 5 13 11 12 6 -2 16 4 22 13 13 21 -3 62 -52 133 -30 44 -18
49 15 6 25 -32 52 -60 58 -60 12 0 6 17 -28 73 -39 64 -35 75 7 22 47 -59 67
-20 21 41 -29 38 -28 56 1 24 33 -37 31 -43 58 147 8 56 18 106 21 111 3 5
-13 34 -37 63 l-42 54 36 -28 c20 -15 39 -27 42 -27 13 0 7 28 -8 40 -17 14
-10 34 9 27 9 -4 17 20 25 76 7 45 17 98 22 117 8 31 5 38 -24 68 l-32 34 33
-17 34 -16 33 39 c22 25 70 58 135 92 70 37 98 56 90 64 -12 12 -13 27 -2 25
4 -1 21 -1 38 0 31 1 31 1 24 46 -8 55 -10 56 -67 75 -55 18 -69 40 -25 40 16
0 31 3 35 6 10 10 -22 64 -38 64 -21 0 -19 20 3 20 16 1 16 2 -2 15 -10 7 -15
18 -12 23 12 19 -102 252 -123 252 -8 0 -11 6 -7 16 3 9 -2 38 -11 65 -14 38
-24 51 -43 56 -14 3 -49 16 -77 29 -29 13 -53 19 -53 13 0 -13 -13 -11 -33 4
-15 10 -12 12 24 14 22 2 54 -4 69 -12 37 -19 80 -20 80 0 0 8 -5 26 -12 40
-8 19 -19 25 -42 25 l-31 1 33 14 c32 14 43 35 18 35 -7 0 -26 -7 -42 -14 -28
-15 -57 -10 -33 5 11 7 10 9 -4 9 -28 0 -11 17 31 30 52 17 54 21 43 70 -15
68 -32 78 -136 84 -80 4 -189 25 -214 41 -5 3 -13 0 -18 -7z"/>
<path d="M4365 3561 c-9 -28 14 -202 31 -236 9 -16 17 -41 19 -56 5 -37 66
-159 79 -159 7 0 12 -15 12 -32 1 -36 59 -189 106 -280 25 -48 34 -57 61 -61
29 -4 30 -5 10 -12 -27 -9 -28 -18 -8 -75 30 -84 13 -172 -35 -178 l-24 -4 24
-14 c23 -12 20 -13 -40 -12 -55 1 -76 -4 -141 -35 -41 -20 -83 -45 -93 -56
-20 -22 -53 -167 -63 -278 -5 -68 -4 -74 18 -93 l24 -21 -26 5 c-25 6 -27 3
-33 -42 -4 -26 -11 -67 -15 -92 -5 -25 -15 -85 -21 -135 -6 -49 -19 -126 -27
-170 -9 -44 -16 -95 -15 -113 0 -27 -3 -32 -15 -28 -9 4 -32 -4 -53 -18 -71
-46 -125 -59 -255 -58 -66 1 -133 3 -150 6 -43 6 -177 36 -195 43 -8 4 -18 5
-22 5 -12 -3 -172 49 -184 59 -6 5 -13 7 -15 4 -3 -2 -26 2 -52 10 -42 13 -47
12 -47 -2 0 -12 -6 -9 -25 11 -13 14 -29 26 -35 26 -20 0 -10 -19 23 -44 34
-26 77 -99 77 -131 0 -10 -6 -34 -12 -53 -12 -31 -11 -36 6 -46 10 -6 47 -33
82 -60 68 -53 112 -126 133 -216 16 -67 13 -202 -4 -254 -15 -44 -15 -47 10
-98 23 -47 23 -50 5 -28 -65 76 -51 70 -162 70 -80 0 -105 -3 -120 -17 -17
-15 -18 -15 -18 2 0 14 -5 16 -27 11 -37 -9 -39 -9 -98 4 -60 13 -285 11 -302
-3 -7 -5 -13 -5 -13 -1 0 11 -121 10 -196 0 -35 -5 -54 -4 -59 4 -8 12 -443
12 -460 -1 -6 -4 -32 -3 -59 2 -28 5 -58 7 -67 4 -9 -3 -36 1 -58 9 -41 14
-42 14 -58 -13 -9 -14 -32 -50 -51 -78 -25 -38 -36 -65 -36 -94 l-1 -41 55 -6
c30 -3 282 -6 560 -6 486 -1 505 0 502 18 -2 11 1 15 7 11 6 -3 11 -13 11 -21
0 -23 764 -13 809 11 42 21 57 54 72 163 11 81 11 95 -1 102 -13 8 -12 11 3
23 18 13 26 42 62 231 8 43 17 87 20 96 9 29 64 48 172 59 56 6 122 15 146 21
90 20 195 76 244 130 44 48 83 141 87 206 2 34 9 70 15 80 6 10 15 66 20 124
5 58 19 164 30 235 12 72 23 143 26 160 2 19 -2 36 -13 49 -16 18 -16 18 6 12
18 -6 22 -4 22 15 0 61 70 114 200 152 73 21 145 68 167 109 22 41 25 211 4
273 -27 80 -124 310 -138 327 -10 11 -34 18 -67 21 l-51 3 54 2 c53 2 53 2 46
30 -3 15 -16 42 -27 61 -20 32 -22 33 -72 27 l-51 -7 43 22 c29 15 41 26 38
36 -3 8 -6 18 -6 21 0 4 -30 5 -67 4 -66 -4 -143 11 -143 27 0 4 29 1 65 -7
70 -15 115 -10 115 13 0 8 -5 15 -10 15 -6 0 -8 10 -5 23 3 12 -5 51 -18 87
-14 36 -28 85 -32 110 -11 65 -36 92 -87 95 -24 1 -59 8 -78 14 -48 15 -58 14
-65 -8z"/>
<path d="M1176 3508 c-9 -17 -16 -44 -16 -60 0 -27 2 -28 48 -28 27 0 75 -9
107 -20 32 -11 71 -20 86 -20 15 0 30 -4 33 -8 8 -13 -94 3 -138 22 -47 19
-73 20 -106 1 l-25 -14 25 -1 c14 0 32 -5 40 -11 11 -8 4 -9 -29 -7 l-43 4 4
-90 c3 -52 9 -91 15 -93 7 -3 9 -19 6 -41 -3 -23 3 -66 17 -111 l22 -73 36 6
c20 4 60 9 87 11 47 4 46 4 -20 -13 -92 -24 -95 -26 -85 -61 13 -45 30 -72 42
-65 6 4 8 3 4 -4 -3 -6 0 -16 7 -24 15 -15 39 -79 33 -86 -7 -6 50 -95 74
-117 20 -18 21 -18 50 10 22 21 30 25 30 13 0 -9 -6 -18 -12 -21 -7 -2 -10 -8
-6 -12 7 -7 163 36 206 57 42 21 122 111 122 137 0 13 7 32 15 41 13 15 11 24
-22 89 l-38 73 -50 -6 c-41 -4 -46 -3 -25 5 53 23 55 25 55 70 0 24 2 46 5 49
6 6 40 97 47 127 5 20 -2 26 -45 46 -28 13 -65 38 -82 56 -25 28 -36 33 -64
29 -42 -5 -38 7 5 16 27 5 38 1 75 -34 24 -22 50 -40 59 -40 22 0 18 8 -12 24
-16 8 -47 33 -71 55 -38 36 -49 41 -90 41 -71 0 -157 24 -196 54 -41 30 -66
41 -123 50 -39 6 -42 4 -57 -26z"/>
<path d="M956 3519 c-87 -10 -111 -31 -107 -91 1 -15 11 -18 54 -18 28 0 76 3
105 6 l52 7 0 51 c0 59 5 57 -104 45z"/>
<path d="M840 3327 c0 -92 27 -281 40 -285 6 -2 10 -23 10 -48 0 -43 40 -181
64 -219 7 -11 16 -35 19 -53 7 -33 87 -203 109 -230 15 -18 44 -12 133 26 81
34 80 31 29 139 -19 39 -34 77 -34 84 0 7 -3 9 -7 6 -11 -12 -34 14 -24 27 6
8 3 27 -11 56 -31 69 -76 270 -88 399 -17 179 -6 165 -133 171 l-107 5 0 -78z"/>
<path d="M3481 3325 c-18 -19 -37 -35 -42 -35 -6 0 -7 -5 -4 -10 4 -6 11 -8
16 -5 5 4 9 1 9 -5 0 -6 7 -10 16 -8 10 2 19 -3 21 -9 6 -16 -19 -17 -34 -2
-7 7 -19 8 -30 4 -10 -4 -27 -7 -38 -6 -20 2 -46 -9 -91 -38 -18 -12 -20 -20
-14 -43 9 -28 -1 -45 -20 -33 -14 9 -13 -7 6 -61 12 -36 13 -53 5 -71 -7 -14
-7 -23 -1 -23 6 0 10 -7 10 -16 0 -11 -6 -15 -19 -11 -15 4 -22 -2 -30 -25 -6
-17 -8 -41 -5 -54 4 -13 2 -24 -4 -24 -5 0 -10 -16 -9 -35 1 -22 6 -35 14 -35
7 0 13 -4 13 -10 0 -17 -38 -11 -43 8 -4 16 -5 16 -6 0 -1 -11 -9 -18 -20 -18
-10 0 -21 -7 -25 -15 -3 -8 -13 -15 -22 -15 -16 0 -16 -1 0 -19 15 -16 15 -19
1 -31 -12 -10 -15 -9 -15 6 -1 13 -6 8 -15 -13 -14 -34 -18 -39 -60 -87 -14
-16 -25 -37 -25 -48 0 -10 -9 -26 -19 -35 -18 -15 -18 -18 -4 -40 14 -22 14
-23 -5 -23 -12 0 -23 -9 -27 -21 -6 -17 -9 -19 -16 -8 -12 19 -12 -3 1 -35 9
-24 13 -26 52 -20 50 8 74 25 83 61 3 14 15 33 25 42 10 9 33 43 50 76 17 33
53 96 80 140 27 44 49 85 50 91 0 6 7 17 16 24 20 17 55 90 48 101 -3 5 -1 9
4 9 5 0 14 10 20 23 6 12 23 40 36 62 14 22 39 67 56 100 18 33 38 67 45 75 6
8 23 38 36 65 13 28 34 67 46 87 13 21 23 40 23 43 0 3 -24 5 -53 5 -47 0 -56
-4 -86 -35z"/>
<path d="M2540 3000 c-8 -5 -25 -10 -36 -10 -14 0 -42 -26 -85 -77 -66 -80
-98 -112 -112 -113 -5 0 -21 -9 -36 -19 -41 -30 -108 -43 -211 -43 -99 1 -133
9 -181 43 -16 11 -29 17 -29 12 0 -5 -20 -30 -45 -56 -25 -27 -45 -52 -45 -57
0 -5 -5 -20 -11 -34 -9 -20 -23 -27 -68 -36 -31 -6 -80 -20 -109 -31 -29 -10
-63 -19 -75 -19 -13 0 -32 -7 -43 -15 -22 -17 -15 -19 20 -5 30 11 33 2 9 -26
-10 -11 -19 -25 -20 -31 -2 -6 26 -42 62 -80 35 -37 64 -74 65 -80 0 -7 7 -13
15 -13 8 0 15 -4 15 -9 0 -10 12 -24 95 -112 43 -45 143 -224 185 -329 12 -30
26 -65 31 -78 l9 -23 27 20 c31 25 39 21 23 -9 -26 -49 -1 -38 37 16 52 75 78
98 129 119 28 11 46 26 57 50 11 23 35 45 73 66 32 19 66 48 81 70 17 25 39
44 68 55 27 10 59 35 89 69 34 40 58 57 95 70 27 9 52 22 54 28 4 10 -50 122
-73 152 -27 34 -70 138 -70 167 0 22 20 75 54 144 30 59 52 112 50 116 -3 5 4
20 15 34 12 15 21 37 21 50 0 20 -5 24 -29 24 -16 0 -41 2 -57 5 -16 3 -36 1
-44 -5z"/>
<path d="M2850 2939 c0 -5 -4 -7 -10 -4 -5 3 -10 0 -10 -9 0 -8 -3 -16 -7 -18
-19 -8 -93 -103 -93 -118 0 -9 -11 -22 -24 -28 -13 -6 -31 -25 -40 -43 l-16
-32 48 7 c26 4 55 7 65 7 11 0 17 8 17 25 0 14 9 34 20 46 11 12 20 29 20 38
0 8 7 25 15 37 15 22 32 103 21 103 -3 0 -6 -5 -6 -11z"/>
<path d="M2005 2923 c-11 -3 -24 -11 -28 -19 -4 -8 -15 -14 -22 -14 -10 0 -15
-10 -15 -30 0 -39 27 -50 119 -50 71 0 84 6 94 47 4 19 -3 26 -46 48 -51 25
-64 27 -102 18z"/>
<path d="M1204 2486 c-34 -15 -64 -51 -64 -76 0 -24 73 -119 90 -120 15 0 65
47 100 93 12 17 11 18 -15 11 -35 -9 -26 12 11 26 28 11 31 32 7 60 -21 24
-81 26 -129 6z"/>
<path d="M1367 2405 c-8 -17 -42 -55 -74 -86 -47 -45 -57 -60 -49 -71 14 -18
54 -29 62 -17 7 12 24 11 24 -1 0 -5 -7 -10 -15 -10 -31 0 -16 -51 28 -95 23
-22 64 -70 92 -106 27 -35 52 -66 56 -69 12 -9 99 -157 99 -169 0 -6 5 -11 10
-11 6 0 10 -8 10 -19 0 -10 7 -34 15 -54 17 -42 48 -264 39 -279 -4 -7 -2 -8
4 -4 7 4 12 1 12 -8 0 -9 -4 -16 -10 -16 -5 0 -10 -21 -10 -47 0 -27 -5 -82
-11 -123 -5 -41 -12 -95 -15 -120 -3 -25 -13 -79 -24 -120 -10 -41 -21 -97
-25 -125 -4 -27 -20 -116 -36 -196 -16 -80 -29 -159 -29 -176 0 -41 32 -79 73
-87 45 -8 67 1 67 28 0 22 35 98 70 152 12 18 27 73 36 125 9 52 24 112 34
134 23 51 36 105 55 225 22 141 21 147 -15 142 -33 -5 -35 -1 -20 29 9 16 15
17 31 8 12 -6 23 -8 26 -5 9 9 16 260 9 310 -7 45 -8 46 -29 31 -34 -24 -43
-18 -13 10 14 13 26 30 26 37 0 7 -11 57 -24 110 -44 175 -138 341 -272 481
-38 40 -81 88 -96 107 -15 19 -42 53 -61 75 l-34 39 -16 -29z"/>
<path d="M2704 2262 c-28 -24 -44 -65 -44 -116 0 -54 -21 -116 -62 -179 -23
-36 -28 -51 -19 -60 8 -8 11 -8 11 0 0 6 7 13 15 17 13 4 13 2 5 -14 -16 -30
-12 -49 23 -98 49 -70 79 -102 110 -119 42 -21 175 -64 229 -72 52 -9 51 -16
13 84 -14 38 -25 95 -29 155 -6 87 -10 97 -40 135 -75 93 -89 136 -61 185 19
34 19 70 0 70 -9 0 -20 -10 -25 -22 -8 -21 -9 -20 -9 8 -1 26 -6 33 -27 38
-30 8 -50 -5 -58 -39 -4 -14 -10 -25 -15 -25 -6 0 -6 13 0 32 11 39 9 41 -17
20z"/>
<path d="M2603 2249 c-18 -5 -48 -29 -73 -59 -28 -33 -54 -53 -80 -61 -26 -8
-47 -24 -68 -54 -18 -25 -51 -54 -83 -71 -29 -16 -57 -38 -63 -49 -6 -11 -28
-39 -48 -61 -26 -30 -38 -55 -44 -89 -12 -80 2 -213 30 -295 15 -41 26 -76 25
-78 0 -2 2 -6 5 -10 3 -3 6 0 6 7 0 7 20 35 44 62 41 45 75 113 63 125 -2 3
-12 -2 -20 -11 -24 -23 -27 -18 -10 16 13 26 14 40 4 81 -27 118 -3 209 64
244 35 18 127 21 168 5 25 -10 31 -8 48 11 40 48 69 122 73 191 3 37 8 77 11
87 7 22 -1 24 -52 9z"/>
<path d="M2108 1863 c-20 -16 -44 -40 -53 -56 -9 -15 -34 -48 -57 -74 -34 -39
-39 -51 -34 -77 4 -17 9 -89 12 -161 5 -99 10 -133 21 -142 17 -13 11 -63 -7
-63 -6 0 -10 -26 -10 -57 0 -32 -4 -75 -9 -95 -6 -26 -5 -42 4 -54 11 -16 13
-16 26 2 8 11 33 28 56 38 64 28 83 55 99 138 24 124 27 183 11 214 -33 67
-50 172 -43 272 4 53 12 105 18 115 15 29 4 29 -34 0z"/>
<path d="M2510 1742 c-14 -20 -38 -51 -53 -69 -33 -38 -32 -60 8 -123 41 -67
126 -134 213 -171 65 -27 318 -104 405 -123 l29 -7 -7 58 c-9 69 3 66 13 -2 5
-35 14 -52 31 -64 l24 -16 -7 43 c-3 24 -19 69 -35 100 -15 31 -31 69 -34 83
-8 31 -19 37 -187 90 -181 57 -215 75 -301 163 l-74 75 -25 -37z"/>
<path d="M2287 1481 c-27 -34 -52 -74 -58 -88 -5 -13 -10 -70 -10 -126 -1 -56
-3 -91 -6 -77 -2 14 -6 36 -10 50 -5 22 -7 19 -14 -20 -11 -56 -29 -81 -106
-145 -84 -70 -142 -163 -158 -255 -4 -25 -2 -30 15 -30 11 0 20 -7 20 -15 0
-8 -7 -15 -15 -15 -8 0 -15 -7 -15 -15 0 -8 7 -15 15 -15 8 0 15 -4 15 -10 0
-6 45 -10 116 -10 81 0 113 3 108 11 -4 8 -1 8 13 1 28 -15 129 -18 146 -4 8
7 21 10 29 7 8 -3 47 -9 86 -14 53 -5 72 -4 72 5 0 6 10 14 22 17 24 7 41 -3
21 -10 -36 -13 -4 -23 71 -23 97 0 95 -1 97 93 2 65 4 60 14 -36 l7 -58 150 3
c136 3 151 5 165 23 11 14 17 16 20 8 6 -16 63 -17 63 -2 0 6 8 3 17 -6 15
-16 18 -16 29 -1 9 13 13 13 17 4 3 -9 19 -12 50 -10 51 4 78 31 79 81 2 65
-67 207 -113 231 -11 6 -27 28 -37 48 -22 47 -54 51 -63 7 l-7 -30 -1 35 c-2
63 -22 75 -158 97 -18 3 -33 9 -33 14 0 5 -7 9 -15 9 -9 0 -48 11 -87 25 -85
30 -78 29 -78 8 0 -16 -3 -15 -18 3 -18 22 -84 55 -151 76 -23 7 -41 17 -41
23 0 5 -19 24 -41 40 -23 17 -61 52 -85 78 l-44 49 -17 -36 c-21 -45 -30 -46
-25 -2 8 72 -1 74 -51 7z"/>
</g>
</svg>
