<?xml version="1.0" standalone="no"?>
<!DOCTYPE svg PUBLIC "-//W3C//DTD SVG 20010904//EN"
 "http://www.w3.org/TR/2001/REC-SVG-20010904/DTD/svg10.dtd">
<svg version="1.0" xmlns="http://www.w3.org/2000/svg"
 width="544.000000pt" height="544.000000pt" viewBox="0 0 544.000000 544.000000"
 preserveAspectRatio="xMidYMid meet">
<metadata>
Created by potrace 1.16, written by Peter Selinger 2001-2019
</metadata>
<g transform="translate(0.000000,544.000000) scale(0.100000,-0.100000)"
fill="#000000" stroke="none">
<path d="M0 2720 l0 -2720 2720 0 2720 0 0 2720 0 2720 -2720 0 -2720 0 0
-2720z m2983 2640 c331 -48 693 -199 957 -400 176 -134 392 -377 485 -545 73
-132 89 -165 125 -254 62 -155 87 -267 114 -512 l25 -227 56 -138 c32 -76 75
-175 96 -220 21 -45 39 -84 39 -88 0 -4 8 -26 19 -49 29 -65 81 -205 103 -277
17 -53 19 -83 16 -160 -6 -112 -26 -167 -75 -210 -31 -28 -148 -90 -168 -90
-27 0 -124 -55 -133 -75 -18 -39 -66 -323 -88 -520 -10 -91 -46 -258 -64 -301
-39 -89 -127 -178 -220 -221 -65 -30 -155 -55 -265 -73 -75 -12 -124 -25 -130
-34 -6 -8 -17 -45 -24 -83 -7 -37 -21 -111 -31 -163 -10 -52 -23 -126 -30
-165 -28 -158 -68 -214 -162 -235 -38 -8 -333 -10 -1059 -8 l-1005 3 -42 27
c-56 37 -75 78 -74 154 0 57 29 247 51 339 14 58 49 252 56 310 3 28 10 77 15
110 32 201 -8 451 -92 569 -16 23 -36 52 -45 66 -9 14 -42 54 -73 90 -197 228
-308 385 -394 555 -23 45 -46 94 -53 110 -85 215 -111 309 -138 498 -29 208
-15 550 29 712 63 226 94 312 167 459 44 87 92 173 108 191 16 18 44 55 62 81
51 74 65 90 184 209 131 131 164 159 272 231 282 187 568 291 928 337 64 8
394 6 458 -3z"/>
<path d="M2550 5283 c-116 -9 -354 -56 -374 -74 -6 -5 -17 -9 -25 -9 -28 0
-203 -73 -321 -133 -190 -98 -348 -220 -517 -400 -29 -30 -53 -58 -53 -61 0
-3 -11 -16 -24 -31 -22 -23 -79 -106 -118 -171 -10 -16 -22 -36 -27 -44 -94
-145 -175 -363 -222 -595 -26 -127 -36 -420 -20 -555 16 -137 81 -402 101
-415 4 -3 11 -17 14 -32 16 -67 131 -305 156 -323 4 -3 11 -15 14 -28 4 -13
33 -55 65 -95 31 -40 68 -86 82 -103 13 -17 77 -96 141 -176 182 -227 217
-309 238 -552 8 -104 -9 -310 -38 -461 -11 -55 -27 -143 -37 -195 -9 -52 -21
-117 -27 -145 -29 -143 -38 -192 -38 -217 0 -32 38 -62 90 -72 63 -12 1983 -7
2019 5 52 18 64 58 116 384 39 242 58 278 153 290 221 26 243 31 338 76 144
69 196 157 225 379 10 74 25 187 34 250 9 63 21 149 26 190 13 104 37 191 57
213 21 24 98 61 179 86 68 20 136 68 157 110 43 83 27 212 -51 401 -30 74 -65
162 -78 195 -12 33 -52 126 -88 207 -86 192 -94 224 -117 445 -21 205 -31 264
-57 351 -9 31 -18 62 -19 69 -1 7 -9 27 -18 44 -9 18 -16 36 -16 42 0 23 -101
212 -167 312 -111 170 -199 268 -368 412 -110 93 -274 199 -375 242 -30 13
-68 29 -85 36 -212 95 -345 127 -600 145 -135 9 -229 10 -325 3z m410 -239
c297 -45 545 -152 805 -347 99 -74 315 -290 315 -315 0 -6 16 -33 36 -59 66
-89 158 -267 178 -347 8 -31 17 -60 20 -64 14 -24 37 -178 50 -345 17 -219 30
-261 182 -604 8 -17 14 -34 14 -37 0 -4 20 -48 44 -99 88 -185 104 -262 65
-311 -22 -28 -91 -76 -109 -76 -6 0 -29 -8 -53 -19 -23 -10 -57 -24 -75 -31
-41 -16 -79 -60 -91 -108 -9 -35 -32 -186 -66 -437 -8 -60 -19 -137 -25 -170
-6 -33 -15 -94 -20 -135 -26 -188 -146 -252 -434 -228 -100 8 -167 23 -511
113 -49 13 -103 28 -120 34 -29 10 -131 41 -250 76 -212 61 -288 113 -375 255
-18 30 -40 61 -49 68 -21 17 -76 15 -95 -4 -55 -54 19 -272 125 -370 52 -49
136 -102 171 -109 18 -4 39 -11 48 -16 23 -12 136 -46 225 -68 77 -18 148 -41
190 -60 146 -67 180 -87 228 -134 44 -43 57 -64 76 -125 19 -62 22 -90 19
-187 -3 -110 -4 -116 -31 -142 l-27 -28 -789 0 c-928 0 -837 -14 -827 125 4
47 15 137 26 200 42 249 50 328 50 481 0 192 -11 260 -69 414 -52 141 -113
236 -240 375 -169 185 -249 295 -320 438 -38 75 -72 148 -76 162 -4 14 -11 30
-16 36 -5 6 -20 54 -34 105 -90 352 -70 769 52 1067 56 136 152 312 193 352 8
8 35 42 60 75 52 71 177 194 240 238 25 17 56 42 70 55 38 35 198 127 292 167
46 20 94 42 108 50 35 19 114 40 265 70 223 46 352 50 555 19z"/>
<path d="M2536 4952 c-3 -3 -27 -6 -53 -8 -27 -1 -61 -8 -78 -15 -16 -7 -34
-11 -39 -10 -4 1 -5 -15 -2 -36 l7 -38 -22 33 c-26 39 -24 39 -159 -11 -97
-36 -161 -65 -170 -77 -3 -4 -16 -11 -29 -15 -77 -24 -375 -248 -399 -299 -9
-20 -7 -27 10 -43 11 -10 29 -31 41 -48 14 -21 6 -16 -30 18 l-50 49 -37 -44
c-75 -90 -116 -143 -116 -152 0 -5 -6 -17 -13 -25 -7 -9 -19 -35 -27 -58 -8
-25 -19 -43 -28 -43 -12 0 -11 -5 3 -26 17 -27 17 -27 -7 -21 -22 6 -26 0 -65
-96 -36 -90 -39 -104 -26 -119 16 -18 4 -32 -20 -22 -12 4 -14 0 -10 -14 2
-11 0 -29 -7 -41 -10 -19 -7 -24 25 -42 43 -26 45 -33 4 -25 -42 8 -59 -8 -59
-54 0 -20 -4 -50 -10 -66 -13 -39 -19 -185 -9 -205 5 -9 28 -20 51 -25 l43 -8
-48 -4 -48 -3 6 -77 c4 -42 8 -83 10 -89 3 -9 29 -13 77 -14 l73 -2 -70 -11
c-79 -13 -84 -19 -66 -95 17 -66 31 -99 47 -105 7 -3 45 2 85 10 78 16 108 12
38 -5 -126 -31 -122 -29 -115 -65 6 -30 52 -132 119 -264 12 -23 32 -53 45
-67 12 -13 22 -31 22 -40 0 -18 13 -19 41 -5 23 13 26 -2 4 -20 -8 -7 -15 -16
-15 -21 0 -8 150 -182 180 -209 36 -32 119 -137 145 -185 16 -27 39 -65 53
-83 13 -18 36 -69 52 -114 15 -44 33 -85 39 -91 6 -6 11 -20 11 -31 0 -19 1
-19 23 2 35 33 39 27 15 -23 -21 -43 -21 -48 -9 -142 7 -54 13 -159 13 -233 0
-119 -7 -197 -43 -450 -23 -160 -23 -173 1 -195 21 -19 40 -20 344 -25 176 -3
337 -3 357 -2 32 3 36 6 33 30 -4 26 -3 26 4 3 8 -27 43 -44 54 -27 4 6 9 58
10 116 l1 105 6 -107 c3 -58 9 -110 13 -113 8 -8 353 -7 488 1 72 4 88 9 102
27 36 47 33 127 -9 219 -24 52 -29 57 -66 64 -36 6 -39 8 -24 19 21 15 22 25
2 25 -8 0 -15 4 -15 8 0 18 -144 76 -300 122 -41 12 -95 28 -120 36 -40 13
-46 13 -56 -1 -15 -20 -22 -19 -26 6 -2 16 -19 27 -66 44 -85 31 -165 85 -235
159 l-58 61 -20 -25 -20 -25 6 46 c5 32 2 57 -10 85 -66 157 -76 259 -31 318
37 49 79 65 153 57 71 -8 84 -17 158 -116 29 -38 65 -84 81 -100 29 -29 169
-105 195 -105 7 0 26 -4 43 -10 216 -66 337 -103 416 -125 52 -15 124 -36 160
-46 222 -68 331 -81 461 -55 46 10 89 24 95 32 6 7 16 14 23 14 6 0 11 3 12 8
0 4 2 17 5 28 2 12 -8 43 -21 68 -33 63 -32 66 11 25 34 -32 36 -32 29 -9 -4
14 -18 40 -31 59 -31 46 -23 51 14 9 17 -18 33 -30 36 -27 10 10 -14 76 -34
94 -11 10 -20 23 -20 28 0 6 10 1 23 -11 42 -40 49 -30 61 83 3 22 10 73 16
114 l12 73 -43 44 c-48 49 -45 57 7 18 41 -31 53 -27 28 11 -16 25 -16 26 4
32 17 4 22 13 22 39 0 28 17 106 35 165 4 11 -6 31 -26 53 -34 40 -32 45 8 19
25 -17 26 -17 42 7 9 14 27 35 40 48 25 23 181 104 192 100 11 -5 51 35 60 59
5 15 0 46 -17 100 -33 101 -36 105 -70 123 -23 11 -25 15 -11 18 21 4 22 18 3
25 -8 3 -12 14 -10 24 4 15 -56 162 -141 349 -8 18 -20 55 -27 83 -10 46 -14
51 -39 51 -15 0 -31 5 -34 10 -3 6 2 10 12 10 40 0 41 8 26 185 -8 94 -15 177
-15 187 1 9 -10 19 -25 23 -23 5 -24 7 -8 18 15 12 16 17 0 75 -17 69 -44 132
-56 132 -4 0 -20 -5 -36 -10 l-28 -10 28 23 c33 28 33 36 4 92 l-23 43 -53
-30 c-29 -17 -54 -28 -57 -26 -2 3 16 22 41 42 49 41 56 65 26 95 -10 10 -22
27 -25 38 -8 24 -117 163 -138 177 -14 8 -23 5 -45 -19 -15 -17 -37 -37 -47
-45 -18 -14 -19 -13 -10 2 5 9 26 34 47 57 41 45 44 51 22 51 -8 0 -15 4 -15
9 0 14 -63 71 -78 71 -7 0 -15 6 -18 13 -3 8 -19 24 -35 36 l-31 23 -29 -28
c-33 -32 -37 -26 -12 17 15 26 16 31 3 39 -8 5 -18 6 -22 4 -4 -3 -8 1 -8 8 0
16 -65 57 -208 129 -78 40 -105 50 -111 40 -6 -9 -10 -7 -13 7 -7 26 -88 46
-101 25 -11 -18 -27 -16 -27 3 0 20 -28 43 -52 44 -20 0 -38 -29 -38 -62 0
-13 -5 -30 -11 -38 -8 -11 -9 0 -6 42 3 32 1 60 -4 64 -23 14 -193 34 -293 34
l-109 0 6 -52 c6 -53 3 -50 -23 19 -11 28 -16 32 -50 31 -22 0 -41 -3 -44 -6z
m316 -479 c6 -7 20 -13 30 -13 32 0 130 -111 172 -192 32 -64 38 -84 34 -120
-5 -41 -65 -179 -80 -186 -5 -2 -8 -12 -8 -22 0 -9 -7 -23 -16 -30 -18 -15
-74 -125 -74 -146 0 -31 193 -33 223 -2 9 9 21 18 25 20 5 1 12 15 16 31 6 26
5 27 -41 28 l-48 2 60 7 c46 6 63 13 75 31 24 36 102 111 148 143 39 27 52 30
147 34 132 6 163 0 208 -43 20 -19 37 -37 37 -40 0 -3 8 -15 19 -26 73 -78
113 -253 76 -335 -39 -87 -90 -183 -131 -247 -24 -37 -44 -72 -44 -78 0 -6
-13 -28 -28 -48 -16 -20 -46 -67 -67 -106 -21 -38 -58 -106 -83 -150 -25 -44
-57 -101 -71 -126 -14 -26 -41 -73 -60 -105 -19 -33 -42 -72 -51 -89 -9 -16
-38 -67 -66 -113 -27 -45 -65 -110 -85 -145 -24 -42 -51 -73 -84 -95 -46 -31
-50 -32 -155 -32 -154 0 -190 17 -282 131 -51 64 -106 167 -113 214 -6 35 -1
50 41 125 74 133 74 134 64 144 -6 6 -1 14 13 20 25 13 61 81 53 102 -4 11
-30 14 -107 14 l-103 0 -44 -47 c-24 -27 -52 -64 -62 -83 -34 -66 -144 -145
-217 -156 -25 -4 -87 -4 -139 -2 -132 7 -164 31 -236 177 -32 65 -42 98 -45
150 -5 77 7 111 107 286 33 59 60 109 60 111 0 3 7 12 15 20 8 9 15 24 15 35
0 10 4 19 9 19 8 0 149 241 196 335 11 22 22 42 26 45 8 7 69 109 69 115 0 3
25 47 55 98 30 50 55 97 55 103 0 5 8 19 18 30 24 28 39 52 61 99 11 22 38 60
61 83 l42 44 148 -4 c102 -2 153 -7 162 -15z"/>
<path d="M2615 4423 c-11 -2 -29 -6 -41 -8 -17 -4 -94 -102 -94 -121 0 -3 -14
-26 -32 -52 -39 -56 -98 -174 -98 -195 0 -8 -7 -17 -15 -21 -8 -3 -21 -18 -27
-33 -7 -15 -15 -30 -18 -33 -3 -3 -13 -19 -22 -36 -18 -31 -18 -32 5 -37 12
-3 58 -6 101 -6 43 0 81 -3 84 -6 3 -3 -44 -5 -104 -5 -93 0 -111 -3 -122 -17
-51 -72 -291 -492 -401 -700 -10 -20 -8 -24 22 -36 44 -19 203 -19 239 -1 15
8 37 36 53 69 15 30 31 58 36 61 25 15 1 24 -68 24 -101 0 -85 18 20 22 l79 3
28 54 c16 30 33 58 37 62 14 14 136 19 557 20 225 0 415 3 423 6 20 8 16 34
-12 75 -14 20 -25 44 -25 52 0 22 -82 104 -87 88 -3 -6 -9 -9 -14 -6 -5 3 -75
7 -155 10 -86 2 -153 8 -167 16 -13 7 -80 13 -172 15 -82 2 -156 5 -163 8 -18
7 -8 37 34 107 19 31 34 59 34 62 0 3 -12 6 -27 7 -16 0 -21 3 -13 6 42 14 44
17 10 24 -32 7 -31 8 11 5 43 -3 48 -1 62 28 29 55 75 134 112 188 19 29 35
58 35 64 0 7 15 34 33 60 52 76 80 145 65 160 -13 11 -165 25 -203 17z"/>
<path d="M2843 4313 c-35 -51 -65 -101 -141 -233 -11 -19 -50 -87 -87 -150
-112 -188 -116 -198 -98 -204 8 -3 66 -6 129 -6 100 0 116 2 132 19 32 36 40
49 72 107 17 32 37 66 45 74 8 9 15 20 15 23 0 4 11 25 25 48 14 22 23 44 20
48 -2 5 1 11 9 14 19 7 56 87 56 120 0 45 -66 164 -99 182 -17 8 -32 15 -34
15 -2 0 -22 -26 -44 -57z"/>
<path d="M3485 3993 c-11 -2 -30 -6 -42 -9 -29 -6 -31 -51 -5 -85 10 -13 21
-32 25 -41 7 -20 28 -23 44 -7 8 8 13 8 18 -1 4 -7 -1 -14 -14 -17 -24 -6 -21
-28 7 -71 22 -34 52 -42 150 -42 105 1 127 12 119 62 -6 39 -67 145 -101 177
-36 34 -129 50 -201 34z"/>
<path d="M3326 3907 c-37 -35 -73 -133 -58 -158 10 -16 9 -19 -3 -19 -8 0 -15
7 -15 15 0 8 -4 15 -9 15 -22 0 -39 -98 -19 -105 7 -3 14 -16 14 -30 1 -13 11
-37 23 -53 12 -17 21 -34 21 -39 0 -5 13 -22 30 -38 24 -23 32 -26 44 -16 8 7
12 19 9 27 -3 8 1 14 11 14 9 0 16 5 16 10 0 6 -11 8 -25 4 -15 -4 -25 -2 -25
4 0 6 15 12 33 14 39 4 43 22 5 26 -44 5 -33 21 13 19 39 -2 41 0 75 54 l35
56 -27 57 c-27 54 -30 56 -69 58 -38 1 -38 1 -7 5 38 5 37 14 -1 70 -26 39
-38 41 -71 10z"/>
<path d="M3527 3661 c-26 -31 -119 -184 -138 -227 -11 -24 -29 -49 -41 -55
-15 -8 -122 -10 -371 -6 -287 4 -358 2 -391 -9 -33 -12 -56 -13 -138 -2 -53 6
-100 9 -103 6 -8 -8 56 -139 93 -193 22 -32 33 -39 54 -37 14 2 32 -4 41 -12
12 -12 38 -16 114 -16 128 0 171 -8 178 -31 7 -23 -14 -95 -32 -110 -7 -6 -13
-20 -13 -30 0 -11 -4 -19 -8 -19 -5 0 -17 -17 -28 -37 -10 -21 -21 -40 -24
-43 -13 -12 -47 -70 -77 -130 -31 -61 -33 -68 -23 -115 6 -27 28 -78 50 -113
51 -79 71 -80 115 -5 16 29 46 78 65 109 19 31 49 80 65 109 17 28 43 71 59
96 15 24 62 102 105 173 72 123 101 158 101 122 0 -15 -18 -47 -108 -194 -12
-20 -26 -46 -31 -57 -5 -11 -35 -63 -66 -115 -32 -52 -66 -111 -77 -130 -11
-19 -38 -64 -59 -100 -21 -36 -41 -79 -45 -96 -5 -27 -3 -32 23 -41 15 -6 65
-11 110 -12 97 -2 130 11 164 66 61 98 81 133 111 193 17 36 41 79 52 95 12
17 32 50 46 75 13 25 30 51 37 58 7 7 29 46 49 85 19 40 48 92 64 117 16 25
29 51 29 58 1 7 14 32 29 55 16 23 43 68 61 100 17 32 38 65 46 74 8 8 15 20
15 27 0 15 -52 29 -74 20 -8 -3 -17 -1 -21 5 -4 7 14 11 55 11 56 0 61 2 73
28 6 15 29 51 49 81 48 69 83 160 68 175 -7 7 -57 11 -125 12 -94 1 -117 -2
-128 -15z"/>
<path d="M2244 3268 c-26 -40 -61 -98 -78 -129 l-30 -56 21 -51 c29 -69 91
-162 109 -162 20 0 77 57 79 78 0 10 11 28 23 40 12 12 24 34 28 49 3 16 8 35
11 43 13 33 -1 77 -49 162 -28 49 -54 91 -59 93 -4 3 -29 -27 -55 -67z"/>
<path d="M1833 3053 c-21 -8 -15 -45 18 -102 l31 -53 47 46 c62 62 76 59 17
-4 -25 -27 -46 -58 -46 -69 0 -12 15 -28 36 -42 30 -18 55 -23 138 -26 86 -3
104 -1 123 14 l22 18 -30 60 c-17 33 -45 84 -62 113 l-31 52 -126 -1 c-69 0
-131 -3 -137 -6z"/>
</g>
</svg>
