<?xml version="1.0" standalone="no"?>
<!DOCTYPE svg PUBLIC "-//W3C//DTD SVG 20010904//EN"
 "http://www.w3.org/TR/2001/REC-SVG-20010904/DTD/svg10.dtd">
<svg version="1.0" xmlns="http://www.w3.org/2000/svg"
 width="544.000000pt" height="544.000000pt" viewBox="0 0 544.000000 544.000000"
 preserveAspectRatio="xMidYMid meet">
<metadata>
Created by potrace 1.16, written by Peter Selinger 2001-2019
</metadata>
<g transform="translate(0.000000,544.000000) scale(0.100000,-0.100000)"
fill="#000000" stroke="none">
<path d="M17 5423 c4 -11 3 -14 -5 -9 -9 5 -12 -296 -12 -1266 l1 -1273 64
-29 c36 -16 82 -44 102 -63 34 -30 29 -28 -42 16 -44 27 -90 52 -102 56 l-23
6 0 -680 c0 -375 2 -681 4 -681 2 0 20 7 41 16 20 8 80 26 133 40 54 13 106
28 117 33 11 5 34 14 51 21 23 8 33 20 38 42 11 53 7 84 -14 108 -18 20 -18
25 -5 51 18 34 19 71 3 87 -21 21 -12 99 15 132 14 16 28 39 32 50 3 11 10 20
14 20 4 0 22 31 40 70 18 38 41 72 51 75 10 3 29 29 44 58 14 29 26 48 26 42
0 -5 15 19 33 55 30 60 35 65 87 83 30 10 75 20 99 22 58 5 111 31 111 54 0
10 -3 33 -6 50 -5 26 -9 29 -18 17 -15 -20 -51 -25 -51 -7 0 8 15 19 33 23 17
5 32 11 32 13 0 11 -54 141 -63 153 -5 7 -7 15 -4 18 3 3 -1 27 -9 52 -8 26
-17 61 -20 77 -3 17 -12 62 -20 100 -43 209 -42 545 2 755 20 96 98 335 134
414 16 34 30 68 32 76 2 8 8 19 15 25 6 5 26 38 45 73 46 89 44 85 133 210 44
62 80 118 80 125 0 6 7 11 16 10 8 -2 44 27 79 63 61 62 175 157 192 160 5 1
11 2 14 3 4 0 1 8 -6 16 -17 20 -4 35 32 35 20 0 59 17 107 48 77 48 321 172
341 172 5 0 18 8 28 18 10 9 32 24 48 32 26 14 29 22 34 79 3 34 3 64 1 67 -2
2 -31 4 -63 4 -53 0 -58 -2 -58 -22 l-1 -23 -18 23 -19 22 -738 0 -737 0 23
-25 c20 -21 21 -25 7 -25 -10 0 -23 11 -29 25 l-11 25 -171 0 -171 -1 40 -34
c22 -19 34 -35 26 -35 -7 0 -28 16 -45 35 -30 32 -37 35 -89 35 -48 0 -55 -2
-50 -17z"/>
<path d="M2245 5408 c14 -70 8 -66 103 -63 48 2 121 9 162 15 43 6 163 10 279
8 154 -2 206 1 209 10 6 19 22 14 22 -8 0 -14 9 -21 38 -26 46 -8 124 -26 225
-54 l77 -21 25 28 c21 23 26 26 34 13 7 -11 5 -21 -10 -36 l-19 -21 38 -11
c96 -29 360 -174 476 -262 32 -25 66 -49 74 -55 35 -23 58 -43 103 -91 27 -28
60 -56 74 -64 14 -7 25 -20 25 -27 0 -8 15 -29 33 -47 17 -18 55 -57 82 -86
105 -110 112 -112 230 -70 50 17 76 20 155 17 52 -3 118 -10 145 -17 73 -18
134 -16 185 7 71 32 88 35 124 22 28 -10 40 -9 76 5 42 17 140 104 140 125 0
6 5 11 10 11 6 0 10 5 10 11 0 13 -30 8 -82 -15 -21 -9 -38 -12 -38 -7 0 5 26
19 58 30 31 11 73 29 92 40 l35 19 3 291 2 291 -27 -5 -28 -6 28 21 c15 12 27
30 27 41 0 18 -32 19 -1601 19 l-1601 0 7 -32z"/>
<path d="M2501 5279 c-94 -11 -209 -43 -241 -68 -19 -14 -25 -27 -24 -53 1
-42 24 -98 40 -98 6 0 17 -7 24 -15 16 -20 91 -19 203 1 73 14 87 19 87 35 0
10 7 19 15 19 8 0 15 -9 15 -20 0 -18 7 -20 78 -20 95 0 283 -16 337 -29 22
-6 72 -18 110 -27 62 -14 147 -45 253 -90 18 -8 42 -14 53 -14 11 0 22 -6 25
-14 3 -8 33 -29 67 -47 34 -18 76 -43 93 -56 17 -13 34 -23 39 -23 12 0 192
-149 255 -210 31 -30 74 -80 97 -110 22 -30 50 -66 62 -79 11 -13 21 -27 21
-31 0 -15 76 -46 101 -41 50 12 81 44 89 93 7 51 -4 76 -33 70 -16 -3 -17 -1
-6 16 11 17 9 26 -14 61 -15 22 -52 65 -82 96 -49 48 -58 54 -76 44 -27 -14
-36 -4 -15 16 22 22 12 37 -79 123 -123 116 -164 144 -395 275 -51 28 -186 86
-300 127 -183 66 -549 98 -799 69z"/>
<path d="M1993 5143 c-27 -9 -43 -21 -43 -31 0 -15 -2 -15 -10 -2 -7 10 -13
11 -17 5 -5 -6 -27 -17 -50 -24 -24 -8 -50 -22 -59 -33 -10 -10 -25 -18 -34
-18 -10 0 -28 -8 -41 -18 -13 -11 -46 -32 -74 -47 -27 -16 -52 -32 -55 -35 -3
-3 -32 -25 -65 -49 -75 -54 -243 -227 -310 -318 -27 -37 -56 -74 -62 -81 -7
-7 -13 -18 -13 -23 0 -8 -17 -32 -45 -63 -24 -26 -106 -198 -101 -212 3 -8 -1
-14 -9 -14 -19 0 -27 -16 -68 -145 -77 -238 -97 -369 -97 -636 0 -170 3 -210
26 -319 14 -69 39 -165 55 -214 16 -49 29 -94 29 -100 0 -23 70 -154 98 -184
29 -31 33 -32 84 -26 62 8 96 27 100 57 6 42 -69 237 -91 237 -4 0 -6 11 -4
24 3 13 -4 61 -16 107 -36 148 -54 329 -47 479 3 74 7 144 9 155 3 11 8 43 11
70 10 70 44 212 63 264 15 40 15 44 0 53 -23 12 -11 31 14 23 10 -4 19 -2 19
3 0 6 23 59 52 118 34 72 52 122 52 147 1 20 5 37 12 37 6 0 19 9 29 20 10 11
23 20 30 20 6 0 26 21 45 48 36 52 213 228 275 274 22 16 40 35 40 41 1 7 6
11 13 10 14 -3 117 61 129 79 4 7 6 23 5 35 -4 26 28 39 58 23 16 -9 36 -3
107 32 88 43 88 43 85 78 -6 71 -26 130 -43 130 -4 0 -11 9 -14 20 -7 23 -15
24 -72 3z"/>
<path d="M2530 4954 c-133 -27 -123 -21 -134 -80 -6 -39 7 -56 92 -119 34 -25
62 -47 62 -50 0 -8 -78 33 -125 65 -122 83 -143 92 -216 86 -38 -3 -82 -12
-97 -20 -15 -8 -35 -17 -45 -20 -9 -3 -19 -11 -21 -18 -16 -53 -14 -51 -41
-34 -14 9 -25 12 -25 7 0 -9 -48 -26 -64 -22 -8 2 -7 -10 9 -69 l7 -25 -21 23
-20 23 -53 -22 c-77 -33 -186 -120 -201 -162 -4 -10 -12 -17 -19 -15 -27 9
-148 -140 -148 -183 0 -16 -3 -19 -13 -11 -10 8 -22 -5 -52 -59 -21 -38 -42
-69 -46 -69 -3 0 -12 -14 -19 -30 -10 -24 -10 -33 0 -45 10 -12 9 -15 -7 -15
-21 0 -23 -3 -78 -123 l-35 -78 22 -19 23 -19 -26 -1 c-29 0 -39 -16 -39 -60
0 -22 7 -33 28 -44 l27 -15 -36 -1 -36 0 -17 -112 c-19 -126 -26 -213 -17
-226 3 -5 29 -13 56 -18 l50 -9 -47 -3 -48 -3 0 -73 c0 -99 10 -112 92 -109
48 1 56 0 33 -6 -16 -5 -47 -9 -67 -10 -37 -1 -38 -2 -38 -38 1 -51 23 -130
41 -148 13 -13 24 -13 89 -1 121 23 100 10 -38 -24 -33 -9 -42 -15 -38 -26 3
-9 6 -19 6 -23 0 -4 9 -17 21 -30 11 -12 22 -35 24 -52 2 -16 18 -50 35 -75
16 -25 30 -49 30 -53 0 -43 124 -46 237 -6 96 34 128 50 175 87 41 34 57 78
27 78 -11 0 -19 5 -19 10 0 6 9 10 21 10 16 0 19 4 14 18 -40 96 -49 133 -49
197 0 79 5 91 130 308 41 70 74 130 74 132 0 2 14 24 30 48 17 25 30 48 30 52
0 4 9 20 20 35 11 16 51 84 89 152 39 67 89 157 113 198 24 41 52 90 63 110
11 19 37 63 58 98 20 35 37 67 37 73 0 5 3 9 8 9 8 0 32 48 32 66 0 7 12 26
26 41 14 15 33 41 41 57 l15 28 159 -5 c157 -6 160 -6 212 -37 56 -34 68 -46
125 -130 58 -84 75 -127 68 -169 -6 -41 -81 -199 -131 -276 -38 -59 -62 -121
-51 -132 9 -10 198 -5 206 5 3 4 17 13 33 21 28 15 36 31 15 32 -7 0 -3 4 10
10 34 13 18 29 -31 30 -42 1 -42 2 11 9 58 9 76 20 98 61 20 39 127 119 181
135 63 19 211 18 257 -1 20 -9 53 -31 73 -50 20 -19 39 -32 41 -30 3 3 12 -4
19 -15 8 -11 18 -18 22 -16 4 3 13 1 21 -4 29 -18 112 53 103 89 -3 14 0 23
11 27 12 4 14 10 7 18 -8 9 1 23 28 50 35 34 39 43 36 80 -2 22 -4 48 -4 56
-1 12 -3 12 -10 2 -5 -8 -17 -12 -26 -10 -18 3 -18 4 -1 20 16 16 16 19 -1 45
-32 52 -104 133 -118 133 -8 0 -24 -13 -36 -30 -12 -16 -28 -31 -35 -34 -7 -3
2 15 21 40 19 25 35 49 35 53 0 11 -77 88 -95 95 -9 3 -13 2 -10 -3 3 -5 1
-12 -5 -16 -5 -3 -10 1 -10 10 0 25 -27 72 -46 79 -12 5 -25 -2 -41 -20 -26
-30 -29 -27 -12 10 10 22 8 28 -17 50 -16 14 -41 26 -56 26 -16 0 -31 8 -37
18 -5 10 -28 31 -51 47 -38 26 -41 27 -59 11 -16 -15 -19 -15 -24 -1 -4 8 -4
21 -1 28 4 13 -51 39 -89 42 -9 1 -23 9 -30 18 -6 9 -31 19 -54 23 -34 5 -44
3 -49 -10 -9 -24 -24 -19 -24 9 0 18 -7 26 -25 31 -40 10 -53 -1 -66 -60 -16
-71 -29 -64 -16 9 5 31 7 59 4 61 -3 3 -25 8 -49 11 -24 3 -48 10 -55 15 -14
11 -288 16 -299 5 -4 -4 -3 -26 3 -47 8 -32 8 -38 -2 -30 -7 6 -16 23 -20 38
-7 28 -23 53 -34 51 -3 -1 -35 -7 -71 -15z"/>
<path d="M5395 4505 c-33 -36 -53 -47 -114 -65 -40 -11 -76 -19 -79 -16 -3 3
3 6 13 6 10 0 15 3 12 7 -4 3 -24 -1 -44 -10 -44 -19 -151 -27 -373 -26 -162
0 -197 -7 -247 -50 -46 -39 -40 -89 55 -411 10 -36 22 -103 26 -149 8 -92 21
-136 36 -126 5 3 10 1 10 -4 0 -6 -4 -11 -10 -11 -14 0 -12 -92 4 -187 18 -99
82 -254 108 -261 21 -5 23 -13 7 -29 -7 -7 -1 -29 20 -72 16 -34 35 -78 41
-97 7 -19 22 -47 34 -62 13 -15 26 -48 30 -74 4 -26 11 -50 17 -53 5 -4 9 -14
9 -23 0 -10 9 -35 20 -57 20 -39 45 -116 54 -168 8 -47 17 -67 29 -67 7 0 6
-4 -3 -10 -9 -6 -10 -10 -3 -10 7 0 30 -27 52 -59 38 -56 105 -121 124 -121 5
0 54 -22 109 -50 55 -28 102 -50 104 -50 2 0 4 32 4 70 0 39 -4 70 -8 70 -5 0
-17 7 -28 15 -18 14 -17 14 9 5 l27 -10 0 60 c0 33 -3 59 -7 59 -20 -3 -34 2
-28 11 3 5 12 7 20 3 13 -4 15 74 15 620 0 546 -2 626 -15 631 -8 3 -15 10
-15 16 0 5 7 10 15 10 13 0 15 51 15 395 0 217 -1 395 -2 394 -2 0 -21 -20
-43 -44z"/>
<path d="M2580 4421 c-31 -8 -132 -157 -198 -291 -26 -52 -55 -106 -65 -120
-38 -54 -65 -99 -72 -119 -3 -12 -22 -45 -41 -74 -19 -28 -34 -57 -34 -64 0
-7 -4 -13 -8 -13 -5 0 -23 -28 -41 -62 -18 -35 -62 -113 -99 -174 -69 -115
-102 -173 -101 -177 1 -1 -22 -41 -49 -89 -53 -91 -57 -122 -19 -132 12 -3 68
-6 123 -6 l102 0 36 38 c21 20 40 49 43 64 3 15 12 33 19 39 25 21 15 29 -35
29 -28 0 -53 5 -56 10 -4 6 17 10 57 10 62 1 63 1 91 41 15 21 27 43 27 48 0
5 11 18 24 28 21 17 43 18 260 17 143 0 236 3 236 9 0 5 7 6 17 3 9 -4 43 -4
75 0 57 6 58 7 58 38 0 25 7 36 33 51 17 10 35 23 39 29 5 7 8 6 8 -4 1 -21
30 48 30 71 0 24 -54 39 -143 39 -38 0 -78 5 -90 12 -14 7 -84 13 -182 15 -88
2 -164 8 -168 12 -8 8 20 68 77 166 12 22 38 67 56 100 19 33 55 89 80 125 25
36 51 79 57 96 6 17 24 51 39 75 42 65 65 120 59 139 -3 10 -20 20 -37 24 -40
8 -176 6 -208 -3z"/>
<path d="M2869 4348 c-25 -27 -77 -109 -110 -175 -13 -26 -28 -53 -34 -59 -5
-6 -20 -29 -33 -50 -13 -21 -46 -77 -74 -124 -93 -154 -118 -204 -105 -212 15
-10 259 -10 272 0 11 7 17 18 67 110 16 31 52 94 79 140 27 45 49 86 49 90 0
4 12 24 26 45 29 43 27 74 -10 141 -11 21 -27 49 -34 62 -7 13 -26 31 -43 39
-27 15 -30 14 -50 -7z"/>
<path d="M4365 4173 c-22 -9 -41 -20 -43 -25 -2 -4 -10 -8 -17 -8 -29 0 -28
-82 3 -216 34 -144 52 -246 52 -292 0 -17 5 -42 11 -56 9 -19 9 -29 1 -39 -14
-16 -8 -173 6 -190 6 -7 22 -43 38 -82 15 -38 33 -75 40 -81 8 -6 14 -17 14
-23 0 -7 11 -36 24 -64 42 -92 56 -127 56 -139 0 -19 50 -78 67 -78 9 0 25 7
35 17 10 9 21 13 25 9 5 -4 1 -11 -7 -16 -56 -32 -56 -32 -27 -100 15 -34 41
-75 57 -92 17 -16 30 -39 30 -50 0 -47 118 -119 169 -103 19 6 21 12 16 52 -3
25 -12 59 -20 76 -8 17 -15 40 -15 52 0 17 -7 24 -30 29 -36 7 -39 23 -6 28
l25 3 -39 77 c-22 43 -52 119 -67 170 -14 51 -34 99 -42 106 -9 7 -16 21 -16
30 0 11 -10 18 -30 20 -38 4 -53 18 -27 26 24 8 22 26 -17 141 -18 56 -33 123
-37 175 -4 47 -11 90 -15 96 -5 6 -8 22 -8 35 2 39 -12 180 -22 229 -22 99
-84 257 -113 285 -18 18 -21 18 -71 -2z"/>
<path d="M3465 3991 c-34 -5 -40 -10 -43 -33 -5 -40 36 -96 72 -100 31 -3 50
-28 22 -28 -10 0 -16 -9 -16 -21 0 -14 5 -19 14 -16 8 3 17 1 20 -6 3 -9 5 -9
5 1 1 7 15 12 34 12 17 0 49 3 70 7 31 5 38 10 34 24 -3 12 3 19 22 24 14 4
20 10 14 12 -8 3 -11 14 -7 28 8 31 -19 69 -61 89 -33 16 -103 19 -180 7z"/>
<path d="M4128 3922 c-48 -50 -64 -62 -83 -62 -24 0 -87 -35 -116 -63 -17 -18
-31 -50 -43 -104 -17 -69 -49 -141 -140 -306 -31 -57 -36 -100 -14 -124 9 -10
17 -22 16 -26 0 -18 12 -19 13 -1 0 16 2 14 11 -6 6 -14 10 -29 9 -33 -1 -5 3
-6 9 -2 5 3 10 1 10 -4 0 -6 7 -11 15 -11 8 0 15 4 15 10 0 5 9 2 19 -7 15
-12 36 -16 88 -14 67 2 203 -24 203 -39 0 -15 54 -30 110 -30 56 0 59 2 74 32
9 17 16 41 16 54 0 36 -31 92 -53 98 -17 4 -18 7 -8 20 20 24 5 69 -19 63 -11
-3 -22 -1 -25 3 -3 5 5 10 17 12 25 3 27 16 16 107 -4 40 -9 46 -37 56 -35 12
-32 25 7 25 l25 0 -7 77 c-13 139 -11 136 -67 131 -27 -3 -49 -2 -49 2 0 4 20
10 45 13 47 5 69 16 48 24 -7 3 -13 14 -13 25 0 17 -3 18 -15 8 -29 -24 -47
10 -20 40 12 14 12 19 -3 42 l-18 27 -36 -37z"/>
<path d="M3326 3909 c-26 -20 -63 -79 -50 -79 3 0 0 -10 -8 -22 -20 -31 -30
-60 -19 -53 12 7 24 -12 16 -25 -5 -8 -11 -7 -20 0 -11 9 -15 7 -20 -13 -4
-14 -3 -36 1 -49 l7 -23 10 23 c13 29 25 28 33 -3 5 -22 12 -25 50 -25 37 0
44 3 44 20 0 21 15 27 25 10 14 -22 54 -10 70 20 15 29 15 33 -3 63 -10 18
-17 40 -15 50 4 14 -3 17 -39 19 -43 1 -43 1 -6 5 l37 4 -30 50 c-17 27 -36
49 -44 49 -7 0 -24 -9 -39 -21z"/>
<path d="M2340 3369 c0 -20 81 -178 107 -209 18 -22 33 -30 58 -30 19 0 37 -5
40 -11 5 -6 39 -10 89 -9 99 3 167 -7 183 -27 7 -9 8 -24 3 -41 -12 -43 -32
-82 -42 -82 -4 0 -8 -7 -8 -16 0 -8 -11 -30 -25 -48 -13 -18 -32 -48 -40 -67
-9 -18 -27 -52 -40 -74 -41 -66 -36 -76 35 -68 44 4 60 3 60 -6 0 -9 -20 -12
-66 -10 -76 3 -89 -8 -78 -66 6 -32 29 -45 29 -17 0 21 20 13 23 -9 3 -16 0
-20 -11 -16 -25 9 -27 -4 -8 -42 21 -39 55 -74 84 -84 20 -7 70 55 112 140 14
28 30 55 36 58 8 6 30 47 33 65 1 3 16 25 34 50 18 25 69 108 114 185 91 158
104 177 113 153 4 -9 -18 -56 -53 -114 -67 -112 -171 -289 -188 -319 -6 -11
-25 -44 -43 -74 -46 -76 -91 -168 -91 -184 0 -38 24 -49 122 -54 l96 -5 41 38
c46 41 161 225 161 257 0 7 13 28 28 47 16 19 36 51 45 70 10 19 34 62 55 95
59 94 130 237 137 278 4 20 11 40 16 43 5 3 9 19 9 35 0 19 -4 28 -10 24 -6
-4 -32 3 -57 15 -25 12 -54 19 -64 17 -10 -3 -26 1 -36 8 -10 7 -44 16 -76 19
-32 4 -74 14 -92 22 -19 8 -49 14 -67 14 -18 0 -53 8 -78 16 -25 9 -97 21
-160 25 -63 5 -153 12 -199 15 -54 4 -85 3 -90 -4 -8 -13 -37 -16 -116 -12
-54 2 -57 3 -25 10 l35 7 -37 2 c-21 0 -38 -3 -38 -9 0 -6 -9 -6 -26 0 -32 13
-34 12 -34 -1z"/>
<path d="M2285 3341 c-3 -6 -3 -11 0 -11 4 0 -7 -17 -23 -37 -40 -51 -110
-177 -114 -205 -3 -21 1 -22 62 -25 90 -4 96 -7 73 -40 -46 -68 -49 -111 -7
-127 21 -8 57 22 50 41 -3 8 1 16 9 19 20 8 76 96 71 111 -3 7 -1 15 4 18 17
11 11 36 -29 115 -50 100 -87 155 -96 141z"/>
<path d="M3602 3139 c-22 -23 -46 -54 -54 -68 -7 -14 -15 -28 -18 -31 -3 -3
-11 -16 -18 -29 -8 -13 -23 -40 -35 -60 -11 -20 -57 -101 -102 -181 -45 -80
-106 -186 -136 -235 -30 -50 -61 -103 -69 -119 -27 -51 -90 -114 -127 -127
-19 -6 -98 -12 -174 -13 -76 -1 -141 -5 -145 -8 -17 -18 60 -128 89 -128 7 0
18 -9 25 -20 7 -11 17 -20 23 -20 6 0 30 -13 54 -30 24 -16 46 -30 50 -30 4 0
13 -7 21 -15 9 -8 27 -18 42 -21 46 -11 90 -43 97 -72 4 -15 10 -29 13 -32 11
-8 42 -103 42 -127 0 -12 4 -24 8 -27 5 -3 14 -31 21 -63 17 -76 34 -107 73
-136 35 -26 154 -77 180 -77 9 0 32 -7 53 -16 56 -23 209 -54 302 -61 79 -6
83 -5 91 17 7 19 10 20 23 8 11 -12 24 -12 69 -4 l55 11 -3 38 c-3 35 -1 37
28 37 36 0 36 4 5 55 -35 56 -31 65 10 25 41 -40 44 -31 10 29 -30 51 -28 61
5 26 13 -14 27 -25 32 -25 16 0 8 48 -13 74 -11 14 -16 26 -10 26 5 0 13 -4
16 -10 9 -15 38 -12 32 3 -3 7 -2 32 3 55 5 29 3 47 -6 61 -12 16 -11 22 7 42
12 14 18 31 15 44 -3 11 0 35 6 53 12 31 10 34 -32 77 -50 51 -43 60 10 15 19
-17 38 -30 42 -30 14 0 9 27 -7 40 -19 16 -20 41 -1 34 11 -4 16 5 20 33 6 37
24 137 33 179 3 13 -6 31 -28 52 -36 35 -33 41 8 15 25 -16 26 -16 44 8 11 13
25 31 32 40 6 9 39 30 72 48 32 18 71 41 86 52 15 10 32 19 37 19 5 0 17 11
25 24 14 21 14 26 -5 57 -12 19 -25 52 -30 74 -5 22 -22 61 -39 88 -16 26 -27
52 -24 57 3 5 0 20 -6 32 -7 13 -13 31 -14 41 -2 26 -55 66 -87 67 -15 0 -29
4 -32 9 -3 4 -27 11 -53 15 -27 3 -88 26 -138 50 -77 38 -105 46 -195 57 -80
9 -117 19 -158 40 -74 40 -101 38 -150 -12z"/>
<path d="M1832 3044 c-8 -8 -10 -23 -6 -37 9 -30 52 -87 67 -87 6 0 33 21 59
47 61 60 61 50 2 -22 l-46 -57 49 3 c60 3 91 18 126 60 29 35 33 59 17 90 -10
17 -22 19 -133 19 -95 -1 -125 -4 -135 -16z"/>
<path d="M2493 3028 c-13 -6 -50 -50 -82 -98 -99 -144 -143 -170 -356 -210
-63 -12 -115 -26 -115 -30 0 -4 -15 -13 -32 -20 -48 -18 -79 -30 -113 -46 -16
-7 -64 -22 -105 -33 -130 -35 -147 -41 -171 -64 -47 -44 -19 -106 98 -221 47
-46 58 -61 173 -229 44 -64 80 -125 80 -135 0 -10 4 -22 8 -27 5 -6 22 -40 37
-77 15 -38 31 -68 35 -68 4 0 15 9 25 20 28 30 30 16 5 -26 -25 -39 -27 -76
-10 -159 5 -27 11 -60 13 -72 2 -12 5 -25 8 -28 7 -6 2 -213 -6 -283 -8 -61 1
-108 20 -116 7 -2 28 -1 47 4 18 5 45 12 61 15 15 3 27 12 27 21 0 8 4 13 9
10 4 -3 21 6 37 19 16 14 33 25 38 25 5 0 7 3 3 6 -3 3 3 16 14 28 20 20 20
30 15 261 -2 132 -5 254 -6 270 -1 47 12 125 21 125 5 0 9 9 9 20 0 11 5 20
10 20 6 0 10 7 10 15 0 8 5 15 10 15 6 0 10 7 10 15 0 9 14 29 30 45 17 16 30
34 30 41 0 6 7 9 14 6 9 -4 13 -1 10 6 -2 7 16 34 41 60 25 26 49 58 54 70 5
12 4 70 -2 129 -11 106 -10 108 16 162 23 47 26 63 21 108 -5 47 -2 60 27 113
68 125 89 170 85 182 -3 7 3 15 14 18 27 9 64 93 49 111 -14 17 -182 19 -216
2z"/>
<path d="M4731 2514 c5 -15 7 -30 3 -33 -4 -3 -9 0 -11 7 -7 19 -27 15 -115
-28 -46 -22 -109 -47 -140 -55 -109 -30 -130 -64 -153 -255 -2 -19 -10 -74
-18 -121 -11 -77 -11 -88 3 -97 13 -10 13 -11 -1 -11 -13 -1 -18 -16 -23 -63
-14 -124 -56 -357 -72 -397 -31 -78 -122 -136 -237 -151 -115 -14 -240 0 -477
56 -146 34 -164 35 -168 8 -2 -12 5 -35 15 -52 26 -43 139 -162 147 -155 3 3
6 2 6 -4 0 -6 11 -14 25 -17 13 -3 46 -20 72 -36 26 -17 55 -33 65 -36 9 -3
28 -25 43 -49 33 -51 53 -50 105 6 31 32 43 38 95 43 190 21 245 29 245 36 0
4 13 10 29 13 83 17 189 96 227 168 14 28 14 32 -6 64 -23 37 -21 42 10 23 13
-8 23 -9 29 -3 14 14 30 124 24 158 -4 19 1 34 13 48 11 12 18 24 16 28 -2 3
0 28 4 55 3 27 8 65 9 85 17 192 45 352 69 403 18 37 75 74 151 98 53 17 98
43 152 88 39 32 44 41 39 66 -10 48 -30 70 -94 104 -76 41 -95 42 -81 6z"/>
<path d="M1250 2427 c-61 -21 -73 -32 -67 -59 9 -34 77 -137 140 -211 29 -34
60 -71 70 -82 33 -39 108 -141 147 -200 22 -33 43 -65 48 -70 5 -6 11 -25 15
-42 3 -18 13 -48 21 -68 14 -32 17 -34 35 -23 16 10 23 10 32 1 14 -14 -4 -43
-27 -43 -10 0 -12 -25 -7 -123 7 -138 -11 -393 -33 -477 -17 -62 -34 -197 -38
-284 -1 -41 -7 -62 -19 -71 -19 -13 -40 -98 -41 -159 0 -30 6 -43 27 -60 15
-12 27 -27 27 -34 0 -7 9 -12 20 -12 15 0 28 16 47 55 15 30 30 55 34 55 4 0
-2 -27 -12 -61 -10 -33 -17 -65 -14 -69 6 -9 61 6 81 21 6 5 24 7 40 4 40 -7
65 29 68 98 3 55 -8 94 -33 115 -13 10 -16 32 -14 102 1 79 -1 89 -18 93 -17
5 -18 8 -8 31 7 15 20 26 32 26 17 0 18 5 12 60 -5 41 -4 60 4 60 6 0 11 8 11
18 0 10 3 22 7 26 4 4 8 28 8 54 1 26 9 79 19 117 20 82 28 267 15 375 -14
121 -53 239 -124 382 -33 65 -126 188 -142 188 -7 0 -19 12 -25 26 -7 15 -42
59 -79 98 -37 39 -82 88 -101 109 -28 32 -41 40 -78 43 -25 2 -61 -2 -80 -9z"/>
<path d="M5016 2369 c-9 -11 -16 -26 -16 -34 0 -8 -4 -15 -10 -15 -5 0 -10 -7
-10 -15 0 -8 -12 -18 -26 -21 -21 -5 -24 -11 -19 -31 5 -21 3 -24 -15 -18 -27
8 -91 -15 -112 -41 -12 -14 -25 -20 -45 -17 -36 6 -99 -21 -117 -50 -24 -38
-50 -180 -79 -432 -1 -14 6 -21 27 -25 38 -7 47 -30 12 -30 -14 0 -26 6 -26
13 0 6 -6 0 -13 -14 -16 -29 -33 -172 -18 -150 11 18 32 5 24 -15 -3 -9 -16
-19 -28 -24 -17 -6 -25 -22 -33 -64 -16 -81 -59 -164 -111 -216 -55 -54 -163
-120 -208 -127 -38 -6 -40 -11 -16 -29 10 -7 14 -16 10 -21 -5 -4 -16 3 -26
15 l-17 23 -114 -23 c-63 -12 -116 -26 -118 -30 -2 -4 -10 -8 -18 -8 -25 0
-28 -51 -13 -180 2 -18 28 -50 41 -50 5 0 6 9 3 20 -7 21 2 24 29 14 22 -9 20
-25 -8 -52 -29 -27 -28 -62 1 -95 26 -31 43 -81 43 -128 0 -21 5 -50 11 -66 6
-15 13 -38 15 -50 12 -64 108 -216 131 -208 18 6 71 -23 77 -43 6 -18 100 -55
191 -75 28 -6 54 -17 58 -24 4 -7 17 -13 27 -13 11 0 20 -4 20 -10 0 -5 14
-10 31 -10 26 0 29 3 24 20 -8 26 11 26 25 0 10 -19 21 -20 406 -20 368 0 396
1 390 17 -6 16 -6 16 12 0 10 -9 22 -17 25 -17 4 0 7 135 7 301 0 293 -1 302
-22 332 l-22 32 22 -19 22 -19 0 123 c0 114 -2 126 -22 149 l-23 26 23 -19 22
-19 0 625 0 625 -57 30 c-32 17 -85 41 -118 54 -42 16 -80 43 -133 93 -40 39
-79 71 -86 72 -8 1 -21 -7 -30 -17z"/>
<path d="M845 2365 c-77 -17 -115 -32 -115 -44 0 -6 -14 -30 -30 -53 -17 -24
-42 -61 -57 -83 -14 -22 -30 -43 -36 -46 -5 -4 -7 -19 -3 -33 5 -19 3 -26 -9
-26 -31 0 -102 -98 -91 -127 4 -8 2 -21 -3 -27 -5 -6 -12 -69 -15 -141 -8
-174 -14 -214 -37 -246 -18 -26 -18 -28 -2 -37 14 -9 15 -13 4 -26 -16 -19
-51 -21 -51 -3 -1 7 -6 5 -14 -5 -16 -21 -27 -24 -20 -4 9 22 -11 27 -32 8
-21 -19 -55 -17 -67 4 -9 15 -72 19 -81 5 -3 -4 -28 -11 -55 -14 -28 -3 -68
-11 -91 -18 l-40 -12 0 -719 0 -718 384 0 c298 0 385 3 389 13 4 9 6 9 6 0 1
-10 106 -13 492 -13 l490 0 -2 90 c-1 52 -6 90 -12 90 -6 0 -8 18 -5 45 3 24
2 42 -3 39 -5 -3 -9 2 -9 10 0 9 -8 16 -17 17 -10 0 -30 3 -45 5 -16 3 -28 0
-28 -5 0 -5 -9 -13 -21 -16 -11 -4 -25 -19 -31 -33 -10 -24 -12 -25 -16 -7 -2
10 1 21 7 23 13 4 15 52 2 52 -5 0 -19 -17 -32 -37 -18 -31 -23 -34 -27 -19
-2 10 1 23 7 29 19 19 12 40 -24 77 -59 61 -68 174 -29 352 9 40 17 89 18 108
1 19 5 40 9 47 9 14 42 192 68 368 6 39 9 141 7 228 -3 142 -5 160 -22 172
-16 12 -17 17 -6 30 8 10 9 15 1 15 -6 0 -11 9 -11 20 0 38 -99 205 -145 245
-7 6 -19 20 -27 33 -8 12 -31 39 -49 60 -46 50 -131 153 -207 250 -62 80 -86
93 -89 50 -1 -11 -7 -26 -14 -32 -9 -8 -10 -5 -7 14 3 14 9 33 13 43 6 15 1
17 -51 16 -33 -1 -86 -7 -119 -14z"/>
<path d="M2571 2066 c-12 -12 -21 -30 -21 -39 0 -9 -5 -17 -11 -17 -17 0 0
-62 25 -90 12 -14 35 -45 52 -69 48 -73 77 -100 128 -117 31 -11 50 -24 56
-39 5 -13 20 -25 37 -28 15 -3 51 -12 79 -20 31 -9 64 -12 85 -8 33 7 34 8 37
65 2 31 -2 69 -9 84 -24 54 -284 226 -326 216 -24 -6 -33 10 -10 19 14 5 -29
50 -53 55 -42 10 -50 9 -69 -12z"/>
<path d="M2417 1792 c-23 -77 13 -172 113 -299 26 -35 50 -43 50 -18 0 8 7 15
16 15 10 0 15 -8 14 -22 -4 -51 0 -59 48 -79 102 -45 299 -99 360 -99 17 0 32
-4 32 -10 0 -5 16 -10 35 -10 30 0 35 3 35 24 0 14 -5 28 -10 31 -6 3 -8 16
-5 28 7 28 -51 124 -85 142 -48 25 -95 43 -174 65 -44 12 -87 26 -95 30 -9 4
-28 13 -42 20 -36 17 -139 119 -169 169 -25 41 -46 54 -88 56 -18 1 -25 -7
-35 -43z"/>
<path d="M2374 1426 c-6 -6 -16 -48 -23 -91 -12 -80 -29 -135 -43 -135 -5 0
-8 -5 -8 -10 0 -6 -11 -23 -24 -38 -14 -15 -34 -37 -45 -50 -11 -13 -22 -23
-25 -23 -19 3 -28 0 -23 -6 9 -9 -24 -32 -46 -33 -10 0 -15 -4 -12 -10 3 -5
-3 -10 -15 -10 -12 0 -19 -4 -16 -9 3 -5 -1 -14 -8 -21 -8 -6 -18 -25 -21 -41
-4 -16 -10 -29 -15 -29 -4 0 -7 -6 -7 -12 1 -7 -2 -36 -7 -65 -17 -108 11
-121 290 -130 191 -5 215 -4 239 11 24 16 65 14 65 -3 0 -7 5 -8 70 -13 l35
-3 5 90 5 90 8 -93 9 -93 66 6 c37 3 119 5 182 5 63 0 166 3 228 7 99 5 112 8
112 24 0 10 5 21 11 25 17 10 6 135 -16 167 -9 15 -14 27 -10 27 3 0 -3 14
-15 30 -13 19 -30 30 -45 30 -26 0 -46 21 -27 28 9 3 8 7 -1 15 -27 25 -123
77 -141 77 -6 0 -23 6 -37 14 -14 7 -66 25 -115 40 -49 15 -106 34 -127 42
-48 18 -67 18 -67 -1 0 -24 -17 -17 -24 10 -4 14 -13 25 -21 25 -25 0 -155 68
-210 109 -79 59 -110 71 -131 47z"/>
<path d="M3497 933 c-2 -4 -8 -57 -12 -118 -7 -111 -19 -160 -47 -183 -11 -8
-94 -14 -294 -19 -153 -4 -295 -7 -314 -6 -135 4 -653 2 -735 -3 -127 -8 -135
-14 -135 -104 0 -96 8 -101 157 -103 65 -1 121 -6 125 -12 5 -6 15 -5 28 3 15
9 25 10 34 3 18 -15 442 -7 461 9 10 9 15 9 15 1 0 -19 29 -12 41 11 l12 22 8
-22 c10 -27 39 -29 39 -4 0 10 3 21 6 25 11 11 34 -5 34 -24 0 -18 9 -19 144
-19 79 0 151 -3 160 -6 11 -4 19 2 26 21 10 26 30 26 30 0 0 -41 340 -29 383
14 13 12 23 44 30 94 16 109 -10 231 -60 285 -7 7 -13 16 -13 20 0 4 -11 20
-25 36 -14 16 -25 35 -25 41 0 23 -63 55 -73 38z"/>
<path d="M3793 478 c-4 -7 -17 -34 -29 -59 -26 -55 -67 -86 -129 -98 -25 -5
-48 -9 -50 -10 -3 0 -194 -1 -425 -1 l-419 0 -21 -22 -21 -23 -6 23 c-4 17
-13 22 -38 22 -19 0 -40 -7 -49 -15 -19 -19 -26 -19 -26 0 0 13 -20 15 -137
14 -90 -1 -141 -5 -145 -13 -4 -6 -8 -26 -8 -44 0 -21 -4 -31 -11 -27 -6 4 -9
21 -7 38 2 24 -1 33 -14 35 -13 3 -18 -3 -18 -20 l-1 -23 -18 23 c-16 19 -29
22 -84 22 -107 0 -187 -11 -187 -26 0 -8 -3 -14 -8 -14 -7 0 -25 -32 -50 -90
-11 -25 -42 -144 -42 -161 0 -5 40 -9 89 -9 85 0 90 1 94 23 l4 22 2 -22 c1
-18 7 -23 29 -23 26 0 28 3 24 34 -2 18 1 37 7 40 7 5 11 -7 11 -33 l0 -41
554 0 555 0 -2 24 c-3 33 17 34 21 1 l3 -25 475 0 c261 0 474 2 474 5 0 3 -27
18 -60 35 -33 17 -60 35 -60 41 0 5 -4 8 -9 4 -5 -3 -18 8 -27 25 -10 16 -22
30 -26 30 -4 0 -8 9 -8 21 0 11 -4 17 -10 14 -5 -3 -10 -2 -10 4 0 6 -13 32
-30 58 -16 26 -30 54 -30 62 0 9 -7 29 -15 44 -8 16 -19 45 -25 65 -6 20 -16
44 -23 53 -17 23 -54 33 -64 17z"/>
</g>
</svg>
