<?xml version="1.0" standalone="no"?>
<!DOCTYPE svg PUBLIC "-//W3C//DTD SVG 20010904//EN"
 "http://www.w3.org/TR/2001/REC-SVG-20010904/DTD/svg10.dtd">
<svg version="1.0" xmlns="http://www.w3.org/2000/svg"
 width="544.000000pt" height="544.000000pt" viewBox="0 0 544.000000 544.000000"
 preserveAspectRatio="xMidYMid meet">
<metadata>
Created by potrace 1.16, written by Peter Selinger 2001-2019
</metadata>
<g transform="translate(0.000000,544.000000) scale(0.100000,-0.100000)"
fill="#000000" stroke="none">
<path d="M0 3340 c0 -1155 2 -2100 4 -2100 2 0 20 7 40 15 33 14 36 14 36 -1
0 -23 -37 -72 -60 -79 -20 -6 -20 -18 -20 -591 l0 -584 2720 0 2720 0 0 2290
0 2290 -50 0 c-40 0 -55 -5 -79 -27 -16 -16 -38 -35 -48 -43 -11 -8 -30 -31
-43 -50 -14 -19 -35 -46 -47 -60 -13 -14 -23 -28 -23 -32 0 -5 -5 -8 -11 -8
-12 0 -99 -90 -99 -103 0 -5 -4 -6 -8 -3 -5 3 -16 -11 -25 -30 -25 -51 -87
-76 -207 -82 -69 -4 -98 -9 -106 -20 -6 -8 -16 -12 -22 -8 -7 4 -12 2 -12 -3
0 -6 -9 -11 -21 -11 -11 0 -17 -5 -14 -10 4 -6 10 -8 15 -5 13 8 6 -21 -9 -39
-24 -29 10 -278 40 -297 6 -3 7 -18 3 -32 -3 -15 -3 -38 0 -52 6 -24 9 -25 59
-20 64 8 46 -11 -20 -21 -39 -6 -43 -9 -43 -35 0 -24 4 -29 25 -29 14 0 25 4
25 10 0 11 64 30 100 30 36 -1 7 -16 -47 -25 -48 -8 -81 -35 -42 -35 18 0 20
-3 11 -12 -8 -8 -18 -9 -36 0 -23 10 -36 7 -36 -8 0 -15 105 -20 179 -9 81 12
130 7 101 -11 -8 -6 -27 -10 -42 -10 -16 0 -28 -4 -28 -10 0 -5 9 -10 19 -10
11 0 26 -3 35 -6 27 -10 -52 -44 -109 -46 l-50 -1 59 -6 c33 -3 61 -11 63 -17
6 -17 -54 -25 -119 -18 -65 7 -81 -9 -25 -24 l32 -9 -27 -8 c-16 -4 -28 -11
-28 -16 0 -17 31 -22 54 -9 13 6 32 10 42 8 16 -4 13 -7 -11 -16 -75 -29 -81
-52 -17 -66 23 -5 42 -13 42 -17 0 -5 -3 -9 -7 -9 -5 0 -14 -4 -22 -9 -12 -8
-12 -12 -2 -25 8 -9 9 -16 3 -16 -12 0 -4 -39 12 -59 5 -7 11 -18 13 -25 1 -6
4 -18 6 -26 2 -8 13 -35 24 -60 33 -72 119 -281 134 -325 8 -25 13 -84 13
-155 -1 -104 -3 -120 -27 -168 -34 -65 -97 -109 -220 -151 -106 -36 -106 -36
-118 -69 -9 -22 -6 -29 13 -44 l23 -18 -23 0 c-29 0 -43 -36 -43 -109 1 -81
-1 -91 -16 -91 -19 0 -23 -137 -4 -150 4 -3 13 -15 20 -28 12 -23 3 -30 -15
-12 -19 19 -43 -12 -37 -47 4 -26 20 -44 69 -83 90 -71 84 -78 -11 -13 -29 20
-38 16 -21 -9 28 -40 12 -47 -33 -16 -14 10 -27 15 -30 12 -6 -6 27 -36 69
-64 12 -8 38 -27 58 -42 19 -16 40 -28 47 -28 16 0 135 -116 135 -131 0 -8 -6
-7 -19 2 -69 50 -144 99 -147 96 -2 -2 18 -24 45 -49 51 -48 90 -98 75 -98
-18 1 -90 63 -124 107 -19 25 -46 53 -59 62 -23 15 -23 14 -17 -6 7 -22 6 -22
-38 3 -56 31 -59 17 -9 -35 34 -36 51 -71 33 -71 -4 0 -14 8 -21 17 -10 11
-10 14 -1 9 18 -11 14 5 -5 20 -22 17 -37 18 -27 3 5 -8 -1 -10 -19 -7 -19 4
-24 1 -20 -9 3 -8 -4 -23 -16 -34 -27 -25 -27 -53 1 -92 l22 -32 -26 23 c-31
28 -62 21 -52 -12 3 -11 15 -35 25 -52 30 -50 22 -50 -22 0 -45 51 -62 56 -81
26 -7 -11 -20 -20 -30 -20 -30 0 -29 -18 3 -75 29 -52 28 -78 -2 -35 -8 10
-21 20 -29 22 -8 2 -20 10 -27 18 -6 8 -14 13 -16 10 -5 -5 7 -31 46 -100 22
-38 12 -56 -12 -20 -25 38 -73 91 -78 86 -3 -2 5 -26 16 -51 24 -54 25 -59 11
-50 -6 4 -24 35 -39 70 l-30 64 -48 -14 c-26 -8 -52 -15 -56 -15 -14 0 -1 -96
16 -121 21 -30 22 -45 1 -28 -19 16 -70 114 -54 104 9 -6 9 -2 0 14 -15 29
-31 34 -63 22 -22 -9 -27 -17 -28 -48 l-1 -38 -14 32 c-21 50 -39 54 -30 7 5
-21 10 -52 13 -68 l6 -28 -29 18 c-16 11 -25 13 -20 6 5 -8 2 -29 -8 -50 -8
-21 -25 -91 -36 -157 -26 -148 -48 -242 -66 -277 -18 -35 -58 -65 -103 -78
-23 -6 -394 -10 -1024 -10 -890 0 -995 1 -1048 16 -128 36 -137 77 -88 389 33
215 36 241 27 258 -6 13 -3 26 12 47 12 16 21 40 22 52 0 13 7 57 16 98 25
113 24 427 -1 495 -37 101 -76 164 -77 123 -1 -28 -30 28 -30 57 0 50 -50 108
-103 120 -22 5 -26 10 -17 20 8 10 -2 26 -46 68 -49 47 -61 54 -77 45 -18 -9
-19 -8 -13 16 3 14 3 26 -1 27 -5 0 -17 2 -28 4 -11 2 -40 -6 -65 -17 -25 -12
-49 -20 -53 -19 -4 1 -5 -14 -2 -32 5 -25 -2 -52 -30 -116 -24 -55 -35 -91
-31 -107 5 -17 -3 -37 -26 -71 -18 -27 -39 -59 -46 -73 -21 -41 -82 -120 -92
-120 -5 0 5 20 22 45 35 49 32 65 -8 46 -23 -10 -26 -9 -20 4 4 12 0 14 -22 9
-33 -9 -72 -33 -72 -45 0 -5 -6 -9 -12 -9 -7 0 -33 -17 -56 -37 -48 -41 -87
-56 -56 -22 16 18 16 19 -9 19 -14 0 -29 -5 -32 -10 -3 -5 -18 -10 -33 -10
-21 0 -24 -2 -12 -10 11 -7 7 -10 -17 -11 -43 -2 -40 -1 -98 -22 -109 -40
-147 -67 -212 -150 -24 -31 -48 -57 -54 -57 -17 0 -9 61 16 109 39 78 92 120
217 173 62 26 116 54 120 62 5 9 15 13 22 10 8 -3 45 9 82 27 38 18 72 31 77
31 4 -1 7 3 7 8 0 6 13 10 28 10 42 0 92 28 104 59 6 14 11 29 10 33 -1 4 4 5
11 2 18 -7 50 25 65 66 45 115 52 141 54 202 3 65 2 67 -19 61 -13 -3 -23 -1
-23 5 0 10 73 52 91 52 6 0 21 8 32 17 24 19 37 83 17 83 -6 0 -10 11 -8 24 2
14 -9 42 -25 66 -15 23 -25 45 -23 49 3 3 -6 27 -18 51 -22 43 -25 45 -62 42
l-39 -2 28 17 c22 14 27 24 24 43 -7 38 -89 264 -97 270 -8 5 -30 118 -31 153
0 9 -4 17 -10 17 -5 0 -9 27 -9 60 0 32 -5 82 -11 110 l-11 50 -46 0 -47 1 29
15 c20 11 31 13 39 5 6 -6 17 -11 24 -11 18 0 16 27 -2 34 -14 5 -14 8 0 30
13 20 16 49 15 143 -1 65 0 125 3 133 17 49 16 80 -3 92 -23 15 -27 33 -6 25
21 -8 31 9 49 88 31 138 32 145 8 161 -29 21 -18 34 22 27 29 -4 33 -2 35 21
1 22 -6 30 -56 55 -32 16 -80 32 -107 36 -71 11 -91 25 -25 18 30 -3 86 -18
124 -34 39 -16 72 -27 74 -24 3 2 8 21 12 42 5 21 17 62 28 90 29 77 38 133
19 133 -7 0 -24 9 -37 20 l-23 20 27 0 c15 0 39 -7 54 -16 l27 -16 -25 20
c-28 23 -22 39 8 23 29 -15 34 -14 27 8 -5 15 -2 18 13 14 22 -5 33 7 47 57 6
19 15 35 20 35 23 1 36 18 31 41 -5 17 -2 24 9 24 8 0 15 7 15 15 0 8 6 15 13
15 13 0 25 12 101 98 26 30 27 35 16 62 -16 38 -3 53 17 23 9 -13 21 -23 27
-23 15 0 146 135 146 150 0 6 -14 38 -30 72 -36 73 -38 82 -5 34 49 -73 69
-96 81 -96 23 0 23 15 -2 64 -32 63 -31 80 2 34 40 -55 49 -35 14 28 -35 60
-28 74 8 18 13 -20 26 -33 29 -31 3 3 -4 19 -16 35 -12 17 -21 35 -21 42 0 22
34 5 50 -25 8 -16 21 -35 28 -43 6 -7 12 -17 12 -21 0 -4 7 -8 15 -8 19 0 20
-5 -12 72 -14 36 -23 68 -19 72 9 10 22 -11 43 -69 10 -27 21 -48 24 -48 15 0
19 35 8 67 -16 49 -6 61 16 19 30 -55 48 -42 25 18 -5 14 -7 26 -4 26 12 0 63
-48 57 -54 -8 -8 47 10 79 26 34 16 47 44 39 83 -7 41 -5 124 4 158 l7 27
-941 0 -941 0 0 -2100z m4723 -1619 c2 -10 42 -36 91 -61 47 -24 84 -45 81
-48 -2 -3 7 -13 20 -24 14 -11 25 -26 25 -34 0 -18 -4 -18 -41 2 -29 15 -30
14 -20 -4 6 -11 8 -22 4 -25 -3 -4 0 -14 8 -23 12 -15 10 -16 -20 -9 -33 7
-32 6 29 -51 34 -32 57 -60 51 -62 -14 -5 -101 35 -101 46 0 5 -9 12 -21 15
-18 5 -17 3 5 -18 14 -13 26 -26 26 -29 0 -8 -72 36 -95 58 -11 10 -14 16 -8
12 7 -4 29 -9 50 -12 l37 -4 -22 23 c-13 13 -47 36 -77 51 -57 29 -93 62 -81
73 4 4 15 2 24 -5 38 -27 65 -37 69 -25 3 7 10 10 16 8 7 -2 26 -6 42 -9 l30
-7 -25 21 c-14 11 -42 23 -62 26 -38 7 -49 19 -26 26 7 3 -4 15 -24 29 -45 28
-49 44 -10 35 15 -4 22 -3 16 1 -17 12 -24 53 -9 47 7 -3 15 -13 18 -23z"/>
<path d="M1980 5427 c0 -7 7 -35 16 -61 19 -54 39 -66 115 -66 47 0 49 1 49
28 0 15 5 34 10 42 9 13 14 11 31 -13 23 -31 39 -27 39 9 0 29 16 32 25 4 12
-39 35 -23 35 25 l0 45 -160 0 c-126 0 -160 -3 -160 -13z"/>
<path d="M2927 5408 c3 -18 8 -36 12 -40 3 -4 47 -14 96 -22 118 -19 232 -48
370 -95 73 -26 117 -36 126 -30 25 15 38 10 41 -18 l3 -28 34 35 c23 23 32 28
26 15 -14 -36 -18 -65 -7 -65 5 0 17 10 26 23 16 21 16 21 10 -15 -8 -50 6
-49 45 4 35 47 41 45 11 -4 -23 -38 -26 -55 -6 -39 8 6 23 34 35 61 23 54 61
86 61 52 0 -11 -18 -46 -40 -78 -21 -32 -37 -61 -33 -64 3 -3 8 0 10 6 6 16
73 110 73 102 0 -3 -13 -32 -30 -63 -28 -54 -32 -83 -8 -69 6 4 21 -6 34 -21
l23 -27 18 38 c10 22 27 48 39 59 11 11 30 34 42 52 25 35 62 41 62 11 0 -20
15 -24 26 -7 5 8 9 8 14 -1 7 -11 -6 -48 -60 -167 -18 -40 -19 -43 -2 -43 9 0
27 15 40 33 41 58 92 111 92 95 0 -8 -16 -30 -35 -49 -41 -39 -55 -60 -61 -95
-3 -17 0 -24 11 -24 10 0 15 -7 14 -17 -3 -38 1 -44 24 -38 17 5 19 4 7 -5
-13 -9 -10 -14 15 -35 17 -14 35 -25 41 -25 6 0 16 -11 22 -25 15 -32 25 -32
55 5 36 42 43 37 12 -7 -28 -42 -30 -54 -13 -71 9 -9 19 -5 45 20 38 37 41 33
12 -16 -26 -45 -15 -46 29 -3 l33 32 -11 -30 c-6 -16 -19 -39 -28 -49 -9 -11
-12 -16 -5 -13 6 4 14 1 16 -5 3 -8 6 -5 6 6 1 14 6 17 24 12 18 -4 32 3 63
35 21 22 53 47 69 55 25 12 21 7 -18 -28 -26 -24 -47 -48 -47 -53 0 -6 -9 -16
-20 -23 -22 -13 -26 -37 -9 -48 7 -4 20 4 30 17 18 24 18 24 12 2 -3 -13 -2
-30 1 -39 6 -16 8 -16 24 0 10 9 25 16 32 16 11 0 11 -2 -1 -12 -8 -7 -27 -29
-44 -48 -16 -19 -23 -29 -15 -22 27 24 42 14 23 -15 -15 -24 -15 -26 -1 -15
11 9 18 10 23 2 3 -5 2 -10 -2 -10 -5 0 -14 -13 -20 -30 -10 -28 -10 -29 8
-20 10 6 19 17 19 24 0 12 41 46 55 46 4 0 -7 -17 -24 -37 -31 -37 -42 -93
-20 -93 6 0 9 -7 5 -15 -4 -11 5 -16 35 -21 30 -5 39 -11 34 -21 -4 -12 0 -14
21 -9 23 6 26 4 21 -13 -5 -22 0 -24 43 -22 14 1 65 -3 113 -8 73 -9 97 -8
135 5 62 21 100 47 139 98 18 22 55 66 83 96 27 30 50 60 50 67 0 6 3 13 8 15
4 2 28 28 54 58 42 50 52 57 106 68 32 7 75 12 95 12 l37 0 0 380 0 380 -1260
0 -1259 0 6 -32z"/>
<path d="M2555 5270 c-4 -6 -5 -26 -4 -45 5 -49 -7 -53 -14 -4 -6 49 -10 53
-36 44 -16 -5 -21 -15 -21 -41 0 -21 4 -33 10 -29 6 3 10 -4 10 -17 0 -17 -6
-24 -20 -25 -16 -1 -20 4 -20 33 0 21 -4 33 -10 29 -5 -3 -10 1 -10 10 0 12
-6 15 -20 10 -43 -14 -91 -13 -97 1 -8 21 -33 -9 -33 -40 0 -34 -18 -43 -29
-14 -6 13 -10 16 -11 8 0 -12 -2 -13 -9 -1 -6 9 -11 10 -15 2 -4 -6 -15 -11
-25 -11 -28 0 -39 -69 -15 -87 42 -31 213 -60 234 -39 7 7 10 6 10 -2 0 -13
47 -16 74 -6 9 3 16 12 16 20 0 19 35 18 66 -2 20 -14 39 -15 96 -10 40 4 74
8 76 10 2 3 7 24 10 48 l7 43 5 -50 5 -50 35 3 c59 5 68 10 62 37 -2 14 0 25
6 25 11 0 22 -24 22 -50 0 -13 10 -19 43 -23 23 -3 85 -15 137 -27 52 -12 106
-24 120 -26 13 -3 30 -10 36 -15 7 -5 26 -14 42 -19 24 -6 32 -5 37 8 6 14 8
13 16 -6 9 -24 102 -72 138 -72 10 0 21 -7 24 -15 4 -8 34 -28 69 -46 35 -17
74 -40 88 -49 24 -17 26 -17 50 2 22 18 25 19 28 4 2 -9 -2 -24 -9 -32 -10
-13 -10 -17 2 -25 8 -5 17 -9 20 -9 3 0 60 -54 126 -119 67 -66 124 -117 128
-113 3 3 3 -1 0 -10 -5 -12 0 -15 19 -15 14 0 26 4 26 9 0 5 5 6 10 3 7 -4 9
2 5 18 -4 13 0 39 9 58 l15 34 -6 -50 c-6 -48 -5 -49 13 -35 35 28 94 90 94
98 0 9 -36 44 -58 56 -8 5 -17 -4 -27 -26 -8 -18 -14 -27 -15 -20 0 10 -5 10
-21 2 -11 -7 -23 -9 -26 -6 -3 3 1 8 10 12 19 7 61 74 52 83 -4 3 -13 -2 -20
-13 -9 -11 -20 -16 -31 -12 -13 5 -15 15 -11 45 4 31 2 38 -11 37 -18 -3 -62
-55 -62 -73 0 -7 -4 -13 -10 -13 -19 0 -10 29 19 62 21 24 26 38 21 53 -10 27
-46 58 -69 60 -11 1 -41 20 -68 43 -26 23 -56 49 -67 58 -14 13 -23 14 -42 5
-21 -9 -24 -8 -34 22 -8 26 -9 27 -7 6 2 -16 -4 -37 -15 -50 l-20 -24 7 35 c4
19 9 45 12 58 4 16 1 22 -11 22 -8 0 -23 11 -32 25 -22 34 -41 31 -66 -10 -24
-42 -35 -39 -19 6 15 45 14 51 -10 44 -16 -5 -20 -4 -15 6 4 8 -4 1 -18 -16
-14 -16 -26 -33 -26 -37 0 -5 -4 -8 -9 -8 -5 0 -1 20 7 44 9 25 14 48 10 51
-3 3 -29 15 -57 25 -28 11 -75 29 -103 40 -98 38 -243 68 -377 79 -189 15
-211 15 -211 -7 0 -9 -9 -23 -20 -30 -18 -11 -22 -9 -38 15 -15 25 -23 28 -79
31 -34 1 -65 -3 -68 -8z"/>
<path d="M1923 5093 c-13 -2 -23 -8 -23 -12 0 -3 -11 -8 -25 -9 -40 -3 -84
-30 -89 -55 -15 -68 -13 -64 -21 -39 -4 12 -11 22 -17 22 -22 0 -86 -41 -90
-58 -3 -11 -17 -22 -32 -26 -35 -9 -105 -58 -106 -73 0 -12 -12 -17 -36 -14
-6 1 -17 -10 -24 -24 -12 -22 -11 -30 3 -60 22 -47 22 -48 -13 -30 -16 9 -30
22 -30 30 0 26 -18 16 -62 -32 -24 -27 -64 -70 -90 -97 -53 -55 -55 -63 -32
-107 22 -44 11 -60 -14 -20 l-21 35 -10 -27 c-6 -14 -27 -44 -47 -67 -36 -39
-37 -42 -19 -58 10 -9 14 -11 10 -4 -5 10 -2 13 10 10 10 -1 20 -9 23 -17 3
-8 0 -11 -6 -7 -5 3 -12 0 -15 -8 -4 -9 -14 -12 -27 -9 -15 4 -19 2 -14 -10 4
-12 1 -14 -15 -10 -16 4 -21 1 -21 -15 0 -12 -4 -24 -10 -27 -5 -3 -10 -15
-10 -26 0 -10 -4 -19 -10 -19 -5 0 -10 -7 -10 -15 0 -8 -5 -14 -11 -12 -6 1
-20 -11 -29 -28 -23 -37 -24 -45 -7 -45 8 0 22 -9 32 -20 18 -19 17 -20 -3
-20 -12 0 -25 8 -31 18 -11 20 -13 16 -35 -68 -10 -38 -11 -59 -4 -67 7 -9 7
-13 -2 -13 -10 0 -10 -3 0 -15 16 -20 5 -32 -14 -16 -8 7 -16 8 -19 4 -12 -19
-48 -195 -43 -209 3 -8 17 -19 31 -24 36 -14 31 -23 -9 -16 l-33 6 -7 -61 c-3
-34 -6 -97 -6 -140 0 -68 2 -79 18 -80 10 0 12 -3 5 -6 -14 -5 -18 -88 -7
-117 3 -9 18 -17 33 -17 20 -1 21 -2 6 -6 -46 -10 -51 -13 -35 -24 13 -8 12
-11 -4 -24 -14 -11 -17 -20 -11 -42 4 -15 9 -37 11 -48 8 -61 37 -181 44 -185
4 -3 11 -23 15 -45 7 -42 74 -226 85 -235 3 -3 12 -21 20 -40 23 -58 59 -109
113 -161 56 -54 69 -58 95 -31 57 60 63 72 54 105 -20 68 -55 135 -68 130 -9
-3 -14 2 -14 16 0 12 5 21 10 21 7 0 7 6 0 18 -25 45 -64 163 -96 291 -27 111
-36 170 -42 283 -6 116 -10 143 -22 144 -8 1 -21 2 -29 3 -22 2 -3 15 22 16
20 0 23 7 30 70 20 172 50 330 81 426 31 95 33 106 19 122 -15 16 -14 17 6 17
13 0 25 9 30 23 5 13 16 29 25 36 22 19 20 39 -6 62 -17 14 -19 18 -7 19 8 0
20 -5 26 -11 17 -17 29 -5 70 69 20 36 56 90 80 119 24 29 43 55 43 57 0 3 32
36 72 73 40 37 88 85 108 106 19 20 40 37 46 37 21 0 38 30 26 42 -15 15 -16
45 -2 53 5 3 16 -9 24 -27 8 -18 15 -27 15 -20 1 6 8 12 16 12 8 0 15 4 15 8
0 5 11 15 25 22 26 14 28 29 6 46 -8 7 -11 18 -7 29 5 15 10 13 35 -16 l29
-33 19 32 c12 21 26 32 40 32 29 0 93 38 93 56 0 7 11 21 24 31 l23 18 -22 30
c-13 16 -26 41 -30 55 -4 14 -12 31 -17 38 -11 12 -15 13 -55 5z"/>
<path d="M2688 4963 c-44 -5 -45 -13 -23 -87 8 -27 13 -51 10 -54 -2 -3 -7 1
-9 9 -43 121 -48 130 -64 117 -10 -8 -13 -8 -9 -1 5 8 -11 7 -55 -3 -35 -8
-64 -19 -66 -24 -2 -6 -12 -10 -23 -10 -10 0 -19 -6 -19 -14 0 -8 -5 -16 -11
-18 -7 -2 -8 -20 -3 -53 5 -40 15 -58 45 -87 22 -21 39 -43 39 -48 0 -6 11
-15 25 -22 13 -6 22 -15 19 -19 -3 -5 0 -9 5 -9 6 0 11 -7 11 -16 0 -8 5 -12
10 -9 6 3 10 0 10 -8 0 -8 9 -22 20 -32 11 -10 20 -23 20 -30 0 -30 38 -45
132 -54 130 -13 175 -39 254 -148 92 -129 105 -199 54 -290 -16 -29 -30 -59
-30 -66 0 -17 -32 -78 -59 -112 -12 -16 -18 -31 -13 -34 5 -3 11 -14 15 -23 5
-14 10 -15 36 -5 17 6 31 17 31 24 0 8 13 16 29 19 17 4 32 12 35 20 3 8 12
14 20 14 8 0 18 9 21 20 3 11 14 20 24 20 10 0 24 7 31 15 7 8 18 15 26 15 7
0 22 10 34 22 11 12 20 19 20 15 0 -4 17 3 38 16 20 13 53 29 72 37 19 7 39
17 44 22 6 4 29 8 53 8 23 0 66 9 95 19 29 11 72 20 96 21 69 4 203 3 270 -1
55 -3 65 -1 75 16 18 30 26 65 16 65 -5 0 -6 14 -2 30 3 20 1 30 -6 30 -7 0
-10 4 -7 9 3 4 -3 16 -14 26 -18 17 -21 17 -45 1 -34 -22 -54 -16 -29 9 19 19
28 55 13 55 -4 0 -11 9 -14 20 -4 11 -11 18 -16 15 -5 -3 -6 0 -3 8 3 8 -2 20
-11 27 -13 11 -25 4 -80 -45 -36 -31 -65 -52 -65 -46 0 7 6 14 14 17 7 3 34
29 60 59 47 55 47 55 18 49 -17 -4 -32 -1 -36 5 -4 6 -2 11 3 11 22 0 10 39
-20 64 -37 31 -45 32 -52 6 -5 -20 -33 -37 -43 -27 -3 3 0 23 7 44 7 21 13 40
13 42 1 2 -9 7 -21 12 -18 6 -27 0 -57 -38 -42 -54 -46 -52 -11 8 29 51 31 69
9 69 -9 0 -22 7 -28 16 -7 8 -31 18 -54 21 -31 4 -42 10 -42 23 0 22 -72 79
-78 62 -7 -21 -33 -42 -44 -36 -5 4 -8 17 -5 30 6 33 -25 57 -108 82 -85 26
-84 26 -107 5 -17 -15 -18 -14 -18 17 0 18 -3 31 -6 28 -3 -4 -19 -2 -35 2
-33 10 -35 7 -58 -70 -9 -33 -10 -31 -8 25 l2 60 -53 0 c-35 0 -56 5 -62 14
-4 8 -16 16 -26 17 -44 7 -193 11 -226 7z"/>
<path d="M2020 4790 c-18 -16 -40 -30 -49 -30 -20 0 -131 -58 -131 -68 0 -4
-13 -13 -29 -20 -17 -7 -32 -23 -35 -38 -4 -14 -11 -22 -16 -19 -6 4 -17 -1
-26 -10 -13 -13 -14 -18 -3 -32 12 -14 11 -15 -9 -9 -17 6 -34 -2 -72 -31 -27
-21 -52 -46 -55 -55 -6 -16 9 -55 24 -68 3 -3 15 -16 25 -30 11 -14 1 -7 -21
15 -22 22 -39 43 -37 47 3 4 0 9 -5 12 -5 3 -31 -21 -58 -55 -26 -34 -63 -79
-80 -101 -18 -22 -33 -46 -33 -53 0 -7 -9 -24 -20 -38 -17 -21 -18 -26 -5 -31
22 -8 18 -26 -6 -26 -11 0 -27 -7 -36 -15 -14 -14 -13 -18 3 -37 19 -21 19
-21 -3 -16 -28 7 -42 -9 -45 -55 -2 -20 -7 -37 -12 -37 -6 0 -5 -5 2 -12 7 -7
12 -16 12 -20 0 -13 -17 -9 -34 8 -9 8 -16 10 -16 4 0 -6 6 -13 14 -16 8 -3
17 -12 20 -21 5 -12 1 -14 -18 -9 -26 6 -46 -8 -24 -17 9 -4 8 -6 -2 -6 -9 -1
-6 -6 9 -14 31 -16 42 -42 14 -35 -26 7 -54 -9 -47 -26 3 -8 1 -17 -5 -21 -21
-13 -11 -44 19 -60 40 -21 38 -26 -8 -19 -29 4 -39 3 -39 -7 -1 -8 -5 -42 -10
-76 -8 -51 -7 -63 4 -63 14 0 18 -16 4 -22 -12 -4 -23 -150 -12 -167 5 -8 26
-17 47 -22 l39 -8 -45 2 -45 2 -3 -60 c-4 -76 5 -125 23 -125 21 0 30 -22 12
-31 -11 -6 -14 -18 -11 -37 3 -15 6 -36 6 -47 1 -11 5 -24 9 -30 4 -5 10 -25
14 -42 8 -38 11 -38 101 -18 36 9 69 14 71 11 5 -5 -48 -21 -109 -31 -20 -4
-39 -12 -41 -19 -7 -18 68 -187 87 -198 9 -5 16 -17 16 -26 0 -9 7 -26 15 -36
8 -10 12 -23 8 -29 -3 -6 -1 -7 5 -3 7 4 12 1 12 -8 0 -9 4 -16 10 -16 5 0 25
-13 43 -30 39 -34 70 -37 124 -15 19 8 54 17 77 20 22 3 43 10 44 15 2 6 8 10
13 10 6 0 19 9 31 20 12 11 30 20 40 20 11 0 16 4 13 10 -3 5 9 19 28 31 36
24 58 60 52 87 -6 31 -35 92 -43 92 -5 0 -9 6 -10 13 0 6 -12 43 -26 80 -40
105 -35 155 26 272 38 72 82 150 87 155 4 3 19 29 34 57 16 29 56 100 90 157
34 58 89 153 122 212 33 59 72 128 87 153 15 25 38 66 51 91 13 25 33 62 45
83 85 146 112 197 112 214 0 8 11 29 25 47 46 61 30 105 -71 202 -52 50 -78
83 -85 108 -14 51 -44 76 -93 77 -23 1 -44 1 -48 0 -5 0 -8 4 -8 9 0 6 -22 10
-49 10 -41 0 -54 -5 -81 -30z"/>
<path d="M4184 4548 c-38 -29 -93 -78 -117 -105 -17 -20 -16 -22 29 -76 47
-55 48 -56 75 -41 43 22 46 17 11 -19 l-32 -33 27 -37 c16 -20 36 -36 46 -37
9 0 17 -4 17 -10 0 -5 -8 -10 -17 -11 -10 -1 2 -6 25 -11 41 -9 42 -11 25 -24
-17 -13 -15 -14 17 -12 22 2 45 13 63 31 32 33 32 32 6 58 -14 14 -19 29 -16
45 2 14 0 27 -5 30 -5 3 -7 25 -4 48 3 22 3 36 0 30 -3 -7 -14 -10 -25 -7 -18
5 -18 7 -4 23 14 16 14 19 -10 41 -13 13 -25 32 -25 41 0 9 -11 29 -24 45 -12
15 -25 34 -27 41 -3 9 -13 6 -35 -10z"/>
<path d="M2848 4312 c-43 -57 -66 -103 -108 -214 -21 -55 -22 -61 -8 -175 l13
-118 32 -3 c28 -3 35 1 45 25 7 15 17 31 22 34 5 4 6 19 4 33 -3 17 -1 26 7
26 14 0 75 50 75 61 0 4 21 43 47 86 55 93 57 119 12 194 -72 121 -87 126
-141 51z"/>
<path d="M2493 4302 c-28 -25 -162 -262 -147 -262 3 0 -6 -10 -19 -22 -13 -13
-38 -49 -55 -80 l-31 -58 115 0 c63 0 113 -4 110 -9 -3 -4 -57 -6 -121 -3 -90
4 -115 2 -115 -8 0 -7 -10 -27 -23 -44 -13 -17 -56 -89 -97 -161 -40 -71 -81
-142 -91 -157 -11 -15 -19 -34 -19 -43 0 -8 -4 -15 -9 -15 -5 0 -12 -13 -16
-30 -4 -16 -12 -33 -20 -37 -14 -9 -119 -194 -129 -230 -4 -12 -2 -24 5 -29 7
-4 65 -9 128 -11 l117 -4 31 31 c29 28 73 107 73 130 0 6 -28 10 -65 10 -36 0
-65 4 -65 8 0 5 8 9 18 9 104 -1 142 4 142 18 0 8 4 15 8 15 8 0 32 43 32 55
0 3 -19 5 -42 6 -80 1 -89 18 -10 18 55 1 74 5 78 16 5 11 22 15 70 15 82 0
140 22 150 58 12 42 11 46 -21 53 -25 6 -23 7 17 8 35 1 53 7 68 24 12 12 29
22 38 22 29 0 13 84 -17 86 -9 0 -27 2 -41 3 -14 1 -40 3 -59 4 -32 2 -33 4
-27 32 3 17 20 51 37 76 17 25 32 59 33 74 2 24 -2 30 -23 33 -19 3 -16 4 11
6 52 2 69 45 36 88 -6 8 -2 15 12 23 11 6 18 16 14 21 -3 6 -1 23 6 37 7 15
15 34 19 42 13 27 0 155 -18 177 -26 34 -52 35 -88 5z"/>
<path d="M3873 3992 c-55 -3 -62 -5 -65 -25 -4 -25 19 -94 38 -117 12 -14 31
-155 26 -193 -3 -27 -120 -255 -147 -287 -18 -21 -45 -88 -45 -111 0 -11 -7
-19 -14 -19 -14 0 -66 -59 -66 -74 0 -5 -25 -51 -55 -104 -73 -127 -74 -129
-103 -187 -14 -27 -28 -52 -32 -55 -3 -3 -19 -27 -34 -55 -220 -387 -269 -456
-336 -475 -19 -5 -74 -10 -121 -10 -146 0 -207 36 -303 180 -95 142 -98 169
-26 312 28 55 50 108 50 119 0 10 5 19 10 19 6 0 10 5 10 12 0 6 10 22 22 35
14 15 17 23 8 23 -7 0 -10 3 -7 7 4 3 -2 13 -14 21 -16 11 -37 13 -97 7 -67
-6 -81 -11 -104 -36 -16 -16 -28 -33 -28 -37 0 -5 -32 -43 -70 -85 -91 -99
-163 -133 -315 -152 -27 -4 -71 -17 -97 -30 -25 -13 -49 -21 -52 -18 -3 4 -6
-1 -6 -10 0 -8 -9 -19 -20 -22 -11 -3 -20 -11 -20 -16 0 -5 -8 -9 -17 -9 -24
-1 -73 -29 -53 -30 8 -1 -6 -8 -32 -17 -28 -9 -50 -23 -53 -34 -4 -11 -14 -19
-23 -19 -9 0 -36 -21 -59 -46 l-43 -45 19 -38 c11 -21 35 -56 54 -79 20 -23
46 -59 58 -79 13 -21 29 -44 36 -51 7 -7 13 -18 13 -24 0 -6 8 -18 19 -27 28
-25 141 -254 141 -287 0 -7 5 -24 11 -38 11 -23 13 -24 35 -9 28 18 30 13 9
-28 -12 -22 -13 -34 -5 -50 8 -15 8 -24 0 -34 -7 -8 -9 -27 -6 -42 20 -97 37
-370 25 -395 -6 -10 -5 -19 1 -23 17 -11 11 -42 -15 -81 -14 -20 -25 -50 -25
-65 0 -16 0 -31 0 -34 0 -15 16 -3 22 17 3 13 7 19 7 13 1 -5 6 -3 11 5 8 12
10 11 10 -7 0 -13 -16 -52 -35 -89 -31 -58 -35 -74 -35 -140 0 -42 4 -75 10
-75 6 -1 16 -2 23 -3 6 -1 15 -5 19 -11 4 -5 30 -14 57 -21 61 -13 66 -9 75
61 6 46 20 75 30 64 3 -2 0 -24 -5 -49 -5 -24 -9 -53 -7 -64 3 -18 4 -19 19
-3 9 9 19 14 21 11 10 -9 51 102 56 149 2 26 9 50 13 53 5 3 9 10 9 15 0 6 -5
7 -12 3 -7 -4 -8 -3 -4 5 4 6 12 9 17 6 14 -9 -1 -111 -27 -185 -12 -36 -21
-66 -19 -68 2 -2 19 0 39 3 40 8 39 5 56 125 11 77 24 106 35 78 4 -9 -1 -37
-9 -62 -20 -59 -20 -102 -1 -110 8 -3 15 -12 15 -21 0 -13 20 -15 158 -13
l157 3 -4 140 c-1 77 -1 138 2 135 3 -3 10 -41 16 -85 6 -44 16 -82 21 -83 7
-2 8 -23 4 -53 -7 -55 9 -70 20 -18 9 48 7 99 -4 99 -6 0 -5 6 2 14 11 11 14
3 19 -48 4 -46 6 -28 8 74 4 169 19 137 20 -42 1 -71 5 -128 10 -128 11 0 21
25 21 51 0 10 7 19 15 19 11 0 15 11 15 38 0 28 3 34 11 22 8 -12 10 -10 8 10
-1 14 -1 36 0 50 2 24 2 24 16 6 8 -11 15 -39 15 -62 0 -23 3 -51 7 -61 6 -16
8 -16 13 5 7 30 24 33 28 5 6 -41 19 -24 24 28 4 37 1 60 -11 80 -8 15 -12 31
-8 35 13 14 35 -30 43 -86 l7 -55 10 45 10 45 12 -40 c10 -31 14 -36 20 -22 8
18 3 60 -10 90 -5 12 -3 17 9 17 10 0 16 -9 17 -22 0 -13 5 -32 10 -43 7 -15
8 -9 4 23 -3 23 -1 42 4 42 14 0 21 -28 21 -86 0 -48 -3 -56 -22 -63 -15 -5
-26 -4 -31 3 -5 6 -6 0 -3 -14 3 -14 6 -35 6 -47 0 -23 1 -23 148 -23 144 0
148 1 175 25 25 24 27 32 27 100 0 120 -44 195 -115 195 -27 1 -28 2 -13 14
17 12 17 14 0 28 -17 15 -143 78 -155 78 -4 0 -4 -12 -1 -27 l7 -26 -37 29
c-20 16 -36 36 -36 44 -1 12 -3 12 -10 -2 -7 -12 -6 -30 4 -58 12 -35 12 -39
0 -29 -11 9 -14 8 -14 -6 0 -27 -13 -9 -16 22 -8 81 -13 90 -57 107 -23 8 -65
20 -93 25 -28 5 -57 11 -64 13 -9 2 -16 -6 -18 -20 -4 -29 -22 -18 -22 14 0
21 -13 31 -97 70 l-97 45 -17 -22 c-24 -32 -45 -15 -23 19 14 21 15 27 3 30
-22 7 -119 114 -119 131 0 12 -6 9 -21 -9 l-20 -25 6 36 c5 36 -6 77 -30 109
-24 32 -46 110 -47 171 -2 55 2 70 26 106 32 48 66 63 140 63 37 0 60 -6 83
-23 31 -21 143 -159 143 -175 0 -7 10 -16 52 -50 24 -20 58 -23 58 -6 0 8 5
14 11 14 7 0 9 -10 5 -25 -5 -21 -2 -25 21 -31 16 -3 84 -23 153 -45 69 -21
157 -48 195 -60 39 -11 88 -27 110 -34 87 -30 263 -74 313 -78 44 -3 52 -2 52
13 0 10 -9 20 -20 23 -11 3 -20 12 -20 21 0 30 20 16 48 -33 31 -58 54 -71
122 -71 43 0 50 3 50 20 0 26 10 25 33 -3 15 -18 27 -22 58 -19 21 2 39 6 39
8 0 2 -9 13 -20 24 -22 22 -27 44 -7 38 6 -2 18 -19 26 -36 18 -39 39 -41 72
-6 13 14 38 32 56 41 40 18 40 26 8 87 -32 61 -32 66 5 31 34 -33 37 -28 13
18 -15 30 -15 31 0 18 9 -7 23 -11 32 -8 12 5 12 12 3 39 -6 18 -18 41 -26 51
-8 9 -13 19 -10 22 3 3 11 -1 18 -10 23 -27 31 -16 31 43 0 31 1 71 1 87 1 17
-2 38 -7 48 -6 14 -3 19 12 23 10 3 24 19 31 36 10 26 8 35 -8 58 -10 15 -26
33 -35 40 -8 7 -15 17 -15 23 0 6 10 1 23 -10 28 -26 67 -46 67 -35 0 4 -7 17
-15 28 -19 25 -19 34 0 34 10 0 15 10 15 30 0 36 -1 28 16 92 21 81 18 117
-13 152 l-28 30 28 -18 29 -17 56 52 c31 29 62 57 67 63 6 6 36 20 68 30 31
11 57 22 57 25 0 3 -14 14 -31 24 -45 25 -30 31 35 14 l56 -15 0 23 c0 16 -8
26 -22 31 l-23 8 21 5 22 6 -21 45 c-11 25 -26 48 -31 53 -8 5 -7 10 2 15 23
15 3 61 -37 82 -31 17 -32 19 -8 14 15 -3 27 -4 27 -1 0 5 -24 60 -65 152 -12
28 -26 61 -30 75 -4 14 -25 62 -46 107 -21 46 -47 110 -56 143 l-18 60 -40 1
-40 1 37 10 c34 9 37 12 32 36 -4 15 -13 33 -22 40 -14 10 -13 12 7 12 23 0
24 2 18 56 -3 30 -11 62 -18 70 -9 11 -9 18 -2 22 5 4 9 16 7 27 -1 11 -6 39
-9 62 -4 27 -14 48 -27 57 -18 13 -19 18 -8 31 11 13 8 20 -17 43 -16 15 -32
35 -36 44 -11 30 -66 51 -117 45 l-46 -6 4 30 c4 27 2 29 -26 29 -17 0 -32 3
-34 8 -1 4 -31 6 -65 4z"/>
<path d="M4442 3961 c-63 -21 -78 -38 -54 -64 15 -17 14 -20 -23 -52 l-40 -34
38 -1 c20 0 37 -4 37 -10 0 -5 -14 -10 -31 -10 l-30 0 7 -72 c10 -104 16 -116
53 -110 40 6 40 -6 1 -19 -26 -10 -30 -16 -30 -49 0 -22 5 -42 11 -45 6 -5 4
-12 -7 -20 -17 -12 -17 -14 -1 -29 16 -17 13 -44 -7 -58 -6 -4 -1 -8 13 -8 16
0 21 -4 18 -15 -9 -23 29 -146 73 -233 22 -45 40 -85 40 -90 0 -5 7 -15 16
-23 8 -7 13 -20 11 -30 -3 -9 11 -45 29 -80 19 -35 34 -71 34 -81 0 -20 6 -23
63 -33 20 -3 37 -10 37 -15 0 -5 -16 -6 -35 -3 -43 7 -44 -1 -8 -76 63 -132
15 -226 -142 -276 -19 -6 -19 -7 3 -19 29 -16 18 -28 -15 -15 -46 17 -68 10
-115 -37 -31 -31 -48 -57 -52 -82 -23 -136 -49 -308 -55 -371 l-7 -73 33 -25
c42 -32 43 -49 2 -27 -17 8 -35 12 -40 7 -4 -4 -13 -48 -19 -98 -13 -102 -27
-175 -43 -223 -9 -25 -8 -38 1 -53 17 -26 6 -42 -19 -29 -11 6 -17 16 -13 21
4 7 -2 7 -15 -1 -27 -14 -37 -38 -22 -53 17 -17 13 -27 -10 -27 -13 0 -19 -5
-16 -13 3 -6 12 -29 21 -49 24 -55 4 -46 -28 12 -15 28 -33 50 -41 50 -42 0
-57 -29 -35 -71 8 -13 7 -19 0 -19 -6 0 -16 11 -22 25 -11 25 -33 34 -75 32
-17 -1 -23 -7 -23 -24 0 -32 -12 -29 -53 13 -33 34 -39 36 -123 44 -49 5 -105
13 -124 19 -19 7 -53 16 -75 20 -63 14 -158 40 -180 50 -11 5 -42 15 -70 21
-68 16 -175 48 -264 77 -40 14 -86 23 -102 21 -21 -3 -30 0 -34 13 -3 9 -18
19 -33 23 -15 3 -48 10 -74 16 -26 5 -56 17 -66 27 -103 97 -129 125 -159 173
-55 86 -71 100 -115 100 -47 0 -58 -21 -58 -110 0 -88 53 -194 141 -281 73
-74 100 -90 203 -125 85 -29 96 -30 96 -3 0 11 5 17 10 14 6 -3 10 -17 10 -29
0 -20 8 -25 60 -36 33 -7 63 -17 66 -21 3 -5 17 -9 31 -9 25 0 68 -11 121 -31
18 -7 22 -5 22 12 0 11 5 17 10 14 6 -3 10 -14 10 -23 0 -12 23 -29 68 -51 83
-41 159 -96 167 -121 3 -10 15 -22 25 -25 11 -3 17 -12 14 -20 -3 -7 1 -24 9
-37 29 -47 40 -116 34 -215 -11 -168 -21 -173 -331 -173 -195 0 -225 -2 -230
-16 -4 -11 -16 -15 -40 -13 -19 2 -38 0 -42 -4 -14 -13 -29 -7 -39 16 l-10 22
-465 1 c-256 0 -474 4 -485 9 -11 4 -28 15 -37 23 -16 13 -19 12 -35 -17 -10
-17 -21 -31 -25 -31 -9 0 6 41 26 72 8 13 17 34 21 48 12 39 -17 4 -40 -50
-18 -43 -45 -90 -45 -79 0 3 16 43 35 89 42 103 46 139 6 54 -16 -34 -34 -65
-41 -69 -7 -5 -6 2 3 16 8 13 23 47 33 74 10 28 30 73 45 100 14 28 30 67 33
88 4 21 10 46 13 55 4 11 -4 7 -24 -10 -55 -52 -59 -28 -7 43 25 34 34 56 31
71 -3 11 3 40 15 65 14 29 19 55 15 77 -3 19 0 39 6 45 16 16 19 35 24 146 4
77 0 123 -17 200 -11 55 -23 109 -25 120 -11 60 -86 212 -157 316 -47 70 -59
80 -89 77 -20 -3 -23 1 -21 20 2 12 -2 22 -7 22 -6 0 -11 6 -11 14 0 7 -16 21
-35 30 -19 9 -39 25 -45 36 -12 23 -65 50 -97 50 -41 0 -61 -17 -68 -59 -12
-70 44 -161 97 -161 24 0 28 -3 24 -18 -6 -17 20 -76 60 -137 13 -20 19 -23
30 -14 12 9 13 9 9 -3 -4 -9 1 -18 10 -22 10 -4 15 -12 11 -21 -3 -9 3 -30 13
-48 29 -52 68 -176 81 -257 6 -41 10 -132 8 -201 l-3 -126 23 10 c32 15 41 -1
13 -22 -18 -14 -24 -29 -25 -59 0 -22 2 -38 7 -35 4 2 12 1 17 -2 6 -4 -1 -27
-19 -60 -22 -41 -26 -52 -13 -48 9 4 26 18 38 32 30 35 43 18 16 -19 -12 -16
-22 -35 -22 -42 0 -7 -18 -49 -40 -93 -22 -44 -40 -81 -40 -82 0 0 24 24 54
55 59 61 82 65 46 8 -12 -20 -17 -36 -12 -36 16 0 9 -20 -41 -111 -46 -84 -77
-124 -77 -100 0 6 -4 11 -9 11 -12 0 -51 -130 -51 -172 0 -25 8 -42 29 -62 27
-26 38 -29 142 -37 140 -11 1800 -10 1888 2 99 12 108 26 137 200 13 79 28
169 34 199 5 30 12 66 14 80 22 138 52 200 97 200 44 0 54 14 35 50 -9 18 -16
36 -16 39 1 12 40 -42 40 -55 0 -10 12 -14 38 -14 47 0 64 11 57 36 -6 18 -5
18 12 -2 17 -19 36 -22 121 -15 6 1 12 12 12 25 0 13 7 26 15 30 8 3 15 12 15
21 0 22 19 19 40 -7 17 -21 18 -21 43 -5 29 19 28 32 -7 81 -17 26 -18 29 -3
23 15 -5 16 -3 7 13 -15 27 -12 32 10 20 11 -6 20 -19 20 -29 0 -10 9 -21 20
-24 11 -3 20 -1 20 4 0 5 -9 17 -20 26 -11 10 -20 23 -20 30 0 16 5 16 33 1
20 -10 21 -10 9 5 -27 32 -6 37 30 7 42 -35 49 -30 55 37 2 25 8 53 13 63 17
32 11 57 -19 83 -21 17 -28 31 -24 45 5 21 5 21 31 -3 34 -32 41 -21 49 83 l6
79 -32 24 c-17 12 -31 30 -31 38 0 11 5 9 20 -7 12 -12 27 -22 35 -22 18 0 18
5 4 32 -6 12 -7 18 -1 14 5 -3 13 6 16 20 5 19 0 33 -19 56 -18 21 -23 34 -16
41 7 7 15 6 26 -3 22 -18 39 1 31 35 -4 17 -17 30 -37 37 -28 10 -49 34 -49
58 0 6 12 -2 26 -19 28 -34 68 -41 78 -15 12 32 6 104 -9 110 -19 8 -9 24 14
24 10 0 21 8 23 18 9 32 69 69 168 101 53 18 116 47 141 66 40 28 49 41 59 86
28 115 -9 272 -123 521 -31 67 -41 79 -74 93 -37 16 -37 17 -14 26 14 6 21 15
18 23 -3 8 -11 32 -17 53 -11 35 -19 43 -64 62 -48 21 -50 23 -27 32 17 7 21
14 16 27 -4 9 -8 23 -9 30 -1 7 -8 18 -14 24 -7 7 -12 24 -12 38 0 14 -5 31
-10 36 -6 6 -11 44 -11 85 -1 96 -16 267 -31 346 l-11 62 -46 3 -46 3 35 11
c25 7 36 17 38 33 2 15 0 21 -7 17 -7 -5 -11 3 -11 18 0 30 2 30 -68 7z"/>
<path d="M3563 3917 c-48 -24 -59 -42 -41 -64 10 -12 9 -17 -3 -27 -10 -7 -13
-17 -9 -26 4 -8 13 -27 18 -41 10 -25 16 -27 90 -34 72 -6 111 -4 164 11 14 4
16 12 11 37 -3 18 -10 34 -15 35 -4 2 -8 10 -8 18 0 8 -7 14 -15 14 -8 0 -12
6 -9 14 3 7 -2 16 -10 19 -9 4 -16 13 -16 21 0 17 -59 46 -92 45 -12 0 -42
-10 -65 -22z"/>
<path d="M3305 3811 c-4 -7 7 -11 29 -11 19 0 37 -4 41 -9 9 -15 -63 -25 -79
-12 -17 14 -27 -6 -19 -38 3 -14 1 -21 -8 -21 -8 0 -24 -11 -37 -24 l-22 -24
47 -93 c57 -109 75 -125 103 -89 26 33 25 40 -4 40 -14 0 -28 5 -31 10 -4 6
12 10 39 10 51 0 62 16 19 26 -44 9 -56 14 -51 20 3 2 25 0 49 -5 48 -11 49
-10 97 73 23 39 23 41 6 78 -12 26 -24 38 -38 39 -12 0 -16 3 -9 5 7 3 10 11
7 17 -6 16 -130 22 -139 8z"/>
<path d="M3538 3668 c-27 -23 -97 -133 -144 -230 -13 -26 -32 -52 -43 -58 -12
-6 -104 -10 -235 -10 -137 0 -216 -4 -216 -10 0 -5 -7 -10 -15 -10 -9 0 -15
-6 -13 -12 5 -30 -14 -54 -52 -66 -67 -21 -79 -16 -43 17 17 16 33 37 35 47 3
17 -5 19 -84 22 l-87 3 -26 -41 c-14 -23 -32 -43 -39 -46 -7 -3 -19 -20 -26
-39 -9 -24 -16 -31 -22 -23 -6 10 -8 10 -8 1 0 -7 9 -17 21 -23 16 -9 19 -18
15 -36 -4 -13 -5 -24 -4 -25 2 0 48 -2 103 -5 175 -10 191 -21 161 -106 -10
-29 -31 -72 -47 -96 -16 -24 -29 -47 -29 -52 0 -5 -6 -15 -13 -22 -20 -21 -73
-108 -100 -166 -23 -49 -24 -56 -11 -97 7 -24 18 -54 25 -67 18 -33 80 -108
90 -108 5 0 21 19 36 43 14 23 41 65 60 92 18 28 33 55 33 61 0 7 6 17 14 23
26 22 58 91 44 96 -37 11 -40 15 -10 12 18 -2 37 2 43 10 6 7 8 13 4 13 -4 0
4 13 17 29 12 16 51 80 86 143 75 137 108 180 117 157 4 -10 -13 -47 -43 -96
-27 -44 -64 -109 -83 -144 -18 -35 -49 -89 -69 -119 -20 -30 -54 -86 -75 -125
-21 -38 -48 -83 -60 -100 -12 -16 -32 -52 -44 -79 l-23 -50 23 -17 c18 -13 45
-17 126 -18 l104 -1 44 46 c25 25 45 51 45 58 0 6 11 28 25 48 14 20 25 44 25
52 0 9 4 16 9 16 5 0 11 10 15 23 3 12 23 49 44 82 45 71 103 170 120 205 7
14 28 50 47 80 19 30 41 69 49 85 7 17 34 65 60 107 25 42 46 81 46 86 0 4 13
26 30 48 16 21 30 45 30 52 0 6 5 12 10 12 6 0 10 7 10 15 0 10 -16 15 -57 18
l-58 3 61 2 62 2 40 63 c52 80 102 180 102 205 0 11 -7 23 -16 26 -30 12 -220
7 -236 -6z"/>
<path d="M3020 3641 c-30 -5 -91 -6 -135 -4 -92 4 -132 -8 -141 -44 -4 -14
-25 -37 -48 -52 -31 -20 -42 -33 -44 -57 -4 -39 -2 -39 153 -39 70 1 123 -3
127 -9 4 -7 29 -6 72 3 38 8 78 10 98 5 74 -17 168 -11 168 11 0 18 -77 160
-95 175 -19 16 -85 20 -155 11z"/>
<path d="M2269 3303 c-13 -21 -31 -50 -38 -65 -8 -16 -18 -28 -23 -28 -4 0 -8
-4 -8 -10 0 -5 -14 -33 -31 -61 -29 -46 -30 -53 -19 -77 8 -15 13 -30 12 -33
-1 -4 8 -15 19 -25 15 -13 22 -15 31 -6 7 7 20 12 31 12 14 0 17 5 12 19 -3
11 -1 22 4 25 6 4 8 13 5 21 -4 9 3 18 19 24 29 11 46 33 29 39 -19 6 -14 30
9 37 11 4 18 13 16 20 -3 7 -1 17 4 22 12 12 1 63 -12 63 -5 0 -9 6 -9 13 0 7
-6 21 -13 31 -12 16 -15 15 -38 -21z"/>
<path d="M1833 3053 c-20 -7 -16 -30 14 -87 15 -28 28 -53 30 -55 1 -2 26 17
56 43 71 60 82 59 23 -4 -74 -79 -63 -89 76 -64 90 16 101 21 110 44 8 20 4
36 -16 78 l-26 52 -85 0 c-79 0 -85 -1 -85 -21 0 -12 -4 -17 -11 -14 -6 4 -8
13 -5 21 4 11 -4 14 -32 13 -20 0 -43 -3 -49 -6z"/>
</g>
</svg>
