<?xml version="1.0" standalone="no"?>
<!DOCTYPE svg PUBLIC "-//W3C//DTD SVG 20010904//EN"
 "http://www.w3.org/TR/2001/REC-SVG-20010904/DTD/svg10.dtd">
<svg version="1.0" xmlns="http://www.w3.org/2000/svg"
 width="544.000000pt" height="544.000000pt" viewBox="0 0 544.000000 544.000000"
 preserveAspectRatio="xMidYMid meet">
<metadata>
Created by potrace 1.16, written by Peter Selinger 2001-2019
</metadata>
<g transform="translate(0.000000,544.000000) scale(0.100000,-0.100000)"
fill="#000000" stroke="none">
<path d="M0 5250 c0 -139 3 -190 12 -190 13 0 154 -105 165 -123 4 -6 -7 -1
-24 11 -17 12 -59 38 -92 56 l-61 35 0 -237 0 -237 70 -29 c39 -16 69 -31 66
-33 -2 -2 -32 7 -67 21 -34 15 -64 26 -66 26 -2 0 -3 -731 -3 -1625 0 -894 4
-1625 8 -1625 19 0 72 70 100 130 16 36 40 75 53 86 35 32 182 104 212 104 14
0 28 6 30 13 4 8 6 8 6 0 1 -8 7 -8 26 0 14 7 25 15 25 20 0 4 9 7 20 7 11 0
29 9 40 20 14 14 33 20 64 20 25 0 48 5 51 10 3 6 16 10 28 10 12 0 33 9 47
20 14 11 33 20 44 20 38 0 126 121 126 173 0 12 4 27 9 32 16 19 31 104 25
148 -6 43 -4 47 32 81 109 103 101 84 89 198 -1 19 -64 121 -77 126 -4 2 -8
11 -8 21 0 9 -12 46 -26 82 -41 104 -93 260 -109 326 -53 226 -72 560 -41 738
8 50 17 104 20 120 16 99 122 417 155 464 10 14 40 67 66 116 26 50 53 97 61
106 8 8 14 18 14 22 0 28 268 337 292 337 5 0 34 26 66 58 63 63 98 92 110 92
4 0 32 19 62 42 30 22 74 50 98 60 25 12 40 24 36 30 -4 6 -3 8 3 5 9 -6 65
15 116 44 9 5 42 19 72 30 33 12 55 26 55 36 0 8 -27 42 -60 75 -54 54 -77 98
-50 98 6 0 10 -7 10 -15 0 -25 69 -93 106 -105 19 -6 34 -15 34 -20 0 -11 78
0 120 17 31 13 82 25 145 35 20 3 32 30 34 81 l1 27 -404 0 -404 0 5 -22 6
-23 -25 23 -24 22 -563 0 c-489 0 -562 -2 -551 -14 6 -8 17 -13 23 -10 7 2 30
-14 52 -37 l40 -41 -35 21 c-25 15 -36 17 -42 8 -8 -14 -68 38 -68 60 0 10
-37 13 -175 13 l-175 0 0 -190z"/>
<path d="M2350 5396 c0 -25 3 -47 8 -49 4 -2 68 2 142 10 138 14 542 14 534 1
-3 -4 5 -10 18 -12 13 -3 61 -14 108 -25 47 -11 105 -23 129 -27 25 -3 78 -22
118 -40 40 -19 78 -34 84 -34 5 0 31 -11 57 -25 30 -16 50 -21 56 -15 15 15
26 12 26 -7 0 -12 19 -27 52 -43 28 -14 63 -36 77 -49 14 -13 53 -37 86 -53
33 -17 68 -39 78 -49 10 -11 29 -19 44 -19 20 0 24 -4 20 -20 -4 -16 17 -38
99 -107 58 -49 110 -88 116 -88 7 0 15 -13 20 -30 4 -16 35 -64 69 -105 34
-41 83 -104 108 -140 32 -45 51 -64 64 -62 9 2 17 -1 17 -7 0 -6 -4 -11 -10
-11 -16 0 -12 -30 5 -36 8 -4 15 -12 15 -19 0 -16 20 -23 75 -29 66 -6 165
-28 171 -37 7 -13 115 -11 193 3 72 12 131 47 131 78 0 10 5 22 11 26 8 5 7 9
-1 14 -9 6 -4 13 16 24 32 17 94 70 94 80 0 4 -4 5 -9 2 -14 -9 -21 20 -8 33
6 6 22 11 36 11 20 0 33 12 59 54 18 29 46 65 62 81 16 15 27 32 24 37 -3 4 1
8 8 8 7 0 26 11 42 25 16 14 33 25 38 25 4 0 8 151 8 335 l0 335 -570 0 -569
0 -15 -28 c-15 -30 -46 -61 -46 -46 0 5 9 20 20 34 11 14 20 28 20 33 0 4
-297 7 -660 7 -580 0 -660 -2 -660 -15 0 -8 -7 -15 -15 -15 -9 0 -18 7 -21 15
-5 13 -47 15 -290 15 l-284 0 0 -44z"/>
<path d="M2515 5280 c-111 -17 -135 -23 -135 -31 0 -5 -24 -9 -52 -9 -31 0
-90 -13 -143 -30 -49 -17 -97 -30 -106 -30 -9 0 -19 -7 -22 -15 -11 -27 117
-122 234 -173 4 -2 14 4 22 12 22 23 233 47 436 51 130 3 176 7 182 17 7 10 9
9 9 -4 0 -18 12 -23 75 -34 133 -22 309 -75 383 -114 20 -11 40 -20 44 -20 31
0 388 -240 388 -262 0 -4 6 -8 14 -8 8 0 17 -7 20 -16 6 -15 8 -15 31 0 22 14
25 15 25 1 0 -8 -5 -15 -10 -15 -18 0 8 -38 56 -83 25 -23 52 -54 60 -69 7
-14 19 -32 26 -40 7 -7 43 -51 81 -98 37 -47 72 -90 77 -97 6 -7 10 -17 10
-22 0 -6 8 -15 18 -20 9 -6 13 -11 9 -11 -5 0 -2 -7 7 -15 8 -9 33 -15 59 -15
39 0 48 4 71 34 50 66 34 117 -103 319 l-43 64 -45 -24 c-57 -32 -66 -23 -20
21 21 19 37 38 37 42 0 3 -18 24 -40 46 -22 22 -40 44 -40 48 0 8 -145 140
-230 210 -23 19 -47 40 -54 45 -37 34 -251 145 -280 145 -14 0 -27 9 -33 23
-6 12 -27 28 -49 35 -22 7 -70 27 -109 45 -38 17 -86 32 -105 33 -37 2 -39 3
-112 29 -26 9 -67 15 -91 14 -23 -2 -48 1 -55 5 -37 22 -380 33 -497 16z"/>
<path d="M1935 5116 c-33 -13 -78 -35 -100 -50 -22 -15 -62 -38 -90 -51 -27
-12 -78 -43 -113 -69 -34 -25 -65 -46 -68 -46 -3 0 -38 -29 -77 -65 -39 -36
-76 -65 -82 -66 -10 -1 -92 -92 -168 -187 -74 -93 -133 -190 -204 -335 -58
-118 -73 -157 -73 -194 0 -35 -3 -44 -14 -40 -17 7 -32 -35 -65 -178 -46 -201
-56 -548 -21 -735 26 -139 86 -333 130 -420 5 -11 15 -29 20 -40 6 -11 10 -25
10 -31 0 -6 16 -33 35 -59 19 -26 35 -52 35 -57 0 -15 65 -73 82 -73 8 0 27
11 42 25 15 14 38 28 52 31 13 3 28 14 33 23 9 17 -1 55 -18 66 -6 3 -11 15
-11 26 0 11 -18 55 -39 97 -63 123 -78 161 -101 262 -11 52 -27 122 -35 155
-19 82 -36 266 -30 329 3 28 7 74 9 101 19 217 51 360 117 512 21 51 39 95 39
98 0 3 11 18 25 33 14 15 25 32 25 38 0 20 81 146 141 220 70 86 225 234 294
280 28 19 68 48 90 65 22 16 83 51 135 76 52 26 97 49 100 52 4 5 59 31 120
56 8 3 25 12 38 19 27 16 25 18 -81 76 -43 23 -84 51 -90 61 -15 24 -18 23
-92 -5z"/>
<path d="M2663 4963 c-7 -2 -13 -21 -14 -41 l0 -37 -16 38 c-9 21 -22 37 -32
37 -9 0 -64 -10 -123 -21 -88 -18 -111 -26 -133 -49 -25 -26 -26 -31 -16 -63
16 -47 150 -179 201 -199 23 -8 46 -43 55 -81 4 -15 12 -30 17 -33 5 -3 56
-10 113 -14 56 -5 119 -15 139 -24 59 -25 112 -76 173 -165 67 -99 79 -157 47
-235 -11 -25 -22 -46 -26 -46 -3 0 -9 -14 -13 -31 -4 -17 -13 -33 -21 -36 -8
-3 -14 -18 -14 -34 0 -16 -4 -29 -8 -29 -5 0 -15 -11 -22 -25 -17 -32 1 -55
45 -55 25 0 35 6 45 28 8 15 14 32 14 37 1 6 24 21 51 34 28 13 54 30 58 37 4
8 14 14 21 14 7 0 23 11 36 25 13 14 31 25 39 26 9 0 30 9 46 20 40 25 88 47
120 54 6 2 34 10 63 18 29 9 54 16 57 16 3 1 22 8 43 17 20 8 46 17 57 18 12
1 26 5 32 9 6 4 32 10 56 13 36 5 53 2 79 -14 22 -14 58 -22 107 -26 99 -7
118 -2 116 32 -2 30 -37 112 -57 134 -30 32 -78 98 -78 106 0 9 -22 22 -36 22
-2 0 -25 -19 -51 -42 l-47 -43 34 48 c19 27 38 51 42 53 13 8 -5 39 -46 76
-23 21 -50 46 -61 56 -11 11 -31 26 -44 35 -24 16 -26 15 -59 -21 l-34 -37 21
36 c25 43 27 69 6 69 -9 0 -18 7 -21 15 -4 8 -11 15 -18 15 -6 0 -44 20 -83
44 -39 25 -74 42 -77 39 -3 -4 -6 -1 -6 6 0 8 -8 10 -22 6 -17 -5 -19 -4 -9 3
11 8 6 14 -24 26 -43 18 -65 20 -65 6 0 -5 -9 -14 -21 -20 -19 -11 -20 -9 -14
23 6 32 5 35 -25 41 -47 9 -80 7 -80 -4 0 -5 -4 -10 -10 -10 -5 0 -10 11 -10
24 0 19 -6 25 -32 29 -36 6 -57 -12 -59 -47 0 -12 -5 -30 -10 -41 -6 -14 -8
-1 -6 45 l2 65 -50 6 c-27 4 -86 12 -130 18 -82 11 -190 13 -212 4z"/>
<path d="M2246 4864 c-4 -11 -13 -14 -30 -10 -13 3 -44 0 -68 -8 -42 -12 -216
-94 -228 -106 -3 -3 -38 -25 -78 -48 -90 -54 -263 -216 -255 -240 4 -15 3 -15
-6 -2 -10 13 -12 13 -21 0 -9 -14 -58 -72 -109 -129 -12 -14 -34 -46 -47 -71
-14 -25 -36 -65 -49 -89 -23 -40 -24 -46 -10 -61 21 -24 19 -33 -6 -20 -25 14
-20 18 -54 -55 -57 -128 -59 -134 -39 -156 16 -18 16 -19 -9 -19 -21 0 -27 -5
-27 -21 0 -11 -5 -29 -10 -40 -9 -16 -6 -22 25 -40 19 -12 35 -23 35 -25 0 -2
-17 -1 -39 2 l-38 6 -12 -94 c-13 -102 -16 -232 -6 -248 3 -5 16 -10 28 -11
12 0 31 -5 42 -10 15 -7 8 -8 -27 -5 l-48 4 0 -69 c0 -37 5 -80 11 -96 7 -15
13 -48 14 -72 2 -30 9 -49 21 -59 12 -9 15 -16 8 -19 -9 -3 -9 -14 0 -43 6
-21 14 -42 18 -45 4 -4 31 -2 60 4 99 22 103 23 93 13 -5 -6 -37 -15 -70 -21
-84 -16 -89 -23 -59 -96 41 -98 68 -149 86 -163 10 -7 18 -24 18 -37 0 -15 7
-26 20 -30 11 -3 20 -15 20 -26 0 -10 6 -19 14 -19 8 0 16 -5 18 -11 7 -20
103 -22 140 -3 18 9 35 20 38 23 3 4 25 15 50 26 46 20 145 90 170 120 22 27
15 78 -23 157 -19 40 -41 90 -47 112 -26 84 1 175 106 351 48 82 89 154 118
210 12 22 35 60 51 85 40 61 49 75 86 145 17 33 37 67 44 75 15 17 33 49 105
186 29 54 61 111 71 126 11 14 19 30 19 34 0 4 6 15 14 23 8 9 30 48 50 88 36
70 98 143 123 143 7 0 13 11 13 25 0 19 -13 34 -51 62 -37 26 -49 41 -46 55 4
12 -3 24 -20 36 -13 9 -43 34 -66 56 -23 21 -51 42 -62 46 -14 5 -27 27 -38
64 -10 31 -20 56 -21 56 -2 0 -7 -7 -10 -16z"/>
<path d="M5406 4607 c-36 -23 -93 -86 -106 -118 -15 -35 -63 -89 -80 -89 -5 0
-16 -16 -24 -35 -8 -19 -29 -50 -45 -67 -17 -18 -31 -36 -31 -40 0 -4 -15 -23
-33 -42 -39 -39 -63 -44 -252 -52 -71 -3 -132 -9 -135 -13 -3 -4 -16 -11 -30
-14 -14 -4 -35 -19 -46 -34 l-20 -28 20 -127 c19 -116 23 -126 39 -117 10 6
25 9 35 6 13 -3 10 -8 -15 -23 -30 -18 -33 -23 -33 -72 l0 -52 24 15 c16 11
26 13 31 6 9 -15 -3 -31 -23 -31 -12 0 -13 -3 -5 -11 7 -7 8 -21 2 -42 -11
-38 -3 -67 18 -67 8 0 13 -6 10 -12 -2 -7 -10 -12 -16 -11 -6 2 -11 -10 -11
-26 0 -21 6 -32 20 -36 26 -8 26 -31 0 -45 -21 -11 -20 -12 10 -67 16 -31 30
-63 30 -71 0 -12 24 -72 80 -197 9 -22 34 -79 55 -127 21 -49 42 -88 47 -88 4
0 8 -10 8 -21 0 -12 15 -60 34 -108 43 -108 60 -200 53 -301 -4 -66 -2 -80 12
-86 12 -5 9 -9 -14 -15 -19 -5 -35 -19 -43 -39 -8 -16 -26 -38 -40 -48 -40
-27 -163 -80 -198 -85 -38 -6 -64 -19 -85 -44 -20 -24 -45 -143 -65 -321 -14
-129 -14 -145 0 -166 16 -25 12 -38 -9 -29 -17 6 -30 -43 -40 -142 -13 -144
-61 -246 -154 -325 -86 -74 -200 -117 -396 -150 -80 -13 -112 -30 -126 -67 -5
-14 -23 -105 -39 -202 -52 -306 -69 -354 -140 -395 -31 -19 -55 -21 -202 -24
l-168 -4 -1 -36 -1 -37 -15 38 c-14 34 -19 37 -56 37 -36 0 -39 -2 -32 -22 4
-13 9 -57 11 -98 l4 -75 -20 40 c-11 22 -20 51 -20 65 0 37 -37 93 -56 86 -9
-3 -22 -6 -29 -6 -8 0 -15 -10 -18 -22 -3 -22 -4 -22 -15 5 l-12 29 -108 -6
c-59 -3 -124 -5 -145 -6 -21 0 -36 -4 -32 -9 3 -5 0 -22 -7 -36 l-12 -27 -11
39 -11 38 -117 3 c-80 2 -117 -1 -117 -8 0 -6 -8 -9 -17 -6 -10 3 -40 6 -68 8
-50 2 -50 2 -55 -32 -3 -18 -11 -35 -18 -36 -7 -1 -8 0 -2 3 5 2 10 20 10 39
l0 34 -48 0 c-27 0 -52 -3 -56 -7 -4 -4 -24 -6 -45 -4 -37 2 -39 1 -57 -43
l-19 -46 -5 42 -5 43 -52 0 c-29 -1 -53 3 -53 7 0 9 -79 10 -132 2 -28 -5 -39
-13 -48 -35 -7 -16 -16 -29 -21 -29 -14 0 -10 40 4 41 35 4 -59 17 -126 18
-48 1 -92 7 -115 17 -20 9 -45 17 -55 18 -14 1 -25 19 -41 68 -19 58 -21 80
-15 167 4 55 14 120 23 143 19 50 56 236 56 278 0 16 -4 32 -10 35 -6 4 -2 17
9 33 29 42 46 178 46 372 -1 162 -3 181 -27 250 -43 125 -107 218 -246 359
-56 57 -102 107 -102 111 0 12 -41 19 -72 13 -31 -6 -108 -71 -108 -91 0 -6
-4 -12 -10 -12 -5 0 -10 -14 -10 -31 0 -27 -10 -58 -55 -164 -32 -76 -49 -106
-73 -131 -27 -27 -120 -74 -147 -74 -8 0 -24 -9 -36 -21 -11 -11 -28 -19 -37
-18 -9 2 -56 -16 -103 -40 -52 -25 -108 -45 -145 -50 -66 -10 -158 -48 -191
-80 -12 -11 -28 -39 -34 -61 -7 -22 -18 -45 -26 -51 -7 -6 -13 -23 -13 -38 0
-20 -2 -23 -10 -11 -5 8 -10 10 -10 4 0 -7 -26 -45 -57 -85 l-58 -74 -3 -567
-2 -568 580 0 580 0 41 83 c22 45 47 89 55 97 13 13 14 11 9 -20 -3 -19 -16
-51 -29 -70 -12 -19 -30 -47 -40 -63 l-16 -27 87 0 88 0 40 67 c22 37 48 85
58 107 9 21 20 36 23 33 6 -6 -70 -163 -87 -181 -17 -19 -9 -26 30 -26 37 0
39 2 65 59 14 32 26 63 26 69 0 5 7 15 15 22 22 18 19 7 -20 -70 -19 -38 -35
-72 -35 -75 0 -3 28 -5 62 -5 50 0 67 4 87 22 14 13 20 16 14 8 -22 -25 -14
-30 47 -30 54 0 61 2 75 28 l16 27 -4 -27 -4 -28 68 0 c62 0 68 2 72 22 l4 23
2 -22 c1 -23 2 -23 156 -23 128 0 155 2 155 14 0 8 5 18 12 22 8 5 9 0 6 -14
-6 -22 -4 -22 122 -22 l129 0 4 28 4 27 2 -27 1 -28 93 0 92 0 -3 52 c-2 39 0
49 7 38 6 -8 11 -32 11 -52 0 -31 4 -38 19 -38 16 0 21 8 24 48 l3 47 2 -47 2
-47 190 -1 191 0 -7 37 c-4 23 -3 34 3 30 6 -4 13 -20 16 -37 6 -26 11 -30 38
-30 30 0 31 0 24 40 -4 26 -3 40 4 40 6 0 11 -11 11 -24 0 -36 10 -56 29 -56
13 0 16 8 13 43 -2 31 -1 38 7 27 6 -8 11 -27 11 -42 l0 -28 1080 0 1080 0 0
397 c0 363 -1 398 -17 417 -17 20 -17 20 0 7 16 -13 17 40 17 1072 0 1025 -1
1086 -17 1090 -17 4 -17 5 0 6 15 1 17 13 17 105 l0 103 -32 11 -33 11 33 -3
c30 -2 32 -1 32 29 0 28 -4 34 -32 41 l-33 8 32 3 32 4 0 104 0 104 -42 3 -42
4 43 8 42 9 0 543 c0 299 -3 544 -7 543 -5 0 -16 -6 -27 -12z"/>
<path d="M2658 4414 c-4 -3 0 -20 7 -37 7 -18 19 -58 25 -89 7 -32 17 -58 23
-58 14 0 67 60 67 76 0 8 4 14 8 14 5 0 16 16 25 36 26 53 12 64 -78 64 -39 0
-74 -3 -77 -6z"/>
<path d="M2558 4403 c-10 -2 -18 -10 -18 -16 0 -7 -12 -25 -28 -42 -26 -29
-48 -68 -133 -234 -21 -41 -43 -77 -48 -80 -12 -8 -67 -102 -76 -130 -7 -22
-5 -22 95 -20 80 1 100 4 96 15 -3 9 9 15 42 19 63 8 72 14 110 74 31 48 31
51 12 51 -12 0 -18 5 -15 10 3 6 15 10 26 10 15 0 19 7 19 33 0 18 5 38 11 44
15 15 -4 130 -34 207 -23 61 -29 67 -59 59z"/>
<path d="M2873 4344 c-10 -14 -30 -40 -44 -57 -14 -18 -36 -59 -49 -92 -13
-33 -30 -76 -38 -95 -8 -19 -17 -52 -19 -75 -4 -33 0 -45 24 -71 15 -17 45
-37 66 -45 38 -13 39 -13 71 21 53 57 136 206 136 245 0 48 -69 163 -112 186
-13 7 -21 3 -35 -17z"/>
<path d="M3802 4015 c-27 -12 -31 -17 -23 -32 29 -53 73 -163 83 -206 20 -95
9 -142 -72 -288 -40 -74 -80 -147 -88 -164 -8 -16 -29 -50 -47 -75 -18 -25
-54 -85 -80 -135 -27 -49 -52 -92 -56 -95 -3 -3 -15 -23 -26 -45 -40 -79 -84
-161 -112 -205 -15 -25 -54 -90 -86 -145 -32 -55 -75 -128 -97 -162 -21 -34
-38 -66 -38 -71 0 -18 -88 -93 -120 -102 -63 -18 -193 -12 -257 11 -62 24 -87
45 -150 130 -99 134 -113 201 -63 304 17 34 28 69 25 77 -3 8 -25 23 -48 33
-23 10 -48 25 -55 32 -7 7 -30 13 -50 13 -30 0 -41 -6 -57 -31 -47 -72 -171
-130 -315 -148 -30 -4 -72 -15 -94 -24 -21 -9 -42 -14 -47 -11 -5 3 -9 2 -8
-3 3 -19 -2 -33 -11 -33 -6 0 -27 -11 -48 -24 -20 -12 -71 -41 -112 -63 -41
-22 -90 -48 -107 -59 -47 -27 -80 -102 -53 -119 6 -3 10 -14 10 -24 0 -9 14
-33 31 -52 73 -81 94 -108 143 -184 29 -44 62 -100 73 -125 64 -139 73 -160
73 -169 0 -5 5 -22 10 -36 l10 -26 32 23 33 23 -28 -48 c-21 -36 -26 -51 -18
-61 6 -8 9 -21 5 -29 -3 -9 -1 -47 5 -84 18 -111 13 -423 -7 -475 -13 -32 -36
-255 -33 -318 1 -25 8 -50 16 -56 8 -6 12 -14 8 -17 -3 -4 115 -8 263 -8 148
-1 324 -2 391 -3 94 -1 124 2 128 12 3 8 5 52 5 99 0 48 2 84 4 82 2 -2 6 -47
9 -99 4 -52 7 -95 7 -95 34 0 59 3 69 9 6 4 17 4 24 -1 7 -4 123 -7 259 -5
l247 3 11 37 c16 60 12 155 -9 205 -22 52 -53 77 -95 77 -27 0 -28 1 -11 13
17 13 16 15 -16 39 -19 14 -50 31 -69 38 -19 8 -37 16 -40 19 -5 6 -90 33
-205 67 -33 9 -80 23 -104 30 -59 19 -61 18 -61 -13 0 -22 -2 -25 -10 -13 -5
8 -10 24 -10 35 0 14 -15 26 -53 43 -28 12 -56 22 -60 22 -19 0 -159 105 -202
152 -26 27 -48 48 -50 46 -1 -2 -7 -12 -13 -23 -10 -17 -11 -12 -12 31 0 36
-8 68 -28 106 -31 63 -32 65 -44 141 -9 52 -7 63 14 105 13 26 39 58 58 70 31
21 44 23 104 19 65 -4 70 -6 107 -47 21 -23 41 -50 44 -61 3 -10 19 -31 36
-46 16 -15 29 -33 29 -40 0 -17 75 -73 99 -73 12 0 24 -7 27 -15 4 -8 18 -15
33 -15 14 0 46 -9 70 -20 24 -11 50 -20 57 -20 8 0 22 -4 32 -9 9 -5 46 -17
82 -26 36 -9 110 -30 165 -47 185 -57 250 -75 305 -87 30 -7 84 -22 120 -34
53 -17 89 -21 190 -21 82 0 135 5 155 14 17 7 32 14 35 15 72 24 83 52 46 125
-34 68 -32 73 10 25 l36 -40 -7 30 c-4 17 -17 44 -31 62 -34 44 -30 51 8 14
17 -17 36 -31 41 -31 13 0 -1 49 -24 82 -23 32 -19 35 16 12 23 -15 25 -15 26
0 1 9 2 19 3 24 7 31 18 91 21 112 19 157 20 144 -20 189 -42 47 -41 50 10 20
44 -26 52 -21 24 14 l-20 27 20 0 c16 0 21 6 21 28 0 15 9 68 20 117 l19 90
-31 32 c-18 18 -27 33 -21 33 6 0 16 -7 23 -15 19 -23 34 -18 65 23 21 29 53
51 120 82 150 72 165 84 165 129 0 22 -4 41 -8 43 -4 2 -18 35 -30 75 -20 63
-27 73 -55 83 -31 12 -31 13 -8 19 22 6 22 7 7 20 -9 8 -15 20 -12 28 5 13
-21 74 -115 269 -21 44 -39 83 -39 87 0 3 -5 18 -12 34 -13 32 -14 39 -16 71
-2 18 -8 22 -37 22 -19 0 -35 5 -35 10 0 6 13 10 28 10 16 0 31 2 33 5 3 2 1
37 -3 77 -4 40 -12 119 -17 175 -12 117 -21 140 -59 150 l-27 7 25 6 c18 5 24
12 23 28 -4 29 -39 81 -76 111 -27 22 -32 23 -66 11 -20 -7 -43 -15 -51 -18
-9 -3 -5 6 9 21 20 22 22 27 8 27 -9 0 -17 5 -17 10 0 6 -15 10 -32 10 -18 0
-55 7 -82 15 -60 18 -72 18 -114 0z"/>
<path d="M4450 4021 c0 -5 -13 -13 -28 -19 -17 -6 -35 -23 -45 -43 -9 -19 -25
-39 -36 -46 -12 -8 -18 -20 -16 -35 2 -13 8 -52 14 -88 6 -36 15 -143 21 -239
7 -110 16 -187 26 -210 8 -20 24 -63 35 -96 11 -33 36 -93 57 -132 29 -58 42
-73 60 -73 12 0 22 -4 22 -10 0 -5 -7 -10 -16 -10 -13 0 -15 -7 -10 -32 3 -18
13 -46 20 -63 102 -212 129 -282 130 -337 1 -51 -2 -59 -32 -87 -35 -34 -108
-69 -186 -91 -31 -9 -63 -27 -85 -49 -34 -35 -37 -42 -58 -171 -12 -74 -27
-171 -32 -215 -42 -343 -64 -464 -95 -537 -20 -46 -77 -93 -138 -114 -26 -8
-50 -19 -52 -22 -5 -8 -189 -8 -202 0 -5 3 -29 9 -54 12 -57 8 -200 42 -310
73 -47 13 -132 37 -190 53 -98 27 -144 40 -260 76 -25 7 -81 24 -125 38 -170
52 -230 96 -319 234 -47 74 -69 92 -109 92 -43 0 -62 -34 -61 -105 2 -83 53
-189 134 -277 63 -70 124 -107 214 -133 32 -9 81 -27 110 -40 28 -12 70 -25
94 -29 70 -11 231 -65 318 -107 55 -27 97 -56 132 -93 29 -30 52 -57 52 -62 0
-4 10 -28 23 -53 19 -39 22 -62 22 -151 0 -184 -15 -209 -123 -214 -33 -1 -67
-8 -74 -14 -10 -8 -18 -8 -25 -1 -16 16 -106 16 -136 0 -23 -12 -28 -12 -42 3
-15 14 -34 16 -153 10 -76 -4 -144 -10 -153 -15 -8 -4 -22 -3 -30 2 -23 15
-76 11 -83 -7 -3 -8 -10 -12 -16 -9 -6 4 -8 10 -5 15 6 10 -179 18 -240 10
-31 -4 -40 -10 -46 -30 -6 -25 -6 -24 -10 5 l-4 30 -242 -3 c-229 -4 -244 -3
-270 16 -15 11 -32 21 -38 23 -5 2 -9 10 -9 17 1 6 -4 12 -12 12 -17 0 -18 32
-2 48 17 17 28 15 29 -5 1 -49 20 38 24 116 3 47 12 108 20 135 19 64 20 106
0 106 -8 0 -19 9 -25 19 -8 16 -5 21 20 30 17 5 30 11 30 13 0 2 4 30 10 62
16 102 24 332 11 340 -6 4 -11 27 -11 51 0 127 -79 337 -174 464 -66 89 -93
112 -122 105 -23 -6 -24 -4 -19 19 5 17 1 34 -9 49 -9 12 -16 19 -16 14 0 -4
-11 6 -25 22 -28 34 -103 72 -139 72 -58 0 -107 -53 -77 -83 6 -6 11 -17 11
-25 0 -8 14 -34 30 -59 17 -24 30 -48 30 -52 0 -5 11 -17 25 -27 14 -10 25
-22 25 -26 0 -4 27 -44 61 -90 98 -135 116 -168 150 -268 27 -83 32 -113 37
-237 4 -111 8 -143 18 -143 20 0 17 -13 -4 -27 -12 -7 -19 -24 -20 -45 -1 -38
-26 -207 -48 -321 -9 -43 -26 -139 -39 -215 -13 -75 -30 -156 -37 -179 -10
-34 -9 -47 2 -70 7 -15 14 -32 14 -38 1 -5 19 -20 41 -32 42 -24 123 -31 141
-13 8 8 19 8 38 0 31 -12 115 -13 132 -2 7 4 14 18 16 32 l4 25 11 -26 c7 -15
19 -29 28 -33 30 -11 210 -7 223 6 7 7 12 8 12 2 0 -7 55 -11 155 -12 130 -1
155 1 155 13 0 8 4 15 10 15 5 0 9 -6 7 -12 -3 -17 523 -24 553 -8 12 7 21 7
25 0 9 -15 45 -12 45 3 0 11 10 11 54 3 29 -6 134 -11 232 -10 258 1 257 0
294 229 12 77 26 156 30 175 5 19 11 55 14 80 14 107 39 169 76 187 14 6 66
17 115 23 159 21 189 27 220 39 116 45 202 116 239 196 36 78 52 169 37 202
-8 17 -9 28 -2 32 6 4 13 26 17 49 6 36 3 45 -17 63 l-24 20 26 -5 c24 -5 27
-2 36 41 6 26 11 77 11 113 -1 36 4 76 10 90 5 14 18 68 27 121 25 145 25 145
205 228 25 11 60 23 77 27 33 6 44 16 90 73 23 29 27 44 30 115 3 68 -1 94
-25 161 -22 66 -31 81 -50 83 -21 3 -22 5 -7 15 14 11 14 16 -1 62 -10 28 -39
102 -65 165 -26 63 -57 140 -69 170 -12 30 -35 78 -50 105 -58 104 -76 191
-95 458 -11 145 -27 220 -52 249 -8 9 -12 21 -9 26 3 5 -6 15 -19 22 -14 7
-25 17 -25 22 0 4 -4 8 -10 8 -5 0 -10 -4 -10 -9z"/>
<path d="M3570 3932 c-77 -30 -66 -22 -74 -49 -5 -17 -3 -23 8 -23 23 0 31
-22 12 -35 -16 -12 -16 -15 0 -48 10 -20 23 -38 30 -41 8 -3 54 -8 104 -12
112 -9 140 2 140 53 0 18 -4 33 -9 33 -5 0 -14 13 -19 28 -13 39 -70 102 -91
102 -9 0 -21 4 -26 9 -6 4 -38 -3 -75 -17z"/>
<path d="M2196 3802 c-75 -130 -114 -202 -110 -202 3 0 0 -6 -6 -12 -20 -25
-76 -113 -87 -139 -6 -14 -28 -52 -49 -85 -67 -105 -127 -235 -114 -248 6 -6
58 -12 126 -14 110 -4 117 -3 141 20 35 33 46 56 48 105 l2 43 -41 0 c-23 0
-48 5 -56 11 -12 8 -10 10 10 8 40 -2 50 0 48 13 -2 6 8 14 22 18 51 13 28 73
-24 63 -13 -3 -27 0 -30 6 -5 7 2 11 18 11 13 0 36 4 50 10 24 9 25 13 20 54
-5 37 -2 56 20 101 14 31 26 58 26 61 0 3 7 12 16 21 8 9 13 22 10 29 -4 10 1
11 19 4 30 -11 53 8 62 51 3 16 9 29 14 29 5 0 9 7 9 15 0 10 10 15 28 15 45
0 59 14 43 43 -15 28 -47 37 -125 37 l-51 -1 -39 -67z"/>
<path d="M3283 3801 c-7 -11 -10 -31 -7 -45 4 -22 1 -26 -21 -26 -14 0 -24 -3
-23 -7 1 -5 -2 -20 -6 -35 -6 -20 -1 -41 17 -80 31 -65 83 -138 99 -138 6 0 8
3 5 7 -4 3 2 16 13 28 l21 22 -33 8 -33 8 48 10 c26 6 47 14 47 19 0 4 -3 7
-7 7 -27 -4 -63 3 -63 12 0 8 14 9 44 5 43 -7 43 -7 75 42 35 55 37 66 16 113
-28 64 -36 69 -111 69 -57 0 -71 -3 -81 -19z"/>
<path d="M3511 3641 c-15 -20 -40 -58 -56 -86 -15 -27 -39 -70 -53 -94 -23
-40 -24 -45 -9 -56 22 -16 22 -29 0 -21 -9 4 -31 0 -48 -7 -16 -8 -43 -19 -60
-24 -26 -7 -30 -14 -33 -46 -2 -20 -7 -37 -13 -37 -5 0 -9 -5 -9 -10 0 -6 -18
-29 -40 -52 -32 -33 -37 -45 -29 -60 5 -10 8 -22 5 -27 -3 -5 4 -11 15 -14 17
-5 21 -12 17 -36 -3 -18 0 -31 6 -31 6 0 4 -5 -5 -10 -15 -9 -21 -22 -30 -65
-2 -5 -9 -16 -16 -23 -7 -7 -13 -19 -13 -26 0 -7 -9 -21 -20 -31 -12 -10 -18
-25 -16 -32 3 -7 -1 -13 -9 -13 -8 0 -15 7 -15 16 0 32 -119 -142 -178 -261
-8 -16 -29 -50 -47 -75 -17 -25 -42 -67 -55 -93 l-24 -49 23 -17 c17 -13 46
-18 127 -19 l104 -2 38 38 c36 37 62 78 122 197 17 33 39 74 50 90 10 17 51
89 91 160 39 72 78 137 85 145 7 8 24 38 39 65 14 28 48 91 76 140 27 50 52
98 55 108 4 9 10 17 14 17 5 0 21 25 35 55 15 30 31 55 36 55 5 0 9 5 9 11 0
6 9 23 19 38 29 40 91 167 91 185 0 26 -45 37 -152 35 l-99 -2 -28 -36z"/>
<path d="M2795 3606 c-29 -11 -64 -43 -65 -59 0 -5 -9 -16 -20 -25 -10 -10
-22 -29 -25 -43 -6 -23 -3 -27 26 -33 54 -11 167 -7 171 6 3 9 22 8 80 -1 68
-11 80 -10 110 5 l33 17 -32 9 c-31 8 -46 28 -22 28 5 0 7 5 4 10 -3 6 -14 10
-23 10 -10 0 -25 9 -35 20 -14 16 -24 19 -56 14 -35 -6 -39 -4 -45 19 -9 36
-46 44 -101 23z"/>
<path d="M2760 3361 c-36 -4 -77 -12 -92 -19 -34 -14 -90 -122 -86 -166 3 -35
6 -36 198 -57 100 -11 139 -26 126 -47 -3 -5 -17 -7 -32 -4 -26 5 -26 4 -23
-44 4 -65 -8 -112 -32 -125 -11 -5 -17 -14 -14 -19 3 -5 -10 -20 -29 -35 -22
-17 -36 -37 -40 -60 -7 -37 -22 -47 -49 -33 -14 7 -19 3 -27 -17 -19 -51 -15
-56 45 -49 40 5 55 3 55 -6 0 -8 -19 -11 -66 -8 -55 2 -67 0 -76 -16 -12 -22
-3 -87 19 -130 23 -44 83 -116 98 -116 6 0 25 24 40 53 16 28 41 70 57 91 15
21 28 42 28 47 0 4 16 31 35 60 19 30 35 57 35 61 0 3 -10 9 -22 11 -15 3 -14
4 5 2 24 -1 32 6 58 52 17 30 30 55 28 57 -13 10 -74 36 -86 36 -9 0 -13 13
-13 40 0 40 0 40 40 40 37 0 41 3 60 43 11 23 36 53 56 66 l36 25 -24 18 c-15
12 -18 18 -8 17 34 -3 51 2 57 17 3 9 0 20 -8 25 -12 8 -11 12 4 23 22 17 22
35 -3 61 -18 20 -19 23 -5 35 8 7 15 23 15 35 0 28 -30 42 -43 20 -8 -15 -11
-15 -25 -2 -20 18 -193 29 -292 18z"/>
<path d="M1834 3046 c-19 -15 -18 -16 11 -71 17 -31 33 -59 37 -61 4 -3 28 14
53 37 50 47 73 49 25 3 -17 -16 -37 -40 -44 -54 l-14 -25 107 6 c58 4 107 7
108 8 1 0 10 15 18 32 16 30 15 33 -12 85 l-28 54 -121 0 c-89 0 -125 -4 -140
-14z"/>
</g>
</svg>
