<?xml version="1.0" standalone="no"?>
<!DOCTYPE svg PUBLIC "-//W3C//DTD SVG 20010904//EN"
 "http://www.w3.org/TR/2001/REC-SVG-20010904/DTD/svg10.dtd">
<svg version="1.0" xmlns="http://www.w3.org/2000/svg"
 width="544.000000pt" height="544.000000pt" viewBox="0 0 544.000000 544.000000"
 preserveAspectRatio="xMidYMid meet">
<metadata>
Created by potrace 1.16, written by Peter Selinger 2001-2019
</metadata>
<g transform="translate(0.000000,544.000000) scale(0.100000,-0.100000)"
fill="#000000" stroke="none">
<path d="M0 2720 l0 -2720 2720 0 2720 0 0 2720 0 2720 -1727 -2 -1728 -3 2
-37 c3 -34 14 -55 51 -94 13 -14 73 -12 126 3 10 3 41 9 70 13 28 5 94 16 146
25 121 21 520 32 594 17 28 -6 87 -19 131 -28 140 -28 367 -103 475 -157 58
-29 107 -54 110 -57 3 -3 40 -23 84 -45 43 -22 90 -51 105 -65 14 -14 42 -37
61 -50 62 -44 83 -63 190 -170 58 -58 138 -148 178 -200 39 -52 81 -106 93
-120 11 -14 27 -39 34 -56 8 -17 21 -34 29 -37 8 -3 30 -30 50 -60 l36 -54 82
-11 c46 -7 118 -12 161 -12 l77 0 62 58 c34 31 90 83 124 115 33 31 66 57 73
57 6 0 16 11 23 24 12 27 38 43 38 23 0 -13 -44 -82 -67 -105 -7 -8 -26 -30
-41 -50 -15 -19 -41 -50 -58 -67 -17 -18 -44 -49 -60 -71 -16 -21 -33 -44 -39
-49 -16 -17 -84 -34 -160 -41 -76 -7 -119 -24 -135 -53 -13 -25 -13 -89 0
-188 28 -206 42 -301 50 -328 5 -16 14 -70 20 -118 6 -48 17 -102 24 -120 8
-18 24 -57 36 -87 21 -53 62 -149 101 -235 39 -87 83 -195 116 -290 32 -89 36
-112 37 -205 1 -94 -2 -111 -26 -162 -37 -80 -89 -114 -281 -184 -61 -22 -77
-45 -76 -114 2 -71 -16 -209 -42 -335 -65 -322 -71 -343 -112 -435 -69 -152
-207 -235 -463 -276 -141 -23 -150 -31 -168 -146 -8 -48 -17 -91 -20 -96 -2
-4 -14 -64 -25 -131 -36 -210 -57 -262 -124 -299 -30 -16 -105 -17 -1067 -17
-1015 0 -1036 0 -1075 20 -59 30 -85 75 -85 149 0 67 1 75 59 391 53 289 62
356 68 505 11 255 -41 400 -211 595 -42 48 -92 86 -111 85 -39 -1 -55 2 -55
13 0 7 -9 19 -20 27 -11 8 -20 21 -20 28 0 9 -15 3 -42 -17 -52 -38 -61 -33
-16 9 25 24 27 28 8 17 -14 -8 -35 -18 -47 -22 -19 -5 -23 -2 -23 14 0 12 -6
21 -13 21 -19 0 -49 40 -49 64 0 12 4 33 7 49 7 27 7 27 -41 27 l-49 1 24 19
c25 21 23 50 -5 50 -13 0 -15 10 -12 55 2 39 -1 55 -9 55 -16 0 -17 12 -1 28
9 9 8 12 -5 12 -23 0 -21 11 7 35 13 11 27 32 30 48 7 28 6 28 -48 31 -23 1
-34 26 -12 26 9 0 16 5 16 11 0 6 -9 8 -20 4 -26 -8 -27 20 -1 34 21 12 20 25
-20 146 -12 39 -24 75 -25 80 -1 6 -7 31 -13 56 -20 89 -51 373 -51 475 0 110
34 339 69 459 42 148 72 239 92 283 11 26 30 76 41 110 12 35 27 66 35 69 7 3
13 11 13 19 0 7 18 41 40 75 22 34 40 65 40 69 0 4 10 12 23 19 13 7 31 25 40
40 25 43 85 109 182 201 156 149 190 178 263 225 9 6 38 25 64 43 26 17 50 32
53 32 3 0 15 9 27 20 12 11 30 20 39 20 10 0 32 14 49 32 28 28 31 36 26 69
-3 22 0 63 9 96 8 31 15 68 15 80 l0 23 -935 0 -935 0 0 -2720z"/>
<path d="M2530 5287 c-3 -4 -39 -11 -80 -17 -63 -10 -131 -27 -262 -67 -10 -3
-18 -9 -18 -14 0 -5 -6 -9 -14 -9 -29 0 -35 -67 -8 -96 14 -16 74 -44 94 -44
3 0 11 13 18 30 11 27 13 28 28 13 13 -13 17 -13 21 -2 2 7 10 20 18 27 7 7
13 22 13 33 0 11 5 17 10 14 6 -3 10 -20 10 -36 0 -41 19 -77 31 -58 7 11 9 9
9 -6 1 -13 5 -7 13 15 15 43 44 51 68 19 10 -13 19 -18 19 -11 0 7 5 10 10 7
6 -3 10 3 10 14 0 10 5 21 12 23 10 4 14 20 17 65 1 7 8 10 16 7 9 -4 17 -26
21 -55 4 -27 10 -52 15 -55 12 -7 21 36 16 72 -5 33 9 68 24 59 5 -4 9 -22 9
-41 0 -19 5 -34 10 -34 6 0 10 8 10 18 0 9 9 28 20 42 17 21 21 23 30 10 5 -8
10 -40 10 -70 0 -62 6 -77 35 -82 15 -2 24 6 34 30 8 17 18 32 22 32 4 0 10
-15 12 -32 2 -18 4 -7 4 25 0 32 5 63 12 70 8 8 11 1 11 -30 0 -35 3 -40 18
-36 14 3 21 -3 28 -28 9 -33 10 -33 119 -55 61 -12 153 -34 207 -49 90 -26 97
-27 113 -12 24 24 32 21 45 -15 11 -32 12 -32 26 -14 7 11 14 26 14 33 0 7 7
13 15 13 10 0 15 -10 15 -27 l0 -28 20 30 c11 17 20 27 20 23 0 -4 14 -3 31 2
28 8 31 7 26 -10 -3 -11 -1 -18 4 -14 5 3 16 1 26 -4 19 -11 30 -2 52 40 19
38 8 49 -108 107 -166 82 -326 133 -491 157 -107 15 -501 31 -510 21z"/>
<path d="M1813 5054 c-38 -18 -71 -34 -75 -34 -11 0 -143 -92 -146 -101 -2 -5
-8 -9 -13 -9 -22 0 -283 -256 -275 -269 3 -5 -6 -13 -20 -20 l-26 -12 28 -21
c38 -30 64 -33 64 -8 0 25 11 25 41 1 47 -36 83 -50 103 -39 10 5 51 43 92 84
60 59 74 79 74 104 0 29 13 40 25 20 10 -17 25 -11 25 10 0 11 11 30 25 42 14
12 25 27 25 34 0 19 19 27 35 14 10 -8 19 -8 34 -1 14 8 21 8 24 -2 3 -7 6 -5
6 5 1 25 17 30 35 12 9 -8 16 -11 16 -5 0 6 4 10 8 9 4 -2 25 11 46 29 36 29
38 34 33 72 -3 22 -13 57 -23 77 -16 32 -24 37 -56 39 -26 1 -60 -9 -105 -31z"/>
<path d="M2897 4916 c-17 -18 -29 -112 -21 -164 4 -29 2 -41 -11 -52 -15 -13
-16 -7 -14 87 5 148 -22 159 -36 15 -9 -99 -23 -136 -25 -67 l-1 50 -21 -64
c-11 -35 -24 -58 -27 -52 -4 6 -2 50 5 98 11 86 10 113 -6 113 -13 0 -18 -23
-25 -101 -8 -101 -14 -126 -25 -109 -4 7 -4 24 1 37 13 35 11 53 -7 53 -9 0
-14 -8 -13 -17 4 -41 -2 -64 -13 -60 -9 3 -12 25 -10 78 4 74 -8 129 -28 129
-6 0 -9 -21 -8 -52 2 -34 -1 -53 -9 -55 -9 -3 -13 9 -13 39 -1 36 -2 40 -11
24 -8 -13 -8 -29 1 -57 8 -25 11 -65 7 -112 -4 -62 -2 -80 14 -106 10 -17 26
-34 34 -37 8 -4 12 -10 9 -15 -3 -5 9 -9 25 -9 25 0 31 4 31 21 0 11 5 17 10
14 6 -3 10 -14 10 -24 0 -20 50 -41 98 -41 29 0 83 -25 128 -60 31 -24 119
-162 137 -214 14 -40 15 -56 5 -95 -6 -25 -20 -54 -30 -65 -10 -11 -18 -26
-18 -33 0 -7 -11 -31 -25 -53 -14 -22 -25 -45 -25 -52 0 -7 -7 -22 -15 -32
-15 -20 -20 -58 -9 -69 7 -6 45 12 56 28 4 6 11 10 15 10 27 2 54 19 49 31 -4
9 10 21 42 35 26 12 62 36 80 54 23 23 47 35 76 39 25 4 61 20 82 36 22 16 47
30 57 30 9 0 17 3 17 8 0 4 23 8 52 9 63 2 108 20 108 42 0 18 18 41 32 41 4
0 8 -7 8 -16 0 -8 5 -12 10 -9 6 3 10 -1 10 -10 0 -14 4 -13 29 4 16 12 39 21
50 21 12 0 21 6 21 13 0 7 9 18 20 25 24 14 26 45 5 62 -8 7 -12 17 -9 22 9
15 -18 29 -33 17 -21 -18 -86 -49 -92 -44 -2 3 5 14 17 26 13 11 20 24 17 30
-4 5 9 9 27 9 18 0 38 4 45 8 14 9 74 124 68 130 -2 3 -20 -7 -39 -22 -19 -14
-41 -26 -49 -26 -18 0 -28 35 -15 48 6 6 7 16 1 26 -7 13 -11 11 -27 -12 -19
-29 -116 -106 -123 -98 -3 2 1 15 8 28 7 12 12 26 11 30 -2 9 36 21 47 14 5
-3 12 1 15 10 10 25 7 30 -17 32 -18 1 -38 -14 -78 -58 -30 -33 -57 -60 -61
-60 -15 0 -8 17 19 46 27 28 68 104 57 104 -3 0 -25 -16 -48 -35 -51 -42 -58
-43 -50 -10 6 25 -8 35 -21 15 -3 -5 -10 -10 -16 -10 -15 0 -10 38 11 77 25
47 27 71 5 53 -8 -7 -15 -22 -15 -34 0 -11 -5 -28 -10 -36 -8 -13 -11 -12 -25
5 -15 20 -15 20 -40 -8 -14 -15 -25 -37 -25 -47 0 -18 -17 -36 -26 -28 -9 10
29 84 56 108 25 23 27 28 13 45 -14 19 -15 19 -45 -14 l-30 -34 6 84 c4 46 8
102 9 124 1 22 6 46 10 53 5 8 3 12 -7 12 -8 0 -17 -6 -19 -12 -4 -10 -6 -10
-6 0 -1 7 -5 11 -10 8 -5 -3 -8 2 -7 11 1 13 -9 19 -41 23 -36 5 -43 3 -54
-17 -14 -27 -29 -21 -29 12 0 27 -9 35 -50 41 -27 5 -29 2 -39 -46 -6 -28 -11
-58 -11 -65 0 -8 -4 -15 -10 -15 -5 0 -7 26 -3 66 5 51 3 68 -8 75 -23 14
-126 11 -142 -5z"/>
<path d="M3864 4844 c-4 -17 -2 -29 7 -35 11 -7 9 -9 -8 -9 -16 0 -20 -5 -16
-20 3 -11 12 -20 19 -20 21 0 17 -14 -12 -41 l-27 -24 7 30 c7 33 -7 16 -18
-22 -6 -19 -4 -22 10 -16 12 4 15 3 10 -5 -5 -8 0 -12 13 -12 12 0 21 -7 21
-15 0 -14 3 -14 30 0 16 8 32 15 36 15 7 0 1 -46 -10 -72 -6 -12 -2 -17 16
-20 13 -2 23 -8 23 -15 0 -22 12 -23 69 -9 63 17 86 13 86 -15 0 -17 29 -41
47 -38 20 3 24 -2 12 -18 -12 -14 -12 -16 2 -11 9 3 22 2 30 -2 11 -7 8 -15
-16 -40 -18 -19 -31 -26 -36 -19 -5 8 -8 8 -13 0 -4 -6 -3 -11 2 -11 6 0 8
-17 5 -40 -4 -27 -2 -40 6 -40 7 0 9 5 5 12 -4 7 -3 8 4 4 7 -4 12 -13 12 -21
0 -7 12 -15 28 -17 24 -3 27 -6 24 -39 -2 -30 1 -38 19 -42 16 -4 19 -11 14
-26 -4 -12 -2 -21 4 -21 6 0 11 -8 11 -19 0 -29 22 -41 63 -34 46 7 52 26 43
124 -8 85 -46 169 -118 260 -29 37 -64 82 -78 100 -82 108 -241 259 -274 259
-6 0 -18 -6 -25 -12 -11 -11 -13 -10 -8 5 4 9 2 17 -3 17 -5 0 -13 -12 -16
-26z"/>
<path d="M2070 4795 c-19 -7 -35 -17 -35 -21 0 -15 89 -188 107 -208 27 -30
32 -12 10 36 -11 24 -23 55 -26 71 -11 46 11 30 34 -27 17 -44 25 -53 41 -49
13 4 19 0 19 -12 0 -9 7 -23 15 -31 18 -18 20 -47 3 -42 -7 3 -16 19 -20 36
-13 50 -31 40 -24 -13 7 -46 -7 -64 -19 -24 -5 16 -13 20 -32 16 -22 -4 -28 1
-50 52 -39 89 -41 94 -48 125 -3 16 -14 40 -24 53 -15 19 -21 20 -30 9 -11
-13 -10 -34 2 -66 3 -8 13 -37 23 -65 10 -27 24 -59 31 -70 15 -23 17 -55 3
-55 -6 0 -18 16 -27 35 -9 19 -20 35 -24 35 -4 0 -9 9 -12 20 -6 25 -25 27
-22 3 1 -10 9 -35 18 -55 21 -46 21 -59 2 -52 -21 8 -19 -2 5 -26 12 -12 17
-26 13 -36 -5 -14 -10 -12 -32 13 -14 16 -35 36 -45 44 -18 13 -19 12 -14 -14
5 -23 3 -27 -13 -22 -30 10 -33 -18 -8 -67 27 -54 28 -55 38 -39 11 16 31 6
31 -16 0 -12 -6 -14 -27 -8 -16 4 -34 12 -41 18 -23 18 -52 83 -42 93 5 5 -13
28 -45 57 l-54 47 10 -32 c15 -55 13 -58 -41 -35 -46 19 -50 20 -68 4 -10 -9
-26 -17 -35 -17 -31 0 -26 -17 18 -60 61 -60 59 -83 -2 -34 -27 21 -43 32 -36
23 8 -10 10 -26 5 -44 l-8 -29 -22 22 c-31 31 -43 28 -31 -7 14 -39 35 -56 72
-56 25 0 32 -6 38 -28 4 -15 4 -27 1 -27 -10 0 -75 24 -88 32 -6 4 -11 0 -11
-8 0 -9 11 -20 24 -25 27 -10 31 -31 6 -28 -37 3 -73 -1 -73 -9 0 -5 11 -14
25 -20 14 -6 25 -18 25 -27 0 -20 -12 -19 -43 5 -30 24 -56 28 -38 6 8 -9 8
-15 1 -18 -5 -1 8 -23 30 -48 53 -61 50 -71 -6 -21 -57 50 -81 54 -34 6 37
-39 36 -51 -4 -35 -24 9 -26 8 -16 -9 5 -11 15 -21 22 -24 7 -2 10 -8 5 -12
-4 -5 -30 2 -57 15 -27 13 -51 22 -52 19 -28 -46 -37 -79 -20 -79 5 0 17 -7
28 -15 18 -14 16 -15 -27 -9 -59 8 -69 -7 -27 -40 l33 -26 -32 9 c-57 16 -46
-17 15 -49 43 -22 13 -23 -37 -1 -52 22 -86 27 -76 12 3 -5 1 -12 -5 -16 -19
-12 -3 -48 31 -67 l34 -19 -46 6 c-42 5 -47 4 -52 -16 -7 -26 1 -49 18 -49 7
0 32 -9 56 -20 24 -11 66 -20 92 -20 27 0 46 -4 43 -9 -9 -14 -74 -11 -137 5
-73 18 -69 19 -69 -21 0 -28 4 -35 19 -35 26 0 51 -10 51 -21 0 -5 -16 -9 -35
-9 -22 0 -35 -5 -35 -13 0 -23 23 -37 63 -37 26 0 37 -4 35 -12 -6 -16 -48
-23 -48 -8 0 14 -62 9 -67 -5 -2 -6 11 -17 29 -25 l33 -14 -37 -3 c-21 -3 -38
-8 -38 -12 0 -11 72 -31 113 -31 20 0 39 -4 42 -10 4 -6 -20 -10 -64 -10 -70
0 -71 0 -54 -20 10 -12 30 -20 48 -20 32 -1 92 -28 65 -30 -8 -1 -32 -4 -53
-6 -25 -3 -36 -1 -32 6 4 6 -4 10 -19 10 -28 0 -31 -11 -20 -68 6 -29 8 -30
53 -26 25 2 60 7 76 12 20 6 38 4 54 -4 24 -12 24 -13 -15 -19 -21 -3 -49 -10
-62 -16 -13 -5 -38 -9 -57 -9 -29 0 -32 -3 -28 -21 3 -11 12 -23 19 -26 20 -7
17 -20 -6 -26 -22 -6 -28 -36 -7 -39 6 0 17 -2 22 -3 6 -2 14 -3 19 -4 6 0 2
-7 -8 -14 -24 -17 -6 -69 21 -61 10 3 6 -1 -8 -10 -21 -12 -24 -20 -21 -50 3
-22 10 -36 18 -36 8 0 14 -6 14 -13 0 -25 45 -57 79 -57 30 0 33 -2 29 -25 -4
-20 -2 -25 11 -21 48 13 81 17 81 8 0 -15 -24 -31 -51 -35 -28 -5 -28 -2 -9
-91 19 -91 38 -105 106 -76 45 20 47 20 31 2 -9 -10 -17 -24 -17 -30 0 -7 -4
-12 -10 -12 -5 0 -7 -6 -4 -14 4 -11 0 -13 -18 -9 -19 4 -17 1 10 -17 17 -12
32 -30 32 -40 0 -32 36 -65 71 -65 39 0 64 -31 38 -48 -16 -10 -16 -13 0 -44
9 -18 22 -33 29 -33 6 0 12 -4 12 -10 0 -5 10 -10 23 -10 32 0 47 -13 49 -43
3 -31 23 -36 31 -7 3 11 11 20 17 20 9 0 9 -4 3 -12 -20 -26 -23 -82 -6 -113
73 -132 142 -279 137 -288 -4 -7 4 -2 18 11 27 24 58 29 58 9 0 -7 -9 -21 -21
-30 -22 -19 -22 -54 0 -49 10 2 12 -5 8 -27 -4 -17 -2 -33 3 -36 10 -6 60 62
60 81 0 7 11 11 24 10 26 -3 36 14 36 66 0 42 10 58 36 58 29 0 30 -6 4 -48
-12 -20 -20 -49 -19 -75 1 -35 2 -38 8 -17 4 14 12 24 18 23 6 -1 18 24 29 55
20 64 40 92 62 92 9 0 12 3 9 7 -4 3 7 19 24 34 25 22 32 39 38 80 3 29 12 54
19 57 9 3 10 -3 2 -23 -6 -15 -8 -43 -4 -61 6 -31 9 -34 38 -30 17 2 38 7 47
10 10 5 19 1 22 -8 4 -9 13 -16 21 -16 24 0 86 -32 80 -42 -3 -4 0 -8 5 -8 6
0 11 9 11 21 0 12 5 19 13 16 6 -2 12 -19 12 -38 0 -41 29 -79 56 -72 15 4 19
0 20 -23 1 -16 1 -33 0 -38 -1 -5 10 -6 24 -4 23 5 30 -2 26 -24 -2 -13 17 -9
21 4 3 8 11 7 27 -4 20 -14 25 -14 54 0 31 15 31 15 57 -18 53 -71 74 -87 123
-94 31 -5 52 -14 60 -27 6 -10 20 -19 29 -19 10 0 18 -4 18 -9 0 -5 10 -12 23
-16 74 -20 104 -28 117 -33 8 -3 23 -7 33 -9 17 -3 84 -23 197 -58 133 -41
148 -44 155 -27 3 8 -6 39 -20 69 -21 42 -31 53 -51 53 -30 0 -66 34 -58 55 4
8 11 15 16 15 5 0 7 13 3 29 -3 17 -2 32 4 36 7 4 11 -4 11 -19 0 -30 65 -126
86 -126 20 0 17 23 -6 50 -11 13 -20 29 -20 37 0 23 19 14 35 -17 19 -37 66
-63 73 -41 2 7 12 21 21 30 11 11 15 32 14 70 l-2 54 28 -27 c16 -15 39 -28
52 -28 13 -1 32 -8 42 -16 16 -14 16 -13 5 19 -13 40 -61 98 -95 117 -23 13
-32 42 -12 42 6 0 8 9 4 20 -9 28 5 25 32 -7 13 -16 23 -23 22 -18 -1 6 -1 13
0 17 2 12 73 -40 108 -80 19 -22 43 -38 58 -39 l25 -2 -17 30 c-10 17 -33 39
-50 51 -33 20 -43 38 -21 38 6 0 28 -19 50 -42 27 -29 42 -38 49 -31 7 7 1 18
-20 36 -30 25 -42 57 -21 57 28 0 -19 111 -56 133 -30 17 -45 40 -35 50 12 12
47 -15 56 -43 3 -9 17 -22 31 -28 33 -16 39 -15 24 3 -17 20 -4 38 20 25 30
-16 42 -13 31 9 -10 17 -7 19 27 17 20 -1 42 -5 47 -8 16 -10 42 9 30 20 -16
15 -74 32 -89 26 -8 -3 -17 -1 -21 5 -3 6 1 11 11 11 16 0 16 1 -1 20 -10 11
-40 34 -66 51 -27 17 -49 33 -49 35 0 8 57 -19 85 -40 77 -59 191 -96 136 -45
-12 11 -21 23 -21 28 0 5 -20 19 -45 32 -25 13 -45 27 -45 31 0 9 54 1 97 -14
29 -10 37 -10 40 0 3 6 11 12 19 12 23 0 16 33 -13 57 l-28 22 24 1 c14 0 32
7 42 16 23 21 11 49 -36 84 -43 32 -37 37 14 10 36 -18 42 -19 47 -5 4 8 0 23
-7 32 -12 14 -11 15 8 9 39 -12 33 11 -7 29 -22 10 -38 20 -36 22 2 2 33 -1
68 -7 l64 -11 106 50 c71 35 107 58 111 71 8 30 -4 101 -18 107 -7 2 -16 25
-20 49 -5 38 -12 49 -43 67 -34 20 -35 22 -13 27 l24 5 -28 13 c-21 10 -25 15
-16 26 9 11 5 31 -18 87 -16 41 -34 73 -39 72 -5 -1 -9 3 -9 10 -1 22 -8 41
-33 87 -22 38 -34 47 -73 59 -26 8 -47 18 -47 22 0 4 17 11 38 17 l37 9 -30
13 c-16 6 -64 17 -105 24 -42 7 -69 15 -63 19 7 4 40 2 72 -5 33 -6 63 -10 65
-7 3 3 7 21 8 40 l3 34 -52 3 c-43 2 -53 6 -53 21 0 15 7 17 39 14 41 -4 55 5
45 30 -9 25 -33 28 -70 11 -38 -18 -67 -13 -58 10 4 10 23 16 57 18 57 3 71
25 30 43 -26 11 -23 32 8 77 45 63 2 95 -51 38 -16 -17 -38 -30 -52 -30 l-23
1 21 17 c57 46 79 62 86 62 4 0 8 5 8 10 0 6 -24 10 -52 11 -46 0 -50 2 -28
10 14 6 44 9 67 6 45 -5 56 5 46 41 -3 13 -17 23 -37 28 -29 6 -30 7 -8 15 12
5 22 12 22 17 0 10 -49 4 -65 -8 -5 -4 -23 -11 -40 -15 l-30 -8 25 -7 c24 -6
23 -7 -15 -19 -90 -28 -155 -56 -155 -68 0 -15 -16 -17 -25 -3 -3 6 -2 10 3
10 14 0 21 35 10 54 -7 13 -4 16 16 16 14 0 27 -4 30 -9 9 -13 55 11 62 32 3
9 13 17 22 17 30 1 -27 40 -58 40 -20 0 -39 -13 -69 -45 -37 -40 -41 -50 -37
-84 3 -25 -1 -46 -11 -60 -8 -12 -13 -31 -10 -43 7 -26 -21 -86 -45 -94 -21
-6 -23 -15 -5 -33 10 -10 7 -16 -15 -33 -17 -12 -28 -29 -28 -43 0 -17 -7 -25
-22 -27 -13 -2 -22 -9 -20 -16 1 -6 -2 -12 -7 -12 -5 0 -11 -13 -14 -30 -4
-16 -13 -30 -20 -30 -8 0 -27 -24 -42 -52 -16 -29 -40 -71 -55 -93 -15 -22
-30 -50 -34 -62 -4 -13 -13 -29 -20 -35 -6 -7 -26 -40 -43 -73 -55 -107 -68
-128 -86 -149 -10 -11 -20 -31 -23 -43 -4 -13 -10 -23 -15 -23 -5 0 -9 -4 -9
-10 0 -5 -13 -31 -29 -58 -21 -37 -26 -53 -18 -61 8 -8 7 -11 -4 -11 -23 0
-47 -36 -130 -194 -31 -58 -98 -125 -137 -136 -51 -14 -194 -13 -244 3 -26 7
-64 33 -102 70 -34 31 -69 60 -79 63 -13 4 -16 9 -9 16 7 7 -2 34 -29 85 -23
44 -39 88 -39 108 0 45 31 121 76 190 20 30 34 61 31 69 -3 8 0 16 7 19 6 3
24 27 38 55 19 36 23 53 15 61 -22 22 -247 3 -240 -21 1 -4 -8 -19 -22 -34
-21 -23 -22 -28 -10 -41 8 -8 15 -18 15 -23 0 -15 -21 -23 -32 -12 -7 7 -26
-6 -62 -41 -28 -29 -76 -66 -106 -82 -52 -28 -61 -30 -170 -30 -123 0 -174 14
-211 59 -34 41 -109 201 -109 234 0 27 -4 32 -25 32 -31 0 -32 12 -3 25 14 6
25 23 30 45 8 40 53 136 109 232 21 36 39 74 39 82 0 9 5 16 11 16 5 0 19 20
30 45 11 25 23 45 27 45 4 0 13 9 20 21 10 16 10 24 1 35 -9 11 -8 14 5 14 9
0 16 4 16 9 0 5 14 23 30 41 17 18 30 37 30 42 0 10 98 188 109 198 3 3 18 30
34 60 15 30 34 69 44 85 30 56 33 64 24 87 -9 25 -4 48 10 48 5 0 9 -8 9 -17
0 -16 1 -16 17 0 11 11 17 32 17 57 -1 31 2 40 16 40 36 0 77 69 50 85 -5 3
-10 1 -10 -4 0 -14 -27 -14 -35 -2 -3 6 12 18 32 28 61 28 73 60 39 102 -6 7
-11 19 -11 25 0 6 -7 22 -17 34 -14 20 -21 23 -50 17 -18 -4 -36 -13 -40 -19
-5 -6 -8 -2 -8 12 0 12 5 22 10 22 20 0 10 47 -15 70 l-25 23 0 -31 c0 -34
-18 -52 -31 -31 -5 8 -9 33 -9 56 0 57 -8 77 -26 62 -8 -6 -14 -20 -14 -31 0
-36 -23 -13 -41 41 -15 47 -33 73 -49 70 -3 -1 -21 -7 -40 -14z"/>
<path d="M2871 4337 c-6 -8 -10 -31 -8 -52 1 -24 -3 -40 -11 -43 -9 -3 -11 3
-6 22 3 15 2 26 -4 26 -12 0 -72 -119 -72 -143 0 -9 -4 -19 -10 -22 -5 -3 -10
-13 -10 -21 0 -10 11 -14 38 -13 20 0 30 3 22 6 -43 14 -45 16 -20 23 32 9 53
1 46 -16 -3 -8 1 -14 11 -14 37 0 0 -13 -54 -19 l-58 -6 4 -103 c4 -134 10
-156 43 -160 20 -2 30 4 46 30 41 68 62 109 62 123 0 8 6 15 13 15 22 0 39 47
27 71 -13 23 -5 39 18 39 23 0 72 54 72 79 0 12 -9 29 -20 38 -20 17 -28 39
-11 28 22 -13 18 14 -5 36 -14 13 -34 38 -45 56 -22 35 -49 42 -68 20z"/>
<path d="M2475 4260 c-8 -16 -15 -34 -15 -40 0 -5 -10 -20 -22 -32 l-23 -23
45 -6 c44 -6 32 -11 -30 -14 -18 0 -26 -7 -28 -24 -2 -14 -14 -32 -25 -42 -22
-18 -22 -18 -1 -19 11 0 29 -7 40 -15 18 -14 18 -16 1 -29 -10 -8 -18 -17 -17
-20 1 -4 -1 -12 -3 -19 -3 -9 -8 -9 -18 2 -11 10 -11 15 -1 18 18 7 4 23 -19
23 -13 0 -18 -4 -13 -12 5 -8 2 -9 -10 -5 -11 4 -19 1 -23 -11 -4 -9 -18 -32
-31 -49 -13 -18 -21 -33 -17 -33 4 0 2 -7 -5 -15 -11 -13 -5 -15 49 -15 34 0
61 4 61 10 0 6 8 10 18 10 14 0 15 -2 2 -10 -11 -7 2 -10 43 -10 35 0 57 -4
57 -11 0 -8 -34 -9 -120 -4 -135 8 -133 9 -175 -69 -11 -20 -23 -36 -27 -36
-5 0 -8 -6 -8 -13 0 -7 -13 -34 -30 -60 -16 -26 -26 -47 -21 -47 5 0 12 -7 15
-16 6 -15 4 -15 -10 -3 -15 12 -18 11 -28 -5 -6 -10 -20 -33 -31 -50 -12 -17
-27 -47 -35 -66 -8 -19 -29 -59 -47 -89 -18 -30 -33 -61 -33 -68 0 -7 -4 -13
-9 -13 -5 0 -14 -13 -20 -30 -5 -16 -15 -30 -20 -30 -6 0 -11 -7 -11 -15 0 -8
-3 -15 -8 -15 -7 0 -52 -90 -52 -105 0 -24 41 -34 141 -35 94 0 110 3 140 23
18 12 40 36 48 52 8 17 20 42 28 57 18 37 18 38 -29 39 -24 1 -56 5 -73 9 -23
7 -13 8 40 8 39 0 76 1 82 1 7 1 24 22 38 49 37 72 48 82 96 87 24 3 241 7
482 8 312 2 440 6 449 15 8 8 2 29 -25 84 -20 40 -43 82 -52 92 -19 25 -97 32
-152 13 -33 -11 -60 -13 -120 -6 -43 5 -88 11 -100 15 -27 8 -53 -15 -83 -73
-22 -43 -50 -57 -50 -26 0 14 -3 13 -16 -5 -9 -13 -26 -22 -41 -22 l-26 0 23
25 c13 14 29 25 36 25 23 0 25 19 8 52 -25 48 -39 55 -127 63 -53 4 -80 11
-84 21 -3 7 5 34 17 59 20 41 20 72 0 60 -5 -3 -12 0 -16 6 -5 9 3 10 31 5 35
-7 37 -6 32 13 -3 12 0 24 6 28 6 3 -7 12 -29 19 l-39 12 46 1 c39 1 48 5 57
26 16 35 15 41 -9 63 -18 17 -18 20 -3 26 9 3 14 13 11 21 -4 8 2 16 14 20 13
5 18 12 14 24 -3 10 -1 31 5 46 13 34 6 72 -18 100 -9 11 -16 18 -15 16 6 -10
-21 -31 -38 -31 -24 0 -25 26 -2 39 10 5 14 13 10 17 -17 17 -38 11 -52 -16z"/>
<path d="M1040 4256 c0 -8 -4 -16 -8 -18 -9 -3 -88 -195 -115 -278 -40 -120
-61 -253 -47 -298 5 -15 9 -21 9 -14 1 20 21 3 21 -18 0 -10 5 -22 11 -25 14
-9 121 -23 134 -18 17 6 17 53 0 53 -8 0 -15 7 -15 16 0 8 3 13 8 11 4 -3 17
-1 28 3 16 6 23 20 28 57 9 64 36 194 41 204 5 8 -45 54 -67 62 -10 3 -8 10 6
26 16 17 17 25 8 46 -6 14 -16 25 -21 25 -5 0 -11 9 -14 20 -6 25 15 26 57 5
15 -8 38 -15 49 -15 17 0 13 7 -25 43 -25 23 -50 59 -57 79 -13 40 -31 59 -31
34z"/>
<path d="M4454 3990 c-5 -5 -22 -10 -39 -12 -31 -3 -37 -15 -52 -121 -3 -20
-9 -39 -13 -42 -12 -8 1 -55 16 -55 16 0 18 -11 5 -25 -4 -6 -6 -29 -3 -52 l4
-43 57 0 c35 0 65 -6 77 -15 18 -14 18 -14 -9 -15 -16 0 -54 -7 -85 -16 -80
-22 -86 -24 -79 -30 5 -5 89 9 182 31 l50 12 3 69 c3 78 -27 226 -53 254 -8 9
-15 23 -15 31 0 18 -35 40 -46 29z"/>
<path d="M3603 3883 c-29 -2 -53 -8 -53 -13 0 -5 -6 -10 -12 -13 -7 -2 -6 -3
3 -2 9 1 23 -1 30 -6 11 -7 11 -11 1 -21 -10 -10 -17 -10 -32 0 -18 11 -20 10
-20 -13 0 -21 5 -25 29 -25 17 0 33 5 36 10 3 6 16 10 28 10 22 -1 22 -1 2
-16 -15 -11 -17 -17 -7 -23 10 -6 10 -10 -3 -21 -14 -12 -20 -7 -16 14 1 5 -5
6 -14 2 -9 -3 -21 -6 -26 -6 -17 0 -9 -15 15 -26 33 -15 180 -18 207 -4 20 11
20 12 3 31 -10 11 -27 18 -37 17 -30 -4 -32 20 -3 28 30 7 29 5 15 41 -11 27
-11 27 -19 7 -7 -17 -15 -20 -40 -16 -30 4 -30 5 -10 19 23 16 18 34 -8 31 -9
-1 -41 -3 -69 -5z"/>
<path d="M3279 3764 c-5 -6 -7 -19 -3 -28 4 -10 0 -18 -12 -22 -41 -15 -43
-23 -27 -77 8 -29 29 -75 45 -102 23 -40 36 -51 57 -53 21 -2 31 4 39 23 10
22 9 25 -8 25 -10 0 -22 5 -25 10 -4 6 8 10 29 10 43 0 46 12 9 27 l-28 11 37
1 c34 1 39 5 65 53 27 50 31 79 12 86 -5 2 -9 10 -9 17 0 8 -9 19 -19 25 -25
13 -150 8 -162 -6z"/>
<path d="M3570 3670 c-31 -3 -48 -11 -55 -25 -6 -11 -32 -53 -58 -93 -26 -40
-47 -81 -47 -92 0 -11 -4 -20 -9 -20 -5 0 -11 -9 -14 -19 -3 -14 -1 -18 10
-14 10 4 14 1 11 -7 -8 -25 -60 -30 -298 -31 -129 0 -248 -1 -265 -1 -16 -1
-83 2 -147 6 -81 4 -118 3 -118 -4 0 -6 -4 -9 -9 -5 -5 3 -12 1 -16 -4 -6 -11
-136 -3 -145 8 -5 6 -70 12 -70 6 0 -23 36 -78 57 -86 19 -7 23 -13 15 -21 -8
-8 -8 -17 1 -32 6 -12 12 -23 12 -26 7 -40 19 -52 48 -48 18 3 40 8 50 13 10
4 17 3 17 -4 0 -6 -8 -11 -17 -11 -10 0 -25 -5 -33 -11 -12 -9 -12 -10 3 -5
10 3 25 -1 33 -9 9 -8 33 -15 53 -15 21 0 52 -3 70 -6 27 -6 32 -3 41 20 12
33 30 34 30 1 0 -22 4 -25 39 -25 23 0 46 -7 55 -16 9 -8 16 -16 16 -17 0 -1
-5 -18 -11 -37 -5 -19 -12 -43 -14 -54 -3 -10 -11 -26 -20 -36 -8 -9 -15 -20
-15 -25 0 -4 -11 -23 -25 -41 -14 -18 -25 -37 -25 -42 0 -5 -8 -20 -19 -33
-28 -36 -61 -98 -61 -115 0 -12 11 -13 67 -8 49 5 64 4 59 -4 -4 -7 -35 -12
-77 -12 -62 0 -69 -2 -69 -20 0 -13 7 -20 19 -20 31 0 37 -21 12 -41 -26 -21
-23 -41 18 -104 53 -81 70 -83 113 -10 58 98 77 130 88 145 6 8 29 47 51 85
22 39 54 93 71 120 17 28 45 75 61 105 56 100 97 160 112 160 24 0 18 -17 -42
-113 -31 -51 -77 -130 -101 -177 -25 -47 -62 -111 -84 -142 -21 -31 -38 -59
-38 -63 0 -3 -22 -40 -48 -83 -70 -114 -75 -126 -51 -148 15 -13 42 -18 115
-21 86 -4 99 -2 128 18 28 19 96 108 96 126 0 5 9 19 20 33 11 14 20 33 20 43
0 9 5 17 10 17 6 0 10 5 10 11 0 5 35 69 78 142 42 73 89 153 102 180 14 26
28 47 32 47 5 0 8 8 8 18 0 10 16 42 35 72 19 30 35 58 35 63 0 4 8 20 19 35
57 81 91 141 88 153 -2 8 -2 10 1 6 2 -5 10 4 18 19 8 15 12 29 10 31 -2 2
-26 8 -53 13 -28 4 -37 8 -21 9 15 0 29 5 33 11 4 6 15 6 31 0 14 -6 27 -10
29 -10 3 0 31 50 63 115 9 17 18 32 21 35 17 15 40 84 35 105 -6 24 -40 40
-50 24 -8 -14 -34 -11 -29 4 6 13 -39 17 -115 7z"/>
<path d="M871 3459 l-34 -10 7 -142 c3 -78 10 -160 15 -182 5 -22 17 -78 26
-125 20 -100 69 -205 91 -196 8 3 36 1 63 -6 38 -8 54 -8 77 3 39 19 41 42 7
59 -22 11 -24 14 -10 17 19 5 23 43 7 74 -13 23 -44 24 -84 4 -15 -8 -37 -15
-48 -15 -30 0 -16 24 19 31 38 8 55 18 48 30 -4 5 -2 9 2 9 13 0 33 59 22 65
-5 4 -26 1 -46 -4 -21 -6 -45 -11 -52 -11 -29 0 7 22 56 36 l48 13 -45 1 c-40
1 -42 3 -22 12 12 6 22 19 22 29 0 18 -7 21 -65 32 -16 3 -14 5 10 12 49 13
57 23 38 52 -13 20 -14 29 -5 44 11 18 9 19 -43 19 -44 0 -55 3 -55 16 0 15 9
16 75 10 44 -4 75 -3 75 2 0 20 -47 39 -108 45 -75 8 -82 11 -82 39 0 19 4 20
67 13 36 -4 72 -9 78 -12 13 -4 30 26 20 36 -11 10 -139 10 -174 0z"/>
<path d="M4560 3362 c-12 -10 -28 -40 -35 -67 -11 -46 -16 -51 -51 -61 -37
-11 -38 -12 -14 -18 23 -6 25 -11 22 -51 -3 -34 7 -70 48 -172 29 -70 60 -141
70 -158 10 -16 35 -77 55 -134 41 -116 42 -151 3 -196 -20 -24 -154 -95 -178
-95 -17 0 -83 -44 -72 -48 19 -6 14 -22 -6 -22 -20 0 -48 -62 -36 -81 5 -8 3
-9 -6 -4 -10 6 -11 2 -6 -18 4 -16 1 -27 -7 -31 -19 -8 22 -36 54 -36 38 0 59
-10 59 -27 0 -13 -10 -15 -61 -9 l-61 6 14 -22 c10 -15 34 -26 73 -35 33 -7
70 -20 82 -29 22 -14 24 -13 32 8 5 13 12 39 16 58 4 19 13 45 21 57 18 28 90
65 169 88 33 10 83 33 112 51 46 30 54 39 68 88 20 67 13 169 -18 266 -19 63
-194 480 -283 678 -17 36 -32 40 -64 14z"/>
<path d="M2274 3313 c-10 -15 -28 -44 -41 -64 -27 -41 -29 -55 -7 -63 24 -9 5
-28 -22 -22 -21 6 -27 0 -46 -39 l-22 -45 23 -47 c36 -76 84 -152 99 -158 24
-9 52 15 97 85 61 93 69 154 30 236 -15 33 -31 61 -35 64 -4 3 -15 19 -24 37
-22 45 -33 48 -52 16z"/>
<path d="M1818 3048 c-7 -20 3 -55 21 -75 9 -10 21 -28 26 -41 l10 -24 53 42
c62 49 69 40 12 -15 -47 -46 -49 -60 -13 -91 54 -46 222 -62 269 -25 l25 19
-46 89 c-73 138 -65 133 -221 133 -95 0 -133 -3 -136 -12z"/>
<path d="M1493 2218 c-11 -13 -24 -34 -28 -46 -6 -21 -11 -23 -42 -17 -26 5
-40 2 -54 -11 -18 -16 -17 -19 41 -88 33 -39 70 -84 83 -101 34 -43 97 -153
97 -170 0 -8 4 -16 9 -19 5 -3 12 -18 16 -33 3 -15 10 -30 14 -33 13 -10 41
-187 41 -261 -1 -81 -21 -249 -44 -374 -8 -44 -29 -154 -45 -245 -17 -91 -38
-200 -47 -243 -22 -102 -11 -147 43 -172 35 -17 102 -18 1017 -16 539 0 994 3
1011 7 73 14 82 35 135 344 23 135 48 260 56 278 15 38 39 48 126 57 107 12
235 33 255 44 10 5 39 19 65 31 46 21 61 34 128 110 35 39 57 108 62 195 l4
61 -53 26 c-58 29 -72 20 -41 -24 24 -34 8 -37 -39 -8 -18 11 -33 15 -33 10 0
-6 -9 -19 -20 -30 -11 -11 -17 -20 -14 -20 3 0 -4 -13 -15 -29 -12 -16 -21
-32 -21 -36 0 -13 -46 -47 -100 -72 -53 -25 -62 -26 -223 -25 -100 1 -174 5
-181 12 -7 5 -15 8 -18 5 -2 -2 -44 7 -94 20 -431 120 -515 140 -525 124 -11
-18 -11 -70 0 -88 5 -8 3 -33 -4 -60 l-12 -47 51 -18 c183 -65 304 -153 352
-254 22 -47 28 -75 32 -160 5 -119 -9 -186 -44 -209 -20 -13 -127 -15 -809
-15 -725 -1 -787 1 -804 16 -10 10 -21 28 -24 42 -4 22 23 210 52 365 17 85
14 209 -3 209 -16 0 -21 12 -32 73 -5 28 -10 35 -17 28 -32 -32 -31 19 1 86
14 29 14 34 -1 57 -27 41 -22 81 14 107 l31 21 -7 87 c-9 103 -64 249 -122
321 -3 3 -12 -6 -22 -19 -27 -36 -43 -19 -25 26 14 32 14 38 1 51 -13 13 -18
10 -41 -27 -31 -48 -62 -58 -45 -14 6 15 19 43 31 61 l20 32 -38 43 c-33 37
-56 54 -75 56 -3 1 -15 -9 -26 -21z"/>
<path d="M2430 1870 c0 -5 -10 -19 -22 -32 -25 -25 -28 -88 -4 -88 9 0 15 -19
18 -55 5 -55 29 -104 58 -113 7 -3 10 0 7 5 -3 5 -2 15 3 22 6 10 9 8 15 -8 3
-12 11 -19 16 -15 14 8 41 -17 35 -33 -3 -8 1 -16 9 -19 8 -4 15 -15 15 -25 0
-10 5 -19 10 -19 6 0 10 22 10 48 0 27 3 52 7 55 8 9 43 -22 43 -38 0 -7 7
-15 15 -19 11 -4 15 3 16 27 1 26 2 28 6 7 8 -48 14 -57 24 -32 5 13 5 30 0
40 -5 9 -12 25 -15 35 -7 23 -26 13 -26 -14 0 -33 -17 -12 -34 43 -10 29 -23
58 -30 63 -8 6 -25 27 -39 48 -25 36 -26 37 -37 17 -7 -13 -7 -20 -1 -20 12 0
35 -40 27 -47 -3 -3 -12 -1 -19 5 -20 17 -28 4 -15 -23 12 -26 4 -60 -12 -50
-5 3 -10 14 -10 23 0 9 -5 24 -10 32 -7 12 -12 12 -22 2 -18 -18 -28 -15 -28
12 0 28 29 45 31 18 2 -29 27 61 28 100 1 20 -4 40 -11 44 -17 11 -58 13 -58
4z"/>
<path d="M2450 1355 c-1 -11 -2 -23 -1 -27 0 -4 -9 -10 -21 -14 -11 -3 -31
-18 -44 -33 -27 -31 -32 -28 -36 22 -3 46 -14 48 -27 5 -7 -26 -9 -28 -10 -10
-1 31 -17 20 -42 -30 -16 -31 -23 -38 -30 -27 -5 8 -6 30 -3 49 l6 35 -22 -40
c-12 -22 -24 -42 -26 -44 -5 -6 -24 48 -26 75 -2 23 -28 35 -28 13 0 -6 -8 -9
-17 -7 -44 9 -132 -137 -158 -262 -8 -41 -22 -106 -30 -145 -9 -38 -15 -91
-15 -117 0 -75 18 -83 215 -85 88 -1 177 -4 197 -8 20 -3 39 -1 43 5 3 5 11 7
18 5 7 -3 83 -6 170 -9 110 -2 160 0 165 8 4 6 10 61 13 121 l5 110 2 -105 c1
-58 6 -111 11 -119 7 -11 49 -14 216 -13 255 0 363 9 384 30 21 21 18 149 -6
215 -18 50 -37 67 -80 72 -28 3 -43 16 -25 22 24 9 12 24 -35 45 -26 11 -52
26 -59 32 -6 6 -55 22 -109 35 -88 22 -104 23 -154 12 -31 -7 -73 -15 -93 -18
-28 -4 -38 -10 -38 -24 0 -11 -4 -19 -10 -19 -5 0 -10 11 -10 24 0 71 -30 115
-45 66 -3 -11 -13 -20 -21 -20 -9 0 -14 -11 -14 -32 0 -25 -3 -29 -10 -18 -5
8 -6 41 -3 72 6 56 5 57 -23 70 -16 7 -40 20 -53 30 -21 16 -25 16 -35 3 -10
-14 -13 -14 -26 2 -8 10 -15 24 -16 31 -3 33 -4 35 -18 23 -11 -9 -15 -9 -19
1 -3 8 -6 5 -7 -7z"/>
</g>
</svg>
