<?xml version="1.0" standalone="no"?>
<!DOCTYPE svg PUBLIC "-//W3C//DTD SVG 20010904//EN"
 "http://www.w3.org/TR/2001/REC-SVG-20010904/DTD/svg10.dtd">
<svg version="1.0" xmlns="http://www.w3.org/2000/svg"
 width="544.000000pt" height="544.000000pt" viewBox="0 0 544.000000 544.000000"
 preserveAspectRatio="xMidYMid meet">
<metadata>
Created by potrace 1.16, written by Peter Selinger 2001-2019
</metadata>
<g transform="translate(0.000000,544.000000) scale(0.100000,-0.100000)"
fill="#000000" stroke="none">
<path d="M0 2720 l0 -2720 2720 0 2720 0 0 2720 0 2720 -2720 0 -2720 0 0
-2720z m3010 2630 c108 -16 164 -28 265 -60 50 -15 105 -31 123 -35 86 -18
398 -191 542 -301 49 -37 199 -167 225 -195 6 -6 26 -27 45 -48 19 -20 39 -44
45 -53 5 -10 39 -59 75 -110 70 -99 157 -246 190 -320 16 -37 26 -47 52 -52
32 -6 32 -7 11 -21 l-22 -15 20 -73 c11 -39 28 -97 36 -127 9 -30 19 -86 23
-125 44 -414 38 -382 90 -505 27 -63 62 -149 80 -190 17 -41 38 -88 45 -105
36 -78 89 -208 118 -290 29 -83 32 -100 32 -220 0 -115 -3 -135 -22 -170 -39
-73 -96 -107 -263 -161 -72 -23 -89 -41 -101 -109 -17 -100 -49 -312 -69 -460
-36 -253 -52 -309 -116 -396 -75 -102 -185 -158 -383 -195 -75 -14 -147 -31
-160 -37 -30 -14 -32 -23 -76 -262 -58 -312 -68 -338 -140 -378 l-40 -22 -990
-5 c-544 -3 -991 -2 -993 3 -2 4 -20 7 -40 7 -59 0 -121 36 -143 84 -30 66
-27 99 31 401 60 308 73 403 77 576 5 157 3 184 -16 252 -45 163 -111 263
-361 542 -25 27 -68 85 -95 127 -36 55 -56 77 -71 78 -17 0 -20 5 -17 23 3 14
-15 62 -47 125 -72 147 -99 219 -156 429 -26 97 -54 305 -54 401 0 35 -5 73
-11 84 -8 14 -8 23 0 31 6 6 11 31 11 57 0 60 17 184 42 300 61 289 196 574
384 811 69 87 262 279 281 279 7 0 13 4 13 9 0 9 133 111 145 111 3 0 21 11
38 23 75 55 252 141 397 192 152 53 260 78 415 94 55 6 116 13 135 15 59 7
320 -2 400 -14z"/>
<path d="M2510 5280 c-218 -22 -424 -82 -630 -183 -294 -144 -547 -361 -715
-614 -41 -61 -75 -115 -75 -119 0 -4 -6 -15 -14 -23 -41 -46 -176 -379 -176
-434 0 -10 14 -23 33 -31 l32 -14 -40 1 -39 2 -17 -76 c-9 -41 -18 -121 -21
-177 l-6 -101 36 20 c20 10 50 19 67 19 41 1 105 16 118 29 6 6 16 49 22 96
l12 85 -31 25 -31 26 33 -16 c19 -9 35 -15 37 -13 2 2 10 27 19 57 12 40 13
58 5 68 -9 10 -8 13 2 13 8 0 25 28 38 63 59 156 147 321 203 382 15 17 28 33
28 37 0 4 19 28 43 54 155 172 296 290 447 372 229 126 413 187 658 218 42 5
56 12 62 28 12 32 40 168 40 194 0 25 -5 25 -140 12z"/>
<path d="M2676 5278 c-2 -7 -12 -41 -22 -76 -9 -34 -18 -81 -18 -105 l-1 -42
161 -1 c89 0 166 -4 171 -7 15 -10 23 16 23 75 0 37 7 64 26 95 14 25 24 47
21 49 -8 8 -185 23 -275 24 -58 0 -84 -4 -86 -12z"/>
<path d="M3035 5215 c-35 -42 -37 -47 -31 -102 2 -32 5 -61 5 -65 1 -5 14 -8
30 -8 24 0 31 6 45 44 18 47 21 67 18 134 -3 55 -20 55 -67 -3z"/>
<path d="M3126 5171 c-3 -42 -8 -92 -11 -112 -7 -39 -9 -37 85 -69 87 -29 91
-30 97 -12 3 9 28 37 54 62 55 52 71 97 45 123 -18 17 -157 65 -223 76 l-41 8
-6 -76z"/>
<path d="M3440 5121 c0 -28 -32 -79 -76 -119 -14 -13 -24 -31 -22 -40 2 -10
41 -37 89 -62 205 -108 315 -183 440 -300 106 -98 101 -97 139 -20 13 25 36
60 51 78 16 18 29 38 29 43 0 32 -176 190 -301 271 -90 59 -246 141 -311 164
l-38 13 0 -28z"/>
<path d="M2676 4963 c-27 -4 -28 -6 -22 -51 l6 -47 -19 40 -20 40 0 -35 c-1
-20 4 -41 10 -47 5 -5 14 -37 19 -71 12 -84 49 -184 67 -178 8 3 13 -2 13 -13
0 -10 7 -24 15 -31 12 -10 16 -7 26 16 15 41 37 62 70 69 16 4 43 20 59 37 27
26 30 36 30 88 0 35 8 79 19 108 l20 49 -25 12 c-26 12 -221 22 -268 14z"/>
<path d="M2470 4949 c-30 -5 -69 -12 -85 -14 -29 -5 -31 -8 -27 -43 l4 -37
-21 33 c-11 17 -23 32 -25 32 -13 0 -64 -26 -82 -43 -14 -11 -24 -15 -28 -8
-4 6 -15 7 -29 2 -106 -41 -157 -65 -157 -72 0 -5 -7 -9 -15 -9 -22 0 -68 -24
-143 -73 -64 -43 -67 -50 -47 -102 7 -18 6 -18 -18 4 -16 14 -31 20 -39 15
-25 -14 -113 -89 -146 -124 -19 -19 -53 -55 -77 -80 -73 -76 -118 -141 -106
-153 19 -19 14 -39 -7 -28 -15 8 -23 3 -45 -32 -15 -22 -27 -49 -27 -59 0 -10
-7 -18 -15 -18 -21 0 -19 -16 6 -41 l21 -21 -28 6 c-23 5 -32 2 -42 -14 -7
-12 -8 -20 -2 -20 6 0 -1 -17 -14 -37 -13 -21 -30 -57 -37 -80 -11 -38 -10
-45 5 -62 17 -19 17 -20 -11 -23 -24 -3 -28 -8 -31 -41 -3 -33 0 -38 25 -48
27 -10 43 -25 43 -43 0 -4 -20 -5 -45 -2 l-45 7 -1 -38 c-1 -42 2 -97 5 -100
1 -2 39 -16 83 -32 44 -16 98 -40 119 -54 61 -41 174 -61 174 -32 0 8 -10 24
-22 36 -23 21 -23 21 -1 10 12 -6 25 -20 28 -31 4 -11 15 -20 26 -20 11 0 44
-22 72 -49 29 -28 74 -59 100 -70 l48 -21 35 38 c18 20 34 41 34 45 0 5 14 28
30 52 17 24 30 53 30 64 0 11 9 22 21 26 11 4 18 12 17 17 -2 6 5 21 17 34 11
12 36 50 55 83 19 34 49 86 67 117 17 30 53 96 80 146 26 51 51 97 56 103 16
22 83 132 97 160 8 17 18 32 21 35 4 3 25 41 48 85 51 96 123 175 161 175 14
0 32 6 38 12 10 10 15 10 22 -2 7 -11 15 -12 37 -4 31 11 40 36 24 68 -22 42
-61 170 -61 200 0 17 -9 51 -20 75 -11 24 -20 58 -20 77 0 33 -1 34 -37 33
-21 -1 -63 -5 -93 -10z"/>
<path d="M3091 4906 c-5 -6 -16 -33 -22 -58 -13 -47 -29 -55 -29 -15 -1 19 -5
17 -35 -17 -21 -23 -35 -50 -35 -65 0 -46 -42 -104 -94 -131 -54 -29 -67 -46
-64 -84 2 -27 28 -37 28 -12 0 8 5 18 11 22 7 4 10 -3 7 -21 -3 -23 2 -29 34
-40 50 -17 89 2 114 57 19 43 99 129 170 185 30 23 44 44 54 77 11 41 11 47
-8 71 -21 26 -21 26 -34 6 -16 -26 -28 -27 -28 -2 0 24 -54 46 -69 27z"/>
<path d="M3315 4830 c-8 -25 -25 -26 -25 -2 0 9 -15 -9 -32 -41 -18 -32 -45
-68 -61 -80 -77 -58 -146 -131 -165 -175 -11 -26 -32 -57 -46 -69 -14 -13 -26
-26 -26 -30 0 -5 17 -33 38 -63 59 -87 97 -170 96 -215 -1 -28 -20 -79 -64
-170 -35 -72 -70 -136 -77 -143 -7 -7 -13 -17 -13 -22 0 -5 -2 -15 -5 -22 -14
-35 119 -52 175 -23 17 9 30 22 30 30 0 8 5 15 10 15 6 0 10 5 10 10 0 6 -16
10 -36 10 -22 0 -33 4 -29 11 4 6 13 8 21 5 24 -9 72 5 96 28 13 12 35 35 50
52 90 99 140 123 253 124 49 0 86 5 93 12 8 8 12 9 12 1 0 -14 36 -5 50 13 7
7 19 34 29 61 13 38 28 55 75 88 33 22 65 49 73 61 12 19 10 19 -41 -6 -31
-14 -65 -35 -77 -46 -22 -19 -22 -19 -11 2 6 12 36 33 66 48 60 30 126 95 126
126 0 20 -24 28 -35 11 -3 -5 -24 -24 -47 -43 l-43 -33 22 30 c11 17 30 39 42
49 12 11 21 25 21 32 0 13 -159 174 -171 174 -4 0 -24 -19 -44 -42 l-37 -43
21 42 c12 23 21 48 21 55 0 7 -21 26 -48 42 -26 16 -57 38 -69 49 -13 11 -23
18 -23 14 0 -3 -26 9 -57 27 -32 17 -77 39 -100 49 -40 16 -42 16 -48 -3z"/>
<path d="M4117 4572 c-69 -45 -103 -89 -92 -120 3 -9 32 -55 65 -102 32 -47
75 -114 93 -150 19 -36 44 -74 56 -84 21 -19 22 -19 51 2 16 12 51 27 77 33
26 7 54 13 61 15 22 6 13 43 -33 134 -47 93 -102 178 -171 266 l-40 51 -67
-45z"/>
<path d="M2548 4383 c-25 -27 -81 -113 -124 -192 -11 -21 -31 -53 -44 -71 -15
-20 -23 -47 -23 -67 1 -19 -4 -33 -10 -33 -15 -1 -67 -75 -67 -95 0 -8 -5 -15
-11 -15 -8 0 -8 -5 1 -15 16 -19 70 -20 70 -1 0 8 13 17 29 21 26 6 30 11 33
47 2 28 9 44 23 52 31 17 45 33 45 50 0 9 8 16 20 16 10 0 24 9 30 20 6 11 17
20 25 20 8 0 15 7 15 15 0 17 18 51 41 77 9 11 26 40 39 66 12 26 26 55 31 64
13 25 11 48 -3 48 -9 0 -8 4 2 10 11 7 -1 10 -41 10 -47 0 -59 -4 -81 -27z"/>
<path d="M3924 4347 c-12 -7 -43 -36 -69 -64 -25 -29 -64 -63 -86 -75 -25 -14
-42 -32 -46 -48 -3 -14 -14 -42 -24 -62 -23 -45 -24 -58 -4 -58 14 0 35 -20
123 -118 l22 -25 38 19 c45 24 89 84 70 95 -8 5 6 17 42 34 30 15 64 32 75 39
11 6 31 17 44 25 16 9 20 15 12 21 -7 4 -42 -8 -79 -27 l-67 -34 59 54 c41 38
57 60 53 71 -4 9 -14 16 -23 16 -10 0 -14 6 -11 14 7 18 -43 98 -74 120 -28
19 -28 19 -55 3z"/>
<path d="M2933 4263 c-7 -2 -13 -13 -13 -23 0 -10 -5 -22 -10 -25 -6 -4 -7
-12 -3 -18 19 -30 13 -48 -18 -54 -29 -5 -31 -8 -26 -39 4 -25 1 -36 -11 -44
-14 -7 -11 -9 16 -10 28 0 32 -3 32 -27 0 -16 -4 -23 -8 -18 -10 14 -52 18
-52 5 0 -6 -3 -9 -7 -7 -5 3 -14 -1 -20 -9 -8 -8 -9 -15 -3 -19 7 -4 6 -13 0
-26 -9 -16 -7 -19 10 -19 11 0 20 -5 20 -12 0 -6 9 -3 20 7 12 10 18 25 16 32
-3 8 5 15 20 19 17 4 31 19 40 40 19 45 18 54 -7 54 -12 0 -19 5 -16 13 2 6
12 12 23 12 10 0 20 -6 20 -12 1 -7 2 -19 3 -25 1 -12 9 0 52 80 17 32 17 35
-1 74 -23 53 -43 65 -77 51z"/>
<path d="M4410 4083 c-19 -13 -40 -34 -47 -47 -6 -12 -23 -28 -37 -36 -29 -15
-32 -41 -12 -125 l11 -50 40 3 c22 2 58 10 80 18 22 7 52 14 67 14 15 0 29 4
32 8 5 9 -17 118 -35 167 -31 84 -41 89 -99 48z"/>
<path d="M4040 3924 c-52 -31 -111 -61 -129 -66 -28 -8 -32 -12 -19 -19 10 -6
27 -5 42 1 14 5 26 6 26 1 0 -9 -45 -31 -64 -31 -9 0 -12 -9 -8 -25 5 -29 8
-30 53 -11 27 11 39 12 68 1 52 -18 231 14 231 41 0 43 -72 164 -97 164 -5 0
-51 -25 -103 -56z"/>
<path d="M2245 3860 c-3 -4 3 -11 12 -13 11 -3 8 -5 -9 -6 -16 0 -28 -7 -28
-14 0 -7 -9 -22 -19 -34 -10 -11 -38 -58 -62 -104 -24 -46 -47 -85 -51 -87 -5
-2 -8 -12 -8 -22 0 -10 -7 -21 -16 -24 -8 -3 -12 -10 -9 -16 3 -5 2 -10 -3
-10 -9 0 -98 -171 -104 -200 -2 -8 -10 -18 -18 -21 -20 -8 75 -23 96 -15 8 3
13 10 10 15 -3 5 10 16 29 25 19 9 35 23 35 30 0 18 -33 26 -55 14 -22 -13
-48 8 -26 21 8 5 20 7 28 4 7 -3 29 -2 49 1 27 6 34 11 30 24 -4 12 6 22 34
35 22 10 40 25 40 32 0 14 103 75 127 75 10 0 12 7 8 19 -3 12 0 21 10 24 12
5 13 12 5 32 -6 15 -10 40 -10 57 0 17 -8 40 -17 50 -16 18 -16 18 0 12 13 -4
17 -1 17 15 0 12 3 21 8 21 7 0 34 51 29 56 -8 8 -127 12 -132 4z"/>
<path d="M4450 3829 c-14 -5 -44 -14 -67 -19 l-43 -11 0 -59 c0 -49 4 -64 26
-90 31 -37 116 -82 138 -74 9 4 18 0 22 -9 3 -8 17 -14 31 -14 l26 0 -6 116
c-10 169 -11 171 -61 170 -22 -1 -52 -5 -66 -10z"/>
<path d="M4189 3776 c-3 -3 -36 -10 -74 -16 -53 -9 -79 -8 -106 1 -32 10 -40
9 -63 -7 -29 -21 -31 -32 -14 -69 16 -35 72 -49 186 -47 83 1 96 4 113 23 20
24 23 39 13 88 -5 23 -12 31 -29 31 -12 0 -24 -2 -26 -4z"/>
<path d="M3854 3572 c-22 -36 -28 -54 -21 -68 15 -33 55 -55 120 -65 56 -9 66
-14 108 -59 25 -28 53 -50 61 -50 8 0 27 -9 42 -21 17 -14 47 -23 86 -26 66
-6 69 -3 46 51 -11 27 -19 33 -40 31 -14 -2 -26 1 -26 6 0 5 6 9 13 9 24 0 47
24 38 39 -7 11 -16 11 -57 -3 -62 -21 -81 -21 -64 -1 7 8 26 15 42 15 16 0 38
5 50 11 17 9 19 17 13 57 -4 32 -15 55 -33 72 -24 23 -37 26 -137 31 -60 4
-132 9 -160 13 l-50 6 -31 -48z"/>
<path d="M4377 3536 c-16 -13 -17 -22 -8 -96 6 -44 13 -85 16 -91 4 -5 8 -19
10 -31 6 -32 32 -83 49 -97 8 -6 43 -16 78 -22 34 -5 80 -16 101 -24 20 -8 47
-15 58 -15 27 0 22 22 -27 134 -19 44 -43 109 -52 145 l-17 66 -45 6 c-25 3
-58 11 -75 18 -46 20 -68 21 -88 7z"/>
<path d="M1172 3516 c-7 -15 -12 -43 -12 -62 l0 -35 48 2 c31 2 73 -6 122 -24
65 -22 87 -25 160 -22 47 3 98 7 114 11 23 5 35 0 65 -29 20 -19 45 -37 56
-40 15 -5 14 -3 -5 11 -14 9 -43 35 -66 58 -40 40 -42 41 -126 46 -69 5 -95
11 -130 32 -75 45 -125 66 -170 72 -40 6 -45 4 -56 -20z"/>
<path d="M978 3520 c-47 -5 -77 -14 -102 -31 -72 -48 -22 -83 103 -73 l81 7 0
48 c0 26 -3 49 -7 51 -5 2 -38 1 -75 -2z"/>
<path d="M3788 3458 c-35 -57 -38 -75 -17 -102 28 -36 51 -40 97 -16 33 17 45
19 62 10 11 -6 45 -10 76 -8 l55 3 -28 33 c-23 27 -37 34 -76 37 -46 5 -120
35 -132 55 -10 16 -22 12 -37 -12z"/>
<path d="M3590 3430 c-30 -3 -55 -9 -54 -15 0 -13 -12 -29 -68 -86 -30 -31
-45 -54 -42 -64 5 -11 -1 -15 -26 -15 -18 0 -58 -12 -88 -26 -45 -21 -52 -28
-39 -36 22 -12 22 -25 0 -31 -13 -3 -12 -5 5 -6 13 -1 20 -5 17 -11 -4 -6 -15
-8 -25 -5 -20 6 -20 9 8 -75 10 -31 10 -39 -4 -51 -18 -15 -18 -29 1 -29 8 0
15 -7 15 -15 0 -18 -30 -20 -30 -2 -1 6 -11 -7 -23 -31 -13 -24 -26 -40 -30
-36 -4 4 -7 4 -7 -1 0 -4 8 -13 17 -20 15 -11 15 -14 -5 -31 -12 -10 -22 -24
-22 -31 0 -7 -6 -13 -12 -13 -7 0 -5 -5 5 -11 25 -15 21 -29 -8 -29 -30 0 -73
-41 -82 -79 -3 -14 -9 -28 -12 -31 -12 -10 -57 -86 -70 -117 -8 -18 -17 -33
-21 -33 -4 0 -13 -22 -20 -50 -7 -27 -16 -47 -21 -44 -14 8 -10 -19 5 -38 31
-42 118 -7 131 52 4 17 12 30 19 30 7 0 27 28 46 62 18 34 39 68 46 76 8 7 14
19 14 25 0 7 15 36 34 64 19 29 37 62 41 73 3 11 12 26 20 33 7 8 26 40 43 73
16 33 53 98 81 144 28 47 51 91 51 98 0 6 5 12 10 12 6 0 10 7 10 15 0 8 4 15
9 15 5 0 17 20 26 44 9 24 30 63 45 86 16 24 27 47 24 52 -3 4 0 8 5 8 6 0 11
7 11 15 0 11 -12 15 -50 15 -27 0 -50 5 -50 10 0 11 13 14 44 10 36 -4 84 11
90 27 10 24 -3 29 -64 23z"/>
<path d="M837 3315 c9 -171 76 -497 106 -516 5 -4 32 -14 61 -24 49 -17 54
-17 87 -1 28 13 42 14 64 6 15 -6 29 -9 30 -8 2 2 -10 43 -26 93 -39 117 -79
318 -86 427 -3 47 -9 91 -12 96 -3 6 -56 12 -118 14 l-111 3 5 -90z"/>
<path d="M1205 3403 c-32 -8 -42 -23 -14 -23 13 0 31 -5 39 -11 11 -8 4 -9
-27 -7 l-43 4 0 -79 c0 -43 5 -88 12 -100 6 -12 10 -39 9 -60 -1 -20 7 -67 19
-103 l22 -66 37 6 c89 15 126 18 111 7 -8 -6 -36 -14 -62 -17 -26 -4 -56 -13
-65 -20 -17 -13 -17 -15 2 -29 14 -11 16 -18 8 -23 -8 -5 -7 -13 5 -30 l17
-22 62 33 c34 18 82 51 107 74 25 22 46 37 48 32 2 -6 22 -3 47 6 24 8 69 18
100 21 78 9 93 19 89 56 -5 49 -25 54 -99 24 -96 -40 -102 -40 -24 -1 38 19
83 35 100 35 28 0 32 4 49 53 29 86 27 99 -19 120 -22 10 -55 33 -73 50 l-32
31 -118 -3 c-104 -2 -125 0 -192 23 -77 26 -81 27 -115 19z"/>
<path d="M3709 3327 c-13 -16 -39 -56 -56 -89 -18 -32 -45 -78 -61 -101 -39
-57 -112 -195 -112 -213 0 -8 -4 -14 -9 -14 -8 0 -93 -139 -164 -270 -17 -30
-34 -57 -37 -60 -4 -3 -10 -15 -14 -27 -4 -12 -23 -45 -42 -72 -19 -28 -34
-53 -34 -56 0 -4 -14 -26 -30 -50 -34 -49 -95 -89 -152 -99 l-38 -7 0 -65 c0
-38 6 -77 15 -93 8 -16 17 -47 21 -69 4 -27 17 -51 40 -73 36 -35 58 -90 73
-185 6 -36 26 -92 50 -140 23 -43 41 -83 41 -89 0 -11 159 -64 215 -71 20 -2
46 -10 58 -18 12 -7 74 -26 137 -42 98 -24 136 -28 255 -28 125 0 145 2 186
22 64 31 76 60 47 115 -41 76 -42 84 -4 48 20 -19 38 -33 40 -30 4 4 -12 37
-43 90 -11 19 -6 17 21 -9 33 -31 36 -32 41 -13 3 13 -4 35 -19 57 -25 37 -28
58 -4 29 7 -8 16 -15 20 -15 14 0 48 179 52 268 1 34 -4 45 -30 67 -44 37 -41
53 3 19 42 -31 50 -29 30 10 -19 36 -19 50 -1 43 16 -6 20 7 36 119 5 39 12
79 16 88 5 12 -4 29 -27 53 -26 27 -28 32 -9 20 32 -22 57 -21 64 1 12 35 185
142 232 142 21 0 17 6 -23 45 l-38 34 28 1 c15 0 27 5 27 10 0 23 32 8 42 -21
10 -30 10 -30 25 -9 13 18 14 29 4 64 -23 80 -64 156 -88 162 -30 8 -30 24 0
24 22 1 22 1 2 16 -11 8 -19 20 -17 26 2 7 -9 39 -24 72 -70 161 -63 151 -117
170 -35 13 -69 37 -117 86 -100 99 -130 120 -175 120 -21 0 -64 5 -95 12 -53
11 -60 10 -94 -12 l-38 -23 -42 30 -43 30 -24 -30z"/>
<path d="M2853 3165 c4 -8 2 -17 -2 -20 -5 -3 -4 -21 2 -40 7 -26 7 -48 -2
-83 -6 -26 -13 -52 -14 -58 -2 -6 -10 -19 -20 -28 -9 -10 -17 -24 -17 -31 0
-8 -9 -19 -20 -25 -21 -11 -60 -79 -60 -105 0 -8 -9 -15 -20 -15 -11 0 -20 -4
-20 -8 0 -5 -9 -19 -20 -32 -26 -30 -25 -41 3 -36 12 3 43 8 70 11 44 6 47 8
47 37 0 22 4 29 14 25 10 -4 20 8 32 41 10 26 26 60 37 75 10 15 20 34 21 41
1 7 9 25 19 39 9 15 17 36 17 47 0 12 5 18 10 15 6 -3 10 4 10 17 0 13 7 36
16 53 8 16 13 40 9 52 -5 20 -8 21 -25 10 -17 -10 -22 -9 -30 3 -5 8 -6 18 -4
22 3 4 -9 8 -26 8 -24 0 -31 -4 -27 -15z"/>
<path d="M4565 3102 c-38 -8 -71 -16 -73 -17 -4 -3 105 -265 128 -305 21 -36
58 -157 60 -194 3 -52 1 -57 -31 -87 -25 -24 -28 -30 -15 -35 34 -13 14 -25
-38 -22 -39 2 -68 -4 -107 -21 -97 -43 -120 -56 -133 -76 -18 -28 -52 -203
-60 -310 -2 -27 -7 -61 -10 -75 -5 -22 -21 -132 -46 -330 -15 -123 -49 -226
-80 -245 -6 -4 -16 -18 -21 -32 -6 -17 -14 -23 -25 -19 -9 3 -41 -1 -72 -10
-46 -14 -83 -16 -192 -11 -114 5 -160 12 -295 47 -200 51 -183 47 -230 63 -63
22 -105 28 -105 15 0 -7 -9 -2 -20 10 -12 12 -28 22 -37 22 -12 0 -5 -12 24
-42 59 -62 65 -78 52 -136 -12 -51 -6 -102 12 -102 5 0 40 -23 77 -51 62 -48
73 -62 123 -161 30 -59 35 -269 8 -321 -9 -15 -2 -32 36 -87 25 -38 57 -94 70
-125 27 -60 39 -65 85 -38 34 20 56 88 80 243 15 102 37 221 56 300 10 43 11
66 4 68 -5 2 -10 11 -10 20 0 11 3 13 10 6 8 -8 22 -6 48 7 21 10 84 22 146
29 181 19 307 71 379 156 35 41 78 139 81 183 1 20 5 43 8 51 8 21 26 128 38
230 6 47 17 132 25 190 8 58 16 119 19 135 2 17 -3 37 -12 48 -14 15 -13 17 5
17 16 0 22 9 27 35 11 55 52 87 162 124 114 39 173 75 203 126 17 29 21 52 21
123 0 97 -13 145 -83 317 -130 316 -124 305 -181 304 -22 -1 -72 -8 -111 -17z"/>
<path d="M2505 2993 c-27 -9 -51 -29 -74 -61 -84 -115 -178 -178 -283 -190
-58 -7 -67 -12 -112 -57 -47 -49 -47 -49 -17 -9 17 23 31 47 31 53 0 6 -20 11
-47 11 -27 0 -68 9 -91 20 -33 15 -49 17 -63 10 -10 -6 -19 -15 -19 -20 0 -5
-11 -20 -25 -33 -14 -13 -33 -39 -43 -58 -17 -35 -17 -34 -147 -71 -81 -23
-145 -70 -145 -108 0 -10 21 -42 48 -71 26 -28 54 -62 62 -74 8 -12 45 -54 81
-93 53 -57 70 -70 87 -65 25 6 30 -15 10 -35 -9 -9 -7 -17 9 -34 29 -32 118
-207 143 -284 12 -35 24 -64 28 -64 3 0 14 7 24 17 28 25 33 8 8 -27 l-22 -30
27 12 c14 6 46 42 71 80 43 64 84 98 118 98 8 0 29 20 46 45 20 29 49 54 81
70 31 16 58 40 75 66 18 29 39 46 73 60 33 14 59 35 83 68 26 35 49 52 84 66
74 27 75 29 51 85 -12 27 -28 52 -36 55 -8 3 -31 -6 -51 -20 -52 -36 -55 -31
-8 14 l42 38 -37 75 c-20 41 -37 87 -37 102 0 15 16 60 37 99 69 137 74 148
67 159 -4 6 0 16 9 23 20 14 49 80 40 89 -11 11 -137 4 -178 -11z"/>
<path d="M1614 2979 c-81 -11 -125 -28 -192 -78 -99 -72 -132 -102 -132 -120
0 -28 84 -163 112 -179 26 -15 29 -15 52 7 13 13 30 37 37 54 7 18 25 47 41
65 15 18 31 50 34 72 4 22 10 43 14 45 15 9 -11 -80 -30 -105 -22 -29 -81
-142 -76 -147 2 -2 36 8 77 22 41 14 82 25 92 25 9 0 17 5 17 10 0 6 6 10 12
10 26 0 115 108 128 156 13 45 12 49 -15 98 -40 74 -41 74 -80 36 -19 -18 -37
-31 -41 -28 -3 4 4 12 16 18 12 6 19 14 17 17 -7 6 -67 -25 -97 -51 -20 -17
-22 -18 -10 -2 8 11 32 32 53 47 21 15 34 29 30 31 -4 3 -31 1 -59 -3z"/>
<path d="M1968 2898 c-57 -64 -20 -97 97 -88 65 5 71 7 84 34 12 26 11 30 -12
54 -21 21 -38 26 -84 29 -54 2 -60 1 -85 -29z"/>
<path d="M1118 2765 c-2 -3 -37 -9 -77 -14 -40 -5 -75 -12 -78 -14 -6 -7 77
-183 109 -231 l25 -36 24 18 c13 11 41 25 61 31 21 7 40 17 44 22 3 5 10 7 15
4 11 -7 39 18 39 35 0 6 -18 46 -40 89 -27 55 -46 81 -62 86 -49 14 -55 15
-60 10z"/>
<path d="M1218 2476 c3 -5 -2 -7 -11 -3 -10 3 -17 3 -17 -2 0 -5 -9 -11 -20
-14 -38 -10 -35 -51 9 -116 23 -34 48 -61 56 -61 8 0 40 25 70 55 51 50 56 58
53 92 -3 35 -5 38 -32 35 -26 -3 -28 -1 -17 12 12 14 7 15 -42 13 -30 -1 -52
-6 -49 -11z"/>
<path d="M1377 2395 c-8 -17 -42 -56 -75 -87 l-59 -57 21 -20 c19 -17 24 -18
46 -6 39 22 48 17 18 -9 -16 -13 -28 -28 -28 -34 0 -6 33 -48 73 -95 113 -131
117 -136 162 -206 77 -119 125 -278 125 -414 0 -31 4 -57 10 -57 5 0 22 20 39
43 28 42 70 82 124 119 35 24 41 63 23 141 -20 87 -82 244 -112 284 -13 17
-24 35 -24 40 0 21 -178 223 -196 223 -8 0 -20 15 -28 33 -8 17 -35 54 -59 82
l-44 49 -16 -29z"/>
<path d="M2737 2243 c-9 -21 -25 -65 -36 -98 -11 -33 -20 -53 -21 -44 0 9 9
42 20 75 23 70 25 95 6 88 -19 -7 -36 -49 -36 -87 0 -58 -26 -135 -65 -191
-32 -47 -37 -59 -28 -78 10 -22 11 -21 27 16 21 51 30 41 11 -13 -10 -30 -12
-48 -4 -64 37 -82 76 -123 151 -162 45 -24 205 -75 234 -75 20 0 17 23 -12 92
-19 46 -27 86 -31 157 -6 94 -7 97 -48 151 -58 74 -70 102 -86 193 -12 73 -14
77 -39 77 -22 0 -30 -8 -43 -37z"/>
<path d="M2900 2245 c0 -13 -10 -45 -22 -70 -22 -45 -22 -46 -3 -78 10 -17 36
-54 57 -81 33 -42 38 -56 38 -100 0 -87 18 -166 55 -241 51 -105 65 -105 67
-2 1 45 1 96 0 112 -4 55 -33 137 -57 161 -37 37 -55 67 -55 92 0 12 -9 40
-20 62 -12 24 -20 59 -20 92 0 55 -6 71 -27 76 -8 1 -13 -8 -13 -23z"/>
<path d="M2598 2247 c-15 -7 -45 -33 -68 -59 -26 -30 -55 -52 -79 -59 -27 -8
-45 -22 -62 -50 -16 -27 -44 -51 -84 -73 -33 -18 -65 -43 -71 -55 -6 -12 -23
-34 -37 -49 -41 -45 -47 -66 -48 -174 -1 -100 2 -114 50 -283 5 -16 9 -25 10
-19 1 6 13 24 27 40 40 44 84 116 84 136 0 33 -27 7 -60 -58 -48 -97 -45 -73
4 31 42 88 43 90 29 134 -42 142 20 251 143 251 29 0 65 -5 80 -10 24 -10 30
-7 55 22 46 53 72 116 75 177 1 31 5 68 9 84 6 22 4 27 -11 27 -11 -1 -31 -6
-46 -13z"/>
<path d="M2111 1874 c-12 -9 -38 -40 -56 -69 -19 -29 -48 -67 -65 -84 -29 -29
-31 -35 -26 -79 15 -117 18 -399 6 -480 -7 -46 -9 -86 -6 -89 3 -4 16 3 29 14
12 11 40 30 62 41 62 32 90 69 105 142 21 98 18 203 -8 294 -27 97 -31 250 -7
296 18 35 4 40 -34 14z"/>
<path d="M2507 1743 c-14 -22 -37 -47 -51 -56 -58 -38 -43 -88 59 -195 50 -54
81 -76 145 -106 44 -21 95 -42 113 -46 18 -4 83 -24 145 -43 62 -20 129 -37
150 -38 32 -3 37 -1 35 16 -1 11 -5 61 -9 111 l-7 91 -61 26 c-33 14 -101 38
-151 53 -148 45 -174 59 -262 146 l-81 81 -25 -40z"/>
<path d="M1817 1546 c-32 -22 -69 -59 -84 -81 -14 -22 -35 -50 -47 -63 -16
-18 -24 -47 -33 -120 -22 -178 -32 -236 -62 -391 -17 -84 -31 -169 -31 -187 0
-19 -4 -34 -10 -34 -5 0 -10 -5 -10 -10 0 -7 6 -7 18 -1 9 6 42 21 72 34 58
27 150 108 173 154 27 53 77 291 77 365 0 38 -3 47 -21 51 -27 7 -19 32 10 31
20 -1 21 3 20 130 0 72 -3 138 -7 147 -6 14 -16 10 -65 -25z"/>
<path d="M2299 1493 c-19 -25 -41 -55 -49 -67 -10 -13 -17 -59 -22 -140 -4
-67 -10 -142 -14 -167 -4 -33 -1 -56 11 -79 9 -17 15 -34 12 -36 -2 -2 -12 13
-21 34 -18 40 -20 61 -12 187 5 77 4 78 -4 21 -6 -32 -16 -68 -24 -80 -16 -24
-86 -96 -137 -141 -55 -49 -114 -163 -105 -201 3 -12 1 -24 -4 -26 -6 -2 -13
-20 -16 -40 l-6 -36 48 -7 c27 -3 66 -8 87 -11 33 -5 37 -3 37 15 0 12 5 21
10 21 6 0 10 -8 8 -17 -2 -14 4 -18 27 -18 26 0 33 7 52 45 24 49 27 46 14
-12 l-9 -38 273 0 c309 0 284 -8 286 88 l2 57 10 -72 10 -73 146 0 c80 0 151
4 156 8 6 4 10 18 10 31 0 13 6 26 13 29 6 2 12 -3 12 -12 0 -10 9 -16 21 -16
16 0 20 -5 16 -20 -3 -13 0 -20 9 -20 9 0 14 11 14 33 l1 32 18 -34 c18 -33
18 -33 25 -10 6 22 7 22 17 7 7 -13 23 -18 59 -18 40 0 51 4 61 21 14 26 6
108 -11 119 -7 4 -9 13 -6 19 9 14 -3 53 -14 46 -4 -2 -18 19 -30 48 -12 28
-37 66 -56 84 -19 18 -34 39 -34 48 0 9 -10 19 -22 24 -21 7 -24 4 -35 -38 -7
-25 -10 -68 -8 -96 4 -43 4 -46 -5 -20 -5 17 -7 64 -4 106 l7 76 -29 10 c-47
18 -203 65 -206 63 -2 -1 -27 8 -56 19 -64 26 -72 26 -73 4 0 -15 -2 -14 -11
3 -11 24 -139 79 -175 76 -16 -1 -23 4 -23 16 0 10 -19 32 -42 49 -24 17 -59
49 -78 72 -35 41 -60 52 -60 28 0 -7 -7 -22 -15 -33 -14 -18 -15 -16 -13 28 1
26 0 50 -3 53 -3 2 -21 -16 -40 -42z"/>
<path d="M1756 755 c-16 -9 -35 -23 -42 -33 -6 -9 -39 -30 -73 -46 l-61 -30
-2 -103 c-1 -57 -2 -113 -2 -125 -1 -20 5 -23 40 -26 l41 -3 5 46 c4 32 19 66
51 115 31 46 52 93 66 144 10 42 16 76 12 76 -3 0 -19 -7 -35 -15z"/>
<path d="M1776 581 c-14 -22 -30 -42 -36 -46 -17 -10 -50 -82 -50 -108 0 -12
5 -28 12 -35 17 -17 1779 -17 1796 0 7 7 12 33 12 58 0 35 -8 57 -36 98 -19
29 -45 56 -57 60 -38 13 -137 8 -147 -8 -7 -12 -11 -12 -26 0 -13 12 -67 16
-250 18 l-234 4 -9 -23 -10 -24 0 23 -1 23 -355 -2 c-203 -1 -355 -5 -357 -10
-2 -6 -25 -5 -57 1 -38 7 -58 7 -67 -1 -10 -8 -22 -8 -45 0 -49 17 -57 14 -83
-28z"/>
</g>
</svg>
