<?xml version="1.0" standalone="no"?>
<!DOCTYPE svg PUBLIC "-//W3C//DTD SVG 20010904//EN"
 "http://www.w3.org/TR/2001/REC-SVG-20010904/DTD/svg10.dtd">
<svg version="1.0" xmlns="http://www.w3.org/2000/svg"
 width="544.000000pt" height="544.000000pt" viewBox="0 0 544.000000 544.000000"
 preserveAspectRatio="xMidYMid meet">
<metadata>
Created by potrace 1.16, written by Peter Selinger 2001-2019
</metadata>
<g transform="translate(0.000000,544.000000) scale(0.100000,-0.100000)"
fill="#000000" stroke="none">
<path d="M0 3024 c0 -2146 2 -2415 15 -2404 8 7 15 8 15 2 0 -5 -7 -15 -15
-22 -13 -11 -15 -57 -15 -306 l0 -294 869 0 870 1 6 22 c15 50 59 155 86 206
16 30 29 60 29 66 0 17 -123 6 -133 -11 -11 -20 -25 -17 -32 6 -3 11 -9 19
-13 18 -4 -1 -34 1 -68 5 -71 9 -124 41 -147 89 -21 44 -33 169 -19 195 12 23
14 31 47 203 12 69 30 161 39 205 24 124 43 272 45 362 2 78 1 84 -24 107 -27
25 -26 46 1 46 10 0 14 12 14 38 0 84 -56 233 -115 305 -14 18 -75 93 -136
167 -60 74 -126 155 -146 179 -21 24 -62 81 -91 125 -30 45 -58 83 -63 84 -5
2 -9 8 -9 13 0 5 -24 59 -54 121 -30 62 -57 124 -61 138 -3 14 -10 34 -15 45
-118 285 -155 761 -84 1079 22 98 81 291 107 351 89 207 218 413 349 559 21
22 38 47 38 54 0 7 11 17 25 22 14 5 25 16 25 24 0 9 14 23 32 32 17 9 47 31
67 49 91 84 233 177 375 245 246 117 295 134 484 174 190 39 313 50 515 43
163 -5 197 -10 327 -42 199 -49 317 -89 435 -148 147 -73 306 -169 353 -215 8
-6 21 -16 30 -21 47 -25 274 -246 316 -307 11 -17 41 -60 66 -94 25 -34 50
-70 55 -78 6 -9 14 -21 18 -26 4 -6 22 -33 39 -61 l30 -50 54 58 c30 32 54 56
54 54 0 -3 -20 -31 -45 -63 -25 -31 -45 -66 -45 -76 0 -10 20 -69 44 -131 25
-62 52 -143 62 -180 11 -45 23 -71 36 -78 16 -8 17 -13 7 -25 -10 -12 -9 -51
5 -187 20 -202 37 -299 64 -359 11 -23 36 -85 56 -136 20 -51 40 -101 45 -110
29 -54 83 -181 162 -377 30 -73 33 -90 33 -195 1 -142 -15 -194 -77 -244 -41
-33 -127 -77 -177 -91 -96 -27 -124 -55 -140 -143 -18 -98 -83 -524 -97 -632
-11 -88 -77 -206 -151 -271 -75 -66 -212 -115 -391 -138 -51 -7 -80 -16 -96
-31 -22 -21 -26 -33 -45 -150 -5 -30 -12 -67 -15 -83 -6 -30 4 -55 47 -108 15
-19 33 -50 38 -68 12 -41 10 -40 -40 37 -22 34 -44 62 -49 62 -5 0 -12 -15
-16 -33 -19 -102 -49 -208 -66 -236 -25 -42 -72 -69 -133 -76 -28 -4 -423 -7
-877 -8 l-827 -2 -21 -25 c-31 -36 -79 -132 -106 -211 l-23 -69 1448 0 c1370
0 1449 1 1453 18 4 16 5 16 6 0 1 -17 27 -18 391 -18 l390 0 0 2720 0 2720
-991 0 c-608 0 -988 -4 -984 -9 3 -5 1 -12 -5 -16 -5 -3 -10 1 -10 9 0 14
-169 16 -1725 16 l-1725 0 0 -2416z"/>
<path d="M2520 5280 c-95 -10 -154 -19 -205 -31 -22 -6 -60 -15 -85 -21 -25
-5 -49 -14 -54 -19 -6 -5 -21 -9 -34 -9 -28 0 -178 -61 -249 -102 -29 -16 -53
-27 -53 -24 0 4 -18 -5 -40 -19 -22 -14 -42 -25 -45 -25 -17 0 -183 -120 -260
-188 -86 -76 -109 -98 -161 -153 -64 -68 -68 -77 -54 -94 16 -19 4 -53 -12
-37 -22 22 -39 14 -36 -15 3 -24 0 -28 -20 -25 -17 1 -25 -4 -29 -18 -3 -11
-9 -20 -14 -20 -5 0 -9 -7 -9 -15 0 -8 -4 -15 -8 -15 -5 0 -15 -12 -22 -27 -8
-16 -22 -37 -32 -48 -18 -21 -114 -208 -134 -260 -33 -89 -44 -139 -32 -146 9
-6 7 -10 -7 -16 -11 -4 -22 -15 -24 -23 -41 -169 -52 -258 -58 -445 -6 -207 3
-331 34 -455 35 -145 65 -245 79 -264 8 -11 14 -29 14 -39 0 -10 6 -31 14 -45
8 -15 30 -61 51 -102 50 -100 69 -120 117 -120 21 0 55 7 75 15 41 17 55 19
33 5 -8 -6 -39 -17 -68 -26 -49 -15 -52 -17 -46 -42 4 -15 11 -36 17 -46 13
-27 142 -192 188 -241 52 -57 190 -241 221 -297 97 -174 112 -397 53 -768 -8
-52 -15 -119 -15 -149 0 -33 -6 -61 -14 -70 -8 -9 -19 -41 -25 -71 -6 -30 -20
-98 -31 -150 -28 -135 -27 -174 8 -198 15 -10 40 -22 56 -26 28 -7 276 -9 282
-3 2 2 8 34 13 72 15 101 6 130 -49 157 -42 21 -45 26 -48 66 -2 24 4 80 12
125 9 45 20 114 25 152 6 39 17 115 26 170 13 77 15 148 12 310 -4 193 -6 216
-30 280 -18 51 -27 65 -32 53 -4 -10 -16 -18 -27 -18 -14 0 -19 6 -16 23 2 14
9 21 21 21 29 -3 20 43 -27 141 -46 94 -103 174 -186 259 -58 60 -85 91 -125
141 -16 21 -49 61 -73 88 -23 28 -42 54 -42 59 0 4 -8 8 -17 8 -13 0 -18 9
-19 31 -1 17 -5 34 -10 38 -11 7 -108 205 -119 241 -4 14 -12 30 -17 37 -11
14 -45 150 -65 263 -19 110 -29 445 -14 519 38 194 54 268 73 323 11 35 20 74
20 87 0 13 19 50 43 81 23 32 48 73 55 91 8 19 22 43 32 53 10 11 18 24 18 29
0 44 253 325 358 396 20 14 46 34 57 44 11 10 37 28 58 38 24 13 37 25 33 34
-2 7 2 19 10 26 13 10 17 10 25 -2 7 -12 12 -12 36 3 16 10 44 25 63 35 19 10
37 21 40 24 3 3 23 12 45 19 22 7 45 16 50 20 23 16 126 51 205 69 47 11 119
28 160 38 60 14 114 18 275 17 177 -1 214 -4 325 -27 128 -28 394 -124 439
-159 13 -10 28 -18 33 -18 5 0 21 -8 36 -19 15 -10 63 -42 107 -71 44 -29 97
-68 118 -87 21 -18 42 -31 47 -28 6 4 13 -2 17 -12 3 -10 42 -54 86 -98 44
-44 86 -90 94 -102 9 -13 21 -23 28 -23 6 0 17 -17 23 -38 6 -21 21 -48 32
-60 11 -12 36 -49 56 -82 19 -33 40 -60 46 -60 6 0 9 -2 6 -6 -6 -5 6 -48 46
-156 13 -38 22 -68 19 -68 -3 0 2 -11 11 -25 9 -13 16 -33 16 -44 0 -11 8 -55
19 -98 10 -43 19 -116 20 -163 4 -208 29 -304 140 -542 17 -36 31 -73 31 -82
0 -8 4 -17 8 -20 5 -3 26 -49 47 -103 21 -54 42 -103 47 -109 15 -20 58 -157
58 -185 0 -44 -46 -87 -137 -130 -46 -21 -90 -39 -98 -39 -18 0 -50 -18 -80
-45 -24 -21 -40 -68 -51 -150 -4 -27 -8 -57 -9 -65 -2 -8 -15 -103 -29 -210
-34 -249 -65 -437 -77 -468 -6 -16 -6 -29 1 -37 8 -10 4 -15 -17 -23 -15 -5
-37 -18 -48 -29 -46 -43 -118 -63 -232 -64 -170 -2 -193 2 -542 95 -73 20
-137 39 -142 42 -5 3 -21 8 -36 10 -24 5 -25 3 -20 -28 6 -31 6 -32 -8 -14 -8
11 -15 26 -15 33 0 18 -41 37 -150 67 -277 79 -284 82 -352 149 -35 34 -84 91
-109 126 -28 42 -55 69 -76 78 -30 12 -34 11 -58 -11 -89 -83 59 -376 230
-455 97 -45 193 -79 300 -105 125 -30 269 -78 336 -111 54 -28 129 -92 129
-112 0 -7 7 -16 16 -21 32 -18 64 -137 64 -236 0 -101 -11 -151 -38 -176 -27
-25 -135 -32 -517 -29 -434 3 -988 -1 -993 -6 -2 -2 -6 -51 -9 -108 l-6 -104
89 -6 c73 -4 473 -3 537 2 9 0 17 8 17 16 0 8 7 15 15 15 8 0 15 -6 15 -13 0
-10 41 -14 183 -16 797 -13 828 -12 879 23 27 18 34 31 48 101 36 171 44 253
29 282 -23 46 -23 49 -5 34 24 -20 30 -7 45 81 20 123 47 153 146 163 191 19
286 45 372 102 103 68 148 150 168 311 8 59 21 152 29 207 30 193 46 301 52
355 4 30 7 60 8 65 1 6 11 27 22 46 23 38 90 76 188 104 31 9 77 31 103 48 39
26 51 42 67 86 18 49 19 63 8 145 -10 80 -49 214 -80 272 -12 22 -108 255
-192 464 -55 136 -60 153 -70 270 -22 249 -40 351 -81 475 -48 140 -88 235
-101 235 -17 0 -79 -29 -125 -60 l-48 -32 35 31 c19 17 56 41 83 52 52 24 56
34 27 72 -11 14 -20 30 -20 37 0 6 -19 38 -42 72 -24 33 -50 71 -59 85 -9 13
-35 44 -56 67 -22 24 -47 53 -55 65 -14 19 -19 21 -38 11 -25 -13 -39 -5 -22
12 23 23 11 46 -50 99 -34 30 -67 60 -74 66 -7 7 -19 10 -27 7 -10 -3 -17 3
-21 20 -4 17 -35 44 -105 90 -229 151 -504 268 -711 304 -164 29 -413 38 -580
22z"/>
<path d="M2555 4959 c-55 -10 -65 -12 -144 -24 l-53 -8 5 -38 c6 -47 2 -49
-19 -8 -13 26 -20 30 -42 26 -29 -5 -87 -24 -114 -38 -10 -5 -22 -9 -28 -9
-20 0 -140 -60 -140 -70 0 -6 -7 -10 -16 -10 -25 0 -165 -79 -198 -111 -17
-16 -34 -29 -38 -29 -7 0 -44 -30 -98 -80 -9 -8 -31 -29 -50 -46 -44 -39 -47
-51 -17 -83 47 -53 50 -65 3 -21 -45 43 -48 44 -61 26 -8 -10 -28 -33 -44 -52
-17 -18 -31 -37 -31 -41 0 -5 -14 -21 -30 -37 -17 -16 -30 -35 -30 -43 0 -7 0
-15 0 -18 0 -3 -9 -14 -20 -25 -32 -32 -63 -101 -51 -113 17 -17 13 -26 -7
-20 -15 3 -23 -6 -37 -44 -10 -26 -27 -68 -38 -93 -27 -60 -28 -67 -11 -81 18
-15 9 -28 -16 -22 -18 5 -20 0 -20 -36 0 -28 6 -47 20 -61 11 -11 20 -21 20
-23 0 -2 -16 -1 -35 1 -35 4 -35 4 -35 -36 0 -22 -4 -52 -10 -67 -12 -30 -22
-202 -14 -227 3 -11 16 -18 32 -19 28 0 74 -16 57 -19 -5 -1 -27 -1 -48 0
l-39 2 7 -84 c5 -54 12 -87 22 -95 9 -7 11 -13 4 -18 -22 -13 -4 -123 29 -186
10 -17 17 -20 43 -14 72 15 126 21 122 15 -3 -4 -30 -12 -62 -19 -84 -17 -88
-20 -75 -73 6 -24 29 -79 52 -122 22 -43 40 -85 40 -92 0 -7 3 -14 8 -16 11
-5 52 -66 52 -79 0 -11 23 -10 95 6 27 6 26 4 -13 -20 -41 -26 -51 -56 -11
-35 23 13 26 -2 4 -20 -20 -17 -19 -20 13 -55 15 -16 49 -57 76 -90 27 -33 69
-83 95 -111 69 -76 102 -117 114 -141 5 -13 18 -23 27 -23 13 0 20 -11 25 -37
3 -21 17 -55 31 -75 13 -21 24 -45 24 -53 0 -9 8 -32 19 -53 10 -20 21 -54 25
-74 8 -44 12 -45 43 -16 28 26 30 11 3 -39 -15 -31 -18 -46 -10 -78 36 -164
33 -349 -11 -672 -10 -73 -10 -97 -1 -119 13 -27 21 -28 26 -2 1 7 8 38 15 69
l13 56 72 35 c160 80 190 121 210 284 15 121 29 152 21 43 -9 -107 -23 -168
-46 -206 -25 -40 -106 -104 -181 -142 -59 -31 -52 -15 -108 -231 -5 -19 -6
-38 -2 -42 19 -19 129 -27 382 -28 151 -1 284 0 295 3 11 2 23 15 26 28 7 24
7 24 8 1 1 -26 41 -47 53 -28 4 6 8 49 9 96 l2 85 6 -87 c4 -48 9 -90 13 -93
9 -9 442 -8 525 1 58 6 63 8 79 42 20 43 12 157 -16 212 -18 35 -65 68 -72 50
-6 -16 -40 -15 -51 2 -8 12 -7 21 2 32 13 15 16 15 37 1 21 -13 23 -13 18 0
-4 8 -11 16 -18 17 -6 0 -16 2 -21 2 -6 1 -26 13 -45 27 -19 15 -84 42 -145
62 -278 89 -288 92 -293 79 -6 -18 -22 -14 -22 6 0 13 -13 21 -45 30 -25 7
-63 23 -85 37 -22 14 -40 22 -40 18 0 -5 -5 0 -11 10 -11 18 -39 24 -39 7 0
-5 -5 -10 -11 -10 -6 0 -8 9 -4 20 4 11 2 20 -4 20 -6 0 -11 7 -11 16 0 8 -4
12 -10 9 -6 -3 -10 -2 -10 3 0 5 -21 30 -46 55 -25 26 -44 41 -41 33 5 -13
-12 -26 -34 -26 -5 0 -10 17 -10 38 -1 37 -1 37 -13 -13 -12 -50 -12 -49 -19
74 -3 68 -11 129 -17 135 -16 16 -12 152 5 187 9 16 33 40 55 54 22 14 46 37
54 52 8 16 52 64 97 108 45 44 77 71 71 60 -6 -11 -42 -51 -81 -90 -81 -79
-93 -115 -41 -115 48 0 108 -37 143 -87 64 -93 136 -171 164 -178 15 -3 35
-12 43 -19 17 -14 206 -76 232 -76 9 0 19 -4 22 -9 3 -4 18 -11 33 -14 16 -3
36 -9 46 -12 14 -6 17 -1 18 26 1 35 3 33 13 -13 4 -17 13 -28 23 -28 9 0 86
-22 172 -49 257 -82 353 -104 466 -105 177 -2 266 24 281 80 7 26 -20 82 -50
106 -15 12 -18 20 -10 28 8 8 20 1 43 -26 18 -20 34 -34 37 -31 2 2 -9 30 -25
61 -17 31 -28 56 -25 56 2 0 18 -15 34 -32 l29 -33 1 36 c0 25 -7 42 -25 59
-14 13 -25 28 -25 33 0 6 10 1 23 -11 45 -42 52 -36 60 58 3 25 10 82 18 128
l13 83 -45 46 c-45 47 -39 49 19 6 38 -29 51 -25 28 9 -20 29 -21 52 -1 44 8
-3 15 0 16 7 4 67 15 130 35 199 3 9 -9 32 -28 54 l-33 37 34 -18 c30 -15 36
-15 45 -3 6 8 20 26 31 40 12 14 74 51 138 82 148 72 151 77 111 196 -32 98
-39 108 -74 122 l-25 11 25 7 c21 6 22 8 8 14 -9 4 -16 15 -15 25 1 17 -33
107 -83 216 -15 33 -33 77 -41 98 -9 25 -19 37 -32 37 -16 0 -19 5 -13 31 3
18 1 49 -6 70 -9 33 -15 39 -39 39 -39 0 -45 16 -8 24 29 6 30 7 25 53 -3 27
-8 88 -11 136 -3 48 -10 109 -15 135 -4 26 -6 50 -4 54 2 3 -10 10 -28 14
l-33 7 28 10 c25 8 27 12 22 41 -10 45 -66 166 -78 166 -6 0 -39 -16 -74 -35
-34 -20 -63 -34 -63 -31 0 3 12 12 28 20 15 8 45 30 66 49 l39 33 -24 52 -23
51 -54 -31 c-29 -16 -55 -28 -58 -25 -2 2 16 21 41 41 25 21 45 44 45 53 0 13
-56 101 -135 214 -11 15 -31 34 -44 41 -21 11 -26 10 -50 -17 -52 -58 -65 -59
-17 -2 l49 58 -35 32 c-20 18 -54 48 -78 67 -23 19 -48 41 -55 48 -19 17 -25
16 -58 -15 l-29 -28 16 32 c18 36 21 67 6 58 -5 -3 -10 -1 -10 5 0 6 -8 14
-17 17 -10 4 -49 25 -88 48 -183 108 -340 170 -352 139 -9 -23 -23 -16 -23 11
0 14 -3 24 -7 23 -5 0 -16 2 -25 6 -27 12 -47 0 -53 -31 -3 -15 -10 -41 -15
-58 -8 -26 -9 -23 -9 25 1 80 1 80 -19 80 -10 0 -22 4 -27 9 -13 12 -79 19
-234 27 l-124 7 6 -54 7 -54 -25 53 c-13 28 -25 51 -27 51 -2 -1 -25 -5 -53
-10z m341 -511 c87 -54 184 -193 191 -277 4 -39 -2 -59 -41 -135 -25 -50 -46
-94 -46 -99 0 -5 -11 -23 -26 -39 -36 -44 -75 -124 -68 -142 5 -13 24 -16 99
-16 53 0 97 4 100 10 4 6 11 8 16 5 13 -9 45 26 53 58 6 26 5 27 -41 28 l-48
2 60 7 c46 6 63 13 75 31 23 35 102 111 150 144 39 27 49 29 159 33 94 4 123
1 147 -12 36 -20 84 -62 84 -75 0 -5 4 -11 9 -13 5 -1 28 -32 51 -67 42 -63
42 -64 44 -160 1 -90 -1 -101 -34 -171 -19 -41 -65 -127 -104 -190 -146 -243
-213 -357 -263 -450 -20 -36 -53 -96 -75 -135 -23 -38 -52 -90 -66 -115 -13
-25 -31 -52 -38 -61 -8 -8 -14 -18 -14 -22 0 -3 -25 -46 -55 -96 -30 -50 -55
-94 -55 -99 0 -11 -80 -87 -107 -101 -38 -19 -211 -14 -273 9 -74 27 -149 108
-209 228 -42 82 -43 134 -6 199 55 94 83 155 79 168 -3 7 3 16 14 19 20 7 52
61 52 90 0 8 -8 20 -19 25 -23 13 -172 6 -199 -8 -22 -12 -65 -63 -115 -136
-66 -98 -161 -145 -290 -145 -118 0 -167 15 -210 62 -21 24 -43 53 -50 64 -57
101 -67 127 -73 191 -8 86 6 122 121 318 47 80 85 148 85 152 0 3 6 14 14 22
8 9 33 52 56 96 24 44 51 91 60 105 10 14 34 57 55 95 21 39 49 88 62 110 13
22 31 56 40 75 8 19 23 46 33 60 10 14 30 48 45 75 15 28 47 80 71 117 24 37
44 74 44 82 0 8 14 30 30 48 17 18 30 36 30 40 0 3 7 14 16 23 14 14 38 16
169 13 l152 -3 59 -37z"/>
<path d="M2575 4423 c-20 -4 -65 -63 -102 -133 -10 -19 -28 -49 -40 -67 -13
-17 -23 -41 -23 -52 0 -12 -4 -21 -8 -21 -10 0 -52 -82 -52 -101 0 -8 -9 -20
-19 -26 -11 -7 -28 -29 -37 -50 -10 -21 -23 -45 -30 -53 -7 -8 -23 -35 -36
-60 -14 -25 -35 -63 -48 -85 -12 -22 -35 -63 -50 -91 -15 -27 -48 -81 -72
-120 -24 -38 -60 -98 -80 -134 -20 -36 -64 -116 -98 -178 -34 -62 -61 -114
-59 -116 30 -24 83 -36 156 -36 108 0 133 13 168 85 15 30 31 58 36 61 25 15
2 24 -63 25 -90 1 -64 17 29 18 l62 1 38 65 c30 52 42 65 63 66 14 0 79 2 145
4 66 2 267 4 446 5 180 1 338 4 353 8 l26 7 -36 73 c-20 39 -40 72 -45 72 -5
0 -9 6 -9 13 0 8 -9 22 -20 32 -18 16 -43 19 -188 23 -105 2 -172 7 -180 15
-9 7 -74 12 -175 15 -89 1 -166 7 -171 12 -5 5 9 41 33 84 22 41 41 82 41 89
0 8 6 17 13 20 8 3 26 29 41 59 29 57 48 90 56 98 10 9 70 107 93 151 13 24
40 74 61 111 48 86 46 101 -19 110 -54 7 -168 8 -200 1z"/>
<path d="M2869 4353 c-29 -37 -58 -81 -120 -191 -84 -147 -103 -181 -170 -293
-86 -143 -83 -138 -57 -144 13 -3 77 -4 142 -3 107 3 120 5 130 23 6 11 19 32
29 48 11 15 35 58 54 95 19 37 39 73 45 80 11 13 25 37 75 133 32 60 32 61 17
107 -9 26 -25 56 -35 68 -10 11 -19 25 -19 31 0 12 -56 63 -69 63 -4 0 -14 -8
-22 -17z"/>
<path d="M3455 3992 c-41 -10 -45 -47 -9 -104 15 -24 30 -45 34 -48 4 -3 11
-16 15 -30 14 -45 46 -78 83 -85 24 -4 38 -2 43 7 7 10 9 10 9 1 0 -21 136
-18 144 3 23 60 -36 193 -106 238 -30 19 -160 30 -213 18z"/>
<path d="M3323 3908 c-28 -31 -45 -66 -38 -78 3 -6 2 -10 -3 -10 -5 0 -15 -12
-23 -27 -7 -16 -21 -36 -31 -46 -19 -19 -24 -67 -9 -95 6 -9 12 -30 16 -45 3
-15 14 -35 25 -45 11 -9 20 -21 20 -27 0 -5 11 -23 24 -38 29 -33 55 -30 73 8
11 24 10 25 -28 25 -21 0 -39 5 -39 10 0 6 20 10 44 10 25 0 47 4 50 9 7 10
-17 21 -45 21 -11 0 -17 5 -14 10 4 6 23 7 44 4 34 -5 40 -3 58 22 11 16 28
43 37 61 16 31 15 34 -11 88 -25 50 -30 55 -60 55 -18 0 -33 5 -33 10 0 6 12
10 26 10 l26 0 -25 43 c-29 49 -55 57 -84 25z"/>
<path d="M3548 3672 c-21 -4 -168 -228 -168 -257 0 -8 -11 -22 -25 -31 -22
-15 -64 -16 -405 -10 -213 3 -378 2 -375 -3 10 -17 -28 -21 -122 -11 -53 6
-98 8 -101 5 -17 -16 94 -223 121 -226 7 -1 22 -3 35 -4 13 -1 28 -7 35 -14 7
-7 49 -11 107 -11 134 0 169 -7 176 -36 6 -24 -29 -98 -93 -201 -18 -29 -33
-56 -33 -62 0 -5 -6 -16 -13 -23 -7 -7 -28 -43 -46 -80 l-32 -67 15 -60 c19
-74 76 -158 107 -156 14 1 36 25 70 78 27 43 49 81 49 86 0 4 11 21 25 37 13
15 27 41 30 55 4 15 12 33 20 39 14 12 45 60 147 235 81 139 94 156 103 133 4
-10 -14 -49 -44 -98 -28 -45 -51 -83 -51 -85 0 -5 -125 -220 -177 -305 -64
-104 -113 -199 -113 -219 0 -26 56 -49 81 -33 11 7 20 8 24 2 9 -15 112 -12
143 4 37 19 111 130 177 264 18 37 40 74 49 81 9 7 16 19 16 26 0 6 17 38 38
71 21 32 49 82 62 109 13 28 30 57 36 65 7 8 29 49 50 90 20 41 49 93 63 115
15 22 33 54 41 70 8 17 26 47 39 68 29 45 22 54 -39 60 -41 3 -40 4 14 5 63 2
72 8 102 70 9 17 20 32 25 32 5 0 9 5 9 10 0 6 11 28 25 50 14 22 31 58 39 80
14 41 14 41 -12 51 -24 9 -182 10 -224 1z"/>
<path d="M2246 3270 c-88 -136 -108 -177 -101 -208 8 -39 92 -182 111 -189 18
-7 67 24 59 37 -4 6 1 10 9 10 9 0 19 12 22 28 4 15 18 38 31 51 19 20 30 52
21 64 -2 2 3 11 11 20 8 11 11 27 7 43 -8 30 -76 156 -105 193 l-18 24 -47
-73z"/>
<path d="M1832 3048 c-19 -19 -14 -44 19 -99 l32 -51 48 48 c27 27 49 44 49
39 0 -5 -19 -29 -42 -52 -42 -43 -42 -44 -26 -71 25 -42 64 -56 162 -60 79 -4
107 1 145 25 4 2 -64 137 -97 190 l-27 43 -125 0 c-85 0 -130 -4 -138 -12z"/>
</g>
</svg>
