<?xml version="1.0" standalone="no"?>
<!DOCTYPE svg PUBLIC "-//W3C//DTD SVG 20010904//EN"
 "http://www.w3.org/TR/2001/REC-SVG-20010904/DTD/svg10.dtd">
<svg version="1.0" xmlns="http://www.w3.org/2000/svg"
 width="544.000000pt" height="544.000000pt" viewBox="0 0 544.000000 544.000000"
 preserveAspectRatio="xMidYMid meet">
<metadata>
Created by potrace 1.16, written by Peter Selinger 2001-2019
</metadata>
<g transform="translate(0.000000,544.000000) scale(0.100000,-0.100000)"
fill="#000000" stroke="none">
<path d="M0 5390 c0 -46 2 -51 34 -67 43 -22 209 -173 201 -182 -4 -3 -19 8
-33 25 -42 48 -192 154 -192 135 0 -5 16 -19 35 -31 38 -24 49 -48 13 -29 -13
6 -1 -8 27 -32 27 -24 63 -56 79 -70 18 -16 25 -28 19 -32 -6 -4 -30 13 -53
37 -23 24 -62 58 -86 76 l-44 31 0 -50 c0 -49 1 -51 56 -93 31 -24 85 -66 119
-94 35 -27 73 -57 86 -66 20 -14 21 -17 6 -17 -9 -1 -34 15 -55 34 -20 19 -75
61 -122 94 l-85 61 -3 -33 c-3 -26 2 -36 24 -52 15 -11 39 -30 53 -43 25 -22
24 -22 -20 2 -25 14 -49 26 -52 26 -4 0 -7 -34 -7 -75 0 -49 4 -75 11 -75 11
0 131 -80 154 -103 13 -12 -39 14 -105 53 -28 17 -53 30 -56 30 -2 0 -3 -48
-2 -106 l3 -106 77 -47 c42 -25 80 -50 84 -54 13 -13 -49 13 -66 27 -17 14
-89 56 -96 56 -3 0 -4 -10 -2 -22 2 -14 16 -29 38 -40 38 -18 28 -24 -14 -8
l-26 10 0 -372 c0 -341 1 -372 18 -384 16 -13 16 -14 0 -8 -16 5 -18 -1 -18
-54 0 -58 1 -61 28 -65 l27 -4 -27 -2 -28 -1 0 -94 c0 -66 4 -96 13 -99 9 -4
9 -6 0 -6 -10 -1 -13 -84 -13 -382 l0 -380 23 5 22 6 -22 -11 -23 -12 0 -504
c0 -400 3 -503 12 -497 10 6 10 4 1 -7 -18 -18 -18 -158 -1 -141 7 7 16 12 21
12 5 0 -1 -9 -14 -19 -32 -26 -19 -37 20 -17 16 9 35 16 42 16 16 0 -18 -37
-53 -58 l-28 -16 0 -114 0 -114 48 37 47 38 -48 -49 c-43 -45 -47 -54 -47 -97
0 -36 3 -46 13 -41 10 6 10 4 0 -7 -10 -10 -13 -137 -13 -566 l0 -553 468 0
467 1 47 62 c27 34 55 71 64 82 31 39 -15 -34 -57 -88 l-39 -52 47 -3 c39 -3
50 1 66 20 18 23 18 23 7 1 -21 -45 9 -22 41 30 18 28 34 47 36 40 2 -6 -7
-30 -22 -52 -25 -40 -25 -41 -4 -41 12 0 34 15 50 32 16 18 29 28 29 22 0 -6
-7 -17 -15 -24 -27 -23 -16 -30 49 -30 l64 0 63 80 c35 45 76 107 91 138 36
73 25 29 -13 -56 -16 -36 -48 -87 -70 -113 l-41 -49 35 0 c32 0 36 4 56 48 26
60 45 88 35 52 -3 -14 -15 -42 -24 -63 l-18 -37 113 0 113 0 33 52 c36 55 54
47 25 -11 -9 -16 -16 -32 -16 -36 0 -3 40 -5 90 -5 l90 0 14 32 15 33 -6 -32
-5 -33 150 0 151 0 5 43 c3 23 8 92 11 152 l5 110 -29 2 c-26 2 -30 -2 -42
-45 l-13 -47 -6 45 -6 45 -16 -35 -16 -35 -1 33 c-1 35 -1 35 -76 32 -53 -2
-75 -13 -76 -39 0 -9 -9 -34 -20 -56 -13 -27 -18 -32 -15 -15 3 14 8 44 12 68
l7 42 -61 0 c-69 0 -86 -15 -76 -68 3 -17 0 -40 -7 -53 -13 -24 -13 -24 -21
14 -6 27 -4 46 7 67 8 16 11 31 6 34 -9 6 -26 -26 -34 -62 -3 -12 -1 -22 3
-22 5 0 -3 -20 -17 -46 -14 -25 -27 -43 -29 -41 -2 2 2 39 10 83 7 43 12 82
10 85 -2 4 -25 10 -51 13 -27 4 -63 12 -82 18 -31 9 -35 8 -58 -18 -18 -22
-23 -24 -18 -9 7 23 8 25 6 44 -1 11 -5 10 -21 -4 -11 -10 -20 -13 -20 -8 0 6
9 17 20 24 17 13 18 16 5 33 -15 19 -15 19 -41 -5 l-27 -24 7 44 c6 39 5 43
-9 31 -22 -19 -18 4 5 25 11 10 20 28 20 39 0 12 8 41 16 66 9 25 16 62 15 82
0 21 8 60 18 86 19 48 41 174 41 233 0 26 -2 29 -20 19 -18 -9 -19 -8 -11 12
5 13 16 22 24 22 10 -1 20 11 26 30 19 58 35 241 36 396 0 137 -3 164 -24 230
-13 41 -30 80 -37 86 -8 6 -14 18 -14 26 0 9 -9 27 -20 41 -11 14 -20 29 -20
33 0 18 -52 73 -64 68 -8 -3 -13 1 -13 9 1 8 -20 42 -46 76 -41 53 -52 62 -72
57 -29 -7 -42 9 -24 30 8 10 9 18 3 22 -6 4 -15 14 -20 23 -8 15 -99 121 -132
156 -15 14 -32 17 -32 5 0 -5 -6 -16 -13 -27 -10 -12 -16 -14 -21 -7 -4 7 5
23 20 37 l27 25 -18 43 c-10 23 -24 49 -31 57 -6 8 -25 42 -42 75 -16 33 -37
74 -45 90 -22 42 -86 222 -97 270 -16 78 -51 197 -63 216 -10 17 -9 22 6 34
18 13 18 14 0 32 -18 17 -19 36 -19 245 1 219 0 227 -19 231 -19 4 -19 5 1 12
28 9 41 65 19 81 -21 15 -19 24 5 24 21 0 34 35 45 130 4 30 11 72 17 94 5 21
10 51 10 67 1 17 7 29 15 29 20 0 16 28 -6 35 -21 6 -34 31 -25 47 3 5 19 8
35 6 16 -1 28 -1 26 2 -1 3 11 26 26 52 32 56 34 74 7 83 -26 8 -16 25 10 18
23 -6 70 40 70 68 0 9 7 22 15 29 8 7 15 18 15 25 0 8 4 15 8 17 4 2 25 31 46
65 35 59 58 90 99 134 9 10 17 23 17 27 0 11 226 224 278 263 22 16 43 40 46
53 4 17 15 25 40 30 19 4 48 21 65 38 l30 31 -22 31 c-12 17 -27 46 -34 65
l-11 33 34 -33 c19 -19 37 -44 40 -56 8 -31 44 -30 74 2 13 14 31 25 40 24 28
-4 106 41 94 54 -3 3 19 11 49 17 52 12 55 14 61 49 3 19 3 53 -1 73 -3 23 -2
38 5 38 14 0 23 -28 16 -54 -3 -15 3 -29 20 -45 25 -23 46 -21 46 5 0 17 21
19 37 3 8 -8 15 -4 27 12 12 18 19 20 27 12 13 -13 70 -6 81 10 3 6 9 30 13
53 6 41 7 42 26 26 10 -9 19 -24 19 -34 0 -19 34 -33 52 -21 12 7 53 10 159
12 35 0 48 5 53 18 4 9 4 14 0 11 -9 -10 -34 17 -34 36 0 14 -55 16 -529 16
l-530 0 11 -33 c5 -17 12 -40 15 -49 3 -10 3 -18 0 -18 -3 0 -13 22 -22 49
-16 49 -16 49 -60 49 -36 0 -43 -3 -39 -16 5 -15 4 -15 -6 1 -10 16 -44 17
-477 17 l-465 0 48 -44 c27 -24 58 -59 68 -77 l19 -34 -29 26 c-16 14 -55 48
-87 77 -32 29 -68 52 -80 52 -19 0 -19 -1 -4 -17 43 -47 89 -103 83 -103 -4 0
-36 27 -71 60 -52 49 -71 60 -98 60 l-34 0 76 -78 c91 -94 141 -150 121 -136
-46 33 -218 174 -234 193 -11 11 -26 21 -35 21 -10 0 -4 -12 20 -36 24 -26 28
-33 12 -25 -12 6 -25 16 -28 21 -8 13 -65 43 -71 37 -4 -4 141 -150 226 -228
24 -22 27 -27 10 -17 -30 18 -55 31 -94 49 -16 8 -73 56 -127 107 -53 50 -102
92 -108 92 -7 0 -11 -20 -11 -50z"/>
<path d="M2569 5406 l16 -33 155 -5 c101 -3 161 -1 173 6 13 8 20 8 25 -1 4
-7 57 -19 117 -28 61 -9 118 -18 128 -21 9 -3 17 -1 17 5 0 6 5 11 10 11 6 0
10 -9 10 -19 0 -16 10 -21 53 -28 48 -8 53 -7 65 14 17 32 25 29 20 -7 -3 -16
-3 -28 0 -25 2 2 11 -2 19 -10 8 -8 26 -18 41 -21 15 -3 50 -17 77 -29 28 -13
70 -31 95 -41 25 -10 59 -28 75 -40 17 -12 53 -34 80 -49 67 -36 127 -79 285
-206 52 -42 101 -84 109 -93 8 -10 27 -24 41 -31 25 -13 29 -12 49 6 19 18 22
18 27 4 4 -9 -1 -24 -10 -34 -16 -17 -16 -19 -1 -25 9 -3 25 -6 36 -6 24 0 26
-45 3 -58 -12 -7 -13 -11 -5 -16 7 -4 20 -2 29 5 16 12 16 12 1 -5 -15 -16
-14 -20 13 -49 16 -18 43 -51 59 -74 18 -26 38 -43 50 -43 16 0 18 -5 13 -24
-4 -17 2 -35 18 -57 44 -62 55 -69 108 -69 29 0 61 -7 75 -16 13 -8 38 -15 57
-14 18 1 65 1 104 0 38 0 82 4 97 9 17 7 27 7 27 1 0 -14 44 -12 77 3 44 19
63 38 89 90 14 26 41 64 62 85 50 51 82 90 82 102 0 6 5 10 11 10 6 0 9 6 6
14 -3 8 5 18 20 25 14 7 23 15 19 18 -3 4 1 15 11 25 15 16 15 18 0 18 -9 0
-39 -9 -67 -20 -57 -23 -60 -23 -60 -12 0 7 100 50 158 67 12 3 22 11 22 16 0
6 4 8 8 5 4 -2 22 8 40 24 l32 28 0 136 c0 75 -2 136 -5 136 -3 0 -22 -11 -43
-24 -48 -30 -129 -71 -119 -60 5 5 43 29 85 54 l77 46 3 182 2 182 -100 0
-101 0 -100 -89 c-178 -160 -237 -196 -86 -52 37 35 78 78 89 94 l21 30 -26
-18 c-14 -9 -34 -15 -44 -12 -15 4 -15 5 3 6 11 0 29 10 39 21 18 20 17 20
-26 20 -36 0 -46 -4 -54 -22 -6 -12 -17 -24 -25 -26 -12 -4 -11 -1 3 15 9 11
17 23 17 26 0 19 -33 2 -84 -43 -31 -27 -62 -50 -69 -50 -6 0 -28 -17 -49 -37
-21 -20 -41 -33 -45 -29 -5 4 10 24 32 45 52 48 71 71 79 98 l7 23 -402 0
c-390 0 -403 -1 -416 -20 -8 -11 -21 -20 -29 -20 -17 0 -18 12 -3 27 9 9 -49
12 -235 13 -192 0 -246 -2 -246 -12 0 -10 -2 -10 -9 0 -5 9 -29 12 -81 10
l-74 -3 -9 -35 c-11 -46 -32 -67 -24 -25 3 17 9 38 12 48 6 15 0 17 -67 17
-73 0 -74 0 -85 -31 -13 -35 -33 -31 -33 7 l0 24 -334 0 -333 0 16 -34z"/>
<path d="M2600 5287 c-19 -5 -50 -8 -67 -8 -30 1 -33 -2 -33 -30 0 -17 -4 -28
-10 -24 -5 3 -10 15 -10 27 0 19 -4 20 -52 14 -29 -4 -66 -11 -83 -16 -68 -20
-114 -30 -138 -30 -14 0 -28 -4 -32 -9 -3 -5 -30 -15 -60 -22 -54 -12 -74 -31
-55 -54 5 -6 16 -28 25 -48 l15 -37 -32 13 c-18 7 -33 20 -34 28 -1 30 -24 70
-36 63 -36 -20 -47 -37 -42 -68 4 -29 4 -29 -7 -8 -16 30 -65 30 -101 -2 -16
-13 -28 -29 -28 -36 0 -7 -7 -10 -16 -6 -26 10 -32 -1 -24 -44 4 -22 4 -43 0
-45 -10 -6 -20 20 -20 50 0 33 -16 39 -40 15 -11 -11 -24 -20 -30 -20 -5 0
-10 -5 -10 -12 0 -6 -3 -8 -7 -5 -9 10 -43 -23 -43 -41 0 -9 -6 -12 -16 -8
-18 7 -91 -40 -99 -64 -3 -8 -17 -21 -33 -27 -40 -18 -162 -139 -162 -162 0
-12 -9 -21 -25 -25 -14 -4 -25 -10 -25 -15 0 -5 -18 -31 -40 -59 -22 -27 -40
-53 -40 -57 0 -4 -11 -18 -25 -31 -14 -13 -28 -37 -31 -54 -4 -16 -10 -30 -15
-30 -5 0 -15 -21 -22 -47 -8 -27 -17 -47 -20 -46 -12 4 -57 -44 -57 -61 0 -9
-4 -16 -9 -16 -5 0 -21 -35 -35 -77 -41 -118 -41 -119 -17 -126 30 -7 26 -25
-4 -20 -29 6 -33 -3 -65 -132 -32 -131 -48 -292 -49 -478 -2 -178 7 -224 42
-229 27 -4 20 -23 -9 -23 -19 1 -20 -3 -13 -35 4 -19 11 -56 14 -82 5 -39 10
-48 26 -48 10 0 19 -4 19 -10 0 -5 -7 -10 -16 -10 -13 0 -14 -3 -5 -14 6 -8
11 -18 9 -22 -2 -9 24 -96 42 -139 4 -11 13 -39 20 -63 12 -47 88 -195 102
-200 4 -2 8 -11 9 -20 0 -10 16 -37 35 -62 18 -25 38 -54 43 -65 18 -42 65
-60 94 -36 15 12 17 11 17 -7 0 -11 -7 -22 -15 -26 -19 -7 -20 -45 -1 -52 8
-3 17 -16 20 -30 4 -13 11 -24 16 -24 6 0 22 -20 37 -44 16 -24 47 -66 71 -92
68 -77 143 -176 160 -211 9 -19 23 -33 34 -33 14 0 16 -6 12 -30 -4 -19 -1
-38 10 -55 19 -29 46 -160 46 -224 l0 -43 27 17 c24 16 26 16 20 0 -4 -9 -7
-19 -7 -21 0 -2 -9 -4 -20 -4 -19 0 -20 -7 -20 -104 0 -57 -3 -112 -6 -120 -5
-12 -2 -15 10 -10 11 4 16 1 16 -12 0 -27 -14 -46 -31 -42 -15 3 -18 -43 -5
-73 4 -10 1 -23 -8 -32 -20 -20 -20 -43 -1 -51 21 -8 19 -21 -10 -52 -14 -15
-25 -32 -26 -38 0 -6 -4 -32 -8 -58 -4 -26 -4 -51 0 -55 5 -5 2 -21 -6 -36 -8
-15 -10 -25 -5 -22 6 4 10 -13 10 -38 0 -35 -6 -50 -25 -68 -26 -25 -32 -53
-15 -64 6 -3 10 -1 10 4 0 6 5 11 10 11 19 0 6 -74 -26 -154 -6 -16 -4 -18 10
-13 14 6 16 3 11 -16 -5 -19 -3 -18 20 8 14 17 36 41 48 55 12 14 33 49 47 78
34 72 44 66 14 -10 -13 -34 -24 -63 -24 -65 0 -2 -7 -3 -15 -3 -9 0 -15 -9
-15 -23 0 -13 -9 -26 -22 -32 -29 -13 -35 -35 -10 -35 11 0 30 12 41 28 15 20
20 23 21 10 0 -9 -5 -20 -11 -24 -15 -9 9 -24 38 -24 22 0 29 5 59 45 14 19
15 18 9 -13 -6 -29 2 -41 18 -26 3 3 63 6 134 6 70 0 136 2 145 4 10 3 22 20
27 37 l9 32 1 -39 c1 -30 4 -37 17 -32 9 3 18 6 20 6 2 0 4 10 4 23 0 13 7 32
15 43 14 18 15 16 9 -18 -6 -36 -5 -38 19 -38 19 0 28 7 36 31 9 26 13 29 31
19 11 -6 20 -13 20 -16 0 -3 -4 -3 -9 1 -10 6 -31 -25 -31 -44 0 -7 26 -11 65
-11 58 0 65 2 65 20 0 24 -38 28 -46 5 -4 -8 -16 -15 -28 -14 -20 0 -20 1 2
12 18 8 22 17 19 36 -3 14 1 37 8 51 7 14 15 46 16 70 l3 45 -164 -3 c-209 -3
-210 -3 -210 -46 0 -20 -8 -40 -20 -51 -20 -18 -20 -17 -20 8 0 14 5 38 10 53
13 33 11 34 -38 41 -35 5 -41 2 -62 -27 l-23 -32 -27 31 c-15 17 -32 31 -38
31 -15 0 -21 48 -7 67 10 14 13 10 19 -25 3 -23 10 -42 15 -42 5 0 17 -3 26
-7 14 -5 16 -2 12 13 -4 10 -8 30 -11 44 -2 14 -7 36 -10 50 -4 16 1 39 14 65
11 22 25 74 31 115 10 82 12 92 24 133 4 17 3 39 -4 54 -10 21 -9 30 5 52 23
34 36 194 28 330 -6 89 -9 104 -25 108 -11 3 -19 6 -19 7 0 0 6 19 14 40 11
33 11 48 0 97 -15 66 -88 239 -106 254 -7 6 -14 16 -16 24 -5 21 -66 111 -104
152 -91 99 -169 192 -223 264 -33 43 -68 87 -77 97 -10 10 -18 24 -18 32 0 8
-3 16 -8 18 -18 8 -153 300 -167 362 -2 10 -9 33 -14 50 -28 98 -50 266 -53
420 -2 77 -6 110 -15 113 -18 7 -16 23 2 23 8 0 15 3 16 8 0 4 2 16 4 27 3 11
7 43 10 70 19 167 53 283 137 465 17 36 37 79 44 97 8 17 25 48 39 69 13 20
22 40 20 45 -3 4 3 14 13 21 10 7 25 24 32 38 7 14 16 27 19 30 3 3 19 23 36
45 26 36 55 65 198 199 23 22 74 59 112 84 39 25 72 49 73 53 2 5 7 9 12 9 14
0 120 67 114 73 -3 3 7 17 22 32 20 20 29 24 35 14 6 -10 16 -10 51 2 23 7 50
21 60 31 9 9 18 14 21 12 8 -8 85 27 91 41 3 8 -6 17 -22 23 -23 9 -92 66 -92
77 0 2 19 1 43 -2 27 -4 53 -15 72 -33 60 -55 38 -54 324 -15 208 28 409 13
626 -44 61 -17 112 -25 113 -20 6 14 22 11 22 -5 0 -9 60 -45 153 -90 83 -41
188 -101 232 -134 44 -33 90 -62 101 -66 12 -3 26 -17 32 -30 11 -25 85 -89
115 -99 9 -4 17 -11 17 -18 0 -17 89 -117 110 -124 10 -3 21 -17 24 -30 8 -31
120 -181 146 -195 10 -5 21 -18 24 -27 3 -10 20 -26 36 -35 30 -17 31 -17 70
10 21 15 41 36 44 46 6 24 -4 76 -15 76 -5 0 -9 12 -9 26 0 14 -7 32 -15 40
-8 9 -15 28 -15 43 0 18 -9 35 -25 47 -15 12 -20 21 -13 25 7 4 -2 20 -23 41
-19 20 -40 44 -48 56 -11 16 -19 18 -38 11 -25 -9 -31 3 -14 30 5 8 5 19 0 25
-75 94 -86 103 -104 90 -26 -19 -40 -6 -19 17 17 19 16 21 -29 66 -44 44 -47
46 -72 33 -29 -16 -44 -7 -25 15 7 8 9 22 6 31 -6 15 -11 13 -37 -12 l-31 -29
8 25 c16 52 11 63 -40 90 -28 15 -52 32 -54 38 -2 7 -16 12 -32 12 -18 0 -31
6 -34 18 -8 22 -121 83 -142 75 -10 -4 -17 1 -20 15 -5 18 -71 52 -102 52 -7
0 -20 4 -30 9 -34 19 -147 69 -167 74 -11 4 -38 8 -60 11 -22 3 -62 10 -90 16
-27 6 -68 15 -90 20 -23 5 -44 5 -49 0 -5 -5 -18 -4 -30 2 -11 6 -75 13 -141
15 -66 2 -131 5 -145 6 -14 2 -41 -1 -60 -6z"/>
<path d="M2520 4960 c-14 -4 -51 -16 -82 -25 -53 -16 -59 -21 -67 -54 -18 -68
-17 -76 1 -114 15 -31 31 -44 81 -66 70 -31 119 -81 148 -147 15 -35 23 -44
44 -44 14 0 30 9 37 20 17 27 38 25 38 -4 0 -21 7 -25 62 -36 85 -16 147 -50
189 -101 18 -24 41 -51 50 -60 34 -35 74 -133 72 -178 -2 -49 -48 -151 -116
-253 -13 -19 -17 -42 -15 -75 l3 -48 44 43 c24 23 47 42 51 42 4 0 15 9 25 20
10 12 24 19 31 16 7 -3 20 6 28 20 9 13 23 24 32 24 8 0 17 7 20 15 4 8 13 15
20 15 15 0 22 5 73 52 32 29 87 56 166 82 96 31 300 78 342 78 30 0 40 4 37
13 -6 15 12 29 20 16 3 -5 24 -7 46 -4 32 5 40 3 40 -10 0 -9 -6 -22 -14 -29
-22 -21 70 -39 107 -21 28 14 34 27 17 38 -5 3 -10 17 -10 30 0 13 -4 27 -10
30 -5 3 -10 15 -10 26 0 10 -7 19 -16 19 -8 0 -20 14 -25 30 -6 17 -15 30 -20
30 -5 0 -9 6 -9 13 0 13 -53 77 -64 77 -4 0 -27 -19 -53 -42 -51 -47 -49 -37
6 30 l34 43 -74 74 c-40 40 -75 72 -78 70 -2 -3 -12 0 -22 5 -14 8 -24 2 -53
-33 -34 -39 -40 -27 -9 18 7 11 13 27 13 36 0 22 -59 72 -77 65 -8 -3 -12 -2
-9 3 6 8 -14 21 -42 27 -7 1 -20 12 -30 24 -25 31 -163 91 -179 78 -9 -7 -13
-6 -13 3 0 28 -107 58 -117 33 -8 -20 -23 -17 -23 5 0 12 -11 23 -32 30 -39
14 -53 1 -63 -60 -4 -21 -11 -42 -17 -45 -6 -4 -8 1 -5 12 3 11 9 40 12 65 l7
46 -54 17 c-59 18 -267 32 -325 21 l-36 -6 6 -47 6 -47 -20 45 c-11 24 -21 45
-22 46 -8 8 -77 11 -97 4z"/>
<path d="M2170 4858 c0 -5 -4 -7 -9 -4 -4 3 -6 -6 -3 -19 5 -28 -9 -33 -28
-10 -7 8 -22 15 -34 15 -24 -1 -59 -24 -49 -33 3 -4 1 -7 -5 -7 -7 0 -12 -7
-12 -15 0 -11 -7 -14 -24 -9 -16 4 -37 -3 -65 -20 -41 -26 -45 -34 -41 -69 1
-17 0 -17 -23 -3 -22 15 -26 15 -51 -5 -14 -11 -24 -24 -21 -29 2 -4 -15 -15
-38 -24 -41 -15 -187 -144 -187 -164 0 -5 7 -15 15 -22 9 -7 25 -27 37 -44 16
-24 11 -22 -22 12 -41 43 -70 49 -70 17 0 -9 -4 -14 -9 -10 -5 3 -12 -4 -16
-15 -3 -11 -11 -20 -16 -20 -5 0 -9 -6 -9 -13 0 -7 -9 -20 -20 -30 -28 -23
-25 -45 8 -59 23 -10 24 -12 8 -16 -11 -2 -25 3 -32 12 -10 15 -13 15 -35 -3
-16 -13 -23 -28 -22 -53 1 -29 -4 -36 -27 -45 -31 -12 -46 -56 -24 -74 19 -16
17 -31 -3 -28 -10 1 -23 1 -29 0 -15 -1 -25 -39 -13 -47 15 -9 10 -20 -16 -32
-19 -9 -25 -19 -25 -42 0 -16 5 -30 11 -30 19 0 -11 -30 -30 -30 -14 -1 -14
-2 2 -14 23 -18 22 -24 -5 -28 -16 -2 -24 -11 -26 -28 -2 -14 -9 -31 -14 -38
-13 -15 -14 -14 37 -41 l40 -21 -46 6 -47 6 -7 -63 c-15 -130 -20 -271 -10
-277 5 -4 28 -12 50 -19 l40 -11 -46 -1 -46 -1 -2 -76 c-1 -46 2 -81 10 -90 7
-9 35 -15 78 -16 50 -1 55 -2 21 -5 -103 -8 -102 -6 -68 -130 25 -91 27 -92
98 -74 73 19 95 22 87 14 -5 -4 -36 -15 -69 -23 -74 -18 -87 -35 -69 -87 23
-64 87 -190 132 -258 10 -16 22 -38 25 -48 4 -10 13 -16 20 -13 8 3 14 -1 14
-9 0 -8 9 -15 20 -15 21 0 27 -15 10 -25 -13 -8 -13 -21 3 -37 6 -7 23 -29 37
-49 24 -35 67 -85 190 -221 100 -110 184 -256 212 -365 14 -58 31 -70 64 -49
l25 17 -15 -30 c-19 -37 -23 -202 -5 -184 6 6 18 9 25 6 18 -7 18 -33 0 -33
-15 0 -27 -109 -25 -243 1 -43 -5 -116 -12 -163 -11 -73 -10 -87 2 -94 12 -8
11 -13 -3 -38 -29 -49 -45 -233 -24 -282 9 -21 51 -23 66 -5 16 19 30 19 30 1
0 -22 48 -26 301 -26 225 0 240 1 256 20 12 14 20 16 30 9 7 -6 10 -15 7 -21
-4 -7 86 -10 97 -4 1 1 5 66 9 146 l6 145 2 -143 2 -142 28 -11 c17 -7 61 -8
122 -3 52 4 98 7 103 6 4 -1 7 5 7 14 0 14 2 14 16 3 11 -9 59 -14 154 -17
l139 -3 18 28 c9 15 24 32 31 37 11 6 13 24 7 84 -10 109 -47 172 -102 172
-10 0 -25 13 -35 29 -18 32 -87 81 -115 81 -10 0 -45 14 -78 30 -33 17 -67 30
-77 30 -9 0 -29 6 -44 12 -22 10 -28 10 -32 0 -6 -19 -30 -14 -37 9 -4 11 -9
18 -12 16 -2 -3 -20 1 -38 9 -31 12 -34 12 -48 -9 l-16 -22 0 28 c-1 17 -8 30
-18 34 -10 3 -37 14 -60 24 -23 11 -44 19 -47 19 -16 0 -124 78 -162 117 -29
29 -50 43 -60 39 -12 -4 -14 -1 -9 14 10 30 -9 24 -23 -8 -11 -25 -11 -23 -8
22 3 37 -2 59 -19 90 -12 23 -28 59 -35 81 -7 22 -16 45 -21 51 -8 9 -4 87 6
140 5 24 38 64 53 64 6 0 17 6 24 14 18 17 104 30 113 16 3 -5 14 -10 24 -10
17 0 101 -78 101 -94 0 -10 55 -82 90 -118 l26 -27 -4 31 c-4 23 -1 29 9 26 8
-3 14 -17 14 -31 0 -20 9 -32 32 -46 17 -11 34 -17 37 -14 3 4 14 -1 23 -9 27
-24 62 -31 78 -18 12 10 15 9 15 -3 0 -9 13 -18 33 -22 36 -7 154 -43 177 -55
8 -4 40 -13 70 -20 30 -8 59 -17 64 -22 6 -4 19 -8 30 -8 18 0 59 -11 111 -30
69 -25 158 -49 205 -55 30 -4 64 -14 75 -21 14 -9 64 -14 174 -15 153 -1 154
-1 178 25 21 23 22 26 6 27 -10 1 -4 6 14 11 44 14 50 46 19 109 l-24 51 38
-37 c35 -34 38 -35 33 -14 -3 13 -13 33 -23 44 -9 11 -20 29 -24 40 -5 15 2
11 27 -13 19 -19 37 -29 41 -24 7 12 -43 112 -57 112 -5 0 -7 3 -4 7 4 4 23
-9 43 -28 29 -27 35 -30 30 -13 -3 11 1 38 9 58 13 30 14 45 6 68 -8 23 -7 35
4 51 17 24 20 87 5 87 -5 0 -10 7 -10 15 0 8 8 15 17 15 12 0 2 16 -32 52 -28
28 -39 44 -25 35 73 -49 96 -53 65 -13 -19 25 -19 36 -1 36 19 0 29 33 21 70
-4 17 -2 30 3 30 11 0 32 75 32 113 0 13 -11 34 -25 47 -31 29 -25 37 10 14
26 -17 28 -17 38 1 15 27 67 73 98 87 17 7 25 17 22 26 -4 9 0 13 13 11 33 -4
107 24 112 43 2 11 14 18 28 18 13 0 23 3 22 8 0 4 3 16 7 26 10 23 -10 104
-31 127 -8 8 -14 27 -14 42 0 25 -3 26 -46 25 -42 -1 -63 11 -64 34 0 4 21 5
48 1 l47 -6 -24 21 c-14 13 -21 27 -17 38 3 9 0 28 -8 42 -8 15 -21 45 -29 67
-31 80 -77 175 -87 175 -6 0 -10 12 -10 28 0 15 -12 54 -25 87 -14 33 -25 66
-25 72 0 9 -10 11 -31 6 -25 -5 -31 -3 -27 8 2 8 16 15 31 17 22 3 26 7 22 30
-9 48 -35 239 -35 251 0 6 -17 18 -37 27 -34 14 -36 17 -18 24 11 4 26 5 33 3
17 -7 15 18 -3 44 -14 20 -14 23 2 32 10 6 12 11 6 11 -7 0 -13 8 -13 18 0 37
-93 99 -130 87 -10 -3 -21 -1 -25 5 -3 6 3 10 14 10 12 0 21 4 21 9 0 20 -21
21 -60 2 -45 -22 -50 -18 -18 16 12 13 17 23 12 23 -21 1 -92 11 -134 20 -72
14 -110 10 -110 -12 0 -11 4 -17 8 -14 5 3 9 -8 10 -24 0 -16 12 -50 27 -76
20 -36 28 -66 32 -131 l6 -85 -53 -107 c-61 -124 -57 -117 -93 -167 -16 -21
-47 -70 -69 -109 -23 -38 -44 -72 -48 -75 -3 -3 -12 -21 -20 -40 -8 -19 -26
-55 -41 -80 -16 -25 -42 -72 -59 -105 -18 -33 -56 -98 -85 -145 -29 -47 -65
-110 -80 -140 -15 -30 -33 -62 -40 -70 -7 -8 -32 -52 -55 -97 -22 -44 -47 -87
-55 -93 -8 -7 -15 -18 -15 -25 0 -7 -22 -33 -49 -58 -42 -39 -56 -46 -105 -52
-90 -12 -198 -1 -244 23 -46 24 -112 92 -151 155 -14 24 -32 52 -39 63 -41 64
-41 139 2 224 16 30 35 70 44 88 9 17 21 32 27 32 5 0 3 4 -5 10 -9 5 -14 25
-15 52 0 38 -3 43 -25 46 -14 1 -52 -6 -84 -16 -68 -20 -125 -76 -111 -109 20
-46 17 -56 -15 -49 -17 3 -39 1 -48 -4 -39 -21 -174 -49 -273 -56 l-107 -7
-48 37 c-49 37 -80 82 -131 186 -22 44 -27 68 -26 121 1 79 26 138 160 369 11
19 40 69 64 110 24 41 47 77 51 78 4 2 8 7 8 11 0 8 64 127 125 231 20 36 49
85 63 110 66 119 157 278 172 300 9 14 22 43 28 66 7 22 21 49 32 59 11 10 20
23 20 29 0 6 16 21 35 33 22 15 32 28 29 38 -7 17 -65 55 -86 55 -12 0 -78 70
-78 83 0 3 10 7 22 10 17 5 19 9 9 20 -6 8 -25 21 -42 27 -29 12 -62 66 -84
138 -6 20 -12 22 -61 21 -30 -1 -54 -6 -54 -11z"/>
<path d="M5395 4627 c-75 -90 -90 -121 -47 -98 26 14 72 14 72 1 0 -5 -24 -17
-54 -25 -30 -9 -60 -22 -66 -30 -11 -13 -7 -15 24 -15 29 0 36 -4 36 -19 0
-15 -10 -20 -49 -25 -35 -5 -57 -15 -80 -36 -17 -17 -31 -34 -31 -38 -1 -12
-48 -62 -60 -62 -6 0 -8 -4 -5 -10 3 -5 1 -10 -4 -10 -6 0 -11 -5 -11 -10 0
-6 16 -3 38 6 51 22 82 28 82 16 0 -6 -24 -20 -52 -31 l-53 -20 53 6 c77 9 66
-12 -17 -31 -39 -9 -78 -16 -88 -16 -14 0 -15 -2 -4 -9 21 -13 4 -31 -30 -31
-29 0 -40 14 -16 23 6 3 -6 3 -28 1 -22 -2 -107 -8 -188 -14 -140 -9 -150 -11
-176 -35 -24 -24 -27 -32 -24 -78 6 -86 14 -136 22 -142 5 -2 6 -24 4 -48 -5
-38 -2 -47 18 -60 22 -16 22 -17 5 -36 -15 -17 -17 -30 -11 -83 7 -63 29 -126
49 -141 7 -5 5 -11 -6 -18 -20 -11 -26 -83 -8 -94 6 -3 10 -13 10 -21 0 -8 14
-44 30 -79 17 -35 30 -69 30 -74 0 -9 35 -92 166 -401 8 -19 19 -42 23 -50 5
-9 18 -54 30 -100 25 -96 27 -100 47 -100 8 0 14 -4 14 -10 0 -5 -7 -10 -15
-10 -12 0 -14 -4 -7 -16 5 -9 7 -37 4 -63 -4 -46 -3 -48 29 -58 l34 -11 -33
-1 c-39 -1 -52 -24 -28 -50 20 -22 21 -35 1 -28 -15 6 -95 -68 -95 -88 0 -6
-15 -15 -32 -21 -18 -7 -69 -24 -113 -39 -44 -15 -87 -32 -95 -39 -8 -7 -23
-16 -33 -19 -23 -9 -33 -38 -48 -139 -18 -126 -18 -131 14 -146 27 -13 37 -32
16 -32 -6 0 -18 4 -28 10 -15 8 -20 3 -29 -28 -6 -20 -15 -68 -21 -107 -6 -38
-16 -101 -21 -139 -6 -39 -10 -91 -9 -118 2 -32 -2 -53 -14 -65 -9 -10 -19
-33 -22 -51 -3 -19 -14 -43 -25 -55 -11 -11 -20 -34 -20 -49 0 -18 -6 -31 -17
-35 -34 -13 -93 -66 -93 -85 0 -12 -7 -18 -21 -18 -31 0 -99 -22 -99 -32 0 -4
-10 -8 -22 -8 -18 0 -194 -34 -268 -51 -39 -10 -106 -149 -71 -149 6 0 11 -10
11 -22 -1 -21 -2 -22 -14 -6 -12 16 -13 15 -14 -13 0 -17 3 -42 8 -55 11 -28
-4 -42 -18 -18 -11 20 -13 15 -37 -131 -42 -246 -83 -285 -302 -285 -72 0
-103 -4 -106 -12 -3 -10 -8 -10 -21 1 -27 22 -29 6 -7 -44 24 -55 28 -83 8
-67 -7 6 -21 36 -31 66 l-19 56 -65 0 -64 0 5 -37 c3 -21 20 -91 38 -155 27
-94 37 -118 51 -118 14 0 17 6 14 22 -3 13 -12 57 -21 98 -26 119 -27 128 -15
108 6 -10 19 -59 30 -110 11 -51 22 -99 25 -106 3 -9 110 -12 489 -12 l484 0
-5 23 -5 22 20 -23 c14 -15 31 -22 56 -22 l35 0 -18 53 c-11 30 -26 68 -36 86
-9 18 -15 35 -12 37 5 5 57 -109 57 -125 0 -7 4 -9 10 -6 6 4 7 -1 3 -11 -4
-11 -2 -15 4 -11 6 4 13 0 17 -8 3 -10 19 -15 46 -15 l41 0 -16 30 c-20 39 -6
39 20 0 l20 -30 133 0 c72 0 132 2 132 5 0 4 -7 20 -16 38 l-16 32 26 -30 c14
-17 25 -33 26 -37 0 -12 70 -10 70 1 0 6 -4 12 -9 16 -6 3 -25 34 -44 68 -18
34 -44 79 -56 100 -31 51 -19 47 18 -6 16 -24 42 -57 58 -73 27 -30 45 -60 57
-96 5 -16 29 -17 271 -18 l265 0 0 134 0 135 -47 68 c-25 37 -62 88 -81 113
-19 25 1 7 46 -40 l81 -85 1 72 c0 62 -3 75 -20 85 -11 7 -20 17 -20 22 0 6 5
5 12 -2 23 -23 28 -11 28 67 l0 79 -42 37 c-30 26 -34 31 -13 18 27 -16 29
-16 16 0 -15 19 -9 22 20 7 31 -17 23 8 -11 37 -38 31 -40 52 -2 23 l27 -22 3
51 c2 40 -2 58 -18 81 -21 30 -16 42 8 18 9 -9 12 -4 12 22 0 31 -8 41 -70 89
-45 35 -67 58 -61 64 6 6 31 -9 68 -43 l58 -53 3 227 c2 226 2 228 -20 247
l-23 20 23 -6 c21 -6 22 -4 22 58 0 43 -4 67 -12 70 -10 4 -10 6 0 6 9 1 12
151 12 715 0 774 3 726 -51 726 -10 0 -19 4 -19 9 0 6 16 7 35 4 l35 -6 0 156
0 156 -27 4 -28 4 28 2 c25 1 27 4 27 46 0 42 -11 58 -25 35 -3 -5 -25 -10
-48 -10 l-42 1 34 14 c18 8 44 15 57 15 l24 0 0 271 c0 298 6 272 -57 254 -38
-11 -26 4 17 21 l40 16 0 304 c0 283 -1 304 -17 304 -10 -1 -23 -6 -28 -13z"/>
<path d="M2664 4412 c-14 -9 18 -154 35 -160 6 -2 9 -7 6 -12 -3 -4 4 -6 16
-3 24 7 85 94 98 140 8 27 6 32 -12 37 -31 8 -130 7 -143 -2z"/>
<path d="M2559 4372 c-53 -34 -99 -103 -99 -146 0 -19 -5 -26 -20 -26 -11 0
-20 -5 -20 -11 0 -6 -16 -37 -36 -69 -20 -32 -34 -65 -32 -72 3 -7 -4 -17 -15
-23 -11 -5 -24 -17 -28 -25 -5 -8 -22 -39 -39 -67 l-29 -53 145 0 c94 0 143 4
139 10 -3 6 -18 10 -33 10 -23 1 -25 2 -9 11 9 6 26 8 36 4 22 -7 51 31 51 67
1 73 4 78 36 78 44 0 58 34 45 109 -5 31 -10 74 -10 96 0 37 -36 125 -50 125
-3 0 -18 -8 -32 -18z"/>
<path d="M2870 4351 c0 -5 -6 -16 -12 -23 -28 -31 -98 -168 -98 -193 0 -11 11
-15 41 -15 26 0 38 -4 34 -11 -4 -6 -22 -8 -46 -4 -43 7 -42 10 -39 -70 1 -27
5 -51 10 -53 4 -2 6 -12 3 -23 -5 -18 0 -34 26 -88 16 -33 40 -21 86 43 11 15
28 37 38 49 10 12 30 45 43 72 14 28 34 64 44 80 31 49 20 102 -18 88 -10 -4
-13 -2 -10 8 3 8 10 13 16 12 5 -1 9 3 7 10 -9 37 -18 57 -26 57 -5 0 -9 4 -9
10 0 20 -44 60 -67 60 -13 0 -23 -4 -23 -9z"/>
<path d="M4456 3999 c3 -6 -5 -7 -19 -4 -19 5 -30 -1 -55 -30 -40 -45 -46 -70
-38 -159 3 -39 9 -109 12 -156 3 -47 10 -97 16 -112 5 -15 7 -31 4 -36 -3 -6
-6 -36 -7 -68 -2 -66 23 -132 162 -430 10 -23 19 -47 19 -54 0 -12 7 -28 50
-125 59 -131 82 -194 87 -245 3 -30 10 -58 16 -61 14 -9 -1 -29 -21 -29 -10 0
-23 -9 -30 -20 -7 -12 -23 -20 -38 -20 -30 0 -124 -29 -124 -39 0 -3 -11 -7
-25 -7 -13 -1 -32 -9 -40 -18 -9 -9 -22 -16 -28 -16 -25 0 -50 -46 -64 -114
-17 -91 -17 -93 7 -99 12 -3 20 -14 20 -26 0 -19 -3 -20 -20 -11 -11 6 -20 16
-20 22 0 6 -2 9 -5 6 -5 -5 -21 -119 -31 -223 -9 -95 -35 -289 -40 -297 -3 -4
0 -17 6 -28 8 -15 8 -18 -3 -14 -11 4 -16 -8 -21 -45 -4 -28 -11 -53 -16 -56
-5 -3 -12 -26 -16 -51 -5 -35 -12 -47 -30 -54 -13 -5 -32 -18 -42 -28 -11 -11
-26 -22 -33 -24 -8 -3 -13 -16 -11 -31 2 -32 -4 -33 -43 -7 -43 29 -55 25 -55
-15 0 -24 -5 -35 -15 -35 -17 0 -34 29 -28 48 3 8 -7 12 -34 12 -33 1 -76 6
-279 36 -33 5 -42 3 -48 -11 -5 -14 -9 -15 -21 -5 -8 7 -15 18 -15 26 0 7 -19
18 -42 25 -24 6 -54 15 -68 19 -14 5 -56 18 -95 29 -38 11 -115 33 -170 50
-55 17 -158 46 -230 65 -175 48 -245 83 -316 159 -32 34 -59 68 -59 75 0 6 -4
12 -10 12 -5 0 -10 7 -10 16 0 26 -65 84 -94 84 -47 0 -89 -74 -72 -128 4 -11
9 -30 11 -43 12 -59 26 -85 54 -96 23 -8 29 -15 24 -32 -6 -22 29 -75 77 -119
63 -56 204 -118 285 -124 17 -1 36 -8 43 -15 19 -19 92 -17 92 2 0 8 5 15 10
15 6 0 10 -11 10 -25 0 -14 6 -27 13 -29 114 -31 136 -39 277 -104 64 -29 147
-113 178 -180 23 -49 27 -72 29 -167 1 -60 -1 -122 -4 -137 -8 -40 -47 -78
-80 -78 -45 0 -103 -20 -103 -35 0 -25 -25 -22 -42 7 -21 34 -63 39 -73 8 -7
-23 -23 -25 -50 -7 -11 8 -30 16 -43 20 -19 4 -24 1 -29 -25 l-6 -30 -20 31
c-18 29 -20 30 -33 14 -11 -15 -13 -16 -14 -2 0 12 -12 15 -59 15 -42 -1 -57
-4 -54 -13 7 -18 -12 -16 -28 3 -12 14 -26 15 -99 9 -98 -9 -86 -9 -252 -4
-73 2 -132 -1 -137 -6 -5 -6 -10 -32 -11 -60 -3 -65 0 -113 7 -97 2 6 11 12
19 12 8 0 14 5 14 10 0 6 7 10 16 10 13 0 15 -7 12 -32 -3 -18 -8 -41 -13 -51
-11 -26 46 -23 71 4 16 18 19 19 24 3 4 -11 21 -18 51 -21 51 -5 207 15 214
27 3 5 19 2 36 -7 27 -14 32 -14 49 2 17 15 21 15 48 1 22 -11 57 -16 121 -15
97 2 104 6 75 47 -9 13 -14 26 -11 28 9 10 59 -29 68 -53 11 -29 36 -30 42 0
l4 22 2 -22 c1 -21 6 -23 56 -23 32 0 55 4 55 11 0 6 9 8 21 4 19 -6 21 -4 15
16 -17 60 -14 78 4 28 l21 -57 72 -6 c82 -8 188 6 223 29 28 18 37 51 71 240
32 182 45 293 39 327 -4 20 -2 26 8 22 8 -3 18 7 26 26 8 20 22 32 39 36 14 3
36 10 49 15 13 5 35 6 49 3 29 -8 191 15 199 28 3 4 15 8 27 8 27 0 96 31 127
56 47 39 105 106 118 137 7 18 15 50 17 72 2 22 8 53 15 69 6 16 15 54 19 85
38 242 36 220 12 237 -23 17 -20 37 5 27 30 -11 48 59 22 85 -9 9 -10 15 -2
20 14 9 30 62 38 122 16 121 35 156 104 200 12 8 14 13 5 16 -18 8 -16 24 2
24 8 0 15 -4 15 -10 0 -17 49 -11 68 8 13 13 29 18 51 14 23 -3 38 1 54 16 12
11 31 22 41 24 10 1 28 20 39 42 16 31 18 42 9 57 -15 23 -15 32 -2 24 13 -8
13 125 0 185 -6 25 -17 61 -24 80 -8 19 -27 67 -41 105 -15 39 -33 84 -41 100
-172 380 -218 514 -232 670 -6 66 -13 129 -16 140 -2 11 -5 30 -5 43 -1 17 -7
22 -26 22 -14 0 -25 5 -25 10 0 6 12 10 26 10 19 0 24 4 20 18 -2 9 -8 33 -11
52 -4 19 -18 54 -31 76 -13 23 -22 43 -19 45 2 2 -8 5 -21 5 -13 1 -21 -2 -18
-7z"/>
<path d="M3590 3959 c0 -5 -8 -9 -18 -9 -18 0 -72 -54 -72 -72 0 -6 7 -16 16
-23 15 -10 15 -13 2 -26 -12 -11 -13 -20 -5 -44 14 -42 27 -54 68 -59 32 -4
36 -2 32 15 -3 10 0 19 6 19 6 0 11 -9 11 -20 0 -18 7 -20 54 -20 82 0 106 12
106 53 0 25 -13 51 -50 100 -28 37 -60 72 -73 78 -27 15 -77 20 -77 8z"/>
<path d="M2232 3857 c-26 -32 -55 -95 -54 -119 0 -15 -4 -30 -9 -33 -5 -4 -9
0 -9 7 -1 18 -23 -12 -72 -97 -22 -38 -51 -86 -63 -105 -33 -50 -70 -115 -109
-190 -42 -81 -57 -108 -80 -142 -20 -31 -14 -67 12 -69 9 -1 66 -3 125 -4
l108 -2 35 42 c19 23 34 48 34 56 0 8 7 23 15 33 20 26 10 36 -35 36 -76 0
-77 15 -1 20 l75 5 30 62 c28 54 37 64 87 88 63 30 87 59 69 80 -12 15 -4 39
10 30 4 -3 19 4 31 15 l24 19 -32 1 c-46 0 -49 16 -6 30 54 17 60 26 37 52
-26 29 -25 36 12 94 35 55 56 94 52 95 -2 0 -64 3 -139 5 -101 3 -139 1 -147
-9z"/>
<path d="M3355 3810 c-58 -6 -53 -9 27 -15 25 -1 35 -15 12 -16 -10 0 -28 -2
-39 -4 -11 -3 -35 0 -52 5 -33 8 -33 8 -33 -26 0 -29 -3 -34 -18 -30 -28 9
-46 -29 -32 -65 7 -16 17 -26 23 -22 6 3 7 1 3 -5 -11 -18 62 -149 86 -156 27
-7 38 0 38 25 0 10 6 19 13 20 6 0 -4 5 -23 11 -31 9 -33 11 -15 19 11 4 30 8
43 8 39 2 23 21 -17 21 -22 0 -42 4 -46 9 -10 18 14 22 57 11 39 -11 43 -10
60 12 10 12 27 41 38 63 16 32 17 42 7 55 -7 8 -20 32 -30 53 -9 20 -22 36
-29 35 -7 -1 -40 -4 -73 -8z"/>
<path d="M3538 3668 c-21 -17 -87 -118 -133 -203 -21 -38 -42 -75 -47 -81 -5
-7 -56 -13 -126 -16 -123 -4 -173 -19 -179 -50 -7 -40 -9 -47 -19 -59 -5 -8
-16 -32 -23 -54 -26 -82 -34 -95 -82 -126 -27 -17 -46 -35 -43 -41 3 -5 -3
-12 -15 -15 -12 -3 -21 -9 -21 -14 0 -5 -15 -23 -34 -41 -31 -31 -186 -266
-186 -283 0 -4 27 -5 60 -2 37 4 60 3 60 -3 0 -6 -31 -10 -71 -10 l-71 0 7
-52 c4 -29 11 -57 16 -62 5 -6 9 -16 9 -24 0 -20 60 -103 70 -97 4 3 11 -3 14
-12 9 -23 23 -8 80 84 53 86 63 113 46 123 -7 4 -9 13 -5 19 5 9 10 8 19 -4
10 -14 23 2 91 117 43 73 84 142 90 153 68 127 115 188 132 172 6 -7 6 -8 -50
-104 -23 -40 -71 -123 -106 -185 -35 -62 -68 -114 -73 -116 -4 -2 -8 -8 -8
-14 0 -5 -13 -29 -30 -53 -16 -24 -30 -47 -30 -50 0 -4 -9 -19 -19 -33 -10
-15 -33 -55 -51 -90 l-32 -63 24 -19 c26 -22 58 -26 75 -9 8 8 13 8 17 0 8
-12 103 -15 130 -5 9 3 16 12 16 20 0 8 9 14 19 14 13 0 30 18 49 53 17 28 40
70 53 92 12 22 33 62 46 88 13 27 38 70 56 97 40 59 84 135 166 285 18 33 37
65 41 70 4 6 21 35 37 65 17 30 47 83 67 117 20 34 36 66 36 72 0 6 5 11 11
11 6 0 9 8 7 17 -3 14 -12 17 -51 14 -29 -1 -47 2 -47 8 0 7 22 11 54 11 36 0
60 5 70 16 19 19 20 31 4 37 -7 3 -3 6 10 6 12 1 22 5 22 10 0 5 6 16 13 23
18 19 73 128 81 161 5 23 3 29 -19 37 -39 15 -208 13 -227 -2z"/>
<path d="M3120 3643 c8 -2 21 -7 29 -9 11 -4 12 -7 3 -16 -7 -7 -12 -23 -12
-36 0 -19 -4 -23 -17 -17 -10 5 -33 10 -51 13 -22 3 -32 9 -28 18 3 8 0 11
-10 7 -19 -7 -18 -20 2 -31 13 -7 14 -13 5 -31 -15 -27 1 -86 25 -95 26 -10
52 -7 56 6 4 10 10 10 32 0 34 -15 116 -16 116 -1 0 6 -14 40 -32 76 -35 73
-82 123 -112 122 -14 0 -16 -2 -6 -6z"/>
<path d="M2823 3330 c-13 -5 -33 -11 -45 -13 -54 -9 -76 -28 -81 -71 -5 -46 1
-57 29 -56 10 0 40 0 67 0 34 -1 47 3 47 13 0 8 11 18 24 21 30 7 41 48 24 87
-13 30 -27 34 -65 19z"/>
<path d="M2258 3277 c-14 -17 -38 -54 -53 -82 -16 -27 -32 -52 -35 -55 -3 -3
-11 -17 -19 -32 -13 -26 -12 -32 12 -75 23 -43 30 -49 69 -54 55 -8 80 11 48
38 -21 18 -27 43 -10 43 5 0 7 6 4 13 -3 8 9 43 25 78 31 67 34 90 13 111 -7
7 -12 18 -12 24 0 27 -19 23 -42 -9z"/>
<path d="M1823 3048 c-18 -30 7 -79 36 -71 24 6 36 -13 21 -32 -6 -8 -9 -19
-5 -25 5 -8 23 3 51 31 24 23 47 40 51 36 4 -4 -15 -29 -41 -56 l-49 -49 21
-29 c11 -15 29 -36 39 -45 19 -17 20 -17 41 12 20 27 28 30 75 29 29 0 45 -3
37 -6 -8 -4 -21 -12 -28 -19 -11 -11 -8 -15 13 -20 14 -3 41 -3 61 1 l36 6 -6
50 c-4 28 -23 84 -44 125 l-36 74 -133 0 c-95 0 -134 -4 -140 -12z"/>
<path d="M2364 303 c-36 -4 -42 -8 -50 -35 -13 -44 -31 -46 -26 -3 4 31 1 35
-18 35 -42 0 -50 -22 -60 -154 -4 -69 -11 -130 -15 -136 -4 -6 12 -10 44 -10
42 0 51 3 51 18 0 9 5 24 10 32 7 11 8 6 4 -17 l-6 -33 56 0 c32 0 55 3 53 8
-3 4 4 52 14 107 24 134 25 196 2 193 -10 -1 -37 -3 -59 -5z"/>
<path d="M2470 292 c0 -10 -4 -22 -10 -28 -5 -5 -14 -56 -19 -114 -6 -58 -14
-115 -17 -127 -5 -17 -2 -23 10 -23 9 0 16 8 16 19 0 11 5 23 11 27 9 5 10 -1
5 -20 l-6 -26 108 0 109 0 6 147 c3 82 3 151 0 155 -2 5 -51 8 -109 8 -93 0
-104 -2 -104 -18z"/>
<path d="M2760 292 c0 -12 -4 -22 -10 -22 -5 0 -10 -18 -10 -41 0 -32 -3 -40
-15 -35 -12 4 -15 -5 -15 -54 0 -32 -4 -62 -10 -65 -5 -3 -10 -22 -10 -41 l0
-34 186 0 187 0 -6 45 c-4 25 -9 57 -12 72 -4 26 -4 26 5 -2 5 -16 14 -49 20
-72 8 -33 16 -43 31 -43 18 0 19 4 13 50 -4 32 -3 50 4 50 5 0 13 -22 17 -50
l7 -50 50 0 51 0 -7 32 c-3 17 -17 54 -30 82 -13 28 -29 71 -35 96 -18 70 -32
100 -47 100 -18 0 -18 -29 2 -85 17 -53 12 -87 -6 -37 -7 17 -16 32 -20 32 -5
0 -10 19 -12 43 l-3 42 -45 0 -45 0 2 -55 2 -55 -12 54 c-16 72 -37 80 -37 14
0 -35 -3 -44 -10 -33 -5 8 -10 25 -10 38 0 13 -6 22 -15 22 -11 0 -15 -12 -16
-42 -1 -47 -4 -43 -14 15 -5 33 -9 37 -37 37 l-30 0 4 -60 c2 -33 2 -60 -1
-60 -4 0 -12 23 -19 52 -14 59 -42 99 -42 60z"/>
</g>
</svg>
