<?xml version="1.0" standalone="no"?>
<!DOCTYPE svg PUBLIC "-//W3C//DTD SVG 20010904//EN"
 "http://www.w3.org/TR/2001/REC-SVG-20010904/DTD/svg10.dtd">
<svg version="1.0" xmlns="http://www.w3.org/2000/svg"
 width="544.000000pt" height="544.000000pt" viewBox="0 0 544.000000 544.000000"
 preserveAspectRatio="xMidYMid meet">
<metadata>
Created by potrace 1.16, written by Peter Selinger 2001-2019
</metadata>
<g transform="translate(0.000000,544.000000) scale(0.100000,-0.100000)"
fill="#000000" stroke="none">
<path d="M0 4626 l0 -814 48 -15 c26 -9 62 -19 80 -22 66 -13 24 -15 -51 -2
l-77 13 0 -42 c0 -42 1 -43 38 -49 20 -4 46 -9 57 -13 11 -3 30 -5 43 -3 12 1
45 -5 73 -14 73 -25 49 -40 -32 -21 -81 18 -186 31 -177 21 4 -4 33 -13 65
-20 l58 -13 -62 -1 c-48 -1 -63 -5 -63 -15 0 -9 17 -19 43 -24 l42 -10 -42 -1
-43 -1 0 -329 0 -328 84 -5 c46 -3 97 -13 112 -21 115 -61 209 -91 223 -69 3
5 19 12 36 13 16 2 38 12 48 22 21 21 52 19 52 -3 0 -18 44 -18 125 -1 30 7
70 15 89 18 33 5 33 6 27 51 -3 25 -11 51 -17 58 -9 11 -8 14 1 14 7 0 10 10
6 28 -2 15 -8 48 -11 75 -5 38 -10 47 -26 47 -10 0 -19 5 -19 10 0 6 7 10 15
10 12 0 15 13 15 61 0 53 -2 60 -17 55 -10 -3 -25 -1 -33 4 -13 8 -12 10 5 11
11 1 26 2 33 2 10 -1 12 23 10 101 -3 97 -4 101 -26 104 -33 5 -27 47 7 47 22
0 24 4 27 75 2 41 8 86 14 100 5 14 14 56 19 94 9 61 8 71 -7 84 -16 12 -15
13 5 9 19 -4 23 2 34 47 6 28 17 62 25 76 7 15 14 39 17 55 2 17 7 38 12 48 4
10 2 23 -5 32 -10 12 -10 15 2 15 21 0 44 30 51 65 5 26 1 33 -24 47 -44 26
-37 40 18 36 39 -2 48 0 51 15 3 12 -6 21 -27 28 -27 9 -31 16 -31 47 0 33 1
34 18 19 10 -10 24 -17 31 -17 22 0 88 39 95 55 8 23 8 25 -8 25 -18 0 -39 27
-31 40 4 7 18 4 41 -10 27 -17 34 -19 34 -7 0 8 -7 20 -15 27 -22 18 -18 32 5
20 31 -17 64 5 56 36 -9 33 1 49 20 33 20 -17 18 5 -3 38 -17 26 -17 26 5 12
18 -11 24 -12 31 -1 4 7 15 10 24 6 9 -3 17 -2 17 2 0 5 14 24 31 42 30 32 30
33 14 59 -14 20 -19 23 -26 12 -7 -12 -11 -11 -26 3 -19 20 -11 37 10 20 8 -7
17 -9 20 -6 3 3 18 -3 34 -14 l28 -20 41 37 c66 58 70 74 38 129 -18 31 -22
42 -10 33 9 -8 24 -27 32 -43 14 -27 44 -39 44 -18 0 19 -32 60 -47 60 -19 0
-13 34 7 38 10 2 23 -13 35 -38 19 -39 21 -40 40 -25 19 15 19 15 1 13 -10 -2
-21 3 -23 10 -3 6 1 12 7 12 7 0 9 8 5 20 -4 11 -2 20 4 20 6 0 11 6 11 14 0
7 7 19 15 26 19 16 19 0 1 -26 -31 -41 36 -67 81 -31 10 7 9 16 -5 39 -21 36
-5 50 42 37 39 -11 36 -12 36 5 0 8 -6 16 -14 19 -17 7 -26 41 -15 58 11 18
23 4 39 -43 14 -46 24 -53 44 -33 13 13 13 20 3 35 -6 11 -18 19 -27 17 -10
-1 -20 14 -30 43 -8 25 -33 87 -55 138 -34 79 -42 92 -63 92 -19 0 -23 -4 -17
-17 16 -40 15 -56 -2 -23 -13 26 -26 36 -47 38 -18 2 -26 0 -21 -7 8 -14 -1
-14 -26 0 -18 9 -19 8 -7 -10 6 -11 16 -17 22 -14 5 3 6 1 2 -5 -9 -15 36 -79
108 -157 31 -32 56 -63 56 -67 0 -22 -26 0 -81 70 -65 82 -86 100 -74 61 7
-23 56 -107 91 -156 9 -13 12 -23 6 -23 -6 0 -13 9 -17 20 -3 11 -21 32 -39
47 -40 34 -108 148 -77 129 9 -6 -12 63 -30 96 -5 10 -16 18 -24 18 -18 0 -18
-2 0 -48 l15 -37 -36 40 c-39 44 -36 31 5 -25 32 -42 63 -92 91 -145 l21 -40
-23 25 c-13 14 -31 37 -40 50 -14 19 -16 20 -11 5 6 -17 5 -18 -10 -7 -29 24
3 -44 45 -95 21 -25 38 -50 38 -57 0 -14 -29 21 -75 92 -37 56 -51 66 -39 30
14 -46 -44 22 -102 119 l-55 93 -605 0 -604 0 0 -814z m651 717 c54 -59 161
-193 153 -193 -4 0 -31 26 -61 58 -54 57 -54 57 -25 12 45 -67 132 -157 138
-142 3 6 10 12 14 12 14 0 31 -37 24 -54 -8 -21 -72 33 -181 154 -85 95 -129
162 -118 180 10 16 19 12 56 -27z m-30 -90 c34 -32 93 -95 132 -141 38 -46 80
-87 92 -92 25 -9 41 -32 46 -65 2 -11 14 -31 27 -45 34 -37 46 -60 30 -60 -19
0 -68 48 -68 66 0 17 -57 104 -68 104 -4 0 -23 14 -42 31 -19 17 -48 38 -65
46 l-30 16 25 -28 c14 -16 18 -24 10 -20 -13 8 -13 7 -1 -8 15 -19 36 -24 25
-6 -9 15 29 -5 44 -24 13 -16 6 -47 -10 -47 -6 0 -24 15 -40 33 -17 17 -48 41
-69 52 -55 28 -168 132 -167 153 0 9 -3 25 -7 36 -7 16 -6 17 15 6 13 -7 44
-31 69 -53 30 -27 37 -31 20 -12 -44 51 -71 94 -64 105 12 20 35 9 96 -47z
m-91 -108 c25 -26 68 -62 97 -80 52 -35 103 -88 103 -107 0 -6 -21 7 -47 28
-74 58 -81 62 -39 16 22 -23 37 -45 33 -49 -7 -7 -29 11 -119 96 -27 25 -48
42 -48 38 0 -4 -11 0 -25 9 -14 9 -23 19 -20 22 3 3 14 -3 25 -13 11 -10 20
-14 20 -10 0 4 -18 23 -40 42 -41 35 -50 58 -27 66 17 6 36 -6 87 -58z m-90
-1 c13 -13 19 -24 12 -24 -6 0 38 -45 98 -101 61 -56 120 -114 131 -131 12
-16 23 -27 26 -24 3 2 -4 15 -16 27 -28 31 -26 41 6 37 31 -3 67 -58 44 -66
-8 -3 -5 -12 10 -28 22 -24 14 -35 -9 -12 -9 9 -12 9 -12 0 0 -7 27 -40 60
-74 33 -35 60 -64 60 -65 0 -13 -56 34 -200 167 -137 127 -166 150 -183 150
-9 0 -19 5 -22 10 -4 6 -3 10 2 9 24 -4 22 4 -6 33 -18 18 -34 44 -38 58 -3
14 -15 36 -27 49 l-21 24 30 -7 c17 -4 41 -18 55 -32z m-97 -92 c63 -27 117
-65 117 -83 0 -5 -8 -6 -17 -2 -11 4 -5 -8 15 -29 19 -20 39 -35 46 -34 13 1
91 -63 84 -69 -2 -3 -22 7 -44 21 l-39 25 40 -36 c35 -32 37 -35 13 -26 -15 6
-49 26 -75 45 -26 20 -64 45 -83 55 -19 11 -64 47 -100 80 -53 50 -62 62 -50
71 20 13 17 14 93 -18z"/>
<path d="M1620 5428 c0 -7 6 -25 14 -39 7 -15 21 -49 30 -77 20 -59 70 -138
97 -153 23 -12 23 -9 4 38 -8 20 -14 38 -11 40 2 2 9 -10 16 -26 7 -17 19 -36
28 -43 10 -9 13 -9 9 -1 -4 6 -3 14 2 17 5 4 12 2 16 -4 10 -16 33 -12 37 8 3
9 -2 34 -9 56 -17 50 -16 54 2 30 15 -18 16 -17 10 16 l-6 35 21 -24 c11 -13
20 -31 20 -41 0 -53 23 -63 63 -26 23 21 25 28 17 57 -5 19 -12 60 -15 92 l-6
57 -144 0 -144 0 5 -32 5 -33 -17 33 c-16 31 -44 44 -44 20z"/>
<path d="M2320 5423 c0 -30 13 -41 64 -54 40 -10 50 -10 57 2 7 11 9 11 9 1 0
-9 10 -12 27 -10 20 2 29 11 37 36 13 38 26 33 26 -10 0 -15 5 -28 10 -28 6 0
10 11 10 25 0 30 16 33 25 5 5 -16 15 -20 50 -20 44 0 55 10 55 51 0 17 -8 19
-101 19 -92 0 -102 -2 -120 -22 -17 -21 -25 -16 -20 15 0 4 -28 7 -64 7 -55 0
-65 -3 -65 -17z"/>
<path d="M2824 5416 c-3 -14 -3 -30 1 -35 10 -17 75 -13 81 4 9 22 23 19 50
-10 13 -14 34 -25 48 -25 13 0 31 -3 40 -6 12 -5 18 2 22 25 4 17 10 28 15 26
4 -3 6 -12 2 -20 -3 -8 0 -15 5 -15 6 0 13 6 15 13 2 6 3 1 1 -13 -2 -24 2
-27 74 -44 43 -10 86 -17 97 -15 12 2 29 22 41 48 25 52 40 40 19 -15 -9 -24
-10 -32 -2 -21 36 54 37 54 31 7 l-6 -46 41 -19 c53 -24 64 -14 91 80 33 117
69 105 -320 105 l-340 0 -6 -24z"/>
<path d="M3531 5422 c-12 -22 -41 -134 -41 -157 0 -9 5 -13 10 -10 13 8 13 -8
0 -21 -6 -6 -3 -14 10 -22 19 -11 22 -8 44 40 27 60 33 47 11 -24 -8 -27 -10
-48 -6 -48 17 0 40 39 76 130 21 52 42 99 46 105 18 18 8 26 -28 23 -34 -3
-40 -8 -60 -48 -26 -52 -31 -41 -7 16 18 45 11 40 -23 -13 -20 -32 -24 -34
-20 -13 2 14 8 33 12 43 10 23 -11 22 -24 -1z"/>
<path d="M3658 5333 c-58 -126 -68 -167 -43 -177 19 -7 65 17 65 34 0 6 5 10
10 10 15 0 12 -26 -5 -40 -8 -7 -15 -18 -15 -24 0 -12 88 -56 112 -56 25 0 58
44 58 77 0 36 16 46 41 25 15 -13 14 -19 -19 -74 -34 -58 -39 -83 -9 -53 22
22 28 19 17 -10 -5 -14 -6 -25 -1 -25 5 0 11 7 15 15 3 8 13 15 22 15 16 0 16
-2 -3 -47 -6 -15 36 -21 65 -8 12 5 25 18 28 28 3 9 10 17 16 17 6 0 6 -6 -2
-15 -7 -8 -10 -24 -7 -36 3 -12 -1 -33 -10 -46 l-16 -25 36 16 c42 17 44 15
21 -19 -27 -42 -3 -28 58 32 32 32 58 53 58 47 0 -12 -37 -54 -48 -54 -9 0
-42 -70 -42 -87 0 -20 27 -21 44 -2 13 16 19 17 30 7 9 -8 11 -17 5 -22 -13
-15 -11 -36 4 -36 14 0 49 -33 45 -41 -2 -3 26 23 61 58 35 35 67 63 71 63 14
0 193 156 228 200 18 22 40 40 48 40 17 0 18 -12 3 -27 -6 -6 -9 -17 -7 -24 2
-7 14 3 26 23 23 37 69 74 79 64 4 -3 -2 -16 -13 -27 l-19 -22 25 13 c22 11
20 8 -9 -24 -19 -20 -40 -36 -46 -36 -14 0 -93 -87 -107 -117 -6 -12 -23 -27
-39 -33 -16 -7 -26 -16 -24 -21 5 -7 -39 -59 -50 -59 -11 0 10 32 26 41 11 5
17 14 13 20 -3 5 2 21 11 35 16 24 16 25 -3 15 -27 -14 -45 -38 -37 -51 4 -6
1 -9 -7 -8 -7 2 -12 -3 -10 -10 1 -8 -2 -11 -7 -8 -5 3 -34 -21 -64 -54 -31
-33 -62 -60 -69 -60 -7 0 10 23 37 50 70 71 41 62 -34 -10 l-62 -61 23 -24
c22 -23 23 -23 52 -7 16 9 31 26 34 37 5 19 6 18 12 -3 l5 -24 28 26 c31 28
58 36 37 11 -27 -33 0 -24 38 12 44 42 46 43 67 43 8 0 33 16 55 36 22 20 40
33 40 30 0 -4 21 7 46 26 32 23 47 29 53 20 5 -8 24 2 61 34 35 30 56 42 59
33 2 -7 -11 -24 -28 -38 -18 -14 -58 -49 -89 -77 -31 -28 -78 -66 -104 -84
-60 -42 -63 -60 -5 -25 44 25 77 32 77 16 0 -24 -154 -131 -168 -117 -3 4 -1
16 6 27 12 20 12 20 -20 3 -44 -22 -89 -65 -81 -77 3 -6 -2 -16 -12 -24 -15
-10 -16 -16 -7 -25 9 -9 12 -8 12 5 0 9 11 19 25 23 30 8 46 -3 25 -16 -12 -8
-10 -10 7 -10 12 0 25 -4 28 -10 12 -19 41 -10 82 29 24 21 68 51 99 65 31 15
85 47 121 71 36 25 68 43 71 41 11 -12 -105 -95 -208 -149 -25 -13 -49 -33
-55 -45 -5 -12 -13 -22 -17 -22 -5 0 -8 -5 -8 -11 0 -8 4 -8 13 -2 16 14 129
55 134 50 2 -3 -11 -17 -29 -33 -41 -36 -40 -67 0 -58 15 4 56 20 91 35 35 16
70 29 78 29 25 0 8 -24 -31 -46 -25 -14 -33 -24 -25 -27 10 -4 9 -6 -3 -6 -9
-1 -20 -5 -23 -11 -4 -7 3 -7 20 0 15 6 41 10 58 11 18 0 26 3 19 6 -9 3 2 16
30 37 64 46 117 96 124 118 3 11 8 17 11 14 3 -3 20 6 36 20 17 14 41 30 54
35 13 5 23 13 23 18 0 5 14 14 30 21 45 19 141 7 200 -24 27 -14 52 -26 55
-26 3 0 5 169 5 375 l0 375 -586 0 -585 0 -19 -42 c-10 -24 -36 -61 -56 -83
-54 -58 -134 -166 -134 -181 0 -7 6 -14 13 -17 8 -3 1 -16 -21 -38 -23 -24
-31 -28 -26 -14 7 20 7 20 -14 1 -29 -25 -28 -13 2 27 13 18 28 47 34 65 6 19
23 47 37 64 17 20 24 38 20 52 -2 11 -2 15 1 8 5 -10 9 -10 20 -1 8 6 14 16
14 21 0 6 -7 5 -15 -2 -15 -13 -21 -2 -7 16 4 5 -3 -2 -15 -16 -13 -14 -39
-56 -58 -95 -49 -96 -79 -145 -87 -145 -15 0 -8 18 26 67 18 26 37 60 41 73 4
14 13 32 19 40 6 8 -6 0 -28 -18 -21 -18 -41 -31 -44 -28 -3 3 11 27 32 52 20
26 36 52 36 58 0 6 -8 -1 -17 -14 -9 -14 -32 -43 -50 -64 -18 -22 -29 -42 -24
-46 5 -3 1 -16 -9 -30 l-18 -24 3 39 c3 45 15 75 50 124 26 35 35 65 13 43 -7
-7 -20 -12 -30 -12 -11 0 -18 -7 -18 -18 0 -10 -16 -33 -35 -52 -19 -19 -35
-31 -35 -27 0 8 -49 -40 -78 -77 -14 -19 -22 -23 -22 -13 0 9 5 19 10 22 6 4
24 34 42 68 17 34 36 66 43 72 7 5 28 40 48 78 37 67 37 67 13 67 -19 0 -28
-10 -46 -55 -12 -31 -27 -58 -32 -61 -13 -8 -2 29 23 79 10 20 15 37 10 37 -5
0 -14 -14 -21 -30 -17 -41 -27 -45 -22 -9 4 25 2 28 -14 22 -11 -3 -23 -11
-27 -17 -5 -7 -7 -2 -4 12 4 16 1 22 -13 22 -12 0 -27 -22 -50 -74 -18 -41
-41 -83 -51 -92 -27 -24 -24 -14 21 76 46 91 45 90 24 90 -10 0 -33 -38 -66
-107z"/>
<path d="M2583 5266 c-16 -21 -20 -22 -39 -10 -18 12 -31 12 -87 0 -37 -7 -68
-11 -71 -9 -11 11 -15 -38 -7 -83 5 -27 7 -69 4 -94 -5 -37 -4 -42 10 -37 10
4 17 2 17 -2 0 -5 16 -4 35 2 29 9 36 16 41 46 10 61 18 68 22 19 2 -27 7 -48
13 -48 5 0 9 5 9 11 0 8 4 8 14 0 8 -6 39 -11 70 -10 54 2 56 3 56 30 0 15 3
34 6 43 11 29 24 16 24 -24 l0 -40 69 0 68 0 -5 50 c-3 30 -1 50 6 50 13 0 24
-45 16 -74 -5 -20 0 -24 38 -35 24 -7 55 -11 68 -9 14 1 50 -3 80 -10 30 -7
87 -18 125 -26 l70 -13 3 38 c3 38 4 38 26 24 12 -8 26 -12 31 -8 4 5 5 -5 1
-20 -11 -45 1 -70 30 -63 20 5 23 3 21 -16 -2 -20 3 -23 30 -23 17 0 31 -4 30
-8 -1 -5 16 -16 38 -25 22 -9 52 -25 65 -34 13 -10 30 -18 37 -18 7 0 29 -11
49 -25 20 -14 39 -23 41 -21 2 2 15 -7 29 -21 24 -24 26 -24 44 -8 23 21 34 6
25 -35 -7 -33 -4 -36 25 -17 17 10 22 9 30 -3 5 -8 6 -18 3 -23 -5 -8 13 -27
97 -100 38 -34 47 -38 79 -32 35 7 35 6 18 -12 -9 -11 -17 -24 -16 -29 1 -17
61 -57 87 -58 22 -1 28 -7 32 -31 5 -27 9 -30 38 -27 18 1 32 -2 32 -7 0 -5
21 -2 46 8 34 12 52 25 65 51 23 41 9 56 -32 34 -40 -20 -44 -18 -23 14 15 23
15 25 1 13 -9 -7 -17 -10 -17 -6 0 4 -7 2 -15 -5 -25 -21 -30 -2 -7 23 24 26
27 39 12 67 -9 17 -13 17 -38 4 -15 -7 -33 -14 -40 -14 -21 0 -9 34 16 45 21
9 28 25 16 37 -3 4 -25 -14 -49 -38 -45 -45 -86 -63 -48 -21 11 12 26 32 32
45 6 12 18 22 26 22 24 0 17 19 -15 47 -16 13 -30 31 -30 39 0 8 -4 14 -8 14
-11 0 -48 -39 -46 -49 1 -3 -2 -15 -7 -26 -5 -14 -8 -16 -8 -4 -1 9 2 19 6 23
4 3 8 14 9 24 1 9 6 28 10 42 l7 25 -27 -24 c-28 -26 -33 -22 -15 11 13 24 5
35 -14 19 -31 -25 -91 5 -92 46 0 20 -4 27 -15 24 -8 -2 -24 -4 -35 -5 -20 -1
-20 1 -7 49 5 18 4 19 -13 5 -11 -9 -16 -10 -11 -2 12 20 -4 14 -25 -10 l-20
-23 6 40 c5 34 2 42 -16 54 -21 12 -25 11 -42 -10 l-19 -23 8 38 c6 35 5 39
-11 32 -10 -4 -22 -2 -25 5 -5 7 -14 0 -26 -20 -10 -17 -22 -31 -26 -31 -11 0
-9 11 7 40 8 14 14 29 15 34 0 12 -68 -61 -82 -87 -5 -10 -12 -16 -15 -13 -7
6 13 38 51 81 27 31 32 45 17 45 -5 0 -16 3 -25 6 -11 4 -17 -2 -22 -23 -8
-35 -22 -53 -40 -53 -12 0 -12 5 1 30 21 40 19 47 -13 54 -18 5 -32 17 -41 38
l-14 32 -10 -25 c-5 -13 -13 -46 -18 -74 -8 -48 -8 -47 -5 18 3 52 1 67 -10
67 -8 0 -14 -9 -14 -20 0 -11 -5 -20 -11 -20 -6 0 -8 9 -4 20 4 11 2 20 -4 20
-6 0 -11 8 -12 18 0 9 -7 -2 -16 -26 -19 -53 -27 -49 -15 6 6 23 7 43 4 46
-12 13 -32 -19 -32 -51 0 -19 -4 -32 -9 -29 -5 3 -7 16 -4 29 4 21 3 21 -11
-3 -18 -30 -20 -16 -5 29 10 27 9 36 -4 49 -18 18 -170 45 -175 31 -5 -13 -22
-11 -38 6 -9 8 -25 15 -37 16 -12 0 -55 4 -95 8 -80 8 -106 0 -97 -29 7 -22
-10 -60 -26 -60 -7 0 -9 10 -5 26 4 14 4 34 1 45 -8 23 -70 37 -96 21 -13 -8
-26 -9 -44 -2 -37 14 -42 13 -62 -14z"/>
<path d="M2000 5112 c0 -10 12 -29 26 -41 21 -18 24 -25 13 -32 -22 -14 -26
-11 -51 32 l-23 41 -22 -27 c-13 -14 -23 -21 -23 -16 0 6 -7 11 -15 11 -17 0
-20 -16 -5 -25 6 -3 10 -15 10 -25 0 -23 -28 -16 -48 12 -14 19 -42 25 -42 8
0 -5 -7 -10 -15 -10 -9 0 -18 -7 -21 -15 -4 -8 -17 -15 -30 -15 -29 0 -29 0
-4 -43 l21 -35 -21 -5 c-14 -4 -26 3 -42 25 -17 25 -23 28 -32 17 -6 -8 -28
-22 -48 -33 -54 -27 -109 -81 -102 -99 3 -10 -2 -20 -15 -26 -11 -7 -25 -26
-30 -44 -5 -17 -10 -24 -10 -14 -1 10 4 27 9 37 17 33 -6 31 -49 -3 -34 -27
-39 -36 -35 -59 6 -29 -1 -34 -24 -19 -9 5 -25 -4 -50 -28 -29 -28 -36 -42
-33 -64 2 -15 -1 -27 -5 -26 -23 4 -36 -5 -69 -48 -20 -26 -33 -53 -30 -61 6
-17 -13 -44 -25 -37 -5 3 -11 -4 -15 -15 -3 -11 -11 -20 -16 -20 -5 0 -9 -9
-9 -19 0 -11 -4 -23 -10 -26 -5 -3 -10 -15 -10 -26 0 -11 -7 -22 -15 -25 -12
-5 -13 -10 -4 -20 9 -11 7 -14 -10 -14 -13 0 -25 -9 -30 -22 -5 -13 -21 -40
-35 -61 -29 -43 -32 -53 -13 -60 8 -4 7 -6 -4 -6 -8 -1 -25 -21 -37 -46 l-22
-45 22 -20 c12 -11 25 -20 30 -20 4 0 8 -6 8 -14 0 -12 -7 -13 -32 -5 -33 9
-40 7 -45 -14 -1 -7 -18 -73 -36 -147 -19 -74 -34 -153 -33 -175 2 -34 5 -41
25 -43 l24 -4 -25 -21 c-22 -20 -25 -32 -31 -124 -5 -67 -4 -103 3 -103 15 0
11 -42 -5 -64 -20 -27 -19 -53 4 -61 15 -5 19 -19 23 -87 3 -49 10 -84 16 -86
7 -2 12 -10 12 -18 0 -8 12 -20 27 -27 15 -6 42 -27 60 -44 18 -18 36 -33 42
-33 19 0 71 27 64 33 -3 4 -2 7 4 7 10 0 10 18 5 127 -1 23 -9 49 -18 58 -13
12 -14 19 -5 28 14 14 14 28 0 25 -6 -2 -14 3 -16 10 -3 6 2 12 11 12 12 0 14
10 10 53 -3 28 -10 65 -15 81 -6 19 -6 33 1 40 15 15 12 73 -5 90 -19 19 -19
26 0 26 15 0 17 4 20 51 1 14 5 31 8 36 4 6 -3 13 -14 16 -12 3 -18 10 -15 16
4 6 13 8 21 5 10 -4 15 7 20 43 9 60 73 310 85 334 6 10 7 25 4 33 -4 11 2 19
20 26 23 8 28 15 25 36 0 4 3 10 8 13 16 11 53 109 47 125 -4 10 -1 16 9 16
20 0 33 38 18 53 -18 18 -13 25 14 19 27 -5 32 7 13 26 -6 6 -8 15 -4 19 4 4
12 0 18 -10 9 -17 12 -16 34 14 13 18 24 39 24 46 0 7 3 13 8 13 4 0 37 27 72
60 36 34 58 58 49 55 -10 -4 -19 0 -23 11 -9 23 0 30 19 14 10 -8 15 -9 15 -1
0 6 7 11 16 11 9 0 29 9 45 21 22 16 29 28 29 55 0 34 29 62 38 36 2 -7 7 -12
11 -12 7 0 59 37 98 70 7 5 17 10 22 10 25 0 40 30 30 62 -11 41 -11 48 1 48
5 0 17 -15 26 -32 10 -19 19 -27 22 -20 2 7 -3 23 -11 36 -9 13 -18 41 -22 62
l-6 39 20 -25 c11 -14 21 -29 21 -35 0 -5 10 -21 21 -34 l20 -24 44 23 c63 33
68 40 49 85 -15 36 -11 63 5 36 7 -11 11 -10 19 5 14 26 8 104 -9 115 -23 14
-39 10 -39 -9z"/>
<path d="M2595 4947 c-11 -5 -27 -13 -35 -17 -8 -4 -19 -16 -25 -26 -5 -10
-16 -19 -24 -19 -8 0 -19 -8 -25 -18 -9 -15 -6 -23 22 -45 18 -15 32 -31 32
-36 0 -9 30 -35 41 -36 4 0 9 9 12 20 6 25 23 26 32 3 4 -11 -1 -23 -12 -33
-20 -16 -19 -38 3 -87 8 -17 14 -36 14 -42 0 -6 11 -17 25 -23 14 -6 25 -15
25 -20 0 -10 49 -58 59 -58 3 0 23 -4 43 -9 22 -5 36 -5 32 0 -3 5 2 9 11 9
11 0 15 -5 11 -15 -3 -8 -2 -14 3 -12 19 5 111 -67 154 -121 53 -68 97 -158
97 -200 0 -41 -18 -87 -56 -146 -19 -28 -34 -59 -34 -68 0 -10 -4 -18 -10 -18
-5 0 -10 -5 -10 -10 0 -6 -11 -28 -25 -49 -29 -44 -46 -96 -38 -117 4 -10 24
-14 79 -14 70 0 74 1 80 24 7 29 32 42 40 21 13 -32 30 -19 62 48 2 4 -16 8
-40 8 -42 2 -42 2 15 12 54 9 61 13 93 57 37 52 100 107 151 134 21 10 70 18
136 22 103 7 104 7 173 -27 38 -18 74 -40 80 -47 17 -23 71 10 82 50 6 23 16
34 32 38 14 3 34 21 45 41 13 23 26 33 38 31 22 -4 23 24 1 32 -10 4 -15 17
-13 38 3 56 0 66 -27 72 -17 5 -24 12 -20 21 3 8 9 22 12 30 3 8 1 15 -5 15
-6 0 -11 7 -11 15 0 8 -4 15 -9 15 -5 0 -17 7 -25 15 -12 12 -20 14 -36 5 -24
-13 -25 -8 -4 31 l15 30 -50 49 c-48 47 -50 47 -67 29 -21 -24 -34 -16 -34 22
0 23 -4 29 -22 29 -12 0 -32 -10 -45 -22 -27 -26 -29 -15 -4 31 18 33 18 34
-7 58 -18 19 -31 23 -52 18 -23 -5 -30 -2 -35 16 -4 12 -19 33 -34 45 -37 33
-143 84 -176 84 -15 0 -33 8 -40 17 -9 12 -28 17 -66 18 l-53 0 -18 -45 c-20
-53 -23 -40 -6 26 12 42 11 47 -7 57 -11 6 -30 12 -42 13 -24 3 -27 -5 -38
-71 -11 -73 -22 -68 -17 8 l4 74 -48 12 c-27 6 -81 13 -121 15 -63 3 -72 1
-76 -16 -7 -24 -27 -23 -27 1 0 18 -7 20 -61 20 l-62 -1 6 -61 c5 -62 5 -62
-9 -27 -35 86 -38 89 -59 77z"/>
<path d="M2093 4808 c1 -8 -7 -12 -24 -10 -48 5 -53 -19 -19 -86 16 -33 30
-66 29 -73 0 -8 -6 -3 -12 11 -7 14 -23 41 -36 60 -39 57 -71 76 -71 44 0 -10
-6 -14 -14 -11 -8 3 -20 0 -26 -8 -6 -7 -25 -19 -43 -26 -51 -21 -86 -61 -80
-92 6 -29 -13 -38 -23 -12 -8 21 -31 19 -36 -3 -3 -10 -15 -18 -26 -19 -25 -2
-88 -70 -84 -90 2 -7 -4 -13 -13 -13 -8 0 -14 -6 -13 -12 2 -7 -7 -14 -19 -16
-29 -4 -67 -57 -60 -82 4 -14 0 -20 -13 -20 -19 0 -34 -25 -24 -41 3 -5 12 -9
20 -9 9 0 14 -10 14 -27 l0 -26 -24 22 c-33 31 -67 23 -84 -21 -16 -42 -6 -50
63 -53 31 -2 59 -5 62 -9 10 -10 -83 -7 -111 4 -22 8 -29 5 -61 -32 -36 -43
-43 -58 -25 -58 6 0 10 -4 10 -10 0 -5 -6 -10 -13 -10 -7 0 -23 -7 -35 -16
-18 -13 -20 -19 -11 -36 8 -16 8 -22 -2 -29 -7 -4 -17 -5 -21 -3 -13 8 -9 -64
5 -86 10 -17 9 -22 -2 -29 -7 -5 -10 -14 -7 -20 5 -7 -2 -11 -17 -11 -22 0
-25 -5 -30 -47 -3 -27 -2 -49 2 -51 5 -1 16 -8 26 -15 15 -12 12 -13 -19 -9
-40 5 -44 0 -50 -63 -2 -22 -6 -47 -9 -55 -3 -8 -8 -43 -12 -77 -5 -56 -4 -63
15 -73 24 -13 26 -35 5 -44 -8 -3 -15 0 -15 6 0 6 -3 9 -6 6 -3 -4 -1 -16 6
-27 7 -15 21 -21 43 -21 18 0 39 -5 47 -11 11 -7 1 -9 -38 -7 l-53 3 6 -65 c8
-90 15 -120 28 -121 7 -1 39 -1 72 -1 l60 1 -64 -9 c-35 -5 -65 -11 -68 -14
-3 -2 0 -29 7 -60 9 -45 17 -59 41 -73 16 -10 29 -21 29 -25 0 -4 3 -7 8 -7 4
1 33 1 65 0 64 -1 69 -14 10 -27 l-38 -7 30 -7 c17 -3 29 -11 27 -18 -1 -7 6
-12 16 -12 10 0 22 -3 26 -7 4 -5 13 -8 19 -8 6 0 17 -11 23 -24 16 -32 32
-41 76 -41 20 0 39 -4 42 -8 3 -5 31 -15 63 -22 32 -8 61 -19 66 -26 9 -16 97
64 97 89 0 9 -9 40 -20 69 -11 29 -23 83 -27 121 -4 47 -10 67 -19 67 -8 0
-14 5 -14 11 0 6 8 8 19 4 16 -5 22 3 37 41 10 26 45 93 79 148 33 56 66 114
73 129 6 15 17 33 22 40 12 13 85 139 130 222 14 28 48 88 75 135 26 47 61
110 78 140 16 30 32 60 37 65 4 6 17 27 28 47 66 118 78 149 67 177 -4 11 -8
10 -20 -5 -11 -16 -16 -17 -27 -6 -11 11 -10 14 2 22 8 5 26 10 40 10 33 0 46
10 55 40 4 14 15 36 25 50 23 33 22 60 -2 60 -17 0 -38 34 -38 61 0 17 28 9
43 -13 12 -18 18 -20 28 -11 10 10 10 15 -1 28 -7 8 -10 18 -8 21 15 14 -134
148 -167 150 -5 0 -26 10 -45 22 -40 25 -51 27 -47 10 4 -23 -30 -19 -37 4 -5
18 -8 20 -15 9 -12 -19 -41 -6 -41 18 0 14 5 18 20 14 19 -5 20 -3 9 21 -12
26 -51 38 -46 14z"/>
<path d="M5084 4435 c-57 -58 -104 -112 -104 -120 0 -18 -82 -85 -104 -85 -9
0 -24 -4 -34 -9 -9 -6 -43 -17 -74 -27 -31 -9 -65 -25 -74 -35 -9 -10 -21 -16
-25 -13 -15 9 -49 -6 -49 -22 0 -8 -5 -14 -12 -14 -6 0 -9 -2 -6 -5 3 -3 28 0
56 6 44 11 53 10 67 -5 26 -26 12 -41 -51 -55 -79 -18 -100 -30 -51 -31 38 0
49 -13 21 -24 -14 -5 -16 -17 -11 -67 3 -33 11 -66 17 -74 10 -12 10 -18 -1
-31 -10 -13 -10 -17 0 -24 9 -5 11 -17 7 -34 -4 -15 -2 -36 4 -47 10 -17 17
-19 58 -13 26 4 57 11 70 15 13 5 22 5 22 -1 0 -13 -33 -26 -92 -34 -51 -8
-63 -22 -25 -29 21 -3 21 -4 -5 -15 -23 -9 -28 -18 -28 -47 0 -30 3 -35 23
-35 28 0 47 -17 40 -36 -3 -8 0 -14 6 -14 6 0 11 -4 11 -10 0 -5 -11 -10 -24
-10 -42 0 -42 -28 -1 -45 17 -7 18 -9 3 -12 -9 -2 -19 -11 -22 -19 -6 -16 17
-30 33 -20 5 4 12 2 16 -4 3 -5 0 -10 -7 -10 -7 0 -19 -4 -26 -9 -12 -7 -12
-12 -1 -29 12 -19 20 -21 66 -15 57 6 75 -9 26 -22 l-28 -8 27 -7 c14 -4 54
-11 88 -15 36 -4 58 -11 53 -16 -5 -5 -40 -2 -83 7 -41 8 -88 18 -103 21 l-28
5 27 -58 c14 -33 29 -67 31 -77 3 -10 9 -14 12 -9 3 6 36 8 79 4 88 -6 83 -20
-9 -24 l-66 -3 38 -80 c130 -279 179 -431 175 -550 -5 -145 -25 -185 -126
-252 -33 -23 -60 -45 -59 -49 1 -5 -10 -17 -24 -28 -22 -16 -31 -18 -51 -8
-19 9 -27 8 -36 -4 -7 -8 -23 -14 -36 -14 -33 0 -58 -41 -51 -84 4 -24 1 -36
-8 -40 -11 -4 -12 -13 -5 -37 6 -22 6 -35 0 -39 -6 -4 -2 -14 10 -25 22 -20
17 -39 -10 -30 -13 4 -19 -2 -24 -26 -11 -58 -8 -69 29 -85 19 -7 45 -14 58
-14 14 0 30 -6 36 -14 17 -21 -26 -28 -60 -10 -65 33 -103 1 -40 -34 36 -21
81 -62 67 -62 -4 0 -28 16 -53 35 -25 19 -48 33 -51 31 -2 -3 8 -21 23 -40 31
-40 26 -46 -13 -15 -18 14 -28 17 -31 8 -2 -6 11 -23 28 -36 17 -13 31 -28 31
-32 0 -9 -42 -8 -57 2 -23 15 -14 -1 20 -34 27 -27 29 -31 10 -26 -20 4 -19 1
11 -42 18 -25 46 -52 64 -60 18 -8 32 -19 32 -23 0 -5 -5 -6 -11 -2 -17 10 11
-39 30 -53 9 -6 18 -10 21 -8 12 7 185 -102 194 -122 6 -12 21 -28 35 -37 14
-9 37 -26 51 -38 33 -30 130 -162 130 -177 0 -22 -38 8 -148 117 -113 112
-133 130 -274 239 -92 72 -111 94 -75 86 14 -3 7 5 -18 21 -76 49 -83 32 -15
-41 34 -36 77 -78 94 -92 17 -14 42 -36 56 -49 14 -12 49 -34 78 -49 29 -15
67 -43 83 -62 31 -39 35 -43 95 -98 22 -21 39 -43 37 -50 -2 -6 4 -16 15 -22
11 -6 27 -22 36 -36 29 -44 -7 -30 -61 24 -26 27 -68 66 -93 86 -25 20 -120
109 -213 198 -175 168 -185 177 -204 177 -10 0 -27 -52 -28 -85 0 -5 -4 -13
-9 -16 -8 -6 25 -40 70 -73 10 -8 16 -17 13 -21 -4 -3 -21 7 -40 22 l-33 28
32 -47 c18 -26 46 -55 62 -64 26 -16 48 -44 34 -44 -14 0 -64 40 -106 84 -37
39 -51 47 -60 38 -9 -9 -4 -24 23 -64 20 -29 42 -66 50 -82 8 -16 34 -45 59
-65 24 -20 64 -55 87 -77 24 -23 43 -39 43 -35 1 9 30 -31 30 -41 0 -24 -36 0
-93 63 -37 40 -70 68 -76 65 -18 -11 -13 -22 29 -71 22 -25 40 -52 40 -58 0
-7 12 -30 26 -50 14 -21 24 -41 21 -43 -6 -7 -103 114 -124 155 -10 20 -33 53
-50 74 -38 43 -40 53 -13 62 25 8 19 19 -31 50 -42 27 -72 34 -51 13 7 -7 12
-19 11 -28 0 -11 -4 -9 -16 7 -17 25 -73 33 -73 11 1 -25 96 -156 228 -313 45
-54 82 -102 82 -107 0 -20 -68 48 -110 109 -46 68 -129 155 -140 148 -7 -5
-39 35 -60 75 -12 23 -12 24 3 11 10 -8 17 -9 17 -3 0 16 -43 43 -53 33 -8 -8
94 -172 150 -240 28 -34 94 -142 106 -174 11 -29 -10 -19 -34 15 -37 55 -81
97 -95 91 -7 -3 -31 21 -58 59 -25 35 -59 81 -75 104 -17 23 -31 45 -31 49 0
16 -52 75 -61 70 -9 -6 -6 -46 6 -65 12 -20 -12 -10 -35 15 -13 14 -29 25 -37
25 -20 0 -16 -51 7 -85 11 -16 20 -36 20 -43 0 -22 -58 18 -70 49 -15 36 -46
64 -54 50 -4 -6 0 -23 8 -38 8 -16 15 -24 16 -19 0 16 30 -16 30 -34 0 -9 11
-34 25 -54 14 -20 25 -45 25 -55 0 -10 7 -31 14 -47 8 -15 13 -31 10 -36 -6
-10 -34 9 -34 24 0 5 -9 21 -20 36 -10 15 -21 39 -24 53 -4 27 -78 143 -98
155 -6 4 -17 -1 -24 -11 -12 -16 -18 -17 -39 -7 -34 16 -45 15 -45 -1 0 -13
37 -96 76 -171 8 -16 21 -60 29 -97 8 -37 16 -73 17 -80 6 -28 -30 -19 -51 13
-11 18 -21 26 -21 18 0 -9 4 -20 9 -25 14 -16 23 -65 11 -65 -5 0 -10 -16 -10
-35 0 -19 5 -35 10 -35 6 0 10 -18 10 -40 0 -40 24 -94 60 -132 11 -12 21 -31
22 -42 0 -12 2 -26 2 -32 2 -14 32 -44 45 -44 6 0 11 -4 11 -10 0 -5 9 -10 20
-10 11 0 20 -4 20 -10 0 -5 7 -10 15 -10 8 0 23 -4 33 -9 57 -29 127 -51 164
-51 15 0 36 -4 46 -10 9 -5 36 -14 59 -20 31 -8 45 -18 55 -40 l13 -30 437 0
438 0 0 2240 0 2240 -23 0 c-13 0 -50 11 -83 23 -33 13 -79 27 -103 31 l-43 7
-104 -106z m116 -783 c3 -2 -1 -7 -7 -9 -32 -11 -7 -19 48 -15 44 3 60 1 55
-7 -4 -6 -15 -11 -24 -11 -12 0 -13 -3 -4 -12 21 -21 13 -36 -20 -43 -18 -4
-44 -16 -58 -26 -27 -20 -148 -52 -162 -43 -5 3 -4 12 3 20 9 11 7 14 -15 14
-14 0 -26 5 -26 10 0 6 -26 10 -57 11 -32 0 -51 3 -43 6 43 14 40 18 -15 23
l-60 7 65 2 c80 3 128 19 60 20 -54 1 -42 12 40 38 95 29 199 36 220 15z
m-261 -1955 c37 -24 185 -77 218 -77 13 0 14 -3 5 -8 -8 -6 2 -15 33 -31 50
-25 65 -41 38 -41 -10 0 -41 15 -68 33 -54 36 -117 61 -138 54 -6 -2 -21 0
-32 6 -13 6 -7 -4 14 -26 31 -33 162 -107 188 -107 15 0 63 -40 63 -52 0 -6
-11 -8 -27 -4 -27 6 -27 6 -9 -9 11 -8 23 -15 28 -15 4 0 8 -7 8 -15 0 -8 -2
-15 -4 -15 -4 0 -71 35 -216 111 -25 13 -58 29 -75 36 -27 12 -28 12 -11 -2
11 -8 23 -15 28 -15 4 0 7 -5 6 -12 -2 -6 6 -12 17 -12 23 -1 101 -40 130 -66
11 -10 31 -21 44 -25 16 -5 20 -10 11 -15 -8 -5 -9 -10 -2 -14 6 -4 9 -13 5
-21 -6 -18 -74 -20 -90 -4 -6 6 -26 13 -43 15 -17 2 -50 17 -73 32 -23 16 -54
37 -69 46 -31 18 -38 39 -10 29 16 -6 16 -5 0 13 -9 11 -26 20 -37 21 -23 2
-71 31 -71 44 0 13 37 11 63 -2 12 -6 36 -24 52 -38 17 -15 44 -35 60 -45 28
-16 28 -15 -5 13 -57 50 -89 84 -85 91 2 4 -1 7 -8 7 -15 1 -136 63 -122 63
10 0 93 -30 195 -70 l55 -21 -30 25 c-16 14 -63 44 -102 67 -40 22 -75 44 -78
50 -8 11 95 -33 142 -62 18 -11 33 -16 33 -11 0 14 -84 89 -109 97 -11 3 -21
10 -21 15 0 13 59 -7 99 -33z m-59 -257 c-9 -6 134 -106 165 -115 19 -6 19 -5
1 7 -44 31 -88 68 -81 68 5 0 23 -11 40 -25 18 -13 43 -26 56 -29 92 -19 189
-77 169 -101 -8 -10 -8 -16 2 -24 60 -49 71 -60 60 -61 -7 0 -25 9 -40 19
-109 77 -185 105 -110 40 68 -59 37 -56 -44 4 -40 30 -98 68 -129 86 -31 17
-73 46 -95 65 -33 28 -37 36 -26 49 10 12 10 17 1 23 -8 4 -9 3 -5 -4 11 -18
-3 -14 -42 10 -38 23 -29 38 10 17 22 -12 22 -11 8 6 -12 15 -7 14 27 -6 23
-13 38 -26 33 -29z"/>
<path d="M2824 4273 c-28 -49 -59 -112 -68 -141 -10 -29 -25 -59 -33 -68 -11
-10 -13 -24 -8 -47 4 -18 7 -49 7 -69 0 -21 5 -38 10 -38 6 0 8 -6 5 -14 -3
-7 -1 -18 5 -24 8 -8 7 -13 -5 -18 -12 -4 -17 -18 -17 -46 0 -47 23 -76 45
-58 8 6 20 8 26 4 7 -4 9 -3 5 4 -3 6 2 19 13 29 11 10 35 48 54 84 20 36 58
100 86 142 28 41 51 82 51 91 0 8 4 18 10 21 12 7 10 84 -2 91 -4 3 -8 13 -8
23 0 9 -8 27 -17 40 -84 109 -92 109 -159 -6z"/>
<path d="M2481 4269 c-20 -26 -22 -34 -13 -55 12 -24 11 -25 -25 -28 -18 -2
-70 -73 -84 -114 -7 -20 -20 -43 -29 -52 -15 -13 -80 -123 -80 -135 0 -9 256
-4 270 5 11 7 6 10 -20 10 -33 1 -34 2 -11 11 14 5 34 8 45 7 17 -2 23 5 31
37 6 22 14 46 18 53 5 7 4 19 -2 26 -8 10 -7 17 4 26 17 14 20 37 5 42 -6 2
-6 16 1 41 9 32 7 43 -12 77 -12 21 -26 37 -31 34 -4 -3 -8 6 -8 20 0 36 -29
33 -59 -5z"/>
<path d="M4320 4113 c0 -6 -14 -16 -32 -22 l-31 -11 21 -23 c12 -13 22 -31 22
-40 0 -9 8 -17 18 -17 14 0 15 -2 2 -10 -12 -8 -13 -14 -3 -41 7 -18 10 -36 7
-40 -3 -5 20 -9 51 -9 96 0 160 42 130 84 -15 20 -26 19 -87 -8 -39 -17 -64
-5 -28 14 17 9 18 14 9 31 -8 16 -17 19 -36 14 -13 -3 -33 -3 -44 0 -22 7 -26
45 -5 45 21 0 30 20 17 33 -8 8 -11 8 -11 0z"/>
<path d="M3468 3982 c-44 -6 -52 -24 -28 -70 23 -44 47 -69 57 -59 3 4 13 3
22 -2 10 -5 27 -2 46 10 17 10 37 21 45 25 8 3 23 10 32 15 10 5 25 9 33 9 20
0 19 23 -3 50 -16 20 -29 23 -98 24 -43 1 -91 0 -106 -2z"/>
<path d="M4095 3940 c-3 -11 -13 -20 -21 -20 -8 0 -14 -4 -14 -10 0 -5 -29
-39 -65 -75 -36 -35 -65 -69 -65 -75 0 -6 -4 -9 -9 -6 -4 3 -16 -19 -26 -50
-16 -51 -16 -56 -1 -73 15 -16 15 -19 -2 -34 -10 -10 -25 -17 -34 -17 -15 0
-78 -124 -78 -154 0 -7 -11 -29 -24 -49 -24 -34 -24 -35 -4 -40 25 -7 19 -31
-10 -35 -18 -3 -20 -8 -15 -35 8 -42 30 -62 77 -70 41 -6 69 -24 61 -38 -11
-16 -98 -22 -134 -9 -20 8 -49 13 -64 12 -20 -2 -27 1 -22 10 4 7 1 6 -7 -3
-7 -8 -21 -18 -30 -22 -10 -3 -28 -27 -40 -52 l-23 -46 25 -19 c22 -17 23 -19
7 -25 -9 -4 -24 -2 -32 5 -11 9 -17 9 -27 -2 -14 -14 -77 -118 -125 -205 -15
-28 -56 -100 -89 -160 -34 -59 -69 -121 -78 -138 -9 -16 -25 -43 -36 -60 -11
-16 -23 -37 -26 -45 -4 -8 -14 -23 -23 -33 -8 -10 -15 -30 -16 -45 0 -23 -4
-27 -30 -28 -16 -1 -68 -7 -115 -13 -47 -7 -109 -15 -138 -18 -45 -5 -53 -9
-59 -31 -3 -14 -1 -33 6 -43 6 -10 11 -26 11 -34 0 -8 4 -15 9 -15 6 0 22 -12
38 -26 15 -14 50 -45 76 -69 26 -24 54 -42 61 -39 8 3 20 -2 27 -11 8 -9 31
-34 51 -55 28 -30 38 -35 42 -23 3 8 4 19 0 24 -3 5 2 9 12 9 12 0 15 -6 11
-21 -5 -19 9 -78 22 -89 10 -8 31 -75 31 -96 0 -11 4 -24 8 -30 5 -5 19 -35
32 -67 31 -78 78 -116 180 -144 77 -21 79 -21 85 -2 8 25 25 24 25 -1 0 -20
23 -30 78 -35 15 -1 36 -5 46 -10 13 -6 22 -3 31 8 16 22 37 6 38 -29 0 -16 2
-23 4 -16 6 16 32 15 39 -2 4 -11 13 -12 35 -6 17 5 31 5 35 -1 7 -12 83 -9
91 4 2 4 -7 18 -21 30 -14 13 -26 29 -26 36 0 11 4 10 18 -2 10 -10 23 -17 28
-17 6 0 25 -16 43 -34 l34 -35 40 21 c30 15 37 22 26 29 -11 7 -11 9 -1 9 10
0 10 5 -2 22 -9 12 -16 31 -16 41 0 18 1 18 28 -1 48 -33 52 -35 44 -15 -16
39 -52 102 -62 108 -5 3 -10 11 -10 18 0 6 17 -5 38 -26 28 -27 41 -34 52 -26
13 8 12 12 -5 27 -29 24 -55 64 -55 82 1 10 9 5 27 -15 14 -16 32 -30 39 -31
32 -5 9 35 -57 99 -38 38 -69 71 -67 72 2 2 33 -23 68 -55 36 -33 68 -59 72
-60 4 0 2 15 -3 32 -12 42 -12 41 6 34 23 -8 29 18 14 54 -10 21 -21 30 -38
30 -20 0 -23 3 -17 28 4 15 8 35 9 45 2 22 16 22 24 0 9 -26 34 -53 49 -53 11
0 13 18 9 81 -4 79 -5 82 -42 116 -39 35 -30 35 20 0 16 -10 30 -17 32 -15 2
2 0 20 -4 40 -6 26 -5 42 5 56 12 18 35 90 51 160 4 17 -3 33 -28 60 -31 33
-32 34 -7 19 37 -23 55 -21 62 6 3 12 28 37 56 56 27 19 50 38 50 43 0 5 5 6
11 2 6 -3 14 -3 18 2 10 14 49 34 66 34 20 0 78 29 87 44 12 18 9 36 -6 36 -8
0 -24 9 -37 20 l-24 19 23 1 c21 0 23 4 20 38 -2 30 -7 38 -25 40 -14 2 -23
10 -23 22 0 12 -15 24 -42 36 -41 17 -41 18 -16 22 15 2 40 -4 57 -13 36 -18
38 -16 11 15 -15 18 -17 26 -8 31 7 5 -7 13 -37 20 l-50 13 32 8 c23 6 31 13
26 24 -4 11 -9 12 -16 5 -15 -15 -60 -14 -54 2 2 6 13 12 24 12 35 0 36 11 2
76 -18 35 -32 70 -31 77 2 6 -6 12 -16 12 -27 0 -34 11 -15 25 15 11 14 16 -5
57 -12 24 -22 51 -22 60 0 8 -9 23 -20 33 -12 10 -18 25 -15 33 9 23 -16 69
-44 80 -25 9 -25 10 -3 11 19 1 22 6 22 45 0 41 -2 45 -27 49 -27 4 -27 4 -5
12 27 9 29 25 2 25 -12 0 -20 7 -20 16 0 14 -3 14 -15 4 -11 -9 -19 -10 -26
-3 -8 8 -4 13 12 18 16 5 26 2 36 -11 12 -17 14 -17 28 2 21 28 18 43 -11 50
l-27 7 22 16 c21 16 21 20 11 66 -17 73 -33 100 -57 100 -31 1 -42 15 -12 15
13 0 31 5 39 10 13 9 13 11 1 19 -8 5 -16 20 -18 33 -1 13 -19 37 -38 54 -19
17 -35 36 -35 43 0 19 -38 12 -45 -9z"/>
<path d="M3360 3904 c0 -11 -6 -13 -19 -9 -24 7 -46 -23 -55 -77 -4 -21 -11
-38 -16 -38 -6 0 -10 -4 -10 -10 0 -5 7 -10 15 -10 8 0 15 -4 15 -8 0 -15 -38
-44 -48 -38 -13 8 -22 -28 -11 -45 7 -11 9 -11 9 -1 0 7 8 12 18 11 9 -2 27 3
40 9 19 11 23 10 28 -3 7 -16 44 -21 44 -5 0 6 11 10 24 10 13 0 31 3 40 6 30
12 16 24 -28 24 -30 0 -46 5 -50 15 -3 8 -17 20 -31 25 -39 15 -30 30 19 30
39 0 44 -2 39 -20 -5 -17 0 -20 31 -20 38 0 47 13 20 28 -11 6 -13 11 -5 16
20 13 11 26 -18 26 -17 0 -33 5 -36 10 -3 6 3 10 14 10 29 0 34 16 16 44 -20
30 -45 41 -45 20z"/>
<path d="M2222 3840 c-12 -16 -22 -32 -22 -35 0 -3 -18 -32 -40 -64 -22 -32
-40 -62 -40 -66 0 -7 -69 -125 -112 -193 -10 -15 -30 -52 -46 -82 -39 -76
-112 -202 -129 -221 -14 -16 -14 -44 0 -66 9 -15 197 -14 197 0 0 5 9 5 20 2
23 -7 74 25 91 57 9 16 7 23 -10 35 -27 18 -18 33 20 33 19 0 29 5 29 15 0 11
-12 15 -50 15 -27 0 -50 5 -50 10 0 6 26 10 58 10 62 0 72 6 108 70 34 62 50
69 145 70 84 0 87 1 93 25 8 33 -3 75 -20 75 -8 0 -14 5 -14 10 0 6 6 10 14
10 7 0 35 20 62 46 l49 45 -25 19 c-14 11 -37 20 -51 20 -15 0 -33 7 -40 16
-12 14 -8 26 24 85 20 38 37 73 37 78 0 5 -57 10 -138 10 l-139 1 -21 -30z"/>
<path d="M4480 3838 c-25 -11 -48 -25 -51 -30 -3 -5 -24 -6 -46 -2 -43 7 -70
-11 -41 -27 11 -6 14 -21 10 -59 -3 -38 -1 -55 12 -69 11 -13 14 -21 7 -26 -6
-3 -11 -19 -11 -36 0 -27 2 -29 43 -29 31 0 38 -3 27 -10 -8 -5 -25 -10 -37
-10 -19 0 -23 -6 -23 -31 0 -28 2 -30 33 -28 57 4 72 0 59 -13 -6 -6 -32 -11
-57 -11 -47 0 -55 -9 -30 -33 9 -9 15 -34 15 -58 0 -26 6 -48 14 -56 8 -6 12
-18 9 -25 -6 -17 25 -104 44 -123 7 -7 13 -16 14 -20 6 -62 30 -92 71 -92 15
0 28 -5 28 -11 0 -7 -12 -10 -29 -7 -31 4 -31 3 -9 -52 5 -14 17 -41 26 -60
l17 -35 95 -8 c52 -4 99 -13 105 -18 7 -8 -12 -9 -65 -5 -82 7 -117 -3 -84
-24 15 -9 19 -21 16 -45 -4 -32 -2 -34 34 -44 22 -5 48 -11 58 -13 11 -2 21
-9 24 -16 3 -10 -8 -12 -50 -7 -29 4 -48 3 -42 -2 6 -4 13 -16 17 -25 3 -10
20 -26 37 -36 27 -17 28 -20 15 -38 -8 -10 -15 -27 -15 -36 0 -10 -5 -18 -10
-18 -6 0 -15 -11 -21 -24 -7 -14 -22 -27 -36 -31 -13 -3 -28 -17 -34 -31 -7
-21 -14 -25 -33 -20 -29 7 -38 -1 -26 -24 9 -16 7 -17 -24 -8 -19 6 -43 7 -53
3 -10 -4 -26 -10 -36 -12 -29 -5 -58 -23 -53 -32 3 -4 -6 -18 -19 -29 -47 -41
-72 -149 -42 -181 10 -12 9 -13 -7 -7 -16 5 -18 2 -14 -26 3 -18 0 -40 -6 -50
-8 -14 -5 -23 14 -44 l25 -26 -25 4 c-30 4 -42 -30 -15 -44 9 -5 20 -21 25
-34 7 -18 17 -24 39 -24 15 0 34 -7 41 -15 11 -13 7 -15 -23 -15 -19 0 -40 7
-47 15 -14 17 -54 17 -56 0 0 -5 -4 -18 -9 -28 -4 -10 -5 -33 -2 -52 3 -19 2
-37 -2 -40 -18 -11 3 -54 50 -100 28 -27 45 -51 39 -53 -7 -3 -30 15 -52 39
-38 41 -41 42 -54 24 -20 -27 -18 -33 19 -63 17 -15 59 -52 93 -84 58 -55 61
-57 76 -39 15 18 14 21 -13 47 -37 35 -37 45 1 31 36 -14 46 -6 55 46 7 37 5
40 -46 88 -65 60 -60 75 6 17 48 -43 52 -40 29 16 -6 15 -4 18 8 13 13 -4 15
0 12 21 -3 15 -6 36 -8 47 -4 27 4 40 15 24 6 -10 9 -8 9 7 0 12 -6 27 -14 33
-13 11 -12 15 5 32 10 10 19 25 19 32 0 18 -34 49 -43 40 -4 -3 -7 0 -7 7 0 7
-8 22 -17 33 -18 19 -17 19 19 4 36 -15 37 -15 52 8 21 32 20 55 -2 55 -18 0
-42 18 -42 31 0 19 35 18 50 -2 l17 -21 21 36 c12 21 22 41 22 46 0 6 -16 17
-37 25 -20 8 -33 18 -30 22 4 3 22 -2 41 -12 29 -16 38 -17 64 -6 40 17 32 34
-24 56 -53 20 -58 36 -9 25 20 -4 44 -6 54 -3 10 3 37 -5 59 -16 46 -23 67
-27 56 -9 -4 6 -3 8 3 5 14 -9 103 36 130 64 39 42 55 163 32 244 -7 22 -12
47 -13 55 -1 19 -63 180 -123 320 -25 58 -46 112 -47 120 -2 8 -13 20 -25 26
-13 7 -18 13 -13 15 6 2 0 25 -13 52 -13 26 -38 86 -57 132 -21 55 -40 87 -52
91 -10 3 -14 10 -10 14 5 5 7 34 6 64 -3 46 -7 56 -25 62 l-22 7 21 8 c12 4
24 19 26 33 4 22 2 26 -18 26 -30 0 -31 11 -3 28 16 10 19 19 14 40 -4 15 -8
33 -9 40 -1 8 -9 18 -17 24 -11 7 -11 11 -1 15 6 2 12 15 12 27 0 23 -21 76
-30 75 -3 0 -25 -10 -50 -21z"/>
<path d="M2649 3664 c-19 -8 -43 -28 -53 -45 -10 -17 -32 -44 -48 -60 -30 -28
-32 -42 -17 -99 6 -21 46 -26 175 -22 109 4 111 4 127 31 9 16 14 31 11 34 -3
2 7 17 21 31 18 18 37 26 60 26 19 0 35 5 35 10 0 6 8 10 18 10 19 0 62 34 62
49 0 5 -6 8 -12 8 -42 -5 -212 17 -236 29 -34 18 -97 17 -143 -2z"/>
<path d="M2590 3359 c-90 -25 -95 -32 -104 -122 -2 -15 -6 -30 -9 -34 -20 -19
-5 -33 36 -33 37 -1 40 -2 24 -14 -16 -12 -15 -14 11 -25 30 -13 158 -11 178
2 7 4 26 5 44 3 24 -3 30 0 26 11 -18 47 -18 65 2 84 12 10 26 19 31 19 14 0
35 -41 25 -49 -5 -3 -10 -62 -10 -131 -3 -253 -6 -325 -16 -337 -7 -9 -7 -13
2 -13 8 0 11 -9 8 -25 -4 -19 -1 -25 11 -25 10 0 22 -5 29 -12 9 -9 12 -6 12
13 0 14 5 30 11 36 8 8 5 13 -12 19 -21 7 -20 9 16 14 39 5 41 7 116 135 102
173 132 218 147 223 22 7 13 -25 -27 -89 -21 -35 -70 -120 -108 -190 -100
-178 -97 -174 -104 -179 -13 -10 -72 -134 -79 -166 -6 -26 -5 -34 6 -34 8 0
14 -8 14 -18 0 -26 -11 -34 -27 -20 -20 16 -28 1 -14 -26 14 -25 59 -36 143
-36 77 0 122 48 218 234 26 50 76 138 112 196 35 58 71 119 80 135 8 17 30 57
48 90 59 109 64 120 70 165 8 64 -10 81 -92 85 -50 3 -66 8 -80 25 -13 16 -24
21 -42 16 -14 -3 -27 -2 -31 3 -3 6 -54 10 -113 9 -90 0 -115 3 -157 22 -79
35 -324 60 -395 39z"/>
<path d="M1833 3041 c-12 -20 1 -56 32 -87 8 -8 15 -20 15 -26 0 -6 25 11 55
37 55 46 87 56 50 14 -15 -15 -16 -22 -7 -28 7 -4 10 -15 6 -24 -4 -11 -1 -17
9 -17 8 0 17 7 21 15 3 9 21 25 40 36 19 11 37 26 40 34 8 23 -4 45 -24 45
-11 0 -22 5 -25 10 -3 6 -49 10 -103 10 -84 0 -99 -3 -109 -19z"/>
<path d="M2497 3013 c-10 -10 -37 -48 -61 -86 -23 -37 -45 -65 -48 -62 -3 3
-8 -4 -12 -17 -7 -25 -86 -88 -109 -88 -8 0 -20 -7 -27 -15 -13 -16 -36 -23
-160 -51 -41 -9 -79 -20 -85 -24 -11 -9 -130 -51 -152 -54 -7 -1 -22 -10 -33
-18 -10 -9 -21 -14 -23 -11 -5 4 -36 -8 -149 -54 -21 -9 -38 -20 -38 -25 0 -4
-3 -7 -7 -7 -21 3 -33 -2 -33 -16 0 -8 -4 -15 -10 -15 -5 0 -10 -18 -10 -39 0
-30 6 -44 24 -58 13 -10 26 -28 30 -38 8 -26 153 -180 169 -180 6 -1 15 4 19
10 11 15 32 -11 24 -30 -3 -10 -12 -15 -20 -12 -20 8 -14 -15 9 -41 20 -21 40
-57 91 -167 16 -33 32 -61 36 -63 4 -2 8 -12 8 -22 0 -17 3 -16 25 5 13 14 29
25 35 25 17 0 11 -26 -10 -45 -11 -10 -20 -23 -20 -28 0 -6 11 0 24 12 14 13
29 20 36 16 7 -4 0 -16 -17 -33 -28 -27 -28 -27 -23 -129 3 -56 8 -105 12
-108 3 -4 16 -2 27 5 14 7 21 7 21 0 0 -16 -33 -49 -43 -43 -6 4 -7 1 -2 -8
13 -19 17 -46 19 -111 0 -31 4 -59 8 -63 4 -4 5 -12 3 -18 -12 -39 -15 -68 -7
-63 13 8 24 -56 12 -68 -7 -7 -10 -2 -11 15 l-1 24 -11 -26 c-12 -26 -16 -143
-6 -153 3 -3 17 0 32 7 19 9 28 22 33 52 7 47 12 57 24 50 12 -7 -8 -86 -27
-107 -10 -11 -12 -18 -5 -18 22 0 12 -32 -19 -61 -17 -15 -29 -36 -28 -46 1
-10 0 -25 -4 -33 -13 -36 -15 -65 -5 -83 9 -18 13 -15 33 34 13 30 21 58 18
62 -3 5 2 16 10 25 9 9 23 38 31 63 25 74 47 122 52 116 6 -6 -27 -116 -53
-179 -10 -23 -14 -52 -10 -78 3 -23 1 -38 -4 -34 -5 3 -9 1 -9 -5 0 -5 -3 -18
-7 -28 -6 -17 -5 -17 15 1 12 11 22 26 23 35 0 12 3 11 9 -4 5 -11 9 -14 9 -7
1 8 9 30 18 49 13 28 14 39 5 54 -10 16 -7 26 15 59 16 21 33 37 40 35 7 -2
10 2 7 9 -3 8 0 17 6 21 9 5 11 -11 8 -59 -1 -36 0 -66 3 -66 3 0 14 18 24 40
25 55 44 70 52 42 3 -12 9 -22 13 -22 4 0 13 -20 20 -45 12 -42 11 -64 -5
-142 -6 -27 -4 -31 11 -29 21 3 34 40 38 111 5 82 17 129 28 113 7 -9 8 -5 5
15 -2 15 0 30 4 33 5 3 9 -8 9 -25 0 -16 -4 -33 -10 -36 -16 -10 -12 -28 5
-21 18 7 18 6 1 -35 -8 -19 -16 -54 -19 -79 -4 -25 -9 -58 -11 -75 -6 -29 -5
-29 4 2 8 23 17 33 31 33 15 0 19 -5 15 -15 -3 -8 -2 -15 3 -15 5 0 14 43 21
95 7 52 16 95 21 95 5 0 9 -38 9 -84 0 -67 3 -85 16 -90 9 -3 17 -6 19 -6 5 0
26 56 24 66 -3 20 2 32 16 38 12 4 15 -2 13 -29 -3 -45 12 -61 42 -43 17 11
20 19 16 48 -6 41 2 82 15 74 5 -3 9 -15 9 -27 0 -40 20 4 21 48 2 29 3 33 6
13 5 -29 33 -61 33 -37 0 7 -5 27 -11 44 -9 23 -9 43 -1 71 l10 39 2 -40 c1
-32 3 -36 10 -20 10 23 12 15 14 -60 4 -152 8 -189 16 -170 l9 20 1 -20 c2
-14 5 -11 9 10 10 40 0 70 -11 35 -5 -15 -6 1 -3 39 3 35 5 88 5 118 0 34 4
52 10 48 6 -3 10 -34 10 -67 l0 -61 25 27 c14 16 25 39 25 55 0 22 5 30 24 33
29 6 43 -17 25 -38 -9 -11 -5 -14 24 -14 20 0 37 -6 40 -14 3 -7 0 -13 -6 -13
-37 1 -45 -5 -49 -35 -3 -18 -2 -44 3 -58 4 -14 8 -19 8 -12 1 10 9 7 27 -7
32 -25 46 -19 34 15 -12 32 -13 74 -1 74 11 0 21 -25 21 -50 0 -10 5 -22 11
-26 16 -9 4 37 -22 93 -11 23 -18 47 -14 53 4 6 -1 22 -10 36 -9 14 -14 32
-11 40 7 19 26 8 26 -15 0 -9 5 -22 11 -28 11 -11 37 -77 60 -151 5 -17 14
-32 19 -32 14 0 12 15 -5 56 -8 20 -12 40 -9 45 3 5 -3 22 -13 39 -14 24 -15
32 -5 42 18 18 29 -3 37 -67 4 -27 13 -72 20 -100 7 -27 16 -62 19 -77 4 -16
10 -27 14 -26 14 3 42 -14 36 -23 -3 -5 6 -9 21 -9 22 0 25 3 19 26 -4 14 -17
47 -30 72 -13 26 -27 63 -30 82 -3 19 -14 53 -24 75 -28 61 -36 99 -19 93 8
-2 22 -31 32 -64 10 -32 25 -72 33 -89 8 -16 22 -55 32 -85 13 -39 28 -61 50
-76 29 -20 36 -21 73 -10 51 15 59 28 59 93 0 56 -39 163 -60 163 -6 0 -8 5
-5 10 3 6 0 12 -7 14 -7 2 -31 9 -53 15 -29 7 -43 18 -53 39 -12 29 -56 57
-72 47 -10 -6 8 -62 35 -116 22 -42 36 -89 26 -89 -10 0 -35 55 -55 121 -16
57 -46 99 -46 65 0 -24 -21 -15 -45 18 -11 16 -33 34 -50 39 -16 5 -45 15 -63
24 -18 8 -39 12 -47 10 -7 -3 -23 5 -36 19 -36 38 -42 30 -36 -41 7 -75 -8
-81 -19 -7 -4 26 -10 56 -14 67 -6 15 -8 12 -14 -18 -4 -21 -11 -35 -16 -32
-5 3 -11 -14 -13 -37 -2 -24 -3 -14 -1 22 5 89 -1 108 -32 102 -13 -2 -24 -8
-24 -13 0 -17 -20 -9 -20 9 -1 24 -22 50 -37 45 -7 -3 -13 0 -13 6 0 6 -13 11
-29 11 -29 0 -57 22 -47 38 11 18 -74 72 -114 72 -11 0 -23 -8 -26 -17 -11
-35 -33 -68 -46 -68 -9 0 -16 31 -24 105 -7 58 -22 150 -34 205 -12 55 -22
107 -22 115 0 55 39 134 144 292 32 48 58 91 58 94 0 4 11 22 25 40 19 25 25
45 25 83 0 28 4 51 9 51 5 0 4 20 -1 46 -8 35 -6 61 6 108 10 43 14 84 10 127
-6 61 -5 68 36 146 23 46 43 96 45 113 1 17 7 36 14 43 15 15 14 82 -2 95 -7
6 -35 14 -62 17 -41 6 -53 3 -68 -12z"/>
<path d="M0 2596 l0 -236 38 16 c20 9 46 18 57 21 11 3 54 15 95 28 85 26 137
39 130 32 -8 -9 -255 -96 -289 -103 l-31 -6 0 -200 0 -199 28 19 c43 30 112
64 125 59 14 -4 -99 -86 -130 -93 -23 -6 -23 -6 -23 -200 l0 -193 53 25 c28
13 51 28 50 34 -2 5 11 18 27 30 17 12 30 28 30 35 0 19 87 92 162 137 35 21
68 42 75 48 7 5 19 10 27 10 8 0 28 17 43 38 15 20 32 40 37 43 4 4 3 10 -3
13 -6 4 -11 2 -11 -5 0 -7 -3 -10 -6 -6 -3 3 -34 -12 -69 -34 -87 -55 -100
-49 -30 16 33 30 69 55 81 55 20 0 51 46 39 58 -2 3 4 12 15 19 11 8 18 19 15
24 -4 5 1 9 9 9 9 0 16 6 16 13 0 10 -10 12 -32 9 -31 -5 -32 -4 -18 13 8 10
38 36 65 58 l50 40 -40 -6 c-22 -3 -51 -9 -65 -13 -19 -5 -22 -4 -14 5 6 7 27
16 45 21 40 10 97 29 121 41 10 5 24 9 31 9 14 0 37 40 37 65 0 7 7 21 16 29
8 9 16 25 17 36 1 11 7 20 14 20 17 0 17 20 1 20 -7 1 -2 8 12 16 14 8 17 13
8 10 -10 -3 -20 -1 -23 4 -4 6 -1 10 6 10 7 0 10 3 6 6 -3 3 13 20 35 38 57
43 64 57 47 92 -8 16 -21 30 -29 30 -8 1 -19 2 -25 3 -5 0 -4 6 2 12 9 9 8 15
-2 25 -7 8 -11 22 -9 31 4 13 -1 18 -18 20 -13 1 -49 6 -81 12 -54 11 -60 10
-90 -12 -34 -26 -104 -42 -132 -31 -13 5 -14 8 -3 15 8 5 2 8 -17 6 -16 -1
-37 -9 -45 -18 -16 -18 -70 -34 -70 -21 0 4 5 13 11 19 7 7 0 12 -26 17 -20 4
-51 15 -69 25 -18 10 -47 22 -64 26 -18 3 -39 13 -47 22 -9 9 -43 17 -90 20
l-75 6 0 -237z m359 -553 c-12 -14 -12 -16 1 -9 8 4 2 -4 -13 -19 -19 -17 -35
-24 -48 -20 -10 4 -19 2 -19 -4 0 -5 -33 -28 -72 -51 -40 -23 -91 -54 -113
-70 -22 -16 -49 -29 -59 -30 -17 0 -16 4 9 30 38 40 194 150 212 150 8 0 26 9
40 20 14 11 37 20 51 20 22 0 23 -2 11 -17z m111 -24 c-14 -11 -43 -32 -65
-46 -83 -54 -107 -76 -93 -85 29 -18 -164 -147 -200 -133 -14 5 -7 16 38 56
37 34 48 48 33 44 -52 -14 -17 14 65 53 48 22 116 62 151 87 35 25 71 45 80
45 12 0 10 -5 -9 -21z"/>
<path d="M1247 2339 c-25 -58 -17 -73 35 -64 36 6 40 5 35 -10 -4 -9 -7 -19
-7 -21 0 -2 -9 -4 -19 -4 -17 0 -14 -8 21 -60 22 -33 44 -60 49 -60 5 0 9 -5
9 -10 0 -6 28 -45 63 -88 67 -82 107 -144 107 -167 0 -8 6 -18 13 -22 47 -29
97 -191 104 -340 l6 -103 26 2 c14 1 34 8 44 16 32 28 19 -10 -18 -52 -37 -40
-45 -62 -20 -52 18 7 19 -4 3 -39 -16 -35 5 -59 26 -29 8 10 18 16 22 12 4 -4
15 2 25 14 11 11 19 16 19 9 0 -23 -23 -106 -31 -111 -11 -7 -89 -143 -89
-154 0 -15 101 95 112 123 9 22 12 23 15 8 3 -10 -2 -29 -11 -42 -24 -37 -19
-51 9 -25 33 31 65 99 65 138 0 30 -2 32 -25 26 -30 -8 -31 -1 -4 37 11 16 22
37 24 46 2 10 11 33 20 50 21 42 13 73 -18 65 -21 -5 -21 -5 -4 22 10 15 15
35 12 45 -3 10 1 24 9 30 10 8 13 23 9 49 -4 20 -6 49 -6 65 0 35 -13 34 -32
-3 -20 -39 -25 -38 -25 6 0 31 2 35 21 29 19 -6 20 -4 16 27 -12 80 -122 336
-148 346 -5 2 -9 10 -9 17 0 7 -3 15 -7 17 -5 2 -26 26 -47 53 -51 64 -86 100
-97 100 -5 0 -10 5 -11 10 -3 13 -90 95 -103 96 -5 1 -16 1 -22 0 -7 -1 -13 7
-13 19 0 21 -33 29 -45 10 -3 -5 -17 -10 -31 -10 -13 0 -24 5 -24 10 0 6 -8
10 -18 10 -11 0 -24 -15 -35 -41z"/>
<path d="M946 2295 c-3 -8 -3 -22 0 -30 7 -17 -16 -43 -32 -38 -6 2 -26 -10
-44 -27 -25 -23 -30 -34 -21 -43 8 -8 1 -21 -30 -53 -57 -58 -32 -64 30 -8 29
26 54 44 58 41 8 -9 -33 -58 -71 -84 -29 -19 -34 -28 -33 -58 1 -22 -5 -40
-13 -45 -8 -5 -12 -11 -9 -15 6 -6 71 30 128 71 49 35 60 29 21 -11 -19 -19
-39 -35 -46 -35 -20 0 -84 -73 -84 -97 0 -13 -4 -23 -10 -23 -5 0 -10 -9 -10
-20 0 -27 8 -25 42 7 51 49 45 8 -9 -60 -30 -38 -29 -51 2 -31 14 9 25 12 25
8 0 -5 -8 -14 -18 -21 -11 -6 -27 -27 -36 -47 -9 -20 -21 -36 -27 -36 -5 0 -7
-10 -4 -22 5 -19 -10 -39 -76 -106 -45 -45 -84 -80 -87 -78 -6 7 63 92 111
134 20 19 37 42 37 51 -1 14 -2 14 -11 -1 -5 -10 -17 -18 -25 -18 -8 0 -48
-35 -89 -77 -75 -78 -107 -89 -39 -14 31 35 33 40 15 38 -12 -1 -21 -4 -21 -7
0 -3 -16 -4 -35 -2 -19 2 -35 0 -35 -4 0 -5 -14 -15 -31 -23 -18 -8 -63 -43
-101 -79 -37 -36 -71 -62 -74 -59 -10 9 15 44 53 76 20 17 34 34 29 38 -4 4
-10 3 -14 -3 -4 -7 -23 -14 -42 -17 -111 -18 -200 -42 -240 -63 -84 -46 -80
-7 -80 -749 l0 -655 2196 0 c1461 0 2193 3 2189 10 -3 5 -17 10 -30 10 -22 0
-44 7 -100 31 -11 5 -49 18 -85 29 -43 13 -76 30 -95 50 -16 16 -36 30 -45 30
-15 0 -64 82 -72 120 -2 8 -5 17 -8 20 -3 3 -16 37 -29 75 -60 176 -91 190
-149 67 -39 -82 -51 -95 -114 -116 -42 -14 -165 -16 -1035 -17 -543 -1 -1006
2 -1028 6 -80 15 -145 65 -145 110 0 8 -4 15 -9 15 -18 0 -34 60 -23 84 9 21
8 23 -9 19 -10 -3 -19 0 -19 6 0 6 -5 10 -12 9 -26 -6 -18 36 22 117 48 98 49
127 2 61 -18 -25 -40 -46 -47 -46 -21 0 -9 23 48 99 66 87 94 159 42 111 -27
-26 -46 -21 -24 6 13 16 12 16 -8 5 -19 -10 -23 -9 -23 4 0 34 84 150 100 140
5 -3 12 6 16 20 3 14 11 25 17 25 6 0 7 3 4 6 -3 4 0 16 8 28 18 25 20 72 3
82 -7 5 -24 -7 -42 -28 -36 -40 -84 -74 -93 -64 -4 3 27 37 69 75 102 95 113
123 105 290 -6 132 -19 186 -70 288 -48 94 -147 222 -147 190 0 -15 -29 -32
-38 -23 -2 3 1 19 8 36 10 24 10 34 1 43 -8 8 -14 8 -19 2 -4 -6 -16 -17 -27
-25 -19 -14 -19 -14 -5 5 8 11 21 25 28 31 11 8 6 17 -25 44 -21 19 -38 37
-38 41 0 17 -14 18 -51 3 -21 -9 -48 -23 -58 -32 -18 -16 -18 -16 -7 6 6 12
18 22 25 22 7 0 22 10 33 23 l21 22 -28 34 c-27 31 -30 32 -45 17 -9 -9 -30
-16 -46 -16 -29 0 -29 0 -13 25 25 39 12 55 -45 55 -30 0 -55 6 -64 15 -13 13
-16 13 -21 0z"/>
<path d="M2601 2053 c14 -38 11 -45 -18 -41 -19 2 -28 -2 -28 -12 -1 -14 22
-58 35 -70 4 -3 12 -20 20 -39 7 -18 30 -49 51 -68 20 -19 40 -44 43 -56 5
-21 105 -97 126 -97 6 0 8 11 4 25 -5 19 -2 25 10 25 13 0 15 -6 10 -27 -7
-26 -6 -26 34 -21 30 4 42 2 46 -9 4 -10 15 -12 41 -7 23 4 35 2 35 -5 0 -16
29 -13 47 5 22 21 11 133 -15 152 -9 7 -24 18 -32 25 -8 6 -34 24 -57 39 -23
15 -44 36 -48 48 -3 11 -13 20 -21 20 -8 0 -14 5 -14 10 0 6 -9 10 -20 10 -11
0 -23 6 -26 14 -3 7 -33 31 -67 53 -45 29 -76 41 -114 45 -51 5 -51 5 -42 -19z"/>
<path d="M2483 1766 c3 -8 1 -17 -6 -20 -9 -3 -9 -5 1 -5 14 -1 16 -37 2 -46
-18 -11 -11 -86 12 -126 11 -21 25 -36 30 -33 4 3 8 0 8 -7 0 -10 3 -10 12 -1
19 19 28 14 28 -13 0 -14 5 -25 11 -25 5 0 8 -4 4 -9 -3 -5 -1 -12 5 -16 5 -3
10 3 10 14 0 12 4 21 8 21 10 0 32 -45 32 -65 0 -8 5 -15 11 -15 7 0 17 -7 23
-14 6 -8 18 -16 26 -18 14 -3 16 2 19 42 0 11 6 20 11 20 6 0 10 -16 8 -35 -1
-20 4 -41 12 -49 20 -19 94 -25 96 -8 1 6 2 15 3 19 0 4 7 -2 15 -12 8 -11 12
-23 10 -27 -7 -11 48 -36 75 -33 14 1 27 8 29 16 11 43 14 43 33 9 17 -33 19
-34 25 -12 7 23 34 31 34 9 0 -9 11 -12 38 -8 20 3 29 6 20 9 -10 2 -18 11
-18 20 0 9 -13 32 -29 51 -17 19 -28 38 -26 41 4 7 -77 70 -89 70 -3 0 -6 -7
-6 -15 0 -24 -28 -18 -46 10 -9 14 -23 25 -30 25 -8 0 -23 9 -34 20 -11 11
-31 20 -44 20 -13 0 -27 6 -29 13 -4 9 -8 9 -15 -2 -8 -11 -11 -10 -16 7 -5
13 -13 19 -22 15 -11 -4 -12 -9 -4 -18 9 -10 6 -16 -9 -24 -11 -6 -22 -11 -25
-11 -10 0 -7 35 4 46 10 10 -28 52 -94 102 -37 27 -46 28 -46 2 0 -11 -7 -20
-15 -20 -18 0 -20 21 -2 39 10 11 10 13 0 7 -8 -5 -13 -1 -13 9 0 16 -23 45
-35 45 -4 0 -5 -6 -2 -14z"/>
<path d="M4225 1509 c-6 -27 -2 -36 44 -82 28 -28 51 -55 51 -59 0 -17 -18 -7
-41 23 -27 36 -55 53 -70 43 -7 -4 5 -23 30 -48 23 -23 38 -45 35 -49 -4 -4
-13 -2 -20 4 -10 8 -11 5 -7 -13 4 -19 -2 -16 -36 19 -32 33 -41 38 -41 23 0
-14 -9 -21 -35 -26 -19 -3 -38 -10 -41 -15 -3 -5 -10 -6 -16 -3 -15 10 -57
-17 -51 -32 3 -8 9 -14 14 -14 8 0 77 -71 116 -119 11 -13 25 -22 31 -20 7 2
-7 29 -35 64 l-47 60 40 -32 c23 -18 47 -39 54 -48 13 -16 57 -20 75 -7 6 4
16 19 23 35 6 15 17 26 24 25 12 -3 12 3 1 45 -6 18 12 24 22 7 12 -19 34 -10
55 25 21 34 21 37 5 61 -9 14 -24 33 -34 42 -81 77 -130 122 -134 122 -3 0 -8
-14 -12 -31z"/>
<path d="M3363 1373 c-16 -6 -6 -50 18 -81 10 -13 35 -37 55 -53 20 -16 34
-29 30 -29 -4 0 -1 -7 8 -15 8 -8 21 -15 29 -15 8 0 22 -9 32 -20 10 -11 24
-20 32 -20 7 0 13 -4 13 -10 0 -5 9 -10 20 -10 11 0 20 -4 20 -9 0 -6 14 -18
30 -28 17 -9 30 -22 30 -28 0 -5 13 -26 28 -46 31 -42 49 -37 67 16 8 22 18
31 38 33 27 3 28 5 22 45 l-6 42 17 -30 c9 -16 18 -32 20 -34 2 -2 23 5 47 15
l44 18 -14 33 c-18 45 -9 42 18 -6 19 -34 26 -39 55 -38 32 2 45 19 24 32 -5
3 -10 11 -10 17 0 6 10 2 23 -10 31 -29 40 -28 33 6 -6 26 -6 26 9 8 15 -20
45 -31 45 -16 0 10 -88 130 -95 130 -3 0 4 -18 15 -41 33 -64 16 -57 -19 8
l-31 58 -75 3 c-70 3 -75 2 -75 -17 0 -30 -15 -26 -38 10 l-19 31 -7 -27 c-6
-25 -8 -26 -25 -11 -23 21 -28 20 -27 -6 1 -18 -4 -23 -21 -22 -27 2 -27 -1
-8 -56 20 -56 19 -63 -6 -50 -26 14 -36 40 -19 50 8 5 9 9 1 14 -6 4 -11 2
-11 -5 0 -8 -4 -8 -15 1 -8 7 -15 19 -15 26 0 8 7 14 15 14 9 0 15 9 15 25 0
18 -5 25 -19 25 -11 0 -26 7 -34 15 -8 8 -17 11 -21 8 -3 -4 -6 -2 -6 4 0 16
-27 24 -100 30 -36 2 -78 8 -95 12 -16 4 -36 6 -42 4z"/>
<path d="M3510 1000 c-11 -7 -16 -30 -17 -87 -3 -141 -19 -244 -41 -265 -21
-22 -78 -37 -135 -38 -38 0 -38 0 -31 -35 3 -19 4 -35 0 -35 -3 0 -12 16 -20
35 -14 33 -18 35 -59 35 -25 0 -58 -7 -73 -15 -16 -8 -37 -15 -46 -15 -25 0
-33 -19 -33 -84 0 -33 -5 -61 -11 -63 -6 -2 -26 12 -46 31 -25 24 -39 31 -49
25 -8 -5 -10 -9 -6 -9 4 0 3 -9 -3 -19 -6 -13 -7 -28 -1 -43 6 -13 10 -16 11
-8 0 11 2 12 8 3 10 -16 577 -37 632 -24 83 19 92 36 110 202 9 92 9 97 -19
165 -16 38 -43 96 -60 129 -17 33 -31 65 -31 71 0 12 -46 54 -59 54 -3 0 -13
-5 -21 -10z"/>
<path d="M1722 717 c-7 -12 -26 -62 -43 -111 -31 -90 -72 -166 -89 -166 -5 0
-13 7 -17 15 -8 13 -11 12 -25 -4 -14 -17 -13 -19 16 -37 27 -16 55 -19 201
-22 94 -1 190 1 215 5 l45 8 6 50 c4 28 10 67 14 88 7 37 7 39 -16 35 -18 -2
-28 -16 -48 -68 -26 -71 -29 -76 -36 -68 -3 2 2 27 10 54 19 62 19 92 1 110
-21 20 -23 19 -51 -36 -14 -27 -27 -50 -29 -50 -2 0 -2 18 1 40 6 39 5 40 -25
40 -24 0 -33 6 -44 30 l-13 30 -49 -102 c-26 -57 -50 -98 -53 -91 -2 6 16 61
41 123 42 100 61 169 37 132 -7 -11 -11 -11 -23 2 -14 13 -17 12 -26 -7z"/>
<path d="M2356 604 c-4 -10 -13 -13 -26 -9 -12 4 -27 1 -35 -5 -12 -10 -15
-10 -15 0 0 7 -9 2 -20 -11 -19 -24 -19 -24 -20 -3 0 25 -38 39 -73 29 -70
-21 -75 -27 -102 -114 -16 -50 -23 -87 -17 -93 10 -10 241 -14 540 -10 l193 2
-3 33 c-2 19 -8 31 -15 30 -9 -2 -13 14 -13 57 0 45 -4 62 -15 67 -24 8 -29
-2 -29 -61 -1 -66 -16 -87 -17 -25 l-1 44 -10 -45 c-9 -37 -12 -41 -19 -25 -4
11 -8 41 -8 66 -1 32 -6 49 -16 53 -10 4 -15 -1 -15 -15 0 -11 -4 -17 -10 -14
-5 3 -10 18 -10 32 0 24 -2 25 -37 19 -21 -4 -44 -15 -51 -25 -15 -21 -52 -17
-52 5 0 8 -3 13 -7 12 -5 -1 -21 4 -36 10 -38 16 -54 15 -61 -4z"/>
</g>
</svg>
